<?xml version="1.0" encoding="utf-8"?>
<!-- Generator: Adobe Illustrator 21.0.0, SVG Export Plug-In . SVG Version: 6.00 Build 0)  -->
<svg version="1.1" id="Layer_1" xmlns="http://www.w3.org/2000/svg" xmlns:xlink="http://www.w3.org/1999/xlink" x="0px" y="0px"
	viewBox="0 0 400 400" style="enable-background:new 0 0 400 400;" xml:space="preserve">
<g>
	<path class="st0" d="M111.7,107.5C2.1,211,189.5,384.6,288.9,281.2C406.8,158.4,220.1,5,111.7,107.5z"/>
	<path class="st1" d="M196.2,273.8l-10.4-1.6C189.7,271.2,193.1,271,196.2,273.8z"/>
	<path class="st1" d="M149.5,260.1c0.4,6.2,7.5,10.3,13.3,8.6c0,0,1,9.7,13.4,6.5c0.3-0.1,0.6-0.2,0.8-0.2l0,0c0,0,2,8.5,14,7.7
		c8.5-0.6,12.5-6.3,12.6-6.3l0.4,2.8c-7.6,13.2-15.8,24.7-17.9,27.6c-0.4,0.5-0.5,1.2-0.4,1.8c0.4,2.1,2.5,7,9.5,10.1
		c7.1,3.1,12.9,1.1,14.3,0.6c1.1-0.3,1.8-1.3,1.9-2.4c0.4-5,1.9-20.2,6.9-33c0.4,0,0.7-0.1,1-0.2c1.2-0.4,3.6-4.2,3.3-6.2
		c0,0,0,0,0,0l0,0c-0.1-0.4-0.2-0.7-0.5-0.9l-0.1,0l16-23.4c1.1-1.2-0.8-3.2-4.3-5l2.6,0.7l2.7-4.7c0,0-4-2.8-9-4.4
		c-0.6-0.2-1.2-0.4-1.8-0.5c0.4-0.6,0.7-1.2,1.1-1.9c6.8-11.4-6.2-18.7-17-24.9c-19-10.9-23.1-17.1-23.1-17.1
		c-4.8,5.3-3.8,13.3,2.4,16.8c-2.1,2.4-2.5,5.6-1.7,8.6l0,0l0,0c0.8,2.6,2.5,5,4.9,6.3c0,0-6,7.3,4.7,13.6c0.2,0.1,0.5,0.3,0.7,0.4
		l0,0c0,0-2.7,4.3,0.2,9.9l0,0.2l0.2,0.2c0.8,1.4,2.1,3,3.8,4.5c1.7,1.4,3.3,2.4,4.9,3.1l-2.1,12.3l-2.3,1l0,0l-6.2-9
		c-1-3.1-2-7.2-3.5-12.7c-3.5-13.3-18.2-8.9-30.7-5.7c-16.7,4.3-25.7,5.7-29.4,4.5C135.8,256.9,142.4,262.1,149.5,260.1z
		M207.6,271.3c0-0.1,0-0.1,0.1-0.2L207.6,271.3L207.6,271.3z"/>
	<path class="st1" d="M70.9,185.4c0,0,6.2,7.3,22.3,0.6c16.1-6.7,27-18.1,28.6-18.5c1.7-0.4,12.4,10.7,16.1,10.6
		c3.7-0.1,1.9-11.9,3.7-11.9s18.2,11.3,18.2,11.3l-37.9,50.2c0,0,14.6-0.6,27.5-18.4s23.3-40.9,29.2-40.9c5.6,0,2.4,13.2,6.5,13.2
		s6-19.1,9.4-19.1c3.4,0,4.2,17.7,10.4,17.7c6.4,0,5.3-14.9,11.8-15.4c3.8-0.3,24,26.6,27.5,24.2c3.8-2.5,1.5-12.7,5.1-12
		c0,0,7.8-0.6,9.8-5.6c2.1-5,5.3,7.6,9.4,7.6c4.1,0,3.2,12.3,10.9,12.3l0.6-7.2l-7.7-15.8c0,0,8,2.6,12.6,10.6s7.2-1.5,12.5,3.7
		c5.2,5.2,21.6,4.2,21.6,4.2l-19.5-8.8l-36.6-28.7l-30.1,18.2c0,0-14.4-12.3-15.3-19.9c0,0-19.9-14.7-24.3-15.1
		c-4.4-0.4-31,41.8-31,41.8l-36.5-27.1L107,169L70.9,185.4z"/>
	<path class="st2" d="M227.3,253.1l-10.6,25l6.1-0.6c0,0,4-10.8,15.4-24.4C238.1,253.1,233.3,254.9,227.3,253.1z"/>
	<path class="st2" d="M213.9,283.2c0,0-5.5,28.2-17.9,27.2c-4.7-0.4-7.8-6.3-7.8-6.3l-1.9,2.7c0,0-0.4,13.2,19.8,13.5
		c4.8,0.1,5.5-3.3,5.5-3.3s1.6-22.5,7-33.3L213.9,283.2z"/>
	<path class="st2" d="M215.4,247.7c0,0,10.8-1.2,20,5.9C235.4,253.6,223.3,254.9,215.4,247.7z"/>
	<path class="st2" d="M220.8,243.2c0,0,6.9-2.2,17.3,2.8l-1.9,3.5l-14.7-4.9L220.8,243.2z"/>
	<path class="st2" d="M189.3,195.4c0,0-2.4,10.1,5.9,14.5c8.2,4.4,38.1,15.1,28.3,28.5l4.8,0.8c0,0,8.9-11.1-4.2-19.3
		C211,211.7,192.4,200.2,189.3,195.4z"/>
	<path class="st2" d="M218.8,238.3c0,0,4.3-5.6,0.4-9c-3.9-3.4-28.2-16.8-28.2-16.8s-2.4,7.1,10.8,13.6
		C214.9,232.5,218.8,238.3,218.8,238.3z"/>
	<path class="st2" d="M213.9,238.6L194.5,227c0,0-0.8,6.8,7,10.2c7.9,3.5,11.2,7.1,11.2,7.1L213.9,238.6z"/>
	<path class="st2" d="M200.3,241.2c0,0,1.2,10.5,10.8,13.6l1-7.8L200.3,241.2z"/>
	<path class="st2" d="M197.6,274.9c0,0-9,8.4-20.3,1.3C177.3,276.2,189.8,267.4,197.6,274.9z"/>
	<path class="st2" d="M162.8,268.7c0,0,24.7-10.5,27.5-4c0.7,1.5,2.2,4.4,2.2,4.4s-2.9-2.4-13.2,0.5S164,271.6,162.8,268.7z"/>
	<path class="st2" d="M149.6,260.1c0,0,21.2-6.6,25.9-7.2c4.7-0.6,10.3-1.7,12,3.2c0.4,1.2,0.9,3.1,0.9,3.1s-4.5-2.4-13.7,0.8
		S151.9,267.6,149.6,260.1z"/>
	<path class="st2" d="M135.4,249.5c0,0,3.4,7.2,15.2,5.4c11.8-1.9,39.1-13.7,41-2.1c1.9,11.6,6.3,23.7,16.4,21.7l-2.8-2
		c0,0-4.1-1.4-6.5-10s-2.9-23.5-19.2-20.9C163.2,244.1,142.2,252,135.4,249.5z"/>
	<path class="st2" d="M126,148.7l10.8,36.5L107,209.7c0,0,2.8,2.8,8.9,0s12.9-4.3,15.4,1.2l-4.5-12.4c0,0,7.8-6.8,13.6-8.3
		c5.8-1.5,7.3-14.9,17.7-10.5l4.1-5.4c0,0-21.5-13.3-23.8-13.3c-2.3,0,2.6,11.3,0.6,11.3S126,148.7,126,148.7z"/>
	<path class="st2" d="M121.9,174.9c2.2,0,6.8,6.2,6.8,7.9c0,3.1-29.8,22.2-31.2,19.9S118.1,174.9,121.9,174.9z"/>
	<path class="st2" d="M85.4,203.7c-3.4-4.1-4.5-13-5.9-13s-2.6,8.9-5.9,13c-1.5,1.8,3.9,1.2,5.9-1C81.5,204.9,86.9,205.5,85.4,203.7
		z"/>
	<path class="st2" d="M86.1,210.2c-3.8-4.6-5-14.5-6.6-14.5s-2.9,9.9-6.6,14.5c-1.7,2,4.3,1.3,6.6-1.1
		C81.8,211.5,87.8,212.2,86.1,210.2z"/>
	<path class="st2" d="M86.8,217.2c-4.1-5-5.5-15.9-7.3-15.9c-1.8,0-3.1,10.8-7.3,15.9c-1.8,2.2,4.8,1.4,7.3-1.2
		C82,218.6,88.6,219.5,86.8,217.2z"/>
	<path class="st2" d="M68,208.3c-3.4-4.1-4.5-13-5.9-13s-2.6,8.9-5.9,13c-1.5,1.8,3.9,1.2,5.9-1C64.1,209.4,69.5,210.1,68,208.3z"/>
	<path class="st2" d="M68.7,214.7c-3.8-4.6-5-14.5-6.6-14.5c-1.6,0-2.9,9.9-6.6,14.5c-1.7,2,4.3,1.3,6.6-1.1
		C64.4,216.1,70.4,216.8,68.7,214.7z"/>
	<path class="st2" d="M69.3,221.8c-4.1-5-5.5-15.9-7.3-15.9c-1.8,0-3.1,10.8-7.3,15.9c-1.8,2.2,4.8,1.4,7.3-1.2
		C64.6,223.2,71.2,224,69.3,221.8z"/>
	<path class="st2" d="M87.3,224.4c-4.4-5.4-5.9-17-7.8-17c-1.9,0-3.4,11.6-7.8,17c-2,2.4,5.1,1.5,7.8-1.3
		C82.2,226,89.2,226.8,87.3,224.4z"/>
	<path class="st2" d="M312.2,206.8c3.4-4.1,4.5-13,5.9-13s2.6,8.9,5.9,13c1.5,1.8-3.9,1.2-5.9-1
		C316.1,207.9,310.7,208.6,312.2,206.8z"/>
	<path class="st2" d="M311.5,213.2c3.8-4.6,5-14.5,6.6-14.5c1.6,0,2.9,9.9,6.6,14.5c1.7,2-4.3,1.3-6.6-1.1
		C315.9,214.6,309.8,215.3,311.5,213.2z"/>
	<path class="st2" d="M310.9,220.3c4.1-5,5.5-15.9,7.3-15.9c1.8,0,3.1,10.8,7.3,15.9c1.8,2.2-4.8,1.4-7.3-1.2
		C315.6,221.7,309.1,222.5,310.9,220.3z"/>
	<path class="st2" d="M329.6,211.4c3.4-4.1,4.5-13,5.9-13s2.6,8.9,5.9,13c1.5,1.8-3.9,1.2-5.9-1
		C333.5,212.5,328.1,213.2,329.6,211.4z"/>
	<path class="st2" d="M328.9,217.8c3.8-4.6,5-14.5,6.6-14.5c1.6,0,2.9,9.9,6.6,14.5c1.7,2-4.3,1.3-6.6-1.1
		C333.3,219.1,327.2,219.9,328.9,217.8z"/>
	<path class="st2" d="M328.3,224.9c4.1-5,5.5-15.9,7.3-15.9c1.8,0,3.1,10.8,7.3,15.9c1.8,2.2-4.8,1.4-7.3-1.2
		C333.1,226.3,326.5,227.1,328.3,224.9z"/>
	<path class="st2" d="M91.5,220.8c3.4-4.1,4.5-13,5.9-13s2.6,8.9,5.9,13c1.5,1.8-3.9,1.2-5.9-1C95.4,222,90,222.7,91.5,220.8z"/>
	<path class="st2" d="M90.8,227.3c3.8-4.6,5-14.5,6.6-14.5s2.9,9.9,6.6,14.5c1.7,2-4.3,1.3-6.6-1.1
		C95.1,228.6,89.1,229.4,90.8,227.3z"/>
	<path class="st2" d="M90.2,234.4c4.1-5,5.5-15.9,7.3-15.9s3.1,10.8,7.3,15.9c1.8,2.2-4.8,1.4-7.3-1.2
		C94.9,235.8,88.3,236.6,90.2,234.4z"/>
	<path class="st2" d="M294.2,221.7c3.4-4.1,4.5-13,5.9-13s2.6,8.9,5.9,13c1.5,1.8-3.9,1.2-5.9-1
		C298.1,222.8,292.7,223.5,294.2,221.7z"/>
	<path class="st2" d="M293.5,228.2c3.8-4.6,5-14.5,6.6-14.5c1.6,0,2.9,9.9,6.6,14.5c1.7,2-4.3,1.3-6.6-1.1
		C297.9,229.5,291.8,230.2,293.5,228.2z"/>
	<path class="st2" d="M292.9,235.2c4.1-5,5.5-15.9,7.3-15.9c1.8,0,3.1,10.8,7.3,15.9c1.8,2.2-4.8,1.4-7.3-1.2
		C297.6,236.6,291,237.4,292.9,235.2z"/>
	<path class="st2" d="M310.4,227.5c4.4-5.4,5.9-17,7.8-17c1.9,0,3.4,11.6,7.8,17c2,2.4-5.1,1.5-7.8-1.3
		C315.5,229,308.4,229.9,310.4,227.5z"/>
	<path class="st2" d="M257.4,178.9c0,0,18.1,18.5,21.5,18.8l-0.9,11.5L257.4,178.9z"/>
	<path class="st2" d="M262.8,149.3l17.3,34.8l-0.6,7.2l18.7,8.7c0,0-10.5-8.5-10.5-14.1c0-5.6-9.4-14.6-4.3-14.6s-2.8-8.4-2.8-8.4
		L262.8,149.3z"/>
	<polygon class="st2" points="193.2,92.5 217.8,92.5 209.9,100.4 217.6,108.1 193.2,108.1 	"/>
	<path class="st2" d="M193.1,153.7c-5,2.5,14.5,23.6,6,37.6c-4.6,7.5,9.1,9.5,23.8,4.4c14.7-5.1,13.1,13.4,23.4,13.4
		c5.7,0-0.8-15.6,4.2-15.6s6.5,42.2,14.1,42.2s2.9-35.4,24.9-9.7l-32-47c0,0-11-2.7-14.4-4.3c-22.1-10.2-28.8-21.7-31.3-21.7
		c-3.2,0,1.6,11.7-3.3,11.7S196.1,152.1,193.1,153.7z"/>
	<path class="st2" d="M175.2,180.4c-5.4,0-16.5,25.7-15,27.8c1.6,2.2,20.2-4,20.2-9.6C180.4,195.2,179.4,180.4,175.2,180.4z"/>
	<g>
		<path d="M230.4,238.6c-0.1,0-0.2-0.1-0.4-0.1l0.3-0.5c1.9-3.2,2.5-6.4,1.7-9.5c-1.9-7.2-10.9-12.3-18.8-16.9l-0.3-0.2
			c-18.3-10.5-22.6-16.6-22.7-16.7c-0.2-0.3-0.5-0.5-0.9-0.5c-0.4,0-0.7,0.1-1,0.4c-2.6,2.9-3.8,6.7-3.2,10.4c0.5,3,2.2,5.7,4.6,7.5
			c-1.4,1.9-2,4.3-1.7,6.8c0.4,3.3,2.3,6.3,5,8.2c-0.7,1.2-1.5,3.4-1.1,6c0.5,3.1,2.8,5.8,6.6,8.2c-1,2.5-2.3,8.8,5.1,15.2
			c1.6,1.4,3.3,2.4,5.2,3.2c-0.7,3.8-1.6,7.7-2.7,11.5c-4.7-2.2-5.7-6.2-9-19l-0.6-2.2c-1-3.7-2.9-6.5-5.7-8.1
			c-6.4-3.8-16.4-1.1-25.2,1.2l-1.3,0.3c-15.9,4.1-25.3,5.6-28.7,4.5c-0.4-0.1-0.8,0-1.1,0.2c-0.3,0.2-0.5,0.6-0.5,1
			c0.2,4.1,2.2,7.7,5.4,9.9c2.3,1.6,5,2.4,7.8,2.2c0.3,2.3,1.6,4.3,3.7,5.9c2.4,1.8,5.5,2.8,8.5,2.8c0.8,0,1.6-0.1,2.4-0.2
			c0.4,1.4,1.4,3.6,3.6,5.2c1.7,1.1,3.7,1.7,6.1,1.7c1.5,0,3.1-0.2,4.8-0.7c1,2.4,4.3,7.5,13.2,7.5c0.5,0,1.1,0,1.7-0.1
			c5.7-0.4,9.5-2.9,11.6-4.8c-7.1,12.3-14.6,22.9-17.5,27c-0.6,0.8-0.8,1.8-0.6,2.8c0.4,1.7,2.2,7.5,10.2,11
			c2.7,1.2,5.5,1.8,8.4,1.8c2.2,0,4.4-0.3,6.6-1l0.2-0.1c1.6-0.5,2.6-1.8,2.8-3.5c0.6-7,2.1-20.4,6.6-32c0.2,0,0.3-0.1,0.5-0.1
			c0.1,0,0.2-0.1,0.3-0.1c0,0,0,0,0,0c0.5-0.3,1-0.7,1.4-1.3c0,0,0,0,0,0c0.1-0.1,0.2-0.2,0.3-0.4c0,0,0.1-0.1,0.1-0.1
			c0.1-0.1,0.1-0.2,0.2-0.3c0.3-0.5,0.6-1,0.9-1.5c0-0.1,0.1-0.2,0.1-0.3c0-0.1,0-0.1,0.1-0.2c0.3-0.7,0.6-1.5,0.7-2.1
			c0.1-0.4,0.1-0.7,0-1c0,0,0,0,0,0c0-0.1,0-0.1,0-0.2c0-0.1,0-0.2-0.1-0.3c-0.1-0.4-0.2-0.6-0.4-0.9c6.4-12.1,15.4-22.2,15.5-22.3
			c0,0,0,0,0,0c0,0,0,0,0,0c0.6-0.7,0.8-1.7,0.4-2.6c-0.3-0.8-0.9-1.5-1.8-2.3l2.5-4.3c0.3-0.5,0.2-1.2-0.3-1.6
			C239.6,243,235.6,240.2,230.4,238.6z M237.5,244.5l-1.9,3.2c-3.6-2.1-9.2-3.8-15-4.4c-0.7-0.1-1.2,0.4-1.3,1.1s0.4,1.2,1.1,1.3
			c10.4,1,16.9,5.4,16.8,6.6c-0.6,0.6-5.7,1.7-13.9-1.5c-6.9-2.7-9.7-6.2-9.8-8.2c0-0.1,0-0.2,0-0.3c0-0.1,0-0.1,0-0.2
			c0.2-0.7,0.9-1.2,1.5-1.5c1.5-0.8,3.7-1.2,6.1-1.2c2.6,0,5.6,0.4,8.4,1.3C233.1,241.9,236.1,243.6,237.5,244.5z M187.6,204.6
			c-0.4-2.5,0.2-5.1,1.7-7.3c2.1,2.4,8.1,8,22.5,16.2l0.3,0.2c7.5,4.3,16,9.2,17.7,15.4c0.6,2.5,0.2,5-1.4,7.7l-0.7,1.1
			c-2.4-0.5-4.7-0.7-6.8-0.7c1.2-2,1.5-3.8,1-5.6c-1.3-4.9-8.5-8.8-21.5-15.9c-2.5-1.3-5.1-2.8-8-4.4
			C189.7,209.8,188.1,207.5,187.6,204.6z M190.5,219c-0.3-2,0.2-3.8,1.4-5.3c2.6,1.4,5,2.8,7.3,4c11.6,6.3,19.2,10.5,20.3,14.4
			c0.3,1.2,0.1,2.4-0.7,3.8c-0.3,0.5-0.6,1-0.8,1.5c-1,0.2-1.9,0.4-2.7,0.7c-4.2-4-12.7-8.4-17.4-10.7c-1-0.5-1.8-0.9-2.4-1.2
			C192.8,224.7,190.9,221.9,190.5,219z M194.5,233.1c-0.3-1.9,0.3-3.4,0.8-4.4c0.4,0.2,0.9,0.5,1.4,0.7c4.3,2.2,12.2,6.2,16.3,9.8
			c-0.8,0.6-1.3,1.4-1.6,2.2c-0.1,0.3-0.1,0.7-0.2,1.1c0,0.6-0.1,1.6-0.3,3.1c-1.7-1.3-3.8-2.3-6-3.4c-1.6-0.8-3.2-1.6-4.8-2.6
			C196.8,237.8,194.9,235.5,194.5,233.1z M205.4,255.1c-6.1-5.3-5.3-10.2-4.5-12.3c1,0.6,2,1.1,3,1.6c2.8,1.4,5.1,2.6,6.8,4.2
			c-0.3,2.6-0.7,5.7-1.3,9.1C208,257.1,206.6,256.2,205.4,255.1z M221.4,279c0,0.1,0,0.2-0.1,0.3c0,0,0,0,0,0
			c-0.1,0.2-0.2,0.4-0.3,0.6c0,0.1,0,0.1-0.1,0.2c-0.6,1.3-1.5,2.4-1.8,2.5c-0.2,0.1-0.4,0.1-0.6,0.1c0,0-0.1,0-0.1,0
			c-0.2,0-0.4,0-0.7,0c-0.7,0-1.6-0.2-2.5-0.4c-0.1,0-0.2,0-0.3-0.1c-0.1,0-0.1,0-0.2-0.1c-3.6-1.1-7.9-3.4-8.8-4.9c0,0,0-0.1,0-0.1
			c1.8-0.5,2.8-1.6,3.3-2.3C211.9,276.5,217.8,279,221.4,279z M141,257.6c-2.2-1.5-3.6-3.9-4.2-6.6c4.7,0.5,13.6-1,28.3-4.8l1.3-0.3
			c8.4-2.2,17.8-4.7,23.4-1.4c2.2,1.3,3.7,3.5,4.5,6.6l0.6,2.2c3.5,13.7,4.8,18.5,11.5,21c-0.4,0.3-0.9,0.5-1.6,0.7c0,0,0,0,0,0
			c0,0,0,0,0,0c-0.3,0.1-0.7,0.1-1.1,0.2c-0.1,0-0.1,0-0.2,0c-2.8,0.3-7.9-0.6-12.2-11.3c0-0.1-0.1-0.2-0.1-0.3
			c-0.7-1.9-1.5-4.1-2.1-6.7c-0.6-2.3-1.7-3.9-3.4-4.8c-1.3-0.7-2.9-1.1-4.8-1.1c-4.9,0-12,2.1-22.5,5.2c-2.8,0.8-5.8,1.7-9.1,2.7
			C146.4,259.8,143.4,259.3,141,257.6z M152.4,265.7c-1.1-0.9-2.5-2.3-2.7-4.4c0.1,0,0.2,0,0.3-0.1c3.3-0.9,6.3-1.8,9.1-2.7
			c13.1-3.9,21.7-6.5,25.4-4.4c1.1,0.6,1.8,1.7,2.3,3.3c0.4,1.4,0.7,2.6,1.1,3.8c-4.8-1-13.3,1.8-21.7,4.9c-1.6,0.6-2.9,1.1-3.7,1.3
			C159.3,268.5,155.1,267.7,152.4,265.7z M166.9,273.4c-1.7-1.1-2.4-2.8-2.7-3.9c0.8-0.3,1.7-0.6,2.8-1c5.7-2.1,17.6-6.4,21.3-4.5
			c0.3,0.2,0.5,0.4,0.7,0.6c0.9,2.2,1.8,4.2,2.8,5.8c-3.2-0.5-6.7,0.7-10.5,1.9c-1.7,0.6-3.5,1.2-5.4,1.6
			C172.1,275,169,274.8,166.9,273.4z M191.1,281.5c-8.5,0.6-11.5-3.7-12.4-5.7c1.2-0.4,2.3-0.7,3.4-1.1c5.4-1.8,9.4-3.1,13-0.2
			c1.8,1.7,3.8,2.7,6,3C199.2,279,195.9,281.1,191.1,281.5z M210.4,316.8c-0.1,0.6-0.5,1.2-1.1,1.4l-0.2,0.1
			c-1.7,0.5-6.8,2.2-13.3-0.7c-7.2-3.1-8.6-8.3-8.8-9.3c-0.1-0.3,0-0.6,0.2-0.9c3-4.2,10.6-15,17.9-27.5c1.3,1.1,3.2,2.3,5.4,3.3
			c2.1,0.9,4.3,1.6,6.3,1.9C212.5,296.7,211,309.9,210.4,316.8z M220.7,276.6c-1-0.1-2.5-0.4-4.5-1.2c-3.9-1.4-6.8-3.2-7.3-3.9
			c0,0,0,0,0,0c2.3-8.1,3.6-17.1,4.2-23c0-0.1,0-0.2,0-0.3c0-0.3,0.1-0.7,0.1-1c1.9,2.2,5.2,4.3,9.3,5.9c4.2,1.6,8.1,2.3,11,2.3
			c0.4,0,0.8,0,1.1,0C231.3,259.6,225.2,267.6,220.7,276.6z"/>
		<path d="M337.5,192.8c-11.5-4.4-34.2-13.4-37.8-16.1c-4.6-3.5-35.9-28.8-36.2-29c-0.1-0.1-0.2-0.1-0.3-0.2c0,0-0.1,0-0.1,0
			c-0.1,0-0.3-0.1-0.4-0.1c0,0-0.1,0-0.1,0c-0.1,0-0.2,0-0.3,0.1c0,0,0,0,0,0c0,0-0.1,0.1-0.1,0.1c-0.1,0-0.1,0.1-0.2,0.1
			c-4.6,4.3-27.4,17.4-29.7,18.7c-5.3-4.8-9.9-11.2-13.8-19.3c-0.1-0.2-0.2-0.3-0.4-0.5c-15.5-11.2-21.3-14.4-23.8-15.1v-39
			c0-0.7-0.5-1.2-1.2-1.2s-1.2,0.5-1.2,1.2v39.5c-3.7,3.8-18.9,25.3-25.6,34.8l-4.3,5.7c-9.4-9.1-34.9-26.5-36-27.3c0,0,0,0-0.1,0
			c-0.1,0-0.1-0.1-0.2-0.1c-0.1,0-0.1-0.1-0.2-0.1c-0.1,0-0.1,0-0.2,0c-0.1,0-0.2,0-0.3,0c0,0-0.1,0-0.1,0c0,0-0.1,0-0.1,0.1
			c-0.1,0-0.2,0.1-0.2,0.1c-0.1,0-0.1,0.1-0.2,0.1c0,0-0.1,0-0.1,0.1l-18.7,23.2l-36.5,16.1c-0.6,0.3-0.9,1-0.6,1.6
			c0.2,0.4,0.6,0.7,1.1,0.7c0.2,0,0.3,0,0.5-0.1l36.8-16.2c0.2-0.1,0.3-0.2,0.4-0.3l17.4-21.6l10.6,35.9l-29.2,24.1
			c-0.5,0.4-0.6,1.2-0.2,1.7c0.2,0.3,0.6,0.4,0.9,0.4c0.3,0,0.5-0.1,0.8-0.3l16.7-13.7l6.6,16.6L121,226.9c-0.4,0.5-0.3,1.3,0.2,1.7
			c0.2,0.2,0.5,0.2,0.7,0.2c0.4,0,0.7-0.2,1-0.5l45.4-60.1c8.7-12.4,23.1-32.4,25.3-34.5c2.3,0.5,13.2,7.7,22.9,14.7
			c9,18.8,22.4,29.1,39.6,30.7l32.3,47.5c0.4,0.5,1.1,0.7,1.7,0.3c0.5-0.4,0.7-1.1,0.3-1.7l-11.1-16.4l1.3-15.8l26.1,12.2
			c0.2,0.1,0.3,0.1,0.5,0.1c0.5,0,0.9-0.3,1.1-0.7c0.3-0.6,0-1.3-0.6-1.6l-26.9-12.6l0.5-6.3c0-0.2,0-0.4-0.1-0.6L266.2,153
			c8.8,7.1,28.4,22.9,32.1,25.7c4.7,3.6,37,15.9,38.4,16.4c0.1,0.1,0.3,0.1,0.4,0.1c0.5,0,0.9-0.3,1.1-0.8
			C338.4,193.8,338.1,193.1,337.5,192.8z M126.4,195.3l11.2-9.2c0.4-0.3,0.5-0.8,0.4-1.3l-10.5-35.6c7.1,4.9,25.8,18.1,33.1,25.3
			l-27.8,36.8L126.4,195.3z M277.1,205.7l-19.3-28.4c-0.2-0.3-0.5-0.5-0.9-0.5c-8.7-0.7-16.2-3.6-22.6-8.7
			c4.4-2.5,22-12.7,28.1-17.5l16.4,33.8L277.1,205.7z"/>
		<path d="M62.1,213.7c-0.7,0-1.2,0.5-1.2,1.2v10.9c0,0.7,0.5,1.2,1.2,1.2s1.2-0.5,1.2-1.2v-10.9C63.3,214.2,62.7,213.7,62.1,213.7z
			"/>
		<path d="M79.5,216.4c-0.7,0-1.2,0.5-1.2,1.2v10.9c0,0.7,0.5,1.2,1.2,1.2s1.2-0.5,1.2-1.2v-10.9C80.7,217,80.1,216.4,79.5,216.4z"
			/>
		<path d="M97.5,225.7c-0.7,0-1.2,0.5-1.2,1.2v10.9c0,0.7,0.5,1.2,1.2,1.2s1.2-0.5,1.2-1.2v-10.9C98.7,226.2,98.1,225.7,97.5,225.7z
			"/>
		<path d="M300.1,226.5c-0.7,0-1.2,0.5-1.2,1.2v10.9c0,0.7,0.5,1.2,1.2,1.2s1.2-0.5,1.2-1.2v-10.9
			C301.3,227,300.8,226.5,300.1,226.5z"/>
		<path d="M317.9,220.5c-0.7,0-1.2,0.5-1.2,1.2v10.9c0,0.7,0.5,1.2,1.2,1.2s1.2-0.5,1.2-1.2v-10.9
			C319.1,221.1,318.5,220.5,317.9,220.5z"/>
		<path d="M335.6,217.7c-0.7,0-1.2,0.5-1.2,1.2v10.9c0,0.7,0.5,1.2,1.2,1.2s1.2-0.5,1.2-1.2v-10.9
			C336.8,218.2,336.2,217.7,335.6,217.7z"/>
	</g>
</g>
</svg>
