<?xml version="1.0" encoding="utf-8"?>
<!-- Generator: Adobe Illustrator 21.0.0, SVG Export Plug-In . SVG Version: 6.00 Build 0)  -->
<svg version="1.1" id="Layer_1" xmlns="http://www.w3.org/2000/svg" xmlns:xlink="http://www.w3.org/1999/xlink" x="0px" y="0px"
	 viewBox="0 0 400 400" style="enable-background:new 0 0 400 400;" xml:space="preserve">
<style type="text/css">
	.st0{opacity:0.5;fill:#7CCFDD;}
	.st1{fill:#FFFFFF;}
	.st2{fill:#7CCFDD;}
</style>
<g>
	<path class="st0" d="M129.6,103.2C5,185.7,107.9,401.4,269.8,295C412.9,200.9,252.5,21.8,129.6,103.2z"/>
	<path class="st1" d="M175.6,145l-9.1-5.4C170.6,140.1,173.8,141.2,175.6,145z"/>
	<path class="st1" d="M137.4,114.8c-2,5.9,3.1,12.4,9.1,12.9c0,0-2.7,9.4,10.1,11c0.3,0,0.6,0.1,0.9,0.1l0,0c0,0-1.4,8.7,10.2,12.4
		c8.1,2.6,14-1.1,14-1.2l-0.6,2.7c-12,9.4-23.8,17-26.9,19c-0.6,0.4-0.9,0.9-1.1,1.6c-0.4,2.1-0.4,7.5,5.1,13
		c5.5,5.6,11.5,5.8,13,5.9c1.1,0.1,2.2-0.5,2.7-1.5c2.2-4.5,9.3-18,18.7-28.1c0.3,0.1,0.7,0.2,1,0.2c1.2,0.1,4.9-2.5,5.4-4.5
		c0,0,0,0,0,0l0,0c0.1-0.4,0.1-0.7-0.1-1.1l-0.1,0l23.5-15.8c1.5-0.7,0.5-3.3-2.2-6.3l2.1,1.6l4.3-3.3c0,0-2.7-4.1-6.8-7.4
		c-0.5-0.4-1-0.8-1.5-1.1c0.6-0.4,1.1-0.9,1.7-1.3c10.5-8.1,1.2-19.7-6.5-29.4c-13.5-17.2-15-24.4-15-24.4
		c-6.4,3.1-8.5,10.9-4.1,16.5c-2.9,1.4-4.5,4.3-4.8,7.3l0,0l0,0c-0.3,2.7,0.4,5.5,2.2,7.7c0,0-8.2,4.5-0.7,14.4
		c0.2,0.2,0.3,0.4,0.5,0.6l0,0c0,0-4.2,3-3.5,9.3l-0.1,0.2l0.1,0.3c0.2,1.6,0.8,3.5,1.9,5.6c1,2,2.2,3.5,3.4,4.7l-6.6,10.6l-2.5,0.1
		l0,0l-2.4-10.7c0.2-3.3,0.8-7.5,1.5-13.1c1.8-13.7-13.6-15.1-26.4-16.8c-17.1-2.2-26-4.3-28.9-6.8
		C125.9,106.7,130.1,114,137.4,114.8z M187.1,146.9c0,0,0.1-0.1,0.1-0.1L187.1,146.9L187.1,146.9z"/>
	<path class="st1" d="M235.3,273.6l-2-33.9l-12.4,0.7l-13.3-20.1l5.6-11.1L182.9,194l-5.6,11.1l-24.1,1.4l-6.8-10.3l-28.3,18.7
		l6.8,10.3l-10.8,21.6l-12.4,0.7l2,33.9l12.4-0.7l13.3,20.1l-5.6,11.1l30.3,15.2l5.6-11.1l24.1-1.4l6.8,10.3l28.3-18.7l-6.8-10.3
		l10.8-21.6L235.3,273.6z M182.5,284.7h-28l-14-24.2l14-24.2h28l14,24.2L182.5,284.7z"/>
	<path class="st1" d="M305.6,203.9c0.3-3.9,0-7.7-0.7-11.6l5.8-11l-13.3-20.1l-12.4,1c-3.3-2.2-6.7-3.9-10.4-5.2l-6.7-10.5l-24,1.4
		l-5.4,11.2c-1.7,0.8-3.4,1.8-5,2.9c-1.6,1.1-3.2,2.3-4.6,3.5l-12.4,0.5l-10.8,21.5l7,10.3c-0.3,3.9,0,7.7,0.7,11.6l-5.8,11
		l13.3,20.1l12.4-1c3.3,2.2,6.7,3.9,10.4,5.2l6.7,10.5l24-1.4l5.4-11.2c1.7-0.8,3.4-1.8,5-2.9c1.6-1.1,3.2-2.3,4.6-3.5l12.4-0.5
		l10.8-21.5L305.6,203.9z M283.4,214.8l-24.2,14l-24.2-14v-28l24.2-14l24.2,14V214.8z"/>
	<path class="st2" d="M212.2,137.3L193,156.5l5.9,1.7c0,0,7.8-8.6,23.3-16.9C222.2,141.4,217.1,141.2,212.2,137.3z"/>
	<path class="st2" d="M188.6,160.2c0,0-15.6,24.1-26.8,18.5c-4.2-2.1-4.9-8.8-4.9-8.8l-2.7,1.8c0,0-5.3,12.1,13.4,19.9
		c4.4,1.9,6.3-1,6.3-1s9.9-20.3,18.9-28.3L188.6,160.2z"/>
	<path class="st2" d="M203.2,127.8c0,0,10.4,2.9,16.4,12.9C219.5,140.8,207.8,137.5,203.2,127.8z"/>
	<path class="st2" d="M209.9,125.7c0,0,7.2,0.6,15,9l-3.1,2.5l-11.8-10L209.9,125.7z"/>
	<path class="st2" d="M198.4,69.6c0,0-5.9,8.5,0,15.7c6,7.2,29.7,28.3,15.6,37l4.1,2.5c0,0,12.4-7,3.3-19.5S199.5,75.2,198.4,69.6z"
		/>
	<path class="st2" d="M209.9,120.4c0,0,6.1-3.6,3.7-8.2c-2.3-4.6-19.9-26.2-19.9-26.2s-4.9,5.7,4.9,16.6S209.9,120.4,209.9,120.4z"
		/>
	<path class="st2" d="M205.1,118.8l-13.6-18c0,0-3.3,6,2.7,12.1c6,6.2,7.8,10.7,7.8,10.7L205.1,118.8z"/>
	<path class="st2" d="M191.6,116.2c0,0-2.8,10.1,4.9,16.7l3.8-6.9L191.6,116.2z"/>
	<path class="st2" d="M176.5,146.4c0,0-11.5,4.5-19.3-6.3C157.2,140.1,172.1,136.5,176.5,146.4z"/>
	<path class="st2" d="M146.6,127.7c0,0,26.9-0.6,27,6.6c0,1.7,0.3,4.9,0.3,4.9s-1.8-3.3-12.5-4.5
		C150.8,133.6,146.6,130.8,146.6,127.7z"/>
	<path class="st2" d="M137.5,114.8c0,0,22.1,1.8,26.7,2.9s10.2,2.2,9.9,7.4c-0.1,1.2-0.3,3.2-0.3,3.2s-3.3-3.9-13-4.4
		C151.1,123.6,136.9,122.6,137.5,114.8z"/>
	<path class="st2" d="M128.3,99.7c0,0,0.4,8,12.1,10.6c11.7,2.7,41.4,1.9,38.8,13.4c-2.6,11.5-3,24.3,7.1,26.2l-1.9-2.9
		c0,0-3.3-2.8-2.3-11.7c1-8.9,6.1-22.9-10-26.6C156.1,105.1,133.6,104.6,128.3,99.7z"/>
	<polygon class="st2" points="153.3,206.5 161.7,219.2 166.6,218.7 172,205.4 	"/>
	<polygon class="st2" points="122.1,231 131.4,241.3 129.3,245.9 114.2,246.8 	"/>
	<polygon class="st2" points="119.7,285.9 129.4,300.7 136.3,287.2 133.3,283.2 	"/>
	<polygon class="st2" points="170.6,302.4 166.6,315.5 183.8,314.5 175.5,301.8 	"/>
	<polygon class="st2" points="207.8,275.2 206.1,279.7 215.4,289.3 222.9,274.3 	"/>
	<polygon class="st2" points="207.8,221.6 200.9,233.9 204.4,238.9 216.8,234.1 	"/>
	<path class="st2" d="M146.5,196.2c1,20.9-16.4,25.4-13.1,41.7c0,0,7.6-14.9,28.3-18.7L146.5,196.2z"/>
	<path class="st2" d="M101.8,247.5c18.6,9.5,13.8,26.9,29.6,32.2c0,0-9.1-14.1-2-33.9L101.8,247.5z"/>
	<path class="st2" d="M123.9,311.8c17.5-11.3,30.2,1.5,42.7-9.5c0,0-16.7,0.8-30.3-15.2L123.9,311.8z"/>
	<path class="st2" d="M190.7,324.9c-1-20.9,16.4-25.4,13.1-41.7c0,0-7.6,14.9-28.3,18.7L190.7,324.9z"/>
	<path class="st2" d="M235.3,273.6c-18.6-9.5-13.8-26.9-29.6-32.2c0,0,9.1,14.1,2,33.9L235.3,273.6z"/>
	<polygon class="st2" points="145.5,268.9 159.5,244.7 187.4,244.7 182.5,236.3 154.6,236.3 140.6,260.5 154.6,284.7 154.7,284.7 	
		"/>
	<path class="st2" d="M213.2,209.2c-17.5,11.3-30.2-1.5-42.7,9.5c0,0,16.7-0.8,30.3,15.2L213.2,209.2z"/>
	<path class="st2" d="M292.5,178.5c-12.6-6.4-5.6-20.9-34.6-14.5c-15.9,3.5-19.9-0.1-27.8,6.8c-7.8,6.9-3.4,18.8-8.6,33.4
		c-5.2,14.7-0.5,25.2,13.8,26.8c14.3,1.7,15.7,14.8,25,12c9.3-2.8,10.7-10,21.9-12s16.5-6.2,15.1-20.7
		C295.9,195.8,305.1,185,292.5,178.5z M259.2,234.1c-18.4,0-33.3-14.9-33.3-33.3c0-18.4,14.9-33.3,33.3-33.3
		c18.4,0,33.3,14.9,33.3,33.3C292.5,219.2,277.6,234.1,259.2,234.1z"/>
	<path class="st2" d="M244,147.8c0,0,17.2,2.3,17.8,6.6l12.9,2.5l-6.7-10.5L244,147.8z"/>
	<path class="st2" d="M297.5,161.2c0,0,4.8,10.9,4,20.4l3.4,10.7l5.8-11L297.5,161.2z"/>
	<path class="st2" d="M312.7,214.1l-10.8,21.5l-12.4,0.5c0,0,6.4-4.6,9.8-11.7C299.2,224.4,303.9,222.3,312.7,214.1z"/>
	<path class="st2" d="M274.4,253.8l-24,1.4l-6.7-10.5c0,0,7.2,3.2,15,2.6C258.8,247.3,263,250.3,274.4,253.8z"/>
	<path class="st2" d="M220.9,240.4l-13.3-20.1l5.8-11c0,0,0.8,7.8,5.3,14.3C218.7,223.6,218.3,228.8,220.9,240.4z"/>
	<path class="st2" d="M205.8,187.5l10.8-21.5l12.4-0.5c0,0-6.4,4.6-9.8,11.7C219.2,177.2,214.5,179.4,205.8,187.5z"/>
	<g>
		<path d="M313.7,213.4l-6.8-9.9c0.2-3.7,0-7.4-0.6-11.1l5.6-10.6c0.2-0.4,0.2-0.9-0.1-1.2l-13.3-20.1c-0.2-0.4-0.6-0.6-1.1-0.5
			l-12,0.9c-3.1-2-6.4-3.7-9.9-5l-6.4-10.2c-0.2-0.4-0.6-0.6-1.1-0.6l-24,1.4c-0.4,0-0.8,0.3-1,0.7l-5.2,10.9
			c-1.7,0.9-3.3,1.8-4.8,2.8c-1.5,1-3,2.1-4.4,3.3l-12,0.5c-0.4,0-0.8,0.3-1,0.7l-10.8,21.5c-0.2,0.4-0.2,0.9,0.1,1.2l6.8,9.9
			c-0.2,3.1,0,6.1,0.4,9.1L183.5,193c-0.3-0.1-0.6-0.2-0.9-0.1s-0.6,0.3-0.7,0.6l-5.2,10.5l-22.7,1.3l-6.4-9.8
			c-0.4-0.6-1.1-0.7-1.7-0.3l-28.3,18.7c-0.3,0.2-0.5,0.4-0.5,0.8c-0.1,0.3,0,0.6,0.2,0.9l6.4,9.8l-10.2,20.3l-11.7,0.7
			c-0.3,0-0.6,0.2-0.8,0.4s-0.3,0.5-0.3,0.9l2,33.9c0,0.3,0.2,0.6,0.4,0.8c0.2,0.2,0.6,0.3,0.9,0.3l11.7-0.7l12.5,19l-5.2,10.5
			c-0.3,0.6-0.1,1.3,0.5,1.6l30.3,15.2c0.2,0.1,0.4,0.1,0.5,0.1c0.1,0,0.3,0,0.4-0.1c0.3-0.1,0.6-0.3,0.7-0.6l5.2-10.5l22.7-1.3
			l6.4,9.8c0.2,0.3,0.4,0.5,0.8,0.5c0.3,0.1,0.6,0,0.9-0.2l28.3-18.7c0.6-0.4,0.7-1.1,0.3-1.7l-6.4-9.8l10.2-20.3l11.7-0.7
			c0.7,0,1.2-0.6,1.1-1.3l-1.9-31.8c2.6,1.6,5.4,2.9,8.3,3.9l6.4,10.2c0.2,0.3,0.6,0.6,1,0.6c0,0,0,0,0.1,0l24-1.4
			c0.4,0,0.8-0.3,1-0.7l5.2-10.9c1.7-0.9,3.3-1.8,4.8-2.8c1.5-1,3-2.1,4.4-3.3l12-0.5c0.4,0,0.8-0.3,1-0.7l10.8-21.5
			C313.9,214.3,313.9,213.8,313.7,213.4z M309.3,181.3l-4,7.6c-2.7-10.4-8.8-19.4-17.1-25.8l8.6-0.7L309.3,181.3z M259.2,246.1
			c-25,0-45.3-20.3-45.3-45.3s20.3-45.3,45.3-45.3s45.3,20.3,45.3,45.3S284.2,246.1,259.2,246.1z M209.5,273.9
			c1.4-4.2,2.1-8.7,2.1-13.4c0-6.5-1.4-12.6-4-18.1l13.4-0.8c0,0,0,0,0,0l5.5-0.3l5.7-0.3l1.9,31.5L209.5,273.9z M217.3,305.9
			L191,323.2l-6.2-9.3l0,0l-7.4-11.2c10.8-2.3,20.1-8.6,26.3-17.4L217.3,305.9z M168.6,301.2c-22.4,0-40.7-18.2-40.7-40.7
			s18.2-40.7,40.7-40.7s40.7,18.2,40.7,40.7S191,301.2,168.6,301.2z M104.9,280.1l-1.9-31.5l5.3-0.3l5.9-0.4c0,0,0,0,0,0l13.4-0.8
			c-1.4,4.2-2.1,8.7-2.1,13.4c0,6.5,1.4,12.6,4,18.1L104.9,280.1z M126,224.5C126,224.5,126,224.5,126,224.5l-4.2-6.4l-1.9-3
			l26.3-17.3l6.2,9.3c0,0,0,0,0,0l7.4,11.2c-10.8,2.3-20.1,8.6-26.3,17.4L126,224.5z M221.6,239.2l-8.3-12.6l-4.2-6.3l4-7.6
			c2.7,10.4,8.8,19.4,17.1,25.8L221.6,239.2z M207.8,222.7l11,16.6l-12.3,0.7c-1.2-2.2-2.6-4.3-4.2-6.3L207.8,222.7z M244.8,149
			l22.6-1.3l4.6,7.2c-4.1-1.1-8.4-1.8-12.8-1.8c-6.4,0-12.5,1.3-18.1,3.6L244.8,149z M207.1,187.4l10.2-20.3l8.6-0.4
			c-7.4,7.3-12.5,16.9-13.9,27.7L207.1,187.4z M206.6,219.8c0,0,0,0.1,0,0.1l-5.9,11.9c-7.1-7.9-17-13.2-28.2-14.2l11-22l28.2,14.1
			L206.6,219.8z M175.4,206.5l-5.5,11c-0.4,0-0.8,0-1.3,0c-2.2,0-4.3,0.2-6.3,0.5l-6.8-10.3L175.4,206.5z M125.1,227.6l6.8,10.3
			c-1.3,2.1-2.5,4.4-3.4,6.8l-12.3,0.7L125.1,227.6z M118.3,281.7l12.3-0.7c1.2,2.2,2.6,4.3,4.2,6.3l-5.5,11.1L118.3,281.7z
			 M127.8,306.7l8.7-17.4c7.1,7.9,17,13.1,28.2,14.1l-6,12c0,0,0,0,0,0l-5,10l-28.2-14.1L127.8,306.7z M161.8,314.6l5.5-11
			c0.4,0,0.8,0,1.3,0c2.2,0,4.3-0.2,6.3-0.5l6.8,10.3L161.8,314.6z M212,293.5l-6.8-10.3c1.3-2.1,2.5-4.4,3.4-6.8l12.3-0.7
			L212,293.5z M273.6,252.6l-22.6,1.3l-4.6-7.2c4.1,1.1,8.4,1.8,12.8,1.8c6.4,0,12.5-1.3,18.1-3.6L273.6,252.6z M301.1,234.5
			l-8.6,0.4c7.4-7.3,12.5-16.9,13.9-27.7l4.8,7.1L301.1,234.5z"/>
		<path d="M259.2,166.3c-19,0-34.5,15.5-34.5,34.5s15.5,34.5,34.5,34.5s34.5-15.5,34.5-34.5S278.2,166.3,259.2,166.3z M259.2,232.9
			c-17.7,0-32.1-14.4-32.1-32.1s14.4-32.1,32.1-32.1s32.1,14.4,32.1,32.1S276.9,232.9,259.2,232.9z"/>
		<path d="M134.8,115.5c-0.5,2.2-0.1,4.6,1.2,6.8c1.9,3.2,5.5,5.7,9.2,6.4c-0.1,1.5-0.1,3.9,1.4,6.2c1.8,2.7,5,4.4,9.7,5
			c0.1,2.7,1.3,9.3,11,12.5c2.2,0.7,4.3,1,6.1,1c2.6,0,4.8-0.6,6.4-1.1c-11.2,8.8-22,15.8-26.3,18.5c-0.8,0.5-1.4,1.4-1.6,2.4
			c-0.3,1.7-0.8,7.7,5.4,14c3.7,3.8,8.3,5.9,13.6,6.3l0.2,0c0.1,0,0.2,0,0.3,0c1.5,0,2.9-0.8,3.5-2.2c3.1-6.3,9.6-18.1,18-27.3
			c0.2,0,0.3,0.1,0.5,0.1c0,0,0.1,0,0.1,0c0,0,0,0,0,0c0.2,0,0.4,0,0.6-0.1c0.1,0,0.1,0,0.2,0c0.2-0.1,0.4-0.1,0.6-0.2
			c0.1,0,0.2-0.1,0.3-0.1c0.2-0.1,0.4-0.2,0.7-0.3c0.1,0,0.1-0.1,0.2-0.1c0.5-0.3,1.1-0.7,1.6-1.2c0,0,0,0,0,0
			c0.2-0.2,0.4-0.4,0.6-0.6c0.1-0.1,0.2-0.2,0.2-0.2c0.1-0.1,0.2-0.2,0.2-0.3c0.3-0.4,0.6-0.7,0.8-1.1c0.2-0.3,0.3-0.7,0.4-0.9
			c0,0,0,0,0,0c0-0.1,0-0.1,0.1-0.2c0-0.1,0-0.2,0.1-0.3c0.1-0.4,0-0.7,0-0.9c10.5-8.8,22.5-14.8,22.7-14.9c0,0,0,0,0,0c0,0,0,0,0,0
			c0.9-0.4,1.4-1.2,1.4-2.3c0-0.8-0.3-1.8-0.9-2.8l4-3.1c0.5-0.4,0.6-1.1,0.3-1.6c-0.1-0.2-2.8-4.3-7-7.7c-0.1-0.1-0.2-0.1-0.3-0.2
			l0.5-0.4c3-2.3,4.7-5,5.1-8.2c0.9-7.4-5.5-15.5-11.2-22.7l-0.2-0.3c-13.1-16.6-14.8-23.9-14.8-23.9c-0.1-0.4-0.3-0.7-0.6-0.8
			c-0.3-0.2-0.7-0.2-1.1,0c-3.5,1.7-6,4.8-6.8,8.5c-0.7,3-0.1,6.1,1.5,8.7c-2,1.2-3.5,3.2-4.1,5.7c-0.8,3.2-0.2,6.7,1.6,9.5
			c-1.1,0.9-2.7,2.6-3.2,5.1c-0.6,3.1,0.4,6.5,3.1,10.1c-1.8,2-5.4,7.3-1,16c0.9,1.9,2.2,3.5,3.6,4.9c-2,3.2-4.3,6.6-6.8,9.6
			c-3.5-3.7-3-7.9-1.3-21l0.3-2.3c0.5-3.8-0.3-7.1-2.2-9.6c-4.5-5.9-14.8-7.2-23.8-8.3l-1.4-0.2c-16.3-2.1-25.6-4.2-28.3-6.5
			c-0.3-0.3-0.7-0.3-1.1-0.2c-0.4,0.1-0.7,0.4-0.8,0.8c-1.3,3.9-0.9,7.9,1.3,11.2C129.9,112.9,132.2,114.6,134.8,115.5z M138,121.1
			c-0.7-1.2-1.4-3-0.9-5.1c0.1,0,0.2,0,0.3,0c3.4,0.3,6.5,0.6,9.4,0.9c13.6,1.3,22.6,2.1,25.2,5.4c0.8,1,1.1,2.2,0.8,3.9
			c-0.2,1.4-0.3,2.7-0.4,4c-4.1-2.7-13-3.3-22-3.5c-1.7-0.1-3.1-0.1-3.9-0.2C143.3,126.2,139.8,124,138,121.1z M148.6,133.6
			c-1.1-1.7-1.2-3.5-1.1-4.6c0.8,0,1.8,0.1,2.9,0.1c6.1,0.2,18.8,0.6,21.5,3.8c0.2,0.3,0.4,0.5,0.4,0.8c0,2.4,0.1,4.5,0.5,6.4
			c-2.8-1.6-6.5-1.9-10.5-2.1c-1.8-0.1-3.7-0.2-5.6-0.5C152.8,137.1,150,135.7,148.6,133.6z M168,150.1c-8.1-2.6-9.3-7.7-9.4-9.9
			c1.2,0.1,2.4,0.2,3.6,0.3c5.8,0.4,9.9,0.6,12.1,4.7c1,2.2,2.5,3.8,4.4,4.9C176.4,150.9,172.6,151.6,168,150.1z M200.7,127.7
			c0.1-0.1,0.1-0.2,0.2-0.3c0.2-0.3,0.3-0.6,0.5-0.9c1,2.8,3.2,5.9,6.4,9c3.7,3.5,7.5,5.7,10.5,6.7c-4.7,2.6-13.4,7.8-20.9,14.4
			c-0.9-0.5-2.1-1.3-3.8-2.8c-3.1-2.8-5.1-5.5-5.3-6.4c0,0,0,0,0,0C193.4,140.8,198,132.9,200.7,127.7z M187.3,150.7
			c1.9,2.5,6.5,7.1,9.7,8.4c-0.1,0.1-0.1,0.1-0.2,0.2c0,0,0,0,0,0c-0.1,0.2-0.3,0.3-0.4,0.4c0,0-0.1,0.1-0.1,0.1
			c-1.1,1-2.3,1.6-2.7,1.7c-0.2,0-0.4-0.1-0.6-0.1c0,0-0.1,0-0.1,0c-0.2-0.1-0.4-0.1-0.6-0.2c0,0,0,0,0,0c-0.1,0-0.2-0.1-0.3-0.2
			c-3.5-1.7-8.2-7.1-8.5-9.3c0,0,0-0.1,0.1-0.1c0.2,0,0.4,0,0.6,0C185.6,151.7,186.7,151.1,187.3,150.7z M172.8,190.1
			c-0.3,0.6-0.9,0.9-1.5,0.9l-0.2,0c-1.8-0.1-7.1-0.5-12.1-5.6c-5.5-5.6-4.9-10.9-4.7-11.9c0.1-0.3,0.2-0.6,0.5-0.8
			c4.3-2.7,15.4-9.9,26.8-18.9c0.5,1,1.2,2,2.1,3.1c1.9,2.3,4.4,4.7,6.8,6C182.2,172.3,175.9,183.9,172.8,190.1z M224.9,133.1
			l-2.9,2.3c-2.6-3.3-7.1-7-12.2-9.7c-0.6-0.3-1.3-0.1-1.6,0.5s-0.1,1.3,0.5,1.6c9.2,4.8,13.7,11.3,13.1,12.4
			c-0.7,0.3-5.9-0.5-12.3-6.5c-5.4-5.1-6.7-9.4-6-11.2c0-0.1,0.1-0.2,0.1-0.2c0-0.1,0.1-0.1,0.1-0.2c0.5-0.6,1.3-0.8,1.9-0.8
			c0.2,0,0.5,0,0.8,0c3.1,0,7.4,1.7,11.2,4.5c0,0,0,0,0,0c0.5,0.4,1,0.7,1.5,1.1C221.8,129.1,223.9,131.8,224.9,133.1z M193.4,77.5
			c0.6-2.5,2.1-4.7,4.3-6.2c1.1,3,4.5,10.4,14.8,23.4l0.2,0.3c5.4,6.8,11.5,14.5,10.7,20.9c-0.3,2.5-1.7,4.7-4.2,6.6l-1,0.8
			c-2-1.4-4.1-2.4-6.1-3.2c1.8-1.4,2.8-3,3-4.8c0.6-5.1-4.6-11.3-14-22.7c-1.8-2.2-3.7-4.5-5.8-7.1
			C193.5,83.2,192.8,80.4,193.4,77.5z M190.8,92c0.5-1.9,1.6-3.5,3.2-4.4c1.9,2.3,3.6,4.5,5.3,6.4c8.4,10.2,13.9,16.9,13.5,20.9
			c-0.1,1.2-0.8,2.2-2.1,3.2c-0.5,0.4-0.9,0.7-1.3,1c-1-0.2-1.9-0.4-2.8-0.4c-2.4-5.2-8.7-12.5-12.1-16.5c-0.7-0.9-1.3-1.5-1.7-2
			C190.8,98.1,190.1,94.8,190.8,92z M189.2,106.5c0.4-1.8,1.5-3.1,2.3-3.8c0.3,0.4,0.7,0.8,1,1.2c3.2,3.7,8.9,10.3,11.4,15.2
			c-1,0.3-1.8,0.8-2.3,1.5c-0.2,0.3-0.4,0.6-0.5,0.9c-0.2,0.5-0.7,1.5-1.4,2.8c-1.1-1.8-2.7-3.6-4.3-5.4c-1.1-1.3-2.3-2.7-3.5-4.2
			C189.7,111.7,188.7,109,189.2,106.5z M191.1,131c-3.7-7.2-1.1-11.4,0.4-13.1c0.7,0.9,1.5,1.8,2.2,2.6c2,2.3,3.8,4.3,4.7,6.4
			c-1.2,2.3-2.8,5-4.6,8C192.8,133.8,191.9,132.5,191.1,131z M129,101.6c4.1,2.2,13,4.1,28,6.1l1.4,0.2c8.6,1.1,18.3,2.3,22.2,7.4
			c1.6,2.1,2.2,4.6,1.7,7.8l-0.3,2.3c-1.9,14.4-2.5,19,2.8,23.8c-0.5,0.1-1,0.2-1.7,0c-0.3-0.1-0.7-0.1-1.1-0.3
			c-0.1,0-0.1,0-0.2-0.1c-2.7-0.8-7.1-3.5-7.1-15c0-0.1,0-0.2,0-0.3c0-2.1,0.2-4.4,0.5-7c0.3-2.4-0.1-4.2-1.4-5.8
			c-3.3-4.1-11.7-4.9-26.9-6.3c-2.9-0.3-6-0.6-9.4-0.9c-3.1-0.3-5.6-1.9-7.2-4.4C129,107,128.5,104.3,129,101.6z"/>
		<path d="M197.6,259.9l-14-24.2c-0.2-0.4-0.6-0.6-1-0.6h-28c-0.4,0-0.8,0.2-1,0.6l-14,24.2c-0.2,0.4-0.2,0.8,0,1.2l14,24.2
			c0.2,0.4,0.6,0.6,1,0.6h28c0.4,0,0.8-0.2,1-0.6l14-24.2C197.8,260.8,197.8,260.3,197.6,259.9z M181.9,283.5h-26.6l-13.3-23
			l13.3-23h26.6l13.3,23L181.9,283.5z"/>
		<path d="M284,185.8l-24.2-14c-0.4-0.2-0.8-0.2-1.2,0l-24.2,14c-0.4,0.2-0.6,0.6-0.6,1v28c0,0.4,0.2,0.8,0.6,1l24.2,14
			c0.2,0.1,0.4,0.2,0.6,0.2s0.4-0.1,0.6-0.2l24.2-14c0.4-0.2,0.6-0.6,0.6-1v-28C284.6,186.4,284.4,186,284,185.8z M282.2,214.1
			l-23,13.3l-23-13.3v-26.6l23-13.3l23,13.3V214.1z"/>
	</g>
</g>
</svg>
