<?xml version="1.0" encoding="UTF-8" standalone="no"?>
<!-- Generator: Adobe Illustrator 21.0.0, SVG Export Plug-In . SVG Version: 6.00 Build 0)  -->

<svg
   xmlns:dc="http://purl.org/dc/elements/1.1/"
   xmlns:cc="http://creativecommons.org/ns#"
   xmlns:rdf="http://www.w3.org/1999/02/22-rdf-syntax-ns#"
   xmlns:svg="http://www.w3.org/2000/svg"
   xmlns="http://www.w3.org/2000/svg"
   xmlns:sodipodi="http://sodipodi.sourceforge.net/DTD/sodipodi-0.dtd"
   xmlns:inkscape="http://www.inkscape.org/namespaces/inkscape"
   version="1.1"
   id="Layer_1"
   x="0px"
   y="0px"
   viewBox="0 0 260.5 236.5704"
   xml:space="preserve"
   sodipodi:docname="the-failure-of-intellectual-property_touched.svg"
   width="260.5"
   height="236.5704"
   inkscape:version="0.92.4 (33fec40, 2019-01-16)"><metadata
   id="metadata3222"><rdf:RDF><cc:Work
       rdf:about=""><dc:format>image/svg+xml</dc:format><dc:type
         rdf:resource="http://purl.org/dc/dcmitype/StillImage" /><dc:title></dc:title></cc:Work></rdf:RDF></metadata><defs
   id="defs3220" /><sodipodi:namedview
   pagecolor="#ffffff"
   bordercolor="#666666"
   borderopacity="1"
   objecttolerance="10"
   gridtolerance="10"
   guidetolerance="10"
   inkscape:pageopacity="0"
   inkscape:pageshadow="2"
   inkscape:window-width="3840"
   inkscape:window-height="2112"
   id="namedview3218"
   showgrid="false"
   fit-margin-top="0"
   fit-margin-left="0"
   fit-margin-right="0"
   fit-margin-bottom="0"
   inkscape:zoom="0.59"
   inkscape:cx="130.3"
   inkscape:cy="118.08973"
   inkscape:window-x="0"
   inkscape:window-y="48"
   inkscape:window-maximized="1"
   inkscape:current-layer="Layer_1" />
<g
   id="g3215"
   transform="translate(-69.7,-81.519331)">
	<path
   class="st0"
   d="m 69.7,189.8 c 0,148.7 260.5,188.6 260.5,9 0,-179.6 -260.5,-128.7 -260.5,-9 z"
   id="path3181"
   inkscape:connector-curvature="0" />
	<path
   class="st1"
   d="m 297.5,253.2 c -0.8,-5.7 -6.9,-12.2 -6.8,-18.2 0.1,-4.4 3.9,-8.1 3.5,-12.4 -0.2,-2 -0.3,-4.1 -0.5,-6.1 -0.3,-4.2 -4.5,-6.9 -4.8,-11 -0.4,-4.7 3.2,-10.8 2.8,-15.2 -0.8,-10.7 -1.6,-20.2 -2.6,-27.6 -2.8,-20.8 -8.3,-54.2 -29.5,-54.2 H 139.7 101.2 c -12.8,0 -16.9,15 -16.9,25 0,16 6.4,27.4 15.5,27.4 h 30.7 c 0.1,0.6 0.2,1.2 0.2,1.7 0.9,6.6 1.7,14.9 2.3,24.3 0.5,7.8 4.6,9.6 4.9,15.9 0.3,6 -3.7,8.7 -3.1,15.1 0.7,7.7 5,7.6 6,15.3 0.5,3.8 -3.9,5.7 -3.1,11.8 1.1,7.9 2.4,16 4.1,24.2 0.4,1.8 0.7,3.6 1.1,5.3 1.2,5.2 2.6,9.9 4.2,13.8 h 158.4 c -3.5,-8.5 -6.1,-21 -8,-35.1 z"
   id="path3183"
   inkscape:connector-curvature="0" />
	<path
   class="st2"
   d="m 101.2,108.6 c -4.6,0 -9.3,14.2 -9.3,26.6 0,12.5 3.9,25.8 7.9,25.8 4,0 13.3,-6.5 14.8,-25.2 l 10.8,-0.6 c -0.1,0 -6.1,-26.6 -24.2,-26.6 z"
   id="path3185"
   inkscape:connector-curvature="0" />
	<path
   class="st2"
   d="m 121.1,135 c 0,0 -0.2,17.1 -10,26 h 19.4 l -5.2,-25.8 z"
   id="path3187"
   inkscape:connector-curvature="0" />
	<path
   class="st2"
   d="M 228.5,244.5 226,266 c -0.1,0.7 -0.7,1.2 -1.4,1.1 l -28.8,-3.4 -0.1,0.8 c -0.2,1.3 0.8,2.5 2.1,2.6 l 28.4,3.3 c 1.5,0.2 2.8,-0.9 3,-2.3 l 2.4,-20.4 c 0.2,-1.5 -0.9,-2.8 -2.4,-3 z"
   id="path3189"
   inkscape:connector-curvature="0" />
	<path
   class="st2"
   d="m 215.7,232.3 c 1.9,0 3.6,1 4.6,2.5 -0.8,-2.6 -3.2,-4.6 -6.1,-4.6 -3.5,0 -6.4,2.9 -6.4,6.4 v 8.9 h 2.4 v -7.6 c -0.1,-3.1 2.4,-5.6 5.5,-5.6 z"
   id="path3191"
   inkscape:connector-curvature="0" />
	<path
   class="st2"
   d="m 190.6,225.6 c -3,22.2 35.8,53.7 64.2,42.8 45,-17.2 13,-148.1 -10.9,-148.1 -20.4,0 21.7,110.4 -2.7,116 -23.2,5.3 -48.2,-28.5 -50.6,-10.7 z"
   id="path3193"
   inkscape:connector-curvature="0" />
	<path
   class="st2"
   d="m 232,216.8 c 11.7,-11 -8.4,-53.1 -27.6,-36.7 -19.2,16.4 15.6,48 27.6,36.7 z"
   id="path3195"
   inkscape:connector-curvature="0" />
	<g
   id="g3199">
		<path
   d="M 155,130.5 153.8,126 H 171 l 1.4,4.5 h -4 l 18.5,28 h 4.4 l 1.6,4.6 h -14.7 l -1.4,-4.6 h 4.6 l -5.5,-8.4 H 163 l -0.5,8.4 h 4.8 l 1.3,4.6 H 154 l -1.1,-4.6 h 4.1 l 2.1,-28 z m 8.3,15.2 h 10 l -9.5,-15.2 h -0.2 z"
   id="path3197"
   inkscape:connector-curvature="0" />
	</g>
	<path
   d="m 218.9,253.2 c 0.3,-2.7 -1.6,-5.1 -4.3,-5.4 -2.7,-0.3 -5.1,1.6 -5.4,4.3 -0.2,2.1 0.8,3.9 2.5,4.9 l -2.1,6.6 3.1,0.4 3.1,0.4 -0.5,-6.9 c 1.8,-0.6 3.3,-2.2 3.6,-4.3 z"
   id="path3201"
   inkscape:connector-curvature="0" />
	<g
   id="g3213">
		<path
   d="m 306.6,288 c -3.1,-7.7 -5.7,-19.2 -7.9,-35 -0.4,-2.8 -1.9,-5.6 -3.4,-8.4 -0.1,-0.3 -0.3,-0.5 -0.4,-0.8 0.4,-0.2 0.8,-0.5 1.1,-0.8 1.4,-1.2 2.3,-2.8 2.5,-4.7 0,0 0,-0.1 0,-0.1 0.3,-3.5 -2.1,-6.6 -5.4,-7.5 0.2,-0.4 0.3,-0.7 0.5,-1.1 1,-2.2 2.1,-4.6 1.8,-7.2 -0.2,-2 -0.3,-4.1 -0.5,-6.1 0,-0.1 0,-0.2 0,-0.2 0.6,-0.2 1.2,-0.4 1.8,-0.5 1.9,-0.6 3.5,-1.8 4.4,-3.6 0.9,-1.7 1.1,-3.6 0.5,-5.4 0,0 0,0 0,0 -1.2,-3.7 -5.2,-5.9 -9,-4.7 -0.8,0.2 -1.6,0.5 -2.3,0.7 0.3,-1.5 0.7,-3 1.2,-4.6 0.8,-2.7 1.6,-5.4 1.4,-7.8 -0.9,-11.4 -1.6,-20.5 -2.6,-27.6 -2.4,-17.9 -7.4,-55.2 -30.7,-55.2 H 101.2 c -12.4,0 -18.1,13.6 -18.1,26.2 0,16.8 6.9,28.6 16.7,28.6 h 29.7 c 0,0.2 0.1,0.5 0.1,0.7 0.7,5 1.6,13.3 2.3,24.3 0.3,4.1 1.5,6.6 2.6,8.8 -1.2,0.8 -2.1,1.9 -2.7,3.2 -0.7,1.7 -0.7,3.7 0.1,5.4 0.7,1.7 2.1,3.1 3.9,3.8 -0.2,0.4 -0.3,0.8 -0.5,1.2 -1,2.4 -2,4.9 -1.6,8.5 0.3,3.3 1.2,5.3 2.3,7 -2.3,1.2 -3.9,3.6 -3.9,6.3 0,1.9 0.7,3.7 2.1,5 1,1 2.3,1.7 3.7,2 -0.9,1.7 -1.6,3.8 -1.2,6.8 1.2,9 2.5,16.9 4.1,24.3 l 0.3,1.2 c 0.3,1.4 0.6,2.8 0.9,4.1 1.3,5.5 2.7,10.2 4.2,14 0.2,0.5 0.6,0.8 1.1,0.8 h 158.4 c 0.4,0 0.8,-0.2 1,-0.5 0,-0.3 0,-0.7 -0.1,-1.1 z m -10.5,-49.9 c 0,0 0,0 0,0 -0.1,1.3 -0.7,2.4 -1.6,3.2 -0.2,0.2 -0.4,0.3 -0.6,0.4 -1.1,-2.3 -2,-4.6 -1.9,-6.7 0,-0.7 0.1,-1.3 0.3,-2 2.3,0.6 4,2.7 3.8,5.1 z m -12.5,-2.3 c -0.7,-0.1 -1.5,-0.2 -2.2,-0.2 0.8,-2 2.8,-3.3 5,-3 1.2,0.1 2.3,0.2 3.5,0.3 -0.2,0.7 -0.3,1.4 -0.3,2.2 -0.1,2.5 0.8,5 2,7.4 -0.2,0 -0.4,0 -0.7,0 -1.8,-0.2 -3.6,-0.3 -5.4,-0.5 -1.3,-0.1 -2.5,-0.8 -3.4,-1.8 -0.5,-0.7 -0.8,-1.4 -1,-2.2 0.7,0.1 1.5,0.2 2.2,0.2 0,0 0.1,0 0.1,0 0.6,0 1.1,-0.5 1.2,-1.1 0.1,-0.7 -0.4,-1.3 -1,-1.3 z m 9.4,-13.1 c 0.2,2 -0.7,4 -1.6,6 -0.3,0.6 -0.5,1.2 -0.8,1.8 -1.4,-0.1 -2.7,-0.2 -4.1,-0.4 -3.5,-0.3 -6.7,1.9 -7.7,5.2 -0.8,-0.1 -1.5,-0.2 -2.3,-0.2 -0.2,-3.4 -2.8,-6.3 -6.3,-6.8 -1.8,-0.2 -3.5,-0.5 -5.3,-0.7 -3.5,-0.5 -6.8,1.7 -7.9,4.9 -0.5,-0.1 -1.1,-0.2 -1.8,-0.3 0,-2.1 -1,-4.1 -2.6,-5.4 0.4,-0.1 0.8,-0.2 1.2,-0.3 2,-0.4 3.6,-1.6 4.7,-3.2 0.8,-1.3 1.2,-2.7 1.1,-4.2 0.6,-0.1 1.2,-0.3 1.8,-0.4 0.6,1.3 1.5,2.5 2.8,3.3 1.2,0.7 2.5,1.1 3.8,1.1 0.6,0 1.2,-0.1 1.8,-0.2 1.8,-0.4 3.5,-0.9 5.3,-1.3 1.9,-0.5 3.6,-1.7 4.5,-3.4 0.8,-1.3 1.1,-2.7 0.9,-4.2 0.7,-0.2 1.5,-0.4 2.2,-0.6 0.6,1.3 1.6,2.4 2.9,3.2 1.1,0.6 2.3,0.9 3.6,0.9 0.7,0 1.4,-0.1 2.1,-0.3 0.4,-0.1 0.7,-0.2 1.1,-0.3 0.3,1.9 0.5,3.8 0.6,5.8 z m -23,13.9 c 1.3,0.2 2.6,0.3 3.9,0.5 -0.3,0.8 -0.8,1.4 -1.4,2 -1,0.8 -2.4,1.2 -3.7,1 -1.8,-0.2 -3.6,-0.5 -5.4,-0.7 -1.3,-0.2 -2.5,-0.9 -3.3,-1.9 -0.5,-0.7 -0.8,-1.4 -0.9,-2.2 0.2,0 0.5,0.1 0.7,0.1 l 2.7,0.4 c 0.1,0 0.1,0 0.2,0 0.6,0 1.1,-0.4 1.2,-1 0.1,-0.7 -0.4,-1.3 -1,-1.4 l -2.7,-0.4 c -0.2,0 -0.5,-0.1 -0.7,-0.1 0.8,-1.9 2.9,-3.2 5.1,-2.9 1.8,0.2 3.5,0.5 5.3,0.7 2.2,0.3 3.9,2 4.2,4.1 -1.3,-0.2 -2.6,-0.3 -3.9,-0.5 -0.6,-0.1 -1.3,0.4 -1.3,1 -0.1,0.6 0.4,1.2 1,1.3 z m -44,-3.7 c -0.2,-0.5 -0.3,-0.9 -0.6,-1.3 0.2,0 0.4,0 0.6,0 0.4,0 0.8,0 1.2,-0.1 1.3,-0.2 2.6,-0.4 3.9,-0.7 -0.3,0.5 -0.8,1 -1.3,1.3 -1.1,0.8 -2.4,1 -3.8,0.8 0.1,0 0,0 0,0 z m -25.4,33.3 c -2.1,-0.2 -3.6,-2.1 -3.3,-4.2 l 1.9,-15.8 c 0.1,-1 0.6,-1.9 1.4,-2.5 0.8,-0.6 1.8,-0.9 2.8,-0.8 l 23.4,2.8 c 2.1,0.2 3.6,2.1 3.3,4.2 l -1.9,15.8 c -0.2,2.1 -2.1,3.6 -4.2,3.3 v 0 z m -19.1,-37.6 c -1.1,0.1 -2.3,0.2 -3.4,0.3 0.4,-2.1 2.2,-3.7 4.4,-3.9 0.6,0 1.1,-0.1 1.7,-0.1 0.3,0 0.5,0.1 0.8,0.1 0.7,0 1.4,-0.1 2,-0.3 0.3,0 0.5,0 0.8,-0.1 0.2,0 0.3,0 0.5,0 2,0 3.8,1.3 4.5,3.1 -1.3,0.1 -2.6,0.3 -3.9,0.4 -0.7,0.1 -1.1,0.6 -1.1,1.3 0.1,0.6 0.6,1.1 1.2,1.1 0,0 0.1,0 0.1,0 1.3,-0.1 2.6,-0.3 3.9,-0.4 -0.1,0.8 -0.5,1.6 -1,2.2 -0.8,1 -2,1.7 -3.4,1.8 -1.8,0.2 -3.6,0.3 -5.4,0.5 -1.3,0.1 -2.6,-0.3 -3.6,-1.2 -0.6,-0.5 -1.1,-1.2 -1.4,-2 1.1,-0.1 2.3,-0.2 3.4,-0.3 0.7,-0.1 1.2,-0.6 1.1,-1.3 0.1,-0.8 -0.5,-1.3 -1.2,-1.2 z m -6.6,-12.7 c 1.1,0.3 2.2,0.7 3.3,1 0.1,0 0.2,0.1 0.4,0.1 0.5,0 1,-0.3 1.1,-0.8 0.2,-0.6 -0.2,-1.3 -0.8,-1.5 -1.1,-0.3 -2.2,-0.7 -3.3,-1 0.9,-1.4 2.4,-2.2 4.1,-2.2 0.5,0 1,0.1 1.4,0.2 1.7,0.5 3.4,1 5.1,1.5 2.1,0.6 3.5,2.6 3.5,4.7 -1.3,-0.4 -2.5,-0.7 -3.7,-1.1 -0.6,-0.2 -1.3,0.2 -1.5,0.8 -0.2,0.6 0.2,1.3 0.8,1.5 1.3,0.4 2.5,0.7 3.8,1.1 -0.4,0.7 -1,1.3 -1.7,1.7 -0.3,0.1 -0.5,0.3 -0.8,0.3 -0.8,0.1 -1.5,0.1 -2.3,0.2 -0.2,0 -0.5,-0.1 -0.7,-0.1 -1.7,-0.5 -3.5,-1 -5.2,-1.5 -1.3,-0.4 -2.3,-1.2 -3,-2.4 -0.4,-0.9 -0.6,-1.7 -0.5,-2.5 z m 20.4,11.4 c -0.7,-2.4 -2.5,-4.2 -4.9,-4.9 0.4,-0.5 0.8,-1 1,-1.6 0.7,0.2 1.5,0.4 2.2,0.6 -0.1,1.4 0.2,2.9 0.9,4.2 0.4,0.6 0.8,1.2 1.3,1.7 -0.1,0 -0.3,0 -0.5,0 z m 2.9,-4.7 c 0.1,0 0.2,0 0.3,0 0.5,0 1,-0.4 1.2,-0.9 0.2,-0.6 -0.2,-1.3 -0.9,-1.5 -0.7,-0.2 -1.4,-0.4 -2.1,-0.6 1.1,-1.8 3.3,-2.8 5.4,-2.2 1.7,0.4 3.4,0.9 5.2,1.3 0.7,0.2 1.3,0.5 1.8,0.9 -1.7,0.2 -3.4,0.4 -5.1,0.7 -3,0.4 -5.4,2.6 -6.2,5.4 -0.4,-0.4 -0.8,-0.8 -1.1,-1.3 -0.4,-0.7 -0.6,-1.5 -0.6,-2.3 0.6,0.1 1.4,0.4 2.1,0.5 z m 54.6,-3.2 c 0.1,0.6 0.6,0.9 1.2,0.9 0.1,0 0.2,0 0.3,0 1,-0.2 2.1,-0.5 3.1,-0.7 0,0.8 -0.3,1.6 -0.7,2.3 -0.7,1.1 -1.8,1.9 -3.1,2.2 -1.5,0.3 -3.1,0.6 -4.6,1 -1.6,-0.3 -3.2,-0.5 -4.8,-0.8 -0.6,-0.4 -1,-1 -1.3,-1.6 1.1,-0.2 2.3,-0.4 3.4,-0.6 0.7,-0.1 1.1,-0.8 1,-1.4 -0.1,-0.7 -0.7,-1.1 -1.4,-1 -1.1,0.2 -2.3,0.4 -3.4,0.6 0.2,-2.1 1.7,-3.9 3.9,-4.4 1.7,-0.4 3.5,-0.7 5.2,-1.1 2.2,-0.5 4.3,0.6 5.3,2.5 -1,0.2 -2.1,0.5 -3.1,0.7 -0.7,0.1 -1.1,0.8 -1,1.4 z m -12.4,3.7 c 0.2,0.5 0.4,0.9 0.6,1.3 -1,0.2 -1.9,0.7 -2.7,1.3 0.2,-0.7 0.3,-1.5 0.3,-2.3 0.7,-0.1 1.2,-0.2 1.8,-0.3 z m -5,3.1 c -0.3,0.5 -0.7,0.9 -1.2,1.2 -0.1,-1.1 -0.5,-2.1 -1.2,-3.1 1.1,-0.2 2.1,-0.4 3.2,-0.5 0,0.8 -0.3,1.7 -0.8,2.4 z m -2.7,-4.2 c -0.5,0.1 -0.8,0.4 -0.9,0.8 -0.9,-0.8 -2,-1.3 -3.2,-1.6 -1.6,-0.3 -3.1,-0.7 -4.6,-1 0.5,-0.2 0.9,-0.4 1.5,-0.5 1.8,-0.3 3.5,-0.6 5.3,-0.9 2.2,-0.4 4.2,0.7 5.2,2.6 -1.3,0.2 -2.3,0.4 -3.3,0.6 z m -9.9,0.5 c 1.7,0.4 3.5,0.8 5.2,1.1 2.3,0.5 3.9,2.5 3.9,4.7 -1.1,-0.2 -2.2,-0.4 -3.2,-0.5 -0.7,-0.1 -1.3,0.3 -1.4,1 0,0.1 0,0.2 0,0.4 -0.1,0 -0.3,0 -0.4,0.1 -1.3,0.2 -2.6,-0.1 -3.7,-0.9 -1,-0.7 -1.7,-1.8 -1.9,-3 0,0 0,0 0,0 -0.1,-1 0,-2 0.5,-2.8 0.3,-0.2 0.6,-0.2 1,-0.1 z m -3.9,3 c 0,0 0,0 0,0 0,0.3 0.1,0.5 0.1,0.7 -0.6,-0.2 -1.1,-0.3 -1.7,-0.4 0,0 0,0 0,0 0,0 0,0 0,0 0,-0.1 0,-0.2 -0.1,-0.3 0.3,-0.9 0.9,-1.6 1.7,-2.1 -0.1,0.6 -0.1,1.3 0,2.1 z m -8.1,4.4 c 1.1,-0.9 2.5,-1.5 3.8,-1.7 0,0.1 0,0.2 0,0.2 -0.2,0.4 -0.3,0.8 -0.6,1.1 -0.8,1.1 -2,1.7 -3.3,1.9 -0.6,0.1 -1.1,0.1 -1.7,0.2 0.5,-0.6 1.1,-1.2 1.8,-1.7 z m 3.9,-4.4 c 0,0 0,0 0,0 0,0.1 0,0.2 -0.1,0.3 -0.6,0.1 -1.2,0.2 -1.8,0.4 0.1,-0.3 0.2,-0.7 0.3,-1 0,0 0,0 0,-0.1 0.1,-0.6 0.2,-1.3 0.2,-1.9 0.7,0.6 1.2,1.3 1.4,2.1 0,0.1 0,0.1 0,0.2 z m -3.9,-0.9 c 0,0 0,0 0,0 -0.3,1.2 -1,2.2 -2.1,2.9 -1.1,0.7 -2.5,0.9 -3.8,0.6 -0.5,-0.1 -0.9,-0.2 -1.4,-0.4 0,0 0,0 0,-0.1 -0.1,-0.7 -0.7,-1.1 -1.3,-1.1 -0.7,0.1 -1.4,0.2 -2.1,0.2 0,0 0,0 -0.1,0 0.3,-2.1 2,-3.8 4.2,-4 1.8,-0.2 3.5,-0.4 5.3,-0.7 0.2,0 0.4,0 0.6,0 0.2,0 0.4,0 0.5,0 0.3,0.9 0.4,1.7 0.2,2.6 z m -6.4,5.8 c 0.6,0.2 1.2,0.2 1.8,0.2 0.3,0 0.5,0 0.8,-0.1 -0.3,0.5 -0.6,1 -0.9,1.5 -0.3,0 -0.5,0.1 -0.8,0.1 -1.3,0.2 -2.6,-0.2 -3.7,-1 -0.6,-0.5 -1.1,-1.1 -1.4,-1.8 1.4,0.4 2.8,0.7 4.2,1.1 z m 2.6,10.4 0.6,-5.3 c 0,-0.4 0.1,-0.8 0.2,-1.2 1.1,-0.1 2.1,-0.3 3.2,-0.4 1.9,-0.3 3.6,-1.2 4.8,-2.7 1.1,1.5 2.6,2.5 4.4,2.9 1.3,0.3 2.6,0.6 3.8,0.8 0.2,0.8 0.2,1.7 0.1,2.5 l -0.6,5.3 z m 13.8,-9.1 c -1.3,-0.3 -2.4,-1.1 -3.1,-2.2 -0.2,-0.3 -0.4,-0.7 -0.5,-1 0,-0.1 0,-0.2 0.1,-0.3 2.1,0.3 3.9,1.4 5.2,3.1 0.2,0.3 0.4,0.6 0.6,1 -0.8,-0.2 -1.5,-0.4 -2.3,-0.6 z m 20.7,0.5 c 0.1,0 0.1,0 0.2,0 0.6,0 1.1,-0.4 1.2,-1 0.1,-0.7 -0.4,-1.3 -1,-1.4 -1.1,-0.2 -2.3,-0.4 -3.4,-0.5 0.8,-1.8 2.8,-2.9 4.8,-2.7 1.2,0.8 2.5,1.2 3.9,1.2 0.5,0 1,-0.1 1.5,-0.2 0.1,0 0.2,0 0.3,-0.1 2.6,0.4 4.4,2.9 4,5.4 0,0 0,0 0,0 -0.2,1.2 -0.9,2.3 -1.9,3 -1.1,0.8 -2.4,1.1 -3.7,0.8 -1.8,-0.3 -3.6,-0.6 -5.3,-0.9 -1.3,-0.2 -2.5,-1 -3.2,-2 -0.5,-0.7 -0.7,-1.5 -0.8,-2.2 1.1,0.2 2.2,0.4 3.4,0.6 z m 31.6,-17.5 c 0.1,0.5 0.6,0.9 1.2,0.9 0.1,0 0.2,0 0.3,0 1.3,-0.3 2.5,-0.7 3.8,-1 0,0.8 -0.2,1.6 -0.6,2.4 -0.7,1.1 -1.8,2 -3.1,2.3 -1.8,0.4 -3.5,0.9 -5.3,1.3 -1.3,0.3 -2.7,0.1 -3.8,-0.6 -0.7,-0.4 -1.3,-1.1 -1.7,-1.8 1.1,-0.3 2.2,-0.5 3.3,-0.8 0.6,-0.2 1,-0.8 0.9,-1.4 -0.2,-0.6 -0.8,-1 -1.4,-0.9 -1.1,0.3 -2.2,0.5 -3.3,0.8 0.1,-2.1 1.6,-4 3.7,-4.5 1.7,-0.4 3.5,-0.8 5.2,-1.3 2.2,-0.5 4.4,0.4 5.4,2.3 -1.3,0.3 -2.5,0.7 -3.8,1 -0.6,0 -1,0.6 -0.8,1.3 z m 14.6,-8.8 c 0.2,2.2 1.4,4 2.5,5.7 0.6,1 1.3,1.9 1.7,2.9 -0.4,0.1 -0.8,0.2 -1.1,0.3 -1.3,0.4 -2.6,0.2 -3.8,-0.4 -0.7,-0.4 -1.3,-1 -1.7,-1.7 0.7,-0.2 1.5,-0.4 2.2,-0.6 0.6,-0.2 1,-0.8 0.8,-1.5 -0.2,-0.6 -0.8,-1 -1.5,-0.8 -0.7,0.2 -1.4,0.4 -2.1,0.6 0,-2 1.2,-3.8 3,-4.5 z m 5.6,-1.7 c 0.5,-0.1 0.9,-0.2 1.4,-0.2 2.1,0 4,1.3 4.6,3.4 v 0 c 0.4,1.2 0.2,2.4 -0.3,3.5 -0.6,1.2 -1.7,2 -3,2.4 -0.6,0.2 -1.2,0.3 -1.7,0.5 -0.5,-1.3 -1.3,-2.4 -2,-3.5 -1.1,-1.6 -2.1,-3.1 -2.2,-4.8 0,-0.1 0,-0.2 0,-0.3 1.1,-0.4 2.2,-0.7 3.2,-1 z M 85.5,133.6 c 0,-8.2 3.3,-23.8 15.7,-23.8 8.9,0 15.6,6.1 20.6,18.5 0.7,1.8 1.4,3.7 2,5.6 l -9.2,0.4 c -0.6,0 -1.1,0.5 -1.1,1.1 0,0.2 -2.7,24.4 -13.7,24.4 -8.3,0 -14.3,-11 -14.3,-26.2 z m 20.7,26.2 c 6.7,-5.6 9,-19.2 9.5,-23.1 l 8.7,-0.4 c 2.2,7.6 3.6,15.8 4.6,23.5 z m 28.1,27.2 c -0.7,-11 -1.7,-19.4 -2.3,-24.4 -2,-15.2 -5.9,-44.3 -21.3,-52.8 h 148.9 c 8.9,0 15.6,6.1 20.6,18.5 4.2,10.4 6.2,23.3 7.8,34.6 0.9,7.1 1.7,16.1 2.6,27.5 0.1,2 -0.6,4.4 -1.3,6.9 -0.6,2 -1.2,4 -1.4,6 -0.1,0 -0.2,0 -0.2,0.1 -3.4,1 -5.6,4.2 -5.3,7.6 -0.7,0.2 -1.5,0.4 -2.2,0.6 -1.4,-3.1 -4.9,-4.8 -8.4,-4 -1.7,0.4 -3.4,0.9 -5.2,1.3 -3.4,0.8 -5.7,4 -5.5,7.4 -0.6,0.1 -1.2,0.3 -1.8,0.4 -1.3,-3.1 -4.8,-5 -8.2,-4.3 -1.7,0.4 -3.5,0.7 -5.2,1.1 -3.4,0.7 -5.8,3.7 -5.8,7.2 -0.6,0.1 -1.2,0.2 -1.8,0.3 -1.2,-3.2 -4.6,-5.1 -8,-4.5 -1.7,0.3 -3.5,0.6 -5.2,0.9 -1.9,0.3 -3.5,1.3 -4.6,2.7 -1.7,0.3 -3.2,1.3 -4.3,2.6 -0.9,-1.3 -2.2,-2.2 -3.7,-2.7 -1,-1.7 -2.6,-3 -4.6,-3.5 -1.7,-0.4 -3.4,-0.9 -5.1,-1.3 -3.4,-0.9 -7,0.8 -8.4,3.9 -0.7,-0.2 -1.5,-0.4 -2.2,-0.6 0.3,-3.4 -1.8,-6.7 -5.2,-7.7 -1.7,-0.5 -3.4,-1 -5.1,-1.5 -3.4,-1 -7,0.6 -8.5,3.6 -0.6,-0.2 -1.2,-0.4 -1.7,-0.6 0.5,-3.4 -1.5,-6.7 -4.9,-7.9 -1.7,-0.6 -3.4,-1.1 -5,-1.7 -3.4,-1.2 -7,0.3 -8.7,3.2 -0.7,-0.3 -1.4,-0.5 -2.1,-0.8 0.6,-3.3 -1.3,-6.8 -4.6,-8.1 -1.7,-0.6 -3.3,-1.3 -5,-1.9 -1.5,-0.6 -3.1,-0.6 -4.5,-0.3 -1.3,-1.9 -2.4,-4.2 -2.6,-7.8 z m 31.8,23.6 c -0.6,-0.2 -1.3,0.1 -1.5,0.8 -0.2,0.6 0.1,1.3 0.8,1.5 1,0.3 2,0.7 3,1 -0.4,0.7 -1,1.3 -1.8,1.6 -1.2,0.6 -2.5,0.7 -3.8,0.3 -1.7,-0.6 -3.4,-1.2 -5.1,-1.8 -1.3,-0.4 -2.3,-1.3 -2.9,-2.5 -0.4,-0.8 -0.5,-1.6 -0.4,-2.4 0.7,0.3 1.4,0.5 2.1,0.8 0.1,0 0.3,0.1 0.4,0.1 0.5,0 1,-0.3 1.1,-0.8 0.2,-0.6 -0.1,-1.3 -0.7,-1.5 -0.7,-0.2 -1.4,-0.5 -2.1,-0.8 1.2,-1.7 3.5,-2.5 5.6,-1.8 1.7,0.6 3.4,1.2 5.1,1.7 2.1,0.7 3.4,2.7 3.3,4.8 -1,-0.3 -2.1,-0.7 -3.1,-1 z M 144.7,203 c -0.6,-0.2 -1.3,0.1 -1.5,0.7 -0.2,0.6 0.1,1.3 0.7,1.5 1.2,0.5 2.5,0.9 3.7,1.4 -0.5,0.7 -1.1,1.2 -1.9,1.6 -1.2,0.6 -2.6,0.6 -3.8,0.1 -1.1,-0.4 -2.1,-0.8 -3.2,-1.2 0.3,-1.2 0.5,-2.6 0.4,-4.1 -0.1,-2.3 -0.7,-4.1 -1.4,-5.7 0.2,0 0.5,-0.1 0.8,-0.1 0.6,0 1.2,0.1 1.8,0.3 1.7,0.6 3.3,1.3 5,1.9 2.1,0.8 3.3,2.9 3.1,5 -1.2,-0.5 -2.4,-0.9 -3.7,-1.4 z m -10.7,0.7 c -0.5,-1.2 -0.5,-2.4 0,-3.6 0.3,-0.8 0.9,-1.5 1.5,-2 0.6,1.4 1.1,2.9 1.2,4.9 0.1,1.1 -0.1,2.2 -0.3,3.1 -1,-0.5 -1.9,-1.3 -2.4,-2.4 z m 2,14.3 c -0.3,-3 0.6,-5.1 1.5,-7.4 0.2,-0.4 0.3,-0.8 0.5,-1.3 1,0.4 2.1,0.8 3.1,1.2 0.9,0.3 1.8,0.5 2.7,0.5 1,0 2.1,-0.2 3,-0.7 1.4,-0.6 2.4,-1.6 3.2,-2.9 0.7,0.3 1.4,0.5 2.1,0.8 -0.3,1.4 -0.1,2.9 0.6,4.3 0.9,1.8 2.4,3.1 4.2,3.8 1.7,0.6 3.4,1.2 5.2,1.8 0.8,0.3 1.6,0.4 2.4,0.4 1.1,0 2.3,-0.3 3.3,-0.8 1.3,-0.7 2.4,-1.7 3.1,-3 0.6,0.2 1.2,0.4 1.7,0.6 -0.2,1.4 0.1,2.9 0.8,4.2 0.9,1.7 2.5,3 4.4,3.6 0.5,0.2 1.1,0.3 1.6,0.5 -2,1.1 -3.4,3.2 -3.6,5.5 -0.6,0 -1.2,0.1 -1.8,0.1 -0.8,-3.3 -3.9,-5.7 -7.5,-5.5 -1.8,0.1 -3.5,0.2 -5.3,0.3 -3.5,0.2 -6.4,2.8 -6.9,6.2 -0.8,0 -1.5,0.1 -2.3,0.1 -0.7,-3.3 -3.6,-5.8 -7.2,-5.8 0,0 -0.1,0 -0.1,0 -1.8,0 -3.6,0 -5.3,0 -0.3,0 -0.7,0 -1,0.1 -1.2,-1.8 -2.1,-3.5 -2.4,-6.6 z m 32.3,13.9 c 0,0 0,0 0,0 1.1,-0.1 2.2,-0.1 3.3,-0.2 -0.2,0.8 -0.5,1.5 -1.1,2.2 -0.9,1 -2.1,1.6 -3.5,1.6 -1.8,0.1 -3.6,0.2 -5.4,0.3 -1.4,0.1 -2.6,-0.4 -3.6,-1.3 -0.6,-0.6 -1,-1.3 -1.3,-2.1 0.8,0 1.5,0 2.3,-0.1 0.7,0 1.2,-0.6 1.2,-1.2 0,-0.6 -0.6,-1.2 -1.2,-1.2 -0.7,0 -1.5,0 -2.2,0.1 0.5,-2 2.3,-3.6 4.5,-3.7 1.8,-0.1 3.6,-0.2 5.3,-0.3 2.2,-0.1 4.2,1.3 4.9,3.3 -1.1,0.1 -2.1,0.1 -3.2,0.2 -0.7,0 -1.2,0.6 -1.1,1.3 -0.1,0.6 0.4,1.1 1.1,1.1 z m -22.8,0.8 c 0,0 0,0 0,0 1.3,0 2.6,-0.1 4,-0.1 -0.2,0.8 -0.6,1.5 -1.2,2.1 -0.9,1 -2.2,1.5 -3.5,1.5 -1.1,0 -2.1,0 -3.2,0 0.3,-0.9 0.5,-1.9 0.4,-3 -0.4,-3 -1.3,-4.9 -2.2,-6.5 1.6,0 3.2,0 4.9,0 0,0 0,0 0.1,0 2.2,0 4.1,1.5 4.7,3.5 -1.3,0 -2.6,0.1 -3.9,0.1 -0.7,0 -1.2,0.6 -1.2,1.2 -0.1,0.7 0.4,1.2 1.1,1.2 z m -11.1,-1.2 c 0,-1.9 1.2,-3.5 2.9,-4.3 1,1.6 2,3.3 2.4,6.3 0.1,1 -0.2,1.8 -0.6,2.7 -1.2,-0.1 -2.4,-0.6 -3.2,-1.4 -1,-0.9 -1.5,-2 -1.5,-3.3 z m 13.5,55.8 c -1.4,-3.5 -2.6,-7.9 -3.8,-12.9 -0.3,-1.3 -0.6,-2.7 -0.9,-4 l -0.3,-1.3 c -1.5,-7.3 -2.8,-15.1 -4,-24.1 -0.4,-2.9 0.5,-4.7 1.5,-6.4 1.5,0 3,0 4.4,0 2,0 3.9,-0.8 5.2,-2.2 1,-1.1 1.7,-2.4 1.9,-3.8 0.8,0 1.5,0 2.3,-0.1 0.3,1.4 1,2.7 2.1,3.7 1.4,1.3 3.1,2 5,2 0.1,0 0.2,0 0.3,0 1.8,-0.1 3.6,-0.2 5.5,-0.3 2,-0.1 3.8,-1 5.1,-2.5 1,-1.1 1.6,-2.5 1.7,-3.9 0.6,0 1.2,-0.1 1.8,-0.1 0.3,1.4 1.1,2.7 2.3,3.7 1.3,1.1 3,1.8 4.8,1.8 0.2,0 0.4,0 0.6,0 1.8,-0.1 3.6,-0.3 5.4,-0.5 2,-0.2 3.8,-1.1 5,-2.6 0.9,-1.1 1.5,-2.5 1.6,-4 0.8,-0.1 1.5,-0.2 2.3,-0.2 0.4,1.4 1.2,2.6 2.4,3.6 1.3,1 2.9,1.6 4.5,1.6 0.2,0 0.4,0 0.7,0 0,0.2 -0.1,0.4 -0.1,0.6 l -0.6,5.3 -1,-0.1 c -1.6,-0.2 -3.3,0.3 -4.6,1.3 -1.3,1 -2.1,2.5 -2.3,4.1 l -1.9,15.8 c -0.4,3.4 2,6.5 5.4,6.9 l 23.4,2.8 v 0 c 0.2,0 0.5,0 0.7,0 3.1,0 5.8,-2.3 6.2,-5.5 l 1.9,-15.8 c 0.4,-3.4 -2,-6.5 -5.4,-6.9 l -1,-0.1 0.6,-5.3 c 0.1,-0.8 0.1,-1.6 0,-2.3 0.2,0 0.4,0 0.5,0 1.4,0 2.8,-0.4 4,-1.2 1.2,-0.8 2.1,-1.9 2.6,-3.2 0.6,0.1 1.2,0.2 1.8,0.3 0,1.4 0.4,2.8 1.2,4 1.1,1.6 2.8,2.7 4.8,3 1.8,0.3 3.6,0.6 5.4,0.9 0.4,0.1 0.8,0.1 1.3,0.1 1.5,0 3,-0.5 4.3,-1.4 1.2,-0.9 2.1,-2.1 2.5,-3.4 0.7,0.1 1.3,0.2 1.8,0.3 0,1.4 0.5,2.8 1.4,4 1.2,1.6 2.9,2.6 4.9,2.9 1.8,0.2 3.6,0.5 5.4,0.7 0.3,0 0.6,0.1 1,0.1 1.6,0 3.2,-0.5 4.5,-1.5 1.2,-0.9 2,-2.2 2.4,-3.5 0.8,0.1 1.5,0.2 2.3,0.2 0.1,1.5 0.6,2.8 1.6,4 1.2,1.5 3,2.5 5,2.7 1.8,0.2 3.6,0.3 5.4,0.5 0.2,0 0.4,0 0.7,0 0.5,0 0.9,0 1.4,-0.1 0.2,0.4 0.4,0.7 0.6,1.1 1.4,2.7 2.8,5.3 3.1,7.6 2,14.9 4.5,26 7.4,33.9 h -156 z"
   id="path3203"
   inkscape:connector-curvature="0" />
		<path
   d="m 200.6,131.8 c 5.4,0 8.1,-1 10.8,-2.1 2.5,-1 5,-1.9 9.9,-1.9 4.9,0 7.4,0.9 9.9,1.9 2.6,1 5.4,2.1 10.8,2.1 5.4,0 8.1,-1 10.8,-2.1 2.6,-1 5,-1.9 9.9,-1.9 0.7,0 1.2,-0.5 1.2,-1.2 0,-0.7 -0.5,-1.2 -1.2,-1.2 -5.4,0 -8.1,1 -10.8,2.1 -2.6,1 -5,1.9 -9.9,1.9 -4.9,0 -7.4,-0.9 -9.9,-1.9 -2.6,-1 -5.4,-2.1 -10.8,-2.1 -5.4,0 -8.1,1 -10.8,2.1 -2.5,1 -5,1.9 -9.9,1.9 -0.7,0 -1.2,0.5 -1.2,1.2 0,0.7 0.5,1.2 1.2,1.2 z"
   id="path3205"
   inkscape:connector-curvature="0" />
		<path
   d="m 246.7,145.1 c -5,0 -7.5,-0.9 -10.1,-1.9 -2.7,-1 -5.5,-2.1 -10.9,-2.1 -5.4,0 -8.3,1 -10.9,2.1 -2.6,1 -5.1,1.9 -10.1,1.9 -0.7,0 -1.2,0.5 -1.2,1.2 0,0.7 0.5,1.2 1.2,1.2 5.5,0 8.3,-1 10.9,-2.1 2.6,-1 5.1,-1.9 10.1,-1.9 5,0 7.5,0.9 10.1,1.9 2.7,1 5.5,2.1 10.9,2.1 5.4,0 8.3,-1 10.9,-2.1 2.6,-1 5.1,-1.9 10.1,-1.9 0.7,0 1.2,-0.5 1.2,-1.2 0,-0.7 -0.5,-1.2 -1.2,-1.2 -5.5,0 -8.3,1 -10.9,2.1 -2.6,0.9 -5,1.9 -10.1,1.9 z"
   id="path3207"
   inkscape:connector-curvature="0" />
		<path
   d="m 250.7,162.4 c -5.2,0 -7.7,-0.9 -10.3,-1.9 -2.7,-1 -5.6,-2 -11.2,-2 -5.6,0 -8.4,1 -11.2,2 -2.7,1 -5.2,1.9 -10.3,1.9 -0.7,0 -1.2,0.5 -1.2,1.2 0,0.7 0.5,1.2 1.2,1.2 5.6,0 8.4,-1 11.2,-2 2.7,-1 5.2,-1.9 10.3,-1.9 5.2,0 7.7,0.9 10.3,1.9 2.7,1 5.6,2 11.2,2 5.6,0 8.4,-1 11.2,-2 2.7,-1 5.2,-1.9 10.3,-1.9 0.7,0 1.2,-0.5 1.2,-1.2 0,-0.7 -0.5,-1.2 -1.2,-1.2 -5.6,0 -8.4,1 -11.2,2 -2.6,1 -5.1,1.9 -10.3,1.9 z"
   id="path3209"
   inkscape:connector-curvature="0" />
		<path
   d="m 149.8,178 c 4.9,0 7.3,1 9.9,2.1 2.7,1.1 5.4,2.3 10.8,2.3 5.4,0 8.2,-1.2 10.8,-2.3 2.5,-1.1 4.9,-2.1 9.9,-2.1 4.9,0 7.3,1 9.9,2.1 2.7,1.1 5.4,2.3 10.8,2.3 5.4,0 8.2,-1.2 10.8,-2.3 2.5,-1.1 4.9,-2.1 9.9,-2.1 4.9,0 7.3,1 9.9,2.1 2.7,1.1 5.4,2.3 10.8,2.3 5.4,0 8.2,-1.2 10.8,-2.3 2.5,-1.1 4.9,-2.1 9.9,-2.1 0.7,0 1.2,-0.5 1.2,-1.2 0,-0.7 -0.5,-1.2 -1.2,-1.2 -5.4,0 -8.2,1.2 -10.8,2.3 -2.5,1.1 -4.9,2.1 -9.9,2.1 -4.9,0 -7.3,-1 -9.9,-2.1 -2.7,-1.1 -5.4,-2.3 -10.8,-2.3 -5.4,0 -8.2,1.2 -10.8,2.3 -2.5,1.1 -4.9,2.1 -9.9,2.1 -5,0 -7.3,-1 -9.9,-2.1 -2.7,-1.1 -5.4,-2.3 -10.8,-2.3 -5.4,0 -8.2,1.2 -10.8,2.3 -2.5,1.1 -4.9,2.1 -9.9,2.1 -5,0 -7.3,-1 -9.9,-2.1 -2.7,-1.1 -5.4,-2.3 -10.8,-2.3 -0.7,0 -1.2,0.5 -1.2,1.2 0,0.7 0.5,1.2 1.2,1.2 z"
   id="path3211"
   inkscape:connector-curvature="0" />
	</g>
</g>
</svg>