<?xml version="1.0" encoding="utf-8"?>
<!-- Generator: Adobe Illustrator 21.0.0, SVG Export Plug-In . SVG Version: 6.00 Build 0)  -->
<svg version="1.1" id="Layer_1" xmlns="http://www.w3.org/2000/svg" xmlns:xlink="http://www.w3.org/1999/xlink" x="0px" y="0px"
	viewBox="0 0 400 400" style="enable-background:new 0 0 400 400;" xml:space="preserve">
<g>
	<path class="st0" d="M69.7,189.8c0,148.7,260.5,188.6,260.5,9S69.7,70.1,69.7,189.8z"/>
	<path class="st1" d="M297.5,253.2c-0.8-5.7-6.9-12.2-6.8-18.2c0.1-4.4,3.9-8.1,3.5-12.4c-0.2-2-0.3-4.1-0.5-6.1
		c-0.3-4.2-4.5-6.9-4.8-11c-0.4-4.7,3.2-10.8,2.8-15.2c-0.8-10.7-1.6-20.2-2.6-27.6c-2.8-20.8-8.3-54.2-29.5-54.2H139.7h-38.5
		c-12.8,0-16.9,15-16.9,25c0,16,6.4,27.4,15.5,27.4h30.7c0.1,0.6,0.2,1.2,0.2,1.7c0.9,6.6,1.7,14.9,2.3,24.3
		c0.5,7.8,4.6,9.6,4.9,15.9c0.3,6-3.7,8.7-3.1,15.1c0.7,7.7,5,7.6,6,15.3c0.5,3.8-3.9,5.7-3.1,11.8c1.1,7.9,2.4,16,4.1,24.2
		c0.4,1.8,0.7,3.6,1.1,5.3c1.2,5.2,2.6,9.9,4.2,13.8h158.4C302,279.8,299.4,267.3,297.5,253.2z"/>
	<path class="st2" d="M101.2,108.6c-4.6,0-9.3,14.2-9.3,26.6c0,12.5,3.9,25.8,7.9,25.8s13.3-6.5,14.8-25.2l10.8-0.6
		C125.3,135.2,119.3,108.6,101.2,108.6z"/>
	<path class="st2" d="M121.1,135c0,0-0.2,17.1-10,26h19.4l-5.2-25.8L121.1,135z"/>
	<path class="st2" d="M228.5,244.5L226,266c-0.1,0.7-0.7,1.2-1.4,1.1l-28.8-3.4l-0.1,0.8c-0.2,1.3,0.8,2.5,2.1,2.6l28.4,3.3
		c1.5,0.2,2.8-0.9,3-2.3l2.4-20.4c0.2-1.5-0.9-2.8-2.4-3L228.5,244.5z"/>
	<path class="st2" d="M215.7,232.3c1.9,0,3.6,1,4.6,2.5c-0.8-2.6-3.2-4.6-6.1-4.6c-3.5,0-6.4,2.9-6.4,6.4v8.9h2.4v-7.6
		C210.1,234.8,212.6,232.3,215.7,232.3z"/>
	<path class="st2" d="M190.6,225.6c-3,22.2,35.8,53.7,64.2,42.8c45-17.2,13-148.1-10.9-148.1c-20.4,0,21.7,110.4-2.7,116
		C218,241.6,193,207.8,190.6,225.6z"/>
	<path class="st2" d="M232,216.8c11.7-11-8.4-53.1-27.6-36.7S220,228.1,232,216.8z"/>
	<g>
		<path d="M155,130.5l-1.2-4.5H171l1.4,4.5h-4l18.5,28h4.4l1.6,4.6h-14.7l-1.4-4.6h4.6l-5.5-8.4H163l-0.5,8.4h4.8l1.3,4.6H154
			l-1.1-4.6h4.1l2.1-28H155z M163.3,145.7h10l-9.5-15.2h-0.2L163.3,145.7z"/>
	</g>
	<path d="M218.9,253.2c0.3-2.7-1.6-5.1-4.3-5.4c-2.7-0.3-5.1,1.6-5.4,4.3c-0.2,2.1,0.8,3.9,2.5,4.9l-2.1,6.6l3.1,0.4l3.1,0.4
		l-0.5-6.9C217.1,256.9,218.6,255.3,218.9,253.2z"/>
	<g>
		<path d="M306.6,288c-3.1-7.7-5.7-19.2-7.9-35c-0.4-2.8-1.9-5.6-3.4-8.4c-0.1-0.3-0.3-0.5-0.4-0.8c0.4-0.2,0.8-0.5,1.1-0.8
			c1.4-1.2,2.3-2.8,2.5-4.7c0,0,0-0.1,0-0.1c0.3-3.5-2.1-6.6-5.4-7.5c0.2-0.4,0.3-0.7,0.5-1.1c1-2.2,2.1-4.6,1.8-7.2
			c-0.2-2-0.3-4.1-0.5-6.1c0-0.1,0-0.2,0-0.2c0.6-0.2,1.2-0.4,1.8-0.5c1.9-0.6,3.5-1.8,4.4-3.6c0.9-1.7,1.1-3.6,0.5-5.4c0,0,0,0,0,0
			c-1.2-3.7-5.2-5.9-9-4.7c-0.8,0.2-1.6,0.5-2.3,0.7c0.3-1.5,0.7-3,1.2-4.6c0.8-2.7,1.6-5.4,1.4-7.8c-0.9-11.4-1.6-20.5-2.6-27.6
			c-2.4-17.9-7.4-55.2-30.7-55.2H101.2c-12.4,0-18.1,13.6-18.1,26.2c0,16.8,6.9,28.6,16.7,28.6h29.7c0,0.2,0.1,0.5,0.1,0.7
			c0.7,5,1.6,13.3,2.3,24.3c0.3,4.1,1.5,6.6,2.6,8.8c-1.2,0.8-2.1,1.9-2.7,3.2c-0.7,1.7-0.7,3.7,0.1,5.4c0.7,1.7,2.1,3.1,3.9,3.8
			c-0.2,0.4-0.3,0.8-0.5,1.2c-1,2.4-2,4.9-1.6,8.5c0.3,3.3,1.2,5.3,2.3,7c-2.3,1.2-3.9,3.6-3.9,6.3c0,1.9,0.7,3.7,2.1,5
			c1,1,2.3,1.7,3.7,2c-0.9,1.7-1.6,3.8-1.2,6.8c1.2,9,2.5,16.9,4.1,24.3l0.3,1.2c0.3,1.4,0.6,2.8,0.9,4.1c1.3,5.5,2.7,10.2,4.2,14
			c0.2,0.5,0.6,0.8,1.1,0.8h158.4c0.4,0,0.8-0.2,1-0.5C306.7,288.8,306.7,288.4,306.6,288z M296.1,238.1
			C296.1,238.1,296.1,238.1,296.1,238.1c-0.1,1.3-0.7,2.4-1.6,3.2c-0.2,0.2-0.4,0.3-0.6,0.4c-1.1-2.3-2-4.6-1.9-6.7
			c0-0.7,0.1-1.3,0.3-2C294.6,233.6,296.3,235.7,296.1,238.1z M283.6,235.8c-0.7-0.1-1.5-0.2-2.2-0.2c0.8-2,2.8-3.3,5-3
			c1.2,0.1,2.3,0.2,3.5,0.3c-0.2,0.7-0.3,1.4-0.3,2.2c-0.1,2.5,0.8,5,2,7.4c-0.2,0-0.4,0-0.7,0c-1.8-0.2-3.6-0.3-5.4-0.5
			c-1.3-0.1-2.5-0.8-3.4-1.8c-0.5-0.7-0.8-1.4-1-2.2c0.7,0.1,1.5,0.2,2.2,0.2c0,0,0.1,0,0.1,0c0.6,0,1.1-0.5,1.2-1.1
			C284.7,236.4,284.2,235.8,283.6,235.8z M293,222.7c0.2,2-0.7,4-1.6,6c-0.3,0.6-0.5,1.2-0.8,1.8c-1.4-0.1-2.7-0.2-4.1-0.4
			c-3.5-0.3-6.7,1.9-7.7,5.2c-0.8-0.1-1.5-0.2-2.3-0.2c-0.2-3.4-2.8-6.3-6.3-6.8c-1.8-0.2-3.5-0.5-5.3-0.7c-3.5-0.5-6.8,1.7-7.9,4.9
			c-0.5-0.1-1.1-0.2-1.8-0.3c0-2.1-1-4.1-2.6-5.4c0.4-0.1,0.8-0.2,1.2-0.3c2-0.4,3.6-1.6,4.7-3.2c0.8-1.3,1.2-2.7,1.1-4.2
			c0.6-0.1,1.2-0.3,1.8-0.4c0.6,1.3,1.5,2.5,2.8,3.3c1.2,0.7,2.5,1.1,3.8,1.1c0.6,0,1.2-0.1,1.8-0.2c1.8-0.4,3.5-0.9,5.3-1.3
			c1.9-0.5,3.6-1.7,4.5-3.4c0.8-1.3,1.1-2.7,0.9-4.2c0.7-0.2,1.5-0.4,2.2-0.6c0.6,1.3,1.6,2.4,2.9,3.2c1.1,0.6,2.3,0.9,3.6,0.9
			c0.7,0,1.4-0.1,2.1-0.3c0.4-0.1,0.7-0.2,1.1-0.3C292.7,218.8,292.9,220.7,293,222.7z M270,236.6c1.3,0.2,2.6,0.3,3.9,0.5
			c-0.3,0.8-0.8,1.4-1.4,2c-1,0.8-2.4,1.2-3.7,1c-1.8-0.2-3.6-0.5-5.4-0.7c-1.3-0.2-2.5-0.9-3.3-1.9c-0.5-0.7-0.8-1.4-0.9-2.2
			c0.2,0,0.5,0.1,0.7,0.1l2.7,0.4c0.1,0,0.1,0,0.2,0c0.6,0,1.1-0.4,1.2-1c0.1-0.7-0.4-1.3-1-1.4l-2.7-0.4c-0.2,0-0.5-0.1-0.7-0.1
			c0.8-1.9,2.9-3.2,5.1-2.9c1.8,0.2,3.5,0.5,5.3,0.7c2.2,0.3,3.9,2,4.2,4.1c-1.3-0.2-2.6-0.3-3.9-0.5c-0.6-0.1-1.3,0.4-1.3,1
			C268.9,235.9,269.4,236.5,270,236.6z M226,232.9c-0.2-0.5-0.3-0.9-0.6-1.3c0.2,0,0.4,0,0.6,0c0.4,0,0.8,0,1.2-0.1
			c1.3-0.2,2.6-0.4,3.9-0.7c-0.3,0.5-0.8,1-1.3,1.3C228.7,232.9,227.4,233.1,226,232.9C226.1,232.9,226,232.9,226,232.9z
			M200.6,266.2c-2.1-0.2-3.6-2.1-3.3-4.2l1.9-15.8c0.1-1,0.6-1.9,1.4-2.5c0.8-0.6,1.8-0.9,2.8-0.8l23.4,2.8
			c2.1,0.2,3.6,2.1,3.3,4.2l-1.9,15.8c-0.2,2.1-2.1,3.6-4.2,3.3h0L200.6,266.2z M181.5,228.6c-1.1,0.1-2.3,0.2-3.4,0.3
			c0.4-2.1,2.2-3.7,4.4-3.9c0.6,0,1.1-0.1,1.7-0.1c0.3,0,0.5,0.1,0.8,0.1c0.7,0,1.4-0.1,2-0.3c0.3,0,0.5,0,0.8-0.1
			c0.2,0,0.3,0,0.5,0c2,0,3.8,1.3,4.5,3.1c-1.3,0.1-2.6,0.3-3.9,0.4c-0.7,0.1-1.1,0.6-1.1,1.3c0.1,0.6,0.6,1.1,1.2,1.1
			c0,0,0.1,0,0.1,0c1.3-0.1,2.6-0.3,3.9-0.4c-0.1,0.8-0.5,1.6-1,2.2c-0.8,1-2,1.7-3.4,1.8c-1.8,0.2-3.6,0.3-5.4,0.5
			c-1.3,0.1-2.6-0.3-3.6-1.2c-0.6-0.5-1.1-1.2-1.4-2c1.1-0.1,2.3-0.2,3.4-0.3c0.7-0.1,1.2-0.6,1.1-1.3
			C182.8,229,182.2,228.5,181.5,228.6z M174.9,215.9c1.1,0.3,2.2,0.7,3.3,1c0.1,0,0.2,0.1,0.4,0.1c0.5,0,1-0.3,1.1-0.8
			c0.2-0.6-0.2-1.3-0.8-1.5c-1.1-0.3-2.2-0.7-3.3-1c0.9-1.4,2.4-2.2,4.1-2.2c0.5,0,1,0.1,1.4,0.2c1.7,0.5,3.4,1,5.1,1.5
			c2.1,0.6,3.5,2.6,3.5,4.7c-1.3-0.4-2.5-0.7-3.7-1.1c-0.6-0.2-1.3,0.2-1.5,0.8c-0.2,0.6,0.2,1.3,0.8,1.5c1.3,0.4,2.5,0.7,3.8,1.1
			c-0.4,0.7-1,1.3-1.7,1.7c-0.3,0.1-0.5,0.3-0.8,0.3c-0.8,0.1-1.5,0.1-2.3,0.2c-0.2,0-0.5-0.1-0.7-0.1c-1.7-0.5-3.5-1-5.2-1.5
			c-1.3-0.4-2.3-1.2-3-2.4C175,217.5,174.8,216.7,174.9,215.9z M195.3,227.3c-0.7-2.4-2.5-4.2-4.9-4.9c0.4-0.5,0.8-1,1-1.6
			c0.7,0.2,1.5,0.4,2.2,0.6c-0.1,1.4,0.2,2.9,0.9,4.2c0.4,0.6,0.8,1.2,1.3,1.7C195.7,227.3,195.5,227.3,195.3,227.3z M198.2,222.6
			c0.1,0,0.2,0,0.3,0c0.5,0,1-0.4,1.2-0.9c0.2-0.6-0.2-1.3-0.9-1.5c-0.7-0.2-1.4-0.4-2.1-0.6c1.1-1.8,3.3-2.8,5.4-2.2
			c1.7,0.4,3.4,0.9,5.2,1.3c0.7,0.2,1.3,0.5,1.8,0.9c-1.7,0.2-3.4,0.4-5.1,0.7c-3,0.4-5.4,2.6-6.2,5.4c-0.4-0.4-0.8-0.8-1.1-1.3
			c-0.4-0.7-0.6-1.5-0.6-2.3C196.7,222.2,197.5,222.5,198.2,222.6z M252.8,219.4c0.1,0.6,0.6,0.9,1.2,0.9c0.1,0,0.2,0,0.3,0
			c1-0.2,2.1-0.5,3.1-0.7c0,0.8-0.3,1.6-0.7,2.3c-0.7,1.1-1.8,1.9-3.1,2.2c-1.5,0.3-3.1,0.6-4.6,1c-1.6-0.3-3.2-0.5-4.8-0.8
			c-0.6-0.4-1-1-1.3-1.6c1.1-0.2,2.3-0.4,3.4-0.6c0.7-0.1,1.1-0.8,1-1.4c-0.1-0.7-0.7-1.1-1.4-1c-1.1,0.2-2.3,0.4-3.4,0.6
			c0.2-2.1,1.7-3.9,3.9-4.4c1.7-0.4,3.5-0.7,5.2-1.1c2.2-0.5,4.3,0.6,5.3,2.5c-1,0.2-2.1,0.5-3.1,0.7
			C253.1,218.1,252.7,218.8,252.8,219.4z M240.4,223.1c0.2,0.5,0.4,0.9,0.6,1.3c-1,0.2-1.9,0.7-2.7,1.3c0.2-0.7,0.3-1.5,0.3-2.3
			C239.3,223.3,239.8,223.2,240.4,223.1z M235.4,226.2c-0.3,0.5-0.7,0.9-1.2,1.2c-0.1-1.1-0.5-2.1-1.2-3.1c1.1-0.2,2.1-0.4,3.2-0.5
			C236.2,224.6,235.9,225.5,235.4,226.2z M232.7,222c-0.5,0.1-0.8,0.4-0.9,0.8c-0.9-0.8-2-1.3-3.2-1.6c-1.6-0.3-3.1-0.7-4.6-1
			c0.5-0.2,0.9-0.4,1.5-0.5c1.8-0.3,3.5-0.6,5.3-0.9c2.2-0.4,4.2,0.7,5.2,2.6C234.7,221.6,233.7,221.8,232.7,222z M222.8,222.5
			c1.7,0.4,3.5,0.8,5.2,1.1c2.3,0.5,3.9,2.5,3.9,4.7c-1.1-0.2-2.2-0.4-3.2-0.5c-0.7-0.1-1.3,0.3-1.4,1c0,0.1,0,0.2,0,0.4
			c-0.1,0-0.3,0-0.4,0.1c-1.3,0.2-2.6-0.1-3.7-0.9c-1-0.7-1.7-1.8-1.9-3c0,0,0,0,0,0c-0.1-1,0-2,0.5-2.8
			C222.1,222.4,222.4,222.4,222.8,222.5z M218.9,225.5C218.9,225.5,218.9,225.5,218.9,225.5c0,0.3,0.1,0.5,0.1,0.7
			c-0.6-0.2-1.1-0.3-1.7-0.4c0,0,0,0,0,0c0,0,0,0,0,0c0-0.1,0-0.2-0.1-0.3c0.3-0.9,0.9-1.6,1.7-2.1
			C218.8,224,218.8,224.7,218.9,225.5z M210.8,229.9c1.1-0.9,2.5-1.5,3.8-1.7c0,0.1,0,0.2,0,0.2c-0.2,0.4-0.3,0.8-0.6,1.1
			c-0.8,1.1-2,1.7-3.3,1.9c-0.6,0.1-1.1,0.1-1.7,0.2C209.5,231,210.1,230.4,210.8,229.9z M214.7,225.5
			C214.7,225.5,214.7,225.5,214.7,225.5c0,0.1,0,0.2-0.1,0.3c-0.6,0.1-1.2,0.2-1.8,0.4c0.1-0.3,0.2-0.7,0.3-1c0,0,0,0,0-0.1
			c0.1-0.6,0.2-1.3,0.2-1.9c0.7,0.6,1.2,1.3,1.4,2.1C214.7,225.4,214.7,225.4,214.7,225.5z M210.8,224.6
			C210.8,224.6,210.8,224.6,210.8,224.6c-0.3,1.2-1,2.2-2.1,2.9c-1.1,0.7-2.5,0.9-3.8,0.6c-0.5-0.1-0.9-0.2-1.4-0.4c0,0,0,0,0-0.1
			c-0.1-0.7-0.7-1.1-1.3-1.1c-0.7,0.1-1.4,0.2-2.1,0.2c0,0,0,0-0.1,0c0.3-2.1,2-3.8,4.2-4c1.8-0.2,3.5-0.4,5.3-0.7
			c0.2,0,0.4,0,0.6,0c0.2,0,0.4,0,0.5,0C210.9,222.9,211,223.7,210.8,224.6z M204.4,230.4c0.6,0.2,1.2,0.2,1.8,0.2
			c0.3,0,0.5,0,0.8-0.1c-0.3,0.5-0.6,1-0.9,1.5c-0.3,0-0.5,0.1-0.8,0.1c-1.3,0.2-2.6-0.2-3.7-1c-0.6-0.5-1.1-1.1-1.4-1.8
			C201.6,229.7,203,230,204.4,230.4z M207,240.8l0.6-5.3c0-0.4,0.1-0.8,0.2-1.2c1.1-0.1,2.1-0.3,3.2-0.4c1.9-0.3,3.6-1.2,4.8-2.7
			c1.1,1.5,2.6,2.5,4.4,2.9c1.3,0.3,2.6,0.6,3.8,0.8c0.2,0.8,0.2,1.7,0.1,2.5l-0.6,5.3L207,240.8z M220.8,231.7
			c-1.3-0.3-2.4-1.1-3.1-2.2c-0.2-0.3-0.4-0.7-0.5-1c0-0.1,0-0.2,0.1-0.3c2.1,0.3,3.9,1.4,5.2,3.1c0.2,0.3,0.4,0.6,0.6,1
			C222.3,232.1,221.6,231.9,220.8,231.7z M241.5,232.2c0.1,0,0.1,0,0.2,0c0.6,0,1.1-0.4,1.2-1c0.1-0.7-0.4-1.3-1-1.4
			c-1.1-0.2-2.3-0.4-3.4-0.5c0.8-1.8,2.8-2.9,4.8-2.7c1.2,0.8,2.5,1.2,3.9,1.2c0.5,0,1-0.1,1.5-0.2c0.1,0,0.2,0,0.3-0.1
			c2.6,0.4,4.4,2.9,4,5.4c0,0,0,0,0,0c-0.2,1.2-0.9,2.3-1.9,3c-1.1,0.8-2.4,1.1-3.7,0.8c-1.8-0.3-3.6-0.6-5.3-0.9
			c-1.3-0.2-2.5-1-3.2-2c-0.5-0.7-0.7-1.5-0.8-2.2C239.2,231.8,240.3,232,241.5,232.2z M273.1,214.7c0.1,0.5,0.6,0.9,1.2,0.9
			c0.1,0,0.2,0,0.3,0c1.3-0.3,2.5-0.7,3.8-1c0,0.8-0.2,1.6-0.6,2.4c-0.7,1.1-1.8,2-3.1,2.3c-1.8,0.4-3.5,0.9-5.3,1.3
			c-1.3,0.3-2.7,0.1-3.8-0.6c-0.7-0.4-1.3-1.1-1.7-1.8c1.1-0.3,2.2-0.5,3.3-0.8c0.6-0.2,1-0.8,0.9-1.4c-0.2-0.6-0.8-1-1.4-0.9
			c-1.1,0.3-2.2,0.5-3.3,0.8c0.1-2.1,1.6-4,3.7-4.5c1.7-0.4,3.5-0.8,5.2-1.3c2.2-0.5,4.4,0.4,5.4,2.3c-1.3,0.3-2.5,0.7-3.8,1
			C273.3,213.4,272.9,214,273.1,214.7z M287.7,205.9c0.2,2.2,1.4,4,2.5,5.7c0.6,1,1.3,1.9,1.7,2.9c-0.4,0.1-0.8,0.2-1.1,0.3
			c-1.3,0.4-2.6,0.2-3.8-0.4c-0.7-0.4-1.3-1-1.7-1.7c0.7-0.2,1.5-0.4,2.2-0.6c0.6-0.2,1-0.8,0.8-1.5c-0.2-0.6-0.8-1-1.5-0.8
			c-0.7,0.2-1.4,0.4-2.1,0.6C284.7,208.4,285.9,206.6,287.7,205.9z M293.3,204.2c0.5-0.1,0.9-0.2,1.4-0.2c2.1,0,4,1.3,4.6,3.4l0,0
			c0.4,1.2,0.2,2.4-0.3,3.5c-0.6,1.2-1.7,2-3,2.4c-0.6,0.2-1.2,0.3-1.7,0.5c-0.5-1.3-1.3-2.4-2-3.5c-1.1-1.6-2.1-3.1-2.2-4.8
			c0-0.1,0-0.2,0-0.3C291.2,204.8,292.3,204.5,293.3,204.2z M85.5,133.6c0-8.2,3.3-23.8,15.7-23.8c8.9,0,15.6,6.1,20.6,18.5
			c0.7,1.8,1.4,3.7,2,5.6l-9.2,0.4c-0.6,0-1.1,0.5-1.1,1.1c0,0.2-2.7,24.4-13.7,24.4C91.5,159.8,85.5,148.8,85.5,133.6z
			M106.2,159.8c6.7-5.6,9-19.2,9.5-23.1l8.7-0.4c2.2,7.6,3.6,15.8,4.6,23.5H106.2z M134.3,187c-0.7-11-1.7-19.4-2.3-24.4
			c-2-15.2-5.9-44.3-21.3-52.8h148.9c8.9,0,15.6,6.1,20.6,18.5c4.2,10.4,6.2,23.3,7.8,34.6c0.9,7.1,1.7,16.1,2.6,27.5
			c0.1,2-0.6,4.4-1.3,6.9c-0.6,2-1.2,4-1.4,6c-0.1,0-0.2,0-0.2,0.1c-3.4,1-5.6,4.2-5.3,7.6c-0.7,0.2-1.5,0.4-2.2,0.6
			c-1.4-3.1-4.9-4.8-8.4-4c-1.7,0.4-3.4,0.9-5.2,1.3c-3.4,0.8-5.7,4-5.5,7.4c-0.6,0.1-1.2,0.3-1.8,0.4c-1.3-3.1-4.8-5-8.2-4.3
			c-1.7,0.4-3.5,0.7-5.2,1.1c-3.4,0.7-5.8,3.7-5.8,7.2c-0.6,0.1-1.2,0.2-1.8,0.3c-1.2-3.2-4.6-5.1-8-4.5c-1.7,0.3-3.5,0.6-5.2,0.9
			c-1.9,0.3-3.5,1.3-4.6,2.7c-1.7,0.3-3.2,1.3-4.3,2.6c-0.9-1.3-2.2-2.2-3.7-2.7c-1-1.7-2.6-3-4.6-3.5c-1.7-0.4-3.4-0.9-5.1-1.3
			c-3.4-0.9-7,0.8-8.4,3.9c-0.7-0.2-1.5-0.4-2.2-0.6c0.3-3.4-1.8-6.7-5.2-7.7c-1.7-0.5-3.4-1-5.1-1.5c-3.4-1-7,0.6-8.5,3.6
			c-0.6-0.2-1.2-0.4-1.7-0.6c0.5-3.4-1.5-6.7-4.9-7.9c-1.7-0.6-3.4-1.1-5-1.7c-3.4-1.2-7,0.3-8.7,3.2c-0.7-0.3-1.4-0.5-2.1-0.8
			c0.6-3.3-1.3-6.8-4.6-8.1c-1.7-0.6-3.3-1.3-5-1.9c-1.5-0.6-3.1-0.6-4.5-0.3C135.6,192.9,134.5,190.6,134.3,187z M166.1,210.6
			c-0.6-0.2-1.3,0.1-1.5,0.8c-0.2,0.6,0.1,1.3,0.8,1.5c1,0.3,2,0.7,3,1c-0.4,0.7-1,1.3-1.8,1.6c-1.2,0.6-2.5,0.7-3.8,0.3
			c-1.7-0.6-3.4-1.2-5.1-1.8c-1.3-0.4-2.3-1.3-2.9-2.5c-0.4-0.8-0.5-1.6-0.4-2.4c0.7,0.3,1.4,0.5,2.1,0.8c0.1,0,0.3,0.1,0.4,0.1
			c0.5,0,1-0.3,1.1-0.8c0.2-0.6-0.1-1.3-0.7-1.5c-0.7-0.2-1.4-0.5-2.1-0.8c1.2-1.7,3.5-2.5,5.6-1.8c1.7,0.6,3.4,1.2,5.1,1.7
			c2.1,0.7,3.4,2.7,3.3,4.8C168.2,211.3,167.1,210.9,166.1,210.6z M144.7,203c-0.6-0.2-1.3,0.1-1.5,0.7c-0.2,0.6,0.1,1.3,0.7,1.5
			c1.2,0.5,2.5,0.9,3.7,1.4c-0.5,0.7-1.1,1.2-1.9,1.6c-1.2,0.6-2.6,0.6-3.8,0.1c-1.1-0.4-2.1-0.8-3.2-1.2c0.3-1.2,0.5-2.6,0.4-4.1
			c-0.1-2.3-0.7-4.1-1.4-5.7c0.2,0,0.5-0.1,0.8-0.1c0.6,0,1.2,0.1,1.8,0.3c1.7,0.6,3.3,1.3,5,1.9c2.1,0.8,3.3,2.9,3.1,5
			C147.2,203.9,146,203.5,144.7,203z M134,203.7c-0.5-1.2-0.5-2.4,0-3.6c0.3-0.8,0.9-1.5,1.5-2c0.6,1.4,1.1,2.9,1.2,4.9
			c0.1,1.1-0.1,2.2-0.3,3.1C135.4,205.6,134.5,204.8,134,203.7z M136,218c-0.3-3,0.6-5.1,1.5-7.4c0.2-0.4,0.3-0.8,0.5-1.3
			c1,0.4,2.1,0.8,3.1,1.2c0.9,0.3,1.8,0.5,2.7,0.5c1,0,2.1-0.2,3-0.7c1.4-0.6,2.4-1.6,3.2-2.9c0.7,0.3,1.4,0.5,2.1,0.8
			c-0.3,1.4-0.1,2.9,0.6,4.3c0.9,1.8,2.4,3.1,4.2,3.8c1.7,0.6,3.4,1.2,5.2,1.8c0.8,0.3,1.6,0.4,2.4,0.4c1.1,0,2.3-0.3,3.3-0.8
			c1.3-0.7,2.4-1.7,3.1-3c0.6,0.2,1.2,0.4,1.7,0.6c-0.2,1.4,0.1,2.9,0.8,4.2c0.9,1.7,2.5,3,4.4,3.6c0.5,0.2,1.1,0.3,1.6,0.5
			c-2,1.1-3.4,3.2-3.6,5.5c-0.6,0-1.2,0.1-1.8,0.1c-0.8-3.3-3.9-5.7-7.5-5.5c-1.8,0.1-3.5,0.2-5.3,0.3c-3.5,0.2-6.4,2.8-6.9,6.2
			c-0.8,0-1.5,0.1-2.3,0.1c-0.7-3.3-3.6-5.8-7.2-5.8c0,0-0.1,0-0.1,0c-1.8,0-3.6,0-5.3,0c-0.3,0-0.7,0-1,0.1
			C137.2,222.8,136.3,221.1,136,218z M168.3,231.9C168.3,231.9,168.3,231.9,168.3,231.9c1.1-0.1,2.2-0.1,3.3-0.2
			c-0.2,0.8-0.5,1.5-1.1,2.2c-0.9,1-2.1,1.6-3.5,1.6c-1.8,0.1-3.6,0.2-5.4,0.3c-1.4,0.1-2.6-0.4-3.6-1.3c-0.6-0.6-1-1.3-1.3-2.1
			c0.8,0,1.5,0,2.3-0.1c0.7,0,1.2-0.6,1.2-1.2s-0.6-1.2-1.2-1.2c-0.7,0-1.5,0-2.2,0.1c0.5-2,2.3-3.6,4.5-3.7
			c1.8-0.1,3.6-0.2,5.3-0.3c2.2-0.1,4.2,1.3,4.9,3.3c-1.1,0.1-2.1,0.1-3.2,0.2c-0.7,0-1.2,0.6-1.1,1.3
			C167.1,231.4,167.6,231.9,168.3,231.9z M145.5,232.7C145.5,232.7,145.5,232.7,145.5,232.7c1.3,0,2.6-0.1,4-0.1
			c-0.2,0.8-0.6,1.5-1.2,2.1c-0.9,1-2.2,1.5-3.5,1.5c-1.1,0-2.1,0-3.2,0c0.3-0.9,0.5-1.9,0.4-3c-0.4-3-1.3-4.9-2.2-6.5
			c1.6,0,3.2,0,4.9,0c0,0,0,0,0.1,0c2.2,0,4.1,1.5,4.7,3.5c-1.3,0-2.6,0.1-3.9,0.1c-0.7,0-1.2,0.6-1.2,1.2
			C144.3,232.2,144.8,232.7,145.5,232.7z M134.4,231.5c0-1.9,1.2-3.5,2.9-4.3c1,1.6,2,3.3,2.4,6.3c0.1,1-0.2,1.8-0.6,2.7
			c-1.2-0.1-2.4-0.6-3.2-1.4C134.9,233.9,134.4,232.8,134.4,231.5z M147.9,287.3c-1.4-3.5-2.6-7.9-3.8-12.9c-0.3-1.3-0.6-2.7-0.9-4
			l-0.3-1.3c-1.5-7.3-2.8-15.1-4-24.1c-0.4-2.9,0.5-4.7,1.5-6.4c1.5,0,3,0,4.4,0c2,0,3.9-0.8,5.2-2.2c1-1.1,1.7-2.4,1.9-3.8
			c0.8,0,1.5,0,2.3-0.1c0.3,1.4,1,2.7,2.1,3.7c1.4,1.3,3.1,2,5,2c0.1,0,0.2,0,0.3,0c1.8-0.1,3.6-0.2,5.5-0.3c2-0.1,3.8-1,5.1-2.5
			c1-1.1,1.6-2.5,1.7-3.9c0.6,0,1.2-0.1,1.8-0.1c0.3,1.4,1.1,2.7,2.3,3.7c1.3,1.1,3,1.8,4.8,1.8c0.2,0,0.4,0,0.6,0
			c1.8-0.1,3.6-0.3,5.4-0.5c2-0.2,3.8-1.1,5-2.6c0.9-1.1,1.5-2.5,1.6-4c0.8-0.1,1.5-0.2,2.3-0.2c0.4,1.4,1.2,2.6,2.4,3.6
			c1.3,1,2.9,1.6,4.5,1.6c0.2,0,0.4,0,0.7,0c0,0.2-0.1,0.4-0.1,0.6l-0.6,5.3l-1-0.1c-1.6-0.2-3.3,0.3-4.6,1.3
			c-1.3,1-2.1,2.5-2.3,4.1l-1.9,15.8c-0.4,3.4,2,6.5,5.4,6.9l23.4,2.8h0c0.2,0,0.5,0,0.7,0c3.1,0,5.8-2.3,6.2-5.5l1.9-15.8
			c0.4-3.4-2-6.5-5.4-6.9l-1-0.1l0.6-5.3c0.1-0.8,0.1-1.6,0-2.3c0.2,0,0.4,0,0.5,0c1.4,0,2.8-0.4,4-1.2c1.2-0.8,2.1-1.9,2.6-3.2
			c0.6,0.1,1.2,0.2,1.8,0.3c0,1.4,0.4,2.8,1.2,4c1.1,1.6,2.8,2.7,4.8,3c1.8,0.3,3.6,0.6,5.4,0.9c0.4,0.1,0.8,0.1,1.3,0.1
			c1.5,0,3-0.5,4.3-1.4c1.2-0.9,2.1-2.1,2.5-3.4c0.7,0.1,1.3,0.2,1.8,0.3c0,1.4,0.5,2.8,1.4,4c1.2,1.6,2.9,2.6,4.9,2.9
			c1.8,0.2,3.6,0.5,5.4,0.7c0.3,0,0.6,0.1,1,0.1c1.6,0,3.2-0.5,4.5-1.5c1.2-0.9,2-2.2,2.4-3.5c0.8,0.1,1.5,0.2,2.3,0.2
			c0.1,1.5,0.6,2.8,1.6,4c1.2,1.5,3,2.5,5,2.7c1.8,0.2,3.6,0.3,5.4,0.5c0.2,0,0.4,0,0.7,0c0.5,0,0.9,0,1.4-0.1
			c0.2,0.4,0.4,0.7,0.6,1.1c1.4,2.7,2.8,5.3,3.1,7.6c2,14.9,4.5,26,7.4,33.9H147.9z"/>
		<path d="M200.6,131.8c5.4,0,8.1-1,10.8-2.1c2.5-1,5-1.9,9.9-1.9c4.9,0,7.4,0.9,9.9,1.9c2.6,1,5.4,2.1,10.8,2.1s8.1-1,10.8-2.1
			c2.6-1,5-1.9,9.9-1.9c0.7,0,1.2-0.5,1.2-1.2s-0.5-1.2-1.2-1.2c-5.4,0-8.1,1-10.8,2.1c-2.6,1-5,1.9-9.9,1.9s-7.4-0.9-9.9-1.9
			c-2.6-1-5.4-2.1-10.8-2.1s-8.1,1-10.8,2.1c-2.5,1-5,1.9-9.9,1.9c-0.7,0-1.2,0.5-1.2,1.2S199.9,131.8,200.6,131.8z"/>
		<path d="M246.7,145.1c-5,0-7.5-0.9-10.1-1.9c-2.7-1-5.5-2.1-10.9-2.1s-8.3,1-10.9,2.1c-2.6,1-5.1,1.9-10.1,1.9
			c-0.7,0-1.2,0.5-1.2,1.2s0.5,1.2,1.2,1.2c5.5,0,8.3-1,10.9-2.1c2.6-1,5.1-1.9,10.1-1.9s7.5,0.9,10.1,1.9c2.7,1,5.5,2.1,10.9,2.1
			s8.3-1,10.9-2.1c2.6-1,5.1-1.9,10.1-1.9c0.7,0,1.2-0.5,1.2-1.2s-0.5-1.2-1.2-1.2c-5.5,0-8.3,1-10.9,2.1
			C254.2,144.1,251.8,145.1,246.7,145.1z"/>
		<path d="M250.7,162.4c-5.2,0-7.7-0.9-10.3-1.9c-2.7-1-5.6-2-11.2-2s-8.4,1-11.2,2c-2.7,1-5.2,1.9-10.3,1.9c-0.7,0-1.2,0.5-1.2,1.2
			s0.5,1.2,1.2,1.2c5.6,0,8.4-1,11.2-2c2.7-1,5.2-1.9,10.3-1.9c5.2,0,7.7,0.9,10.3,1.9c2.7,1,5.6,2,11.2,2s8.4-1,11.2-2
			c2.7-1,5.2-1.9,10.3-1.9c0.7,0,1.2-0.5,1.2-1.2s-0.5-1.2-1.2-1.2c-5.6,0-8.4,1-11.2,2C258.4,161.5,255.9,162.4,250.7,162.4z"/>
		<path d="M149.8,178c4.9,0,7.3,1,9.9,2.1c2.7,1.1,5.4,2.3,10.8,2.3s8.2-1.2,10.8-2.3c2.5-1.1,4.9-2.1,9.9-2.1c4.9,0,7.3,1,9.9,2.1
			c2.7,1.1,5.4,2.3,10.8,2.3c5.4,0,8.2-1.2,10.8-2.3c2.5-1.1,4.9-2.1,9.9-2.1c4.9,0,7.3,1,9.9,2.1c2.7,1.1,5.4,2.3,10.8,2.3
			s8.2-1.2,10.8-2.3c2.5-1.1,4.9-2.1,9.9-2.1c0.7,0,1.2-0.5,1.2-1.2s-0.5-1.2-1.2-1.2c-5.4,0-8.2,1.2-10.8,2.3
			c-2.5,1.1-4.9,2.1-9.9,2.1c-4.9,0-7.3-1-9.9-2.1c-2.7-1.1-5.4-2.3-10.8-2.3c-5.4,0-8.2,1.2-10.8,2.3c-2.5,1.1-4.9,2.1-9.9,2.1
			s-7.3-1-9.9-2.1c-2.7-1.1-5.4-2.3-10.8-2.3c-5.4,0-8.2,1.2-10.8,2.3c-2.5,1.1-4.9,2.1-9.9,2.1s-7.3-1-9.9-2.1
			c-2.7-1.1-5.4-2.3-10.8-2.3c-0.7,0-1.2,0.5-1.2,1.2S149.1,178,149.8,178z"/>
	</g>
</g>
</svg>
