<svg xmlns="http://www.w3.org/2000/svg" width="300" height="251.999" viewBox="0 0 300 251.999">
    <defs>
        <style>
            .cls-1,.cls-3{fill:#7ccfdd}.cls-1{opacity:.5}.cls-2{fill:#fff}
        </style>
    </defs>
    <g id="a-plaque-previewing-the-parchment_touched" transform="translate(-65.212 -91.695)">
        <path id="path533" d="M78.554 140.339C-.577 304.869 295.581 417.5 355.791 286.136 420.009 146.273 136.984 18.977 78.554 140.339z" class="cls-1"/>
        <path id="path535" d="M76.6 127.1v176.913l262.037.7V127.1zm12.6 64.491l27.752-51.08h18.358l-45.995 84.55zm46.11 99.009l81.6-150.09h18.35l-81.6 150.09zm46.216 0h-14.484l81.6-150.09h14.484z" class="cls-2" transform="translate(1.893 5.317)"/>
        <path id="polygon537" d="M302.1 290.6l13.761 13.645-.466-177.145-13.295 14.344z" class="cls-3" transform="translate(25.019 5.317)"/>
        <path id="polygon539" d="M318.937 280.628L90.011 267.8 76.6 280.628z" class="cls-3" transform="translate(1.893 28.702)"/>
        <path id="polygon541" d="M76.5 273.808l.117-146.708 12.712 13.411z" class="cls-3" transform="translate(1.876 5.663)"/>
        <path id="path543" d="M276.488 190.237c18.543 9.33-11.9 82.684-34.869 75.92-30.438-8.747 6.881-90.147 34.869-75.92z" class="cls-3" transform="translate(16.903 15.734)"/>
        <g id="g547" transform="translate(136.614 197.548)">
            <path id="path545" d="M162.454 187.015l1.983 27.056h3.963l-1.05 4.432h-14.109l1.283-4.432h4.665l-.466-8.163h-12.48L141 214.071h4.432l-1.4 4.432H129.8l1.633-4.432h4.315l17.843-27.056h-3.848l1.4-4.315H167.7l-1.166 4.315zm-4.432 0h-.117l-9.1 14.694h9.679z" transform="translate(-129.8 -182.7)"/>
        </g>
        <g id="g567" transform="translate(76.977 131.018)">
            <path id="path549" d="M224.236 163.8h-73.821a37.237 37.237 0 0 0-16.327 3.732c-11.312 5.481-25.19 17.726-26.823 44.549-.35 5.6-.7 12.129-.933 18.543-.35 6.531-.583 12.712-.933 17.143a1.515 1.515 0 0 0 .933 1.4l14.578 4.9a1 1 0 0 0 .816 0l13.761-3.848 10.846 4.665a1.052 1.052 0 0 0 .583.117h.35l14.461-4.082L177.121 255c.233 0 .466.117.7 0l14.927-3.149L209.075 255a1.4 1.4 0 0 0 1.516-.7l11.079-20.642a1.38 1.38 0 0 0 .117-1.166l-5.365-12.828 7.23-14.111v-.117a.114.114 0 0 1 .117-.117v-.933l-4.432-15.044 6.181-10.5a1.657 1.657 0 0 0 .233-.7V165.2a1.61 1.61 0 0 0-1.515-1.4zm-1.4 14.111l-3.732 6.3a23.42 23.42 0 0 0-2.915-.117 26.168 26.168 0 0 0-10.379 1.983 22.077 22.077 0 0 1-9.33 1.866 1.4 1.4 0 0 0 0 2.8 26.167 26.167 0 0 0 10.379-1.983 22.077 22.077 0 0 1 9.33-1.866h1.4l-.933 1.633a1.133 1.133 0 0 0-.117 1.05l3.848 12.945a23.822 23.822 0 0 0-9.68-1.749 26.167 26.167 0 0 0-10.379 1.983 22.077 22.077 0 0 1-9.33 1.866 1.4 1.4 0 1 0 0 2.8 26.167 26.167 0 0 0 10.379-1.983 22.077 22.077 0 0 1 9.33-1.866 21.656 21.656 0 0 1 9.33 1.866c.233.117.35.117.583.233l-6.3 12.362a33.492 33.492 0 0 0-5.131-.467 25.7 25.7 0 0 0-10.379 1.983 22.077 22.077 0 0 1-9.33 1.866 1.4 1.4 0 1 0 0 2.8 25.7 25.7 0 0 0 10.379-1.982 22.076 22.076 0 0 1 9.33-1.866 21.177 21.177 0 0 1 4.9.466l5.015 12.128-1.633 3.032a25.363 25.363 0 0 0-9.8-1.749 26.363 26.363 0 0 0-10.5 1.982 22.694 22.694 0 0 1-9.446 1.866 22.264 22.264 0 0 1-9.446-1.866 28.775 28.775 0 0 0-20.992 0 24.844 24.844 0 0 1-18.892 0 26.363 26.363 0 0 0-10.5-1.982 1.4 1.4 0 1 0 0 2.8 22.265 22.265 0 0 1 9.446 1.866 28.774 28.774 0 0 0 20.992 0 24.844 24.844 0 0 1 18.893 0 28.774 28.774 0 0 0 20.992 0 22.694 22.694 0 0 1 9.446-1.866 21.883 21.883 0 0 1 8.4 1.4l-7.347 13.528-15.617-3.04h-.583l-14.927 3.149L162.194 248h-.7l-14.344 4.082-10.85-4.665a2.568 2.568 0 0 0-.933-.117l-13.761 3.848-2.682-.933-7.464-2.566c-1.4-.466-2.332-.816-3.032-1.05.233-4.432.583-10.146.816-16.094.35-6.414.583-13.062.933-18.543 1.516-25.423 14.578-36.969 25.307-42.217a34.662 34.662 0 0 1 15.044-3.382h72.421z" transform="translate(-70.297 -119.601)"/>
            <path id="path551" d="M88.22 290.289h235.374a1.311 1.311 0 0 0 1.32-1.4V138.8a1.311 1.311 0 0 0-1.32-1.4H88.22a1.311 1.311 0 0 0-1.32 1.4v150.09a1.381 1.381 0 0 0 1.32 1.4zM89.54 140.2h232.734v147.29H89.54z" transform="translate(-73.372 -123.989)"/>
            <path id="path553" d="M338.809 125.9H76.628a1.314 1.314 0 0 0-1.328 1.4v176.912a1.314 1.314 0 0 0 1.328 1.4h262.181a1.314 1.314 0 0 0 1.328-1.4V127.3a1.384 1.384 0 0 0-1.328-1.4zm-1.327 176.913H78.066V128.7h259.526v174.113z" transform="translate(-75.3 -125.9)"/>
            <path id="path555" d="M253.707 160.474l-3.032 3.965H231.9a1.347 1.347 0 0 0-1.4 1.4v19.592a1.347 1.347 0 0 0 1.4 1.4h19.592a1.347 1.347 0 0 0 1.4-1.4v-19.242l3.149-3.965a1.456 1.456 0 0 0-.233-1.982 1.57 1.57 0 0 0-2.101.232zm-3.732 23.557h-16.793v-16.793h15.277l-6.881 8.863-4.315-4.9a1.4 1.4 0 0 0-2.1 1.866l5.481 6.181a1.266 1.266 0 0 0 1.05.466 1.225 1.225 0 0 0 1.05-.583l7.23-9.33z" transform="translate(-59.759 -120.24)"/>
            <path id="path557" d="M253.724 190.474l-2.682 3.382H231.8a1.347 1.347 0 0 0-1.4 1.4v19.592a1.347 1.347 0 0 0 1.4 1.4h19.592a1.347 1.347 0 0 0 1.4-1.4v-18.659l3.149-3.965a1.456 1.456 0 0 0-.233-1.982 1.441 1.441 0 0 0-1.984.232zm-3.732 23.091H233.2v-16.793h15.627l-7.347 9.446-4.315-4.9a1.4 1.4 0 1 0-2.1 1.866l5.481 6.181a1.266 1.266 0 0 0 1.05.467 1.225 1.225 0 0 0 1.05-.583l7.23-9.33v13.645z" transform="translate(-59.769 -115.254)"/>
            <path id="path559" d="M253.724 220.28l-2.449 3.149H231.8a1.347 1.347 0 0 0-1.4 1.4v19.591a1.347 1.347 0 0 0 1.4 1.4h19.592a1.347 1.347 0 0 0 1.4-1.4v-18.426l3.149-3.965a1.456 1.456 0 0 0-.233-1.983 1.342 1.342 0 0 0-1.984.234zm-3.732 22.741H233.2v-16.794h15.86l-7.464 9.679-4.315-4.9a1.4 1.4 0 1 0-2.1 1.866l5.481 6.181a1.266 1.266 0 0 0 1.05.467 1.225 1.225 0 0 0 1.05-.583l7.23-9.33z" transform="translate(-59.769 -110.307)"/>
            <path id="path561" d="M288.688 172.866a13.479 13.479 0 0 1-4.432-.583 17.568 17.568 0 0 0-5.131-.583 22.9 22.9 0 0 0-5.131.583 17.644 17.644 0 0 1-4.432.583 13.478 13.478 0 0 1-4.432-.583 17.568 17.568 0 0 0-5.13-.583 1.4 1.4 0 1 0 0 2.8 13.478 13.478 0 0 1 4.432.583 17.569 17.569 0 0 0 5.131.583 22.9 22.9 0 0 0 5.131-.583 17.642 17.642 0 0 1 4.432-.583 13.479 13.479 0 0 1 4.432.583 17.568 17.568 0 0 0 5.131.583 1.347 1.347 0 0 0 1.4-1.4 1.418 1.418 0 0 0-1.401-1.4z" transform="translate(-59.188 -118.288)"/>
            <path id="path563" d="M288.688 202.466a13.479 13.479 0 0 1-4.432-.583 17.567 17.567 0 0 0-5.131-.583 22.906 22.906 0 0 0-5.131.583 17.645 17.645 0 0 1-4.432.583 13.478 13.478 0 0 1-4.432-.583 17.568 17.568 0 0 0-5.13-.583 1.4 1.4 0 1 0 0 2.8 13.479 13.479 0 0 1 4.432.583 17.569 17.569 0 0 0 5.131.583 22.9 22.9 0 0 0 5.131-.583 17.643 17.643 0 0 1 4.432-.583 13.479 13.479 0 0 1 4.432.583 17.569 17.569 0 0 0 5.131.583 1.347 1.347 0 0 0 1.4-1.4 1.418 1.418 0 0 0-1.401-1.4z" transform="translate(-59.188 -113.368)"/>
            <path id="path565" d="M288.688 231.966a13.479 13.479 0 0 1-4.432-.583 17.568 17.568 0 0 0-5.131-.583 22.9 22.9 0 0 0-5.131.583 17.642 17.642 0 0 1-4.432.583 13.479 13.479 0 0 1-4.432-.583 17.568 17.568 0 0 0-5.13-.583 1.4 1.4 0 1 0 0 2.8 13.477 13.477 0 0 1 4.432.583 17.568 17.568 0 0 0 5.131.583 22.9 22.9 0 0 0 5.131-.583 17.643 17.643 0 0 1 4.432-.583 13.478 13.478 0 0 1 4.432.583 17.567 17.567 0 0 0 5.131.583 1.347 1.347 0 0 0 1.4-1.4 1.418 1.418 0 0 0-1.401-1.4z" transform="translate(-59.188 -108.465)"/>
        </g>
    </g>
</svg>
