<svg xmlns="http://www.w3.org/2000/svg" width="300" height="222" viewBox="0 0 300 222">
    <defs>
        <style>
            .cls-1,.cls-3{fill:#7ccfdd}.cls-1{opacity:.5}.cls-2{fill:#fff}
        </style>
    </defs>
    <g id="accounting-paper-with-a-tip-jar_touched" transform="translate(-65.7 -101.062)">
        <path id="path446" d="M99.252 282.121c91.437 103.966 360.148-7.963 228.928-136.267S24.4 197.108 99.252 282.121z" class="cls-1" transform="translate(2.079)"/>
        <path id="path448" d="M124.063 250.035H85.73a18.77 18.77 0 1 0 0 37.539h84.17a11.932 11.932 0 0 0 11.432-8.491h18.27c6.165-.112 8.855-8.156 9.639-13.965a39.4 39.4 0 0 0 .224-6.368h22.08c8.63.782 7.622-16.423 4.82-34.523l.224-6.033h14.235v41.114a22.751 22.751 0 0 0 10.76 19.328c4.371 3.575 21.3 6.257 41.471 6.257 17.485 0 32.616-2.011 39.117-4.916a9.806 9.806 0 0 0 2.242-1.341 23.059 23.059 0 0 0 10.76-19.44v-66.364c0-15.194-11.208-20.669-12.89-21.451 2.13-1.006 3.25-2.011 3.25-3.128v-11.4c0-2.011-3.811-3.8-10.2-5.251 2.13-8.826 3.7-13.742 3.7-13.742l-55.257-7.374c-.448 5.921-1.121 12.4-2.018 19.328-1.905.223-3.811.447-5.492.67-.224-13.183-1.009-30.389-1.009-30.389h-84.506s1.009 20 1.121 35.863h-37.212c-11.769.112-11.432 20.334-7.622 41.785.448 2.346.9 4.916 1.457 7.709v.112h-25.218c-13.338 0-2.69 23.462.785 44.466m126.878-31.841c-1.121-3.687-1.681-8.826-2.018-14.524l2.018 1.676v12.848z" class="cls-2" transform="translate(.162 2.569)"/>
        <path id="path450" d="M223.521 152.5c-15.776 0 5.448 63.217 5.448 63.217l-9.647-.341s-19.975-62.876 4.199-62.876z" class="cls-3" transform="translate(17.585 5.982)"/>
        <path id="path452" d="M194.986 196.6c-18.727 0 .114 30.076.114 54.024h9.42c.114 0-17.251-48.122-9.534-54.024z" class="cls-3" transform="translate(14.583 11.206)"/>
        <path id="path454" d="M153.836 237.6a18.8 18.8 0 0 0 13.052 8.512c9.42 1.7 13.165 13.619 11.122 19.521h-5.448s2.951-15.549-11.69-15.549H142.6s2.951-11.122 11.236-12.484z" class="cls-3" transform="translate(9.194 16.333)"/>
        <path id="path456" d="M149.973 248.7s-4.767 7.831 1.929 13.96h-7.718s-4.313-7.718-1.362-13.96z" class="cls-3" transform="translate(9.2 17.812)"/>
        <path id="path458" d="M157.406 249.1s9.874 3.064 9.874 11.349-5.334 12.144-5.334 12.144a19.543 19.543 0 0 1-18.046-10.1l14.981.34c0 .113-11.122-4.88-1.475-13.733z" class="cls-3" transform="translate(9.403 17.323)"/>
        <g id="g462" transform="translate(268.29 174.661)">
            <path id="path460" d="M317.086 167.5l-7.6 1.589-.341 1.929s9.307 7.718 9.307 16.23v66.281c0 9.761-1.816 14.187-1.816 14.187L299.04 264.2l-.454 6.356c3.859.795 6.356 1.589 6.356 2.383 0 3.178-37.794 4.426-57.542 4.88 6.129 1.816 16.684 3.4 34.5 3.4 40.291 0 43.128-8.285 43.128-8.285s3.064-7.718 3.064-13.619v-74.223c-.114-10.9-11.009-17.592-11.009-17.592z" class="cls-3" transform="translate(-247.4 -167.5)"/>
        </g>
        <path id="path464" d="M261.378 146.6l-1.135 8.626a35.985 35.985 0 0 0-12.825 3.291s-7.718-1.135-7.718-5.221c-.113-4.086 21.678-6.696 21.678-6.696z" class="cls-3" transform="translate(20.938 5.5)"/>
        <path id="path466" d="M251.39 180.8c-8.739 0-11.69 8.512-11.69 17.932v31.211c0 16.8 9.988 31.892 28.147 31.892 12.825 0 25.423-8.4 25.423-14.527 0-17.365-30.53 6.015-30.53-46.192 0-13.392-3.4-20.316-11.349-20.316z" class="cls-3" transform="translate(20.614 9.088)"/>
        <path id="path468" d="M284.229 194.6c-11.123 0-12.6 31.552 1.929 31.552s13.052-31.552-1.929-31.552z" class="cls-3" transform="translate(24.692 11.163)"/>
        <path id="path470" d="M218.515 211s1.362 28.714-10.215 28.714c0 0 1.929 8.853 7.377 8.853 5.334.113 8.623-12.258 2.838-37.567z" class="cls-3" transform="translate(17.22 13.066)"/>
        <path id="path472" d="M191.611 219.3s14.414 48.916-5.334 48.916c-6.923 0-11.577-14.981-11.577-14.981s22.018 27.579 16.911-33.935z" class="cls-3" transform="translate(13.115 13.929)"/>
        <path id="path474" d="M68.961 245.6c3.291 10.555 5.675 21.564 17.024 21.564h45.171c8.4 0 17.138 6.015 32.914 6.015H83.034c-10.215 0-21-14.414-14.073-27.579z" class="cls-3" transform="translate(.144 16.851)"/>
        <path id="path476" d="M239.6 162.593s11.917 7.831 40.858 7.831 45.4-6.242 45.4-6.242V153.4s-2.383 12.257-45.4 12.257c-26.558 0-40.858-6.469-40.858-6.469z" class="cls-3" transform="translate(19.837 6.303)"/>
        <path id="path478" d="M138.5 189.5h61.4c9.761 0 14.187 12.484 14.527 38.588 0 0-3.518-30.644-12.938-30.644h-61.627z" class="cls-3" transform="translate(8.507 10.503)"/>
        <path id="path480" d="M117.2 229.2h45.625c13.733 0 18.727 11.69 19.635 22.586 0 0-7.037-14.414-18.5-14.414h-46.079z" class="cls-3" transform="translate(6.06 15.382)"/>
        <path id="path482" d="M259.208 145.614s15.322.908 18.273-14.414l22.813 3.064s-1.248 14.641 12.257 18.386l-1.248 5.561a48.152 48.152 0 0 0-24.628-11.917c-12.938-2.043-28.374 6.356-28.374 6.356z" class="cls-3" transform="translate(22.361 3.608)"/>
        <g id="g488" transform="translate(129.837 220.958)">
            <g id="g486">
                <path id="path484" d="M131.068 211.391l-.113-1.021H133l.681 4.767h-2.043l-.116-1.137a4.946 4.946 0 0 0-3.859-1.929 3.37 3.37 0 0 0-2.043.567 1.537 1.537 0 0 0-.454 1.589 2.242 2.242 0 0 0 .681 1.248 3.023 3.023 0 0 0 1.135.681 17.54 17.54 0 0 0 1.7.454l1.248.34a11.928 11.928 0 0 1 2.837.908 5.191 5.191 0 0 1 1.929 1.589 5.459 5.459 0 0 1 .908 2.61 3.875 3.875 0 0 1-4.2 4.767l.454 2.724h-1.816l-.454-2.951a5.542 5.542 0 0 1-2.61-1.475l.227 1.362h-2.043l-.908-5.9h2.046l.227 1.475c1.248 1.816 2.724 2.724 4.2 2.724a2.775 2.775 0 0 0 2.043-.681 2.185 2.185 0 0 0 .454-1.929 2.484 2.484 0 0 0-.908-1.589 7.225 7.225 0 0 0-2.27-.908l-1.929-.454a7.86 7.86 0 0 1-3.518-1.7 5.048 5.048 0 0 1-1.589-2.837 3.664 3.664 0 0 1 .681-3.178 4.1 4.1 0 0 1 3.178-1.248l-.34-2.156h1.929l.34 2.383a3.449 3.449 0 0 1 2.27.908z" transform="translate(-122.925 -208.1)"/>
            </g>
        </g>
        <g id="g492" transform="translate(157.499 168.984)">
            <path id="path490" d="M155.885 164.991v-1.021h1.929v4.767h-1.929V167.6a4.137 4.137 0 0 0-3.4-1.929 3.37 3.37 0 0 0-2.043.567 1.9 1.9 0 0 0-.681 1.589 1.55 1.55 0 0 0 .454 1.248 2.68 2.68 0 0 0 1.021.681 9.534 9.534 0 0 0 1.589.454l1.135.34a11.6 11.6 0 0 1 2.61.908 3.586 3.586 0 0 1 1.589 1.589 4.466 4.466 0 0 1 .567 2.61 5.024 5.024 0 0 1-1.248 3.4 4.792 4.792 0 0 1-3.632 1.362v2.724h-1.816V180.2a4.46 4.46 0 0 1-2.383-1.475v1.362H147.6v-5.9h2.043v1.475q1.532 2.724 3.745 2.724a3.272 3.272 0 0 0 2.156-.681 2.738 2.738 0 0 0 .794-1.929 1.9 1.9 0 0 0-.681-1.589 5.75 5.75 0 0 0-2.043-.908l-1.816-.454a5.732 5.732 0 0 1-3.064-1.7 3.956 3.956 0 0 1-1.021-2.837 4.2 4.2 0 0 1 1.135-3.178 4.541 4.541 0 0 1 3.291-1.248V161.7h1.816v2.383c.567-.113 1.248.34 1.929.908z" transform="translate(-147.6 -161.7)"/>
        </g>
        <g id="g496" transform="translate(285.001 200.489)">
            <path id="path494" d="M266.607 192.524l-1.248-.227.454-2.5 6.015 1.135-.454 2.5-1.362-.227a4.991 4.991 0 0 0-3.178 3.859 4.192 4.192 0 0 0 .227 2.724 2.195 2.195 0 0 0 1.816 1.248 2.729 2.729 0 0 0 1.7-.227 5.38 5.38 0 0 0 1.135-1.135 8.942 8.942 0 0 0 .908-1.816l.681-1.362a18.194 18.194 0 0 1 1.816-3.064 4.836 4.836 0 0 1 2.27-1.7 6.694 6.694 0 0 1 3.4-.114 5.962 5.962 0 0 1 3.979 2.382 6.825 6.825 0 0 1 .908 4.88l3.4.681-.454 2.27-3.632-.681a7.478 7.478 0 0 1-2.383 2.61l1.7.34-.454 2.5-7.377-1.362.454-2.5 1.816.34c2.5-.794 3.859-2.156 4.2-4.086a3.916 3.916 0 0 0-.34-2.837 2.828 2.828 0 0 0-2.27-1.362 2.8 2.8 0 0 0-2.156.454 7.156 7.156 0 0 0-1.7 2.383l-1.021 2.156a8.259 8.259 0 0 1-2.837 3.518 5.542 5.542 0 0 1-3.859.681 5.348 5.348 0 0 1-3.745-2.27 5.649 5.649 0 0 1-.794-4.426l-2.724-.568.454-2.27 2.951.567a4.175 4.175 0 0 1 1.7-2.5z" transform="translate(-261.5 -189.8)"/>
        </g>
        <g id="g500" transform="translate(202.557 130.16)">
            <path id="path498" d="M196.085 129.991v-1.021h1.929v4.767h-1.929V132.6a4.137 4.137 0 0 0-3.4-1.929 3.37 3.37 0 0 0-2.043.567 1.9 1.9 0 0 0-.681 1.589 1.55 1.55 0 0 0 .454 1.248 2.68 2.68 0 0 0 1.021.681 9.531 9.531 0 0 0 1.589.454l1.135.34a11.6 11.6 0 0 1 2.61.908 3.586 3.586 0 0 1 1.589 1.589 4.466 4.466 0 0 1 .567 2.61 5.024 5.024 0 0 1-1.248 3.4 4.626 4.626 0 0 1-3.632 1.362v2.724h-1.816V145.2a4.46 4.46 0 0 1-2.383-1.475v1.362H187.8v-5.9h2.043v1.475q1.532 2.724 3.745 2.724a3.272 3.272 0 0 0 2.156-.681 2.738 2.738 0 0 0 .794-1.929 1.9 1.9 0 0 0-.681-1.589 5.75 5.75 0 0 0-2.043-.908l-1.814-.456a5.732 5.732 0 0 1-3.064-1.7 3.956 3.956 0 0 1-1.021-2.837 4.2 4.2 0 0 1 1.135-3.178 4.541 4.541 0 0 1 3.291-1.248v-2.16h1.816v2.383a3.3 3.3 0 0 1 1.929.908z" transform="translate(-187.8 -126.7)"/>
        </g>
        <g id="g504" transform="translate(80.568 260.386)">
            <path id="path502" d="M87.085 246.591v-1.021h1.929v4.767h-1.929V249.2a4.137 4.137 0 0 0-3.4-1.929 3.37 3.37 0 0 0-2.043.568 1.9 1.9 0 0 0-.681 1.589 1.55 1.55 0 0 0 .454 1.248 2.68 2.68 0 0 0 1.021.681 9.541 9.541 0 0 0 1.589.454l1.135.34a11.594 11.594 0 0 1 2.61.908 3.586 3.586 0 0 1 1.589 1.589 4.466 4.466 0 0 1 .567 2.61 5.024 5.024 0 0 1-1.248 3.4 4.793 4.793 0 0 1-3.632 1.362v2.724h-1.82V261.8a4.461 4.461 0 0 1-2.383-1.475v1.362H78.8v-5.9h2.043v1.476q1.532 2.724 3.745 2.724a3.272 3.272 0 0 0 2.156-.681 2.738 2.738 0 0 0 .794-1.929 1.9 1.9 0 0 0-.681-1.589 5.75 5.75 0 0 0-2.043-.908L83 254.423a5.732 5.732 0 0 1-3.064-1.7 3.956 3.956 0 0 1-1.021-2.837 4.2 4.2 0 0 1 1.135-3.178 4.541 4.541 0 0 1 3.291-1.248v-2.16h1.816v2.383c.567-.113 1.248.341 1.929.908z" transform="translate(-78.8 -243.3)"/>
        </g>
        <g id="g522" transform="translate(65.7 121.194)">
            <path id="path506" d="M155.914 213.424a14.359 14.359 0 0 1 6.015 1.135 18.859 18.859 0 0 0 14.073 0 15.224 15.224 0 0 1 6.015-1.135 1.362 1.362 0 1 0 0-2.724 16.589 16.589 0 0 0-7.037 1.362 15.225 15.225 0 0 1-6.015 1.135 14.36 14.36 0 0 1-6.015-1.135 18.859 18.859 0 0 0-14.073 0 15.225 15.225 0 0 1-6.015 1.135 1.362 1.362 0 1 0 0 2.724 16.589 16.589 0 0 0 7.037-1.362 15.224 15.224 0 0 1 6.015-1.135z" transform="translate(-56.707 -108.049)"/>
            <path id="path508" d="M184.118 220.1a16.588 16.588 0 0 0-7.037 1.362 15.226 15.226 0 0 1-6.015 1.135 14.785 14.785 0 0 1-6.015-1.135 18.859 18.859 0 0 0-14.073 0 15.226 15.226 0 0 1-6.015 1.135 1.362 1.362 0 1 0 0 2.724 16.589 16.589 0 0 0 7.037-1.362 15.224 15.224 0 0 1 6.015-1.135 14.359 14.359 0 0 1 6.015 1.135 18.86 18.86 0 0 0 14.073 0 15.224 15.224 0 0 1 6.015-1.135 1.362 1.362 0 1 0 0-2.724z" transform="translate(-56.457 -106.949)"/>
            <path id="path510" d="M172.6 167.959a15.224 15.224 0 0 1 6.015-1.135 14.359 14.359 0 0 1 6.015 1.135 18.859 18.859 0 0 0 14.073 0 15.224 15.224 0 0 1 6.015-1.135 1.362 1.362 0 0 0 0-2.724 16.589 16.589 0 0 0-7.037 1.362 15.224 15.224 0 0 1-6.015 1.135 14.784 14.784 0 0 1-6.015-1.135 18.859 18.859 0 0 0-14.073 0 15.225 15.225 0 0 1-6.015 1.135 1.362 1.362 0 1 0 0 2.724 17.007 17.007 0 0 0 7.037-1.362z" transform="translate(-54.013 -113.5)"/>
            <path id="path512" d="M233.266 143.021a16.588 16.588 0 0 0 7.037-1.362 15.225 15.225 0 0 1 6.015-1.135 1.362 1.362 0 1 0 0-2.724 16.59 16.59 0 0 0-7.037 1.362 15.223 15.223 0 0 1-6.015 1.135 14.359 14.359 0 0 1-6.015-1.135 18.86 18.86 0 0 0-14.073 0 15.223 15.223 0 0 1-6.015 1.135 1.362 1.362 0 0 0 0 2.724 16.589 16.589 0 0 0 7.037-1.362 15.225 15.225 0 0 1 6.015-1.135 14.361 14.361 0 0 1 6.015 1.135 16.184 16.184 0 0 0 7.036 1.362z" transform="translate(-49.078 -116.236)"/>
            <path id="path514" d="M207.062 134.221a16.589 16.589 0 0 0 7.037-1.362 15.224 15.224 0 0 1 6.015-1.135 14.36 14.36 0 0 1 6.015 1.135 18.859 18.859 0 0 0 14.073 0 15.224 15.224 0 0 1 6.015-1.135 1.362 1.362 0 1 0 0-2.724 16.59 16.59 0 0 0-7.037 1.362 15.224 15.224 0 0 1-6.015 1.135 14.359 14.359 0 0 1-6.015-1.135 18.86 18.86 0 0 0-14.073 0 15.224 15.224 0 0 1-6.015 1.135 1.362 1.362 0 0 0 0 2.724z" transform="translate(-49.089 -117.424)"/>
            <path id="path516" d="M205.418 173.4a16.589 16.589 0 0 0-7.037 1.362 15.225 15.225 0 0 1-6.015 1.135 14.361 14.361 0 0 1-6.015-1.135 18.859 18.859 0 0 0-14.073 0 15.225 15.225 0 0 1-6.015 1.135 1.362 1.362 0 1 0 0 2.724 16.589 16.589 0 0 0 7.037-1.362 15.225 15.225 0 0 1 6.015-1.135 14.36 14.36 0 0 1 6.015 1.135 18.859 18.859 0 0 0 14.073 0 15.225 15.225 0 0 1 6.015-1.135 1.362 1.362 0 0 0 0-2.724z" transform="translate(-53.93 -112.412)"/>
            <path id="path518" d="M136.418 250.3a16.59 16.59 0 0 0-7.037 1.362 15.224 15.224 0 0 1-6.015 1.135 14.783 14.783 0 0 1-6.015-1.135 18.86 18.86 0 0 0-14.073 0 15.224 15.224 0 0 1-6.015 1.135 1.362 1.362 0 1 0 0 2.724 16.589 16.589 0 0 0 7.037-1.362 15.225 15.225 0 0 1 6.015-1.135 14.36 14.36 0 0 1 6.015 1.135 18.859 18.859 0 0 0 14.073 0 15.225 15.225 0 0 1 6.015-1.135 1.311 1.311 0 0 0 1.362-1.362 1.38 1.38 0 0 0-1.362-1.362z" transform="translate(-61.625 -103.709)"/>
            <path id="path520" d="M345.268 171.659a3.858 3.858 0 0 0 1.906-3.129v-11.51c0-2.57-3.251-4.582-9.865-6.258 1.906-7.823 3.251-12.181 3.363-12.4a1.319 1.319 0 0 0-.112-1.118 1.178 1.178 0 0 0-1.009-.559l-38.9-5.252-16.366-2.235c-.336 0-.785 0-1.009.335a1.015 1.015 0 0 0-.448.894c-.448 5.588-1.121 11.734-1.906 18.216l-3.027.335c-.224-12.852-1.009-28.832-1.009-28.944a1.344 1.344 0 0 0-1.345-1.229h-84.517a1.371 1.371 0 0 0-1.009.447 1.229 1.229 0 0 0-.336 1.006c0 .224 1.009 19.11 1.121 34.532h-35.871a8.831 8.831 0 0 0-7.174 3.353c-4.82 5.811-5.493 19.222-1.794 40.008.336 1.9.785 4.023 1.121 6.258H123.43a7.329 7.329 0 0 0-6.053 2.57c-3.7 4.694-1.121 14.975 1.794 26.932 1.233 4.917 2.466 10.058 3.363 14.975H85.877a20.116 20.116 0 1 0 0 40.231h84.184a13.294 13.294 0 0 0 12.443-8.493h17.039a8.468 8.468 0 0 0 4.6-1.341c5.044-3.241 6.389-11.4 6.726-13.857a25.952 25.952 0 0 0 .224-5.141h20.738a6.364 6.364 0 0 0 5.044-1.9c4.708-5.252 3.475-19.892.336-38.443h12.555v39.672a24.2 24.2 0 0 0 11.77 20.786c.56.335 1.121.671 1.794 1.006a.348.348 0 0 0 .224.112c8.631 3.911 28.024 5.029 39.57 5.029s30.939-1.118 39.57-5.029h.112l.448-.223c.561-.224 1.009-.559 1.457-.782 3.811-2.347 11.994-8.717 11.994-20.9v-66.386c.112-12.74-7.4-19.11-11.434-21.568zm-3.923-.894a58.151 58.151 0 0 1-8.968 2.347c.673-3.241 1.345-6.258 1.906-9.164 4.26-.894 7.959-1.9 10.2-3.353v7.934c0 .447-.673 1.118-2.018 1.676a1.381 1.381 0 0 0-1.121.559zm-22.755 98.343c0 .112-.112.223-.112.335a1 1 0 0 0 .112.559c0 1.788-.112 3.576-.112 5.364l-12.892-3.466a15.066 15.066 0 0 1 13.339-9.834c-.224 2.235-.224 4.582-.336 7.04zm.336-9.834a17.787 17.787 0 0 0-16.03 11.846l-24.213-6.482a17.008 17.008 0 0 0 .336-3.353 17.881 17.881 0 0 0-12.666-16.985c2.242-10.617 5.381-25.256 8.3-41.013a18.879 18.879 0 0 0-.112 2.57 24.1 24.1 0 1 0 .785-6.37c1.345-7.487 2.8-15.087 4.036-22.686a207.7 207.7 0 0 0 23.876 1.341 195.939 195.939 0 0 0 25.67-1.676 600.884 600.884 0 0 0-9.982 82.808zm-56.16 1.006c.448-2.123 1.569-6.929 3.027-13.41a15.277 15.277 0 0 1 10.537 14.416 18.289 18.289 0 0 1-.224 2.57zm14.46-54.535a21.747 21.747 0 1 1 21.747 21.68 21.734 21.734 0 0 1-21.747-21.681zm26.006-30.4a190.862 190.862 0 0 1-23.428-1.341l1.345-8.717a201.545 201.545 0 0 0 21.971 1.229 197.087 197.087 0 0 0 28.136-2.012c-.673 2.794-1.233 5.923-1.906 9.164a192.047 192.047 0 0 1-26.118 1.676zm-38-4.582a1.8 1.8 0 0 0-1.233-.559c-1.345-.671-2.018-1.229-2.018-1.788v-7.935c3.363 2.012 9.64 3.464 16.59 4.358-.448 2.906-.9 5.7-1.345 8.6a52.411 52.411 0 0 1-11.994-2.682zm18.5-22.462h.448a17.968 17.968 0 0 0 17.487-14.081l19.953 2.682v1.006a18 18 0 0 0 11.994 16.875c-.448 2.123-1.009 4.358-1.569 6.817a167.68 167.68 0 0 1-28.809 2.235 195.075 195.075 0 0 1-21.635-1.118c.785-5.029 1.457-9.834 2.13-14.416zm60.756 8.717c0 1.118-3.251 2.682-9.64 4.023.673-2.794 1.233-5.364 1.794-7.711 6.497 1.57 7.842 3.131 7.842 3.69zm-9.977-5.7v.224c0 .223-.112.447-.112.671a15.107 15.107 0 0 1-9.977-14.193v-.671l13.452 1.788a118.8 118.8 0 0 0-3.367 12.183zm-49.1-19.221l13.564 1.788a15.126 15.126 0 0 1-14.8 11.734h-.224c.673-4.804 1.122-9.386 1.458-13.519zm-6.389 30.173c-11.1-1.564-17.039-3.911-17.039-5.364 0-1.118 4.6-3.8 18.5-5.588-.342 3.69-.903 7.266-1.463 10.954zm-86.538-40.79h81.83c.224 4.135.785 17.21 1.009 27.938-8.3 1.341-15.918 3.688-15.918 7.487v11.511a4.016 4.016 0 0 0 1.906 3.129q-.841.5-2.018 1.341a23.22 23.22 0 0 0-9.08 15.645 18.048 18.048 0 0 0-.112-2.459c-.448-16.2-.9-31.514-10.537-31.514H193.6c-.224-12.852-.9-28.385-1.121-33.079zM85.877 286.318a17.434 17.434 0 1 1 0-34.867h74.1a20.107 20.107 0 0 0 0 34.867zm77.795-9.946h-9.528a16.558 16.558 0 0 1-1.681-7.372 21.984 21.984 0 0 1 .448-3.911h10.649a7.975 7.975 0 0 0 .112 11.287zm6.277 9.946a17.431 17.431 0 0 1-14.236-7.376h12.218a1.33 1.33 0 0 0 1.345-1.118 1.28 1.28 0 0 0-.785-1.453c-3.811-1.676-4.708-4.582-4.26-6.929a5.747 5.747 0 0 1 5.717-4.582 10.728 10.728 0 1 1 0 21.457zm0-24.027h-16.141a17.309 17.309 0 0 1 16.142-10.728c11.77 0 14.8 8.158 17.711 16.2 1.457 3.911 2.915 7.823 5.381 10.169h-9.864a13.715 13.715 0 0 0 .224-2.235 13.471 13.471 0 0 0-13.452-13.406zm38.225 2.794c-.56 4.358-2.354 9.834-5.493 11.958a5.568 5.568 0 0 1-2.915.894h-.336a5.59 5.59 0 0 1-1.794-.335c-3.811-1.118-5.493-5.588-7.4-10.84-2.914-7.934-6.614-17.88-20.289-17.88h-44.612c-.9-5.252-2.242-10.5-3.475-15.645-2.69-10.728-5.156-21.01-2.354-24.586a4.751 4.751 0 0 1 3.923-1.564h79.476l-.224.223c-3.587 5.141-1.233 15.869 1.569 28.274 2.466 10.5 4.932 21.345 3.923 29.5zm-1.233-30.173c-2.578-11.287-4.932-22.015-2.018-26.15a4.479 4.479 0 0 1 3.139-1.788c7.062-.894 9.977 14.416 12.667 27.938 1.906 9.722 3.587 18.439 6.726 22.686h-16.478c-.448-7.041-2.242-14.976-4.035-22.687zm27.912 21.568a3.159 3.159 0 0 1-2.914 1.118c-4.148-.335-6.5-12.516-8.519-23.133-2.915-15.31-5.941-31.179-15.469-30.062h-58.067c-.448-2.347-.9-4.694-1.233-6.705-3.475-19.669-3.027-32.744 1.233-37.772a6.444 6.444 0 0 1 5.156-2.347h77.795c-.224.223-.336.447-.56.559-4.932 5.811-5.493 19.221-1.794 40.008.448 2.459 1.009 5.252 1.457 8.158 3.363 17.545 8.407 44.142 2.915 50.177zm1.906-39.225c-.673-3.688-1.345-7.6-2.13-11.511-.561-2.906-1.009-5.588-1.457-8.046-3.475-19.669-3.027-32.744 1.233-37.884a6.444 6.444 0 0 1 5.156-2.347c7.062 0 7.51 14.64 7.847 28.832.224 8.94.56 18.1 2.466 24.474v6.37h-13.115zm15.694 42.245v-66.384c0-9.5 4.6-15.087 8.407-17.992a22.216 22.216 0 0 1 3.14-2.012 57.566 57.566 0 0 0 12.779 3.129c-6.95 41.125-16.7 84.038-16.927 84.709a1.291 1.291 0 0 0 1.009 1.565l15.918 4.247 6.277 1.676a94.852 94.852 0 0 0-14.124 2.347c-5.156 1.341-8.183 2.906-9.192 4.694a20.628 20.628 0 0 1-7.286-15.981zm12.447 19.554c-.112-.112-1.121-.559-2.578-1.565-.112-.224-.224-.335-.224-.559 0-1.676 8.407-5.252 28.7-6.482l12.779 3.464 15.918 4.247h.336a1.623 1.623 0 0 0 .785-.224 1.333 1.333 0 0 0 .56-1.006c0-2.012.112-4.023.112-6.035 17.375 1.565 23.316 4.805 23.316 6.035a.965.965 0 0 1-.336.671 12.164 12.164 0 0 1-2.354 1.341.11.11 0 0 0-.112.112c-5.381 2.235-18.608 4.694-38.449 4.694-19.962.112-33.077-2.458-38.453-4.693zm89.224-19.554a20.886 20.886 0 0 1-7.286 16.092c-2.354-4.47-16.142-6.482-25.558-7.376a586.322 586.322 0 0 1 10.42-92.31 49.527 49.527 0 0 0 10.761-2.794c2.578 1.341 11.546 6.705 11.546 20V259.5z" transform="translate(-65.7 -118.8)"/>
        </g>
    </g>
</svg>
