<svg xmlns="http://www.w3.org/2000/svg" width="300" height="250" viewBox="0 0 300 250">
    <defs>
        <style>
            .cls-1,.cls-3{fill:#7ccfdd}.cls-1{opacity:.5}.cls-2{fill:#fff}
        </style>
    </defs>
    <g id="completed-parchment_touched" transform="translate(-78.6 -100.3)">
        <path id="path578" d="M78.6 220.4c0 168.367 288.209 174.539 288.209 9.875S78.6 52.037 78.6 220.4z" class="cls-1"/>
        <path id="path580" d="M347.626 122.1H167.54a42.2 42.2 0 0 0-18.574 4.191c-11.809 5.794-27.923 19.353-29.768 49.924-2.952 48.815-4.92 77.414-7.135 97.507C107.266 316.5 86.6 323.03 86.6 323.03h172.213a35.22 35.22 0 0 0 32.105-20.463c3.2-7.026 5.9-16.518 7.381-28.968 2.214-20.093 4.182-48.815 7.135-97.507.123-2.342.369-4.561.615-6.78v-.123h.123l-.123.123h46.744c15.5 0 22.265-12.327 22.265-22.189-.124-17.75-15.008-25.023-27.432-25.023z" class="cls-2" transform="translate(1.93 5.258)"/>
        <path id="path582" d="M278.181 143.9a22.727 22.727 0 0 0 11.543 20.6H264.9s2.358-14.274 4.841-19.611z" class="cls-3" transform="translate(42.767 10.192)"/>
        <path id="path584" d="M300.847 122.5s20.108 4.717 21.1 23.086c1.117 18.246-12.288 23.955-12.288 23.955s-18.494-3.1-18.494-18.246l-22.465-1.24c.124 0 7.323-23.831 32.147-27.555z" class="cls-3" transform="translate(43.247 5.355)"/>
        <g id="g588" transform="translate(112.609 137.403)">
            <path id="path586" d="M149.318 133.4c-10.3 5.05-22.962 16.383-24.576 41.634-2.979 49.025-4.965 77.725-7.2 97.927-1.986 17.491-6.454 29.809-11.543 38.432H255.69c22.218 0 13.9-44.591-49.152-27.715-72.238 19.339-64.667-37.939-38.974-66.639 49.9-55.676 28.92-86.841-3.848-86.841a30.761 30.761 0 0 0-14.4 3.2z" class="cls-3" transform="translate(-106 -130.193)"/>
        </g>
        <path id="path590" d="M193.6 157.005c0 17.5 34.381 30.534 34.381 1.862S193.6 139.5 193.6 157.005z" class="cls-3" transform="translate(26.352 9.379)"/>
        <g id="g614" transform="translate(87.141 125.869)">
            <path id="path592" d="M347.907 120.9H167.928a42.238 42.238 0 0 0-19.191 4.438C135.82 131.749 119.95 145.8 118.1 176.5c-2.952 48.943-4.921 77.422-7.135 97.517-4.552 41.176-24.358 48.08-24.481 48.08a1.374 1.374 0 0 0-.984 1.6 1.462 1.462 0 0 0 1.476 1.233h172.233a36.811 36.811 0 0 0 33.462-21.328c3.691-8.137 6.151-18 7.5-29.341 2.214-20.1 4.183-48.573 7.135-97.64.123-1.849.246-3.575.492-5.3H353.2c15.5 0 23.743-11.835 23.743-23.67-.246-18.369-15.132-26.752-29.033-26.752zm-50.93 152.994c-1.23 11.1-3.691 20.712-7.258 28.478a33.861 33.861 0 0 1-30.755 19.6H92.517c6.766-4.931 17.961-17.506 21.283-47.71 2.214-20.1 4.183-48.573 7.135-97.64 1.722-29.218 16.731-42.656 29.033-48.7a40.02 40.02 0 0 1 17.961-4.068H333.76a40.079 40.079 0 0 0-10.334 6.164c-11.564 9.493-17.961 25.026-19.314 46.354-2.952 49.072-4.921 77.55-7.135 97.522zm10.949-105.53a70.5 70.5 0 0 1 4.06-16.52l19.929 1.109c.492 6.411 4.675 12.082 10.334 15.41zm45.025 0c-10.7 0-18.207-8.876-18.207-16.89a1.479 1.479 0 0 0-1.353-1.479l-20.175-1.11c10.211-23.547 30.017-25.026 34.815-25.026 17.715 0 25.711 12.328 25.711 23.794 0 8.383-5.536 20.712-20.791 20.712z" transform="translate(-85.481 -120.9)"/>
            <path id="path594" d="M264.377 140a27.617 27.617 0 0 0-12.04 2.358 29.326 29.326 0 0 1-21.845 0 29.089 29.089 0 0 0-12.04-2.358 27.618 27.618 0 0 0-12.04 2.358 25.589 25.589 0 0 1-10.923 2.11 1.489 1.489 0 0 0 0 2.979 27.618 27.618 0 0 0 12.04-2.358 29.325 29.325 0 0 1 21.845 0 29.09 29.09 0 0 0 12.04 2.358 27.2 27.2 0 0 0 12.04-2.358 25.589 25.589 0 0 1 10.923-2.11 1.489 1.489 0 1 0 0-2.979z" transform="translate(-60.885 -116.293)"/>
            <path id="path596" d="M259.077 155.7a27.617 27.617 0 0 0-12.04 2.358 29.326 29.326 0 0 1-21.845 0 29.089 29.089 0 0 0-12.04-2.358 27.617 27.617 0 0 0-12.04 2.358 25.59 25.59 0 0 1-10.923 2.11 1.489 1.489 0 0 0 0 2.979 27.617 27.617 0 0 0 12.04-2.358 29.326 29.326 0 0 1 21.845 0 29.089 29.089 0 0 0 12.04 2.358 27.2 27.2 0 0 0 12.04-2.358 25.591 25.591 0 0 1 10.923-2.11 1.489 1.489 0 1 0 0-2.979z" transform="translate(-62.087 -112.809)"/>
            <path id="path598" d="M257.677 171.3a27.618 27.618 0 0 0-12.04 2.358 29.326 29.326 0 0 1-21.845 0 29.089 29.089 0 0 0-12.04-2.358 27.2 27.2 0 0 0-12.04 2.358 25.59 25.59 0 0 1-10.923 2.11 1.489 1.489 0 1 0 0 2.979 27.617 27.617 0 0 0 12.04-2.358 29.326 29.326 0 0 1 21.845 0 29.088 29.088 0 0 0 12.04 2.358 27.2 27.2 0 0 0 12.04-2.358 25.59 25.59 0 0 1 10.923-2.11 1.489 1.489 0 0 0 0-2.979z" transform="translate(-62.404 -109.181)"/>
            <path id="path600" d="M270.453 186.8a27.272 27.272 0 0 0-12.164 2.607 23.582 23.582 0 0 1-11.047 2.358 23.978 23.978 0 0 1-11.047-2.358 29.685 29.685 0 0 0-24.328 0 27.052 27.052 0 0 1-22.094 0 29.685 29.685 0 0 0-24.328 0 23.582 23.582 0 0 1-11.047 2.358 23.979 23.979 0 0 1-11.047-2.358 27.272 27.272 0 0 0-12.164-2.607 1.489 1.489 0 1 0 0 2.979 23.977 23.977 0 0 1 11.047 2.358 29.686 29.686 0 0 0 24.328 0 23.581 23.581 0 0 1 11.047-2.358 23.978 23.978 0 0 1 11.047 2.358 29.686 29.686 0 0 0 24.328 0 23.581 23.581 0 0 1 11.047-2.358 23.977 23.977 0 0 1 11.047 2.358 29.686 29.686 0 0 0 24.328 0 23.581 23.581 0 0 1 11.047-2.358 1.434 1.434 0 0 0 1.489-1.489 1.509 1.509 0 0 0-1.489-1.49z" transform="translate(-75.757 -105.579)"/>
            <path id="path602" d="M269.253 202.5a27.272 27.272 0 0 0-12.164 2.606 23.58 23.58 0 0 1-11.047 2.358A23.976 23.976 0 0 1 235 205.107a29.686 29.686 0 0 0-24.328 0 27.052 27.052 0 0 1-22.094 0 29.686 29.686 0 0 0-24.328 0 23.58 23.58 0 0 1-11.047 2.358 23.977 23.977 0 0 1-11.047-2.358 27.272 27.272 0 0 0-12.164-2.606 1.489 1.489 0 0 0 0 2.979 23.978 23.978 0 0 1 11.047 2.358 29.686 29.686 0 0 0 24.328 0 23.582 23.582 0 0 1 11.047-2.358 23.979 23.979 0 0 1 11.047 2.358 29.686 29.686 0 0 0 24.328 0 23.581 23.581 0 0 1 11.047-2.358 23.978 23.978 0 0 1 11.047 2.358 29.686 29.686 0 0 0 24.328 0 23.582 23.582 0 0 1 11.047-2.358 1.489 1.489 0 1 0 0-2.979z" transform="translate(-76.021 -101.929)"/>
            <path id="path604" d="M268.253 218.2a27.272 27.272 0 0 0-12.164 2.607 27.052 27.052 0 0 1-22.094 0 29.685 29.685 0 0 0-24.328 0 27.052 27.052 0 0 1-22.093 0 29.685 29.685 0 0 0-24.328 0 23.582 23.582 0 0 1-11.047 2.358 23.978 23.978 0 0 1-11.047-2.358 27.271 27.271 0 0 0-12.164-2.607 1.489 1.489 0 0 0 0 2.979 23.977 23.977 0 0 1 11.047 2.358 29.685 29.685 0 0 0 24.328 0 23.581 23.581 0 0 1 11.047-2.358 23.978 23.978 0 0 1 11.047 2.358 29.685 29.685 0 0 0 24.328 0 23.581 23.581 0 0 1 11.047-2.358 23.977 23.977 0 0 1 11.047 2.358 29.685 29.685 0 0 0 24.328 0 23.581 23.581 0 0 1 11.047-2.358 1.489 1.489 0 1 0 0-2.979z" transform="translate(-76.241 -98.279)"/>
            <path id="path606" d="M266.953 233.8a27.272 27.272 0 0 0-12.164 2.607 27.051 27.051 0 0 1-22.094 0 29.686 29.686 0 0 0-24.328 0 27.051 27.051 0 0 1-22.094 0 29.686 29.686 0 0 0-24.328 0 27.051 27.051 0 0 1-22.093 0 27.272 27.272 0 0 0-12.164-2.607 1.489 1.489 0 1 0 0 2.979 23.978 23.978 0 0 1 11.047 2.358 29.685 29.685 0 0 0 24.328 0 27.052 27.052 0 0 1 22.094 0 29.685 29.685 0 0 0 24.328 0 27.052 27.052 0 0 1 22.094 0 29.685 29.685 0 0 0 24.328 0 23.978 23.978 0 0 1 11.047-2.358 1.434 1.434 0 0 0 1.49-1.489 1.509 1.509 0 0 0-1.491-1.49z" transform="translate(-76.527 -94.652)"/>
            <path id="path608" d="M264.953 249.5a27.272 27.272 0 0 0-12.164 2.607 23.581 23.581 0 0 1-11.047 2.358 23.978 23.978 0 0 1-11.047-2.358 29.686 29.686 0 0 0-24.328 0 23.582 23.582 0 0 1-11.047 2.358 23.978 23.978 0 0 1-11.047-2.358 29.686 29.686 0 0 0-24.328 0 23.582 23.582 0 0 1-11.047 2.358 23.978 23.978 0 0 1-11.047-2.358 27.272 27.272 0 0 0-12.164-2.607 1.489 1.489 0 1 0 0 2.979 23.978 23.978 0 0 1 11.047 2.358 29.686 29.686 0 0 0 24.328 0 23.582 23.582 0 0 1 11.047-2.358 23.978 23.978 0 0 1 11.047 2.358 29.686 29.686 0 0 0 24.328 0 23.581 23.581 0 0 1 11.047-2.358 23.978 23.978 0 0 1 11.047 2.358 29.686 29.686 0 0 0 24.328 0 23.582 23.582 0 0 1 11.047-2.358 1.489 1.489 0 0 0 0-2.979z" transform="translate(-76.967 -91.002)"/>
            <path id="path610" d="M260.253 265.2a27.271 27.271 0 0 0-12.164 2.607 23.581 23.581 0 0 1-11.047 2.358A23.978 23.978 0 0 1 226 267.807a29.685 29.685 0 0 0-24.328 0 23.581 23.581 0 0 1-11.047 2.358 23.978 23.978 0 0 1-11.047-2.358 29.685 29.685 0 0 0-24.328 0 23.581 23.581 0 0 1-11.047 2.358 23.978 23.978 0 0 1-11.047-2.358 27.271 27.271 0 0 0-12.164-2.607 1.489 1.489 0 0 0 0 2.979 23.978 23.978 0 0 1 11.047 2.358 29.687 29.687 0 0 0 24.328 0 23.582 23.582 0 0 1 11.047-2.358 23.978 23.978 0 0 1 11.047 2.358 29.687 29.687 0 0 0 24.328 0 23.582 23.582 0 0 1 11.047-2.358 23.978 23.978 0 0 1 11.047 2.358 29.687 29.687 0 0 0 24.328 0 23.582 23.582 0 0 1 11.047-2.358 1.489 1.489 0 0 0 0-2.979z" transform="translate(-77.275 -87.481)"/>
            <path id="path612" d="M155.546 176.667h-5.213l6.206-9.433h14.522l.621 9.433h-5.337l-1.489 5.213h16.384l1.241-5.213h-4.592l-2.358-31.4H180l1.365-4.965h-19.241l-1.614 4.965h4.468l-20.852 31.4h-4.965l-1.861 5.213h16.508zm14.646-31.278h.124l.372 17h-11.17z" transform="translate(-73.655 -116.221)"/>
        </g>
    </g>
</svg>
