<?xml version="1.0" encoding="UTF-8" standalone="no"?>
<svg
   xmlns:dc="http://purl.org/dc/elements/1.1/"
   xmlns:cc="http://creativecommons.org/ns#"
   xmlns:rdf="http://www.w3.org/1999/02/22-rdf-syntax-ns#"
   xmlns:svg="http://www.w3.org/2000/svg"
   xmlns="http://www.w3.org/2000/svg"
   height="148.5"
   width="288.81372"
   xml:space="preserve"
   viewBox="0 0 288.81372 148.5"
   y="0px"
   x="0px"
   id="Layer_1"
   version="1.1"><metadata
   id="metadata3084"><rdf:RDF><cc:Work
       rdf:about=""><dc:format>image/svg+xml</dc:format><dc:type
         rdf:resource="http://purl.org/dc/dcmitype/StillImage" /><dc:title></dc:title></cc:Work></rdf:RDF></metadata><defs
   id="defs3082" />

<style
   id="style5"
   type="text/css">
	.st0{opacity:0.5;fill:#7CCFDD;}
	.st1{fill:#FFFFFF;}
	.st2{fill:#7CCFDD;}
</style>

<g
   transform="translate(-54.393139,-91.3)"
   id="g3077">
	
	
	
	<path
   style="fill:#ffffff"
   id="path2979"
   d="m 70.9,185.4 c 0,0 6.2,7.3 22.3,0.6 16.1,-6.7 27,-18.1 28.6,-18.5 1.7,-0.4 12.4,10.7 16.1,10.6 3.7,-0.1 1.9,-11.9 3.7,-11.9 1.8,0 18.2,11.3 18.2,11.3 l -37.9,50.2 c 0,0 14.6,-0.6 27.5,-18.4 12.9,-17.8 23.3,-40.9 29.2,-40.9 5.6,0 2.4,13.2 6.5,13.2 4.1,0 6,-19.1 9.4,-19.1 3.4,0 4.2,17.7 10.4,17.7 6.4,0 5.3,-14.9 11.8,-15.4 3.8,-0.3 24,26.6 27.5,24.2 3.8,-2.5 1.5,-12.7 5.1,-12 0,0 7.8,-0.6 9.8,-5.6 2.1,-5 5.3,7.6 9.4,7.6 4.1,0 3.2,12.3 10.9,12.3 l 0.6,-7.2 -7.7,-15.8 c 0,0 8,2.6 12.6,10.6 4.6,8 7.2,-1.5 12.5,3.7 5.2,5.2 21.6,4.2 21.6,4.2 l -19.5,-8.8 -36.6,-28.7 -30.1,18.2 c 0,0 -14.4,-12.3 -15.3,-19.9 0,0 -19.9,-14.7 -24.3,-15.1 -4.4,-0.4 -31,41.8 -31,41.8 L 125.7,147.2 107,169 Z"
   class="st1" />
	
	
	
	
	
	
	
	
	
	
	
	
	<path
   style="fill:#7ccfdd"
   id="path3005"
   d="m 126,148.7 10.8,36.5 -29.8,24.5 c 0,0 2.8,2.8 8.9,0 6.1,-2.8 12.9,-4.3 15.4,1.2 l -4.5,-12.4 c 0,0 7.8,-6.8 13.6,-8.3 5.8,-1.5 7.3,-14.9 17.7,-10.5 l 4.1,-5.4 c 0,0 -21.5,-13.3 -23.8,-13.3 -2.3,0 2.6,11.3 0.6,11.3 -2,0 -13,-23.6 -13,-23.6 z"
   class="st2" />
	<path
   style="fill:#7ccfdd"
   id="path3007"
   d="m 121.9,174.9 c 2.2,0 6.8,6.2 6.8,7.9 0,3.1 -29.8,22.2 -31.2,19.9 -1.4,-2.3 20.6,-27.8 24.4,-27.8 z"
   class="st2" />
	<path
   style="fill:#7ccfdd"
   id="path3009"
   d="m 85.4,203.7 c -3.4,-4.1 -4.5,-13 -5.9,-13 -1.4,0 -2.6,8.9 -5.9,13 -1.5,1.8 3.9,1.2 5.9,-1 2,2.2 7.4,2.8 5.9,1 z"
   class="st2" />
	<path
   style="fill:#7ccfdd"
   id="path3011"
   d="m 86.1,210.2 c -3.8,-4.6 -5,-14.5 -6.6,-14.5 -1.6,0 -2.9,9.9 -6.6,14.5 -1.7,2 4.3,1.3 6.6,-1.1 2.3,2.4 8.3,3.1 6.6,1.1 z"
   class="st2" />
	<path
   style="fill:#7ccfdd"
   id="path3013"
   d="m 86.8,217.2 c -4.1,-5 -5.5,-15.9 -7.3,-15.9 -1.8,0 -3.1,10.8 -7.3,15.9 -1.8,2.2 4.8,1.4 7.3,-1.2 2.5,2.6 9.1,3.5 7.3,1.2 z"
   class="st2" />
	<path
   style="fill:#7ccfdd"
   id="path3015"
   d="m 68,208.3 c -3.4,-4.1 -4.5,-13 -5.9,-13 -1.4,0 -2.6,8.9 -5.9,13 -1.5,1.8 3.9,1.2 5.9,-1 2,2.1 7.4,2.8 5.9,1 z"
   class="st2" />
	<path
   style="fill:#7ccfdd"
   id="path3017"
   d="m 68.7,214.7 c -3.8,-4.6 -5,-14.5 -6.6,-14.5 -1.6,0 -2.9,9.9 -6.6,14.5 -1.7,2 4.3,1.3 6.6,-1.1 2.3,2.5 8.3,3.2 6.6,1.1 z"
   class="st2" />
	<path
   style="fill:#7ccfdd"
   id="path3019"
   d="m 69.3,221.8 c -4.1,-5 -5.5,-15.9 -7.3,-15.9 -1.8,0 -3.1,10.8 -7.3,15.9 -1.8,2.2 4.8,1.4 7.3,-1.2 2.6,2.6 9.2,3.4 7.3,1.2 z"
   class="st2" />
	<path
   style="fill:#7ccfdd"
   id="path3021"
   d="m 87.3,224.4 c -4.4,-5.4 -5.9,-17 -7.8,-17 -1.9,0 -3.4,11.6 -7.8,17 -2,2.4 5.1,1.5 7.8,-1.3 2.7,2.9 9.7,3.7 7.8,1.3 z"
   class="st2" />
	<path
   style="fill:#7ccfdd"
   id="path3023"
   d="m 312.2,206.8 c 3.4,-4.1 4.5,-13 5.9,-13 1.4,0 2.6,8.9 5.9,13 1.5,1.8 -3.9,1.2 -5.9,-1 -2,2.1 -7.4,2.8 -5.9,1 z"
   class="st2" />
	<path
   style="fill:#7ccfdd"
   id="path3025"
   d="m 311.5,213.2 c 3.8,-4.6 5,-14.5 6.6,-14.5 1.6,0 2.9,9.9 6.6,14.5 1.7,2 -4.3,1.3 -6.6,-1.1 -2.2,2.5 -8.3,3.2 -6.6,1.1 z"
   class="st2" />
	<path
   style="fill:#7ccfdd"
   id="path3027"
   d="m 310.9,220.3 c 4.1,-5 5.5,-15.9 7.3,-15.9 1.8,0 3.1,10.8 7.3,15.9 1.8,2.2 -4.8,1.4 -7.3,-1.2 -2.6,2.6 -9.1,3.4 -7.3,1.2 z"
   class="st2" />
	<path
   style="fill:#7ccfdd"
   id="path3029"
   d="m 329.6,211.4 c 3.4,-4.1 4.5,-13 5.9,-13 1.4,0 2.6,8.9 5.9,13 1.5,1.8 -3.9,1.2 -5.9,-1 -2,2.1 -7.4,2.8 -5.9,1 z"
   class="st2" />
	<path
   style="fill:#7ccfdd"
   id="path3031"
   d="m 328.9,217.8 c 3.8,-4.6 5,-14.5 6.6,-14.5 1.6,0 2.9,9.9 6.6,14.5 1.7,2 -4.3,1.3 -6.6,-1.1 -2.2,2.4 -8.3,3.2 -6.6,1.1 z"
   class="st2" />
	<path
   style="fill:#7ccfdd"
   id="path3033"
   d="m 328.3,224.9 c 4.1,-5 5.5,-15.9 7.3,-15.9 1.8,0 3.1,10.8 7.3,15.9 1.8,2.2 -4.8,1.4 -7.3,-1.2 -2.5,2.6 -9.1,3.4 -7.3,1.2 z"
   class="st2" />
	<path
   style="fill:#7ccfdd"
   id="path3035"
   d="m 91.5,220.8 c 3.4,-4.1 4.5,-13 5.9,-13 1.4,0 2.6,8.9 5.9,13 1.5,1.8 -3.9,1.2 -5.9,-1 -2,2.2 -7.4,2.9 -5.9,1 z"
   class="st2" />
	<path
   style="fill:#7ccfdd"
   id="path3037"
   d="m 90.8,227.3 c 3.8,-4.6 5,-14.5 6.6,-14.5 1.6,0 2.9,9.9 6.6,14.5 1.7,2 -4.3,1.3 -6.6,-1.1 -2.3,2.4 -8.3,3.2 -6.6,1.1 z"
   class="st2" />
	<path
   style="fill:#7ccfdd"
   id="path3039"
   d="m 90.2,234.4 c 4.1,-5 5.5,-15.9 7.3,-15.9 1.8,0 3.1,10.8 7.3,15.9 1.8,2.2 -4.8,1.4 -7.3,-1.2 -2.6,2.6 -9.2,3.4 -7.3,1.2 z"
   class="st2" />
	<path
   style="fill:#7ccfdd"
   id="path3041"
   d="m 294.2,221.7 c 3.4,-4.1 4.5,-13 5.9,-13 1.4,0 2.6,8.9 5.9,13 1.5,1.8 -3.9,1.2 -5.9,-1 -2,2.1 -7.4,2.8 -5.9,1 z"
   class="st2" />
	<path
   style="fill:#7ccfdd"
   id="path3043"
   d="m 293.5,228.2 c 3.8,-4.6 5,-14.5 6.6,-14.5 1.6,0 2.9,9.9 6.6,14.5 1.7,2 -4.3,1.3 -6.6,-1.1 -2.2,2.4 -8.3,3.1 -6.6,1.1 z"
   class="st2" />
	<path
   style="fill:#7ccfdd"
   id="path3045"
   d="m 292.9,235.2 c 4.1,-5 5.5,-15.9 7.3,-15.9 1.8,0 3.1,10.8 7.3,15.9 1.8,2.2 -4.8,1.4 -7.3,-1.2 -2.6,2.6 -9.2,3.4 -7.3,1.2 z"
   class="st2" />
	<path
   style="fill:#7ccfdd"
   id="path3047"
   d="m 310.4,227.5 c 4.4,-5.4 5.9,-17 7.8,-17 1.9,0 3.4,11.6 7.8,17 2,2.4 -5.1,1.5 -7.8,-1.3 -2.7,2.8 -9.8,3.7 -7.8,1.3 z"
   class="st2" />
	<path
   style="fill:#7ccfdd"
   id="path3049"
   d="m 257.4,178.9 c 0,0 18.1,18.5 21.5,18.8 l -0.9,11.5 z"
   class="st2" />
	<path
   style="fill:#7ccfdd"
   id="path3051"
   d="m 262.8,149.3 17.3,34.8 -0.6,7.2 18.7,8.7 c 0,0 -10.5,-8.5 -10.5,-14.1 0,-5.6 -9.4,-14.6 -4.3,-14.6 5.1,0 -2.8,-8.4 -2.8,-8.4 z"
   class="st2" />
	<polygon
   style="fill:#7ccfdd"
   id="polygon3053"
   points="193.2,108.1 193.2,92.5 217.8,92.5 209.9,100.4 217.6,108.1 "
   class="st2" />
	<path
   style="fill:#7ccfdd"
   id="path3055"
   d="m 193.1,153.7 c -5,2.5 14.5,23.6 6,37.6 -4.6,7.5 9.1,9.5 23.8,4.4 14.7,-5.1 13.1,13.4 23.4,13.4 5.7,0 -0.8,-15.6 4.2,-15.6 5,0 6.5,42.2 14.1,42.2 7.6,0 2.9,-35.4 24.9,-9.7 l -32,-47 c 0,0 -11,-2.7 -14.4,-4.3 C 221,164.5 214.3,153 211.8,153 c -3.2,0 1.6,11.7 -3.3,11.7 -4.9,0 -12.4,-12.6 -15.4,-11 z"
   class="st2" />
	<path
   style="fill:#7ccfdd"
   id="path3057"
   d="m 175.2,180.4 c -5.4,0 -16.5,25.7 -15,27.8 1.6,2.2 20.2,-4 20.2,-9.6 0,-3.4 -1,-18.2 -5.2,-18.2 z"
   class="st2" />
	<g
   id="g3075">
		
		<path
   id="path3061"
   d="m 337.5,192.8 c -11.5,-4.4 -34.2,-13.4 -37.8,-16.1 -4.6,-3.5 -35.9,-28.8 -36.2,-29 -0.1,-0.1 -0.2,-0.1 -0.3,-0.2 0,0 -0.1,0 -0.1,0 -0.1,0 -0.3,-0.1 -0.4,-0.1 0,0 -0.1,0 -0.1,0 -0.1,0 -0.2,0 -0.3,0.1 0,0 0,0 0,0 0,0 -0.1,0.1 -0.1,0.1 -0.1,0 -0.1,0.1 -0.2,0.1 -4.6,4.3 -27.4,17.4 -29.7,18.7 -5.3,-4.8 -9.9,-11.2 -13.8,-19.3 -0.1,-0.2 -0.2,-0.3 -0.4,-0.5 -15.5,-11.2 -21.3,-14.4 -23.8,-15.1 v -39 c 0,-0.7 -0.5,-1.2 -1.2,-1.2 -0.7,0 -1.2,0.5 -1.2,1.2 V 132 c -3.7,3.8 -18.9,25.3 -25.6,34.8 l -4.3,5.7 c -9.4,-9.1 -34.9,-26.5 -36,-27.3 0,0 0,0 -0.1,0 -0.1,0 -0.1,-0.1 -0.2,-0.1 -0.1,0 -0.1,-0.1 -0.2,-0.1 -0.1,0 -0.1,0 -0.2,0 -0.1,0 -0.2,0 -0.3,0 0,0 -0.1,0 -0.1,0 0,0 -0.1,0 -0.1,0.1 -0.1,0 -0.2,0.1 -0.2,0.1 -0.1,0 -0.1,0.1 -0.2,0.1 0,0 -0.1,0 -0.1,0.1 l -18.7,23.2 -36.5,16.1 c -0.6,0.3 -0.9,1 -0.6,1.6 0.2,0.4 0.6,0.7 1.1,0.7 0.2,0 0.3,0 0.5,-0.1 l 36.8,-16.2 c 0.2,-0.1 0.3,-0.2 0.4,-0.3 l 17.4,-21.6 10.6,35.9 -29.2,24.1 c -0.5,0.4 -0.6,1.2 -0.2,1.7 0.2,0.3 0.6,0.4 0.9,0.4 0.3,0 0.5,-0.1 0.8,-0.3 l 16.7,-13.7 6.6,16.6 -9.9,13.4 c -0.4,0.5 -0.3,1.3 0.2,1.7 0.2,0.2 0.5,0.2 0.7,0.2 0.4,0 0.7,-0.2 1,-0.5 l 45.4,-60.1 c 8.7,-12.4 23.1,-32.4 25.3,-34.5 2.3,0.5 13.2,7.7 22.9,14.7 9,18.8 22.4,29.1 39.6,30.7 l 32.3,47.5 c 0.4,0.5 1.1,0.7 1.7,0.3 0.5,-0.4 0.7,-1.1 0.3,-1.7 l -11.1,-16.4 1.3,-15.8 26.1,12.2 c 0.2,0.1 0.3,0.1 0.5,0.1 0.5,0 0.9,-0.3 1.1,-0.7 0.3,-0.6 0,-1.3 -0.6,-1.6 l -26.9,-12.6 0.5,-6.3 c 0,-0.2 0,-0.4 -0.1,-0.6 l -15,-30.5 c 8.8,7.1 28.4,22.9 32.1,25.7 4.7,3.6 37,15.9 38.4,16.4 0.1,0.1 0.3,0.1 0.4,0.1 0.5,0 0.9,-0.3 1.1,-0.8 0.2,-0.6 -0.1,-1.3 -0.7,-1.6 z m -211.1,2.5 11.2,-9.2 c 0.4,-0.3 0.5,-0.8 0.4,-1.3 l -10.5,-35.6 c 7.1,4.9 25.8,18.1 33.1,25.3 l -27.8,36.8 z m 150.7,10.4 -19.3,-28.4 c -0.2,-0.3 -0.5,-0.5 -0.9,-0.5 -8.7,-0.7 -16.2,-3.6 -22.6,-8.7 4.4,-2.5 22,-12.7 28.1,-17.5 l 16.4,33.8 z" />
		<path
   id="path3063"
   d="m 62.1,213.7 c -0.7,0 -1.2,0.5 -1.2,1.2 v 10.9 c 0,0.7 0.5,1.2 1.2,1.2 0.7,0 1.2,-0.5 1.2,-1.2 v -10.9 c 0,-0.7 -0.6,-1.2 -1.2,-1.2 z" />
		<path
   id="path3065"
   d="m 79.5,216.4 c -0.7,0 -1.2,0.5 -1.2,1.2 v 10.9 c 0,0.7 0.5,1.2 1.2,1.2 0.7,0 1.2,-0.5 1.2,-1.2 v -10.9 c 0,-0.6 -0.6,-1.2 -1.2,-1.2 z" />
		<path
   id="path3067"
   d="m 97.5,225.7 c -0.7,0 -1.2,0.5 -1.2,1.2 v 10.9 c 0,0.7 0.5,1.2 1.2,1.2 0.7,0 1.2,-0.5 1.2,-1.2 v -10.9 c 0,-0.7 -0.6,-1.2 -1.2,-1.2 z" />
		<path
   id="path3069"
   d="m 300.1,226.5 c -0.7,0 -1.2,0.5 -1.2,1.2 v 10.9 c 0,0.7 0.5,1.2 1.2,1.2 0.7,0 1.2,-0.5 1.2,-1.2 v -10.9 c 0,-0.7 -0.5,-1.2 -1.2,-1.2 z" />
		<path
   id="path3071"
   d="m 317.9,220.5 c -0.7,0 -1.2,0.5 -1.2,1.2 v 10.9 c 0,0.7 0.5,1.2 1.2,1.2 0.7,0 1.2,-0.5 1.2,-1.2 v -10.9 c 0,-0.6 -0.6,-1.2 -1.2,-1.2 z" />
		<path
   id="path3073"
   d="m 335.6,217.7 c -0.7,0 -1.2,0.5 -1.2,1.2 v 10.9 c 0,0.7 0.5,1.2 1.2,1.2 0.7,0 1.2,-0.5 1.2,-1.2 v -10.9 c 0,-0.7 -0.6,-1.2 -1.2,-1.2 z" />
	</g>
</g>
</svg>