<svg xmlns="http://www.w3.org/2000/svg" width="500" height="378" viewBox="0 0 500 378">
    <defs>
        <style>
            .cls-1,.cls-4{fill:#e86060}.cls-1{opacity:.5}.cls-2,.cls-3{fill:#fff}.cls-2{opacity:.56}
        </style>
    </defs>
    <g id="intellectual-property-is-broken_touched" transform="translate(-79.115 -60.885)">
        <path id="path1550" d="M623.938 124.442c70.58 162.42-237.742 244.618-296.7 110.493-51.852-118.08 232.522-258.054 296.7-110.493z" class="cls-1" transform="translate(-55.26)"/>
        <path id="path1552" d="M399.374 425.537c-4.742 92.157 164.949 94.133 148.115 4.505s-144.716-69.947-148.115-4.505z" class="cls-1" transform="translate(-70.367 -62.369)"/>
        <path id="path1554" d="M411.926 219.833c34.855 173.451-203.756 306.385-313.459 44.258s281.37-203.859 313.459-44.258z" class="cls-1" transform="translate(0 -4.798)"/>
        <path id="path1556" d="M237.933 382.111c-6.481 13.278 6.955 48.607-46.632 24.5-9.01-4.031-17.309-2.608-24.5 1.344a203.623 203.623 0 0 0 29.718 28.927h116.42c-21.419-41.176-62.993-79.667-75.006-54.771z" class="cls-2" transform="translate(-18.382 -63.848)"/>
        <path id="path1558" d="M561.781 455.894a19.076 19.076 0 0 0-9.959 1.739c-39.6 17.862-29.718-8.3-34.46-18.178-9.01-18.415-39.755 10.038-55.563 40.546h93.737a49.164 49.164 0 0 0 6.244-24.106z" class="cls-2" transform="translate(-83.635 -75.813)"/>
        <path id="path1560" d="M682.892 257.826c-16.914 2.845-11.776-13.594-15.1-20.55-7.667-15.807-34.144 8.694-47.9 34.934h52.954a117.47 117.47 0 0 0 10.038-14.385z" class="cls-2" transform="translate(-117.93 -34.993)"/>
        <path id="path1562" d="M383.7 161.312h159.022s-19.6-26.477-46.394-18.574c-49.635 14.78-37.226-6.876-43.154-15.017-11.066-15.253-49.557 8.379-69.474 33.591z" class="cls-2" transform="translate(-67.03 -13.001)"/>
        <path id="path1564" d="M468.2 196.336H318.9s18.415-28.058 43.549-19.6c46.552 15.649 34.934-7.271 40.546-15.886 10.433-16.125 46.552 8.85 65.205 35.486z" class="cls-2" transform="translate(-52.701 -19.367)"/>
        <path id="path1566" d="M87.726 256H173.4c-75.954-107.016-50.5-9.405-90.1-18.178 1.107 5.846 2.608 11.853 4.426 18.178z" class="cls-2" transform="translate(-.877 -29.492)"/>
        <path id="path1568" d="M624.832 77.6c-3.794 7.667-8.694 14.543-19.917 9.722-32.168-13.674-59.515 15.491-59.515 15.491h110.414A94.606 94.606 0 0 0 624.832 77.6z" class="cls-2" transform="translate(-102.312 -3.504)"/>
        <path id="path1570" d="M171.782 306.258c-1.818 3.161-3.082 5.374-3.082 5.374l3.952 8.536 34.223 22.209 34.225-22.208 3.952-8.536-15.252-26.557-22.925-11.776-23 11.776s-7.667 13.436-12.093 21.182z" class="cls-3" transform="translate(-18.78 -43.255)"/>
        <path id="path1572" d="M227.432 150.1c7.034 7.113 11.855 6.244 32.168 1.265 16.2-4.031 20.075 14.306 23.79 29.4 4.979 20.233 8.773 30.666 12.172 33.907-3.636.948-8.615-.79-11.618-5.928l.079.237s-6.244 1.265-9.484-5.77c-3.32.79-6.481-1.107-8.378-4.663-3.636.869-7.667-1.107-9.563-5.612 0 0-7.034 1.9-9.8-7.113a8.294 8.294 0 0 1-8.931-5.928s-7.588.158-9.642-8.22c-1.66-6.876 1.5-9.8.474-14.227l-1.265-3.161c-1.423-3 0-4.189 0-4.189z" class="cls-3" transform="translate(-32.182 -18.175)"/>
        <path id="path1574" d="M557.782 384.258c-1.818 3.161-3.082 5.374-3.082 5.374l3.952 8.536 34.223 22.209 34.225-22.208 3.952-8.536-15.252-26.557-22.925-11.776-22.921 11.776s-7.746 13.436-12.172 21.182z" class="cls-3" transform="translate(-104.261 -59.139)"/>
        <path id="path1576" d="M360.682 480.958c-1.818 3.161-3.082 5.374-3.082 5.374l3.952 8.536 34.223 22.209L430 494.869l3.952-8.536-15.252-26.557L395.775 448l-23 11.776c.079.079-7.667 13.436-12.093 21.182z" class="cls-3" transform="translate(-60.725 -78.826)"/>
        <path id="path1578" d="M91.6 114.932s2.055.79 7.983-1.186 31.93-13.831 37.147-15.886c5.137-2.055 20.866-6.323 25.45 2.924s11.381 27.426 22.525 26.714c0 0-1.186 2.687-6.165 2.845 0 0-9.88 11.223-16.123 11.223s-7.667-3.478-7.667-3.478-6.323 2.134-9.8-3.082c0 0-7.35 3-11.46-3 0 0-8.3 1.66-10.828-4.347 0 0-6.323.711-8.773-3.794 0 0-8.141.948-10.512-3.557-.001.077-9.564-.16-11.777-5.376z" class="cls-3" transform="translate(-2.617 -7.166)"/>
        <path id="path1580" d="M278.4 381.138s2.371-.869 6.086-6.955c3.636-6.086 17.546-35.883 20.47-41.573s13.436-21.1 24.343-16.44 30.429 15.412 39.518 6.481c0 0 .948 3.241-3.241 7.113 0 0-.158 17.151-5.612 21.814s-9.326 2.687-9.326 2.687-4.9 6.244-9.8 4.9c0 0-7.746 7.588-13.357 5.691 0 0-7.746 6.718-12.646 4.268 0 0-4.979 5.3-10.433 3.241 0 0-6.4 6.955-11.855 4.821.158-.079-8.378 6.876-14.148 3.952z" class="cls-3" transform="translate(-43.513 -51.821)"/>
        <path id="path1582" d="M520.911 291.653s-2.45.711-9.01-1.976-35.566-18.178-41.336-21.024c-5.77-2.766-23.395-8.852-29.323 1.423S426.146 300.663 413.5 299c0 0 1.186 3.161 6.8 3.794 0 0 10.433 13.594 17.625 14.068 7.113.474 9.089-3.4 9.089-3.4s7.667 2.055 10.749-1.976c0 0 10.749 1.344 14.069-3.4 0 0 10.2.711 12.725-4.189 0 0 7.192 1.265 10.275-3.636 0 0 9.326 1.739 12.33-3.24-.162.006 10.824.479 13.749-5.368z" class="cls-3" transform="translate(-73.135 -41.491)"/>
        <path id="path1584" d="M242.3 101.867s-20.55-19.759-27.742-11.144c0 0-5.691 21.656-14.622 35.408 0 0-1.739 1.5-4.347 6.244-1.423 2.529-30.429 30.192-30.429 30.192-2.45 2.529 3.794 13.357 12.725 17.309l3.636-2.213.79 4.031s9.563 2.529 10.907-1.423c1.265-3.952 11.144-30.745 16.993-37.147a8.349 8.349 0 0 0 6.56-5.058 3.291 3.291 0 0 0-.158-3.082s15.886-18.416 25.766-23.553c0 0 .948-2.924-2.845-6.876z" class="cls-3" transform="translate(-17.925 -5.799)"/>
        <path id="path1586" d="M346.8 266.487s18.653-21.656 34.381-10.354c0 0 12.251 21.893 18.178 40.467 0 0 2.055 1.66 5.3 7.034 10.591 6.955 36.357 33.907 36.357 33.907 3 2.766-3.873 15.649-14.069 20.549l-5.058 2.213s-10.512 3.082-12.646-1.265c-7.983-15.807-15.965-29.323-20.945-42.364a9.843 9.843 0 0 1-7.825-5.612 3.844 3.844 0 0 1 .079-3.557s-17.7-13.12-30.666-26.319c0 0-3.161-2.924 2.292-9.326z" class="cls-3" transform="translate(-58.472 -38.925)"/>
        <path id="path1588" d="M606.719 159.619l3.161-2.845A80.851 80.851 0 0 0 597 148.87c.316-.4.632-.869.948-1.265 8.3-11.065 5.533-19.68-8.141-29.876-5.137-3.794-30.745-23.158-36.12-28.374-5.058-4.9-5.928-6.955-5.928-6.955-5.533 6.56 1.186 14.78 1.186 14.78-3.32 5.137 1.976 11.776 1.976 11.776-3.24 5.216 1.66 11.46 1.66 11.46-4.584 5.454 1.9 11.539 1.9 11.539-4.426 6.718 3.557 13.2 3.557 13.2-3.24 7.746 2.529 11.539 2.529 11.539s-2.371 6.165 1.581 10.828c3.478 4.189 7.508 5.691 11.144 6.876a83.535 83.535 0 0 1-5.058 13.515l-.711.948c-11.3.4-16.281-15.491-21.261-25.924-5.137-10.591-13.91-12.962-28.69-6.56-5.533 2.371-34.144 13.831-40.309 16.282-6.244 2.45-8.457 1.581-8.457 1.581 2.45 6.007 12.646 6.007 12.646 6.007 2.608 5.137 11.381 3.794 11.381 3.794 2.766 5.058 9.405 4.11 9.405 4.11 2.055 5.058 11.618 4.821 11.618 4.821 3.4 6.8 11.539 3.241 11.539 3.241a9.493 9.493 0 0 0 11.381 3.32s2.924 5.454 8.615 4.426c9.643-1.66 12.567-10.986 18.1-11.935a13.243 13.243 0 0 0 2.766-.79 43.6 43.6 0 0 0-1.9 4.11c-1.186 3-27.663 35.8-27.663 35.8-2.371 3.082 4.742 15.017 14.938 18.1l3.636-2.924 1.423 4.268s10.749 1.423 11.618-3 7.9-34.776 13.357-42.522a9.348 9.348 0 0 0 6.481-6.4 3.559 3.559 0 0 0-.632-3.32s13.436-21.182 23.474-28.137c-.158.158.4-3.873-4.268-7.588z" class="cls-3" transform="translate(-86.254 -4.51)"/>
        <path id="path1590" d="M374.474 278.6s-9.88 6.955.948 19.522 12.488 14.385 12.488 14.385-2.687 2.529-5.137 1.818c0 0-18.02-13.831-31.773-27.584.079 0 4.505 4.821 23.474-8.141z" class="cls-4" transform="translate(-59.093 -44.462)"/>
        <circle id="circle54" cx="3.873" cy="3.873" r="3.873" class="cls-4" transform="translate(332.047 266.101)"/>
        <path id="path1593" d="M349.4 269.155s17.546-18.416 29.085-12.014c2.529 1.423 3.241 6.876 3.241 6.876l-3.241 5.533-4.268 4.268s-7.667 4.979-10.354 6.165l-1.9-1.66s13.989-6.4 16.44-14.068l-2.845-4.742s-2.845 12.567-16.123 15.1l3.794 5.612s-7.271 3.715-10.907 2.45c-3.715-1.265 12.962-20.629 23.237-23.237 0 0-7.113-5.928-22.446 13.278z" class="cls-4" transform="translate(-58.725 -39.83)"/>
        <path id="path1595" d="M403.563 328.433a1.956 1.956 0 0 1 .316.474c2.529-1.581 8.773-5.928 12.251-10.907l2.055 2.055s-14.069 8.615-5.691 21.024c3.241 4.663 6.876 10.117 10.117 15.1 6.955 10.749 23.711 8.457 23.711 8.457a28.225 28.225 0 0 1-8.773 6.481l-4.979 2.213s-9.8 3.952-12.567-1.186c-12.646-23.948-21.1-42.443-21.1-42.443z" class="cls-4" transform="translate(-69.56 -52.417)"/>
        <path id="path1597" d="M520.79 290.9s-7.508.632-30.587-11.855c-23-12.567-41.494-24.106-50.741-7.113s-13.91 26.793-26.161 26.714c0 0 10.986 7.825 22.842-15.491 12.33-24.264 14.78-20.154 52.164.158 19.916 10.831 24.579 12.332 32.483 7.587z" class="cls-4" transform="translate(-73.092 -41.354)"/>
        <path id="path1599" d="M514.878 298.119s-6.8-2.371-27.663-14.306-30.271-15.728-36.515-4.742c0 0 5.216-9.089 33.907 8.536 28.611 17.625 30.271 10.512 30.271 10.512z" class="cls-4" transform="translate(-80.94 -43.257)"/>
        <path id="path1601" d="M502.208 303.408s-4.979 3.4-12.8-2.055c-7.9-5.454-28.532-17.783-40.7-16.993 0 0 .4-10.275 23.711 2.45 23.308 12.647 29.789 16.598 29.789 16.598z" class="cls-4" transform="translate(-80.432 -44.878)"/>
        <path id="path1603" d="M490.627 308.746a9.458 9.458 0 0 1-9.168-.079c-5.058-2.687-27.426-17.941-37.859-15.886 0 0 .079-9.721 24.106 3.4 14.78 7.983 22.921 12.567 22.921 12.567z" class="cls-4" transform="translate(-79.281 -46.704)"/>
        <path id="path1605" d="M477.2 314.3s-8.536-4.505-16.993-10.038-17.862-9.721-22.6-3.4c0 0 4.426-3 20.787 7.35 10.67 6.718 16.123 8.931 18.811 6.086z" class="cls-4" transform="translate(-77.931 -48.425)"/>
        <path id="path1607" d="M462.073 318.94s-10.907-6.4-13.515-7.746c-2.529-1.344-12.172-7.746-18.257-2.529 0 0 7.034.237 15.965 6.481s13.752 6.086 15.807 3.794z" class="cls-4" transform="translate(-76.299 -50.272)"/>
        <path id="path1609" d="M448.4 322.98s-7.194 2.845-13.6-1.98-9.405-8.062-12.8-8.536c-.079 0 4.742-5.374 26.4 10.512z" class="cls-4" transform="translate(-74.466 -51.288)"/>
        <path id="path1611" d="M277.8 380.811s6.4-4.031 17.151-27.9c10.828-23.869 18.574-44.26 36.2-36.278s27.268 12.962 36.989 5.454c0 0-4.031 12.883-27.584 1.423-24.5-11.855-23.948-7.113-41.415 31.615-9.327 20.706-12.173 24.658-21.341 25.686z" class="cls-4" transform="translate(-43.381 -51.736)"/>
        <path id="path1613" d="M295.7 378.423s3.952-6.007 13.357-28.137c9.405-22.051 14.622-30.824 26.24-25.845 0 0-9.642-4.11-21.893 27.347-12.092 31.377-17.704 26.635-17.704 26.635z" class="cls-4" transform="translate(-47.083 -53.46)"/>
        <path id="path1615" d="M310.8 374.447s6.007-.316 9.01-9.405 12.014-31.378 22.209-38.175c0 0-6.481-7.983-17.467 16.282-10.907 24.264-13.752 31.3-13.752 31.3z" class="cls-4" transform="translate(-50.334 -54.006)"/>
        <path id="path1617" d="M324.1 371.8a9.392 9.392 0 0 0 7.271-5.612c2.371-5.216 10.986-30.824 20.629-35.487 0 0-5.928-7.746-17.23 17.23-6.955 15.252-10.67 23.869-10.67 23.869z" class="cls-4" transform="translate(-53.211 -54.842)"/>
        <path id="path1619" d="M339.2 368.234s4.11-8.773 7.508-18.257 8.378-18.495 15.965-16.361c0 0-5.374.316-12.093 18.415-4.505 11.776-7.508 16.835-11.381 16.2z" class="cls-4" transform="translate(-56.472 -55.637)"/>
        <path id="path1621" d="M355.1 362.643s4.821-11.7 6.086-14.306c1.186-2.608 4.979-13.515 12.962-13.041 0 0-5.533 4.426-8.773 14.78-3.32 10.354-7.275 13.124-10.275 12.567z" class="cls-4" transform="translate(-59.906 -56.074)"/>
        <path id="path1623" d="M369.4 357.34s7.508-2.055 9.721-9.8c2.213-7.667 2.608-12.172 5.058-14.543 0 0-7.113-1.423-14.78 24.343z" class="cls-4" transform="translate(-62.991 -55.617)"/>
        <path id="path1625" d="M233.828 109.4s8.773 5.77-.316 16.993S223 139.276 223 139.276s2.371 2.134 4.505 1.423c0 0 16.361-18.336 26.872-24.9.079 0-3.636 4.347-20.549-6.4z" class="cls-4" transform="translate(-31.26 -10.17)"/>
        <path id="path1627" d="M207.6 155.9s-9.089 13.436-15.807 24.738c-5.691 9.563-20.391 7.983-20.391 7.983a24.513 24.513 0 0 0 7.823 5.379l3.636-2.213.79 4.031s9.484 3.478 10.907-1.423a146.272 146.272 0 0 1 17.151-37.542z" class="cls-4" transform="translate(-19.346 -19.396)"/>
        <circle id="ellipse1629" cx="3.32" cy="3.32" r="3.32" class="cls-4" transform="rotate(-1.844 4059.027 -5597.434)"/>
        <path id="path1631" d="M253.945 103.851s-16.361-16.282-23.79-11.3c-2.134 1.423-2.055 4.821-2.055 4.821l3 4.742 3.873 3.557s6.8 4.11 9.168 5.058l1.581-1.5s-12.567-5.454-14.859-12.093l1.265-2.924s-.237 5.612 15.491 13.2l-3 3.478s6.4 3.082 9.563 1.818-11.618-13.436-21.5-18.574c0 0 3.636-3.4 19.68 10.907z" class="cls-4" transform="translate(-32.356 -6.439)"/>
        <path id="path1633" d="M202.539 144.8l-1.739 1.9s12.488 7.113 5.533 18.178l8.062-10.354c.078-.003-7.904-4.35-11.856-9.724z" class="cls-4" transform="translate(-26.403 -17.158)"/>
        <path id="path1635" d="M91.6 114.845s6.481 1.027 27.189-8.615 37.384-18.653 44.5-3.4 10.591 24.027 21.34 24.58c0 0-9.959 6.244-19.048-14.7-9.405-21.735-11.776-18.336-45.288-2.687-17.941 8.3-22.051 9.326-28.69 4.821z" class="cls-4" transform="translate(-2.617 -7.079)"/>
        <path id="path1637" d="M106.4 121.9s6.007-1.739 24.817-10.907 27.189-12.014 32.01-2.134c0 0-4.031-8.22-29.955 5.612-25.845 13.67-26.872 7.429-26.872 7.429z" class="cls-4" transform="translate(-5.72 -8.758)"/>
        <path id="path1639" d="M119.6 127.186s4.11 3.241 11.3-1.107 25.766-13.91 36.357-12.567c0 0 .237-8.931-20.787.869s-26.87 12.805-26.87 12.805z" class="cls-4" transform="translate(-8.487 -10.252)"/>
        <path id="path1641" d="M130.9 132.419a8.118 8.118 0 0 0 7.983.4c4.505-2.134 24.738-14.148 33.749-11.7 0 0 .474-8.457-21.182 1.581-13.279 6.241-20.55 9.719-20.55 9.719z" class="cls-4" transform="translate(-10.856 -11.928)"/>
        <path id="path1643" d="M144 137.932s7.667-3.478 15.254-7.825 16.044-7.508 19.838-1.739c0 0-3.715-2.845-18.416 5.3-9.642 5.291-14.463 6.951-16.676 4.264z" class="cls-4" transform="translate(-13.602 -13.49)"/>
        <path id="path1645" d="M158.8 142.828s9.88-4.979 12.172-6.007 10.986-6.086 15.965-1.265c0 0-6.165-.158-14.227 4.742-8.062 5.058-12.33 4.663-13.91 2.529z" class="cls-4" transform="translate(-16.705 -15.224)"/>
        <path id="path1647" d="M171.7 147.2s6.165 2.845 11.935-.948c5.849-3.873 8.615-6.56 11.618-6.718 0-.078-3.873-4.978-23.553 7.666z" class="cls-4" transform="translate(-19.409 -16.278)"/>
        <path id="path1649" d="M295.709 214.652s-4.821-4.426-10.354-26.635c-5.454-22.13-8.852-40.862-25.292-36.831s-25.371 6.8-32.563-1.186c0 0 1.423 11.7 23.395 5.612 22.842-6.323 21.656-2.371 30.508 33.67 4.821 19.206 6.639 23.079 14.306 25.371z" class="cls-4" transform="translate(-32.333 -18.155)"/>
        <path id="path1651" d="M292.55 210.591s-2.45-5.77-7.034-26.161-7.667-28.69-18.415-26.24c0 0 8.931-1.976 14.385 26.872 5.533 28.611 11.065 25.529 11.065 25.529z" class="cls-4" transform="translate(-40.823 -19.759)"/>
        <path id="path1653" d="M282.106 205.007s-5.058-1.186-6.244-9.484-5.374-28.769-12.962-36.2c0 0 6.8-5.77 12.33 16.677 5.612 22.525 6.876 29.006 6.876 29.006z" class="cls-4" transform="translate(-39.893 -19.951)"/>
        <path id="path1655" d="M272.009 200.733a8.1 8.1 0 0 1-5.3-5.928c-1.186-4.821-4.505-28.137-12.014-33.67 0 0 6.323-5.691 12.014 17.467 3.482 14.228 5.3 22.131 5.3 22.131z" class="cls-4" transform="translate(-38.108 -20.34)"/>
        <path id="path1657" d="M260.622 195.445s-2.134-8.141-3.557-16.835c-1.423-8.615-4.268-17.151-11.065-16.519 0 0 4.584 1.107 7.429 17.7 1.976 10.753 3.715 15.575 7.193 15.654z" class="cls-4" transform="translate(-36.213 -20.666)"/>
        <path id="path1659" d="M248.914 188.3s-2.292-10.749-2.924-13.2-2.134-12.409-9.089-13.2c0 0 4.031 4.663 5.216 14.069 1.186 9.326 4.11 12.33 6.8 12.33z" class="cls-4" transform="translate(-34.232 -20.644)"/>
        <path id="path1661" d="M238.473 181.658s-6.086-3-6.718-9.88c-.632-6.955-.316-10.828-2.055-13.278-.079 0 6.244-.079 8.773 23.158z" class="cls-4" transform="translate(-32.663 -19.954)"/>
        <path id="path1663" d="M617.992 184.3s10.2 4.9 2.134 18.178c-8.062 13.2-9.326 15.254-9.326 15.254s2.845 1.976 5.058.869c0 0 14.78-21.814 25.055-30.35-.079 0-3.478 5.137-22.921-3.952z" class="cls-4" transform="translate(-116.022 -25.207)"/>
        <path id="path1665" d="M596.728 236.6s-7.746 15.649-13.278 28.611c-4.742 10.986-20.549 11.46-20.549 11.46a26.493 26.493 0 0 0 9.089 4.663l4.979 1.265s10.591 2.371 11.381-3a159.477 159.477 0 0 1 12.962-42.443z" class="cls-4" transform="translate(-105.16 -35.854)"/>
        <circle id="ellipse1667" cx="3.557" cy="3.557" r="3.557" class="cls-4" transform="rotate(-85.515 348.197 -162.248)"/>
        <path id="path1669" d="M637.535 175.782s-19.759-15.017-26.951-8.694c-2.055 1.818-1.5 5.454-1.5 5.454l3.873 4.584.948 4.505 3.636-1.265s7.825 3.4 10.512 4.11l1.5-1.818s-14.148-4.031-17.546-10.749l.948-3.32s.553 6.007 18.336 11.855l-2.766 4.189s7.271 2.292 10.433.553c3.24-1.739-14.306-12.646-25.529-16.756 0 0 3.4-4.11 22.446 8.852z" class="cls-4" transform="translate(-115.648 -21.396)"/>
        <path id="path1671" d="M588.581 226.9L587 229.113s14.306 5.77 8.536 18.574l7.113-12.172s-9.01-3.557-14.068-8.615z" class="cls-4" transform="translate(-110.216 -33.942)"/>
        <path id="path1673" d="M468.6 192.63s6.955 1.186 29.323-8.773 40.467-19.364 47.817-2.845 10.986 26 22.446 26.793c0 0-10.828 6.481-20.154-16.123-9.721-23.474-12.251-19.838-48.608-3.715-19.364 8.615-23.79 9.642-30.824 4.663z" class="cls-4" transform="translate(-85.118 -22.692)"/>
        <path id="path1675" d="M484.3 200.334s6.481-1.739 26.793-11.3 29.4-12.409 34.381-1.739c0 0-4.189-8.852-32.247 5.454-27.9 14.382-28.927 7.585-28.927 7.585z" class="cls-4" transform="translate(-88.236 -24.45)"/>
        <path id="path1677" d="M498.4 206.346s4.347 3.557 12.093-.948 27.9-14.464 39.2-12.883c0 0 .4-9.563-22.288.553-22.682 10.038-29.005 13.278-29.005 13.278z" class="cls-4" transform="translate(-91.232 -26.078)"/>
        <path id="path1679" d="M510.4 212.208a8.644 8.644 0 0 0 8.536.553c4.9-2.134 26.872-14.7 36.436-11.935 0 0 .632-9.089-22.763 1.344-14.227 6.323-22.209 10.038-22.209 10.038z" class="cls-4" transform="translate(-93.796 -27.87)"/>
        <path id="path1681" d="M524.5 218.344s8.3-3.636 16.6-8.062c8.22-4.505 17.388-7.746 21.261-1.5 0 0-3.952-3.161-19.917 5.3-10.436 5.448-15.652 7.107-17.944 4.262z" class="cls-4" transform="translate(-96.809 -29.542)"/>
        <path id="path1683" d="M540.3 223.757s10.67-5.137 13.12-6.244c2.45-1.027 11.935-6.323 17.23-1.027 0 0-6.639-.316-15.333 4.9-8.852 5.216-13.357 4.663-15.017 2.371z" class="cls-4" transform="translate(-100.187 -31.36)"/>
        <path id="path1685" d="M554.1 228.637s6.56 3.241 12.883-.79 9.405-6.876 12.567-7.034c-.079 0-4.189-5.375-25.45 7.824z" class="cls-4" transform="translate(-103.148 -32.5)"/>
        <path id="path1687" d="M229.728 288.2s1.818 10.354-6.876 15.333c-9.722 5.533.553 15.57-7.271 21.024-8.773 6.086-8.852 13.752-8.852 13.752l38.254-23.553-38.255 30.744-38.175-30.745s7.113-6.639 12.725-4.426c8.22 3.241 7.35-11.935 15.57-9.168 6.323 2.134 9.88-1.186 9.88-1.186L183.807 288.2 168 314.756l4.584 8.536 33.67 22.209.948-45.525z" class="cls-4" transform="translate(-18.633 -46.34)"/>
        <path id="path1689" d="M210.979 273.3l22.921 11.776s-14.622-6.4-20.866-5.058-9.247 3.952-15.807 3.794-9.326 1.344-9.326 1.344z" class="cls-4" transform="translate(-23.661 -43.456)"/>
        <path id="path1691" d="M615.849 366.2s1.818 10.354-6.876 15.333c-9.721 5.533.553 15.57-7.271 21.024-8.773 6.086-8.852 13.752-8.852 13.752l38.25-23.553-38.172 30.744-38.175-30.745s7.113-6.639 12.725-4.426c8.22 3.241 7.35-11.935 15.57-9.168 6.323 2.134 9.88-1.186 9.88-1.186L570.007 366.2 554.2 392.756l4.584 8.536 33.67 22.209.948-45.525z" class="cls-4" transform="translate(-104.157 -62.241)"/>
        <path id="path1693" d="M596.979 351.3l22.921 11.776s-14.622-6.4-20.866-5.058-9.247 3.952-15.807 3.794-9.326 1.344-9.326 1.344z" class="cls-4" transform="translate(-108.286 -59.413)"/>
        <path id="path1695" d="M418.728 462.979s1.818 10.354-6.876 15.333c-9.721 5.533.553 15.57-7.271 21.024-8.773 6.086-8.852 13.752-8.852 13.752l38.254-23.553-38.255 30.665-38.175-30.745s7.113-6.639 12.725-4.426c8.22 3.24 7.35-11.935 15.57-9.168 6.323 2.134 9.88-1.186 9.88-1.186L372.807 462.9 357 489.456l4.584 8.536 33.67 22.209.948-45.525z" class="cls-4" transform="translate(-60.598 -81.949)"/>
        <path id="path1697" d="M399.879 448.1l22.921 11.776s-14.622-6.4-20.866-5.058-9.247 3.952-15.807 3.794-9.326 1.344-9.326 1.344z" class="cls-4" transform="translate(-64.746 -78.847)"/>
        <path id="path1699" d="M570.133 100.5s-3.083 5.612 12.33 14.859c15.491 9.326 32.642 21.656 34.223 29.481 0 0 6.165-8.931-22.288-26.556-16.756-10.275-22.842-15.649-24.264-17.783z" class="cls-4" transform="translate(-107.444 -8.305)"/>
        <path id="path1701" d="M568.456 82.3s4.821 10.591 33.2 28.374 23.079 30.113 16.44 38.175l-3.32-1.265c5.533-7.429 9.563-13.594-4.347-26.082s-44.66-23.553-41.973-39.202z" class="cls-4" transform="translate(-107.111 -4.489)"/>
        <path id="path1703" d="M572.83 116.1c22.842 18.495 44.893 24.976 40.625 37.859 0 0-2.845-8.457-26.161-23-12.172-7.588-15.807-10.433-14.464-14.859z" class="cls-4" transform="translate(-108.007 -11.575)"/>
        <path id="path1705" d="M574.754 129.6s-2.766 6.244 13.752 15.491c10.354 5.77 15.412 11.065 15.412 11.065l4.742-.79s-5.612-6.639-16.361-13.673c-10.906-6.956-17.545-12.093-17.545-12.093z" class="cls-4" transform="translate(-107.664 -14.405)"/>
        <path id="path1707" d="M577.3 145.2l24.264 16.835-.79 4.742C582.6 154.052 579.355 154.605 577.3 145.2z" class="cls-4" transform="translate(-108.177 -17.237)"/>
        <path id="path1709" d="M581.684 161.9s13.673 9.01 18.811 13.436l-1.107 4.742c-9.8-7.034-18.574-11.223-17.7-18.178z" class="cls-4" transform="translate(-109.074 -20.657)"/>
        <path id="path1711" d="M584.9 176.8s1.818 12.646 13.278 13.515l1.186-4.268z" class="cls-4" transform="translate(-109.751 -23.711)"/>
        <g id="g1767" transform="translate(86.123 67.605)">
            <path id="path1713" d="M491.969 287.319c-5.216.4-17.23-4.663-37.621-15.807l-1.739-.948c-7.9-4.268-15.965-8.694-23.553-10.117-8.852-1.66-15.254 1.186-19.364 8.852-11.065 20.391-13.989 25.055-24.422 25.687v-.079a187.278 187.278 0 0 0-17.941-39.36.617.617 0 0 0-.316-.316c-5.216-7.746-17.467-4.031-26.4 1.5a32.546 32.546 0 0 0-9.405 8.773.958.958 0 0 0 .158 1.186l4.505 4.426c-1.581 2.371-2.687 4.821-2.608 6.955a4.59 4.59 0 0 0 1.5 3.478c.079.079.158.079.237.158a274.634 274.634 0 0 0 29.8 26.161 2.608 2.608 0 0 0-.079 1.739c-7.588 4.189-13.515 1.739-32.958-7.113-7.9-3.557-14.7-2.055-20.787 4.584-5.137 5.691-8.931 14.148-12.646 22.288l-.869 1.9c-9.642 21.34-16.123 32.563-20.47 35.329a.749.749 0 0 0-.4.869.952.952 0 0 0 .553.79 10.759 10.759 0 0 0 4.505 1.027 12.053 12.053 0 0 0 4.347-.79 15.164 15.164 0 0 0 6.007-4.11 11.775 11.775 0 0 0 2.845.316 11.269 11.269 0 0 0 9.168-4.821 7.587 7.587 0 0 0 2.608.474 10.5 10.5 0 0 0 7.746-3.952 9.018 9.018 0 0 0 3.241.553 10.411 10.411 0 0 0 3.478-.632 12.321 12.321 0 0 0 5.454-4.268 9.526 9.526 0 0 0 3 .474 10.42 10.42 0 0 0 3.32-.553 12.3 12.3 0 0 0 6.323-5.928 14.628 14.628 0 0 0 2.292.237 10.446 10.446 0 0 0 9.089-5.137c.316 0 .711.079 1.186.079a13.863 13.863 0 0 0 3.32-.4 12.677 12.677 0 0 0 8.457-7.508 20.78 20.78 0 0 0 1.739-10.354c-.079-2.845-.158-5.137 1.9-7.983.158-.237.4-.4.553-.632 1.423 1.5 3.241 2.845 4.505 2.924h.869c.869 2.371 1.818 4.584 2.766 6.8a3.52 3.52 0 0 0-.948 2.292v3.238a3.245 3.245 0 0 0 2.766 3.241v.316a3.306 3.306 0 0 0-2.766 3.241v3.241a3.245 3.245 0 0 0 2.766 3.241v.079a3.306 3.306 0 0 0-2.766 3.241v3.24a3.245 3.245 0 0 0 2.766 3.241V353a3.306 3.306 0 0 0-2.766 3.24v3.32a3.245 3.245 0 0 0 2.766 3.241v.079a3.306 3.306 0 0 0-2.766 3.241v3.241a3.245 3.245 0 0 0 2.766 3.241v.316a3.306 3.306 0 0 0-2.766 3.241v3.24a3.245 3.245 0 0 0 2.766 3.241v.158a3.306 3.306 0 0 0-2.766 3.24v3.241a3.245 3.245 0 0 0 2.766 3.241v.316a3.306 3.306 0 0 0-2.766 3.241v3.241a3.245 3.245 0 0 0 2.766 3.241v.158a3.306 3.306 0 0 0-2.766 3.241v1.186l-19.441 9.955a.836.836 0 0 0-.474.553c-.4.711-3.873 6.8-6.955 12.251a487.222 487.222 0 0 1-5.058 8.773c-1.818 3.161-3.082 5.374-3.082 5.374-.079.079-.079.158-.079.316v.474c0 .079 0 .079.079.158l3.952 8.536a.789.789 0 0 0 .316.4l34.223 22.209a578.854 578.854 0 0 0 .158.158c.079 0 .237.079.316.079a.475.475 0 0 0 .316-.079 578.854 578.854 0 0 0 .158-.158l34.223-22.209a.789.789 0 0 0 .316-.4l3.873-8.3a.958.958 0 0 0 .158-1.186l-.237-.237-14.859-25.845c0-.158-.079-.237-.079-.4-.079-.237-.316-.316-.474-.474l-.079-.079-19.838-10.2v-.949a3.245 3.245 0 0 0-2.766-3.241v-.158a3.306 3.306 0 0 0 2.766-3.24v-3.241a3.245 3.245 0 0 0-2.766-3.241v-.316a3.306 3.306 0 0 0 2.766-3.24v-3.241a3.245 3.245 0 0 0-2.766-3.241v-.158a3.245 3.245 0 0 0 2.766-3.241v-3.241a3.245 3.245 0 0 0-2.766-3.241v-.316a3.245 3.245 0 0 0 2.766-3.241v-3.241a3.245 3.245 0 0 0-2.766-3.241v-.079a3.327 3.327 0 0 0 2.766-3.32v-3.24a3.245 3.245 0 0 0-2.766-3.241v-.306a3.245 3.245 0 0 0 2.766-3.24v-3.241a3.245 3.245 0 0 0-2.766-3.241v-.078a3.306 3.306 0 0 0 2.766-3.241V337.9a347.573 347.573 0 0 0 8.3 15.412 178.75 178.75 0 0 1 2.924 5.3 6.094 6.094 0 0 0 4.268 3.082 11.487 11.487 0 0 0 2.371.237c4.742 0 11.065-2.608 17.23-7.113 6.4-4.821 10.117-9.88 10.354-14.464a6.886 6.886 0 0 0-2.134-5.533c-1.107-1.027-2.608-2.608-4.584-4.584-4.031-4.189-9.959-10.275-17.625-17.072a13.26 13.26 0 0 0 6.244 1.581 13.1 13.1 0 0 0 8.536-3.4 11.764 11.764 0 0 0 4.11.79 10.575 10.575 0 0 0 7.9-3.715 14.818 14.818 0 0 0 5.691 1.344 11.864 11.864 0 0 0 2.924-.4 10.135 10.135 0 0 0 5.058-3.715 15.093 15.093 0 0 0 3.715.553 9.915 9.915 0 0 0 8.536-4.347 11.637 11.637 0 0 0 2.845.316 8.859 8.859 0 0 0 7.667-3.794 15.322 15.322 0 0 0 3.636.474 10.715 10.715 0 0 0 8.615-4.11 16.836 16.836 0 0 0 7.192-.4 11.775 11.775 0 0 0 6.955-5.533.84.84 0 0 0-.079-.948 1.228 1.228 0 0 0-1.027-.553zm-104.328 12.962a.713.713 0 0 0 .4.079 4.435 4.435 0 0 1 .79 2.529c-.474 1.581-2.608 4.11-5.374 6.4v-.632a5.521 5.521 0 0 0-4.347-5.454 36.083 36.083 0 0 0 4.584-4.189c.158-.158.4-.474.711-.869a7 7 0 0 0 3.24 2.134zm-10.354 22.367c.079 0 .237.079.316.079v.158h-.158c-.079 0-.079-.158-.158-.237zm3.082 6.8v.158c-.474-.948-.869-1.9-1.344-2.924a1.048 1.048 0 0 0 .474-.79v-1.027a1.507 1.507 0 0 1 .869 1.344zm-1.818-10.591a.913.913 0 0 0-.948.948v1.027a1.507 1.507 0 0 1-.869-1.344v-3.478c.316-.158.553-.237.869-.4v.474a.948.948 0 0 0 1.9 0V314.9a1.507 1.507 0 0 1 .869 1.344v3.241a1.6 1.6 0 0 1-.869 1.344V319.8a.913.913 0 0 0-.948-.948zm-11.381-11.618a266.584 266.584 0 0 1-28.532-24.5c4.584 0 11.223-2.924 16.677-6.481a32.461 32.461 0 0 0 9.88-9.405 1.422 1.422 0 0 0 .474-.711 15.667 15.667 0 0 0 1.976-4.9c.079-.316.079-.632.158-.869a182.964 182.964 0 0 1 15.491 35.092c0 .079 0 .158.079.158 0 .079.079.237.079.316-.079.632-1.5 2.845-5.928 6.165-.869.711-1.818 1.265-2.608 1.818-.079.079-.158.079-.316.158-3.557 2.371-6.56 3.557-7.429 3.161zm-3.556-41.339c-1.66 2.608-4.505 5.612-9.326 8.694a59.928 59.928 0 0 1-5.533 3.161l-2.608-3.161a28.582 28.582 0 0 0 7.113-3.873c3.636-2.766 6.481-6.56 7.429-9.642zm12.251 39.755a3.917 3.917 0 0 1 2.055-.632 3.71 3.71 0 0 1 3.715 3.715 3.587 3.587 0 0 1-2.134 3.32v-2.134a.948.948 0 0 0-1.9 0v2.529a3.709 3.709 0 0 1-3.4-3.715 3.617 3.617 0 0 1 1.66-3.082zm-42.6-39.755a30.529 30.529 0 0 1 8.378-7.508c10.907-6.8 20.312-7.508 23.948-1.9a5.768 5.768 0 0 1 .316 4.268 12.708 12.708 0 0 1-1.187 3.24l-3.873-6.481c-.079-.158-.237-.237-.316-.316a3.177 3.177 0 0 0-2.292-1.186c-4.347-.553-12.172 4.347-16.123 7.9a37.666 37.666 0 0 0-5.137 5.691zm4.347 6.007c.079-.079.158-.079.237-.158a.717.717 0 0 0 .237-.553 37.847 37.847 0 0 1 5.3-5.928c4.268-3.873 11.3-7.825 14.622-7.429.553.079.948.237 1.107.553.711 1.107-1.5 6.639-6.876 10.749a21.629 21.629 0 0 1-7.825 3.952.965.965 0 0 0-.711.632 1.045 1.045 0 0 0 .158.948l3.241 3.952c-5.454 2.371-9.326 2.608-10.828 1.66l-.079-.079c-.079-.079-.158-.158-.237-.158a2.508 2.508 0 0 1-.79-1.976c-.079-1.66.869-3.873 2.45-6.165zm-52.322 94.765a10.246 10.246 0 0 1-5.928.4c4.584-4.189 10.591-14.938 19.759-35.013l.869-1.9c3.636-8.062 7.429-16.361 12.33-21.814 5.533-6.086 11.46-7.429 18.574-4.189 21.261 9.642 27.189 12.014 36.515 5.928a5.019 5.019 0 0 1-1.027 2.608 8.368 8.368 0 0 0-.79.948c-3.241 3.557-10.2 5.216-31.931-4.031a.077.077 0 0 1-.079-.079c-1.423-.632-2.845-1.265-4.426-1.9a8.337 8.337 0 0 0-6.718-.316c-7.588 2.924-13.831 17.23-22.525 37.068-1.9 4.268-3.794 8.694-5.928 13.357-1.976 4.426-5.058 7.588-8.694 8.931zm8.062-3.952a19.2 19.2 0 0 0 2.371-4.11c2.134-4.663 4.031-9.089 5.928-13.436 8.457-19.364 14.622-33.432 21.419-36.041a6.87 6.87 0 0 1 5.3.237c.237.158.553.237.79.4-7.667 3.478-15.649 23.474-21.024 36.752-1.423 3.478-2.608 6.4-3.557 8.457-3.478 7.983-8.852 8.141-11.223 7.746zm11.776-4.505a14.161 14.161 0 0 0 1.265-2.45c.948-2.134 2.134-5.058 3.557-8.536 4.979-12.33 13.278-33.037 20.233-35.8a3.338 3.338 0 0 1 2.608-.079c1.186.474 2.292.948 3.4 1.423-7.034 3.873-14.7 23.237-18.89 33.749-.869 2.134-1.5 3.873-1.976 4.821-2.371 5.137-6.4 7.825-10.2 6.876zm15.254-3.636a7.761 7.761 0 0 1-4.821.237 21.636 21.636 0 0 0 1.5-2.687c.474-.948 1.107-2.687 1.976-4.9 3.636-9.089 12.093-30.429 18.495-33.037a2.343 2.343 0 0 1 2.055 0 .475.475 0 0 0 .316.079c1.344.474 2.608.948 3.794 1.344-5.3 3.32-10.275 15.175-15.017 27.268-.869 2.292-1.66 4.189-2.134 5.374-.316.711-.711 1.344-1.027 1.976-.079.079-.237.158-.237.316v.079a12.091 12.091 0 0 1-4.9 3.952zm11.776-4.426a7.772 7.772 0 0 1-4.584.237l.711-1.423c.553-1.265 1.265-3.082 2.213-5.454 3.4-8.773 10.433-26.951 16.123-26.951h.158a51.881 51.881 0 0 0 5.849 1.423c-5.137 3.082-8.378 11.223-11.618 19.127-.869 2.213-1.818 4.426-2.687 6.481-1.661 3.398-3.716 5.607-6.166 6.56zm7.825-5.928c.948-2.055 1.818-4.347 2.766-6.56 3.794-9.247 7.667-18.89 14.069-19.206.158 0 .237-.079.4-.079h1.66c-2.608 2.924-4.347 7.825-6.56 13.594-.632 1.739-1.265 3.478-2.055 5.374a13.387 13.387 0 0 1-1.027 2.134.411.411 0 0 0-.158.316 8.668 8.668 0 0 1-9.089 4.426zm23.237-21.34c.079 2.766.237 5.612-1.581 9.484a10.8 10.8 0 0 1-10.275 6.876c.158-.4.4-.79.553-1.186.711-1.9 1.423-3.636 2.055-5.374 2.766-7.429 4.9-13.2 8.536-14.859.079 0 .079-.079.158-.079a4.836 4.836 0 0 0 .948-.4 22.023 22.023 0 0 0-.4 5.533zm9.01-7.667c-.474 0-1.976-.948-3.557-2.687a4.446 4.446 0 0 0 .4-3.636 13.928 13.928 0 0 0 3.32-1.344 4.86 4.86 0 0 0-.079 1.107 5.628 5.628 0 0 0 3.478 5.216 4.385 4.385 0 0 0-.474.632 8.492 8.492 0 0 1-2.924.632c-.079.079-.079.079-.158.079zm4.505 14.227V326.2c.4.869.79 1.739 1.107 2.529a.9.9 0 0 0-.237.632v1.423a1.461 1.461 0 0 1-.871-1.339zm1.818 79.195a.913.913 0 0 0-.948.948v1.423a1.507 1.507 0 0 1-.869-1.344v-.867l2.055-1.027 1.581.79v1.107a1.6 1.6 0 0 1-.869 1.344v-1.423a.913.913 0 0 0-.948-.948zm-1.818-2.213a1.6 1.6 0 0 1 .869-1.344v1.107l-.869.474zM344.487 440.1a523.587 523.587 0 0 1 5.058-8.773c1.818-3.161 3.557-6.244 4.9-8.536.79-1.423 1.344-2.371 1.739-3l21.656 11.144v36.041l-35.962-22.209c.554-1.035 1.503-2.695 2.609-4.667zm56.906-20.312l14.306 24.9-35.962 22.288v-36.12zm-58.566 27.663L377.84 469.1v4.9l-32.563-21.1zm69.394 5.454L379.658 474v-4.821l35.013-21.656zm-12.409-34.381l-21.024 10.749-20.945-10.749 16.993-8.694a3.3 3.3 0 0 0 2.766 3.161v.237a5.249 5.249 0 0 0-4.268 5.137.948.948 0 1 0 1.9 0 3.319 3.319 0 0 1 2.366-3.165v.632a.948.948 0 0 0 1.9 0v-.632a3.319 3.319 0 0 1 2.371 3.161.948.948 0 1 0 1.9 0 5.249 5.249 0 0 0-4.268-5.137v-.237a3.306 3.306 0 0 0 2.766-3.241v-.158zm-19.442-12.097l-.869-.474v-.869a1.507 1.507 0 0 1 .869 1.343zm0-9.959v3.241a1.6 1.6 0 0 1-.869 1.344v-1.027a.948.948 0 1 0-1.9 0v1.027a1.507 1.507 0 0 1-.869-1.344v-3.241a1.6 1.6 0 0 1 .869-1.344v.553a.948.948 0 1 0 1.9 0v-.553a1.507 1.507 0 0 1 .869 1.344zm0-10.117v3.241a1.6 1.6 0 0 1-.869 1.344v-1.423a.948.948 0 0 0-1.9 0v1.423a1.507 1.507 0 0 1-.869-1.344v-3.241a1.6 1.6 0 0 1 .869-1.344v1.107a.948.948 0 0 0 1.9 0v-1.107a1.507 1.507 0 0 1 .869 1.344zm0-9.959v3.241a1.384 1.384 0 0 1-.869 1.344v-1.027a.948.948 0 1 0-1.9 0v1.027a1.507 1.507 0 0 1-.869-1.344v-3.241a1.6 1.6 0 0 1 .869-1.344v.553a.948.948 0 1 0 1.9 0v-.553a1.507 1.507 0 0 1 .869 1.345zm0-10.117v3.241a1.384 1.384 0 0 1-.869 1.344v-1.423a.948.948 0 1 0-1.9 0v1.423a1.507 1.507 0 0 1-.869-1.344v-3.241a1.6 1.6 0 0 1 .869-1.344v1.107a.948.948 0 1 0 1.9 0v-1.107a1.507 1.507 0 0 1 .869 1.345zm0-9.959v3.241a1.493 1.493 0 0 1-.869 1.423v-1.107a.948.948 0 1 0-1.9 0v1.107a1.507 1.507 0 0 1-.869-1.344v-3.32a1.6 1.6 0 0 1 .869-1.344v.553a.948.948 0 0 0 1.9 0v-.553a1.507 1.507 0 0 1 .869 1.344zm0-10.117v3.241a1.384 1.384 0 0 1-.869 1.344v-1.344a.948.948 0 1 0-1.9 0v1.344a1.507 1.507 0 0 1-.869-1.344v-3.24a1.6 1.6 0 0 1 .869-1.344v1.107a.948.948 0 1 0 1.9 0v-1.107a1.507 1.507 0 0 1 .869 1.344zm0-6.639a1.6 1.6 0 0 1-.869 1.344V339.8a.948.948 0 1 0-1.9 0v1.107a1.507 1.507 0 0 1-.869-1.344v-3.241a1.6 1.6 0 0 1 .869-1.344v.553a.948.948 0 0 0 1.9 0v-.553a1.507 1.507 0 0 1 .869 1.344zm-.87-6.56v-.316a.29.29 0 0 0 .237-.079l.237.474a1 1 0 0 1-.474-.079zm40.151-1.5a320.344 320.344 0 0 0 4.663 4.742 5.029 5.029 0 0 1 1.5 4.031c-.158 3.873-3.715 8.615-9.563 13.041-6.718 4.979-13.752 7.508-18.02 6.56a4.148 4.148 0 0 1-3-2.134 375.004 375.004 0 0 0-2.924-5.374c-2.766-4.979-6.8-12.093-10.907-20.629a3.443 3.443 0 0 0 .869-2.292V326.2a3.245 3.245 0 0 0-2.766-3.241v-.158a3.306 3.306 0 0 0 2.766-3.241v-3.24a3.335 3.335 0 0 0-1.269-2.603c3.952-2.687 7.667-6.323 9.168-8.931a258.7 258.7 0 0 1 29.483 26.714zM390.8 302.731a5.625 5.625 0 0 0-.316-1.66c2.371 1.107 3.478 2.687 4.9 4.663.316.474.711.948 1.027 1.5-1.811-1.5-3.711-3.002-5.611-4.503zm13.12 8.536a19.142 19.142 0 0 1-7.034-6.639 15.421 15.421 0 0 0-3.715-4.189 5.023 5.023 0 0 0 1.423-.474c3.873-.711 8.931 2.529 15.254 6.56 1.66 1.027 3.32 2.134 5.137 3.24a8.635 8.635 0 0 0 1.186.632c-1.9 1.581-6.323 4.031-12.251.869zm14.464-1.9a.29.29 0 0 0-.237-.079c-.632-.316-1.344-.632-2.134-1.107-1.818-1.107-3.478-2.134-5.137-3.241-5.058-3.24-9.326-5.928-13.041-6.718.553-.4 1.186-.869 1.739-1.344 5.3-3.161 13.989 1.976 22.288 6.876 2.134 1.265 4.268 2.529 6.4 3.636a.077.077 0 0 1 .079.079c-1.344 1.5-4.663 4.031-9.959 1.9zm19.838-1.9c-2.529.79-5.612.237-9.01-1.66-2.055-1.107-4.189-2.371-6.323-3.636-7.113-4.268-14.464-8.615-20.312-8.141a54 54 0 0 0 3.952-4.821c4.742-3.082 21.1 6.955 29.006 11.855 2.134 1.344 3.873 2.371 5.058 3 .474.237.948.474 1.5.711a7.843 7.843 0 0 1-3.873 2.687zm3.241-4.979c-1.107-.632-2.924-1.739-4.979-3-10.986-6.8-21.972-13.12-28.3-12.725a114.079 114.079 0 0 0 2.134-3.241l.158-.158a2.217 2.217 0 0 1 1.66-1.186c6.639-1.818 25.45 9.563 34.46 15.017 2.134 1.265 3.794 2.292 4.742 2.845a20.8 20.8 0 0 0 2.766 1.186c-2.845 3.715-8.536 3.557-12.646 1.265zm10.828-4.189c-.948-.474-2.608-1.5-4.663-2.766-9.642-5.849-27.268-16.519-35.171-15.333.632-1.107 1.344-2.213 1.976-3.478a3.458 3.458 0 0 1 1.976-1.265c7.271-1.976 26.319 9.484 37.7 16.282 3.241 1.9 6.007 3.636 8.062 4.742a19.037 19.037 0 0 0 2.608 1.186c-2.529 3-7.429 3.4-12.488.632zm10.749-3.557c-1.976-1.107-4.742-2.766-7.983-4.663-12.962-7.746-30.666-18.416-38.886-16.519.158-.237.237-.4.4-.632a6.31 6.31 0 0 1 4.031-3.4c6.955-2.055 20.154 5.374 38.491 15.57 4.189 2.371 8.536 4.742 13.2 7.271a22.782 22.782 0 0 0 4.426 1.818c-1.739 1.739-6.086 4.742-13.673.553zm22.367-2.371a14.042 14.042 0 0 1-6.8.237h-.158a20.628 20.628 0 0 1-5.3-1.976c-4.663-2.529-9.01-4.9-13.2-7.271-18.732-10.433-32.247-17.941-39.913-15.728a8.417 8.417 0 0 0-5.137 4.347 82.751 82.751 0 0 1-2.213 3.873.411.411 0 0 0-.158.316v.158a109.573 109.573 0 0 1-7.508 11.7c-.079.079-.079.158-.158.237a48.067 48.067 0 0 1-6.323 7.192c-.079.079-.158.079-.237.158s-.237.158-.237.316a15.911 15.911 0 0 1-3.715 2.371.475.475 0 0 0-.316.079.672.672 0 0 0-.4.237 7.875 7.875 0 0 1-3.478.4 52.078 52.078 0 0 0-1.739-.474h-.237a4.449 4.449 0 0 1-2.134-1.5c10.986-.79 14.385-6.244 25.45-26.635 3.794-6.955 9.326-9.405 17.388-7.9 7.271 1.344 15.254 5.691 23 9.959l1.739.948c19.048 10.354 30.666 15.412 36.91 15.965a13.8 13.8 0 0 1-5.137 3z" transform="translate(-130.134 -105.094)"/>
            <path id="path1715" d="M229.538 272.108l-.237-.237-14.859-25.924a.29.29 0 0 0-.079-.237 1.229 1.229 0 0 0-.632-.474L194.13 235.2v-.948a3.245 3.245 0 0 0-2.766-3.24v-.079a3.456 3.456 0 0 0 1.9-1.027 3.215 3.215 0 0 0 .869-2.292v-3.244a3.245 3.245 0 0 0-2.766-3.24v-.474a3.455 3.455 0 0 0 1.9-1.027 3.215 3.215 0 0 0 .869-2.292V214.1a3.245 3.245 0 0 0-2.766-3.24v-.16a3.455 3.455 0 0 0 1.9-1.027 3.215 3.215 0 0 0 .869-2.292v-3.24a3.245 3.245 0 0 0-2.766-3.241v-.316a3.455 3.455 0 0 0 1.9-1.027 2.977 2.977 0 0 0 .869-2.371v-3.24a3.245 3.245 0 0 0-2.766-3.241v-.079a3.027 3.027 0 0 0 1.9-1.027 3.093 3.093 0 0 0 .869-2.292v-3.241a3.245 3.245 0 0 0-2.766-3.241v-.316a3.456 3.456 0 0 0 1.9-1.027 3.215 3.215 0 0 0 .869-2.292v-3.161a3.245 3.245 0 0 0-2.766-3.241v-.088a3.455 3.455 0 0 0 1.9-1.027 3.215 3.215 0 0 0 .869-2.292v-3.24a3.245 3.245 0 0 0-2.766-3.241v-.4a3.027 3.027 0 0 0 1.9-1.027 3.093 3.093 0 0 0 .869-2.292v-3.24a3.245 3.245 0 0 0-2.766-3.241v-.079a3.455 3.455 0 0 0 1.9-1.027 3.215 3.215 0 0 0 .869-2.292v-1.9c.316-.553.711-1.107 1.107-1.66h.632a4.476 4.476 0 0 0 2.766-1.107l.079.079c1.186 2.608.79 4.505.237 6.8a17.462 17.462 0 0 0-.158 9.168 11.19 11.19 0 0 0 9.88 8.931 9.344 9.344 0 0 0 8.852 6.007h.158a10.492 10.492 0 0 0 4.505 6.086 8.407 8.407 0 0 0 4.347 1.186 4.175 4.175 0 0 0 1.027-.079c1.66 3.241 4.663 5.691 8.3 5.691a8.8 8.8 0 0 0 1.344-.158c1.818 3 4.426 4.742 7.35 4.742a4.505 4.505 0 0 0 1.027-.079c2.371 4.505 6.086 5.77 8.773 5.77a3.242 3.242 0 0 0 .869-.079 15.018 15.018 0 0 0 4.505 4.426 11.226 11.226 0 0 0 5.3 1.5 7.308 7.308 0 0 0 2.292-.316.85.85 0 0 0 .632-.711 1.039 1.039 0 0 0-.237-.948c-3.241-3.161-7.034-13.752-11.935-33.432l-.4-1.581c-2.608-10.67-5.533-22.683-13.041-27.268-3.24-1.976-7.113-2.371-11.46-1.265-17.7 4.347-23.316 5.454-28.927 1.107a4.053 4.053 0 0 0 .079-3.32 160.093 160.093 0 0 1 24.422-22.446 3.126 3.126 0 0 0 1.186-.79 2.206 2.206 0 0 0 .553-1.976c-.158-1.5-1.423-3.557-3.161-5.533l2.371-1.9a.719.719 0 0 0 .316-.632 1.275 1.275 0 0 0-.237-.711 46.885 46.885 0 0 0-8.3-7.271c-6.8-4.663-13.594-7.034-17.625-6.007a4.816 4.816 0 0 0-3.082 2.055.726.726 0 0 0-.316.474.788.788 0 0 1-.079.316 5.112 5.112 0 0 0-.316 1.027c-1.5 4.742-6.8 20.945-13.673 33.274-9.089-1.027-11.381-5.216-19.917-23.632-1.9-4.11-4.663-6.876-8.22-8.141-8.3-3-19.6 2.292-29.56 6.955l-1.344.632c-18.495 8.615-29.085 12.33-33.432 11.776a.8.8 0 0 0-.869.4.828.828 0 0 0-.079.948 10.1 10.1 0 0 0 5.849 5.216 13.086 13.086 0 0 0 6.086.711 9.556 9.556 0 0 0 8.062 4.11 12.685 12.685 0 0 0 2.371-.237 7.7 7.7 0 0 0 3.873 3.161 9.154 9.154 0 0 0 3.32.553 12.925 12.925 0 0 0 1.739-.158 9.191 9.191 0 0 0 7.983 4.268 13.508 13.508 0 0 0 2.45-.237 8.65 8.65 0 0 0 7.429 4.031 13.691 13.691 0 0 0 4.426-.869 9.435 9.435 0 0 0 7.271 3.636 13.585 13.585 0 0 0 2.924-.4 11.346 11.346 0 0 0 7.9 3.4 11.969 11.969 0 0 0 5.3-1.265 17.561 17.561 0 0 0 7.034-5.849c1.344-1.66 2.45-3.082 4.742-3.873a3.7 3.7 0 0 0-.316 1.818 394.144 394.144 0 0 1-29.323 28.69 3.408 3.408 0 0 0-1.265 2.766c0 3.082 1.186 9.168 8.931 14.622a46.9 46.9 0 0 0 4.426 2.687 1.008 1.008 0 0 0 .948 0l2.45-1.5.553 2.687a.965.965 0 0 0 .632.711 24.419 24.419 0 0 0 6.8 1.027 10.077 10.077 0 0 0 1.581-.079 4.321 4.321 0 0 0 3.794-3 179.7 179.7 0 0 1 8.457-21.893 3.18 3.18 0 0 0 2.45 1.9v.4a3.306 3.306 0 0 0-2.766 3.241v3.24a3.245 3.245 0 0 0 2.766 3.241v.079a3.306 3.306 0 0 0-2.766 3.241v3.24a3.245 3.245 0 0 0 2.766 3.241v.316a3.306 3.306 0 0 0-2.766 3.24v3.241a3.245 3.245 0 0 0 2.766 3.241v.079a3.306 3.306 0 0 0-2.766 3.24v3.32a3.245 3.245 0 0 0 2.766 3.241v.316a3.306 3.306 0 0 0-2.766 3.24v3.241a3.245 3.245 0 0 0 2.766 3.241v.158a3.306 3.306 0 0 0-2.766 3.241v3.24a3.245 3.245 0 0 0 2.766 3.241v.316a3.306 3.306 0 0 0-2.766 3.24v3.24a3.245 3.245 0 0 0 2.766 3.241v.079a3.306 3.306 0 0 0-2.766 3.241v1.027l-19.6 10.038c-.079 0-.079.079-.158.079a.077.077 0 0 0-.079.079l-.237.237s-7.667 13.436-12.093 21.182c-1.818 3.161-3.082 5.374-3.082 5.374-.079.079-.079.158-.079.316v.474c0 .079 0 .079.079.158l3.952 8.536a.789.789 0 0 0 .316.4l33.986 22.051a1 1 0 0 0 .711.316h.079a1.465 1.465 0 0 0 .553-.158l34.223-22.209a.789.789 0 0 0 .316-.4l3.873-8.3c.131.318.206-.16-.031-.552zm-38.175-13.673L213.1 247.37l14.385 24.976-36.041 22.288v-36.2zm.869-21.024a1.5 1.5 0 0 1-.316.948 1.274 1.274 0 0 1-.553.316v-1.344a.948.948 0 1 0-1.9 0v1.344a1.507 1.507 0 0 1-.869-1.344V236.3l1.9-.948 1.739.869zm0-3.241l-.869-.474v-.869a1.507 1.507 0 0 1 .87 1.344zm-11.3-102.51a4.859 4.859 0 0 1 .711-2.213v-.079a5.579 5.579 0 0 0 3.082-1.9 4.114 4.114 0 0 0 .869 1.027 32.93 32.93 0 0 0 3.636 3.241 4.947 4.947 0 0 0-3.715 4.979v.158c-2.292-1.814-4.115-3.873-4.584-5.212zm9.484 5.137a.913.913 0 0 0-.948.948v1.818a5.039 5.039 0 0 1-1.107-.632 2.823 2.823 0 0 1-.948-2.134 3.037 3.037 0 0 1 3-3.161 2.991 2.991 0 0 1 3.161 3 3.035 3.035 0 0 1-.869 2.213 3.57 3.57 0 0 1-1.344.869V137.9c0-.711-.4-1.107-.948-1.107zm-1.818 7.271a1.6 1.6 0 0 1 .869-1.344v1.186a.948.948 0 0 0 1.9 0v-1.11c.079.079.237.079.316.158a1.383 1.383 0 0 1 .553 1.107v.79c-.4.632-.79 1.344-1.186 1.976a.9.9 0 0 0-.632-.237.913.913 0 0 0-.948.948v1.107a1.507 1.507 0 0 1-.869-1.344zm7.034-2.213a7.378 7.378 0 0 1-3-.553.276.276 0 0 0-.158-.079 4.036 4.036 0 0 0 1.66-1.186 4.583 4.583 0 0 0 1.344-3.557 1.74 1.74 0 0 0-.079-.632c.79.4 1.581.79 2.292 1.107a4.582 4.582 0 0 0-.079 3.952 2.711 2.711 0 0 1-1.976.948zm4.979 16.44a15.915 15.915 0 0 1 .158-8.3 17.954 17.954 0 0 0 .553-4.663c.079.079.237.158.316.237s.158.237.237.237c2.845 1.9 3.715 7.192 4.9 13.91.316 1.581.553 3.32.948 5.058l.237.948a9.352 9.352 0 0 1-7.35-7.429zm9.563 8.22c0-.079-.079-.158-.079-.237a11.816 11.816 0 0 1-.553-1.976q-.474-2.608-.948-4.979c-.869-5.137-1.66-9.563-3.4-12.488l1.423.237h.079c5.3 1.344 7.034 9.959 8.852 18.336.4 2.055.869 4.189 1.344 6.244-1.581.079-4.979-.632-6.718-5.137zm12.883 11.539c-1.976-1.186-3.4-3.4-4.189-6.718-.474-1.976-.948-4.11-1.344-6.244-1.423-7.034-2.924-14.227-6.639-17.783a37.114 37.114 0 0 0 4.9-.316c4.742.869 7.9 17.467 9.484 25.45.4 2.213.79 4.031 1.027 5.216a6.955 6.955 0 0 0 .4 1.186 5.118 5.118 0 0 1-3.636-.79zm5.928 1.581v-.079a.411.411 0 0 0-.158-.316 12.286 12.286 0 0 1-.632-1.818c-.316-1.107-.632-2.924-1.027-5.058-2.055-10.907-4.426-21.577-8.378-25.529 1.027-.158 2.055-.316 3.161-.474h.316a2.127 2.127 0 0 1 1.66.316c5.058 3.241 8.931 22.763 10.591 31.061.4 2.055.711 3.636.948 4.505a22.22 22.22 0 0 0 .79 2.45c-2.766.079-5.691-1.5-7.271-5.058zm8.3 2.134c-.237-.869-.553-2.45-.948-4.426-1.9-9.563-5.374-27.11-10.67-31.773l2.371-.474a.5.5 0 0 0 .474 0 2.766 2.766 0 0 1 2.213.4c5.533 3.478 9.326 22.446 11.618 33.828.632 3.161 1.186 5.849 1.66 7.825a13.681 13.681 0 0 0 .632 2.134c-3.241.158-6.244-2.766-7.35-7.508zm8.615 4.9c-.474-1.9-1.027-4.584-1.66-7.746-2.608-12.962-6.165-30.587-12.172-34.855.158-.079.4-.079.553-.158a5.334 5.334 0 0 1 4.426.632c5.3 3.241 8.3 15.965 12.488 33.591a436.966 436.966 0 0 0 3.161 13.041 15.633 15.633 0 0 0 1.423 3.794c-2.214-.078-6.482-1.106-8.219-8.298zm-14.622-47.58c3.952-.948 7.192-.632 10.038 1.107 6.876 4.11 9.721 15.807 12.251 26.082l.4 1.581c4.426 18.178 7.983 28.532 11.3 33.037a8.4 8.4 0 0 1-4.584-1.265c-2.924-1.66-5.058-4.821-6.086-8.931a1312.702 1312.702 0 0 1-3.082-12.962c-4.268-18.02-7.35-31.061-13.357-34.776a7.3 7.3 0 0 0-3.794-1.107 9.656 9.656 0 0 0-2.055.237c-22.842 5.612-29.4 3.32-31.852-.316a8.639 8.639 0 0 0-.632-1.186l-.079-.079a4.922 4.922 0 0 1-.474-2.055c6.792 6.483 12.328 5.455 32.005.634zm-32.168-3.715a24.242 24.242 0 0 1-5.533-2.845c-4.742-3-7.746-6.165-7.746-7.034a.245.245 0 0 1 .079-.158c5.533-9.959 9.959-22.288 12.251-29.244a14.259 14.259 0 0 0 1.581 3.082 1.229 1.229 0 0 0 .474.632 14.277 14.277 0 0 0 1.423 1.818l.079.079 3.873 3.557a.077.077 0 0 1 .079.079 34.761 34.761 0 0 0 3.557 2.371 42.549 42.549 0 0 0 5.373 2.689.858.858 0 0 0 .711.316 25.3 25.3 0 0 0 7.429 2.055c-5.216 4.189-15.491 12.725-23.632 22.6zm4.031-39.36c1.976 3.082 6.955 6.481 7.667 6.955a60.578 60.578 0 0 0 6.4 3.794l-2.055 1.9a52.163 52.163 0 0 1-5.058-2.608 24.243 24.243 0 0 1-3.32-2.213l-3.794-3.478a9.845 9.845 0 0 1-1.186-1.5zM226.219 110v.316h-.079s-.316.237-.711.553c-1.423.4-4.268.158-8.3-1.423l2.45-2.292a1.189 1.189 0 0 0 .316-.869c0-.316-.316-.553-.553-.711a39.729 39.729 0 0 1-7.429-4.189c-5.691-3.794-7.983-7.113-7.588-7.667.711-.711 6.876 1.739 13.831 6.718a30.455 30.455 0 0 1 4.505 3.952c0 .158.079.237.158.4a.789.789 0 0 0 .4.316c1.66 1.9 2.924 3.794 3 4.9zm-24.264-20.47c3.478-.869 9.8 1.423 16.123 5.77a46.534 46.534 0 0 1 7.271 6.244l-1.66 1.344a28.664 28.664 0 0 0-4.505-3.873c-.079-.079-11.144-7.9-15.175-7.034a1.839 1.839 0 0 0-1.027.553 1.063 1.063 0 0 0-.553.474l-1.818 4.11a8.225 8.225 0 0 1-1.107-4.979 4.911 4.911 0 0 1 .237-.79c.079-.079.079-.237.158-.316a2.935 2.935 0 0 1 2.055-1.5zM97.152 117.2a8.829 8.829 0 0 1-3.952-2.845c5.454-.316 15.728-4.031 32.721-11.935l1.344-.632c9.642-4.505 20.549-9.642 28.058-6.955 3.082 1.107 5.454 3.478 7.192 7.192 8.457 18.336 11.144 23.316 20.549 24.659a3.762 3.762 0 0 1-1.9.948c-.4.079-.79.158-1.107.237-4.426.474-10.354-3-20.391-24.58a7.627 7.627 0 0 0-4.347-4.11 9.451 9.451 0 0 0-3.478-.553c-7.034 0-17.941 5.216-32.168 12.093-3.794 1.818-7.667 3.715-11.855 5.612a14.216 14.216 0 0 1-10.67.869zm7.588 2.134a23.737 23.737 0 0 0 3.794-1.265c4.189-1.976 8.062-3.794 11.855-5.612 16.44-7.9 28.216-13.594 34.144-11.46a6.02 6.02 0 0 1 3.32 3.082l.237.474c-7.192-1.976-23.869 6.718-35.013 12.488-2.766 1.423-5.137 2.687-6.876 3.478a17.329 17.329 0 0 1-2.766 1.027.713.713 0 0 0-.4.079c-4.505 1.027-7.113-.948-8.3-2.292zm12.8 5.612a5.964 5.964 0 0 1-2.529-1.818 15.177 15.177 0 0 0 2.134-.869c1.739-.79 4.189-2.055 6.955-3.478 10.354-5.374 27.663-14.385 33.907-12.251a2.78 2.78 0 0 1 1.739 1.5.617.617 0 0 0 .316.316c.4.711.711 1.423 1.107 2.134-6.955-1.186-22.842 7.034-31.536 11.618-1.818.948-3.161 1.66-4.031 2.055a15.008 15.008 0 0 1-3 1.027.592.592 0 0 0-.4.079 9.824 9.824 0 0 1-4.663-.316zm6.4 1.739c.79-.237 1.5-.553 2.292-.869.869-.4 2.292-1.107 4.11-2.055 7.508-3.952 25.213-13.2 30.9-11.3a2.114 2.114 0 0 1 1.265 1.027c.079.079.079.158.158.237.553.948 1.027 1.9 1.581 2.687-5.533-.632-15.333 4.268-25.055 9.484-1.9 1.027-3.557 1.9-4.584 2.371-4.742 2.292-8.773.948-10.67-1.581zm13.278 6.165a6.807 6.807 0 0 1-3-2.292l1.186-.474c1.107-.474 2.687-1.344 4.663-2.45 7.192-3.873 22.13-11.855 25.766-8.615a44.474 44.474 0 0 0 2.845 4.031c-5.058-.632-11.618 2.766-18.02 6.007-1.9.948-3.873 1.976-5.691 2.845a4.835 4.835 0 0 1-.948.4h-.079a9.689 9.689 0 0 1-6.718.553zm8.773.711c1.818-.869 3.715-1.818 5.612-2.766 7.667-3.952 15.57-7.983 19.838-4.663a.245.245 0 0 1 .158.079 10.013 10.013 0 0 0 1.027.869c-3.32.553-7.192 2.687-11.7 5.216-1.423.79-2.924 1.581-4.505 2.45-5.77 2.924-9.089.316-10.433-1.186zm27.11-.948a16.168 16.168 0 0 1-6.323 5.3c-5.216 2.45-8.852.237-10.433-1.186l.948-.474c1.581-.869 3.082-1.66 4.505-2.45 5.928-3.241 10.591-5.849 13.91-4.9h.079a2.808 2.808 0 0 1 .711.316 19.744 19.744 0 0 0-3.4 3.4zm3.557 47.185a2.277 2.277 0 0 1-2.134 1.66 19.566 19.566 0 0 1-7.113-.79l-.711-3.478a1.006 1.006 0 0 0-.553-.711.848.848 0 0 0-.869.079l-3.161 1.9a43.857 43.857 0 0 1-3.794-2.292c-7.113-4.979-8.141-10.275-8.141-13.041a1.809 1.809 0 0 1 .632-1.344 390.011 390.011 0 0 0 28.927-28.216c1.5 2.371 4.9 5.374 8.457 7.508a3.32 3.32 0 0 0-1.581 2.845v3.241a3.4 3.4 0 0 0 2.292 3.161l-.237.474a3.24 3.24 0 0 0-1.976 3.082v.79a182.547 182.547 0 0 0-10.038 25.134zm11.935-22.6v-1.976c.316-.553.553-1.107.869-1.66v.158a.948.948 0 1 0 1.9 0v-1.107a1.507 1.507 0 0 1 .869 1.344v3.32a1.5 1.5 0 0 1-.316.948 1.274 1.274 0 0 1-.553.316v-1.344a.948.948 0 1 0-1.9 0v1.344a1.461 1.461 0 0 1-.869-1.344zm0 10.2v-3.241a1.6 1.6 0 0 1 .869-1.344v.474a.948.948 0 1 0 1.9 0v-.487a1.507 1.507 0 0 1 .869 1.344v3.32a1.189 1.189 0 0 1-.316.869 1.274 1.274 0 0 1-.553.316v-1.107a.948.948 0 1 0-1.9 0v1.107a1.282 1.282 0 0 1-.869-1.265zm0 9.88v-3.24a1.6 1.6 0 0 1 .869-1.344v1.107a.948.948 0 0 0 1.9 0v-1.107a1.507 1.507 0 0 1 .869 1.344v3.32a1.189 1.189 0 0 1-.316.869 1.274 1.274 0 0 1-.553.316v-1.344a.948.948 0 1 0-1.9 0v1.423a1.461 1.461 0 0 1-.869-1.344zm0 10.117v-3.241a1.6 1.6 0 0 1 .869-1.344v.553a.948.948 0 1 0 1.9 0v-.563a1.507 1.507 0 0 1 .869 1.344v3.32a1.5 1.5 0 0 1-.316.948 1.274 1.274 0 0 1-.553.316V187.7a.948.948 0 1 0-1.9 0v1.027a1.461 1.461 0 0 1-.869-1.344zm0 9.959v-3.32a1.6 1.6 0 0 1 .869-1.344v1.186a.948.948 0 1 0 1.9 0v-1.186a1.507 1.507 0 0 1 .869 1.344v3.32a1.309 1.309 0 0 1-.4 1.027 1.653 1.653 0 0 1-.474.316v-1.423a.948.948 0 1 0-1.9 0v1.423a1.461 1.461 0 0 1-.857-1.357zm0 10.117v-3.241a1.6 1.6 0 0 1 .869-1.344v.553a.948.948 0 0 0 1.9 0v-.553a1.507 1.507 0 0 1 .869 1.344v3.32a1.189 1.189 0 0 1-.316.869 1.274 1.274 0 0 1-.553.316v-1.107a.948.948 0 1 0-1.9 0v1.107a1.282 1.282 0 0 1-.869-1.265zm0 9.959v-3.24a1.6 1.6 0 0 1 .869-1.344v1.027a.948.948 0 1 0 1.9 0v-1.027a1.507 1.507 0 0 1 .869 1.344v3.32a1.189 1.189 0 0 1-.316.869 1.274 1.274 0 0 1-.553.316v-1.423a.948.948 0 1 0-1.9 0v1.423a1.282 1.282 0 0 1-.869-1.265zm0 10.117v-3.24a1.6 1.6 0 0 1 .869-1.344v.553a.948.948 0 1 0 1.9 0v-.553a1.507 1.507 0 0 1 .869 1.344v3.32a1.189 1.189 0 0 1-.316.869 1.274 1.274 0 0 1-.553.316v-1.027a.948.948 0 1 0-1.9 0v1.107a1.461 1.461 0 0 1-.869-1.344zm0 6.639a1.6 1.6 0 0 1 .869-1.344v.948zm.869 6.481v.316a5.258 5.258 0 0 0-4.189 5.137.948.948 0 1 0 1.9 0 3.323 3.323 0 0 1 2.292-3.161v.553a.948.948 0 0 0 1.9 0v-.553a3.3 3.3 0 0 1 2.45 3.161.948.948 0 1 0 1.9 0 5.193 5.193 0 0 0-4.347-5.137v-.316a3.027 3.027 0 0 0 1.9-1.027 3.093 3.093 0 0 0 .869-2.292v-.079l17.23 8.852-20.945 10.67-20.866-10.67 17.151-8.773v.079a3.245 3.245 0 0 0 2.766 3.24zm-33.274 27.11c3.794-6.639 9.959-17.388 11.618-20.391l21.577 11.065v36.041L153.5 272.346c.632-.948 1.581-2.608 2.687-4.584zm-1.66 7.35l34.934 21.577v4.9l-32.484-21.024zm69.394 5.454l-32.642 21.182v-4.821l35.092-21.735z" transform="translate(-88.523 -73.163)"/>
            <path id="path1717" d="M613.468 332.273l-14.859-25.845a.593.593 0 0 0-.079-.4.76.76 0 0 0-.711-.474l-19.917-10.2v-.79a3.245 3.245 0 0 0-2.766-3.241v-.079a3.456 3.456 0 0 0 1.9-1.027 2.91 2.91 0 0 0 .869-2.292v-3.241a3.245 3.245 0 0 0-2.766-3.241v-.474a3.456 3.456 0 0 0 1.9-1.027 2.91 2.91 0 0 0 .869-2.292v-3.241a3.245 3.245 0 0 0-2.766-3.241v-.158a3.456 3.456 0 0 0 1.9-1.027 2.91 2.91 0 0 0 .869-2.292v-3.231a3.245 3.245 0 0 0-2.766-3.241v-.319a3.456 3.456 0 0 0 1.9-1.027 2.977 2.977 0 0 0 .869-2.371v-3.241a3.245 3.245 0 0 0-2.766-3.241v-.079a3.027 3.027 0 0 0 1.9-1.027 3.093 3.093 0 0 0 .869-2.292v-3.241a3.245 3.245 0 0 0-2.766-3.24v-.316a3.456 3.456 0 0 0 1.9-1.027 2.91 2.91 0 0 0 .869-2.292v-3.161a3.245 3.245 0 0 0-2.766-3.24v-.079a3.456 3.456 0 0 0 1.9-1.027 2.91 2.91 0 0 0 .869-2.292v-3.24a3.319 3.319 0 0 0-2.371-3.161l.237-.711a3.442 3.442 0 0 0 1.265-.79 3.093 3.093 0 0 0 .869-2.292v-2.924c1.186-3 2.45-5.928 3.794-8.852.316 0 .553-.079.79-.079 1.818-.4 4.9-4.347 5.612-7.192a3.223 3.223 0 0 0-.4-3c9.8-15.175 23.474-27.979 23.632-28.137a.858.858 0 0 0 .316-.711 2.8 2.8 0 0 0 .079-1.66c-.4-1.581-1.976-3.557-4.031-5.374l2.371-2.529a1.1 1.1 0 0 0 .237-.711.976.976 0 0 0-.316-.632 52.315 52.315 0 0 0-9.959-6.56c-.632-.316-1.186-.553-1.739-.869.474-.711 1.027-1.423 1.5-2.213q4.386-6.283 3.32-12.567c-1.739-9.721-13.12-17.625-23.237-24.659l-1.5-1.027C559.644 94.689 550 86.39 548.1 81.648a.859.859 0 0 0-.79-.553.8.8 0 0 0-.869.4 11.253 11.253 0 0 0-1.818 8.536 14.855 14.855 0 0 0 2.845 6.481 11.128 11.128 0 0 0 2.055 12.33 8.34 8.34 0 0 0-.553 7.034 10.493 10.493 0 0 0 2.055 3.636c-2.45 4.189-1.027 8.852 1.976 12.33a9.666 9.666 0 0 0-1.027 6.086 11.778 11.778 0 0 0 4.584 7.192 10.369 10.369 0 0 0 2.608 11.855 12.622 12.622 0 0 0-.474 4.426 12.481 12.481 0 0 0 5.691 9.563 18.188 18.188 0 0 0 7.35 3.161 129.015 129.015 0 0 1-4.505 13.515c-9.405-1.344-11.855-6.007-20.629-25.687-1.976-4.426-4.9-7.429-8.615-8.852-8.773-3.4-20.945 2.055-31.694 6.876l-1.581.711c-19.917 8.852-31.378 12.646-36.2 11.935a.8.8 0 0 0-.869.4 1.009 1.009 0 0 0-.158.948 10.715 10.715 0 0 0 6.165 5.691 14.1 14.1 0 0 0 6.56.869 10.077 10.077 0 0 0 8.694 4.505 13.508 13.508 0 0 0 2.45-.237c1.5 2.766 4.426 4.189 7.9 4.189a11.131 11.131 0 0 0 1.581-.079c1.818 3.32 5.137 4.663 8.615 4.663a13.7 13.7 0 0 0 2.529-.237 9.066 9.066 0 0 0 4.505 3.873 8.886 8.886 0 0 0 3.557.632 14.187 14.187 0 0 0 4.584-.869 10 10 0 0 0 7.9 4.031 13.64 13.64 0 0 0 3-.4 12.1 12.1 0 0 0 8.536 3.794 12.355 12.355 0 0 0 5.454-1.265 19.9 19.9 0 0 0 7.667-6.165c1.66-1.976 3-3.557 5.928-4.347h.079a5.8 5.8 0 0 0-.316 2.608c-7.587 10.907-16.677 22.6-26.951 34.618l-.158.237a3.814 3.814 0 0 0-.948 3.082c.316 2.687 2.055 9.484 11.618 14.148a38.462 38.462 0 0 0 16.044 3.557 16.846 16.846 0 0 0 3.082-.237 4.553 4.553 0 0 0 3.557-3.715c.4-2.213.869-4.979 1.581-8.062a3.256 3.256 0 0 0 2.45 1.818v.316a3.306 3.306 0 0 0-2.766 3.241v3.24a3.245 3.245 0 0 0 2.766 3.241v.079a3.306 3.306 0 0 0-2.766 3.241v3.32a3.245 3.245 0 0 0 2.766 3.24v.316a3.306 3.306 0 0 0-2.766 3.241v3.24a3.245 3.245 0 0 0 2.766 3.241v.158a3.306 3.306 0 0 0-2.766 3.241v3.241a3.245 3.245 0 0 0 2.766 3.241v.316a3.306 3.306 0 0 0-2.766 3.241v3.233a3.245 3.245 0 0 0 2.766 3.241v.079a3.306 3.306 0 0 0-2.766 3.241v1.186l-19.206 9.88c-.079 0-.079.079-.158.079a.077.077 0 0 0-.079.079l-.237.237s-7.746 13.436-12.172 21.182c-1.818 3.161-3.082 5.374-3.082 5.374-.079.079-.079.158-.079.316v.474c0 .079 0 .079.079.158l3.952 8.536a.789.789 0 0 0 .316.4l34.223 22.209a.077.077 0 0 1 .079.079.077.077 0 0 1 .079.079c.079 0 .237.079.316.079a.475.475 0 0 0 .316-.079 144.755 144.755 0 0 0 .158-.158l34.223-22.209a.789.789 0 0 0 .316-.4l3.873-8.3a.958.958 0 0 0 .158-1.186c.079.474 0 .4 0 .4zm-37.938-13.515l21.656-11.065 14.306 24.976-35.962 22.287zm20-12.33L574.582 317.1l-20.866-10.749 16.756-8.615a3.3 3.3 0 0 0 2.766 3.161v.316a5.258 5.258 0 0 0-4.189 5.137.948.948 0 0 0 1.9 0 3.323 3.323 0 0 1 2.292-3.161v.553a.948.948 0 1 0 1.9 0v-.553a3.3 3.3 0 0 1 2.45 3.161.948.948 0 1 0 1.9 0 5.193 5.193 0 0 0-4.347-5.137v-.313a3.027 3.027 0 0 0 1.9-1.027 3.093 3.093 0 0 0 .869-2.292v-.316zm-20.945-10.749l1.423.711v1.344a1.5 1.5 0 0 1-.316.948 1.274 1.274 0 0 1-.553.316v-1.344a.948.948 0 0 0-1.9 0V299a1.507 1.507 0 0 1-.869-1.344v-.869zm1.415-1.423l-.869-.474v-.711a1.82 1.82 0 0 1 .869 1.185zm-11.06-99.191a4.794 4.794 0 0 1 .474-2.529v-.158a5.527 5.527 0 0 0 3.161-2.292 9.526 9.526 0 0 0 1.027.948 25.069 25.069 0 0 0 3.082 2.134 6.742 6.742 0 0 0-1.976 1.027 5.081 5.081 0 0 0-1.818 3.636v1.107c-1.9-1.423-3.478-2.845-3.952-3.873zm12.488-36.2a.806.806 0 0 0 .158-.711c.237-1.265.474-2.45.711-3.478a17.3 17.3 0 0 0 4.11 5.137l.869 4.189a1.229 1.229 0 0 0 .474.632.935.935 0 0 0 .79.079l3.24-1.107a33.417 33.417 0 0 0 3.794 1.818c2.213.869 4.268 1.66 6.244 2.213a.852.852 0 0 0 .632.158 31.344 31.344 0 0 0 7.746 1.265h1.027c-4.979 5.058-14.78 15.57-21.972 27.347a26.9 26.9 0 0 1-7.43-2.687c-5.3-2.608-8.22-5.137-8.3-5.928v-.079a233.8 233.8 0 0 0 7.9-28.848zm15.1 1.186a57.044 57.044 0 0 0 7.508 3.161l-2.055 2.529a52.019 52.019 0 0 1-5.77-2.055c-1.344-.553-2.608-1.186-3.952-1.9a1.123 1.123 0 0 0-.474-.158.475.475 0 0 0-.316.079l-2.608.948-.711-3.478a.726.726 0 0 0-.316-.474c-.553-.474-1.107-1.027-1.581-1.5l1.107-3.32c2.45 2.687 7.746 5.454 9.168 6.165zm-21.735 37.859a3.273 3.273 0 0 1 1.186-2.292 3.313 3.313 0 0 1 2.213-.79h.237a3.273 3.273 0 0 1 2.292 1.186 3.519 3.519 0 0 1 .79 2.45 3.273 3.273 0 0 1-1.186 2.292 1.64 1.64 0 0 1-.79.474 1 1 0 0 0-.474-.079v-3.082a.948.948 0 0 0-1.9 0v3.082a3.419 3.419 0 0 0-.4.079c-.237-.158-.553-.316-.79-.474a3.4 3.4 0 0 1-1.183-2.845zm1.581 6.481a1.274 1.274 0 0 1 .474-1.027 1.726 1.726 0 0 1 .4.237v.632a.913.913 0 0 0 .948.948.939.939 0 0 0 .948-.79 6 6 0 0 0 .869.316v3a1.189 1.189 0 0 1-.316.869 1.274 1.274 0 0 1-.553.316v-1.102a.948.948 0 1 0-1.9 0v1.11a1.507 1.507 0 0 1-.869-1.344zm7.271 1.265c-.948 2.055-1.9 4.11-2.766 6.244a3.049 3.049 0 0 0-1.739-.869v-.079a3.456 3.456 0 0 0 1.9-1.027 2.91 2.91 0 0 0 .869-2.292v-2.293c.632.079 1.186.237 1.739.316zm-5.454 9.326a.913.913 0 0 0 .948-.948v-1.107a1.485 1.485 0 0 1 .869 1.265c-.316.948-.711 1.9-1.027 2.766a1.048 1.048 0 0 0-.79-.474.913.913 0 0 0-.948.948v1.344a1.507 1.507 0 0 1-.869-1.344v-3.241a1.605 1.605 0 0 1 .869-1.344v1.107a.98.98 0 0 0 .944 1.029zm-1.822 10.118v-.632a1.51 1.51 0 0 1 .553-1.107 14.737 14.737 0 0 0-.553 1.739zm.869 3.873zm2.762-4.506v3.32a1.189 1.189 0 0 1-.316.869 1.274 1.274 0 0 1-.553.316v-1.107a.913.913 0 0 0-.948-.948 3.423 3.423 0 0 0-.4.079c.237-.869.474-1.739.79-2.608a1.049 1.049 0 0 0 .632-.869v-.474a1.86 1.86 0 0 1 .79 1.423zm6.086-20.708a10.2 10.2 0 0 1-4.426-.474 4.236 4.236 0 0 0-.4-.869 5.559 5.559 0 0 0 2.213-3.873 4.949 4.949 0 0 0-.237-2.134 18.612 18.612 0 0 0 6.8 1.818h.316c-.942 2.529-3.552 5.373-4.262 5.532zm27.821-38.412a.845.845 0 0 1 0 .632c-.79 1.107-4.031 1.739-10.038.316l2.45-2.924a.958.958 0 0 0-.474-1.5 48.76 48.76 0 0 1-8.536-3.4c-5.928-3-8.852-5.849-9.168-6.955l.079-.316v-.079h.079c2.055-.711 9.642 2.134 15.57 5.216a31.4 31.4 0 0 1 5.691 3.873l.079.079c.079.079.158.079.158.158 2.213 1.818 3.794 3.636 4.11 4.9zm-1.9-8.931l-1.739 1.818a33.294 33.294 0 0 0-5.533-3.636c-.553-.316-13.041-6.8-17.072-5.374a2.243 2.243 0 0 0-1.265 1.107 1.425 1.425 0 0 0-.158.79l-1.344 4.11a10.15 10.15 0 0 1-1.9-4.584c.237-1.344.4-2.134.4-2.134v-.079a3.238 3.238 0 0 1 1.9-1.581 10.319 10.319 0 0 1 4.821-.4 1.123 1.123 0 0 0 .474.158.475.475 0 0 0 .316-.079 42.483 42.483 0 0 1 12.488 4.11 57.156 57.156 0 0 1 8.615 5.77zm-60.779-72.4c3.24 5.216 12.646 13.2 30.113 25.371l1.5 1.027c9.8 6.8 20.866 14.543 22.446 23.474.632 3.715-.316 7.35-3 11.144-.553.869-1.107 1.739-1.66 2.45-1.265-.553-2.45-.948-3.636-1.344 0-.079.079-.079.079-.158.711-1.027 1.5-2.134 2.292-3.32a8.112 8.112 0 0 0 1.5-6.481c-1.423-7.825-13.91-16.361-31.3-28.3-3.873-2.608-7.825-5.374-12.093-8.378-3.794-2.687-6.244-6.165-6.876-9.88a10.254 10.254 0 0 1 .632-5.612zm1.66 14.069a21.107 21.107 0 0 0 3.478 3c4.189 3 8.22 5.691 12.093 8.378 16.993 11.618 29.244 20 30.508 27.031a6.162 6.162 0 0 1-1.265 4.979c-.158.237-.316.4-.474.632-2.134-8.062-19.838-19.443-31.694-26.951-3-1.9-5.533-3.557-7.35-4.821-6.876-4.821-6.165-9.959-5.3-12.251zm2.134 12.172a25.285 25.285 0 0 0 2.141 1.743c1.818 1.265 4.426 2.924 7.429 4.821 11.065 7.034 29.481 18.89 30.982 26.161a3.291 3.291 0 0 1-.158 1.976c-.158.158-.237.4-.4.553a27.8 27.8 0 0 0-4.031-.79c-5.612-7.113-19.522-15.965-27.11-20.708a80.136 80.136 0 0 1-4.031-2.608 13.42 13.42 0 0 1-2.687-2.45.617.617 0 0 0-.316-.316 11.528 11.528 0 0 1-1.976-3.4 6.358 6.358 0 0 1 .158-4.979zm1.423 10.749a13.3 13.3 0 0 0 2.292 1.9c.79.553 2.292 1.5 4.11 2.608 6.955 4.426 19.443 12.409 25.45 18.969a10.885 10.885 0 0 0-3.794.632 5.738 5.738 0 0 0-2.45 1.739A134.735 134.735 0 0 0 561.7 135.63a301.35 301.35 0 0 1-4.9-3.082c-4.98-3.478-5.929-8.141-4.348-11.54zm1.423 16.677a7.308 7.308 0 0 1 .632-4.426l1.186.948c1.107.79 2.924 1.9 4.979 3.161 4.9 3 11.539 7.113 16.519 11.381a5.441 5.441 0 0 0-.158 1.976c-.237 1.423-.632 3.4-1.107 5.691a95.675 95.675 0 0 0-11.144-7.9c-1.9-1.186-3.873-2.45-5.612-3.715-2.996-2.135-4.814-4.585-5.289-7.114zm4.268 8.694c1.818 1.265 3.794 2.529 5.691 3.715a87.486 87.486 0 0 1 11.7 8.457c-.4 1.818-.79 3.794-1.344 5.928-2.134-1.5-4.663-3-7.35-4.584a174.187 174.187 0 0 0-3.952-2.371 21.372 21.372 0 0 1-1.976-1.423c-4.268-3.794-3.4-7.9-2.766-9.722zm7.35 23.079c-5.454-3.873-5.216-8.852-4.663-11.144a13.409 13.409 0 0 0 1.107.79c1.344.869 2.687 1.66 3.952 2.45 3 1.818 5.691 3.4 7.825 4.979-.474 1.9-.948 3.873-1.5 5.849a17.458 17.458 0 0 1-6.714-2.922zm-91.129 8.378a9.731 9.731 0 0 1-4.347-3.32c5.849-.158 17.072-3.952 35.487-12.172l1.581-.711c10.433-4.663 22.209-9.959 30.271-6.8 3.32 1.265 5.77 3.794 7.587 7.825 8.931 19.838 11.7 25.213 21.735 26.793a4.036 4.036 0 0 1-1.976 1.107h-.158a9.324 9.324 0 0 0-1.581.316c-4.426.237-10.275-3.32-19.443-22.683a.077.077 0 0 0-.079-.079c-.632-1.265-1.186-2.608-1.818-4.031a7.99 7.99 0 0 0-4.505-4.426 10.379 10.379 0 0 0-3.952-.632c-7.508 0-19.127 5.3-34.223 12.251-4.189 1.9-8.536 3.873-13.12 5.928a19.684 19.684 0 0 1-4.979 1.423h-.237a12.66 12.66 0 0 1-6.244-.79zm7.983 2.371a20.789 20.789 0 0 0 4.11-1.344 824.631 824.631 0 0 0 13.12-5.928c17.625-8.062 30.429-13.91 36.673-11.539a6.361 6.361 0 0 1 3.478 3.4c.079.158.158.4.237.553-7.587-2.134-25.529 6.718-37.542 12.725-3.082 1.5-5.691 2.845-7.587 3.715-7.192 3.161-10.986.158-12.488-1.581zm10.907 4.11c.79-.237 1.581-.553 2.45-.869 1.976-.869 4.584-2.213 7.667-3.715 11.144-5.533 29.876-14.859 36.436-12.488a2.781 2.781 0 0 1 1.739 1.5c.474 1.107 1.027 2.134 1.5 3.161-7.35-1.5-24.58 7.113-33.986 11.776-1.976 1.027-3.557 1.818-4.505 2.213a14.479 14.479 0 0 1-3.32 1.027h-.079c-3.32.632-6.323-.316-7.9-2.608zm9.642 4.189a17.306 17.306 0 0 0 2.608-.948c.948-.4 2.529-1.186 4.584-2.213 8.852-4.426 27.268-13.673 33.353-11.46a2.186 2.186 0 0 1 1.423 1.186v.079c.632 1.186 1.186 2.292 1.818 3.32-5.849-.869-16.519 4.189-27.189 9.642-2.055 1.027-3.873 1.976-4.979 2.45-4.031 1.818-9.247 1.581-11.618-2.055zm14.306 6.955a7.086 7.086 0 0 1-3.24-2.608c.4-.158.869-.316 1.265-.474 1.186-.553 2.924-1.423 5.058-2.529 7.825-4.031 24.106-12.33 27.9-8.694a.077.077 0 0 1 .079.079 41.368 41.368 0 0 0 3.082 4.347c-5.453-.79-12.567 2.687-19.6 6.086-2.055 1.027-4.11 2.055-6.086 2.924-.316.158-.632.237-.948.4-.079 0-.158 0-.158.079-2.84 1.024-5.291 1.182-7.347.392zm9.326.79c1.976-.869 4.031-1.9 6.086-2.924 8.3-4.11 16.914-8.3 21.577-4.663a8.459 8.459 0 0 0 1.265 1.107c-3.557.474-7.667 2.687-12.567 5.3q-2.371 1.3-4.979 2.608c-6.396 3.237-10.032.234-11.375-1.426zm29.323-.4a17.29 17.29 0 0 1-6.955 5.612c-5.77 2.608-9.643 0-11.3-1.5.316-.158.711-.316 1.027-.474 1.739-.869 3.4-1.739 5.058-2.608 6.4-3.4 11.46-6.086 14.859-4.9h.158a3.3 3.3 0 0 0 .79.316 15.532 15.532 0 0 0-3.636 3.557zm11.539 50.9a2.529 2.529 0 0 1-1.976 2.134c-3.557.553-11.7-.079-18.02-3.161-8.687-4.262-10.268-10.269-10.506-12.722a1.992 1.992 0 0 1 .474-1.581l.158-.237c10.117-11.776 18.969-23.237 26.556-34.065a27.879 27.879 0 0 0 6.955 5.3.077.077 0 0 1 .079.079 3.216 3.216 0 0 0-.632 1.9v3.241a3.245 3.245 0 0 0 2.766 3.24v.079a3.306 3.306 0 0 0-2.766 3.24v3.241a3.245 3.245 0 0 0 2.766 3.24v.4a3.306 3.306 0 0 0-2.766 3.24v3.241a3.459 3.459 0 0 0 .632 1.976 193.29 193.29 0 0 0-3.715 17.23zm5.374-15.965c.158.079.316.079.474.158v.079a1.142 1.142 0 0 0-.553.158.859.859 0 0 1 .079-.4zm-.4 6.8v-3.24a1.6 1.6 0 0 1 .869-1.344v1.107a.948.948 0 1 0 1.9 0V233a1.507 1.507 0 0 1 .869 1.344v3.32a1.188 1.188 0 0 1-.316.869 1.274 1.274 0 0 1-.553.316v-1.344a.948.948 0 0 0-1.9 0v1.423a1.461 1.461 0 0 1-.869-1.344zm0 10.117v-3.241a1.6 1.6 0 0 1 .869-1.344v.553a.948.948 0 1 0 1.9 0v-.553a1.506 1.506 0 0 1 .869 1.344v3.32a1.5 1.5 0 0 1-.316.948 1.274 1.274 0 0 1-.553.316v-1.024a.948.948 0 1 0-1.9 0v1.027a1.461 1.461 0 0 1-.869-1.344zm0 9.959v-3.32a1.6 1.6 0 0 1 .869-1.344v1.186a.948.948 0 1 0 1.9 0V253a1.507 1.507 0 0 1 .869 1.344v3.32a1.309 1.309 0 0 1-.4 1.027 1.653 1.653 0 0 1-.474.316v-1.423a.948.948 0 1 0-1.9 0v1.423a1.461 1.461 0 0 1-.869-1.344zm0 10.117v-3.241a1.6 1.6 0 0 1 .869-1.344v.553a.948.948 0 1 0 1.9 0v-.553a1.507 1.507 0 0 1 .869 1.344v3.32a1.188 1.188 0 0 1-.316.869 1.274 1.274 0 0 1-.553.316v-1.107a.948.948 0 1 0-1.9 0v1.107a1.282 1.282 0 0 1-.869-1.265zm0 9.959V274.5a1.6 1.6 0 0 1 .869-1.344v1.027a.948.948 0 1 0 1.9 0v-1.027A1.507 1.507 0 0 1 576 274.5v3.32a1.188 1.188 0 0 1-.316.869 1.274 1.274 0 0 1-.553.316v-1.425a.948.948 0 1 0-1.9 0V279a1.282 1.282 0 0 1-.869-1.265zm0 10.117v-3.241a1.6 1.6 0 0 1 .869-1.344v.553a.948.948 0 0 0 1.9 0v-.553a1.507 1.507 0 0 1 .869 1.344v3.32a1.188 1.188 0 0 1-.316.869 1.274 1.274 0 0 1-.553.316v-1.027a.948.948 0 1 0-1.9 0v1.11a1.461 1.461 0 0 1-.869-1.344zm0 6.639a1.6 1.6 0 0 1 .869-1.344v1.107l-.869.474zm-32.077 33.592c3.794-6.639 10.038-17.388 11.7-20.391l21.577 11.065v36.12l-35.962-22.209c.632-.948 1.581-2.608 2.687-4.584zm-1.66 7.35l35.013 21.656v4.9l-32.563-21.1zm69.394 5.453l-32.563 21.1v-4.821l35.013-21.656z" transform="translate(-172.092 -71.837)"/>
            <path id="path1719" d="M118.188 152.72l-.632.158a14.156 14.156 0 0 1-5.137.4 4.506 4.506 0 0 1-3.794-2.845c-.079-.4-.158-.79-.237-1.265-.158-1.186-.237-2.45-1.344-3.32a4.241 4.241 0 0 0-2.924-.79l-6.007.237a5.136 5.136 0 0 1-1.66-.158c-.711-.4-.869-1.265-1.027-2.687a10.258 10.258 0 0 0-.553-2.608 4.813 4.813 0 0 0-2.608-2.529 4.655 4.655 0 0 0-3.715.079.955.955 0 0 0 .79 1.739 3.025 3.025 0 0 1 2.213-.079 3.11 3.11 0 0 1 1.581 1.423 8.541 8.541 0 0 1 .4 2.134c.158 1.5.4 3.241 1.976 4.189a6.184 6.184 0 0 0 2.608.4l5.691-.237h.316a2.747 2.747 0 0 1 1.739.316c.474.4.553 1.186.711 2.134a9.482 9.482 0 0 0 .237 1.581 6.553 6.553 0 0 0 5.374 4.268 10.077 10.077 0 0 0 1.5.079 26.3 26.3 0 0 0 4.268-.553l.632-.158a.967.967 0 0 0 .79-1.107 1.147 1.147 0 0 0-1.186-.79z" transform="translate(-87.982 -83.553)"/>
            <path id="path1721" d="M116.85 165.366a8.953 8.953 0 0 0-4.979-.711c-.869 0-1.818.079-2.687.079-.948 0-1.818.079-2.687.079a3.543 3.543 0 0 1-.948-.079.077.077 0 0 0-.079-.079v-.079c0-.079-.079-.158-.079-.316a8.24 8.24 0 0 0-8.141-6.56.948.948 0 1 0 0 1.9 6.358 6.358 0 0 1 6.244 5.058v.316a2.345 2.345 0 0 0 .316.869 2.815 2.815 0 0 0 2.529.948c.869 0 1.818-.079 2.687-.079.948 0 1.818-.079 2.766-.079a7.509 7.509 0 0 1 4.031.553c1.581.869 2.45 2.924 3.161 4.979a.925.925 0 0 0 .869.632.475.475 0 0 0 .316-.079.984.984 0 0 0 .632-1.186c-.711-2.529-1.818-4.979-3.952-6.165z" transform="translate(-89.726 -87.441)"/>
            <path id="path1723" d="M266.137 234.862a.987.987 0 0 0 1.027.316 8.091 8.091 0 0 1 7.35 1.027 1.142 1.142 0 0 0 .553.158.973.973 0 0 0 .79-.4 1 1 0 0 0-.237-1.344 9.935 9.935 0 0 0-7.271-1.66 7.058 7.058 0 0 0-2.134-5.928 12.257 12.257 0 0 0-6.955-3.32 41.839 41.839 0 0 0-6.323-.711h-.4v-.553a8.022 8.022 0 0 0-4.979-7.35 15.637 15.637 0 0 0-3.32-.79 8.974 8.974 0 0 1-3.952-1.265.957.957 0 1 0-1.186 1.5 9.682 9.682 0 0 0 4.742 1.581 13.768 13.768 0 0 1 2.845.632 6.064 6.064 0 0 1 3.715 5.612 2.323 2.323 0 0 0 .632 1.9 2.114 2.114 0 0 0 1.66.553 38.9 38.9 0 0 1 6.007.711 11.255 11.255 0 0 1 6.007 2.845 4.887 4.887 0 0 1 1.186 5.533.9.9 0 0 0 .237.948z" transform="translate(-120.827 -98.699)"/>
            <path id="path1725" d="M296.087 243.415a15.963 15.963 0 0 1 9.642 5.928.943.943 0 0 0 .711.4.718.718 0 0 0 .553-.237.987.987 0 0 0 .158-1.344A17.9 17.9 0 0 0 296.4 241.6a.976.976 0 0 0-1.107.711 1.011 1.011 0 0 0 .79 1.107z" transform="translate(-133.05 -104.608)"/>
            <path id="path1727" d="M138.186 156.171a9.976 9.976 0 0 0-3.4.079.962.962 0 0 0 .316 1.9 7.873 7.873 0 0 1 2.687-.079 2.29 2.29 0 0 1 1.739 1.186.855.855 0 0 0 .869.553.712.712 0 0 0 .4-.079.952.952 0 0 0 .474-1.265 4.16 4.16 0 0 0-3.082-2.292z" transform="translate(-97.626 -87.557)"/>
            <path id="path1729" d="M133.882 185.453a5.218 5.218 0 0 1-4.268-3 .955.955 0 1 0-1.739.79 7.017 7.017 0 0 0 5.849 4.11h.079a1.01 1.01 0 0 0 .948-.869.972.972 0 0 0-.869-1.027z" transform="translate(-96.326 -92.401)"/>
            <path id="path1731" d="M349.954 393.795a.592.592 0 0 0 .4-.079c1.818-.869 2.766-2.608 3.715-4.268a18.965 18.965 0 0 1 1.66-2.45 7.644 7.644 0 0 1 4.426-2.529c.869-.079 1.739-.079 2.608-.079a9.949 9.949 0 0 0 5.216-.79 10.17 10.17 0 0 0 3.082-3c.474-.553.869-1.107 1.344-1.581a7.857 7.857 0 0 1 6.323-2.213.917.917 0 1 0 .237-1.818 9.674 9.674 0 0 0-7.9 2.687 16.678 16.678 0 0 0-1.5 1.818 8.022 8.022 0 0 1-2.45 2.45 8.284 8.284 0 0 1-4.268.553 18.082 18.082 0 0 0-2.924.079 9.165 9.165 0 0 0-5.612 3.161 20.841 20.841 0 0 0-1.818 2.766c-.869 1.5-1.66 2.845-2.924 3.478a1.027 1.027 0 0 0-.474 1.265.972.972 0 0 0 .869.553z" transform="translate(-144.818 -131.833)"/>
            <path id="path1733" d="M516.554 326.608a10.82 10.82 0 0 0-10.354 1.422c-.632.474-1.265 1.107-1.9 1.66-1.186 1.107-2.292 2.213-3.715 2.529a9.414 9.414 0 0 1-2.608.079 9.537 9.537 0 0 0-3.636.237 9.422 9.422 0 0 0-3.4 2.371 7.068 7.068 0 0 1-2.371 1.818 7.613 7.613 0 0 1-3.32.237 10.775 10.775 0 0 0-3.557.158 5.943 5.943 0 0 0-4.11 3.873.984.984 0 0 0 .632 1.186c.079 0 .158.079.237.079a.847.847 0 0 0 .869-.711 3.845 3.845 0 0 1 2.766-2.608 12.331 12.331 0 0 1 3-.158 9.145 9.145 0 0 0 4.11-.4 8.692 8.692 0 0 0 3-2.292 8.124 8.124 0 0 1 2.608-1.9 8.738 8.738 0 0 1 2.924-.158 7.91 7.91 0 0 0 7.746-3.082 10.3 10.3 0 0 1 1.739-1.5 8.98 8.98 0 0 1 8.457-1.107 1.068 1.068 0 0 0 1.265-.553.772.772 0 0 0-.382-1.18z" transform="translate(-172.864 -121.819)"/>
            <path id="path1735" d="M542.966 320.375a.952.952 0 0 0-1.265.474 5.439 5.439 0 0 1-1.739 2.45 3.669 3.669 0 0 1-1.581.632 14.782 14.782 0 0 1-3.715.553.876.876 0 0 0-.869 1.027.949.949 0 0 0 .948.869h.079a17.308 17.308 0 0 0 4.11-.632 6.678 6.678 0 0 0 2.134-.948 8.045 8.045 0 0 0 2.371-3.241.844.844 0 0 0-.474-1.186z" transform="translate(-184.883 -120.712)"/>
            <path id="path1737" d="M515.741 339.389a.984.984 0 0 0-1.186.632A3.405 3.405 0 0 1 512.1 342a11.855 11.855 0 0 1-3.478.316 6.8 6.8 0 0 1-1.265-.079c-2.213-.079-4.505-.237-6.56.869a14.538 14.538 0 0 0-1.739 1.344l-.4.316c-.553.553-1.107 1.027-1.66 1.5-.237.237-.553.474-.79.711a.979.979 0 0 0-.079 1.344.858.858 0 0 0 .711.316.9.9 0 0 0 .632-.237 3.1 3.1 0 0 1 .79-.632c.553-.474 1.186-1.027 1.66-1.5l.4-.316a7.6 7.6 0 0 1 1.344-1.027c1.581-.869 3.557-.79 5.612-.632.4 0 .869.079 1.265.079a13.057 13.057 0 0 0 4.031-.316 5.054 5.054 0 0 0 3.715-3.24c.237-.711 0-1.265-.553-1.423z" transform="translate(-176.724 -124.6)"/>
            <path id="path1739" d="M369.957 241.414a24.756 24.756 0 0 1 2.529-1.186 1.651 1.651 0 0 1 1.027-.158 3.52 3.52 0 0 1 .948.474 9.953 9.953 0 0 0 6.876.948l.948-.237a4.384 4.384 0 0 1 1.344-.237 6.186 6.186 0 0 1 3 1.581c.237.158.474.4.711.553a6.023 6.023 0 0 0 3.478 1.265 3.035 3.035 0 0 0 2.213-.869.952.952 0 0 0-1.265-1.423c-.711.711-2.213.237-3.32-.553-.237-.158-.4-.316-.632-.474a7.2 7.2 0 0 0-4.11-1.976 7.327 7.327 0 0 0-1.9.316 2.841 2.841 0 0 1-.869.158 7.89 7.89 0 0 1-5.533-.79 7.322 7.322 0 0 0-1.581-.711 3.423 3.423 0 0 0-1.9.316h-.079c-.869.4-1.739.79-2.687 1.265a.921.921 0 0 0-.4 1.265.8.8 0 0 0 1.202.473z" transform="translate(-149.063 -103.894)"/>
            <path id="path1741" d="M375.4 230.478h.158a5 5 0 0 1 3.557 0c.237.079.474.316.79.474a3.346 3.346 0 0 0 .553.4 6.753 6.753 0 0 0 3.715 1.027 6.94 6.94 0 0 0 3.715-1.027.976.976 0 0 0-1.027-1.66 5.071 5.071 0 0 1-5.374 0 1.388 1.388 0 0 1-.4-.316 5.3 5.3 0 0 0-1.107-.711c-1.581-.869-3.4-.474-4.821-.158H375a.913.913 0 0 0-.711 1.107c.158.711.632 1.027 1.107.869z" transform="translate(-150.227 -101.865)"/>
            <path id="path1743" d="M217.959 79.687c-.711 1.265-2.213 1.9-3.794 2.529-1.818.79-3.715 1.581-4.742 3.4a9.439 9.439 0 0 0-.79 3.873c-.158 1.818-.237 3.557-.316 5.3s-.158 3.478-.316 5.3a1.028 1.028 0 0 0 .869 1.027h.079a.949.949 0 0 0 .948-.869c.158-1.818.237-3.557.316-5.3s.158-3.478.316-5.3a8.481 8.481 0 0 1 .553-3c.711-1.265 2.213-1.9 3.794-2.529 1.818-.79 3.636-1.581 4.742-3.32a8.778 8.778 0 0 0 .553-1.265c.158-.316.237-.632.4-.948a4.836 4.836 0 0 1 5.454-2.529.978.978 0 1 0 .474-1.9 6.85 6.85 0 0 0-7.588 3.557 3.726 3.726 0 0 0-.474 1.186c-.237.158-.316.474-.474.79z" transform="translate(-114.089 -70.351)"/>
            <path id="path1745" d="M202.986 85.758a.475.475 0 0 0 .316-.079.879.879 0 0 0 .553-1.186 3.628 3.628 0 0 1 1.581-3.952c.4-.237.948-.474 1.423-.711a10.569 10.569 0 0 0 2.292-1.186 9.1 9.1 0 0 0 2.529-3.4l.158-.4a8.1 8.1 0 0 1 1.581-2.529.077.077 0 0 0 .079-.079 2.67 2.67 0 0 1 2.45-.869.95.95 0 0 0 .553-1.818 4.388 4.388 0 0 0-4.426 1.344 9.307 9.307 0 0 0-1.976 3.082l-.158.4a6.869 6.869 0 0 1-1.976 2.766 7.8 7.8 0 0 1-1.818.948 8.93 8.93 0 0 0-1.739.869 5.535 5.535 0 0 0-2.371 6.165 1.027 1.027 0 0 0 .948.632z" transform="translate(-112.733 -69.387)"/>
            <path id="path1747" d="M516.933 236.508c-.474.079-.948-.474-1.581-1.265-.158-.158-.237-.316-.4-.4a9.032 9.032 0 0 0-8.378-3 21.193 21.193 0 0 0-2.134.553c-1.423.4-2.845.869-4.031.474s-1.976-1.5-2.845-2.608a16.678 16.678 0 0 0-1.5-1.818 9.648 9.648 0 0 0-6.165-2.766 19.435 19.435 0 0 0-2.213.158 17.19 17.19 0 0 1-1.976.079 8.709 8.709 0 0 1-8.3-7.429.917.917 0 1 0-1.818.237 10.8 10.8 0 0 0 10.2 9.168 19.436 19.436 0 0 0 2.213-.158 17.19 17.19 0 0 1 1.976-.079 7.7 7.7 0 0 1 4.9 2.134 15.266 15.266 0 0 1 1.344 1.66c1.027 1.344 2.055 2.687 3.794 3.24a8.781 8.781 0 0 0 5.137-.4 11.041 11.041 0 0 1 1.9-.474 7.219 7.219 0 0 1 6.639 2.371c.079.158.237.237.316.4a4.121 4.121 0 0 0 3 1.9h.158a.876.876 0 0 0 .869-1.027c-.158-.632-.553-1.027-1.107-.948z" transform="translate(-172.457 -99.692)"/>
            <path id="path1749" d="M513.467 247.2c-.237-.158-.474-.4-.711-.553a9.22 9.22 0 0 0-2.056-1.347 8.649 8.649 0 0 0-4.663-.4c-.474.079-1.027.079-1.5.158a10.527 10.527 0 0 1-9.405-5.3.937.937 0 1 0-1.66.869 12.354 12.354 0 0 0 11.144 6.244 9.732 9.732 0 0 0 1.581-.158 7.258 7.258 0 0 1 3.715.237 6.408 6.408 0 0 1 1.581 1.107c.237.237.553.4.79.632a12.843 12.843 0 0 0 7.983 2.845 9.892 9.892 0 0 0 5.691-1.66.989.989 0 0 0 .237-1.344.921.921 0 0 0-1.344-.237c-3.4 2.45-8.3 1.265-11.381-1.107z" transform="translate(-176.26 -104.123)"/>
            <path id="path1751" d="M310.407 410.454c1.739-1.818 3.4-3.478 5.533-3.557a.961.961 0 0 0 .948-.948 1.02 1.02 0 0 0-.948-.948c-2.924.079-4.9 2.134-6.876 4.11a14.2 14.2 0 0 1-4.268 3.4c-2.529 1.107-5.3.4-8.22-.4-1.107-.316-2.213-.553-3.241-.79a21.186 21.186 0 0 0-10.2.632c-.869.316-1.66.632-2.45.948a25.867 25.867 0 0 1-4.584 1.5 10.527 10.527 0 0 1-10.271-4.501.965.965 0 0 0-1.581 1.107 12.285 12.285 0 0 0 10.2 5.454 18.064 18.064 0 0 0 1.976-.158 21.511 21.511 0 0 0 4.979-1.581c.79-.316 1.581-.632 2.371-.869a18.394 18.394 0 0 1 9.247-.632c1.027.158 2.055.474 3.161.711 3.161.79 6.4 1.66 9.484.316a15.468 15.468 0 0 0 4.742-3.794z" transform="translate(-126.393 -138.016)"/>
            <path id="path1753" d="M350.37 413.575a.95.95 0 0 0-1.818-.553c-.948 3.24-5.137 4.505-8.457 4.505-1.107 0-2.292-.079-3.478-.079-2.687-.158-5.533-.316-8.22.632a19.446 19.446 0 0 0-5.533 3.32c-.474.316-.948.711-1.423 1.027-2.687 1.818-4.742 2.529-6.718 2.292a.917.917 0 0 0-.237 1.818c.316 0 .632.079.948.079 2.766 0 5.374-1.5 7.113-2.687.474-.316.948-.711 1.423-1.027a19.439 19.439 0 0 1 5.058-3 19.667 19.667 0 0 1 7.508-.553 27.615 27.615 0 0 0 3.636.079c3.954-.005 8.934-1.585 10.198-5.853z" transform="translate(-137.149 -139.505)"/>
            <path id="path1755" d="M308.881 296.727c-.158 1.818-.4 3.873-1.818 4.742a6.758 6.758 0 0 1-3 .632 7.022 7.022 0 0 0-4.11 1.107c-1.581 1.265-1.818 3.161-2.055 4.9l-.079.553c-.158 1.423-.632 3.241-1.976 3.557a3.2 3.2 0 0 1-1.5 0 8.59 8.59 0 0 0-1.423-.079 5.943 5.943 0 0 0-4.979 4.663 14.9 14.9 0 0 0 .158 5.928l.079.4a.939.939 0 0 0 .948.79h.158a.928.928 0 0 0 .79-1.107l-.079-.4a12.942 12.942 0 0 1-.158-5.216 4.141 4.141 0 0 1 3.24-3.241 5.6 5.6 0 0 1 1.107.079 5.232 5.232 0 0 0 2.213-.079c1.818-.474 2.924-2.213 3.32-5.137l.079-.632c.158-1.5.316-2.924 1.344-3.636a5.632 5.632 0 0 1 3-.711 8.082 8.082 0 0 0 3.952-.948c2.292-1.423 2.529-4.505 2.687-6.165a.913.913 0 0 0-.869-1.027 1.1 1.1 0 0 0-1.027 1.027z" transform="translate(-131.437 -115.609)"/>
            <path id="path1757" d="M291.063 291.691a4.639 4.639 0 0 0-2.134 3.478 19.355 19.355 0 0 0-.237 4.268.949.949 0 0 0 .948.869h.079a.876.876 0 0 0 .869-1.027 15.324 15.324 0 0 1 .237-3.794 2.918 2.918 0 0 1 1.186-2.213 3.479 3.479 0 0 1 1.9-.237h1.5c1.739-.158 3.161-1.344 4.426-2.292a8.176 8.176 0 0 0 2.134-2.213 3.409 3.409 0 0 0 .158-3.557.854.854 0 0 0-1.265-.316.93.93 0 0 0-.316 1.265 1.785 1.785 0 0 1-.158 1.66 6.074 6.074 0 0 1-1.739 1.739 7.757 7.757 0 0 1-3.4 1.9 5.942 5.942 0 0 1-1.186 0 5.619 5.619 0 0 0-3 .474z" transform="translate(-131.616 -113.36)"/>
            <path id="path1759" d="M544.519 99.746l.158.079a7.2 7.2 0 0 1 4.9 7.9 21.818 21.818 0 0 1-.632 2.134 9.756 9.756 0 0 0-.79 4.979c.474 2.292 2.292 3.636 4.11 4.979a12.759 12.759 0 0 1 3 2.766c1.265 1.976.869 4.584.553 7.192-.079.632-.158 1.265-.237 1.818-.4 3.873.869 8.3 4.505 9.168h.237a1.107 1.107 0 0 0 .948-.711.976.976 0 0 0-.711-1.107c-2.687-.632-3.32-4.584-3.082-7.113.079-.553.158-1.186.237-1.818.4-2.766.79-5.928-.869-8.457a13.894 13.894 0 0 0-3.478-3.32c-1.581-1.186-3-2.213-3.32-3.794a8.4 8.4 0 0 1 .711-4.031 22.166 22.166 0 0 0 .711-2.45 9.218 9.218 0 0 0-6.165-10.117l-.158-.079c-.237-.079-.79-.237-.869-.4a.077.077 0 0 0-.079-.079c-.079-.079-.079-.316 0-.79a45.832 45.832 0 0 1 1.739-8.931.95.95 0 1 0-1.818-.553 49.494 49.494 0 0 0-1.739 9.168 2.924 2.924 0 0 0 .4 2.213 2.014 2.014 0 0 0 1.739 1.344z" transform="translate(-186.81 -72.943)"/>
            <path id="path1761" d="M528.446 99.654a9.225 9.225 0 0 1 3.32 2.292c.948 1.186 1.265 2.845.948 5.374a9.683 9.683 0 0 0-.158 1.5 15.882 15.882 0 0 0-.158 5.137 8.74 8.74 0 0 0 5.612 6.639.475.475 0 0 0 .316.079.925.925 0 0 0 .869-.632.94.94 0 0 0-.553-1.186 7.093 7.093 0 0 1-4.347-5.216 15.044 15.044 0 0 1 .237-4.584 9.683 9.683 0 0 0 .158-1.5c.237-1.9.316-4.663-1.423-6.8a12.027 12.027 0 0 0-3.873-2.766c-1.66-.869-3.082-1.581-3.636-3.082a5.865 5.865 0 0 1 .158-3.478c.316-1.5.632-3 .948-4.426l.948-4.505a.93.93 0 0 0-1.818-.4c-.316 1.5-.632 3-.948 4.426-.316 1.5-.632 3-.948 4.426a8.223 8.223 0 0 0-.079 4.584c.632 2.213 2.529 3.161 4.426 4.11z" transform="translate(-182.736 -71.902)"/>
            <path id="path1763" d="M665.8 181.069l-.158-.079c-.316-.158-.4-.237-.474-.4-.316-.4.158-1.344.474-2.134a12.366 12.366 0 0 0-7.667-17.072.95.95 0 0 0-.553 1.818 10.12 10.12 0 0 1 6.478 5.698 10.746 10.746 0 0 1-.079 8.694c-.553 1.107-1.265 2.687-.316 4.031a3.844 3.844 0 0 0 1.107.869l.158.079a7.826 7.826 0 0 1 2.608 9.88c-.316.553-.711 1.107-1.107 1.739a8.7 8.7 0 0 0-2.055 4.584.913.913 0 0 0 .948.948.961.961 0 0 0 .948-.948 7.136 7.136 0 0 1 1.739-3.557c.4-.632.869-1.186 1.265-1.9 2.213-3.952.711-9.722-3.32-12.251z" transform="translate(-211.778 -88.154)"/>
            <path id="path1765" d="M683.483 179.795l-.237-.158a1.827 1.827 0 0 1-1.027-2.371 22.558 22.558 0 0 0-2.687-13.2.937.937 0 1 0-1.66.869 20.857 20.857 0 0 1 2.529 12.093 4.593 4.593 0 0 0 .158 2.292 4.65 4.65 0 0 0 1.66 1.818l.237.158a10.284 10.284 0 0 1 2.608 12.962.969.969 0 0 0 .316 1.265 1.123 1.123 0 0 0 .474.158.869.869 0 0 0 .79-.474 12.249 12.249 0 0 0-3.161-15.412z" transform="translate(-216.183 -88.615)"/>
        </g>
    </g>
</svg>
