<svg xmlns="http://www.w3.org/2000/svg" width="33.002" height="41.002" viewBox="0 0 33.002 41.002">
    <defs>
        <style>
            .cls-1{fill:#fff}
        </style>
    </defs>
    <g id="logo_touched" transform="translate(.002)">
        <g id="g163">
            <g id="g113" transform="translate(25.489 16.081)">
                <path id="Path_1377" d="M91.879 69.319c2.235 1.636 3.641 2.12 4 2-.04-.479-1.848-2.843-5-4l1-1a11.438 11.438 0 0 1 4 3l1-1a10.339 10.339 0 0 0-2-2 7.084 7.084 0 0 0-4-1 8.355 8.355 0 0 0-1 0c-.2.04.12-.16 0 0a8.361 8.361 0 0 1 0 1c0 .04.04-.04 0 0-.119.639.121 1.643 2 3z" class="cls-1" data-name="Path 1377" transform="translate(-89.368 -65.4)"/>
            </g>
            <g id="g117" transform="translate(20.155 26.695)">
                <path id="path115" d="M76.845 92.305c-.239.2-.481-.04-1 0 .239.758 2.923 3.04 4 3 .2-.04.721-.641 1-1a12.551 12.551 0 0 1-4-2z" class="cls-1" transform="translate(-76 -92)"/>
            </g>
            <g id="g121" transform="translate(20.902 15.682)">
                <path id="path119" d="M78.972 64.718c-.239-.239-.721.239-1 0-.4.638-.436 1.885 1 4a4.75 4.75 0 0 0 1 1c.439-1 .721-2.242 1-3a9.452 9.452 0 0 0-2-2z" class="cls-1" transform="translate(-77.874 -64.4)"/>
            </g>
            <g id="g125" transform="translate(21.631 18.116)">
                <path id="path123" d="M83.069 80.384a52.356 52.356 0 0 1 6-6c-1-.239-2.683-.042-4-1a7.069 7.069 0 0 1-2-3 40.668 40.668 0 0 1-3 7 7.447 7.447 0 0 0 3 3z" class="cls-1" transform="translate(-79.7 -70.5)"/>
            </g>
            <g id="g129" transform="translate(20.152 10.654)">
                <path id="path127" d="M76.841 52.146c-.239-.2.2.16 0 0-.239.239-.96.4-1 1-.04.8.082 1.122 1 2 .439.439 1.561 1.6 2 2a7.875 7.875 0 0 1 1 1c.16-.4.92-.84 1-1 .04-.12-.08.08 0 0a2.993 2.993 0 0 1 1-1c-.917-1.397-3.723-2.963-5-4z" class="cls-1" transform="translate(-75.993 -51.8)"/>
            </g>
            <g id="g133" transform="translate(20.172 5.546)">
                <path id="path131" d="M83.871 47.453c0-1.317-1.808-4.007-5-7-.6-.559-1.322-.362-2-1-.4.4-.92.362-1 1a4.217 4.217 0 0 0 1 3c.2.16.6-.319 1 0 1.476 1.237 4.082 3.444 5 5 .239 0-.239-.04 0 0 .12-.12.88.16 1 0 .399-.399 0-.601 0-1z" class="cls-1" transform="translate(-76.043 -39)"/>
            </g>
            <g id="g137" transform="translate(11.496 24.277)">
                <path id="path135" d="M59.8 86.663c-.878-1.2-2.125-1.12-4-1-.359.04-1.6-.04-2 0 .16.758 1.327 2.521 4 3a4.97 4.97 0 0 0 3 0c-.634-.319-.557-1.363-1-2z" class="cls-1" transform="translate(-54.3 -85.94)"/>
            </g>
            <g id="g141" transform="translate(3.75 17.1)">
                <path id="path139" d="M46.138 68.855c-1-.958-3.451-1.16-8-1-.878.04-2 0-3 0-.04.6-.439 1.481 0 2a3.939 3.939 0 0 0 3 1 4.058 4.058 0 0 0 1 0c2.913-.279 6.484-.678 8 0 0-.4-1-.561-1-1 0-.519.279-.721 0-1z" class="cls-1" transform="translate(-34.888 -67.956)"/>
            </g>
            <g id="g145" transform="translate(20.342)">
                <path id="path143" d="M88.128 39.1c0-2.115-2.965-4.965-5-7-3.831-3.751-5.481-6-6-7a2.86 2.86 0 0 0-1 2 4.1 4.1 0 0 0 1 3c.8.758 2.282 1.322 3 2 3.591 3.392 4.96 5.284 5 7 0 .6-.521.481-1 1a11.694 11.694 0 0 1 2 1h1a2.569 2.569 0 0 0 1-2z" class="cls-1" transform="translate(-76.47 -25.1)"/>
            </g>
            <g id="g149" transform="translate(7.346 20.809)">
                <path id="path147" d="M51.554 77.44c-1.037-.918-5-.2-7 0a8.294 8.294 0 0 1-1 0 5.856 5.856 0 0 0 1 2c.559.638 1.643 0 3 0 .638 0 1.4.04 2 0 1.237-.08 1.963.641 3 1-.16-.559.12-1.282 0-2a11.786 11.786 0 0 0-1-1z" class="cls-1" transform="translate(-43.9 -77.249)"/>
            </g>
            <g id="g157" transform="translate(11.456 28.012)">
                <path id="path155" d="M54.744 102.288a5.928 5.928 0 0 0-1 1c0 .319-.035 1.4 2 3a10.2 10.2 0 0 0 5 2c.2 0-.04-.8 0-1a49.34 49.34 0 0 1 5-9c-1.2-.479-2.362-2.082-3-3a92.035 92.035 0 0 1-8 7z" class="cls-1" transform="translate(-54.2 -95.3)"/>
            </g>
            <g id="g161" transform="translate(0 12.928)">
                <path id="path159" d="M45.491 70.571c.16 0-.12.04 0 0-1.875-1.4-2-3.331-2-8 0-1.077.6-2.4 0-3-1.516-1.476-5.127-1-8-1-5.028 0-8.484-.441-10-1a2.714 2.714 0 0 0 1 2 2.07 2.07 0 0 0 2 1c1.117-.04 2.042.04 3 0 1.636-.04 3.843 0 5 0 2.554 0 4.122.162 5 1 .479.479 0 1.2 0 2 0 .878.92 1.362 1 2 .518 3.951 2.082 4.881 3 5z" class="cls-1" transform="translate(-25.491 -57.5)"/>
            </g>
        </g>
    </g>
</svg>
