<svg xmlns="http://www.w3.org/2000/svg" width="53.07" height="65.36" viewBox="0 0 53.07 65.36">
    <defs>
        <style>
            .cls-1{fill:#fff}
        </style>
    </defs>
    <g id="logo_touched">
        <g id="g163">
            <g id="g113" transform="translate(41.036 25.889)">
                <path id="Path_1377" d="M93.372 71.7c3.6 2.634 6.3 2.827 6.874 2.634-.064-.771-2.7-3.662-7.773-5.525l.514-1.413a20.975 20.975 0 0 1 7.131 4.24l1.285-1.285a20.5 20.5 0 0 0-3.469-2.827 12.86 12.86 0 0 0-6.488-2.12 4.994 4.994 0 0 0-1.028.128 1.591 1.591 0 0 0-.9.514.063.063 0 0 1-.064.064c0 .064 0 .064-.064.128-.19 1.025.962 3.273 3.982 5.462z" class="cls-1" data-name="Path 1377" transform="translate(-89.368 -65.4)"/>
            </g>
            <g id="g117" transform="translate(32.448 42.978)">
                <path id="path115" d="M77.927 92a3.57 3.57 0 0 1-1.927.707c.385 1.221 4.3 4.5 6.039 4.433a4.488 4.488 0 0 0 1.478-1.349A17.57 17.57 0 0 1 77.927 92z" class="cls-1" transform="translate(-76 -92)"/>
            </g>
            <g id="g121" transform="translate(33.652 25.247)">
                <path id="path119" d="M79.882 65.556a22.906 22.906 0 0 0-1.285-1.156c-.642 1.028-1.542 3.341.771 6.745a8.684 8.684 0 0 0 1.606 1.8c.707-1.606 1.349-3.148 1.8-4.368a12.561 12.561 0 0 0-2.892-3.021z" class="cls-1" transform="translate(-77.874 -64.4)"/>
            </g>
            <g id="g125" transform="translate(34.825 29.166)">
                <path id="path123" d="M84.968 86.5a69.921 69.921 0 0 1 9.957-9 17.139 17.139 0 0 1-5.846-2.827 12.374 12.374 0 0 1-3.918-4.173A78.347 78.347 0 0 1 79.7 82.256c.257 1.092 3.6 3.598 5.268 4.244z" class="cls-1" transform="translate(-79.7 -70.5)"/>
            </g>
            <g id="g129" transform="translate(32.444 17.153)">
                <path id="path127" d="M77.989 52.7a84.177 84.177 0 0 0-1.092-.9 3.235 3.235 0 0 0-.9 2.056 5.494 5.494 0 0 0 2.056 4.111c.707.707 1.413 1.349 2.12 1.992a31.544 31.544 0 0 1 2.57 2.441c.257-.642.385-1.156.514-1.413a1.291 1.291 0 0 1 .257-.514 2.911 2.911 0 0 1 1.349-1.092c-1.478-2.248-4.818-5.011-6.874-6.681z" class="cls-1" transform="translate(-75.993 -51.8)"/>
            </g>
            <g id="g133" transform="translate(32.476 8.93)">
                <path id="path131" d="M88.992 52.105c0-2.12-3.4-5.332-8.544-10.15-.964-.9-2.056-1.927-3.148-2.955a4.218 4.218 0 0 0-1.221 2.505 5.151 5.151 0 0 0 1.413 4.176c.321.257.9.771 1.542 1.285 2.377 1.992 5.975 5.011 7.452 7.516l-.128.064a6.983 6.983 0 0 1 1.156.064 5.791 5.791 0 0 0 .578-.642 2.551 2.551 0 0 0 .9-1.863z" class="cls-1" transform="translate(-76.043 -39)"/>
            </g>
            <g id="g137" transform="translate(18.508 39.084)">
                <path id="path135" d="M62.78 87.649c-1.413-1.927-3.662-1.8-6.681-1.606-.578.064-1.156.064-1.8.128.257 1.221 1.285 3.662 5.589 4.433a9.256 9.256 0 0 0 5.461-.642 6.783 6.783 0 0 1-2.569-2.313z" class="cls-1" transform="translate(-54.3 -85.94)"/>
            </g>
            <g id="g141" transform="translate(6.037 27.531)">
                <path id="path139" d="M53.14 69.269c-1.606-1.542-6.424-1.413-13.748-1.156a97.047 97.047 0 0 1-4.5.128A3.845 3.845 0 0 0 35.859 71a5.194 5.194 0 0 0 4.111 1.992 15.153 15.153 0 0 0 2.056-.193c4.69-.45 9.379-.771 11.821.321 0-.642-.064-1.285-.064-1.991a2.439 2.439 0 0 0-.643-1.86z" class="cls-1" transform="translate(-34.888 -67.956)"/>
            </g>
            <g id="g145" transform="translate(32.75)">
                <path id="path143" d="M94.862 46.942c0-3.4-3.79-7.067-7.067-10.343l-.128-.128c-6.167-6.039-8.608-9.765-9.443-11.371a5.167 5.167 0 0 0-1.735 3.4 4.724 4.724 0 0 0 1.542 3.983 748.912 748.912 0 0 0 3.6 3.4c5.782 5.461 8.994 8.48 9.058 11.242a3.918 3.918 0 0 1-1.156 2.7 16.424 16.424 0 0 1 3.212 1.221l.45-.45a5.071 5.071 0 0 0 1.67-3.662z" class="cls-1" transform="translate(-76.47 -25.1)"/>
            </g>
            <g id="g149" transform="translate(11.827 33.501)">
                <path id="path147" d="M57.005 78.181c-1.67-1.478-8.416-.835-11.628-.514-.578.064-1.092.128-1.478.128a3.743 3.743 0 0 0 .835 2.184c.9 1.028 2.377 1.542 4.561 1.542 1.028 0 2.056-.064 3.019-.128a14.546 14.546 0 0 1 5.589.321 28.609 28.609 0 0 1-.642-3.084c.001-.13-.061-.256-.256-.449z" class="cls-1" transform="translate(-43.9 -77.249)"/>
            </g>
            <g id="g157" transform="translate(18.443 45.098)">
                <path id="path155" d="M54.393 107.121a.388.388 0 0 0-.193.385c0 .514 0 3.341 3.276 5.91a9.573 9.573 0 0 0 6.745 2.12h.128a.626.626 0 0 0 .642-.514 72.021 72.021 0 0 1 7.516-15.611 13.38 13.38 0 0 1-5.2-4.111c-5.655 5.718-11.244 10.407-12.914 11.821z" class="cls-1" transform="translate(-54.2 -95.3)"/>
            </g>
            <g id="g161" transform="translate(0 20.814)">
                <path id="path159" d="M56.975 78.828c.257 0 .45.064.578.064a2.409 2.409 0 0 0 .707-.064c-3.019-2.248-3.019-4.947-3.019-12.463v-1.22a5.3 5.3 0 0 0-1.413-3.983c-2.441-2.377-7.645-2.377-12.27-2.377h-.771c-8.094 0-12.848-.385-15.29-1.285a5.189 5.189 0 0 0 1.285 3.726 4.9 4.9 0 0 0 4.047 1.8c1.8-.064 3.533-.128 5.075-.193 2.634-.064 4.882-.193 6.745-.193 4.111 0 6.681.385 8.094 1.735a4.017 4.017 0 0 1 1.157 3.018 31.152 31.152 0 0 0 .193 3.726v.128c.835 6.36 3.4 7.388 4.882 7.581z" class="cls-1" transform="translate(-25.491 -57.5)"/>
            </g>
        </g>
    </g>
</svg>
