<svg xmlns="http://www.w3.org/2000/svg" width="1525.709" height="937.001" viewBox="0 0 1525.709 937.001">
    <defs>
        <style>
            .cls-1{opacity:.126}.cls-2,.cls-3,.cls-4,.cls-5,.cls-6,.cls-7,.cls-8,.cls-9{fill:#f5f9ff;fill-rule:evenodd}.cls-2{opacity:.255}.cls-3{opacity:.26}.cls-4{opacity:.25}.cls-5{opacity:.254}.cls-6{opacity:.207}.cls-7{opacity:.221}.cls-8{opacity:.272}.cls-9{opacity:.214}
        </style>
    </defs>
    <g id="ornament" class="cls-1" transform="translate(111.416 .963)">
        <g id="Homepage" transform="translate(-111.416 -.963)">
            <g id="Header">
                <g id="Ornaments">
                    <g id="Ornament-group">
                        <path id="Path-9-Copy-19" d="M917.675 393.042l69.513-34.394 56.646 27.573-70.82 35.7z" class="cls-2" transform="translate(-91.207 -35.473)"/>
                        <path id="Path-9-Copy-24" d="M380.542 737.508l129.622-64.135 105.628 51.417-132.057 66.57z" class="cls-3" transform="translate(-38.13 -66.573)"/>
                        <path id="Path-9-Copy-26" d="M640.323 758.1l72.332-35.788L771.6 751l-73.691 37.147z" class="cls-3" transform="translate(-63.8 -71.408)"/>
                        <path id="Path-9-Copy-37" d="M640.323 758.1l72.332-35.788L771.6 751l-73.691 37.147z" class="cls-4" transform="translate(-63.8 -71.408)"/>
                        <path id="Path-9-Copy-28" d="M.584 563.118l129.622-64.134L235.834 550.4l-132.057 66.57z" class="cls-5" transform="translate(-.584 -49.34)"/>
                        <path id="Path-9-Copy-29" d="M726.626 153.516l129.622-64.134L961.876 140.8l-132.057 66.57z" class="cls-5" transform="translate(-72.328 -8.865)"/>
                        <path id="Path-9-Copy-27" d="M668.746 629.31l58.218-28.81 47.442 23.1-59.312 29.9z" class="cls-3" transform="translate(-66.609 -59.372)"/>
                        <path id="Path-9-Copy-31" d="M55.519 640.85l58.219-28.805 47.442 23.093-59.312 29.9z" class="cls-3" transform="translate(-6.013 -60.512)"/>
                        <path id="Path-9-Copy-32" d="M431.773 803.7l58.219-28.8 47.442 23.093-59.312 29.9z" class="cls-3" transform="translate(-43.192 -76.605)"/>
                        <path id="Path-9-Copy-33" d="M261.629 686.165l30.959-15.318 25.228 12.28-31.54 15.9z" class="cls-3" transform="translate(-26.379 -66.323)"/>
                        <path id="Path-9-Copy-34" d="M137.789 131.774l47.16-23.334 38.431 18.707-48.047 24.22z" class="cls-3" transform="translate(-14.142 -10.749)"/>
                        <path id="Path-9-Copy-35" d="M96.654 140.543l47.16-23.334 38.431 18.707-48.045 24.22z" class="cls-3" transform="translate(-10.077 -11.615)"/>
                        <path id="Path-9-Copy-36" d="M1407.237 53.14l47.16-23.334 38.431 18.707-48.047 24.22z" class="cls-3" transform="translate(-139.583 -2.978)"/>
                        <path id="Path-9-Copy-25" d="M1384.923 75.871L1538.19.037l124.9 60.8-156.148 78.714z" class="cls-6" transform="translate(-137.378 -.037)"/>
                        <path id="Path-9-Copy-20" d="M954.168 360.7l33.272-16.462 27.113 13.2-33.9 17.087z" class="cls-2" transform="translate(-94.813 -34.05)"/>
                        <path id="Path-9-Copy-15" d="M860.288 686.641l63.252-31.3 51.544 25.09-64.441 32.485z" class="cls-7" transform="translate(-85.536 -64.791)"/>
                        <path id="Path-9-Copy-17" d="M831.217 628.615l33.49-16.57L892 625.329l-34.12 17.2z" class="cls-2" transform="translate(-82.663 -60.512)"/>
                        <path id="Path-9-Copy-21" d="M1085.532 232.36l54.663-27.046L1184.74 227l-55.69 28.073z" class="cls-2" transform="translate(-107.794 -20.321)"/>
                        <path id="Path-9-Copy-23" d="M1481.719 408.525l83.065-41.1 67.689 32.949-84.626 42.66z" class="cls-2" transform="translate(-146.943 -36.34)"/>
                        <path id="Path-9-Copy-18" d="M1498.882 699.186l70.569-34.916 57.506 27.992-71.895 36.238z" class="cls-8" transform="translate(-148.639 -65.673)"/>
                        <path id="Path-9-Copy-22" d="M1465.172 703.353l36.786-18.2 29.977 14.592-37.477 18.892z" class="cls-9" transform="translate(-145.308 -67.737)"/>
                        <path id="Path-9-Copy-26-2" d="M188.828 1002.51l72.332-35.788 58.94 28.691-73.691 37.148z" class="cls-3" data-name="Path-9-Copy-26" transform="translate(-19.186 -95.56)"/>
                        <path id="Path-9-Copy-37-2" d="M188.828 1002.51l72.332-35.788 58.94 28.691-73.691 37.148z" class="cls-4" data-name="Path-9-Copy-37" transform="translate(-19.186 -95.56)"/>
                        <path id="Path-9-Copy-26-3" d="M41.342 889.013l72.332-35.789 58.943 28.691-73.692 37.148z" class="cls-3" data-name="Path-9-Copy-26" transform="translate(-4.612 -84.345)"/>
                        <path id="Path-9-Copy-37-3" d="M41.342 889.013l72.332-35.789 58.943 28.691-73.692 37.148z" class="cls-4" data-name="Path-9-Copy-37" transform="translate(-4.612 -84.345)"/>
                    </g>
                </g>
            </g>
        </g>
    </g>
</svg>
