<?xml version="1.0" encoding="UTF-8" standalone="no"?>
<!-- Generator: Adobe Illustrator 21.0.0, SVG Export Plug-In . SVG Version: 6.00 Build 0)  -->

<svg
   xmlns:dc="http://purl.org/dc/elements/1.1/"
   xmlns:cc="http://creativecommons.org/ns#"
   xmlns:rdf="http://www.w3.org/1999/02/22-rdf-syntax-ns#"
   xmlns:svg="http://www.w3.org/2000/svg"
   xmlns="http://www.w3.org/2000/svg"
   xmlns:sodipodi="http://sodipodi.sourceforge.net/DTD/sodipodi-0.dtd"
   xmlns:inkscape="http://www.inkscape.org/namespaces/inkscape"
   version="1.1"
   id="Layer_1"
   x="0px"
   y="0px"
   viewBox="0 0 151.36819 167.2394"
   xml:space="preserve"
   sodipodi:docname="scroll-big-together.svg"
   width="151.36819"
   height="167.2394"
   inkscape:version="0.92.4 (33fec40, 2019-01-16)"><metadata
   id="metadata962"><rdf:RDF><cc:Work
       rdf:about=""><dc:format>image/svg+xml</dc:format><dc:type
         rdf:resource="http://purl.org/dc/dcmitype/StillImage" /><dc:title></dc:title></cc:Work></rdf:RDF></metadata><defs
   id="defs960" /><sodipodi:namedview
   pagecolor="#ffffff"
   bordercolor="#666666"
   borderopacity="1"
   objecttolerance="10"
   gridtolerance="10"
   guidetolerance="10"
   inkscape:pageopacity="0"
   inkscape:pageshadow="2"
   inkscape:window-width="3840"
   inkscape:window-height="2112"
   id="namedview958"
   showgrid="false"
   fit-margin-top="0"
   fit-margin-left="0"
   fit-margin-right="0"
   fit-margin-bottom="0"
   inkscape:zoom="3.0583333"
   inkscape:cx="-92.39298"
   inkscape:cy="60.065828"
   inkscape:window-x="0"
   inkscape:window-y="48"
   inkscape:window-maximized="1"
   inkscape:current-layer="g955" />

<style
   type="text/css"
   id="style5">
	.st0{opacity:0.5;fill:#7CCFDD;enable-background:new    ;}
	.st1{opacity:0.56;fill:#FFFFFF;enable-background:new    ;}
	.st2{fill:#FFFFFF;}
	.st3{fill:#7CCFDD;}
</style>

<g
   id="g955"
   transform="translate(-344.27308,-191.36061)">
	
	
	
	
	
	
	
	
	
	<path
   class="st2"
   d="m 490.1,287.2 c -3.2,-7.6 -9.3,-13.9 -9.3,-13.9 l -3.6,3.7 c 0,0 -5,-6.8 -8.2,-4.7 -2.7,1.8 -17.1,17 -19.9,19.2 l -13.9,9.7 c 2.5,-12.7 18.4,-20.1 27,-26.9 9.9,-7.9 2.5,-24.6 -2.8,-31.3 -4.2,-5.4 -24.1,-34.6 -28,-41.1 -3.9,-6.5 -3.5,-9.2 -3.5,-9.2 -5.7,4 -3.4,15.5 -3.4,15.5 -4.7,4 -1.4,13.6 -1.4,13.6 -4.7,4.1 -2.2,11.5 -2.2,11.5 -6.6,4.6 -2.4,14.1 -2.4,14.1 -0.4,0.4 -0.7,0.8 -1,1.2 -5,-2.7 -10.6,-4.2 -13.6,-4.7 -6.7,-1.3 -41.6,-6.2 -49,-8.1 -7.4,-1.9 -9,-4 -9,-4 -1.2,6.9 8.5,13.4 8.5,13.4 -0.5,6.2 8.6,10.6 8.6,10.6 -0.4,6.2 6.6,9.7 6.6,9.7 -1.4,7.9 8.3,11.7 8.3,11.7 0.3,8.9 9.9,10.7 9.9,10.7 0.2,7.7 8.2,9.7 8.2,9.7 0,0 -0.8,4.6 5.6,8.7 6.5,4.1 24.1,-1 24.1,-1 0.2,0.1 0.3,0.2 0.5,0.3 -0.7,0.4 -1.2,0.8 -1.2,1 v 0 c -22.3,7.4 -43.7,12.3 -49.2,13.5 -1,0.2 -1.8,0.8 -2.3,1.7 -1.6,2.8 -4.2,9.6 0.9,19.9 1,2 2.1,3.8 3.1,5.4 l 5.2,-0.3 -1.5,4.8 c 3,3.1 5.9,4.8 8,5.8 1.5,0.7 3.3,0.4 4.5,-0.8 5.4,-5.2 22.2,-20.5 40.4,-29.8 0.4,0.3 0.8,0.6 1.3,0.8 1.6,0.7 8.2,-1.1 9.8,-3.6 v 0 c 0.3,-0.5 0.3,-1.6 0.3,-1.6 16.3,-7.4 45.6,-13.6 45.6,-13.6 0,-0.4 6.8,-3 -1,-21.6 z m -60.8,14.3 c 0.8,0.6 1.3,1 1.3,1 0.1,0.3 0.2,0.6 0.3,0.8 -0.1,0 -0.1,0 -0.2,0.1 -0.6,-0.6 -1,-1.3 -1.4,-1.9 z"
   id="path833"
   inkscape:connector-curvature="0"
   style="fill:#ffffff" />
	
	<path
   class="st3"
   d="m 430.2,323 c -1.6,-2.8 -5.4,-10 -6.3,-16.4 l -3,1 c 0,0 9.2,15.1 -4.9,22.8 v 0 c -5.4,2.9 -11.5,6.2 -17,9.4 -11.9,6.9 -26.7,-3.6 -26.7,-3.6 0,0 1.4,5.9 5.1,10.4 l 3.7,4.5 c 0,0 8.1,9.4 12.5,5 18.7,-18.8 40.8,-30 40.8,-30 l -3.8,-3.5 c 0.2,0.2 0,0.3 -0.4,0.4 z"
   id="path837"
   inkscape:connector-curvature="0"
   style="fill:#7ccfdd" />
	<path
   class="st3"
   d="m 423.9,277.9 c -4.4,27.7 10.1,27.8 10.1,27.8 -10.7,-7.6 -8.6,-19 -5.9,-39.5 2.7,-20.5 -20.6,-22.1 -48.4,-25.7 -27.8,-3.6 -33.9,-8.9 -33.9,-8.9 3.9,9 8.9,10.2 33,13 41.1,4.6 49.6,4.6 45.1,33.3 z"
   id="path839"
   inkscape:connector-curvature="0"
   style="fill:#7ccfdd" />
	<path
   class="st3"
   d="m 387.1,254.6 c 35.3,2.7 34.8,13.5 34.7,13.9 1.5,-13.4 -9.1,-16.1 -34.6,-18.8 -25.5,-2.8 -32.9,-4.9 -32.9,-4.9 0,0 -3.1,7.1 32.8,9.8 z"
   id="path841"
   inkscape:connector-curvature="0"
   style="fill:#7ccfdd" />
	<path
   class="st3"
   d="M 421.8,268.5 Z"
   id="path843"
   inkscape:connector-curvature="0"
   style="fill:#7ccfdd" />
	<path
   class="st3"
   d="m 375,261.8 c 10.2,0.2 35.8,2.5 45.9,10.8 0,0 6.1,-9.1 -22.1,-12.8 -28.2,-3.7 -36.2,-4.3 -36.2,-4.3 0,0 2.2,6.1 12.4,6.3 z"
   id="path845"
   inkscape:connector-curvature="0"
   style="fill:#7ccfdd" />
	<path
   class="st3"
   d="m 420.2,280.8 c 0,0 6.1,-8.5 -23,-12.2 -17.8,-2.3 -27.7,-3.4 -27.7,-3.4 0,0 1.9,4.9 8,5.7 6.1,0.7 35,1.5 42.7,9.9 z"
   id="path847"
   inkscape:connector-curvature="0"
   style="fill:#7ccfdd" />
	<path
   class="st3"
   d="m 397.8,282.5 c 20.6,1.3 22.6,6.7 22.6,6.7 -0.1,-8.4 -11,-10.7 -21.7,-11.2 -10.7,-0.5 -21,-2 -21,-2 0.5,4.2 6.6,5.7 20.1,6.5 z"
   id="path849"
   inkscape:connector-curvature="0"
   style="fill:#7ccfdd" />
	<path
   class="st3"
   d="m 431.1,262.9 c -1,-1.1 -1.9,-2.3 -2.8,-3.4 l -0.5,6.5 c 12.6,15.3 10.1,20.3 10.1,20.3 6,-5.8 0.2,-15.2 -6.8,-23.4 z"
   id="path851"
   inkscape:connector-curvature="0"
   style="fill:#7ccfdd" />
	<path
   class="st3"
   d="m 427.1,274.4 -0.1,-0.1 -0.6,6.9 c 5,6.8 5.9,12.2 5.9,12.2 4.8,-7.2 -3.4,-16.5 -5.2,-19 z"
   id="path853"
   inkscape:connector-curvature="0"
   style="fill:#7ccfdd" />
	<path
   class="st3"
   d="m 426.5,287.5 -0.4,5.3 c 0.8,3.6 2.1,7.3 4.3,8 -0.1,0 2.6,-3.2 -3.9,-13.3 z"
   id="path855"
   inkscape:connector-curvature="0"
   style="fill:#7ccfdd" />
	<path
   class="st3"
   d="m 448.5,281.2 c -23.1,15.8 -13.3,26.4 -13.3,26.4 -1.8,-13 7.9,-19.3 24.7,-31.5 16.7,-12.2 1.9,-30.1 -14.5,-52.8 -16.5,-22.7 -16.8,-30.7 -16.8,-30.7 -3.9,9 -1.3,13.4 13,33 26.7,36.7 30.9,39.1 6.9,55.6 z"
   id="path857"
   inkscape:connector-curvature="0"
   style="fill:#7ccfdd" />
	<path
   class="st3"
   d="m 440.7,237.6 c 22.3,27.5 13.6,35.3 13.3,35.6 10.8,-8.1 5.4,-17.6 -10.1,-38.1 -15.5,-20.4 -19,-27.3 -19,-27.3 0,0 -6.9,1.9 15.8,29.8 z"
   id="path859"
   inkscape:connector-curvature="0"
   style="fill:#7ccfdd" />
	<path
   class="st3"
   d="m 427.5,234.3 c 6.8,7.6 25.4,31.5 22.8,41.2 0,0 10.8,-1.8 -5.9,-24.8 -16.7,-23 -21.7,-29.3 -21.7,-29.3 0,0 -2,5.3 4.8,12.9 z"
   id="path861"
   inkscape:connector-curvature="0"
   style="fill:#7ccfdd" />
	<path
   class="st3"
   d="m 443.9,280.5 c 0,0 10.3,-1.4 -6.9,-25.1 -10.5,-14.5 -16.5,-22.5 -16.5,-22.5 0,0 -1.7,4.4 1.8,9.3 3.6,4.9 25.1,28.4 21.6,38.3 z"
   id="path863"
   inkscape:connector-curvature="0"
   style="fill:#7ccfdd" />
	<path
   class="st3"
   d="m 403.8,293.6 c 11.6,0.2 17.9,4.4 17.9,4.4 -2,-8.3 -14.3,-8.8 -17.4,-9.2 -3.1,-0.4 -16.5,-1.8 -16.5,-1.8 0.2,3.2 4.3,6.4 16,6.6 z"
   id="path865"
   inkscape:connector-curvature="0"
   style="fill:#7ccfdd" />
	<path
   class="st3"
   d="m 396.2,297.1 c 0,0 4.5,7 13,6.9 8.6,-0.2 13.2,-1.1 16.5,0.6 0,0 -0.9,-7.7 -29.5,-7.5 z"
   id="path867"
   inkscape:connector-curvature="0"
   style="fill:#7ccfdd" />
	
	
	
	
	
	
	
	
	
	
	
	
	
	<path
   class="st3"
   d="m 479.6,274.5 c 0,0 15.9,22.8 10.9,30.5 -1.2,1.9 -2.8,2.2 -4.9,2.9 l -4.3,-2.8 c 0,0 5.7,-1.3 7.2,-2.5 1.5,-1.2 -2.1,-15 -11.2,-25.7 z"
   id="path909"
   inkscape:connector-curvature="0"
   style="fill:#7ccfdd" />
	<path
   class="st3"
   d="m 471.3,284.7 c 0,0 5.2,14.9 13.4,19.6 l -3.4,0.9 c 0,0 -7,-4.1 -12,-18.7 z"
   id="path911"
   inkscape:connector-curvature="0"
   style="fill:#7ccfdd" />
	<path
   class="st3"
   d="m 467.8,274.2 c 0,0 11.2,3.3 18.5,28.3 0,0 -9.8,-8.5 -12.2,-19.5 l -4.8,3.4 c 0,0 -2.3,-5.5 -1.5,-12.2 z"
   id="path913"
   inkscape:connector-curvature="0"
   style="fill:#7ccfdd" />
	<path
   class="st3"
   d="m 469.3,286.4 c 0,0 1.1,15.9 -13.4,21.1 -14.5,5.1 -17.4,8.2 -17.4,8.2 l 5.2,7.2 c 0,0 31.6,-12.3 47.4,-14.5 0,0 -13.8,1.3 -21.8,-22 z"
   id="path915"
   inkscape:connector-curvature="0"
   style="fill:#7ccfdd" />
	<path
   class="st3"
   d="M 453.9,273.2 Z"
   id="path917"
   inkscape:connector-curvature="0"
   style="fill:#7ccfdd" />
	
	
	
	
	
	
	
	
	
	
	
	
	
	
	<g
   id="g953">
		<path
   d="m 481.8,272.4 c -0.2,-0.2 -0.5,-0.4 -0.9,-0.4 v 0 c -0.3,0 -0.6,0.1 -0.9,0.4 l -2.7,2.7 c -2.3,-2.3 -4.6,-4 -6.4,-4.4 -1.2,-0.2 -2,0.1 -2.5,0.5 -0.1,0.1 -0.2,0.2 -0.2,0.2 0,0 0,0 0,0 0,0 0,0 0,0 -0.1,0.1 -0.3,0.3 -0.4,0.4 -2.5,2.6 -15.7,16.1 -30.6,26.7 2.1,-5.9 8.6,-10.7 23,-21.1 l 0.1,-0.1 c 4.5,-3.3 7.2,-7.2 7.9,-11.8 1.7,-10.7 -7.3,-23 -15.3,-33.9 l -1.1,-1.5 c -14.6,-20.2 -21.6,-32.1 -21.9,-37.6 0,-0.4 -0.3,-0.8 -0.7,-1 -0.4,-0.2 -0.9,-0.2 -1.2,0.1 -2.6,1.8 -4.4,4.8 -4.9,8.4 -0.4,2.4 -0.2,4.9 0.5,7.4 -2.4,2.3 -4.8,7.1 -2.2,13.5 -2.9,2.6 -3.7,6.8 -2.4,11.2 -2,1.8 -3.2,4.3 -3.5,7.3 -0.2,2.4 0.3,4.8 1.3,7 -7.5,-3.3 -17.2,-4.5 -25.9,-5.7 l -2.1,-0.3 c -24.7,-3.2 -38.1,-6.4 -42.4,-9.9 -0.3,-0.3 -0.8,-0.4 -1.2,-0.2 -0.4,0.2 -0.7,0.5 -0.8,0.9 -0.5,3.1 0.5,6.5 2.6,9.3 1.5,2 3.6,3.6 6,4.8 0,3.3 1.9,8.5 8.4,11 -0.1,4 2.5,7.5 6.8,9.5 -0.1,2.4 0.6,4.7 2.2,6.7 1.5,1.9 3.6,3.4 6,4.3 0,1.4 0.3,4 2.1,6.4 1.7,2.3 4.4,3.8 8,4.6 0.2,2.3 1.5,8.1 8.6,10.2 0.5,2.5 2.9,9.7 12.2,10.9 1.1,0.1 2.1,0.2 3,0.2 0.6,0 1.3,0 1.8,-0.1 -17.1,5.1 -31.8,8.5 -36.6,9.5 -1.3,0.3 -2.4,1.1 -3.1,2.3 -1.6,2.6 -4.6,10 0.9,21 1,2.1 2.2,3.9 3.2,5.5 0,0 0.1,0.1 0.1,0.1 l 3.8,4.6 c 2.5,2.6 5.2,4.6 8.4,6.1 0.7,0.3 1.4,0.5 2.2,0.5 1.3,0 2.7,-0.5 3.7,-1.5 4.7,-4.5 21.3,-19.9 39.5,-29.3 0.3,0.2 0.6,0.4 0.9,0.5 0.4,0.2 0.9,0.3 1.6,0.3 2.5,0 6.5,-1.3 8.6,-3 1.2,-1 1.7,-2 1.7,-2.8 16.3,-6.9 37.6,-11.8 43.2,-13 0.6,0 1.2,-0.2 1.7,-0.4 1.5,-0.7 2.6,-2 3.2,-3.7 1.6,-4.8 -0.4,-13.4 -5.3,-22.3 -3.9,-6.7 -7.9,-10.9 -8,-11 z m -5.6,4.9 c 0.1,0.2 0.2,0.3 0.3,0.5 0.1,0.1 0.2,0.2 0.4,0.2 1.6,1.8 3.2,4 4.4,6.1 5.2,9.1 7.5,16.8 6.5,17.6 -0.8,0.4 -4.5,-2.9 -8.4,-10.2 -3,-5.5 -4.2,-9.5 -4.2,-9.6 -0.1,-0.4 -0.4,-0.7 -0.8,-0.8 -0.1,0 -0.2,0 -0.3,0 -0.3,0 -0.6,0.1 -0.8,0.3 l -3.2,2.9 c -1.6,-5.7 -1.4,-9.5 -0.4,-10.8 0.2,-0.2 0.3,-0.3 0.4,-0.4 0.1,-0.1 0.4,-0.1 0.5,0 1.3,0.2 3.4,1.9 5.6,4.2 z m -2.9,15.8 c -1,-2.3 -1.9,-4.4 -2.5,-6.3 l 2.7,-2.4 c 0.6,1.8 1.9,4.7 3.8,8.3 1.2,2.1 4.3,7.5 7.5,10.1 l -3.6,1.1 c -2.8,-2.3 -5.6,-5.7 -7.9,-10.8 z m -6.9,-16.4 c -0.1,4.3 1.5,10.5 4.7,17.4 3.7,8 8.8,12.6 13.3,14.6 -9.4,2.2 -27,6.8 -40.5,12.8 -0.9,-0.9 -2.2,-2.5 -3.9,-5.4 -3.5,-6.1 -5.2,-11.9 -4.8,-13.3 0.1,0 0.1,0 0.2,-0.1 13.1,-8.8 25.2,-20.3 31,-26 z m -41.1,-76.3 c 0.3,-2.1 1.2,-4 2.4,-5.4 1.6,6.6 8.6,18.1 22,36.5 l 1.1,1.6 c 7.7,10.5 16.4,22.4 14.9,32.1 -0.6,4 -2.9,7.3 -6.9,10.2 l -0.1,0.1 c -16.7,12.2 -23.2,16.9 -24.5,25 0,0 -0.1,0 -0.1,0 -1,0.5 -1.3,1.5 -1.3,2.6 -0.4,-0.3 -0.7,-0.7 -1,-1 -1.1,-4.6 0.8,-12.2 25,-29.8 2.2,-1.6 3.6,-3.7 3.9,-6.2 1.3,-8.6 -8.5,-21.9 -22.2,-40.2 -3.1,-4.1 -6.3,-8.4 -9.6,-13 -3,-4.1 -4.2,-8.5 -3.6,-12.5 z m 13.8,83.1 c 0,0.1 0,0.1 -0.1,0.2 -1.6,1.5 -2.9,2.9 -4,4.3 -0.3,-4.7 -3.5,-9.6 -6.8,-14.1 0.3,-2.2 0.6,-4.5 0.9,-7.1 0.2,-1.4 0.2,-2.7 0.2,-4 4.8,6.3 12.1,16.8 9.8,20.7 z m -11.3,-6.1 c 4,5.8 6,10.6 4.1,14.5 0,0.1 0,0.2 -0.1,0.2 -0.3,0.5 -0.5,0.9 -0.8,1.3 -0.9,-2.3 -2.4,-4.6 -4,-6.7 0.1,-2.6 0.4,-5.6 0.8,-9.3 z m 1.5,20.4 c 0,0 0,0 0,0 -0.1,0.4 -0.1,0.7 -0.1,1 -1.2,-2.1 -1.9,-4.5 -2.1,-7.7 1.7,2.8 2.4,4.8 2.2,6.7 z M 424.5,210 c 0.6,1.4 1.4,2.9 2.4,4.2 3.3,4.6 6.5,8.9 9.6,13 13.3,17.9 22.9,30.8 21.7,38.4 -0.3,1.9 -1.3,3.4 -3,4.7 -0.1,0.1 -0.3,0.2 -0.4,0.3 0.5,-9.1 -13,-26.2 -23,-38.8 -2.5,-3.1 -4.6,-5.8 -6,-7.8 -5.2,-7.1 -3,-11.9 -1.3,-14 z m -2.1,13.2 c 0.4,0.8 0.9,1.5 1.5,2.3 1.4,2 3.6,4.7 6.1,7.8 8.8,11.1 23.6,29.8 22.5,37.6 -0.1,1.1 -0.6,1.8 -1.4,2.4 -0.1,0.1 -0.3,0.2 -0.3,0.4 -0.9,0.7 -1.7,1.3 -2.5,1.9 -0.2,-8.8 -13.9,-26 -21.4,-35.4 -1.5,-1.9 -2.7,-3.4 -3.3,-4.2 -3.5,-4.8 -3.9,-9.8 -1.2,-12.8 z m -1.3,25.4 c -2.3,-2.7 -3.5,-5.9 -3.3,-9.1 0.2,-2 0.9,-3.7 2,-5 0.5,1 1,2 1.7,2.9 0.7,0.9 1.9,2.4 3.4,4.3 6.5,8.2 21.8,27.4 20.9,34.7 -0.1,0.8 -0.4,1.4 -1,1.8 -0.2,0.1 -0.3,0.3 -0.4,0.5 -0.9,0.8 -1.8,1.6 -2.7,2.3 -0.5,-6 -6.9,-15 -13.4,-23.3 0,0 0,0 0,0 -1.2,-3.9 -3.7,-6.8 -7.2,-9.1 0,0.1 0,0 0,0 z M 349,239.1 c -1.3,-1.7 -2,-3.6 -2.2,-5.5 5.9,3.4 19.1,6.2 41.7,9.2 l 2.1,0.3 c 10.9,1.4 22,2.9 29,7.3 0.1,0 0.1,0.1 0.2,0.1 5.1,3.3 8,8.2 7,15.9 -3.2,24.6 -3.7,31.5 5.1,39 -0.6,0.1 -1.4,0 -2.7,-0.4 -2.6,-0.9 -5.2,-2.8 -6.6,-8.1 0,-0.2 0,-0.3 -0.1,-0.5 0,-0.1 -0.1,-0.2 -0.1,-0.3 -0.6,-2.5 -1,-5.8 -1,-10 0,0 0,-0.1 0,-0.1 0,-2.1 0,-4.4 0.2,-6.9 0.1,-0.1 0.1,-0.2 0.1,-0.4 0.1,-0.4 0,-0.8 0,-1.2 0.1,-2 0.3,-4.1 0.6,-6.5 0,0 0,-0.1 0,-0.1 0,-0.2 0,-0.4 0,-0.7 0.2,-1.5 0.3,-3 0.6,-4.6 0.4,-2.7 -0.3,-5.1 -1.8,-7.1 -5.3,-6.8 -20.8,-8.7 -44.3,-11.4 -5.2,-0.6 -10.5,-1.2 -16.3,-2 -4.9,-0.6 -9,-2.8 -11.5,-6 z m 6.6,7.3 c 1.5,0.5 3,0.9 4.7,1.1 5.7,0.7 11.1,1.4 16.3,2 22,2.6 37.9,4.5 42.6,10.5 1.2,1.5 1.6,3.2 1.3,5.3 0,0.2 0,0.4 -0.1,0.6 -5.9,-6 -24.2,-8.1 -44.2,-9.8 -3.9,-0.3 -7.2,-0.6 -9.5,-0.9 -1.3,-0.2 -2.4,-0.4 -3.4,-0.7 -0.1,-0.1 -0.3,-0.1 -0.5,-0.2 0,0 0,0 -0.1,0 -5.4,-1.9 -6.8,-5.7 -7.1,-7.9 z m 8.3,10.7 c 0.8,0.2 1.7,0.4 2.6,0.5 2.4,0.3 5.8,0.6 9.6,0.9 14.2,1.2 38,3.3 43,9.5 0.6,0.7 0.8,1.4 0.8,2.2 -0.1,1.3 -0.3,2.5 -0.4,3.8 -6.7,-5.6 -27.9,-7.4 -39.7,-8.4 -2.7,-0.2 -4.8,-0.4 -5.9,-0.6 -5.8,-0.8 -9.7,-4 -10,-7.9 z m 8.4,14 c -1,-1.3 -1.6,-2.8 -1.7,-4.3 0.9,0.3 1.9,0.5 3,0.7 1.2,0.2 3.3,0.4 6,0.6 11.2,1 34.5,2.9 39,8.6 0.3,0.4 0.5,0.7 0.6,1.1 -0.1,1.7 -0.2,3.3 -0.2,4.9 -5.4,-4.2 -18.7,-5.5 -32.1,-6.5 -2.6,-0.2 -4.9,-0.4 -6.3,-0.6 -3.6,-0.7 -6.5,-2.2 -8.3,-4.5 z m 8.2,10.7 c -1.2,-1.5 -1.5,-3.1 -1.6,-4.3 0.4,0.1 0.9,0.2 1.4,0.2 1.5,0.2 3.7,0.4 6.5,0.6 9.8,0.7 30.2,2.3 32.2,7.8 0,2.2 0.1,4.2 0.3,6 -4.9,-3.9 -13.9,-4.7 -22.6,-5.5 -2.5,-0.2 -5.1,-0.5 -7.5,-0.8 -4.1,-0.4 -7,-1.8 -8.7,-4 z m 8.5,6.5 c 2.4,0.3 5,0.5 7.5,0.8 10.4,0.9 21.1,1.9 23.6,7.9 0.2,0.7 0.4,1.4 0.6,2.1 -3.8,-1.6 -9.2,-1.9 -15.5,-2.3 -2,-0.1 -4,-0.2 -6.2,-0.4 -7.9,-0.7 -9.6,-5.7 -10,-8.1 z m 18.7,18.3 c -6.9,-0.9 -9.2,-5.5 -9.9,-8 0.3,0 0.7,0.1 1.1,0.1 2.2,0.2 4.2,0.3 6.2,0.4 8.3,0.5 14.9,0.9 17.7,4.1 0,0.1 0.1,0.1 0.2,0.1 0.2,0.2 0.3,0.4 0.5,0.7 -2,0.1 -3.8,0.7 -5.6,1.3 -2.9,0.9 -5.7,1.9 -10.2,1.3 z m -14.8,48.9 c -0.8,0.8 -2.1,1.1 -3.1,0.6 -2.8,-1.4 -5.4,-3.2 -7.6,-5.5 l -3.7,-4.4 c -0.9,-1.5 -2,-3.3 -3,-5.2 -5,-10 -2.3,-16.5 -0.9,-18.8 0.3,-0.6 0.8,-1 1.5,-1.1 5.8,-1.3 26.2,-5.9 47.7,-13 0.3,4.9 4,13.9 8.3,18.3 -18.2,9.4 -34.6,24.5 -39.2,29.1 z m 43,-29.3 c -0.3,-0.1 -0.7,-0.3 -1,-0.6 0,0 -0.1,-0.1 -0.1,-0.1 -4.5,-3.4 -9.2,-14.9 -8.6,-18.9 0.7,0.2 1.4,0.4 2.2,0.8 0.2,0.1 0.5,0.1 0.7,0.1 0.8,0.2 1.6,0.3 2.2,0.3 1,0 1.7,-0.2 2.3,-0.5 1.6,5.2 5.9,14 9.6,16.6 -2.4,1.8 -6.5,2.6 -7.3,2.3 z M 492.7,305 c -0.4,1.1 -1,1.8 -1.8,2.3 -0.1,0 -0.6,0.1 -1.5,0.3 -1.4,0 -3.5,-0.5 -5.8,-1.9 l 5,-1.6 c 0.2,-0.1 0.3,-0.2 0.5,-0.3 0.4,-0.2 0.9,-0.7 1.1,-1.5 1.5,-4.8 -6.5,-18.8 -6.8,-19.4 -1.2,-2 -2.7,-4.1 -4.3,-6 L 481,275 c 1.3,1.5 4.1,4.9 6.7,9.6 4.4,8.2 6.4,16.3 5,20.4 z"
   id="path947"
   inkscape:connector-curvature="0" />
		
		
	</g>
</g>
</svg>