<?xml version="1.0" encoding="UTF-8" standalone="no"?>
<!-- Generator: Adobe Illustrator 21.0.0, SVG Export Plug-In . SVG Version: 6.00 Build 0)  -->

<svg
   xmlns:dc="http://purl.org/dc/elements/1.1/"
   xmlns:cc="http://creativecommons.org/ns#"
   xmlns:rdf="http://www.w3.org/1999/02/22-rdf-syntax-ns#"
   xmlns:svg="http://www.w3.org/2000/svg"
   xmlns="http://www.w3.org/2000/svg"
   xmlns:sodipodi="http://sodipodi.sourceforge.net/DTD/sodipodi-0.dtd"
   xmlns:inkscape="http://www.inkscape.org/namespaces/inkscape"
   version="1.1"
   id="Layer_1"
   x="0px"
   y="0px"
   viewBox="0 0 72.173943 79.126015"
   xml:space="preserve"
   sodipodi:docname="scroll-small.svg"
   width="72.173943"
   height="79.126015"
   inkscape:version="0.92.4 (33fec40, 2019-01-16)"><metadata
   id="metadata962"><rdf:RDF><cc:Work
       rdf:about=""><dc:format>image/svg+xml</dc:format><dc:type
         rdf:resource="http://purl.org/dc/dcmitype/StillImage" /><dc:title></dc:title></cc:Work></rdf:RDF></metadata><defs
   id="defs960" /><sodipodi:namedview
   pagecolor="#ffffff"
   bordercolor="#666666"
   borderopacity="1"
   objecttolerance="10"
   gridtolerance="10"
   guidetolerance="10"
   inkscape:pageopacity="0"
   inkscape:pageshadow="2"
   inkscape:window-width="3840"
   inkscape:window-height="2112"
   id="namedview958"
   showgrid="false"
   fit-margin-top="0"
   fit-margin-left="0"
   fit-margin-right="0"
   fit-margin-bottom="0"
   inkscape:zoom="3.0583333"
   inkscape:cx="-299.65637"
   inkscape:cy="-39.899993"
   inkscape:window-x="0"
   inkscape:window-y="48"
   inkscape:window-maximized="1"
   inkscape:current-layer="g955" />

<style
   type="text/css"
   id="style5">
	.st0{opacity:0.5;fill:#7CCFDD;enable-background:new    ;}
	.st1{opacity:0.56;fill:#FFFFFF;enable-background:new    ;}
	.st2{fill:#FFFFFF;}
	.st3{fill:#7CCFDD;}
</style>

<g
   id="g955"
   transform="translate(-551.53648,-180.97399)">
	
	
	
	
	
	
	
	
	
	
	
	
	
	
	
	
	
	
	
	
	
	
	
	
	
	
	
	
	
	
	
	
	
	
	
	
	
	
	
	
	
	
	
	
	
	<path
   class="st2"
   d="m 578.6,227.6 -4.5,-6.5 c 2.6,1.6 4.5,3.4 4.5,6.5 z"
   id="path919"
   inkscape:connector-curvature="0"
   style="fill:#ffffff" />
	<path
   class="st2"
   d="m 562,195.1 c -3.2,3.4 -1.8,9.4 2.2,11.7 0,0 -4.8,5.6 3.4,10.7 0.2,0.1 0.4,0.2 0.6,0.3 v 0 c 0,0 -3.6,5.5 3.1,11.6 4.7,4.3 9.9,3.6 9.9,3.6 l -1.3,1.7 c -11.1,2.6 -21.6,4.1 -24.3,4.5 -0.5,0.1 -0.9,0.3 -1.2,0.7 -0.9,1.3 -2.6,5 -0.6,10.4 2,5.5 6,7.6 7,8.1 0.7,0.4 1.7,0.3 2.3,-0.2 2.9,-2.4 12,-9.4 21.5,-13.3 0.2,0.2 0.4,0.3 0.6,0.4 0.8,0.4 4.1,-0.2 5.1,-1.4 v 0 0 c 0.2,-0.2 0.3,-0.5 0.2,-0.8 V 243 l 21,-3.4 c 1.2,0 1.4,-2.1 0.5,-5 l 0.9,1.8 4,-0.9 c 0,0 -0.5,-3.6 -2.3,-7.2 -0.2,-0.4 -0.4,-0.8 -0.7,-1.3 0.5,-0.1 1,-0.2 1.6,-0.4 9.7,-2.2 7,-13 4.8,-22.1 -3.9,-15.9 -2.6,-21.4 -2.6,-21.4 -5.3,0.1 -9.2,4.8 -8,10 -2.4,0.1 -4.4,1.5 -5.5,3.5 v 0 0 c -1,1.8 -1.4,3.9 -0.9,5.9 0,0 -7,0.5 -5,9.6 0,0.2 0.1,0.4 0.1,0.6 v 0 c 0,0 -3.8,0.7 -5.3,5.3 l -0.1,0.1 v 0.2 c -0.4,1.2 -0.5,2.6 -0.5,4.4 0.1,1.7 0.4,3.1 0.9,4.3 l -7.8,5.2 -1.7,-0.7 v 0 l 1.7,-8 c 1.2,-2.2 2.9,-4.8 5.1,-8.4 5.5,-8.8 -4.5,-14.6 -12.7,-19.7 -10.9,-6.8 -16.4,-11.1 -17.6,-13.7 -3.7,4.3 -3.1,10.6 1.6,13.4 z m 23.8,37.4 c 0,0 0.1,0 0.1,-0.1 z"
   id="path921"
   inkscape:connector-curvature="0"
   style="fill:#ffffff" />
	<path
   class="st3"
   d="m 605.9,233.8 -19.1,7.1 3.5,3 c 0,0 8,-3.4 21.2,-4.2 0,0.1 -3.4,-1.6 -5.6,-5.9 z"
   id="path923"
   inkscape:connector-curvature="0"
   style="fill:#7ccfdd" />
	<path
   class="st3"
   d="m 582.6,242.1 c 0,0 -18.2,11.6 -24.1,4.2 -2.2,-2.7 -0.6,-7.5 -0.6,-7.5 l -2.4,0.3 c 0,0 -7.4,6.6 2.9,17.7 2.4,2.7 4.6,1.3 4.6,1.3 0,0 13.1,-10.7 21.8,-13.4 z"
   id="path925"
   inkscape:connector-curvature="0"
   style="fill:#7ccfdd" />
	<path
   class="st3"
   d="m 602.8,224.6 c 0,0 6.2,5.3 7.1,13.9 0,0 -7,-5.9 -7.1,-13.9 z"
   id="path927"
   inkscape:connector-curvature="0"
   style="fill:#7ccfdd" />
	<path
   class="st3"
   d="m 608,225.2 c 0,0 4.8,2.7 7.4,10.8 l -2.9,0.8 -4.9,-10.5 z"
   id="path929"
   inkscape:connector-curvature="0"
   style="fill:#7ccfdd" />
	<path
   class="st3"
   d="m 617.7,183.4 c 0,0 -6.7,3.9 -4.9,10.7 1.8,6.8 11.4,28.6 -0.9,30.1 l 2,3 c 0,0 10.6,-0.9 8.4,-12.3 -2.2,-11.3 -5.6,-27.4 -4.6,-31.5 z"
   id="path931"
   inkscape:connector-curvature="0"
   style="fill:#7ccfdd" />
	<path
   class="st3"
   d="m 609.6,221.6 c 0,0 5.2,-0.6 5.1,-4.5 -0.1,-3.9 -5.4,-24.1 -5.4,-24.1 0,0 -5.1,2.4 -1.8,12.9 3.3,10.6 2.1,15.7 2.1,15.7 z"
   id="path933"
   inkscape:connector-curvature="0"
   style="fill:#7ccfdd" />
	<path
   class="st3"
   d="m 606.9,219 -3.7,-16.5 c 0,0 -4.1,3 -1.9,9.1 2.2,6.1 1.9,9.7 1.9,9.7 z"
   id="path935"
   inkscape:connector-curvature="0"
   style="fill:#7ccfdd" />
	<path
   class="st3"
   d="m 598.5,213 c 0,0 -5.1,6 -1.9,12.9 l 4.8,-3.5 z"
   id="path937"
   inkscape:connector-curvature="0"
   style="fill:#7ccfdd" />
	<path
   class="st3"
   d="m 578.8,228.9 c 0,0 -9.2,-0.6 -11.2,-10.4 0,0 11.2,2.3 11.2,10.4 z"
   id="path939"
   inkscape:connector-curvature="0"
   style="fill:#7ccfdd" />
	<path
   class="st3"
   d="m 564.2,206.8 c 0,0 18.5,8 16.4,13 -0.5,1.1 -1.3,3.5 -1.3,3.5 0,0 -0.2,-2.8 -7.1,-7 -7,-4.2 -9,-7.4 -8,-9.5 z"
   id="path941"
   inkscape:connector-curvature="0"
   style="fill:#7ccfdd" />
	<path
   class="st3"
   d="m 562.1,195.2 c 0,0 14.5,8.1 17.3,10.4 2.8,2.2 6.3,4.7 4.4,8.2 -0.4,0.8 -1.2,2.1 -1.2,2.1 0,0 -1,-3.7 -7.5,-7.1 -6.5,-3.4 -15.9,-8.5 -13,-13.6 z"
   id="path943"
   inkscape:connector-curvature="0"
   style="fill:#7ccfdd" />
	<path
   class="st3"
   d="m 560.5,182 c 0,0 -2.2,5.6 4.9,11 7.1,5.5 27.6,14.3 22.3,21.2 -5.4,7 -9.6,15.6 -3.3,20.1 l -0.4,-2.6 c 0,0 -1.4,-3 2.1,-8.7 3.5,-5.7 11.3,-13.7 1.5,-21.2 -9.9,-7.5 -25,-14.9 -27.1,-19.8 z"
   id="path945"
   inkscape:connector-curvature="0"
   style="fill:#7ccfdd" />
	<g
   id="g953">
		
		
		<path
   d="m 621.6,204.7 -0.1,-0.2 c -3.7,-15.3 -2.6,-20.8 -2.6,-20.8 0.1,-0.4 0,-0.7 -0.2,-1 -0.2,-0.3 -0.6,-0.5 -1,-0.4 -3,0.1 -5.8,1.4 -7.5,3.8 -1.4,1.8 -2,4.1 -1.7,6.4 -1.7,0.3 -3.3,1.2 -4.6,2.7 -1.5,1.9 -2.3,4.4 -2,6.9 -1.1,0.3 -2.6,1 -3.7,2.5 -1.4,1.9 -1.8,4.6 -1.2,7.9 -2,0.9 -5.9,3.6 -5.7,10.8 0.1,1.6 0.4,3 0.8,4.4 -2.2,1.5 -4.6,2.9 -7,4.1 -1,-3.2 0.5,-5.9 5.7,-14.1 l 0.9,-1.5 c 1.6,-2.5 2.1,-5.1 1.5,-7.5 -1.3,-5.6 -8,-9.7 -13.8,-13.3 l -0.8,-0.5 c -3.8,-2.4 -15.5,-9.7 -17.1,-13.2 -0.2,-0.4 -0.5,-0.6 -0.9,-0.7 -0.4,-0.1 -0.8,0.1 -1.1,0.4 -2.2,2.3 -3.1,5.3 -2.7,8.3 0.3,2.1 1.3,3.9 2.7,5.3 -1,1.4 -1.5,3.2 -1.2,5.1 0.3,2.8 2,5.6 4.2,7.3 -0.6,1 -1.2,2.7 -0.9,4.7 0.4,2.4 2.1,4.6 5,6.5 -0.8,2.1 -1.7,7 3.8,12 2.5,2.2 5,3.2 7.1,3.7 -9.9,2.2 -19.1,3.6 -22.1,4 0,0 -0.1,0 -0.1,0 -0.8,0.2 -1.5,0.5 -2,1.2 -0.8,1.1 -3.1,5.2 -0.7,11.5 1.9,5.3 5.6,7.8 7.5,8.7 0.5,0.3 1,0.4 1.6,0.4 0.7,0 1.5,-0.2 2.1,-0.7 8.9,-7.2 15.9,-10.9 20.4,-12.8 0.2,0.1 0.3,0.2 0.5,0.3 0.4,0.2 0.8,0.3 1.4,0.3 1.5,0 3.5,-0.6 4.5,-1.4 0.7,-0.5 1,-1 1.1,-1.5 9.7,-2.7 19.7,-3 19.8,-3 0.2,0 0.4,-0.1 0.6,-0.2 0.5,-0.2 1,-0.5 1.3,-1.1 0.3,-0.5 0.4,-1.3 0.3,-2.1 l 3.5,-0.8 c 0.6,-0.1 1,-0.7 0.9,-1.4 0,-0.2 -0.6,-3.7 -2.3,-7.4 h 0.1 c 2.8,-0.6 4.9,-2 6.2,-4.1 3,-5.2 1.2,-12.8 -0.5,-19.5 z m -15.8,-8.2 c 0.6,-0.8 1.7,-1.6 3.2,-1.8 0.5,1.9 1,3.7 1.4,5.4 2.6,9.7 4.2,16.1 2.7,18.6 -0.4,0.7 -1.1,1.2 -2.2,1.4 -0.4,0.1 -0.8,0.2 -1.1,0.2 -0.6,-0.4 -1.1,-0.8 -1.7,-1.1 -0.1,-4.6 -2.2,-11.8 -3.3,-15.4 -0.2,-0.6 -0.3,-1 -0.4,-1.3 -0.4,-2 0.1,-4.4 1.4,-6 z m -5.7,9.3 c 0.7,-0.9 1.6,-1.4 2.3,-1.6 0,0.1 0.1,0.2 0.1,0.3 0.9,3 2.9,9.7 3.1,14 -0.7,0 -1.3,0.1 -1.9,0.4 -0.4,0.2 -0.8,0.6 -1.1,1 -0.3,0.2 -0.6,0.5 -1,0.8 -0.2,-1.5 -0.7,-3 -1.1,-4.6 -0.3,-1 -0.6,-2.1 -0.9,-3.1 0,-0.1 0,-0.1 0,-0.2 0,-0.1 -0.1,-0.2 -0.1,-0.3 0,-0.1 -0.1,-0.2 -0.1,-0.3 -0.5,-2.8 -0.3,-4.9 0.7,-6.4 z m 3.1,25.4 c 1.3,3.3 3.1,5.9 4.7,7.6 -4.1,0.3 -11.2,1.2 -18.1,3.2 -1.4,-2 -3.3,-7 -3.1,-8.5 5.8,-3.1 11.4,-7.1 14.9,-9.7 -0.1,2 0.4,4.5 1.6,7.4 z m -19.1,4.3 c 0.2,0 0.3,0 0.4,0 0.5,2.1 1.9,6.2 3.7,8.3 -0.9,0.3 -2.1,0.5 -2.5,0.4 0,0 0,0 -0.1,-0.1 -0.1,-0.3 -0.3,-0.5 -0.6,-0.6 -1.7,-2.1 -3.2,-6.9 -3,-8.6 0.8,0.5 1.5,0.6 2.1,0.6 z m 9.7,-12.5 c -0.2,-5.4 2.3,-7.6 3.8,-8.3 0.2,0.7 0.4,1.5 0.6,2.2 0.6,2.1 1.2,4 1.2,5.6 -1.4,1.1 -3.2,2.3 -5.1,3.6 -0.3,-1 -0.4,-2 -0.5,-3.1 z m -33.4,-39.1 c 2.3,2.8 7.7,6.9 17.1,12.7 l 0.8,0.5 c 5.5,3.4 11.7,7.2 12.8,11.8 0.4,1.8 0,3.7 -1.2,5.7 l -0.9,1.5 c -5.4,8.7 -7.4,12 -5.7,16.7 -0.2,-0.1 -0.3,-0.2 -0.5,-0.3 -0.1,-0.1 -0.3,-0.2 -0.5,-0.3 -0.1,-0.1 -0.2,-0.2 -0.4,-0.3 -1.5,-1.4 -3.4,-4.4 -0.2,-11.5 0,0 0.1,-0.1 0.1,-0.1 0.2,-0.3 0.3,-0.5 0.3,-0.8 0.6,-1.3 1.5,-2.8 2.5,-4.4 1,-1.6 1.3,-3.1 0.9,-4.6 -1,-4 -6.6,-7.2 -16.7,-13 -1.8,-1.1 -3.8,-2.2 -5.9,-3.4 -1.9,-1.1 -3.1,-2.9 -3.4,-5 -0.5,-1.8 -0.1,-3.6 0.9,-5.2 z m 0.4,15.6 c -0.1,-1 0,-2.3 0.7,-3.4 2.1,1.2 4.1,2.4 5.9,3.4 8.9,5.1 14.8,8.5 15.6,11.5 0.2,0.9 0,1.7 -0.6,2.8 -0.5,0.7 -0.9,1.4 -1.3,2.1 -2.2,-3.1 -8,-6.1 -13.7,-9 -1.1,-0.5 -2.1,-1 -2.6,-1.3 -2.1,-1.1 -3.7,-3.6 -4,-6.1 z m 3.3,11.9 c -0.2,-1.3 0.2,-2.4 0.6,-3.1 0.5,0.2 1,0.5 1.7,0.8 4,2 12.5,6.2 13.3,9.1 0.1,0.2 0.1,0.3 0,0.5 -0.7,1.5 -1.2,2.8 -1.6,4.1 -1.5,-1.9 -3.9,-3.1 -6.3,-4.4 -0.9,-0.5 -1.9,-1 -2.8,-1.6 0,0 -0.1,-0.1 -0.1,-0.1 -0.1,-0.1 -0.2,-0.1 -0.3,-0.1 -0.1,-0.1 -0.2,-0.1 -0.4,-0.2 -2.4,-1.5 -3.9,-3.2 -4.1,-5 z m 4.6,8.2 c 0.7,0.4 1.3,0.7 1.9,1.1 4.3,2.3 6.7,3.7 6.7,7.1 0,0.1 0,0.2 0.1,0.3 0.1,1.4 0.5,2.6 1.1,3.7 -1.7,-0.3 -4.2,-1.1 -6.5,-3.2 -4.1,-3.9 -3.8,-7.4 -3.3,-9 z m -6.4,37.6 c -0.2,0.2 -0.7,0.2 -1,0 -1.7,-0.8 -4.8,-2.9 -6.4,-7.4 -2,-5.4 0,-8.7 0.4,-9.3 0.1,-0.1 0.1,-0.2 0.4,-0.2 3.2,-0.4 13.3,-1.9 23.8,-4.3 0.2,2.5 1.4,6 3,8.4 -6.2,2.7 -13,7 -20.2,12.8 z m 51,-22 c -0.8,-3.1 -2.7,-6.9 -5.3,-10.2 -0.4,-0.5 -1.2,-0.6 -1.7,-0.2 -0.5,0.4 -0.6,1.2 -0.2,1.7 4.3,5.6 5.4,10.7 5.2,12 -1,-0.4 -3.8,-2.8 -5.9,-8.1 -1.9,-4.5 -1.6,-7.5 -1,-8.8 0.3,-0.2 0.5,-0.4 0.5,-0.4 0.1,-0.1 0.1,-0.1 0.2,-0.2 0.1,0 0.2,0 0.3,0 0.3,0 0.6,0.1 0.8,0.2 2,0.7 5.2,3.6 7.2,7.9 1.1,2.2 1.7,4.5 2,5.8 z m 6.8,-12.6 c -1,1.5 -2.5,2.5 -4.8,3.1 l -0.3,0.1 c -0.2,0 -0.3,0.1 -0.4,0.1 -0.8,-1.3 -1.7,-2.6 -2.7,-3.6 1.5,-0.4 2.6,-1.2 3.3,-2.4 2.1,-3.4 0.5,-9.5 -2.4,-20.5 -0.5,-2 -1.1,-4 -1.7,-6.3 -0.5,-2.1 -0.2,-4.1 1.1,-5.8 1,-1.4 2.6,-2.3 4.3,-2.7 -0.2,2.7 0,8.9 2.8,20.3 l 0.1,0.2 c 1.4,6.4 3.1,13.5 0.7,17.5 z"
   id="path951"
   inkscape:connector-curvature="0" />
	</g>
</g>
</svg>