<?xml version="1.0" encoding="UTF-8" standalone="no"?>
<!-- Generator: Adobe Illustrator 21.0.0, SVG Export Plug-In . SVG Version: 6.00 Build 0)  -->

<svg
   xmlns:dc="http://purl.org/dc/elements/1.1/"
   xmlns:cc="http://creativecommons.org/ns#"
   xmlns:rdf="http://www.w3.org/1999/02/22-rdf-syntax-ns#"
   xmlns:svg="http://www.w3.org/2000/svg"
   xmlns="http://www.w3.org/2000/svg"
   xmlns:sodipodi="http://sodipodi.sourceforge.net/DTD/sodipodi-0.dtd"
   xmlns:inkscape="http://www.inkscape.org/namespaces/inkscape"
   version="1.1"
   id="Layer_1"
   x="0px"
   y="0px"
   viewBox="0 0 186.21376 218.93939"
   xml:space="preserve"
   sodipodi:docname="scroll-big-split.svg"
   width="186.21376"
   height="218.93939"
   inkscape:version="0.92.4 (33fec40, 2019-01-16)"><metadata
   id="metadata962"><rdf:RDF><cc:Work
       rdf:about=""><dc:format>image/svg+xml</dc:format><dc:type
         rdf:resource="http://purl.org/dc/dcmitype/StillImage" /><dc:title></dc:title></cc:Work></rdf:RDF></metadata><defs
   id="defs960" /><sodipodi:namedview
   pagecolor="#ffffff"
   bordercolor="#666666"
   borderopacity="1"
   objecttolerance="10"
   gridtolerance="10"
   guidetolerance="10"
   inkscape:pageopacity="0"
   inkscape:pageshadow="2"
   inkscape:window-width="3840"
   inkscape:window-height="2112"
   id="namedview958"
   showgrid="false"
   fit-margin-top="0"
   fit-margin-left="0"
   fit-margin-right="0"
   fit-margin-bottom="0"
   inkscape:zoom="3.0583333"
   inkscape:cx="193.75763"
   inkscape:cy="170.15524"
   inkscape:window-x="0"
   inkscape:window-y="48"
   inkscape:window-maximized="1"
   inkscape:current-layer="g955" />

<style
   type="text/css"
   id="style5">
	.st0{opacity:0.5;fill:#7CCFDD;enable-background:new    ;}
	.st1{opacity:0.56;fill:#FFFFFF;enable-background:new    ;}
	.st2{fill:#FFFFFF;}
	.st3{fill:#7CCFDD;}
</style>

<g
   id="g955"
   transform="translate(-132.18243,-267.76061)">
	
	
	
	
	
	
	
	
	
	
	<path
   class="st2"
   d="m 133.7,327.4 c 0,0 9,4.4 23.4,7.5 31,6.6 80.9,0.6 77.1,33.9 -1.5,13 -4.8,33.9 0.9,40.2 0,0 3.2,-1.2 7.6,-1.7 l 13.4,-10.8 c -10.5,-9.6 -22.3,-18.5 -9.9,-33.2 0,0 -4.9,-8.7 4.9,-15.2 0,0 -5.1,-11.5 4.8,-17.4 0,0 -3.8,-10.9 6,-15.5 0,0 -2.9,-8.6 5.4,-13.3 0,0 -4,-9.9 5.7,-15.6 0,0 -2.7,-11.5 8.1,-17.4 0,0 0,14.4 16,47.9 16,33.5 18.1,46.8 5,60.9 0,0 24.6,22.1 11.9,31.7 -12.8,9.6 -51.7,24.2 -51.7,24.2 0,0 -1.5,8.9 -14.7,8.6 0,0 -31.7,33.9 -47.9,42.6 -8,4.1 -23.3,-11.7 -25.6,-16.3 -2.4,-4.7 -10.6,-21.4 -0.3,-26.7 10.3,-5.3 44.6,-21 44.6,-21 0,0 -21.9,-0.9 -22.3,-14.4 0,0 -9.8,-1.6 -10.4,-11.3 0,0 -13.1,-2.9 -12.6,-13.8 0,0 -10.8,-4.1 -10.1,-12.6 0,0 -8.7,-3.2 -8.1,-11.8 0,0 -11.3,-3.7 -10,-13.5 0,0.1 -11.6,-2.5 -11.2,-16 z"
   id="path835"
   inkscape:connector-curvature="0"
   style="fill:#ffffff" />
	
	
	
	
	
	
	
	
	
	
	
	
	
	
	
	
	<path
   class="st3"
   d="m 133.7,327.4 c 0,0 7.5,6.3 41.4,10.3 33.9,4 62.2,5.5 59.3,30.5 -2.9,25 -5.3,38.9 7.8,48 0,0 -17.5,0.1 -12.7,-33.6 5.1,-35 -0.7,-34 -55.6,-40.4 -29.4,-3.5 -35.3,-3.9 -40.2,-14.8 z"
   id="path869"
   inkscape:connector-curvature="0"
   style="fill:#7ccfdd" />
	<path
   class="st3"
   d="m 144.3,342.3 c 0,0 8.9,3.8 40.1,5.5 32.6,1.8 44,6 42.4,22.3 0,0 4.1,-18.7 -42.5,-17.4 -43.8,1.3 -40,-10.4 -40,-10.4 z"
   id="path871"
   inkscape:connector-curvature="0"
   style="fill:#7ccfdd" />
	<path
   class="st3"
   d="m 154.7,356.4 c 0,0 2.8,8.2 15.2,7.4 38.1,-2.5 50.9,1.4 56,12.4 0,0 4.3,-19 -30.2,-18.4 -33.2,0.7 -41,-1.4 -41,-1.4 z"
   id="path873"
   inkscape:connector-curvature="0"
   style="fill:#7ccfdd" />
	<path
   class="st3"
   d="m 163.2,367.9 c 0,0 2.4,5.9 9.8,6.7 7.4,0.8 40,-3.7 52.1,11.5 0,0 6.7,-15.1 -28.9,-16.2 -22.2,-0.6 -33,-2 -33,-2 z"
   id="path875"
   inkscape:connector-curvature="0"
   style="fill:#7ccfdd" />
	<path
   class="st3"
   d="m 173.3,381.1 c 0,0 12.5,1.4 25.5,1.5 19.9,0.2 26.3,3.6 26.6,13.8 0,0 0.1,-7.6 -27.6,-7.7 -16.4,-0.1 -23.8,-2.6 -24.5,-7.6 z"
   id="path877"
   inkscape:connector-curvature="0"
   style="fill:#7ccfdd" />
	<path
   class="st3"
   d="m 185.7,394.2 c 0,0 16.6,0.3 20.3,0.3 13.2,-0.2 18.6,2.5 21.1,12.6 0,0 -2.8,-8.4 -21.7,-7.2 -14.1,0.9 -19.3,-1.7 -19.7,-5.7 z"
   id="path879"
   inkscape:connector-curvature="0"
   style="fill:#7ccfdd" />
	<path
   class="st3"
   d="m 196.1,406.4 c 0,0 6,7.9 16.4,7.6 10.4,-0.3 12.2,-3.2 17.8,-0.3 -3.5,-11.3 -18.3,-5.7 -34.2,-7.3 z"
   id="path881"
   inkscape:connector-curvature="0"
   style="fill:#7ccfdd" />
	<g
   id="g897">
		<path
   class="st3"
   d="m 294,309.7 c -14.3,-31 -12.8,-40.7 -12.8,-40.7 -6.8,9.9 -3.7,15.9 8.6,42.7 20.7,44.9 22.8,53.9 5.5,65.6 0.7,0.8 2.4,2.9 3.2,3.7 1.1,-0.5 2.7,-2.4 3.7,-3.3 16.5,-16.1 6.1,-37.1 -8.2,-68 z"
   id="path883"
   inkscape:connector-curvature="0"
   style="fill:#7ccfdd" />
		<path
   class="st3"
   d="m 292.8,374.7 c 14.8,-7.2 10.3,-23.2 -3.4,-51.2 -13.7,-28.1 -16.2,-37.1 -16.2,-37.1 0,0 -11.8,-0.9 10.8,36.5 22.3,36.9 8.8,51.8 8.8,51.8 z"
   id="path885"
   inkscape:connector-curvature="0"
   style="fill:#7ccfdd" />
		<path
   class="st3"
   d="m 290.1,372.3 c 3,-1.9 8.5,-9.3 -1.6,-31.1 C 274,309.8 267.4,302 267.4,302 c 0,0 -4.8,6.1 1.6,16.8 6.1,10.2 24.4,34.1 18.7,52 0.7,0.3 1.4,0.7 2.1,1.3 0.1,0 0.2,0.1 0.3,0.2 z"
   id="path887"
   inkscape:connector-curvature="0"
   style="fill:#7ccfdd" />
		<path
   class="st3"
   d="M 278.7,345 C 269.6,325.2 262,315.2 262,315.2 c 0,0 -3.8,5.2 -0.6,11.9 2.9,6.3 22,27.5 17.8,47.4 l 4.5,-4.4 c 0.8,-5.8 0.6,-13 -5,-25.1 z"
   id="path889"
   inkscape:connector-curvature="0"
   style="fill:#7ccfdd" />
		<path
   class="st3"
   d="M 269.2,352.8 C 262.8,341.4 256,330.7 256,330.7 c -3.9,3.3 -1.2,12.2 7.7,25.6 12.4,18.6 6.7,26.5 6.4,26.9 l 2.8,-2.7 c 4.4,-6.4 1.8,-17.9 -3.7,-27.7 z"
   id="path891"
   inkscape:connector-curvature="0"
   style="fill:#7ccfdd" />
		<path
   class="st3"
   d="m 261.9,390.2 c 12.4,-11 2.1,-21.1 0.6,-24.5 -1.5,-3.4 -11.2,-17.6 -11.2,-17.6 -3.1,2.4 -2.3,8.9 5.2,20.9 8.7,13.9 5.4,21.2 5.4,21.2 z"
   id="path893"
   inkscape:connector-curvature="0"
   style="fill:#7ccfdd" />
		<path
   class="st3"
   d="m 246.3,363.4 c 0,0 -2.3,8.5 3.4,17.2 4.5,6.9 5.8,11.6 7.2,15.2 l 4.5,-4.1 c 0.4,-7.2 -4.6,-11.8 -15.1,-28.3 z"
   id="path895"
   inkscape:connector-curvature="0"
   style="fill:#7ccfdd" />
	</g>
	<path
   class="st3"
   d="m 168.1,451.9 c 0,0 15.3,22 29.9,12.3 14.6,-9.7 30.5,-14.6 31.9,-22.5 1.4,-7.9 -8.6,-13.4 -0.5,-22.6 8.1,-9.3 0,0 0,0 0,0 5.8,20 18.3,23.1 0,0 -37.8,41.9 -51,42.8 -13.2,0.9 -27.4,-18.6 -28.6,-33.1 z"
   id="path899"
   inkscape:connector-curvature="0"
   style="fill:#7ccfdd" />
	<path
   class="st3"
   d="m 253.9,428.2 c 0,0 37.8,-11.1 38.1,-17.8 0.3,-6.7 -5.8,-17.9 -5.8,-17.9 0,0 14,18.7 25.7,18.2 0,0 -31.4,19.8 -49.5,22.9 0,0 -6,-2.5 -8.5,-5.4 z"
   id="path901"
   inkscape:connector-curvature="0"
   style="fill:#7ccfdd" />
	<path
   class="st3"
   d="m 287.8,386.4 c 0,0 10.5,15.8 15.8,16.9 l -3.6,2.8 c 0,0 -11.5,-7.6 -15.4,-16.1 z"
   id="path903"
   inkscape:connector-curvature="0"
   style="fill:#7ccfdd" />
	<path
   class="st3"
   d="m 280.3,374.4 c 0,0 7.3,-1.4 14.7,7.7 7.4,9.1 9.5,18.5 9.5,18.5 0,0 -12.7,-11.6 -14.2,-17 l -5.8,6.3 c 0,0.1 -5,-5.6 -4.2,-15.5 z"
   id="path905"
   inkscape:connector-curvature="0"
   style="fill:#7ccfdd" />
	<path
   class="st3"
   d="m 300.2,379.8 c 0,0 15.9,16.3 15.1,28.4 0,0 -6.8,5.8 -15.4,-2 l 8.3,-5.3 c 0,0 -1.2,-11.1 -9.6,-19.8 z"
   id="path907"
   inkscape:connector-curvature="0"
   style="fill:#7ccfdd" />
	
	
	
	
	
	
	
	
	
	
	
	
	
	
	
	
	
	
	
	<g
   id="g953">
		
		<path
   d="m 304,377.7 c 15.3,-16.4 6.4,-35.6 -2.3,-54.3 -0.6,-1.4 -1.3,-2.7 -1.9,-4.1 -12.7,-27.6 -18.2,-43.6 -17.3,-50.2 0.1,-0.4 -0.1,-0.9 -0.5,-1.1 -0.3,-0.3 -0.8,-0.3 -1.2,-0.1 -3.4,1.5 -6.3,4.7 -7.8,8.7 -1.1,2.9 -1.4,6 -1.1,9.3 -3.4,2.1 -7.6,7.3 -5.9,15.7 -4.2,2.4 -6.1,7.4 -5.3,13.1 -5.7,3.1 -7.2,9.6 -6,15.6 -1.4,0.8 -3.9,2.8 -5.3,6.3 -1.2,3.3 -1.1,7.1 0.4,11.3 -2.1,1.6 -7.4,6.7 -4.9,15.3 -0.8,0.8 -2.4,2.4 -3.6,4.8 -1.6,3.2 -2.8,8.3 0.1,14.7 2.6,5.7 5.9,8.3 8.8,10.6 1.5,1.2 2.9,2.3 3.9,3.7 -4.7,4.2 -8.9,7.7 -11.8,9.4 -1.1,-0.1 -3.7,0 -6.7,1.3 -3.7,-6.9 -2.8,-16.7 -0.3,-38.5 0.8,-6.7 -0.6,-12.3 -4,-16.7 -8.1,-10.2 -26.5,-12.3 -42.7,-14.2 l -2.4,-0.3 c -30.1,-3.5 -46.6,-7.1 -51.9,-11.4 -0.3,-0.3 -0.8,-0.3 -1.2,-0.2 -0.4,0.2 -0.7,0.5 -0.8,0.9 -0.5,3.6 0.6,7.6 3.2,11 1.9,2.5 4.4,4.4 7.5,5.9 0,3.9 2.3,10.2 10.3,13.2 -0.1,2.5 0.7,5 2.3,7.1 1.5,1.9 3.6,3.4 6.2,4.5 -0.2,6.4 4.4,11 10.1,13.1 0,1.5 0.2,4.9 2.6,7.9 2.2,2.8 5.5,4.6 9.9,5.5 0.3,2.7 1.9,9.7 10.5,12 0.2,1.1 0.8,3.3 2.3,5.6 1.9,3 5.6,6.7 12.7,7.5 1.2,0.1 2.2,0.2 3.3,0.2 1.2,0 2.3,-0.1 3.3,-0.2 -13.2,6.5 -33.4,16.3 -42.6,20 -3.9,1.6 -6.1,5.1 -6.4,10.2 -0.5,11.6 9.7,28.4 20.5,33.9 2.7,1.4 5.3,2 7.8,2 3.2,0 6.2,-1.1 8.9,-3.2 19.7,-15.6 40.3,-36.6 43.7,-40.2 0.7,0.1 1.3,0.1 2,0.1 8.3,0 11.9,-6.9 12.7,-8.8 21.9,-8.6 41,-18.6 48.6,-22.8 1.8,-0.3 3,-1.2 3.8,-2.1 0,0 0,-0.1 0.1,-0.1 0,-0.1 0.1,-0.1 0.1,-0.2 9.1,-11 -7.4,-27.7 -11.7,-31.7 z m 10,30.1 c -0.4,0.2 -1.4,0.8 -2.9,1.6 -0.9,0.1 -1.9,0 -3,-0.2 -1.9,-0.5 -4.1,-1.5 -6.2,-2.9 l 6.3,-4.4 c 0,0 0,0 0,0 0,0 0,0 0.1,0 3.6,-3.1 -2.9,-13.9 -8,-20.6 0.7,-0.6 1.4,-1.2 2.1,-1.8 3.7,3.5 19.1,19 11.6,28.3 z m -28,-17.7 4.1,-4.6 c 2.6,4 9.2,13.6 13.9,16.2 l -4.4,3.1 c -4.9,-3.7 -10,-9.2 -13.6,-14.7 z m -3.7,-17.2 c 0.8,-0.8 1.3,-1.3 1.4,-1.4 0,0 0,0 0,0 0.1,0 0.1,-0.1 0.2,-0.1 0,0 0,0 0.1,0 0.2,0 0.4,-0.1 0.5,-0.1 2.4,-0.2 6.9,3.2 11.8,9 8.3,9.8 11.7,18.7 10.4,19.9 l -0.1,0.1 c -0.1,0 -0.2,0.1 -0.4,0 -3.3,-0.5 -10.9,-10.8 -14.9,-17.1 -0.2,-0.3 -0.5,-0.5 -0.9,-0.6 0,0 -0.1,0 -0.1,0 -0.3,0 -0.7,0.1 -0.9,0.4 l -4.7,5.2 c -1.5,-2.7 -2.7,-5.3 -3.2,-7.7 -0.7,-3.3 -0.5,-5.8 0.8,-7.6 z m -7,-95.6 c 1,-2.7 2.7,-4.9 4.7,-6.3 0.2,8.1 5.8,23.5 17.6,49.3 0.6,1.4 1.3,2.7 1.9,4.1 8.4,18.1 17.1,36.9 2,52.3 0,0 -0.1,0 -0.1,0.1 l -2.8,2.5 c -0.2,-0.2 -0.4,-0.5 -0.6,-0.7 -1,-1.1 -2.1,-2.4 -3.4,-3.7 16.4,-11.2 6.6,-31.1 -8.1,-60.9 -3.2,-6.6 -6.6,-13.4 -10,-20.8 -2.5,-5.6 -3,-11.2 -1.2,-15.9 z m -2.9,11.1 c 0.4,1.9 1.1,3.9 2,5.8 3.4,7.4 6.8,14.3 10,20.8 15.5,31.5 23,48.6 8.5,58.1 -0.5,-0.4 -0.9,-0.8 -1.4,-1.2 10.3,-13.2 -3.7,-36.1 -14,-53 -3.1,-5 -5.7,-9.4 -7.3,-12.7 -0.7,-1.5 -1.2,-2.8 -1.5,-4.1 0,-0.2 0,-0.4 -0.1,-0.6 0,0 -0.1,-0.1 -0.1,-0.1 -1.7,-7.3 1.8,-11.4 3.9,-13 z m -5.7,15.5 c 0.3,1.1 0.8,2.2 1.3,3.3 1.6,3.4 4.3,7.9 7.4,13 9.9,16.3 23.5,38.5 14.1,50.4 -1.4,-0.9 -2.8,-1.6 -4.2,-1.8 2.3,-14.3 -9.4,-31.8 -16.5,-42.4 -1.9,-2.9 -3.5,-5.2 -4.1,-6.5 -3,-6.7 -2.1,-13.1 2,-16 z m -5.5,13.1 c 0.3,1.3 0.8,2.6 1.4,3.9 0.7,1.5 2.3,3.8 4.2,6.8 6.6,9.8 18.7,27.9 16,41.4 -0.3,0.1 -0.6,0.3 -1,0.6 -0.6,0.5 -1,1 -1.5,1.6 -1,1 -2.4,2.5 -4.2,4.2 1.7,-12.9 -7.3,-26 -13.4,-34.9 -2,-2.9 -3.8,-5.5 -4.6,-7.2 -0.4,-0.9 -0.7,-1.8 -1,-2.7 0,-0.2 0,-0.3 -0.1,-0.5 0,0 0,0 -0.1,-0.1 -1.3,-5.9 0.8,-10.7 4.3,-13.1 z m -9.5,20.3 c 0.9,-2.4 2.6,-3.9 3.7,-4.8 0.2,0.6 0.4,1.3 0.7,1.9 0.9,2 2.7,4.6 4.8,7.6 6.5,9.4 16.2,23.7 12.3,36.7 -1.3,1.3 -2.6,2.6 -4.1,4.1 1.9,-7.6 -3.5,-14.9 -8.7,-22.1 -2.8,-3.8 -5.6,-7.7 -7.4,-11.6 -2.1,-4.6 -2.5,-8.6 -1.3,-11.8 z m -0.9,12.7 c 1.9,4.2 4.8,8.2 7.6,12 7,9.6 13.1,18 4,27 0,-4 -3.3,-8.4 -6.8,-12.9 -2.5,-3.2 -5,-6.5 -6.9,-10.2 -4.7,-8.8 -0.1,-14 2.1,-15.9 z m 1,41.2 c -2.8,-2.3 -5.7,-4.6 -8.1,-9.7 -3.7,-8.1 0.1,-13.7 2.2,-16 0.2,0.5 0.5,1.1 0.8,1.7 2,3.9 4.8,7.4 7.2,10.5 5.6,7.2 8.5,11.5 4.3,15.3 -0.2,0.2 -0.3,0.4 -0.3,0.6 -0.6,0.5 -1.2,1.1 -1.8,1.6 -1.3,-1.6 -2.8,-2.7 -4.3,-4 z m 26.9,-14.7 c -0.1,1.3 0.1,2.8 0.4,4.3 0.7,3 2.2,6.3 4.3,9.7 0,0.1 0.1,0.2 0.2,0.3 3.9,6.2 9.6,12.3 15.3,16.4 0.1,0.1 0.2,0.2 0.3,0.2 2.8,2 5.6,3.4 8.1,4.1 -9,4.8 -25.8,13.3 -44.8,20.8 -12.3,-4.5 -17.2,-20.5 -18.2,-24.4 8.3,-5.3 25.8,-22.7 34.4,-31.4 z M 137.6,336.6 c -1.7,-2.2 -2.7,-4.7 -2.8,-7.1 7,4.1 23.1,7.4 51.3,10.7 l 2.4,0.3 c 15.8,1.8 33.6,3.9 41.1,13.3 3.1,3.9 4.3,8.8 3.5,14.9 -2.6,22.8 -3.6,33.1 0.9,40.7 0,0.1 0.1,0.2 0.1,0.4 0.1,0.1 0.2,0.3 0.3,0.4 1.4,2.2 3.3,4.1 5.7,6.1 -0.7,0.3 -1.9,0.3 -3.7,-0.3 -3.7,-1.2 -6.7,-4 -8.3,-10.8 -0.1,-0.5 -0.2,-0.9 -0.3,-1.4 -1.4,-7.2 -1.6,-18.4 0.2,-36 0.5,-5 -0.5,-8.8 -3.1,-11.8 -6.2,-7.3 -21.1,-8.2 -41.6,-9.4 -9.3,-0.6 -19.8,-1.2 -31.3,-2.5 -6.2,-0.8 -11.3,-3.5 -14.4,-7.5 z m 8.1,8.4 c 1.9,0.7 3.9,1.2 6.1,1.4 11.5,1.3 22.1,2 31.4,2.5 20,1.2 34.4,2.1 40,8.6 2.1,2.4 2.9,5.7 2.5,10 -0.6,-1 -1.3,-2 -2.2,-2.9 -8.8,-8.7 -30.5,-8.4 -47.9,-8.2 -6.5,0.1 -12.1,0.2 -15.8,-0.3 -11.5,-1.3 -13.7,-8 -14.1,-11.1 z m 12,17.7 c -1.2,-1.5 -1.8,-3.1 -1.8,-4.9 1.1,0.3 2.3,0.5 3.6,0.6 3.9,0.5 9.5,0.4 16.1,0.3 16.1,-0.2 38,-0.5 46.2,7.5 2.1,2.1 3.2,4.6 3.2,7.7 0,0.2 0,0.3 0.1,0.4 -0.1,1.1 -0.2,2.1 -0.2,3.2 -0.2,-0.3 -0.5,-0.6 -0.7,-0.9 -8.1,-8.7 -32.4,-8.6 -46.9,-8.6 -3.9,0 -7,0 -8.6,-0.2 -1.7,-0.2 -3.2,-0.6 -4.7,-1.1 -0.2,-0.1 -0.3,-0.2 -0.5,-0.2 0,0 0,0 0,0 -2.5,-0.7 -4.5,-2.1 -5.8,-3.8 z m 6.7,6.9 c 1.2,0.4 2.5,0.6 3.9,0.8 1.7,0.2 4.9,0.2 8.9,0.2 13.2,0 37.7,-0.1 45.2,7.8 1.6,1.7 2.3,3.6 2.1,5.9 0,1.2 -0.1,2.4 -0.1,3.5 -6.6,-6.8 -25.3,-6.9 -38.5,-7 -3.8,0 -7.2,-0.1 -9,-0.3 -6.2,-0.7 -12.3,-4.7 -12.5,-10.9 z m 12.2,18.7 c -1.6,-2.1 -2,-4.4 -2.1,-5.8 0.7,0.2 1.4,0.3 2.1,0.4 2,0.2 5.2,0.3 9.3,0.3 13.1,0.1 37.3,0.3 38.5,9.9 0,1.7 0.1,3.3 0.3,4.9 -5.1,-5.1 -14.7,-4.8 -24,-4.5 -4.5,0.2 -9.2,0.3 -13.3,-0.2 -0.4,0 -0.7,-0.1 -1.1,-0.2 -0.2,-0.1 -0.3,-0.1 -0.5,-0.1 0,0 0,0 0,0 -0.1,0 -0.1,0 -0.2,0 -4.1,-0.7 -7.1,-2.3 -9,-4.7 z m 10.4,7.4 c 0,0 0,0 0,0 4.3,0.5 9.1,0.3 13.7,0.2 13.2,-0.4 22.3,-0.1 24.7,8.2 0.1,0.6 0.3,1.2 0.4,1.7 0,0.2 0.1,0.4 0.1,0.6 0,0.1 0.1,0.2 0.1,0.3 -3.9,-2.2 -9,-1.8 -14.7,-1.4 -3.5,0.3 -7.5,0.6 -11.8,0.3 -9.9,-0.6 -12,-7 -12.5,-9.9 z m 35.7,20.5 c -3.4,1.2 -6.9,2.5 -12.4,1.8 -9,-1.1 -11.8,-7.3 -12.6,-10.2 0.6,0.1 1.2,0.1 1.8,0.2 4.4,0.3 8.5,0 12.1,-0.3 8.3,-0.7 13.8,-1.1 17,5.2 0.1,0.2 0.3,0.4 0.5,0.5 -0.3,0.4 -0.4,0.7 -0.6,1.1 -0.1,0.1 -0.3,0.1 -0.4,0.2 -2,0.3 -3.7,0.9 -5.4,1.5 z m -19.3,65.3 c -4.1,3.3 -8.9,3.6 -14.1,0.9 -10.2,-5.2 -19.7,-20.9 -19.2,-31.7 0.2,-4.1 1.8,-6.8 4.9,-8.1 12.7,-5.1 45.9,-21.6 53.5,-25.4 0.9,5 4.5,19.4 17.6,25.2 -5.2,5.2 -24.3,24.5 -42.7,39.1 z m 45.4,-40.7 c -0.2,-0.1 -0.4,-0.2 -0.7,-0.2 -12.7,-4.9 -16.4,-18.7 -17.3,-23.7 1.4,0.1 3,0.5 4.9,1.2 0.2,0.1 0.4,0.1 0.6,0.1 1.1,0.3 2,0.5 2.8,0.5 2.9,0 4.2,-1.8 4.2,-1.9 0.4,-0.5 0.2,-1.2 -0.3,-1.6 -2.5,-1.9 -4.4,-3.7 -5.9,-5.7 2.1,-0.9 4,-1 4.9,-1 0.5,1.8 1.7,6 4,10.5 3.8,7.5 8.9,12.6 14.8,15.1 -1.1,2.3 -4.5,7.6 -12,6.7 z"
   id="path949"
   inkscape:connector-curvature="0" />
		
	</g>
</g>
</svg>