<svg xmlns="http://www.w3.org/2000/svg" width="300" height="323" viewBox="0 0 300 323">
    <defs>
        <style>
            .cls-1,.cls-3{fill:#7ccfdd}.cls-1{opacity:.5}.cls-2{fill:#fff}
        </style>
    </defs>
    <g id="the-parchment-flies-away_touched" transform="translate(-87.41 -76.862)">
        <path id="path670" d="M112.451 152.2c-85.824 94.346 63.7 342.774 225.221 187.356S225.328 28.19 112.451 152.2z" class="cls-1" transform="translate(0 10.365)"/>
        <path id="path672" d="M360.912 208.439a77.224 77.224 0 0 0-13.942-12.87c-2.011-1.475-3.888-2.681-5.9-3.888 1.207-1.341 2.547-2.815 4.022-4.29 20.109-21.315-4.558-42.9-24.4-61.667C294.016 100.656 281.415 85.91 279.4 78c-4.558 4.692-6.3 13.808-.938 22.79l-.268-.268s-7.373 8.446.67 19.439c-4.156 4.29-3.888 10.859-.134 16.891-4.424 4.692-4.826 12.6.268 19.439 0 0-8.982 9.116 2.413 21.047 0 0-7.105 8.982 1.341 18.768 0 0-6.7 11.529 4.156 21.852 3.351 3.217 8.312 5.5 11.127 6.569l-12.467 23.728c-.4.536-1.073 1.072-1.609 1.743-11.127-8.312-11.663-18.366-11.663-51.479 0-29.225-32.71-28.152-60.058-28.152-36.6 0-55.9-2.011-62.74-6.435-.134 6.569 4.96 14.344 15.015 17.294l-.4-.134s.536 11.261 13.808 13.808c0 6.033 4.558 10.591 11.529 12.333 0 6.569 5.094 12.467 13.54 13.942 0 0-.268 12.87 16.221 13.674 0 0 1.072 11.4 13.808 12.736 0 0 2.949 13 17.964 13 12.333 0 15.953-6.569 24.131-6.837l3.62.536c-.4.536-2.011 3.485-1.475 5.094-23.46 24-47.457 44.24-53.624 49.334a4.712 4.712 0 0 0-1.743 3.62c-.268 4.558 1.072 14.881 14.21 24.667a70.127 70.127 0 0 0 7.507 4.826l6.435-3.754 1.206 7.105a37.832 37.832 0 0 0 13.808 2.145 5.78 5.78 0 0 0 5.228-3.888c3.486-10.054 14.747-40.486 31.772-64.214a5.97 5.97 0 0 0 2.145.134c2.547-.134 9.652-6.7 10.189-10.993a5.081 5.081 0 0 0-.67-2.279c15.819-20.109 46.653-40.486 46.653-40.486 2.011-2.011-.8-7.373-5.228-12.467zm-74.4 38.877c0 .134-.134.268-.268.4-.003-.131.131-.265.265-.399z" class="cls-2" transform="translate(19.363 .387)"/>
        <path id="path674" d="M145 254.8l13-4.156c-5.225-.533-9.648-.131-13 4.156z" class="cls-2" transform="translate(19.138 58.474)"/>
        <path id="path676" d="M233.023 235.979c-4.424 2.279-16.221 2.413-38.341.268-16.623-1.609-36.33-4.156-38.073 13.54-.67 7.239-1.207 12.736-1.877 16.891l-6.032 12.737-3.083-.8-5.228-15.283a21.1 21.1 0 0 0 5.631-4.96 22.791 22.791 0 0 0 3.888-6.435l.268-.268v-.269c2.681-7.775-1.743-12.736-1.743-12.736.268-.268.536-.4.8-.67 12.333-10.188 3.217-18.232 3.217-18.232a13.231 13.231 0 0 0 4.96-8.982c.4-3.888-.67-8.044-3.888-10.591 7.239-5.765 6.7-16.221-.4-21.986 0 0-4.022 8.714-25.873 26.41-12.467 10.054-27.616 21.986-16.623 35.258.67.8 1.207 1.475 1.743 2.145a17.455 17.455 0 0 0-2.279 1.072 47.368 47.368 0 0 0-10.59 7.37l4.424 5.362 3.083-1.475c-4.156 2.949-6.167 5.9-4.558 7.239l25.069 26.678h-.134a2 2 0 0 0-.4 1.341c0 2.681 3.888 6.971 5.5 7.239h1.341c8.848 15.283 13.942 34.453 15.551 40.754a3.411 3.411 0 0 0 2.949 2.681 24.877 24.877 0 0 0 18.1-3.754c8.446-5.362 9.92-12.065 10.054-14.881a3.14 3.14 0 0 0-.938-2.279c-3.351-3.352-16.087-16.355-28.421-31.638v-3.62a22.8 22.8 0 0 0 17.294 5.5c15.551-1.341 16.355-12.736 16.355-12.736.4 0 .67.134 1.072.134 16.489 1.609 15.819-10.993 15.819-10.993 7.775.938 16.087-5.63 15.283-13.674 9.779 1.071 17.157-6.972 16.08-16.357zm-87.675 42.5z" class="cls-2" transform="translate(4.118 33.619)"/>
        <g id="g716" transform="translate(168.997 78.387)">
            <path id="path678" d="M307.007 187.9a5.434 5.434 0 0 1-1.207.67 2.175 2.175 0 0 0 1.207-.67z" class="cls-3" transform="translate(-96.4 -40.569)"/>
            <circle id="circle680" cx="5.899" cy="5.899" r="5.899" class="cls-3" transform="translate(137.276 183.527)"/>
            <path id="path682" d="M282.062 164.658s6.569-5.63 33.783 20.243l2.815-2.145s-27.75-29.493-41.022-21.181c-3.754 2.413-3.888 8.312-3.888 8.312l4.96 8.446.268 7.507 6.167-1.073s9.25 5.9 14.076 8.58a113.743 113.743 0 0 1-14.076-8.58s15.149 10.591-1.475 29.761-19.17 21.986-19.17 21.986 4.022 3.888 7.909 2.815c0 0 28.421-29.9 47.323-41.424a6.233 6.233 0 0 1-1.207.4c5.899-1.874-19.438-24.128-36.463-33.647zm-3.352 5.094l2.413-5.094s-.67 9.786 26.41 24l-5.5 6.033a6.533 6.533 0 0 0-.938-.4l2.949-2.547s-21.714-10.194-25.334-21.991z" class="cls-3" transform="translate(-110.466 -50.038)"/>
            <path id="path684" d="M274.416 230.723c-3.754-2.413-13.406-9.116-18.634-16.623l-3.083 3.217s21.449 13.138 8.714 32.174c-4.96 7.105-10.457 15.417-15.417 23.058-10.591 16.489-36.2 12.87-36.2 12.87a43.827 43.827 0 0 0 13.406 9.92l6.435-3.754 1.206 7.105s16.489 6.569 19.17-1.877c11.529-36.062 32.174-64.885 32.174-64.885l-7.105-1.877c-.263.002-.397.27-.666.672z" class="cls-3" transform="translate(-129.096 -31.646)"/>
            <path id="path686" d="M261.5 120.405c21.852 17.83 45.58 40.62 46.384 53.087 0 0 11.529-12.468-28.555-45.848-23.594-19.707-31.906-29.359-33.515-32.844-.134 0-6.167 7.909 15.685 25.605z" class="cls-3" transform="translate(-117.122 -72.278)"/>
            <path id="path688" d="M302.656 147.711c18.634 22.388 11.127 30.968.938 41.156l4.826 2.681c12.065-10.993 22.924-28.823-16.891-62.606C251.714 95.428 246.62 78 246.62 78c-7.642 23.46 37.402 47.323 56.036 69.711z" class="cls-3" transform="translate(-116.85 -78)"/>
            <path id="path690" d="M246.218 109.3c-3.083 6.569 1.877 11.8 19.036 26.142 32.71 27.616 35.258 41.29 35.258 41.29 9.518-18.903-23.192-33.783-54.294-67.432z" class="cls-3" transform="translate(-116.985 -67.34)"/>
            <path id="path692" d="M292.577 169.089s-7.105-11.529-22.254-24.667c-15.148-13.272-24.264-22.522-24.264-22.522s-5.765 8.982 17.7 26.946c14.612 11.261 21.315 20.511 21.315 20.511z" class="cls-3" transform="translate(-116.96 -63.048)"/>
            <path id="path694" d="M279.849 167.77L246.2 136.4c1.073 14.881 6.167 14.746 31.37 38.475z" class="cls-3" transform="translate(-116.699 -58.11)"/>
            <path id="path696" d="M271.4 184.006l2.815-7.105c-6.971-7.909-26.008-24.8-26.008-24.8-2.946 10.456 9.655 19.035 23.193 31.905z" class="cls-3" transform="translate(-116.162 -52.762)"/>
            <path id="path698" d="M266.428 189.929l2.681-6.3L249 166.2c0-.134 0 19.707 17.428 23.729z" class="cls-3" transform="translate(-115.745 -47.96)"/>
            <path id="path700" d="M268.779 193.345c-1.072 39.95 19.3 37.536 19.3 37.536-16.489-8.848-15.685-25.337-15.685-54.964 0-29.493-33.247-27.482-73.2-27.482-40.084 0-49.6-6.435-49.6-6.435 7.239 12.065 14.478 13.54 49.066 13.54 65.019 0 71.319-3.754 70.113 37.8z" class="cls-3" transform="translate(-149.6 -56.202)"/>
            <path id="path702" d="M208.736 162.71c50.406-2.681 51.747 12.736 51.747 13.272-.4-19.3-15.819-21.047-52.417-20.243s-47.457-.938-47.457-.938-3.083 10.725 48.127 7.909z" class="cls-3" transform="translate(-145.863 -51.843)"/>
            <path id="path706" d="M189.568 171.839c14.478-1.475 51.211-2.949 67.03 6.837 0 0 6.971-14.076-33.649-14.076s-52.149.536-52.149.536 4.156 8.312 18.768 6.703z" class="cls-3" transform="translate(-142.38 -48.505)"/>
            <path id="path708" d="M254.071 187.238s6.971-13.138-34.855-13.138c-25.605 0-39.815.268-39.815.268a14.245 14.245 0 0 0 12.333 6.569c8.713-.137 49.735-4.156 62.337 6.301z" class="cls-3" transform="translate(-139.45 -45.269)"/>
            <path id="path710" d="M219.093 190.6c29.493-2.011 33.247 5.228 33.247 5.228-1.743-11.931-17.562-13.138-32.71-11.931-15.283 1.206-30.029 1.072-30.029 1.072 1.34 5.896 10.322 6.968 29.492 5.631z" class="cls-3" transform="translate(-135.976 -42.059)"/>
            <path id="path712" d="M225.463 201.374c16.489-1.877 26.142 2.949 26.142 2.949-4.424-11.4-21.986-9.786-26.276-9.92-4.424 0-23.728.536-23.728.536 1.071 4.561 7.372 8.446 23.862 6.435z" class="cls-3" transform="translate(-131.889 -38.358)"/>
            <path id="path714" d="M211.9 204.8s7.641 9.116 19.707 7.373 18.5-4.022 23.46-2.145c0-.001-2.547-10.728-43.167-5.228z" class="cls-3" transform="translate(-128.381 -35.348)"/>
        </g>
        <path id="path718" d="M115.808 238.7l18.634 29.761-7.909.536s-7.373-13-24.533-28.018a24.611 24.611 0 0 0 13.808-2.279z" class="cls-3" transform="translate(4.969 54.459)"/>
        <path id="path720" d="M131.1 265.3s12.736 34.855 28.421 30.968c5.9-1.475 8.714-9.652 8.714-9.652l2.949 2.949s3.217 16.757-22.522 21.181c-6.167 1.073-7.775-3.083-7.775-3.083s-6.569-28.421-15.685-41.156z" class="cls-3" transform="translate(12.517 63.285)"/>
        <path id="path722" d="M128.965 231.7a39 39 0 0 0-24.265 11.663c-.134 0 15.551-.804 24.265-11.663z" class="cls-3" transform="translate(5.889 52.141)"/>
        <path id="path724" d="M122.449 228.32s-9.25-1.341-21.449 7.105l3.083 4.022 17.83-9.25z" class="cls-3" transform="translate(4.629 50.977)"/>
        <path id="path726" d="M151.5 178s5.094 12.333-4.558 19.707-45.58 27.08-30.3 42.095l-5.9 2.011s-13.674-12.333 1.341-25.471S148.418 184.7 151.5 178z" class="cls-3" transform="translate(6.008 33.98)"/>
        <path id="path728" d="M119.048 233.109s-6.569-6.3-2.279-11.395c4.29-5.228 32.576-27.214 32.576-27.214s4.558 8.58-10.993 19.573-19.304 19.036-19.304 19.036z" class="cls-3" transform="translate(9.504 39.571)"/>
        <path id="path730" d="M122.8 227.568l22.388-18.768s2.413 8.446-6.837 14.478-12.87 11.261-12.87 11.261z" class="cls-3" transform="translate(11.75 44.405)"/>
        <path id="path732" d="M139.608 223.3s.67 13.54-10.993 19.573l-2.815-9.786z" class="cls-3" transform="translate(12.756 49.298)"/>
        <path id="path734" d="M143.8 256.362s13.272 8.982 26.142-2.413c0-.134-17.696-8.849-26.142 2.413z" class="cls-3" transform="translate(18.717 58.513)"/>
        <path id="path736" d="M185.6 244.615s-33.649-8.446-35.928.536c-.536 2.145-1.877 6.167-1.877 6.167s3.217-3.62 17.025-2.145 19.846-.673 20.78-4.558z" class="cls-3" transform="translate(20.021 55.28)"/>
        <path id="path738" d="M199.8 234.491s-28.42-4.156-34.453-3.888c-6.167.134-13.54-.134-14.612 6.569-.268 1.609-.536 4.156-.536 4.156s5.228-3.888 17.7-1.743 30.565 4.96 31.906-5.094z" class="cls-3" transform="translate(20.79 51.768)"/>
        <path id="path740" d="M221.307 221.607s-2.815 9.92-18.232 9.92-52.685-9.518-52.685 5.63-3.217 31.5-16.489 30.968l3.217-3.083s4.96-2.547 6.3-14.076c1.207-11.529-1.207-30.565 20.243-30.565s49.602 5.764 57.646 1.206z" class="cls-3" transform="translate(15.315 48.264)"/>
        <g id="g746" transform="translate(102.07 76.863)">
            <path id="path742" d="M234.22 234.927a1.453 1.453 0 0 0-1.475 0c-4.156 2.145-16.355 2.145-37.537.134l-1.743-.134c-11.663-1.206-25.069-2.413-32.442 3.62-3.217 2.681-5.094 6.569-5.63 11.529l-.268 2.949c-1.609 16.891-2.145 22.254-7.641 26.007-2.145-4.558-4.156-9.384-5.765-13.942a26.429 26.429 0 0 0 5.9-5.094c5.362-6.435 5.765-12.065 5.228-15.551a14.751 14.751 0 0 0-1.877-4.96c4.424-3.754 6.7-7.775 6.837-11.8a12.554 12.554 0 0 0-2.547-7.373 15.471 15.471 0 0 0 4.692-11.529 12.093 12.093 0 0 0-3.486-8.312 14.7 14.7 0 0 0 4.29-10.457 16.675 16.675 0 0 0-6.167-12.736 1.651 1.651 0 0 0-1.341-.268 1.3 1.3 0 0 0-1.073.938c0 .134-4.29 8.714-25.471 25.873l-.4.268c-9.25 7.373-19.573 15.819-20.511 25.337-.4 4.022.938 8.044 4.022 11.8l.4.536c-.134 0-.268.134-.4.134a41.586 41.586 0 0 0-10.993 7.775 1.629 1.629 0 0 0-.134 2.145l4.156 4.96a9.064 9.064 0 0 0-1.878 3.224 3.073 3.073 0 0 0 1.073 3.217 172.682 172.682 0 0 1 24.265 25.2 3.965 3.965 0 0 0-.268 1.341v.268a6.727 6.727 0 0 0 .268 1.609 16.623 16.623 0 0 0 1.341 2.681c.134.134.268.4.4.536l.134.134c.134.134.268.4.4.536 0 .134.134.134.134.268.134.134.268.268.268.4l.134.134.4.4a7.552 7.552 0 0 0 2.685 1.876c.134 0 .268.134.4.134h.536c8.044 13.942 12.736 30.7 14.881 39.547a5.156 5.156 0 0 0 4.29 3.888h.268a24.521 24.521 0 0 0 4.424.268 27.291 27.291 0 0 0 14.612-4.29c9.652-6.167 10.725-13.942 10.859-16.087a4.747 4.747 0 0 0-1.341-3.486c-4.558-4.558-16.087-16.489-27.616-30.565a23.933 23.933 0 0 0 13.138 3.754 14.567 14.567 0 0 0 2.413-.134c13.138-1.207 16.623-9.116 17.428-12.6 6.033.536 10.591-.67 13.54-3.62a12.551 12.551 0 0 0 3.62-7.373 18.636 18.636 0 0 0 13.406-5.5 11.907 11.907 0 0 0 3.486-8.312 15.768 15.768 0 0 0 9.384-4.424 16.7 16.7 0 0 0 4.829-13.8c.268-.268 0-.8-.536-1.072zM149.093 286c0 .134.134.134 0 0a5.435 5.435 0 0 1-.67 1.206c-2.279 2.949-8.848 7.373-13.138 8.178-.268 0-.536.134-.8.134h-.938c-.134 0-.268-.134-.4-.134a5.976 5.976 0 0 1-1.609-1.609 1.851 1.851 0 0 1-.4-.536l-.134-.134c-.134-.268-.4-.4-.536-.67 0-.134-.134-.134-.134-.268a1.016 1.016 0 0 1-.268-.536.131.131 0 0 0-.134-.134c4.424-.67 11.261-4.96 14.612-7.775a6.967 6.967 0 0 0 4.549 2.278zm-3.754-28.152a22.431 22.431 0 0 1-4.558 4.156 433.789 433.789 0 0 1-3.486-11.261c1.743-2.279 4.558-4.424 7.775-6.7 1.207-.8 2.279-1.743 3.486-2.547 1.475 2.413 3.352 8.311-3.217 16.355zm3.486-20.779c-1.877 1.609-3.754 2.949-5.63 4.29a61.037 61.037 0 0 0-6.837 5.5c-.4-1.743-.8-3.083-.938-3.888-.134-.4-.268-.938-.4-1.341a6.285 6.285 0 0 0-2.413-2.547c4.558-5.362 13.674-12.065 18.634-15.819a8.359 8.359 0 0 0 1.609-1.207 8.936 8.936 0 0 1 1.877 5.228c-.004 3.352-2.014 6.569-5.902 9.787zm3.351-18.366q-1.005.8-2.815 2.011c-5.5 4.022-15.417 11.261-19.975 17.294a15.3 15.3 0 0 0-3.62-.268c-.4-.536-.938-1.072-1.341-1.609a6.164 6.164 0 0 1-1.743-4.558c.536-5.228 9.518-12.065 22.924-22.522 2.681-2.011 5.5-4.156 8.446-6.569a8.917 8.917 0 0 1 2.815 6.3 12.386 12.386 0 0 1-4.691 9.924zM112.36 239.08c-2.547-3.083-3.62-6.167-3.352-9.384.8-8.178 10.725-16.221 19.439-23.192l.4-.268c16.489-13.406 23.058-21.718 25.337-25.2a13.071 13.071 0 0 1 3.62 8.848 11.94 11.94 0 0 1-4.692 9.384c-3.351 2.681-6.435 4.96-9.384 7.239-15.149 11.663-23.46 18.1-24.131 24.667a9.121 9.121 0 0 0 2.413 6.971 41.751 41.751 0 0 0-8.446 2.279zm-10.054 11.8a43.558 43.558 0 0 1 9.116-6.167c6.7-3.351 14.344-4.558 18.5-3.217a3.7 3.7 0 0 1 2.145 1.609c0 .134 0 .134.134.268 0 .134 0 .134.134.268.4 2.413-2.547 7.507-10.725 12.333-9.518 5.5-16.087 5.362-17.294 4.826a.131.131 0 0 1-.134-.134c-.134-1.609 7.373-8.446 20.109-11.8a1.809 1.809 0 0 0 1.207-2.011 1.61 1.61 0 0 0-1.609-1.207h-.4c-7.105 1.877-13.942 5.228-18.1 8.58zm5.9 13.272a40.021 40.021 0 0 0 15.015-5.362c4.826-2.815 8.58-6.167 10.591-9.384.134.4.134.67.268 1.073a.492.492 0 0 0 .134.4 199.883 199.883 0 0 0 10.053 28.421c-.536 1.072-3.754 3.888-8.446 6.435a23.379 23.379 0 0 1-5.5 2.413 163.46 163.46 0 0 0-22.12-24zm71.319 57.779c0 1.341-.8 8.178-9.384 13.54a22.578 22.578 0 0 1-16.757 3.486h-.268a1.854 1.854 0 0 1-1.609-1.475c-2.145-8.714-6.7-25.2-14.612-39.145a34.085 34.085 0 0 0 13.138-8.178c.268-.268.4-.536.67-.67 11.8 14.478 23.728 26.678 28.286 31.37a1.219 1.219 0 0 1 .536 1.072zm-10.591-33.515a21.08 21.08 0 0 1-13.406-3.083 14.335 14.335 0 0 0 6.971-5.094c3.888-4.29 9.25-3.486 16.489-2.279 1.475.268 2.949.4 4.558.67-.804 2.949-3.754 8.848-14.612 9.786zm29.225-15.283c-2.413 2.279-6.167 3.217-11.4 2.681-2.547-.268-4.826-.67-7.239-1.072-5.094-.8-9.652-1.609-13.674-.4a50.377 50.377 0 0 0 2.413-7.909 2.4 2.4 0 0 1 .67-.938c4.29-3.217 20.377-.134 28.152 1.341 1.475.268 2.681.536 3.62.67a8.908 8.908 0 0 1-2.542 5.628zM215.05 260.4a15.839 15.839 0 0 1-12.467 4.424 42.2 42.2 0 0 1-4.96-.938c-11.261-2.145-22.656-4.022-28.555-1.877.268-1.609.4-3.217.67-4.96a7.025 7.025 0 0 1 2.145-4.692c4.29-3.352 15.819-1.877 33.247.4a580.96 580.96 0 0 0 12.2 1.609h.268a8.717 8.717 0 0 1-2.548 6.034zm13-12.6a12.583 12.583 0 0 1-10.323 3.486c-4.29-.536-8.446-1.073-12.065-1.609-19.573-2.547-30.431-4.022-35.66.268a9.357 9.357 0 0 0-3.351 6.837 67.814 67.814 0 0 1-1.341 8.982.492.492 0 0 1-.134.4c-3.217 14.478-9.518 16.489-13.138 16.757H150.3a7.594 7.594 0 0 1-2.011-.4c8.044-4.558 8.58-10.993 10.323-29.091l.268-2.949c.4-4.156 1.877-7.239 4.424-9.384 6.435-5.228 18.9-4.022 30.029-2.949l1.743.134c19.439 1.877 31.1 2.011 37 .4a14.263 14.263 0 0 1-4.022 9.116z" transform="translate(-98.345 -43.665)"/>
            <path id="path744" d="M357.7 213.07l4.558-3.34a1.835 1.835 0 0 0 .67-1.069 1.98 1.98 0 0 0-.268-1.2 80.506 80.506 0 0 0-14.21-13.095 84.739 84.739 0 0 0-4.29-2.94c.8-.935 1.743-1.871 2.681-2.806 5.5-5.746 8.044-12.026 7.909-18.573-.536-15.366-16.355-30.064-30.3-43.159l-2.145-2c-25.873-24.319-38.877-39.15-40.754-46.766a1.632 1.632 0 0 0-1.072-1.2 1.766 1.766 0 0 0-1.609.4 17.429 17.429 0 0 0-4.692 12.827A24.81 24.81 0 0 0 277 100.7c-1.743 2.539-5.63 10.155.4 19.508-3.486 4.543-3.351 10.823 0 16.7-3.754 4.81-4.558 12.427.268 19.508a14.5 14.5 0 0 0-2.949 9.086c.134 4.142 1.877 8.151 5.362 12.159a16.15 16.15 0 0 0 1.475 18.707c-1.475 3.207-4.826 13.5 4.96 22.715a27.75 27.75 0 0 0 10.054 6.28 223.332 223.332 0 0 1-11.8 22.448c-9.652-7.75-10.055-17.771-10.055-49.305 0-7.883-2.413-14.3-6.971-18.974-10.857-10.824-32.574-10.824-51.744-10.824h-2.95c-35.526 0-55.232-2-61.935-6.146a1.416 1.416 0 0 0-1.609 0 1.626 1.626 0 0 0-.8 1.336 17.723 17.723 0 0 0 5.362 12.56 25.187 25.187 0 0 0 9.25 5.746c.67 4.543 4.156 11.491 13.808 13.9.536 5.746 4.96 10.289 11.4 12.293.536 6.013 5.228 12.159 13.54 14.03a15.207 15.207 0 0 0 4.156 8.685c2.949 2.94 6.971 4.677 12.2 5.077a16.307 16.307 0 0 0 13.942 12.694c1.207 3.34 5.765 13.095 19.3 13.095 7.373 0 11.663-2.138 15.551-4.142 3.217-1.6 5.9-2.94 9.652-2.672a10.123 10.123 0 0 0-.8 3.474c-22.12 22.581-44.374 41.422-52.953 48.5a6.693 6.693 0 0 0-2.413 4.677c-.134 4.409.8 15.633 14.881 25.922a69.062 69.062 0 0 0 7.775 4.944 1.714 1.714 0 0 0 1.609 0l4.424-2.539.8 4.81a1.633 1.633 0 0 0 1.072 1.2 42.73 42.73 0 0 0 13 2.271h1.475a7.336 7.336 0 0 0 6.7-5.077c4.96-14.3 15.551-41.154 30.968-62.8h1.341c3.083-.134 9.116-5.612 10.993-10.021 1.072-2.271.8-3.875.268-4.944 17.562-19.107 39.279-34.474 44.508-38.081.4-.267.67-.4 1.073-.668a.131.131 0 0 0 .134-.134.468.468 0 0 1 .268-.134.466.466 0 0 0 .134-.267 4.182 4.182 0 0 0 .938-3.207c-.536-2.806-2.547-6.414-5.362-10.021zm1.877 10.155c0 .267 0 .668-.134.8a9.141 9.141 0 0 1-.938.668c-2.279.935-7.507.4-15.149-2.806l4.692-4.009a1.587 1.587 0 0 0 .536-1.47 1.48 1.48 0 0 0-.938-1.2 71.529 71.529 0 0 1-12.87-7.75c-9.518-6.948-13.406-12.694-12.87-13.9v-.134a.469.469 0 0 1 .268-.134c3.486-.668 15.015 6.013 23.594 12.56 6.837 5.211 13.54 13.629 13.808 17.37zm-39.548-25.655c3.083 5.211 10.859 11.09 12.87 12.56a95.751 95.751 0 0 0 11.127 6.948l-3.888 3.34a83.376 83.376 0 0 1-8.58-4.81 45.029 45.029 0 0 1-5.765-4.142 1.525 1.525 0 0 0-1.072-.4h-.268l-4.424.8-.268-5.746a1.211 1.211 0 0 0-.4-.935c-.67-.935-1.341-1.737-2.011-2.672zm38.877 10.556l-3.352 2.539a55.919 55.919 0 0 0-7.775-7.215c-.8-.534-19.17-14.431-26.142-13.228a3.11 3.11 0 0 0-2.413 1.6.131.131 0 0 1-.134.134v.134a.466.466 0 0 1-.134.267l-3.352 6.948a16.107 16.107 0 0 1-1.877-8.418c.536-1.336.8-2.271.938-2.672a5.369 5.369 0 0 1 3.62-2.272 16.5 16.5 0 0 1 7.105.4h.268c5.9 1.47 13.272 5.077 20.645 10.422a92.933 92.933 0 0 1 12.603 11.361zM279.141 81.589c4.022 8.819 16.757 23.116 40.754 45.43l2.145 2c13.54 12.694 28.823 26.991 29.225 40.887.134 5.746-2.145 11.09-6.971 16.3-1.072 1.069-2.145 2.272-3.083 3.34a68.197 68.197 0 0 0-5.094-2.806c1.341-1.47 2.815-3.073 4.29-4.543a13.072 13.072 0 0 0 3.888-9.621c-.4-12.293-17.83-28.327-41.961-50.374-5.362-4.944-10.993-10.021-16.891-15.633-5.228-4.944-8.178-10.823-8.312-16.7a14.654 14.654 0 0 1 2.01-8.28zm-.541 22.181a41.942 41.942 0 0 0 4.558 5.345q8.848 8.218 16.891 15.633c23.46 21.513 40.486 37.146 40.888 48.1a9.457 9.457 0 0 1-2.949 7.349c-.268.267-.4.534-.67.668-1.609-12.827-26.41-34.206-42.9-48.37-4.156-3.608-7.775-6.681-10.323-9.086-9.378-8.816-7.367-16.299-5.495-19.639zm3.351 21.913c2.547 2.405 6.167 5.478 10.323 9.086 15.417 13.228 41.29 35.542 41.826 46.9a4.718 4.718 0 0 1-1.206 3.741 61.635 61.635 0 0 0-5.9-2c-6.971-12.026-26.544-28.728-37-37.814-2.547-2.272-4.692-4.009-5.765-5.078-6.167-5.746-8.044-12.961-5.094-17.771a19.352 19.352 0 0 0 2.821 2.936zm-2.949 14.03a35.072 35.072 0 0 0 2.949 3.34c1.207 1.069 3.217 2.94 5.9 5.211 9.786 8.284 27.08 23.25 34.855 34.607a21.056 21.056 0 0 0-5.094.134 9.274 9.274 0 0 0-4.692 2.405c-6.837-7.616-16.087-15.366-23.058-21.245-2.815-2.405-5.228-4.409-6.7-5.746-5.093-5.077-8.043-12.826-4.155-18.706zm.4 19.241c.536.535.938 1.069 1.475 1.6 1.475 1.47 3.888 3.474 6.837 5.879 7.105 5.879 16.623 13.9 23.326 21.513a11.1 11.1 0 0 0-.536 2c-.8 2.138-1.877 5.211-3.217 8.952a139.015 139.015 0 0 0-15.015-14.164 225.785 225.785 0 0 1-8.178-7.349c-4.29-4.009-6.435-8.017-6.569-12.026a12.572 12.572 0 0 1 1.884-6.405zm2.681 20.978c2.547 2.405 5.362 4.944 8.178 7.215 5.764 4.944 11.663 10.155 15.685 15.232-.938 2.539-2.145 5.345-3.352 8.284-2.681-2.405-5.765-4.944-8.982-7.616a1245.153 1245.153 0 0 1-6.7-5.478c-8.575-7.214-6.43-14.563-4.822-17.637zm6.3 36.745c-7.373-6.948-6.033-14.3-4.826-17.771a12.069 12.069 0 0 0 1.341 1.2c2.279 2 4.558 3.741 6.7 5.478 3.62 2.94 6.971 5.612 9.652 8.284-1.206 2.806-2.413 5.612-3.754 8.552a27.868 27.868 0 0 1-9.105-5.742zm1.743 50.909a5.5 5.5 0 1 1 5.5 5.478 5.512 5.512 0 0 1-5.492-5.478zm-3.217 0v.534c-4.022-3.474-7.105-7.082-7.91-9.487a5.821 5.821 0 0 1 .938-2.94c.4.134.67.134 1.072.267a20.724 20.724 0 0 0 2.547.267 7.576 7.576 0 0 0 5.094-1.737c1.341 1.336 3.083 2.94 5.094 4.677a8.749 8.749 0 0 0-6.827 8.419zM151.785 166.7c8.848 3.608 28.018 5.345 60.863 5.345h2.952c18.5 0 39.547 0 49.468 9.888 4.156 4.009 6.033 9.487 6.033 16.7 0 35.409.536 45.163 14.478 54.249a7.4 7.4 0 0 1-4.022.134c-.536-.134-1.206-.267-1.743-.4-7.373-2.405-14.478-12.026-14.478-54.115a13.071 13.071 0 0 0-3.888-9.62c-7.105-6.948-23.863-8.151-47.189-8.151-5.631 0-11.529.134-17.964.134-7.373.134-14.881.134-22.924.134-7.239 0-13.406-2.271-17.562-6.414a20.059 20.059 0 0 1-4.024-7.884zm14.746 16.435a30.146 30.146 0 0 0 6.971.8c8.044 0 15.685-.134 23.058-.134 31.906-.4 54.964-.668 62.874 7.082a9.651 9.651 0 0 1 2.949 7.349v.935c-10.054-8.284-42.765-6.948-64.482-6.013-5.5.267-10.323.4-13.674.4-13.003.146-16.627-6.807-17.696-10.415zm13.674 13.5a35.788 35.788 0 0 0 4.022.267c3.486 0 8.312-.267 13.808-.4 20.377-.8 54.428-2.271 62.74 5.612a5.14 5.14 0 0 1 1.743 3.608c0 1.737.134 3.34.134 5.077-10.189-7.082-41.558-5.612-58.718-4.81-3.486.134-6.167.267-7.641.267-8.714-.134-15.015-4.009-16.087-9.621zm11.395 12.426a24.759 24.759 0 0 0 4.424.4c1.609 0 4.424-.134 7.91-.267 15.015-.668 50-2.272 57.645 4.944a3.5 3.5 0 0 1 1.207 2.539c.134 2.138.268 4.276.536 6.146-8.312-5.077-27.616-4.543-47.055-3.474-3.754.267-6.971.4-8.848.4-7.105-.132-14.612-3.873-15.819-10.688zm13.674 13.763c.67 0 1.475.134 2.145.134 2.145 0 5.228-.134 9.116-.4 14.21-.8 43.7-2.405 47.457 5.211a74.405 74.405 0 0 0 1.609 8.819c-7.641-4.81-20.511-4.276-33.113-3.875-3.754.134-7.507.267-10.993.267-5.9 0-10.189-1.47-13-4.276a10.793 10.793 0 0 1-3.217-5.879zm16.355 13.362c3.485 0 7.373-.134 10.993-.267 15.149-.534 30.7-1.2 35.123 7.349v.134a11.823 11.823 0 0 0 1.073 2.272c-5.765-1.6-13.54-1.069-22.79-.4-2.815.134-5.63.4-8.714.534-11.394.533-14.746-6.282-15.684-9.622zm43.971 18.706c-3.754 1.871-7.641 3.741-14.21 3.741-10.054 0-14.21-6.28-15.685-9.621h1.743c3.083-.134 5.9-.4 8.714-.534 12.065-.8 21.583-1.47 26.007 2.539h.134a8.069 8.069 0 0 0 1.072 1.069c-2.948.401-5.227 1.604-7.775 2.806zm3.486 87.253a4.065 4.065 0 0 1-3.888 2.806 37.109 37.109 0 0 1-12.333-1.737l-.938-6.013a1.7 1.7 0 0 0-.938-1.2 1.451 1.451 0 0 0-1.475 0l-5.63 3.34a60.976 60.976 0 0 1-6.569-4.276c-12.736-9.353-13.674-19.375-13.54-23.25a3.491 3.491 0 0 1 1.207-2.405c8.446-7.082 30.3-25.521 52.149-47.7 3.62 6.146 14.21 15.1 22.522 17.771-15.284 21.911-25.74 48.501-30.566 62.664zm35.258-64.939a6.546 6.546 0 0 1-1.609-.134h-.268a16.818 16.818 0 0 1-3.888-1.336 8.693 8.693 0 0 0 5.765-8.151 5 5 0 0 0-.134-1.336 23.327 23.327 0 0 0 8.044 3.207c-1.877 3.875-6.7 7.75-7.909 7.75zm6.7-11.224a44.184 44.184 0 0 1-9.786-5.345c-8.044-5.478-13-11.09-13-12.56 0-.134.134-.134.134-.267 4.29-7.215 8.177-15.1 11.8-22.581a.131.131 0 0 1 .134-.134c1.743-3.741 3.217-7.349 4.692-10.69v-.134c2.681-6.414 4.96-12.159 6.569-16.569a32 32 0 0 0 5.228 9.487l.268 6.948a1.987 1.987 0 0 0 .536 1.2 2.27 2.27 0 0 0 1.341.4l5.5-.935a80.45 80.45 0 0 0 5.5 3.875 89.2 89.2 0 0 0 9.652 5.345.494.494 0 0 0 .4.134 46.225 46.225 0 0 0 13.674 4.276c-9.518 6.547-28.018 20.711-42.631 37.547z" transform="translate(-82.981 -76.863)"/>
        </g>
    </g>
</svg>
