<svg xmlns="http://www.w3.org/2000/svg" id="the-accounting-paper-inspected-with-a-ballot-box_touched" width="300" height="230.77" viewBox="0 0 300 230.77">
    <defs>
        <style>
            .cls-1,.cls-3{fill:#7ccfdd}.cls-1{opacity:.5}.cls-2{fill:#fff}
        </style>
    </defs>
    <path id="path625" d="M132.359 130.062C54.72 208.571 157.113 407 309.8 296.269s-79.437-265.25-177.441-166.207z" class="cls-1" transform="translate(-60.428 -98.331)"/>
    <path id="path627" d="M337.389 152.475H321.2l-16.524-17.13-16.524 17.13H267.67c4.64-11.968 7.13-22.528 5.093-30.975H155.4c1.358 8.1-1.245 18.538-5.772 30.389a36.27 36.27 0 0 0-30.9 11.029c-14.487 15.018-14.6 39.541 0 54.559l-.792-.821a5.8 5.8 0 0 0-8.488 0l-39.839 41.3a6.321 6.321 0 0 0 0 8.8l1.7 1.76a5.8 5.8 0 0 0 8.488 0l39.839-41.3c.113-.117.113-.117.113-.235-3.282 12.085-5.093 24.053-4.074 35.317 2.037 21.237 10.186 28.981 19.919 29.8l46.743-.117v.117h62.814l.113-.117c12.45-.117 20.938-14.666 23.2-27.221h51.5l44.706-47.4v-64.767h-27.281zM121.33 221.818a5.728 5.728 0 0 0-1.7-3.4l-.792-.821c.905.939 1.924 1.877 2.943 2.816a5.093 5.093 0 0 0-.451 1.405z" class="cls-2" transform="translate(-67.004 -94.316)"/>
    <path id="path629" d="M134.945 153.125s-31.21 28.746-9.621 28.746 4.928 33.674 4.928 33.674l7.627 1.643s22.645-15.722 22.645-32.031-40.01-4.693-3.168-26.869c-.118 0-7.392-6.453-22.411-5.163z" class="cls-3" transform="translate(-60.769 -91.764)"/>
    <path id="path631" d="M69.664 243.641a8.569 8.569 0 0 0 12.2 0l39.543-39.541 1.76 3.52-1.525 5.163-41.418 41.535s-4.224 4.341-8.8 0c-4.576-4.459-4.224-8.448-1.76-10.677z" class="cls-3" transform="translate(-66.995 -85.251)"/>
    <path id="path633" d="M242.869 191.7c17.717-11.85 29.685-1.173 29.685-13.024 0-16.074 30.858 8.331 30.858-10.677h-65.471L224.8 191.7z" class="cls-3" transform="translate(-48.472 -89.258)"/>
    <path id="path635" d="M222.685 228.117s-7.979 8.331-1.056 32.5l-9.5-.117s-5.4-16.778-1.408-32.5h11.968z" class="cls-3" transform="translate(-48.599 -81.685)"/>
    <path id="path637" d="M290.717 258.561L290.6 195.2l46.346-47.4s-2.347 29.333-16.309 32.97-1.525 27.573-13.024 33.674 1.056 12.437-16.896 44.117z" class="cls-3" transform="translate(-39.285 -93.339)"/>
    <path id="path639" d="M236.692 230.207s7.509-1.408 8.448 10.912c.939 14.2-9.5 31.914-18.186 31.914-11.381 0-15.253-12.789-15.253-12.789l19.125.117c-.118 0-6.102-20.415 5.866-30.154z" class="cls-3" transform="translate(-48.728 -81.718)"/>
    <path id="path641" d="M260.835 253.067s4.928-32.383-15.488-32.383 0-32.383 0-32.383h-18.069s-15.605 28.629-16.778 46.815h34.847c10.325 0 5.749 17.952 5.749 17.952z" class="cls-3" transform="translate(-49.322 -87.529)"/>
    <path id="polygon643" d="M243.392 171.6H236l9.856-23.7h21.237z" class="cls-3" transform="translate(-45.569 -91.875)"/>
    <path id="path645" d="M276.807 139.5l16.544 16.426-15.488 15.84s-4.107-5.984 4.693-15.84c4.224-4.81-11.85-10.442-5.749-16.426z" class="cls-3" transform="translate(-40.113 -93.043)"/>
    <g id="g659" transform="translate(0 25.894)">
        <path id="path647" d="M366.194 152.068a1.054 1.054 0 0 0-.113-.576c-.113-.115-.226-.345-.34-.461a.111.111 0 0 1-.113-.115c-.113-.115-.226-.115-.34-.23a.411.411 0 0 1-.34-.115h-43.132L305.627 134.1a1.288 1.288 0 0 0-1.925 0l-15.962 16.586h-17.887c4.3-11.17 6.453-21.074 4.415-29.25a1.363 1.363 0 0 0-1.358-1.036h-117.4a1.424 1.424 0 0 0-1.019.461 1.739 1.739 0 0 0-.34 1.152c1.132 6.564-.566 15.546-5.321 28.1a38.261 38.261 0 0 0-30.903 11.287 39.8 39.8 0 0 0-3.849 51.014 8.038 8.038 0 0 0-6.34 2.533l-38.151 38.804a8.938 8.938 0 0 0 0 12.322 8.372 8.372 0 0 0 12 0l36.113-36.735c-2.491 9.443-4.3 20.152-3.283 30.632 2.264 23.953 12.793 29.826 21.283 30.516l109.473-.115c12.793 0 21.849-14.049 24.453-26.832H320a1.372 1.372 0 0 0 1.019-.461l44.717-46.523a1.32 1.32 0 0 0 .34-.921l.113-63.566zm-4.528 1.382l-42 43.759h-71.775c2.491-5.067 4.981-10.134 7.472-15.085.906-1.843 1.811-3.685 2.717-5.412h65.208a1.382 1.382 0 0 0 0-2.764h-8.378l14.038-14.279a1.43 1.43 0 0 0 .453-.921 1.054 1.054 0 0 0-.453-.921l-4.189-4.261h36.906zm-56.831-16.35l21.057 21.419-15.057 15.316h-42.227zm-19.812 16.35l-20.151 20.5h-5.547c3.509-7.14 6.793-14.049 9.4-20.5zm-175.7 35.7a36.459 36.459 0 0 1 10.528-25.8 35.378 35.378 0 0 1 50.717 0 37.929 37.929 0 0 1 7.472 11.055 1 1 0 0 0 .34.691 37.127 37.127 0 0 1-7.811 39.844 35.378 35.378 0 0 1-50.717 0 36.659 36.659 0 0 1-10.528-25.8zm-29.547 74.965a5.7 5.7 0 0 1-4.076 1.727 5.337 5.337 0 0 1-4.076-1.727 6.051 6.051 0 0 1 0-8.406l38.152-38.809a5.672 5.672 0 0 1 8.151 0 5.9 5.9 0 0 1 1.7 4.146 5.7 5.7 0 0 1-1.7 4.146zm37.472-4.491c-1.245-13.358 2.264-27.407 5.774-38.462a38.218 38.218 0 0 0 49.585-4.376l.453-.461a17.5 17.5 0 0 0 9.4 2.418 18.318 18.318 0 0 0 10.189-2.879 15.7 15.7 0 0 1 8.943-2.533 16.3 16.3 0 0 1 8.943 2.533 18.318 18.318 0 0 0 10.189 2.879 1.382 1.382 0 0 0 0-2.764 16.3 16.3 0 0 1-8.943-2.533 19.469 19.469 0 0 0-20.378 0 17.26 17.26 0 0 1-16.528.806 39.282 39.282 0 0 0 7.925-16.007 17.3 17.3 0 0 0 7.811 1.612 18.443 18.443 0 0 0 10.3-2.879 16 16 0 0 1 8.943-2.533 15.7 15.7 0 0 1 8.943 2.533 18.443 18.443 0 0 0 10.3 2.879 1.382 1.382 0 0 0 0-2.764 15.7 15.7 0 0 1-8.943-2.533 19.872 19.872 0 0 0-20.6 0 16 16 0 0 1-8.943 2.533 14.9 14.9 0 0 1-7.359-1.612 39.908 39.908 0 0 0 .566-6.334 41.524 41.524 0 0 0-2.264-13.473 17.391 17.391 0 0 1 7.019 2.418 19.187 19.187 0 0 0 10.415 2.879 18.875 18.875 0 0 0 10.415-2.879 16.547 16.547 0 0 1 9.17-2.533 16.852 16.852 0 0 1 9.17 2.533 19.187 19.187 0 0 0 10.415 2.879h.906a1.382 1.382 0 0 0 0-2.764h-.906a16.852 16.852 0 0 1-9.17-2.533 19.187 19.187 0 0 0-10.418-2.874 18.875 18.875 0 0 0-10.415 2.879 16.547 16.547 0 0 1-9.17 2.533 16.852 16.852 0 0 1-9.17-2.533 18.7 18.7 0 0 0-9.51-2.879 40.116 40.116 0 0 0-7.245-10.825 21.486 21.486 0 0 0 4.868-2.188 17.862 17.862 0 0 1 18.34 0 19.187 19.187 0 0 0 10.415 2.879 18.875 18.875 0 0 0 10.415-2.879 17.862 17.862 0 0 1 18.34 0 19.187 19.187 0 0 0 10.415 2.879 8.427 8.427 0 0 0 1.7-.115 1.387 1.387 0 0 0-.226-2.764h-1.587a16.852 16.852 0 0 1-9.17-2.533 19.187 19.187 0 0 0-10.415-2.879 18.875 18.875 0 0 0-10.415 2.879 17.862 17.862 0 0 1-18.34 0 19.187 19.187 0 0 0-10.415-2.879 18.875 18.875 0 0 0-10.415 2.879 18.274 18.274 0 0 1-6 2.3 38.2 38.2 0 0 0-19.132-9.213c4.415-11.976 6.113-20.5 5.434-27.407h114.68c2.83 14.164-7.811 35.353-19.019 57.809-12.113 24.413-25.925 51.936-25.925 76.925 0 14.855 3.51 25.1 9.736 29.71l-100.642.115c-10.528-.691-16.755-10.134-18.453-27.868zm130.077 15.431l-15.625-.115c-1.472-4.606-2.151-10.364-2.151-17.158a72.314 72.314 0 0 1 1.019-11.976h23.321a16.465 16.465 0 0 0-3.283 3.57c-4.753 7.369-5.093 19.115-3.281 25.679zm-2.038 12.437c-5.66 0-9.849-3.455-12.566-9.788l16.415.115a1.386 1.386 0 0 0 1.132-.576 1.279 1.279 0 0 0 .113-1.267c-2.151-5.412-2.264-17.734 2.491-24.989 2.264-3.455 5.208-5.182 8.943-5.182a4.7 4.7 0 0 1 4.415 2.649 15.265 15.265 0 0 1 1.585 7.485c.114 12.552-8.943 31.553-22.528 31.553zm23.321-40.535a7.543 7.543 0 0 0-6.792-3.915h-30.793c2.717-14.164 8.717-28.9 15.4-43.184h72.227v60.8h-48.57a34.727 34.727 0 0 0 .34-4.837 15.161 15.161 0 0 0-1.811-8.867zm52.868 11.743v-59.533l42-43.644v59.536z" transform="translate(-67.125 -120.4)"/>
        <path id="path649" d="M141.074 218.648a33.65 33.65 0 1 0-23.818-9.856 33.192 33.192 0 0 0 23.818 9.856zm21.824-55.38a30.863 30.863 0 0 1-43.647 43.647 39.057 39.057 0 0 1-2.933-3.285c2.581-7.275 4.811-13.61 6.805-19.829 3.168-9.5 6.219-18.538 10.442-28.629a31.125 31.125 0 0 1 7.392-.939 30.689 30.689 0 0 1 21.943 9.035zm-43.647 0a30.107 30.107 0 0 1 10.912-7.04c-3.755 9.269-6.571 17.717-9.621 26.634-1.877 5.632-3.755 11.381-6.1 17.834a31.1 31.1 0 0 1-4.224-15.605 30.7 30.7 0 0 1 9.032-21.823z" transform="translate(-62.266 -116.144)"/>
        <path id="path651" d="M247.05 141.913a1.511 1.511 0 0 0 1.291-1.525 1.526 1.526 0 0 0-1.525-1.291 15.752 15.752 0 0 1-2.464.117 17.687 17.687 0 0 1-9.5-2.581 21.763 21.763 0 0 0-21.824 0 18.787 18.787 0 0 1-19.008 0 21.763 21.763 0 0 0-21.824 0 17.687 17.687 0 0 1-9.5 2.581 17.281 17.281 0 0 1-6.219-1.056 1.373 1.373 0 1 0-.939 2.581 19.5 19.5 0 0 0 7.157 1.173 20.27 20.27 0 0 0 10.905-2.932 18.786 18.786 0 0 1 19.008 0 21.763 21.763 0 0 0 21.824 0 18.786 18.786 0 0 1 19.008 0 20.27 20.27 0 0 0 10.912 2.933 6.955 6.955 0 0 0 2.698 0z" transform="translate(-57.129 -118.095)"/>
        <path id="path653" d="M210.909 220.715h-.821a16.788 16.788 0 0 1-9.269-2.581 19.353 19.353 0 0 0-10.677-2.933 20.006 20.006 0 0 0-10.677 2.933 17.933 17.933 0 0 1-18.538 0 19.353 19.353 0 0 0-10.677-2.933 20.006 20.006 0 0 0-10.677 2.933 16.788 16.788 0 0 1-9.269 2.581 17.2 17.2 0 0 1-5.632-.821 1.41 1.41 0 0 0-.821 2.7 18.24 18.24 0 0 0 6.453.939 20.006 20.006 0 0 0 10.676-2.933 17.933 17.933 0 0 1 18.538 0 19.353 19.353 0 0 0 10.677 2.933 20.006 20.006 0 0 0 10.677-2.933 17.933 17.933 0 0 1 18.538 0 19.353 19.353 0 0 0 10.677 2.933h.939a1.427 1.427 0 0 0 1.408-1.408 1.448 1.448 0 0 0-1.525-1.408z" transform="translate(-60.7 -106.136)"/>
        <path id="path655" d="M137.953 236.963a17.8 17.8 0 0 1 18.069 0 20.77 20.77 0 0 0 20.885 0 16.282 16.282 0 0 1 9.034-2.464 15.98 15.98 0 0 1 9.035 2.464 18.859 18.859 0 0 0 10.442 2.816 20.788 20.788 0 0 0 2.816-.117 1.361 1.361 0 1 0-.352-2.7 17.323 17.323 0 0 1-2.464.117 15.98 15.98 0 0 1-9.034-2.464 20.77 20.77 0 0 0-20.885 0 17.795 17.795 0 0 1-18.069 0 20.77 20.77 0 0 0-20.885 0 18.51 18.51 0 0 1-13.376 1.995 1.451 1.451 0 0 0-.7 2.816 22.061 22.061 0 0 0 5.045.587 21.218 21.218 0 0 0 10.442-3.051z" transform="translate(-60.85 -103.636)"/>
        <path id="path657" d="M209.05 253.38a23.076 23.076 0 0 1-3.051.235 16.223 16.223 0 0 1-9.034-2.581 20.054 20.054 0 0 0-20.885 0 17.1 17.1 0 0 1-18.069 0 20.054 20.054 0 0 0-20.885 0 16.223 16.223 0 0 1-9.035 2.581 16.518 16.518 0 0 1-2.464-.117 1.361 1.361 0 1 0-.352 2.7 22.6 22.6 0 0 0 2.816.117 18.774 18.774 0 0 0 10.442-2.933 17.1 17.1 0 0 1 18.069 0 20.054 20.054 0 0 0 20.885 0 17.1 17.1 0 0 1 18.069 0A18.774 18.774 0 0 0 206 256.313a29.068 29.068 0 0 0 3.4-.235 1.378 1.378 0 0 0 1.173-1.643 1.266 1.266 0 0 0-1.523-1.055z" transform="translate(-60.51 -101.48)"/>
    </g>
</svg>
