<svg xmlns="http://www.w3.org/2000/svg" width="500" height="372.001" viewBox="0 0 500 372.001">
    <defs>
        <style>
            .cls-1,.cls-4{fill:#7ccfdd}.cls-1{opacity:.5}.cls-2,.cls-3{fill:#fff}.cls-2{opacity:.56}
        </style>
    </defs>
    <g id="we-need-something-new_touched" transform="translate(-69.9 -52.55)">
        <path id="path1778" d="M69.9 197.25c0 133.851 324.027 230.983 324.027 8.706S69.9 64.535 69.9 197.25z" class="cls-1" transform="translate(0 -3.544)"/>
        <path id="path1780" d="M121.668 446.973c31.948 81.915 180.108 17.261 130.368-54.055s-153.08-4.164-130.368 54.055z" class="cls-1" transform="translate(-11.795 -75.538)"/>
        <path id="path1782" d="M314.347 128.72c-118.861 101.577 29.829 423.1 238.4 255.645C741.109 233.1 491.351-22.474 314.347 128.72z" class="cls-1" transform="translate(-49.958 -7.283)"/>
        <path id="path1784" d="M303 369.821h173.975s-21.5-32.63-50.724-22.864c-54.282 18.245-40.73-8.479-47.241-18.548-12.11-18.7-54.21 10.372-76.01 41.412z" class="cls-2" transform="translate(-57.078 -65.793)"/>
        <path id="path1786" d="M597.373 474.532c.3-.227.53-.454.833-.681a38.392 38.392 0 0 0-11.356 1.741c-57.689 17.186-43.3-8.025-50.194-17.488-12.946-17.716-57.765 9.69-80.855 39.065h108.942a259.847 259.847 0 0 0 32.63-22.636z" class="cls-2" transform="translate(-94.581 -97.494)"/>
        <path id="path1788" d="M311.3 137.587h149.9S442.728 112.6 417.517 120.1c-46.711 13.93-35.052-6.511-40.655-14.157-10.523-14.387-46.862 7.871-65.562 31.644z" class="cls-2" transform="translate(-59.078 -11.865)"/>
        <path id="path1790" d="M700.7 318.731c-27.709 6.359-19.608-18.7-24.6-29.147-11.129-22.864-49.437 12.567-69.2 50.5h90.395a142.146 142.146 0 0 0 3.405-21.353z" class="cls-2" transform="translate(-131.288 -56.013)"/>
        <path id="path1792" d="M665.7 221.077c-11.129-5.6-20.592-4.921-25.513 5.3-7.192 14.839 7.8 54.358-52.162 27.406C555.7 239.247 532 287.624 532 287.624h150.96a156.817 156.817 0 0 0-17.26-66.547z" class="cls-2" transform="translate(-113.092 -40.228)"/>
        <path id="path1794" d="M459.152 183.826H295.7s20.214-30.661 47.62-21.5c50.951 17.11 38.232-7.949 44.364-17.413 11.508-17.641 51.027 9.687 71.468 38.913z" class="cls-2" transform="translate(-55.276 -21.151)"/>
        <path id="path1796" d="M75.351 260.521h111.214c-18.245-37.248-53.676-72.073-63.9-49.513-5.451 12.037 5.905 43.986-39.671 22.182a20.408 20.408 0 0 0-13.1-1.817 89.135 89.135 0 0 0 5.451 29.147z" class="cls-2" transform="translate(0 -36.88)"/>
        <path id="path1798" d="M125.357 454.325a114.38 114.38 0 0 0-6.057-2.044 49.579 49.579 0 0 0 2.574 9.539 63.646 63.646 0 0 0 6.284 12.189h92.363c-79.039-111.517-48.68-1.893-95.164-19.684z" class="cls-2" transform="translate(-12.001 -90.385)"/>
        <path id="path1800" d="M240.958 115.11c-23.7 8.782-13.4 24.226-10.145 33.008 2.725 7.344 2.8 14.157.076 18.473a14.262 14.262 0 0 0-1.514-.606l-7.192-9.766c9.085-12.037-1.06-18.17-1.06-18.17 1.438-6.965-4.921-9.539-4.921-9.539 1.741-9.236-5-11.053-5-11.053 1.06-8.252-5.6-9.615-5.6-9.615.151-6.889-5-8.176-5-8.176.3-8.328-5.451-9.691-5.451-9.691-1.817-10.3-7.192-10.675-7.192-10.675 1.741 8.555-4.77 25.968-8.328 43s-2.65 24.151 3.634 27.709c.681.3 1.363.53 1.968.757l2.044 1.136c-2.044 3.255-3.18 6.511-1.893 7.5a156.566 156.566 0 0 1 29.677 19.078l-.076.076a1.865 1.865 0 0 0-.151 1.287c.606 2.423 5.148 5.527 6.662 5.375a4.05 4.05 0 0 0 1.211-.3c11.583 11.962 20.517 28.315 23.318 33.69a3.5 3.5 0 0 0 3.331 1.817 21.487 21.487 0 0 0 7.646-2.347l.076-4.088 3.937 1.59a30.257 30.257 0 0 0 3.861-3.331c6.662-6.587 6.435-12.567 5.981-15.141a2.983 2.983 0 0 0-1.287-1.893 401.541 401.541 0 0 1-34.447-23.469 4.231 4.231 0 0 0-1.666-3.331 10.173 10.173 0 0 0 1.817-1.514c24.983 2.953 22.258-11.053 22.258-11.053 5.829-2.271 5-9.539 5-9.539a9.009 9.009 0 0 0 6.132-10.448 9.062 9.062 0 0 0 4.618-10.069c5.375-2.725 3.861-8.858 3.861-8.858a9.115 9.115 0 0 0 4.77-10.069c6.965-4.467 4.618-12.037 4.618-12.037-4.088 5-21.879 11.508-45.576 20.29zM229 165.531c.076.076.151.151.151.227-.079-.076-.151-.152-.151-.227z" class="cls-3" transform="translate(-26.328 -6.498)"/>
        <path id="path1802" d="M369.377 451.437c-1.666 2.953-2.877 5-2.877 5l3.71 8.025 31.949 20.668 31.948-20.668 3.71-8.025-14.233-24.756-21.426-10.981-21.5 10.978c.076 0-7.117 12.567-11.28 19.76z" class="cls-3" transform="translate(-72.489 -89.769)"/>
        <path id="path1804" d="M415.669 218.024c5.981-7.192 4.694-11.583-1.893-29.98-5.3-14.687 11.356-19.987 24.983-24.908 18.321-6.587 27.633-11.129 30.283-14.536 1.287 3.255.151 8.1-4.391 11.356l.151-.151s1.817 5.678-4.467 9.388c1.06 3.028-.379 6.132-3.558 8.252 1.211 3.255-.3 7.192-4.315 9.463 0 0 2.423 6.359-5.678 9.766a7.834 7.834 0 0 1-4.618 8.858 9.506 9.506 0 0 1-6.666 9.768c-6.208 2.2-9.236-.454-13.249.908l-2.8 1.514c-2.571 1.589-3.782.302-3.782.302z" class="cls-3" transform="translate(-83.78 -23.414)"/>
        <path id="path1806" d="M609.964 144.122a49.4 49.4 0 0 0-5.905-9.918c-.909-1.136-1.817-2.271-2.725-3.331.984-.606 1.968-1.211 3.028-1.817 15.444-9.085 4.694-25.968-3.71-40.428C589.371 69.4 584.45 58.5 584.677 53.5c-3.483 1.968-6.057 7.041-4.467 13.249l-.076-.227s-5.754 3.71-3.028 11.508c-3.18 1.817-4.164 5.678-2.953 9.842-3.407 2.044-5 6.511-3.18 11.432 0 0-6.814 3.861-2.2 12.795a8.968 8.968 0 0 0-2.423 11.2s-5.981 5.6-1.287 13.552a21.129 21.129 0 0 0 5.451 5.754l-12.265 12.719c.454-.379.909-.833 1.363-1.287-1.287.984 1.136 5.451 4.24 9.539l-9.463-6.662.833.379c3.1 1.59 4.467.076 4.467.076-.606-.681-1.211-1.363-1.666-1.968-5.375-6.889-3.937-12.795 1.817-32.478 5.072-17.186-14.384-22.107-30.434-26.876-21.425-6.284-32.4-10.826-35.734-14.612-1.211 3.785.379 9.236 5.829 12.719l-.222-.154s-1.666 6.662 5.754 10.448c-1.06 3.483.833 6.965 4.618 9.161-1.136 3.861.833 8.176 5.527 10.523 0 0-2.347 7.5 7.192 10.826a8.951 8.951 0 0 0 5.905 9.842 10.932 10.932 0 0 0 8.328 10.75c7.268 2.12 10.523-1.136 15.293.151l2.044.908c-.3.3-1.817 1.741-1.741 2.725-17.867 9.993-35.431 17.791-39.973 19.684a3.276 3.276 0 0 0-1.666 1.817c-.909 2.65-1.968 8.933 4.088 16.883a40.54 40.54 0 0 0 3.558 4.088l4.467-1.06-.53 4.315a22.748 22.748 0 0 0 7.8 3.634 3.578 3.578 0 0 0 3.785-1.438c3.785-5.3 15.671-21.2 29.677-32.176a3.958 3.958 0 0 0 1.211.454c1.514.379 6.814-2.271 7.874-4.694a2.914 2.914 0 0 0 0-1.438c12.719-9.009 34.3-15.747 34.3-15.747 1.514-.833.757-4.467-.909-8.176z" class="cls-3" transform="translate(-103.69 -.231)"/>
        <path id="path1808" d="M197.177 387.337c-1.666 2.953-2.877 5-2.877 5l3.71 8.025 31.949 20.668 31.948-20.668 3.71-8.025-14.233-24.756-21.426-10.981-21.5 10.978c.075.075-7.117 12.567-11.281 19.759z" class="cls-3" transform="translate(-30.403 -74.112)"/>
        <path id="path1810" d="M539.277 395.637c-1.666 2.953-2.877 5-2.877 5l3.71 8.025 31.949 20.668 31.948-20.668 3.71-8.025-14.233-24.756-21.426-10.981-21.5 10.978c.075 0-7.117 12.567-11.281 19.759z" class="cls-3" transform="translate(-114.013 -76.136)"/>
        <path id="path1812" d="M469.294 148.1s-.833 1.893-6.057 4.542-30.434 12.037-35.28 14.082-18.094 9.691-14.914 18.851c3.1 9.236 10.675 25.816 2.8 32.706a9.76 9.76 0 0 0 6.738-2.953s11.2 3.18 17.034-2.5c4.24-4.088 3.18-7.419 3.18-7.419s5.375-3.634 4.618-7.646c0 0 6.662-5.905 5.527-10.523 0 0 5.981-5.905 4.24-10.069 0 0 4.618-3.71 3.331-8.328 0 0 6.057-4.77 4.694-9.388-.075.077 6.133-6.434 4.089-11.355z" class="cls-3" transform="translate(-83.729 -23.292)"/>
        <path id="path1814" d="M295.9 286.8s2.044-.454 5.754-4.921c3.71-4.542 18.473-27.027 21.5-31.267s11.583-16.58 21.652-10.448c8.328 5.072 22.864 14.536 31.267 8.4 0 0-.53 4.845-4.315 7.5 0 0 .681 11.659-6.132 16.126-4.921 3.18-7.949 1.438-7.949 1.438s-4.694 4.467-8.479 2.8c0 0-7.192 5.224-11.508 3.028 0 0-7.041 4.542-10.75 1.968 0 0-4.694 3.71-8.858 1.438 0 0-6.057 4.845-10.145 2.5 0-.076-7.646 4.542-12.037 1.438z" class="cls-3" transform="translate(-55.241 -45.314)"/>
        <path id="path1816" d="M378.806 192.5c-3.18.53-22.864 13.173-16.958 23.242 0 0 17.337 15.066 27.406 22.712 0 0 .833 1.968 4.315 5.6 4.77 13.7 18.473 35.28 18.473 35.28 1.514 2.877 12.946.3 18.851-6.511l2.8-3.407s4.921-7.8 1.741-9.993-16.58-16.353-28.315-25.211a7.769 7.769 0 0 0-2.725-7.268 3.127 3.127 0 0 0-2.8-.681s-7.722-18.775-13.854-29.3c0 0-2.8-2.65-7.268-.379z" class="cls-3" transform="translate(-71.088 -34.122)"/>
        <path id="path1818" d="M611.471 168.4s7.041 8.858-5.981 17.186c-13.022 8.4-14.99 9.615-14.99 9.615s1.741 3.028 4.088 2.953c0 0 22.788-13.173 35.658-16.353.076-.001-5.223 3.179-18.775-13.401z" class="cls-4" transform="translate(-127.304 -28.229)"/>
        <circle id="ellipse1820" cx="3.558" cy="3.558" r="3.558" class="cls-4" transform="rotate(-73.651 338.842 -217.228)"/>
        <path id="path1822" d="M636.751 167.99s-11.28-22.031-20.441-19.457c-2.574.757-3.71 4.24-3.71 4.24l1.514 5.829 2.725 4.921s5.6 6.435 7.646 8.252l2.12-.984s-10.978-9.766-11.053-17.261l2.271-2.5s-2.12 5.6 11.356 18.624l-4.24 2.574s5.527 5.224 9.161 5.072-7.344-17.564-15.671-26.119c0 0 4.77-2.2 16.353 17.64z" class="cls-4" transform="translate(-132.672 -23.337)"/>
        <path id="path1824" d="M565.847 206.943a1.874 1.874 0 0 1-.454.3c-1.817-2.12-6.284-7.646-8.1-12.946l-2.423 1.287s10.372 11.432-.454 20.365a399.99 399.99 0 0 0-13.022 10.9c-9.009 7.874-23.394 1.363-23.394 1.363a25.65 25.65 0 0 0 6.132 8.1l3.937 3.255s8.479 6.738 11.508 2.2a159.058 159.058 0 0 1 30.056-32.478z" class="cls-4" transform="translate(-109.487 -34.546)"/>
        <path id="path1826" d="M607.5 70.8s-4.921 3.558 4.845 17.791c9.766 14.157 19.684 31.646 18.018 39.065 0 0 8.933-5.3-8.858-31.8C611.06 80.263 607.881 73.147 607.5 70.8z" class="cls-4" transform="translate(-131.133 -4.433)"/>
        <path id="path1828" d="M613.283 53.6s0 11.129 17.488 37.7 8.1 35.2-.833 39.595l-2.347-2.423c7.722-4.24 13.7-7.949 6.586-24.3s-29.449-38.08-20.894-50.572z" class="cls-4" transform="translate(-132.371 -.255)"/>
        <path id="path1830" d="M603.484 86c12.492 25.059 29.072 39.368 20.214 48.831 0 0 .833-8.479-13.552-30.283-7.57-11.28-9.614-15.217-6.662-18.548z" class="cls-4" transform="translate(-130.143 -8.126)"/>
        <path id="path1832" d="M599.637 99.1s-4.921 4.315 5.754 18.927c6.662 9.085 9.009 15.671 9.009 15.671l4.391 1.136s-2.2-7.949-8.782-18.321S599.637 99.1 599.637 99.1z" class="cls-4" transform="translate(-129.108 -11.308)"/>
        <path id="path1834" d="M595.719 114.2l14.309 24.226-2.574 3.785c-10.675-18.245-13.703-19.078-11.735-28.011z" class="cls-4" transform="translate(-128.283 -14.976)"/>
        <path id="path1836" d="M592.666 131.1s8.252 13.173 10.978 19.078l-2.877 3.634c-5.678-9.917-11.584-17.034-8.101-22.712z" class="cls-4" transform="translate(-127.416 -19.139)"/>
        <path id="path1838" d="M589.51 145.9s-3.407 11.659 6.132 16.958l2.725-3.255z" class="cls-4" transform="translate(-126.752 -22.744)"/>
        <path id="path1840" d="M493.9 90.6s4.542 5.375 28.012 12.265 43.3 11.432 38.232 28.769-8.479 26.876-.227 34.9c0 0-12.416-2.044-4.921-25.286 7.8-24.151 3.482-23.015-34.6-34.22-20.365-5.981-24.378-8.1-26.5-16.428z" class="cls-4" transform="translate(-103.62 -9.243)"/>
        <path id="path1842" d="M501.257 107.2s6.057 2.877 27.709 8.706 30.359 9.539 27.255 20.9c0 0 2.574-9.463-28.087-16.656-30.511-7.121-26.877-12.95-26.877-12.95z" class="cls-4" transform="translate(-105.369 -13.276)"/>
        <path id="path1844" d="M508.9 121s1.06 5.527 9.842 7.116 30.586 7.041 38.156 15.6c0 0 6.511-7.041-17.261-14.006C515.714 122.666 508.9 121 508.9 121z" class="cls-4" transform="translate(-107.259 -16.628)"/>
        <path id="path1846" d="M514.9 133.2a8.717 8.717 0 0 0 6.132 5.981c5.072 1.514 29.9 6.208 35.431 14.46 0 0 6.359-6.435-18.17-13.7C523.3 135.547 514.9 133.2 514.9 133.2z" class="cls-4" transform="translate(-108.717 -19.65)"/>
        <path id="path1848" d="M522.3 147.1s8.631 2.65 17.791 4.542 18.17 5.375 17.186 12.567c0 0-.984-4.921-18.548-8.782-11.508-2.573-16.505-4.693-16.429-8.327z" class="cls-4" transform="translate(-110.514 -23.036)"/>
        <path id="path1850" d="M531.8 161.4s11.432 2.953 14.006 3.785 13.173 2.877 13.779 10.3c0 0-4.845-4.542-14.839-6.208-10.069-1.741-13.173-5.072-12.946-7.874z" class="cls-4" transform="translate(-112.822 -26.52)"/>
        <path id="path1852" d="M539.6 174.4s2.877 6.662 10.3 7.646c7.419 1.06 11.583.833 14.082 2.8 0 0 .3-6.738-24.378-10.448z" class="cls-4" transform="translate(-114.727 -29.686)"/>
        <path id="path1854" d="M381.4 214.58s7.646-6.208 15.066 5 8.555 12.946 8.555 12.946 2.574-1.514 2.574-3.634c0 0-8.706-19.532-14.612-30.889-.075.073 2.726 4.615-11.583 16.577z" class="cls-4" transform="translate(-76.087 -35.443)"/>
        <path id="path1856" d="M418.9 250.607s9.463 11.81 17.564 20.971c6.889 7.8 1.438 20.365 1.438 20.365a22.416 22.416 0 0 0 6.965-5.451l2.8-3.407s5.072-6.662 1.817-10.069c-11.962-12.643-28.617-25.816-28.617-25.816z" class="cls-4" transform="translate(-85.252 -47.436)"/>
        <circle id="ellipse1858" cx="3.104" cy="3.104" r="3.104" class="cls-4" transform="rotate(-74.353 297.89 -111.452)"/>
        <path id="path1860" d="M380.026 194.6s-19.457 8.933-16.428 19.76a4.378 4.378 0 0 0 4.088 3.18c8.782-1.514 14.839-8.706 16.353-10.523l-1.514-2.347s-8.328 9.615-14.914 9.842l-1.59-1.438s4.921 1.741 16.126-10.069l2.271 3.71s5.072-4.921 4.315-8.025c-1.211-5.072-16.126 5.905-22.561 13.93 0 0-2.65-5.905 14.536-16.2z" class="cls-4" transform="translate(-71.66 -34.611)"/>
        <path id="path1862" d="M404.4 259.174l1.211 2.044s9.842-9.161 17.716.151l-6.965-10.069c.075 0-6.057 5.754-11.962 7.874z" class="cls-4" transform="translate(-81.698 -48.421)"/>
        <path id="path1864" d="M297 286.291s5.6-2.574 16.807-20.668 19.684-33.69 33.008-25.362 20.517 13.324 29.223 8.328c0 0-4.618 9.918-22.409-1.817-18.4-12.189-18.473-8.328-36.718 21.047-9.69 15.747-12.411 18.624-19.911 18.472z" class="cls-4" transform="translate(-55.509 -45.186)"/>
        <path id="path1866" d="M312.7 286.348s3.861-4.391 13.779-21.2 15.066-23.242 23.924-18.018c0 0-7.344-4.315-20.517 19.684-13.249 23.925-17.186 19.534-17.186 19.534z" class="cls-4" transform="translate(-59.314 -46.987)"/>
        <path id="path1868" d="M326 284.642s4.845.379 8.252-6.587 13.022-24 21.955-28.39c0 0-4.391-7.116-15.747 11.28s-14.46 23.7-14.46 23.7z" class="cls-4" transform="translate(-62.558 -47.704)"/>
        <path id="path1870" d="M337.6 284.039a7.7 7.7 0 0 0 6.435-3.785c2.423-3.937 12.113-23.7 20.365-26.346 0 0-3.937-6.889-15.671 12.037-7.192 11.583-11.129 18.094-11.129 18.094z" class="cls-4" transform="translate(-65.389 -48.767)"/>
        <path id="path1872" d="M351 282.792s4.24-6.662 7.949-13.854c3.71-7.268 8.706-14.006 14.536-11.508 0 0-4.315-.379-11.735 13.552-4.769 9.084-7.722 12.794-10.75 11.81z" class="cls-4" transform="translate(-68.659 -49.792)"/>
        <path id="path1874" d="M365.2 280.024s5.148-8.933 6.435-10.9 5.451-10.372 11.886-9.161c0 0-4.921 3.028-8.706 10.978s-7.344 9.916-9.615 9.083z" class="cls-4" transform="translate(-72.124 -50.506)"/>
        <path id="path1876" d="M377.9 277.2s6.284-.909 8.858-6.814c2.574-5.981 3.407-9.463 5.6-11.2.002-.001-5.6-1.894-14.458 18.014z" class="cls-4" transform="translate(-75.222 -50.333)"/>
        <path id="path1878" d="M469 148.7s-3.634 4.921-23.7 12.113-37.014 12.187-31.715 26.952 8.706 22.864 2.044 30.283c0 0 10.675-2.423 2.953-22.258-8.025-20.592-4.24-19.835 28.239-31.494 17.337-6.208 20.744-8.252 22.182-15.6z" class="cls-4" transform="translate(-83.74 -23.438)"/>
        <path id="path1880" d="M466.419 163.5s-5.148 2.8-23.621 9.009-25.892 9.842-22.636 19.608c0 0-2.725-8.1 23.545-15.974 26.119-7.8 22.712-12.643 22.712-12.643z" class="cls-4" transform="translate(-85.395 -27.035)"/>
        <path id="path1882" d="M462.339 175.9s-.606 4.845-8.176 6.662-26.195 7.722-32.327 15.52c0 0-5.981-5.754 14.309-13.1s26.194-9.082 26.194-9.082z" class="cls-4" transform="translate(-85.778 -30.054)"/>
        <path id="path1884" d="M459.507 186.7a7.762 7.762 0 0 1-5 5.527c-4.391 1.59-25.665 6.889-30.056 14.384 0 0-5.905-5.3 15.066-12.795 12.795-4.618 19.987-7.116 19.987-7.116z" class="cls-4" transform="translate(-86.426 -32.685)"/>
        <path id="path1886" d="M455.8 199.2s-7.419 2.725-15.217 4.845c-7.874 2.12-15.52 5.6-14.233 11.81 0 0 .606-4.315 15.671-8.631 9.847-2.724 14.086-4.844 13.779-8.024z" class="cls-4" transform="translate(-87.036 -35.73)"/>
        <path id="path1888" d="M450.294 212.1s-9.766 3.18-11.962 4.012-11.28 3.18-11.432 9.691c0 0 3.937-4.164 12.567-6.208s11.133-5.072 10.827-7.495z" class="cls-4" transform="translate(-87.198 -38.872)"/>
        <path id="path1890" d="M445.068 223.8a12.214 12.214 0 0 1-8.555 7.192c-6.359 1.287-9.993 1.363-12.113 3.18 0 0-.606-5.83 20.668-10.372z" class="cls-4" transform="translate(-86.584 -41.721)"/>
        <path id="path1892" d="M207.154 171.6s-7.646 7.268 3.331 16.731 12.643 10.826 12.643 10.826-1.968 2.574-4.24 2.2c0 0-19.381-15.141-30.889-19.835 0 .151 4.467 3.71 19.154-9.918z" class="cls-4" transform="translate(-28.85 -29.009)"/>
        <path id="path1894" d="M240.761 215.9s11.28 11.659 19.911 21.577c7.344 8.4 21.5 4.315 21.5 4.315a24.646 24.646 0 0 1-6.738 6.738l-4.012 2.5s-8.782 5.148-10.978.53a147.606 147.606 0 0 0-23.544-33.994z" class="cls-4" transform="translate(-40.801 -39.806)"/>
        <circle id="ellipse1896" cx="3.331" cy="3.331" r="3.331" class="cls-4" transform="rotate(-8.338 1250.839 -1266.977)"/>
        <path id="path1898" d="M188.1 168.626s13.324-18.927 21.425-15.369c2.347.984 2.877 4.391 2.877 4.391l-2.12 5.148-3.18 4.24s-5.981 5.224-8.176 6.587l-1.817-1.211s11.432-7.571 12.492-14.536l-1.817-2.65s1.211 5.451-12.946 15.747l3.634 2.953s-5.754 4.164-9.161 3.483c-3.331-.606 9.085-15.293 17.943-22.107 0 0-4.164-2.65-17.413 14.233z" class="cls-4" transform="translate(-28.871 -24.429)"/>
        <path id="path1900" d="M251.369 201.9l2.044 1.514s-11.053 9.236-2.271 18.927l-9.842-8.782s7.041-5.678 10.069-11.659z" class="cls-4" transform="translate(-41.86 -36.389)"/>
        <path id="path1902" d="M302 99.7s-3.937 5.3-25.513 12.87-39.822 12.87-34.22 28.769c5.678 15.9 9.236 24.6 2.044 32.554 0 0 11.508-2.574 3.255-23.848-8.555-22.107-4.467-21.349 30.51-33.69 18.705-6.586 22.415-8.781 23.924-16.655z" class="cls-4" transform="translate(-41.872 -11.454)"/>
        <path id="path1904" d="M299.261 115.6s-5.527 3.028-25.438 9.615-27.86 10.448-24.378 20.971c0 0-2.877-8.706 25.362-17.034 28.088-8.404 24.454-13.552 24.454-13.552z" class="cls-4" transform="translate(-43.675 -15.317)"/>
        <path id="path1906" d="M294.824 128.9s-.681 5.224-8.782 7.116-28.163 8.176-34.825 16.5c0 0-6.435-6.208 15.444-14.006s28.163-9.61 28.163-9.61z" class="cls-4" transform="translate(-44.083 -18.603)"/>
        <path id="path1908" d="M291.744 140.5a8.317 8.317 0 0 1-5.375 5.905c-4.694 1.666-27.633 7.268-32.327 15.293 0 0-6.284-5.678 16.277-13.7 13.7-4.845 21.425-7.5 21.425-7.5z" class="cls-4" transform="translate(-44.789 -21.429)"/>
        <path id="path1910" d="M287.649 153.9s-7.949 2.877-16.428 5.148-16.731 5.905-15.369 12.643c0 0 .606-4.618 16.883-9.161 10.599-2.952 15.217-5.223 14.914-8.63z" class="cls-4" transform="translate(-45.388 -24.693)"/>
        <path id="path1912" d="M281.735 167.7s-10.523 3.407-12.87 4.24c-2.347.908-12.113 3.331-12.265 10.372 0 0 4.24-4.467 13.552-6.587 9.161-2.12 11.886-5.375 11.583-8.025z" class="cls-4" transform="translate(-45.603 -28.055)"/>
        <path id="path1914" d="M276.057 180.2a13.051 13.051 0 0 1-9.236 7.722c-6.889 1.363-10.75 1.363-13.022 3.331 0 0-.606-6.284 22.258-11.053z" class="cls-4" transform="translate(-44.917 -31.099)"/>
        <g id="g1930" transform="translate(151.176 72.726)">
            <path id="path1916" d="M197.186 110.461c5.451-15.141.151-17.261.151-17.261.227 2.271-.984 9.388-6.662 25.968-6.889 19.911-4.24 27.1-2.12 29.6l.908-1.136c-1.514-7.646 2.877-23.545 7.722-37.172z" class="cls-4" transform="translate(-179.586 -82.601)"/>
            <path id="path1918" d="M181.2 129.924c2.5-16.5 17.488-41.412 6.814-50.724 0 0 2.65 10.069-6.814 38.308-6.662 19.684-3.483 28.39 2.12 32.4.454-.833 1.06-1.666 1.666-2.574-3.561-2.571-5.378-7.19-3.786-17.41z" class="cls-4" transform="translate(-177.453 -79.2)"/>
            <path id="path1920" d="M198.023 144.938a105.329 105.329 0 0 1 5.148-20.441c4.088-12.113 5-16.126 1.59-18.4-3.937 19.078-11.356 33.387-10.675 42.093a15.156 15.156 0 0 1 1.211-1.06 34.629 34.629 0 0 1 2.726-2.192z" class="cls-4" transform="translate(-181.483 -85.735)"/>
            <path id="path1922" d="M209.142 142.413a71.62 71.62 0 0 1 2.423-7.041c6.132-15.747.681-18.473.681-18.473s-1.741 7.268-5.224 18.245a89.227 89.227 0 0 0-2.423 9.615 32.825 32.825 0 0 1 4.542-2.347z" class="cls-4" transform="translate(-184.048 -88.358)"/>
            <path id="path1924" d="M218.974 147.037c.151.379.379.757.606 1.211 3.255-10.3 4.24-12.492 1.136-18.548l-4.316 15.293a3.8 3.8 0 0 1 2.574 2.044z" class="cls-4" transform="translate(-186.914 -91.468)"/>
            <path id="path1926" d="M227.658 144.2s-1.968 6.359-3.558 12.265a217.417 217.417 0 0 0 3.028 5.375c2.347-7.874 4.24-14.006.53-17.64z" class="cls-4" transform="translate(-188.785 -94.99)"/>
            <path id="path1928" d="M234.034 156.9l-3.634 11.2c.984 1.666 2.044 3.331 2.953 4.77 6.132-7.041.681-15.974.681-15.974z" class="cls-4" transform="translate(-190.315 -98.075)"/>
        </g>
        <path id="path1932" d="M423.365 435.176s1.666 9.691-6.435 14.309c-9.009 5.148.53 14.536-6.814 19.608-8.176 5.678-8.252 12.794-8.252 12.794l35.658-22.031-35.658 28.693-35.658-28.693s6.587-6.132 11.81-4.088c7.646 3.028 6.814-11.129 14.536-8.555 5.905 1.968 9.236-1.136 9.236-1.136L380.363 435.1 365.6 459.856l4.24 8.025 31.419 20.668.909-42.472z" class="cls-4" transform="translate(-72.27 -93.267)"/>
        <path id="path1934" d="M406.825 420.7l21.425 10.978s-13.627-5.981-19.457-4.77-8.631 3.634-14.763 3.483c-6.057-.151-8.631 1.211-8.631 1.211z" class="cls-4" transform="translate(-77.079 -89.692)"/>
        <path id="path1936" d="M251.165 371.176s1.666 9.691-6.435 14.309c-9.009 5.148.53 14.536-6.814 19.608-8.176 5.678-8.252 12.795-8.252 12.795l35.658-22.031-35.658 28.693-35.658-28.693s6.587-6.132 11.81-4.088c7.646 3.028 6.814-11.129 14.536-8.555 5.905 1.968 9.236-1.136 9.236-1.136L208.163 371.1 193.4 395.856l4.24 8.025 31.419 20.668.908-42.472z" class="cls-4" transform="translate(-30.184 -77.638)"/>
        <path id="path1938" d="M234.625 356.6l21.425 10.978s-13.627-5.981-19.457-4.77-8.631 3.634-14.763 3.483-8.63 1.209-8.63 1.209z" class="cls-4" transform="translate(-35.009 -74.075)"/>
        <path id="path1940" d="M593.289 379.4s1.666 9.691-6.435 14.309c-9.009 5.148.53 14.536-6.814 19.608-8.176 5.678-8.252 12.795-8.252 12.795l35.658-22.031-35.582 28.769-35.658-28.693s6.586-6.132 11.81-4.088c7.646 3.028 6.814-11.129 14.536-8.555 5.905 1.968 9.236-1.136 9.236-1.136L550.363 379.4 535.6 404.156l4.24 8.025 31.419 20.668.908-42.472z" class="cls-4" transform="translate(-113.818 -79.661)"/>
        <path id="path1942" d="M576.725 364.9l21.425 10.978s-13.627-5.981-19.457-4.77-8.631 3.634-14.763 3.483-8.63 1.209-8.63 1.209z" class="cls-4" transform="translate(-118.587 -76.097)"/>
        <g id="g2178" transform="translate(149.816 52.55)">
            <path id="path1944" d="M604.556 133.443a34.874 34.874 0 0 0-2.12-2.574c.681-.379 1.363-.833 2.044-1.211 15.6-9.161 5.6-26.195-2.423-39.9l-.984-1.666c-11.053-18.851-16.05-29.9-15.823-34.6a1.046 1.046 0 0 0-.454-.833.965.965 0 0 0-.908 0 10.8 10.8 0 0 0-4.921 6.587 14.736 14.736 0 0 0-.151 6.814c-2.2 1.741-4.77 5.754-3.1 11.508-2.877 2.044-3.937 5.829-2.953 9.918-3.785 2.65-4.467 7.344-3.18 11.508a9.065 9.065 0 0 0-3.255 4.845 11.673 11.673 0 0 0 1.06 8.1 9.836 9.836 0 0 0-2.423 11.2c-1.363 1.59-5.224 7.041-.984 14.233a16.834 16.834 0 0 0 4.921 5.451 128.988 128.988 0 0 1-10.978 11.28c-4.391-6.208-2.877-12.189 2.574-30.889 2.271-7.8.076-13.854-6.889-18.624-5.905-4.012-14.157-6.435-22.107-8.782l-2.044-.606c-20.9-6.132-32.1-10.675-35.28-14.309a.9.9 0 0 0-.833-.3.924.924 0 0 0-.681.606 10.661 10.661 0 0 0 .984 8.252 14.277 14.277 0 0 0 4.542 5c-.454 2.8.454 7.5 5.754 10.523a8.145 8.145 0 0 0 1.666 6.435 11.18 11.18 0 0 0 2.953 2.65c-.757 3.71.909 8.1 5.6 10.675a9.338 9.338 0 0 0 .909 5.829 11.647 11.647 0 0 0 6.284 5.072 9.748 9.748 0 0 0 5.981 9.842c.076 2.12 1.06 8.706 9.009 10.978a18.7 18.7 0 0 0 9.766.227c2.2-.379 4.013-.681 6.284.076a5.157 5.157 0 0 0-1.136 1.968 417.259 417.259 0 0 1-39.444 19.381 3.962 3.962 0 0 0-2.2 2.347c-1.06 3.18-1.968 9.766 4.24 17.715 7.117 9.161 15.444 11.2 15.747 11.28a5.937 5.937 0 0 0 1.06.151 4.274 4.274 0 0 0 3.634-1.968c3.028-4.24 13.022-17.867 25.438-28.693a3.478 3.478 0 0 0 2.423 2.271v.076a3.93 3.93 0 0 0-2.725 3.407c0 .757-.076 1.514-.151 2.271a3.151 3.151 0 0 0 .833 2.574 2.927 2.927 0 0 0 1.438.908v.227a4.06 4.06 0 0 0-3.028 3.255 5.846 5.846 0 0 0-.151 1.136c-.076.379-.151.833-.227 1.211a3.234 3.234 0 0 0 .681 2.65 3.327 3.327 0 0 0 1.363.908 4.03 4.03 0 0 0-3.18 3.331 5.846 5.846 0 0 0-.151 1.136c-.076.379-.151.833-.227 1.211a3.07 3.07 0 0 0 .681 2.574 2.927 2.927 0 0 0 1.438.908v.227a3.868 3.868 0 0 0-3.028 3.407v.227a21.4 21.4 0 0 0-.151 2.2 3.306 3.306 0 0 0 .909 2.5 3.757 3.757 0 0 0 1.666.984v.151a2.949 2.949 0 0 0-1.514.984 3.353 3.353 0 0 0-.833 2.5c.076.833.151 1.59.227 2.347a3.757 3.757 0 0 0 1.893 2.8 1.076 1.076 0 0 0 .454.151.833.833 0 0 0 .757-.454.859.859 0 0 0-.3-1.211 1.893 1.893 0 0 1-.984-1.438 253.16 253.16 0 0 1-.227-2.347 1.391 1.391 0 0 1 .379-1.136l.227-.227a4.318 4.318 0 0 0 .076.984.968.968 0 0 0 .909.833h.076a.874.874 0 0 0 .833-.984c0-.3-.076-.606-.076-.909a2.1 2.1 0 0 1 .984 1.59c.076.757.151 1.514.227 2.347a.912.912 0 1 0 1.817-.151 253.16 253.16 0 0 0-.227-2.347 3.637 3.637 0 0 0-2.877-3.407v-.076a3.636 3.636 0 0 0 2.65-3.407c0-.757.076-1.514.151-2.271a3.111 3.111 0 0 0-2.2-3.407v-.3a4.06 4.06 0 0 0 3.03-3.253 5.842 5.842 0 0 0 .151-1.136c.076-.379.151-.833.227-1.211a3.235 3.235 0 0 0-.681-2.65 3.42 3.42 0 0 0-1.287-.833v-.076a4.14 4.14 0 0 0 3.1-3.331 5.846 5.846 0 0 0 .151-1.136c.076-.379.151-.833.227-1.211v-.076a3.314 3.314 0 0 0-.833-2.65 3.168 3.168 0 0 0-1.363-.833.572.572 0 0 1 .076-.3 3.782 3.782 0 0 0 2.953-3.407 6.93 6.93 0 0 0 .076-1.211 5.732 5.732 0 0 1 .076-1.136 3.48 3.48 0 0 0-.908-2.574 3.37 3.37 0 0 0-1.59-.908 3.37 3.37 0 0 0 1.59-.908 3.2 3.2 0 0 0 .908-2.574c-.076-.606-.076-1.136-.151-1.741a14.834 14.834 0 0 0 5.905-3.71 6.1 6.1 0 0 0 .681-1.06.578.578 0 0 0 .151-.379 2.861 2.861 0 0 0 .076-1.363c13.552-8.252 28.92-13.552 32.706-14.839a2.543 2.543 0 0 0 1.06-.379 2.669 2.669 0 0 0 1.136-1.741c.3-1.59-.227-4.088-1.287-6.738l3.255-1.287a1.018 1.018 0 0 0 .53-.454 1.052 1.052 0 0 0 0-.681 57.881 57.881 0 0 0-5.979-9.924zm-23.772-73.814a9.535 9.535 0 0 1 2.8-4.618c.681 5.754 5.678 16.126 16.05 33.917l.984 1.666c8.025 13.627 17.11 29.147 3.028 37.4-.833.454-1.59.984-2.347 1.438a41.368 41.368 0 0 0-2.574-2.574c1.06-.681 2.12-1.287 3.331-1.968a7.9 7.9 0 0 0 3.861-5c1.817-7.344-5.6-19.684-15.9-36.718a655.066 655.066 0 0 1-7.192-12.113c-2.344-3.859-3.025-7.948-2.041-11.43zm-1.439 8.328a21.121 21.121 0 0 0 1.817 4.012c2.5 4.315 4.921 8.252 7.192 12.113 10.069 16.731 17.337 28.769 15.671 35.355A6.152 6.152 0 0 1 601 123.3c-.227.151-.454.227-.681.379 1.514-7.8-9.539-24.832-16.883-36.188-1.817-2.725-3.331-5.148-4.315-6.889-4.088-6.889-1.363-10.978.227-12.643zm-2.953 11.356a13.918 13.918 0 0 0 1.211 2.347 296.833 296.833 0 0 0 4.391 6.965c6.814 10.523 18.17 28.087 16.58 35.052a3.308 3.308 0 0 1-1.363 2.044 27.128 27.128 0 0 0-3.331-2.347c-2.044-8.252-10.523-21.274-15.066-28.39-1.211-1.817-2.12-3.255-2.574-4.088-2.725-4.618-2.574-9.236.151-11.583zm-3.028 9.918a12.607 12.607 0 0 0 1.211 2.5c.53.833 1.438 2.347 2.65 4.164 4.24 6.587 11.886 18.321 14.46 26.27a9.44 9.44 0 0 0-2.953-.757 4.877 4.877 0 0 0-3.331.757 151.393 151.393 0 0 0-9.993-16.656c-1.211-1.817-2.271-3.407-2.877-4.391a20.3 20.3 0 0 1-.909-1.817.96.96 0 0 0-.076-.454c0-.076-.076-.076-.151-.151-1.363-4.088-.227-7.5 1.968-9.463zM606.3 152.37c-.076.227-.151.454-.3.53s-.3.076-.606.227c-1.438.151-4.24-.908-8.252-4.24l3.331-1.741a.728.728 0 0 0 .454-.681.878.878 0 0 0-.3-.757 42.706 42.706 0 0 1-6.208-6.738c-4.467-5.754-5.754-9.993-5.148-10.523.076-.076.151-.076.3-.076 2.2.227 7.8 6.132 11.735 11.508a38.463 38.463 0 0 1 3.407 5.905c0 .076 0 .076.076.151 0 .076.076.151.076.227 1.129 2.498 1.735 4.921 1.435 6.208zm-18.775-22.182c.909 3.785 4.845 8.933 5.451 9.691a45.7 45.7 0 0 0 5.527 6.132l-2.8 1.438a61.675 61.675 0 0 1-4.542-4.467 24.163 24.163 0 0 1-6.057-10.069zm-19.46-25.968a7.186 7.186 0 0 1 2.2-3.558 10.576 10.576 0 0 0 .681 1.287c.606 1.06 1.666 2.574 2.877 4.467 3.18 4.77 7.5 11.28 10.145 17.034a3.291 3.291 0 0 0-.3.53c-.757 1.06-2.12 2.953-3.861 5.3a106.363 106.363 0 0 0-6.435-11.053c-1.211-1.893-2.423-3.861-3.558-5.678-1.741-3.1-2.347-5.905-1.741-8.328zm.227 9.236a239.168 239.168 0 0 0 3.558 5.754c2.5 3.937 5.148 8.025 6.662 11.735a300.352 300.352 0 0 1-3.558 4.467c-1.287-2.12-2.877-4.467-4.542-6.889-.757-1.136-1.59-2.347-2.423-3.558-3.861-5.982-1.211-9.919.303-11.508zm-2.725 22.864c-3.255-5.451-1.06-9.691.3-11.508a5.078 5.078 0 0 0 .681 1.06 308.142 308.142 0 0 1 2.423 3.558c1.817 2.65 3.558 5.148 4.845 7.419-1.211 1.438-2.423 2.953-3.71 4.467a13.513 13.513 0 0 1-4.54-4.996zm9.918 1.363l.227-.227c1.59-1.968 3.1-3.861 4.391-5.6a.511.511 0 0 0 .3-.454c.833-1.06 1.514-2.044 2.2-2.877a19.692 19.692 0 0 0 .454 4.24.639.639 0 0 0 .151.53 26.8 26.8 0 0 0 6.511 11.053c4.694 5.072 9.085 8.479 12.416 9.842-6.586 2.347-20.138 7.646-31.8 15.066a29.146 29.146 0 0 1-5.754-5.981c-3.71-4.845-4.845-8.025-4.618-8.631l.076-.076a186.705 186.705 0 0 0 15.444-16.883zm-14.46 37.778v-.606a1.585 1.585 0 0 0 .454.3 1.583 1.583 0 0 1-.454.3zm1.59-4.921c-.151-.454-.227-.833-.379-1.287a.91.91 0 1 0-1.741.53 6.3 6.3 0 0 1 .3 1.136 3.332 3.332 0 0 1-.757-.151A3.205 3.205 0 0 1 558 169.1a3.435 3.435 0 0 1-.3-2.574 3.205 3.205 0 0 1 1.666-2.044 3.242 3.242 0 0 1 1.666-.454 4.431 4.431 0 0 1 .984.151 3.426 3.426 0 0 1 2.347 4.24 3.775 3.775 0 0 1-1.741 2.12zm-67.456-82.067a9.255 9.255 0 0 1-1.136-5.375c4.542 3.71 15.52 8.025 34.9 13.7l2.044.606c7.874 2.347 15.974 4.694 21.652 8.555 6.284 4.315 8.252 9.539 6.132 16.58-6.132 20.9-7.5 26.725-.757 34.371a4.112 4.112 0 0 1-2.574-.681c-2.2-1.136-4.164-3.18-4.694-8.1v-.3c0-.076 0-.076-.076-.151-.3-3.483.151-8.328 1.666-15.217.076-.076.076-.151.151-.227a4.429 4.429 0 0 0 .151-.984q.568-2.5 1.363-5.451c0-.076.076-.076.076-.151.076-.227.076-.379.151-.606.3-1.211.681-2.5 1.06-3.785a7.835 7.835 0 0 0-.606-6.284c-3.634-6.587-17.488-10.448-36.718-15.9q-6.473-1.817-13.627-3.861a17.736 17.736 0 0 1-4.694-2.12 11.381 11.381 0 0 1-4.464-4.619zm4.694 6.965a21.241 21.241 0 0 0 4.012 1.666c4.77 1.438 9.236 2.65 13.627 3.861 18.775 5.3 32.327 9.085 35.582 14.99a6.134 6.134 0 0 1 .454 4.921l-.227.681c-4.315-6.587-23.848-11.432-36.87-14.687-3.255-.833-6.057-1.514-8.025-2.12-7.722-2.2-8.631-7.041-8.555-9.312zm7.041 14.763a6.367 6.367 0 0 1-1.363-4.467 16.949 16.949 0 0 0 2.347.833c2.044.606 4.845 1.287 8.1 2.12 12.113 3.028 32.4 8.025 35.961 14.157a3.491 3.491 0 0 1 .454 2.12q-.454 1.817-.909 3.407c-4.694-5.981-23.469-10.523-33.69-12.946-1.968-.454-3.558-.833-4.467-1.136a13.166 13.166 0 0 1-6.434-4.089zm3.18 4.694a22.725 22.725 0 0 0 2.725 1.06c.908.3 2.5.681 4.542 1.136 8.933 2.2 29.829 7.268 33.084 12.87a2.253 2.253 0 0 1 .379 1.136c-.379 1.59-.681 3.1-.984 4.542-3.861-4.391-15.293-7.419-26.876-10.145-2.271-.53-4.24-.984-5.451-1.363-4.24-1.211-8.026-4.845-7.42-9.236zm6.435 14.763a7.79 7.79 0 0 1-.833-4.164c.454.151.833.3 1.287.454 1.211.379 3.1.833 5.527 1.363 8.4 1.968 25.816 6.057 26.8 11.2a53.347 53.347 0 0 0-.53 5.6c-3.634-4.164-11.356-6.132-18.927-8.025-2.12-.53-4.391-1.06-6.435-1.666-3.331-.984-5.678-2.65-6.889-4.77zm6.511 6.511c2.044.606 4.24 1.136 6.435 1.666 8.858 2.2 18.094 4.542 19.457 10.22a15.324 15.324 0 0 0 .3 1.968c-3.028-1.968-7.8-3.028-13.4-4.24-1.59-.379-3.331-.757-5.072-1.136a8.7 8.7 0 0 1-2.12-.681h-.076c-4.995-2.043-5.601-5.905-5.525-7.797zm22.636 18.775a17.187 17.187 0 0 1-8.933-.227 10 10 0 0 1-7.646-8.555 5.673 5.673 0 0 0 1.211.3c1.741.454 3.482.757 5.072 1.136 7.268 1.59 13.022 2.877 14.914 5.981l.076.076a5.649 5.649 0 0 0 .53.908 17.046 17.046 0 0 0-5.224.379zm8.933 3.028c.076.076.227.076.3.151a6.209 6.209 0 0 0 2.725.757 3.182 3.182 0 0 0 1.666-.379 40.76 40.76 0 0 0 2.347 3.861 5.007 5.007 0 0 0-3.1.606 5.12 5.12 0 0 0-2.5 3.1.96.96 0 0 0-.076.454c-1.817-2.8-3.028-5.6-3.028-7.192a3.688 3.688 0 0 1 1.136-1.666 1.625 1.625 0 0 0 .53.308zm-21.879 48.756a2.554 2.554 0 0 1-2.8 1.06c-.3-.076-8.025-2.044-14.763-10.675-5.678-7.344-4.921-13.173-3.937-16.05a2.258 2.258 0 0 1 1.211-1.287 422.925 422.925 0 0 0 38.837-19.076c.908 3.558 4.542 9.463 8.328 12.946a3.8 3.8 0 0 0-.379 2.044c.076.454.076.908.151 1.287-13.021 11.123-23.545 25.36-26.649 29.751zm27.86 5a1.667 1.667 0 0 1 .379 1.211c-.076.757-.151 1.59-.151 2.423a1.723 1.723 0 0 1-.757 1.438v-.757a.875.875 0 0 0-.908-.908.921.921 0 0 0-.909.908v.833a.756.756 0 0 1-.379-.3 1.641 1.641 0 0 1-.454-1.211 20.017 20.017 0 0 1 .151-2.044v-.227a2.112 2.112 0 0 1 1.06-1.59.567.567 0 0 1-.076.379.874.874 0 0 0 .833.984h.076a.968.968 0 0 0 .909-.833c0-.151.076-.379.076-.53 0 .151.076.151.151.227zm1.363-9.463a1.448 1.448 0 0 1 .3 1.136c-.076.454-.151.833-.227 1.287-.076.379-.076.681-.151 1.136a2.094 2.094 0 0 1-.984 1.514c.076-.3.076-.606.151-.908a.878.878 0 0 0-1.741-.227c-.076.454-.076.833-.151 1.287a1.046 1.046 0 0 1-.3-.227 1.448 1.448 0 0 1-.3-1.136c.076-.454.151-.833.227-1.287.076-.379.076-.681.151-1.136a2.189 2.189 0 0 1 1.06-1.514v.151l-.076.681a.889.889 0 0 0 .757 1.06h.151a.9.9 0 0 0 .909-.757l.076-.681c0-.151.076-.379.076-.53-.08-.004-.004.072.071.147zm1.438-9.236a1.926 1.926 0 0 1 .379 1.211c-.076.379-.151.833-.227 1.211s-.076.681-.151 1.136a2.091 2.091 0 0 1-.909 1.438c0-.151.076-.3.076-.454a.891.891 0 0 0-1.741-.379c-.076.379-.151.681-.227 1.06a1.046 1.046 0 0 1-.3-.227 1.448 1.448 0 0 1-.3-1.136c.076-.454.151-.833.227-1.287.076-.379.076-.681.151-1.136a2.247 2.247 0 0 1 .984-1.514v.227a.889.889 0 0 0 .757 1.06h.151a.9.9 0 0 0 .909-.757c0-.227.076-.454.076-.681 0 .076.076.151.151.227zm.909-9.388a1.669 1.669 0 0 1 .454 1.136 6.515 6.515 0 0 0-.076 1.211 6.924 6.924 0 0 1-.076 1.211 1.886 1.886 0 0 1-.909 1.514c0-.3.076-.681.076-.984a.912.912 0 1 0-1.817-.151 6.623 6.623 0 0 1-.151 1.211c-.076-.076-.227-.151-.3-.227a1.668 1.668 0 0 1-.379-1.211c.076-.757.151-1.59.151-2.423a2.056 2.056 0 0 1 .833-1.514v.984a.875.875 0 0 0 .909.908.921.921 0 0 0 .909-.908v-1.06a.756.756 0 0 1 .378.3zm-.076-4.391c-.076.076-.227.227-.3.227a3.687 3.687 0 0 0-.076-.908.925.925 0 0 0-.984-.833.874.874 0 0 0-.833.984 2.1 2.1 0 0 0 .076.681 2.025 2.025 0 0 1-.833-1.514v-.076c.681-.53 1.363-1.06 1.968-1.59a3.414 3.414 0 0 0 .833.227c.151 0 .3.076.454.076.076.53.076.984.151 1.514a1.316 1.316 0 0 1-.454 1.211zm1.741-4.845a4.254 4.254 0 0 0-2.65-2.2 5.25 5.25 0 0 0 2.8-3.255 3.8 3.8 0 0 0 .151-.908 16.553 16.553 0 0 0 4.391 3.483 13.354 13.354 0 0 1-4.694 2.877zm40.125-30.056a31.977 31.977 0 0 0-3.331-5.678c-.378-.454-8.706-11.735-12.946-12.189a1.95 1.95 0 0 0-1.438.3 1.655 1.655 0 0 0-.379.227l-3.331 3.71a14.733 14.733 0 0 1-.151-2.423 9.09 9.09 0 0 1 .757-3.407c.378-.53.606-.833.681-.984a2.987 2.987 0 0 1 2.2-.757h.454a9.362 9.362 0 0 1 3.785 1.287 1.04 1.04 0 0 0 .606.379 24.387 24.387 0 0 1 3.407 2.5l.227.227a44.369 44.369 0 0 1 6.435 6.965 48.815 48.815 0 0 1 5.375 8.858z" transform="translate(-253.246 -52.55)"/>
            <path id="path1946" d="M440.928 147.494a.761.761 0 0 0-.833.379c-2.574 3.331-12.037 7.874-29.9 14.233l-1.438.53c-9.615 3.407-20.592 7.344-24.075 14.687-1.514 3.18-1.514 6.814-.076 10.826 5.754 15.974 7.344 21.047 3.785 26.725a3.123 3.123 0 0 0-1.438-.454 292.91 292.91 0 0 0-13.854-29.072 3.284 3.284 0 0 0-2.423-1.666 11.721 11.721 0 0 0-5.451.53l-1.136-3.028a.847.847 0 0 0-1.06-.53 29.964 29.964 0 0 0-9.463 5.072c-5.224 4.088-8.933 10.069-9.312 14.839a6.216 6.216 0 0 0 1.287 4.694c.151.151 14.157 13.7 26.725 22.107-5.678 1.817-10.22-.606-24.6-9.615a13.884 13.884 0 0 0-10.6-2.2c-8.025 1.893-14.082 11.735-19.457 20.441l-.757 1.287c-10.069 16.126-16.428 24.453-20.214 26.27a1.094 1.094 0 0 0-.53.757 1.216 1.216 0 0 0 .379.833 8.9 8.9 0 0 0 4.921 1.363 12.939 12.939 0 0 0 2.347-.227 12.09 12.09 0 0 0 5.224-2.574 8.674 8.674 0 0 0 3.331.681 9.76 9.76 0 0 0 6.889-3.028 6.348 6.348 0 0 0 2.877.606 9.261 9.261 0 0 0 5.829-2.347 7.073 7.073 0 0 0 3.407.833 9.835 9.835 0 0 0 6.814-3.1 8.309 8.309 0 0 0 3.331.757 7.34 7.34 0 0 0 1.741-.227 9.8 9.8 0 0 0 5.754-4.088 9.81 9.81 0 0 0 3.028.454 8.7 8.7 0 0 0 6.662-3.18 9.382 9.382 0 0 0 2.347.227 10.274 10.274 0 0 0 9.009-5.3 16.258 16.258 0 0 0 2.5-8.252c.227-2.271.379-4.088 2.271-6.057a7.077 7.077 0 0 0 2.423 2.2q1.249 3.407 2.5 6.587a2.868 2.868 0 0 0 0 1.136c.151.833.3 1.59.454 2.347a4.227 4.227 0 0 0 2.5 3.028l.454.908a4.9 4.9 0 0 0-.681.606 2.964 2.964 0 0 0-.454 2.65l.151.53c.151.606.3 1.211.454 1.741a4.406 4.406 0 0 0 3.331 3.331v.076a2.724 2.724 0 0 0-1.363.909 3.139 3.139 0 0 0-.681 2.574c.076.757.151 1.438.227 2.2v.151a3.746 3.746 0 0 0 2.725 3.331v.227a4.292 4.292 0 0 0-3.028 3.255c-.151.757-.379 1.514-.606 2.271a2.935 2.935 0 0 0 .454 2.8 2.592 2.592 0 0 0 2.12.984.909.909 0 0 0 0-1.817.925.925 0 0 1-.681-.227 1.309 1.309 0 0 1-.076-1.211 22.648 22.648 0 0 0 .606-2.423 2.413 2.413 0 0 1 1.06-1.59.455.455 0 0 1-.076.3.889.889 0 0 0 .757 1.06h.151a.9.9 0 0 0 .909-.757c0-.227.076-.454.076-.681a1.046 1.046 0 0 1 .3.227 1.314 1.314 0 0 1 .227 1.06c-.151.757-.3 1.438-.53 2.2a.886.886 0 1 0 1.666.606 17.048 17.048 0 0 0 .606-2.5 2.812 2.812 0 0 0-.606-2.574 3.161 3.161 0 0 0-1.59-.984v-.3a3.757 3.757 0 0 0 1.666-.984 3.353 3.353 0 0 0 .833-2.5v-.076c.833 1.363 1.59 2.65 2.271 3.634a36.46 36.46 0 0 1 1.363 2.2 6.043 6.043 0 0 0 4.315 2.725 14.694 14.694 0 0 0 1.817.151c3.71 0 8.252-1.741 12.189-4.921 5.148-4.013 8.933-10.3 8.858-14.687a4.1 4.1 0 0 0-1.59-3.483 90.6 90.6 0 0 1-7.344-6.814c-5.148-5.072-12.113-12.037-20.365-18.245a1.4 1.4 0 0 0 .151-.53c.227-.984-.379-2.574-1.136-4.012.151-.076.227-.076.379-.151a7.678 7.678 0 0 0 .984-.681c2.347-1.438 4.164-1.211 6.359-.984a17.733 17.733 0 0 0 8.555-.757 10.376 10.376 0 0 0 7.268-10.069 8.667 8.667 0 0 0 4.694-8.858 10.592 10.592 0 0 0 5.224-4.845 8.148 8.148 0 0 0 .53-5.148c3.483-2.271 5.224-5.905 4.315-9.388 2.877-2.2 4.24-5.224 3.483-8.176 4.315-2.877 4.921-6.889 4.467-9.388a11.649 11.649 0 0 0 3.71-4.694 9.07 9.07 0 0 0 .379-7.268 10.541 10.541 0 0 0-.984-.454zM370.217 185.5c.606.151 1.06.379 1.211.757a4.3 4.3 0 0 1 0 3.1 16.82 16.82 0 0 1-3.028 5.224l-2.044-4.315a.963.963 0 0 0-.681-.53 1.139 1.139 0 0 0-.833.3 36.53 36.53 0 0 1-5.754 5.451c-4.845 3.785-7.722 5.6-8.555 5.375-1.211-1.968 3.785-8.1 8.782-11.886 3.185-2.342 8.328-4.007 10.902-3.476zm-15.671 19.078l-2.423-2.12c1.893-.757 4.467-2.574 8.1-5.375a44.4 44.4 0 0 0 5.148-4.694l1.741 3.71v.076a37.587 37.587 0 0 1-10.978 7.8c-.606.227-1.136.454-1.59.606zm-8.706-3.861c.3-3.634 3.1-9.161 8.631-13.552a31.143 31.143 0 0 1 8.029-4.465l.833 2.2a23.415 23.415 0 0 0-5.3 2.877c-3.18 2.423-11.583 10.22-9.236 14.233l.227.454 3.255 2.8c-2.574.454-4.618-.076-5.678-1.136a5.7 5.7 0 0 1-.757-3.407zm4.77 6.435a14.3 14.3 0 0 0 6.284-1.59c9.918-4.921 14.914-11.28 16.277-15.6 0-.151.076-.227.076-.379a275.756 275.756 0 0 1 12.795 27.482v.076a21.135 21.135 0 0 1-3.558 3.71c-4.088 3.558-8.025 5.527-8.858 5.375l-.076-.076-.076-.076c-8.858-5.829-18.473-14.384-23.394-18.927.151-.076.3 0 .53 0zm33.917 24.983a253.16 253.16 0 0 0-.227 2.347v.076a1.864 1.864 0 0 1-.757 1.514v-.757a.908.908 0 0 0-1.817 0v.833a1.659 1.659 0 0 1-.833-1.514 9.656 9.656 0 0 1 .076-1.438l1.363-.681a.654.654 0 0 0 .454.227h.151a.9.9 0 0 0 .909-.757c0-.151.076-.227.076-.379.151-.076.379-.227.53-.3a1.5 1.5 0 0 1 .076.833zm.3 13.249c-.076-.454-.227-.908-.3-1.363a.875.875 0 0 0-1.06-.681c-.227.076-.454.151-.53.379l-1.363-3.18c.076-.076.076-.151.151-.227l.3-.3c.076.379.076.757.151 1.136a.9.9 0 0 0 .909.757h.151a.889.889 0 0 0 .757-1.06c0-.227-.076-.454-.076-.681a2.87 2.87 0 0 1 .984 1.59c.076.227.076.53.151.757a11.753 11.753 0 0 0 .3 1.59 1.426 1.426 0 0 1-.227 1.136c-.151.076-.227.151-.3.151zm1.06 4.467v-.227a2.719 2.719 0 0 1 1.136 1.59 6.407 6.407 0 0 1 .3 1.287c0 .076 0 .151.076.151-.526-.834-.98-1.818-1.51-2.802zm-9.009-22.939a28.484 28.484 0 0 0 3.18-1.968 4.782 4.782 0 0 0 1.893 4.012 4.209 4.209 0 0 0-2.574 2.953 11.982 11.982 0 0 1-1.741.454 8.7 8.7 0 0 1-1.817-1.893 4.069 4.069 0 0 0 1.061-3.559zm.757 5.375zm1.514 1.59v.454c-.076-.151-.076-.3-.151-.454zm2.65 4.164v.151a2.8 2.8 0 0 0-1.06.53c-.227-.53-.379-1.06-.606-1.59a3.947 3.947 0 0 0 1.666.908zm5.678-12.113a2.868 2.868 0 0 1-1.363 1.741 3.739 3.739 0 0 1-1.211.379 14.343 14.343 0 0 1 .681-1.59.915.915 0 0 0-1.666-.757 14.1 14.1 0 0 0-.757 1.893 3.035 3.035 0 0 1-1.211-3.18 2.868 2.868 0 0 1 1.363-1.741 2.775 2.775 0 0 1 2.2-.227 2.868 2.868 0 0 1 1.741 1.363 2.932 2.932 0 0 1 .227 2.12zm-84.338 38.535a7.423 7.423 0 0 1-4.467-.227c4.164-3.028 10.3-11.2 19.532-26.043l.757-1.287c5.148-8.4 11.053-17.943 18.321-19.608 3.028-.681 5.981-.076 9.236 1.968 15.974 9.993 20.592 12.492 28.542 8.782a4.432 4.432 0 0 1-1.06 1.666c-2.877 3.18-8.631 4.77-29.223-8.025a6.946 6.946 0 0 0-5.527-.984c-6.435 1.514-12.567 11.735-21.955 27.1-2.044 3.331-4.164 6.814-6.435 10.523a12.386 12.386 0 0 1-7.722 6.132zm7.117-2.271a15.227 15.227 0 0 0 2.271-2.953c2.271-3.71 4.391-7.192 6.435-10.523 8.782-14.46 15.141-24.908 20.82-26.27a5.489 5.489 0 0 1 4.164.757l.454.227c-6.587 2.271-14.687 16.731-20.744 27.406-1.438 2.574-2.725 4.845-3.71 6.359a17.156 17.156 0 0 1-1.59 2.12.591.591 0 0 0-.3.3v.076c-3.105 3.256-6.209 2.954-7.799 2.499zm9.993-2.347c.379-.53.757-1.06 1.136-1.666.984-1.59 2.271-3.861 3.71-6.435 5.3-9.388 14.233-25.211 20.138-26.725a2.529 2.529 0 0 1 2.12.227c.757.454 1.438.833 2.2 1.287-6.057 2.725-14.157 17.186-18.624 25.135-.908 1.59-1.59 2.877-2.044 3.634-2.271 3.785-5.754 5.527-8.631 4.542zm8.782-1.59a10.882 10.882 0 0 0 1.363-1.893c.454-.757 1.211-2.044 2.12-3.71 3.861-6.965 12.946-23.242 18.4-24.6a2.038 2.038 0 0 1 1.514.151.074.074 0 0 1 .076.076c.984.53 1.893.984 2.8 1.438-4.618 2.347-9.842 11.28-14.839 20.441-.909 1.666-1.666 3.1-2.271 4.012a6.526 6.526 0 0 1-1.06 1.363l-.227.227v.076c-2.499 2.645-5.527 3.25-7.874 2.418zm13.552-2.12a6.338 6.338 0 0 1-3.483-.227c.227-.3.379-.53.606-.833.53-.909 1.363-2.271 2.271-4.088 3.71-6.738 11.356-20.744 15.823-20.062h.076q2.158.908 4.088 1.59c-4.24 2.12-7.571 8.025-10.826 13.779a155.288 155.288 0 0 1-3.028 5.148c-1.59 2.574-3.407 4.164-5.527 4.694zm7.192-3.861a111.98 111.98 0 0 0 2.953-5.072c3.937-6.965 8.025-14.082 13.022-13.7h.076a7.458 7.458 0 0 0 1.287.151c-2.347 2.2-4.315 5.829-6.587 10.22a215.752 215.752 0 0 1-2.12 3.937 8.3 8.3 0 0 1-1.06 1.59.264.264 0 0 0-.076.151 6.851 6.851 0 0 1-7.5 2.725zm18.473-7.116a8.588 8.588 0 0 1-8.631 4.391c.151-.227.3-.53.454-.757.757-1.363 1.438-2.725 2.12-3.937 3.028-5.678 5.375-10.22 8.479-11.129.076 0 .076-.076.151-.076.227-.076.379-.076.606-.151a14.664 14.664 0 0 0-.909 4.315 15.484 15.484 0 0 1-2.271 7.344zm15.9 8.025c-.151-.606-.3-1.211-.454-1.893l-.151-.53a1.42 1.42 0 0 1 .151-1.136l.076-.076c.606 1.211 1.211 2.423 1.817 3.558a.911.911 0 0 0-.454.984c.076.151.076.379.151.53a2.159 2.159 0 0 1-1.136-1.439zm4.542 10.6a1.045 1.045 0 0 1-.3.227v-1.136a.909.909 0 1 0-1.817 0v1.06a1.845 1.845 0 0 1-.909-1.59v-.151c-.076-.681-.151-1.363-.227-2.2a1.212 1.212 0 0 1 .3-1.136 1.046 1.046 0 0 1 .3-.227l.227 1.136a.9.9 0 0 0 .909.757h.151a.889.889 0 0 0 .757-1.06 2.21 2.21 0 0 0-.151-.681 1.957 1.957 0 0 1 .984 1.438v.151c.076.681.151 1.363.227 2.2a1.6 1.6 0 0 1-.454 1.211zm-1.136-7.041zm23.924-14.157a75.755 75.755 0 0 0 7.571 7.041 2.528 2.528 0 0 1 .833 1.968c.076 3.331-2.953 9.161-8.176 13.173-4.164 3.255-9.085 5-12.567 4.391a4.335 4.335 0 0 1-3.028-1.817c-.3-.53-.757-1.287-1.363-2.2-1.438-2.271-3.483-5.527-5.754-9.539a2.959 2.959 0 0 0 .379-2.423 19.84 19.84 0 0 0-.227-.984 6.393 6.393 0 0 0-.379-1.287 4.4 4.4 0 0 0-3.407-3.255c0-.076-.076-.227-.076-.3a2.475 2.475 0 0 0 1.136-.833 3.309 3.309 0 0 0 .606-2.725 12.3 12.3 0 0 1-.3-1.438c-.076-.3-.076-.53-.151-.757a3.975 3.975 0 0 0-2.953-3.331v-.151a3.454 3.454 0 0 0 2.5-3.407q.114-1.249.227-2.271a3.943 3.943 0 0 0-.379-2.12 22.882 22.882 0 0 0 5.6-5.527 177.129 177.129 0 0 1 19.911 17.791zm-20.668-20.444a6.384 6.384 0 0 1-1.438 2.574 4.3 4.3 0 0 0-.606-1.817 4.537 4.537 0 0 0-2.8-2.2c-.227-.076-.379-.076-.606-.151a18.645 18.645 0 0 0 1.666-1.893 3.451 3.451 0 0 0 1.817.53 2.575 2.575 0 0 0 .757-.076 7.255 7.255 0 0 1 1.21 3.033zm16.126-7.949a15.014 15.014 0 0 1-7.722.681 15.784 15.784 0 0 0-4.24-.076 3.691 3.691 0 0 0 .227-.53v-.076c1.59-2.953 6.662-4.391 13.1-6.284 1.211-.379 2.5-.681 3.785-1.136a4.268 4.268 0 0 0 .908-.3 8.485 8.485 0 0 1-6.057 7.722zm4.694-9.009c-1.287.379-2.574.757-3.71 1.136-4.921 1.438-9.085 2.65-11.735 4.542a6.121 6.121 0 0 0 .076-1.211v-.076c.681-5.072 8.555-7.646 16.2-10.069 1.817-.606 3.634-1.211 5.375-1.817.076 1.893-.53 5.829-6.208 7.5zm11.431-13.783c-.757 1.741-2.423 3.1-4.77 4.164h-.076c-.3.151-.606.227-.908.379-1.741.606-3.634 1.211-5.451 1.817-6.359 2.044-12.795 4.164-15.823 7.874-.151-1.438-.454-3.028-.757-4.77.53-4.467 15.444-8.933 22.712-11.129 1.968-.606 3.558-1.06 4.618-1.438.379-.151.681-.3 1.06-.454a7.308 7.308 0 0 1-.606 3.558zm-1.136-4.77c-.984.379-2.65.833-4.542 1.438-9.842 2.953-19.457 6.132-22.788 10.145-.227-.984-.53-2.044-.833-3.18a2.041 2.041 0 0 1 .227-1.287c2.5-5.072 20.441-10.6 28.087-12.946 1.666-.53 2.953-.908 3.71-1.211a18.123 18.123 0 0 0 2.12-.984c.454 2.953-1.363 6.359-5.981 8.025zm6.284-10.3c-.151.076-.227.151-.379.227a12.438 12.438 0 0 1-2.65 1.363c-.757.227-2.044.681-3.634 1.136-12.946 4.012-25.211 8.328-28.693 13.022-.227-.757-.53-1.514-.757-2.347v-.151a2.971 2.971 0 0 1 .151-2.12c2.725-5.451 20.062-10.9 30.359-14.082 2.725-.833 5.148-1.59 6.814-2.2.681-.227 1.287-.53 1.893-.757.379 2.12-.833 4.24-3.1 5.905zm.681-6.889c-1.666.606-4.012 1.363-6.814 2.2-11.053 3.407-27.633 8.631-31.267 14.612-.076-.151-.076-.227-.151-.3a5.16 5.16 0 0 1 .151-4.24c2.5-5.3 14.082-9.236 30.056-14.839 3.71-1.287 7.571-2.65 11.735-4.088a20.523 20.523 0 0 0 3.18-1.514c.151 1.968-.53 5.905-6.889 8.176zm10.675-14.839a11.2 11.2 0 0 1-3.407 4.164.756.756 0 0 0-.379.3 17.833 17.833 0 0 1-3.785 1.968c-4.088 1.438-7.949 2.8-11.659 4.088-16.958 5.905-28.239 9.766-31.04 15.747a7.167 7.167 0 0 0-.227 5.6c5.678 15.747 6.132 23.166 4.618 26.876a5.928 5.928 0 0 1-1.968 2.725 6.316 6.316 0 0 0-.908.606 4.564 4.564 0 0 1-1.968.606c5.375-7.041 3.861-12.037-2.5-29.829-1.287-3.558-1.287-6.662 0-9.463 3.18-6.738 13.7-10.448 23.015-13.779l1.438-.53c16.353-5.905 25.665-10.145 29.526-13.552a8.361 8.361 0 0 1-.756 4.481z" transform="translate(-205.602 -75.721)"/>
            <path id="path1948" d="M271.528 196.473a3.431 3.431 0 0 0-1.741-2.5l-.227-.151a394.311 394.311 0 0 1-33.765-23.015 6.224 6.224 0 0 0-1.211-2.574c2.423-1.363 4.315-1.136 6.587-.833a18.6 18.6 0 0 0 9.236-.757 11 11 0 0 0 7.8-10.75 9.248 9.248 0 0 0 5.072-9.463 10.942 10.942 0 0 0 5.6-5.072 8.687 8.687 0 0 0 .606-5.451 10.523 10.523 0 0 0 4.088-4.467 8.272 8.272 0 0 0 .606-5.678c3.1-2.347 4.542-5.527 3.785-8.782 4.77-3.1 5.375-7.5 4.845-10.145a14.1 14.1 0 0 0 3.937-4.845 10.287 10.287 0 0 0 .53-7.874 1.075 1.075 0 0 0-.681-.606.841.841 0 0 0-.833.3c-2.8 3.558-13.324 8.479-32.176 15.141l-1.514.53c-10.372 3.634-22.107 7.8-25.892 15.747-1.59 3.407-1.666 7.268-.151 11.508 5.981 17.034 7.722 22.561 4.088 28.542-.076-.076-.151-.227-.3-.3a1.584 1.584 0 0 0-.3-.454c-.076-.076-.076-.076-.151-.076-2.12-2.65-4.24-5.527-6.208-8.4a15.633 15.633 0 0 0 3.18-6.208 11.032 11.032 0 0 0-4.24-12.567 9.273 9.273 0 0 0-4.845-9.691 10.358 10.358 0 0 0-.984-7.419 9.055 9.055 0 0 0-4.164-3.634 10.958 10.958 0 0 0-1.287-5.905 8.268 8.268 0 0 0-4.315-3.71c-.076-3.861-1.893-7.041-5-8.252.151-5.678-3.18-8.706-5.6-9.766a13.721 13.721 0 0 0-1.741-6.057 9.96 9.96 0 0 0-6.057-4.845.91.91 0 0 0-1.136 1.136c1.287 4.315-.606 15.444-6.057 35.052-3.634 12.946-8.555 30.661 2.2 36.037.076 0 .151.076.227.076l2.65 1.438c-1.363 2.271-2.2 4.542-2.12 6.057a2.672 2.672 0 0 0 .757 1.741c.076 0 .076.076.151.076a4.079 4.079 0 0 0 .984.53A162.028 162.028 0 0 1 213.915 178a3.136 3.136 0 0 0 .53 2.65 13.683 13.683 0 0 0 5.451 4.467v1.666a3.485 3.485 0 0 0 2.725 3.407v.227a4.3 4.3 0 0 0-1.363.908 2.863 2.863 0 0 0-.606 2.574c.151.833.3 1.59.454 2.347a4.3 4.3 0 0 0 3.331 3.331.278.278 0 0 0 .076.227 2.475 2.475 0 0 0-1.136.833 3.2 3.2 0 0 0-.606 2.65c.151.833.3 1.59.454 2.347a4.05 4.05 0 0 0 3.1 3.255v.151a3.434 3.434 0 0 0-2.574 3.407 22.02 22.02 0 0 1-.076 2.271 3.3 3.3 0 0 0 .757 2.5.822.822 0 0 0 .681.3 1.007 1.007 0 0 0 .606-.227.945.945 0 0 0 .151-1.287 1.534 1.534 0 0 1-.3-1.136c.076-.833.076-1.59.076-2.423a1.845 1.845 0 0 1 .908-1.59v.984a.908.908 0 1 0 1.817 0v-.757a1.619 1.619 0 0 1 .681 1.363v1.06c0 .379-.076.833-.076 1.287a.912.912 0 0 0 .454 1.211.882.882 0 0 0 1.211-.379 1.5 1.5 0 0 0 .151-.757 6.512 6.512 0 0 1 .076-1.211v-1.136a3.636 3.636 0 0 0-2.65-3.407v-.227a2.724 2.724 0 0 0 1.363-.908 3.235 3.235 0 0 0 .681-2.65c-.151-.833-.3-1.59-.454-2.347a4.389 4.389 0 0 0-3.407-3.331.278.278 0 0 0-.076-.227 2.69 2.69 0 0 0 1.211-.833 3.2 3.2 0 0 0 .606-2.65c-.151-.833-.3-1.59-.454-2.347a4.021 4.021 0 0 0-3.255-3.331v-.076a3.431 3.431 0 0 0 1.438-.833 165.773 165.773 0 0 1 19.23 29.223 4.4 4.4 0 0 0 3.785 2.271h.454c5.527-.454 11.129-3.407 16.05-8.479 6.587-6.738 6.662-12.87 6.132-15.9zm-46.56-10.75a12.565 12.565 0 0 0-.984-1.06c.3-.151.681-.379 1.06-.53v.227a8.229 8.229 0 0 1-.076 1.362zM216.64 178c-9.691-8.252-21.349-14.839-27.179-17.943 3.407-.908 7.874-3.483 12.643-7.5 5.754-4.845 8.176-9.539 8.782-13.173.227.379.379.757.606 1.136a.935.935 0 0 0 .3.606 188.465 188.465 0 0 0 16.277 24.832c0 .833-1.893 4.012-5.981 7.874A29.413 29.413 0 0 1 216.64 178zm-8.858-35.28a26.858 26.858 0 0 1-6.965 8.4 48.133 48.133 0 0 1-4.391 3.331l-2.65-1.666a50.389 50.389 0 0 0 5.678-4.845c.227-.227 4.77-4.618 6.284-8.176zm17.186 31.646h.454a3.313 3.313 0 0 1 1.893.606 2.918 2.918 0 0 1 1.211 2.12 3.282 3.282 0 0 1-2.65 3.634 3.648 3.648 0 0 1-.908 0c.227-.681.454-1.363.681-1.968a.915.915 0 0 0-1.666-.757 15.17 15.17 0 0 0-.757 1.968 2.842 2.842 0 0 1-1.06-1.893 3.427 3.427 0 0 1 2.8-3.71zm-2.347 8.933a.278.278 0 0 1-.227-.076c.076-.076.151-.151.227-.151zm7.8-6.208v-.227a5.073 5.073 0 0 0-1.968-3.255 4.733 4.733 0 0 0-2.65-.984 37.333 37.333 0 0 0 2.5-3.028 3.319 3.319 0 0 0 1.968.606 6 6 0 0 0 2.8-.833 3.179 3.179 0 0 1 .909 1.741c-.154 1.363-1.593 3.71-3.561 5.981zm19.379-12.112a15.959 15.959 0 0 1-8.4.681 15.7 15.7 0 0 0-4.618-.076 4.058 4.058 0 0 0 .379-.833l.076-.076c1.59-2.953 6.587-4.315 13.022-6.132 1.666-.454 3.331-.908 5.148-1.438.379-.076.681-.227 1.06-.3a9.341 9.341 0 0 1-6.662 8.176zm7.116-10.372a16.3 16.3 0 0 1-2.044.757c-1.741.53-3.483.984-5.148 1.438-4.921 1.363-9.009 2.5-11.735 4.391a5.729 5.729 0 0 0 .076-1.136v-.076c.757-5.527 9.463-8.328 17.867-10.978 1.893-.606 3.785-1.211 5.6-1.817.154 1.743-.224 5.301-4.615 7.421zm10.3-14.006c-.984 2.12-3.1 3.71-6.208 4.845-1.741.606-3.71 1.211-5.6 1.817-7.041 2.2-14.233 4.542-17.413 8.631-.151-1.59-.454-3.331-.833-5.3.606-4.845 16.883-9.615 24.681-11.886 2.044-.606 3.71-1.06 4.77-1.438l1.136-.454a5.487 5.487 0 0 1-.53 3.785zm4.77-9.918a9.947 9.947 0 0 1-5.829 4.845c-1.06.379-2.725.833-4.694 1.438-10.75 3.18-21.274 6.587-24.832 10.9a31.512 31.512 0 0 0-.908-3.331 2.033 2.033 0 0 1 .227-1.59c2.725-5.375 21.879-11.28 30.056-13.779 1.893-.606 3.407-1.06 4.24-1.363a16.84 16.84 0 0 0 2.347-1.06 7.2 7.2 0 0 1-.606 3.937zm.909-6.208a1.656 1.656 0 0 0-.379.227 14.58 14.58 0 0 1-2.877 1.438c-.833.3-2.271.757-4.164 1.287-9.388 2.877-26.573 8.1-30.661 13.93-.3-.908-.53-1.817-.908-2.725a2.618 2.618 0 0 1 .227-2.347c2.953-5.905 21.652-11.735 32.781-15.141a336.331 336.331 0 0 0 7.344-2.347 17.85 17.85 0 0 0 2.12-.908c.3 2.423-.984 4.845-3.483 6.587zm7.949-13.93c-.833 2.877-3.255 5.072-7.192 6.435a315.82 315.82 0 0 1-7.268 2.347c-11.962 3.71-29.829 9.236-33.69 15.747l-.227-.681a5.739 5.739 0 0 1 .151-4.618c2.8-5.754 15.293-9.993 32.706-15.9 3.937-1.363 7.949-2.725 12.265-4.24a17.088 17.088 0 0 0 3.558-1.666 11.7 11.7 0 0 1-.3 2.574zm-53.151 25.665c-1.363-3.861-1.363-7.192.076-10.145 3.483-7.268 14.839-11.28 24.908-14.839l1.514-.53c17.64-6.284 27.633-10.826 31.8-14.46a9.094 9.094 0 0 1-.833 5c-1.438 3.028-4.315 5.375-8.176 6.738-4.24 1.514-8.328 2.877-12.189 4.24-17.791 6.057-30.661 10.448-33.765 16.883a7.448 7.448 0 0 0-.227 5.981c7.8 21.955 6.208 28.844 2.877 31.721a12.326 12.326 0 0 0-1.287.833c-.076 0-.076.076-.076.151a4.811 4.811 0 0 1-2.044.606c5.754-7.571 4.164-13.022-2.574-32.176zm-3.18 13.173a12.613 12.613 0 0 1-2.5 5.072c-1.287-1.968-2.5-3.937-3.71-5.754.3-.908.681-1.893.984-2.877.681-1.817 1.287-3.634 1.968-5.678.076-.3.227-.606.3-.908a9.369 9.369 0 0 1 2.953 10.145zm-4.39-11.883c0 .076-.076.151-.076.3a10.274 10.274 0 0 1-.53 1.893c-.606 1.968-1.287 3.785-1.968 5.6-.151.53-.379.984-.53 1.438-1.438-2.347-2.65-4.542-3.785-6.511.379-1.211.757-2.423 1.136-3.71.757-2.347 1.514-4.77 2.2-7.116a7.531 7.531 0 0 1 3.558 8.1zm-5.523-16.432c1.136 1.968 1.287 4.694.379 7.874-.606 2.271-1.363 4.694-2.12 7.041l-.681 2.044c-.606-1.136-1.136-2.044-1.514-2.8a6.2 6.2 0 0 0-1.06-2.12 4.419 4.419 0 0 0-1.968-1.363c.833-2.65 1.666-5.3 2.423-7.419.681-1.968 1.211-3.558 1.514-4.618a9.417 9.417 0 0 0 .3-1.211 6.43 6.43 0 0 1 2.725 2.574zm-5.451-9.539a9.747 9.747 0 0 1 .606 7.646c-.3 1.06-.833 2.65-1.514 4.542-.757 2.2-1.59 4.845-2.5 7.646a13.552 13.552 0 0 0-6.587 1.893c1.59-6.511 3.785-13.325 5.3-17.943.606-1.817 1.06-3.18 1.287-4.088a15.03 15.03 0 0 0 .454-2.423 6.449 6.449 0 0 1 2.953 2.725zm-4.542-4.24a.483.483 0 0 0 0 .454 14.984 14.984 0 0 1-.53 3.028c-.227.833-.681 2.2-1.287 4.012-1.59 4.77-4.164 12.719-5.754 19.76a43.074 43.074 0 0 0-5.981 4.542c.606-8.176 4.618-20.517 7.344-28.92.984-2.953 1.817-5.527 2.347-7.344.227-.833.379-1.59.53-2.271 2.2 1.136 3.407 3.634 3.331 6.738zm-9.463-12.34a19.353 19.353 0 0 0 .681-4.012 8.079 8.079 0 0 1 2.044 1.741c1.893 2.347 2.271 5.6 1.136 9.615-.53 1.817-1.363 4.391-2.271 7.268-3.18 9.691-7.419 22.864-7.5 31.267-1.136 1.136-2.044 2.2-2.877 3.18-4.013-4.921-.076-18.245 5.224-36.415 1.06-3.937 2.271-8.176 3.558-12.643zm-12.567 19.76c5.072-18.094 7.041-28.92 6.359-34.371a8.708 8.708 0 0 1 3.558 3.483A13.744 13.744 0 0 1 193.4 94.5c-1.211 4.467-2.5 8.631-3.634 12.643-5.754 19.684-9.615 32.933-4.618 38.384a30.732 30.732 0 0 0-1.968 2.725c-7.874-4.694-4.618-19.078-.606-33.538zm2.2 34.447a46.015 46.015 0 0 1 6.132-7.419c5.527-5.375 11.356-8.706 14.99-8.555a3.226 3.226 0 0 1 2.12.908c.151.227.454.833.909 1.741a9.464 9.464 0 0 1-.3 4.921l-2.423-3.558a1.649 1.649 0 0 0-.379-.606 1.91 1.91 0 0 0-1.514-.681h-.076c-4.088 0-13.173 9.236-13.552 9.615a34.965 34.965 0 0 0-3.785 4.77zm7.192-2.347c4.391-4.467 10.145-9.085 12.265-9.085h.151l.151.3c.076.984-1.968 4.618-6.208 8.782a42.125 42.125 0 0 1-6.587 5.375.858.858 0 0 0 0 1.514l3.1 1.968c-4.088 2.5-7.041 3.255-8.479 2.877l-.606-.3a1.076 1.076 0 0 1-.151-.454c-.151-2.271 2.953-7.571 6.359-10.978zm24.226 33.311a15.512 15.512 0 0 0 4.315-2.5 2.1 2.1 0 0 0 .076.681 4.678 4.678 0 0 0 1.666 3.028 3.983 3.983 0 0 0-1.968 2.044 11.981 11.981 0 0 1-4.088-3.255zm5.375 6.662V185.5c.227 0 .379-.076.606-.076.379.379.757.833 1.136 1.211h-.076a.875.875 0 0 0-.909.908v.757a1.976 1.976 0 0 1-.766-1.518zm6.359 16.58l.454 2.271a1.361 1.361 0 0 1-.3 1.211l-.227.227c-.076-.3-.076-.681-.151-1.06a.891.891 0 1 0-1.741.379c0 .151.076.379.076.53a2.61 2.61 0 0 1-1.06-1.59c-.151-.757-.3-1.514-.454-2.347a1.426 1.426 0 0 1 .227-1.136c.076-.076.076-.151.151-.151a2.69 2.69 0 0 1 .151.757.838.838 0 0 0 .909.681h.227a.982.982 0 0 0 .681-1.06.278.278 0 0 0-.076-.227 2.178 2.178 0 0 1 1.125 1.515zm-2.2-9.463v.076c.151.757.3 1.438.454 2.271a1.426 1.426 0 0 1-.227 1.136l-.227.227c-.151-.454-.227-.984-.379-1.438a.891.891 0 1 0-1.741.379c.076.3.151.53.227.833a2.331 2.331 0 0 1-1.06-1.59c-.151-.757-.3-1.438-.454-2.271a1.314 1.314 0 0 1 .227-1.06l.227-.227.227 1.136a.9.9 0 0 0 .908.757h.151a.875.875 0 0 0 .681-1.06c-.076-.227-.076-.53-.151-.757a2.076 2.076 0 0 1 1.136 1.59zm-1.514-5.6v-.833a2.007 2.007 0 0 1 .379.454.893.893 0 0 1-.383.38zm39.822 22.864c-4.694 4.77-9.842 7.5-14.99 7.949a2.585 2.585 0 0 1-2.423-1.363c-1.59-3.1-9.388-17.867-19.911-30.056a3.22 3.22 0 0 0 .151-.833 22.016 22.016 0 0 1 .076-2.271 3.347 3.347 0 0 0-.151-1.514c3.71-2.725 7.419-7.268 8.631-10.3 9.766 7.419 20.9 14.99 33.236 22.561l.3.151a1.591 1.591 0 0 1 .833 1.287c.452 2.726.301 8.178-5.756 14.386z" transform="translate(-176.563 -58.723)"/>
            <path id="path1950" d="M238.453 269.708a6.627 6.627 0 0 0 .151-1.211 1.23 1.23 0 0 1 .681-1.06.915.915 0 1 0-.757-1.666 2.955 2.955 0 0 0-1.741 2.574 5.844 5.844 0 0 1-.151 1.136 6.718 6.718 0 0 0-.151 1.136 4 4 0 0 0 2.65 4.391c.076 0 .227.076.3.076a.821.821 0 0 0 .833-.606.881.881 0 0 0-.606-1.136 2.337 2.337 0 0 1-1.438-2.423 6.821 6.821 0 0 0 .227-1.211z" transform="translate(-191.108 -104.487)"/>
            <path id="path1952" d="M243.044 278.158a1.2 1.2 0 0 1-1.136.984.908.908 0 0 0 0 1.817 2.97 2.97 0 0 0 2.877-2.347c.227-.757.454-1.514.606-2.271a4.318 4.318 0 0 0-2.271-4.77.915.915 0 0 0-.757 1.666 2.445 2.445 0 0 1 1.211 2.725 13.143 13.143 0 0 1-.53 2.196z" transform="translate(-192.217 -105.9)"/>
            <path id="path1954" d="M438.506 443.337c0-.151-.076-.227-.076-.379L424.2 418.2c-.076-.076-.151-.151-.151-.227a.074.074 0 0 1-.076-.076c-.076 0-.076-.076-.151-.076l-16.2-8.252c.076-.53.076-1.136.151-1.666a3.306 3.306 0 0 0-.909-2.5 4.628 4.628 0 0 0-1.666-.984v-.076a2.83 2.83 0 0 0 1.514-.909 3.506 3.506 0 0 0 .833-2.65 5.936 5.936 0 0 1-.151-1.06 36.066 36.066 0 0 0-.227-1.211 4.114 4.114 0 0 0-3.255-3.331.278.278 0 0 0-.076-.227 2.257 2.257 0 0 0 1.287-.909 3.127 3.127 0 0 0 .53-2.574c-.076-.454-.227-.909-.3-1.363-.076-.3-.151-.681-.227-.984a4.3 4.3 0 0 0-3.331-3.331v-.151a2.257 2.257 0 0 0 1.287-.908 3.2 3.2 0 0 0 .606-2.65l-.076-.379a17.676 17.676 0 0 1-.3-1.968 3.824 3.824 0 0 0-2.8-3.255v-.227a3.738 3.738 0 0 0 2.65-3.331 17.1 17.1 0 0 1 .3-2.2 3.071 3.071 0 0 0-.53-2.574 3.1 3.1 0 0 0-2.347-1.06.908.908 0 1 0 0 1.817 1.125 1.125 0 0 1 .984.454 1 1 0 0 1 .151 1.06 25.047 25.047 0 0 0-.3 2.5 2.057 2.057 0 0 1-.833 1.514V373.3a.908.908 0 0 0-1.817 0v1.211a1.329 1.329 0 0 1-.379-.3 1.567 1.567 0 0 1-.379-1.136v-.53c0-.227.076-.454.076-.681a.908.908 0 0 0-1.817 0v.454c0 .227-.076.379-.076.606a3.353 3.353 0 0 0 .833 2.5 3.1 3.1 0 0 0 1.741.984v.151a3.37 3.37 0 0 0-1.59.909 3.608 3.608 0 0 0-.833 2.65 5.941 5.941 0 0 1 .151 1.06c.076.454.151.833.227 1.211a4.106 4.106 0 0 0 3.331 3.331v.151a3.289 3.289 0 0 0-1.287.909 3.127 3.127 0 0 0-.53 2.574c.076.454.227.909.3 1.363.076.3.151.681.227 1.06a4.4 4.4 0 0 0 3.407 3.255.278.278 0 0 0 .076.227 2.69 2.69 0 0 0-1.211.833 3.235 3.235 0 0 0-.681 2.65l.076.379a17.688 17.688 0 0 1 .3 1.968 3.8 3.8 0 0 0 2.877 3.255v.151a3.73 3.73 0 0 0-2.574 2.8l-20.82 10.6a.884.884 0 0 0-.454.454c-.454.909-7.117 12.492-11.2 19.608-1.59 2.8-2.8 4.845-2.877 5a.455.455 0 0 0-.076.3v.454c0 .076 0 .076.076.151l3.71 8.025a.756.756 0 0 0 .3.379l31.948 20.668a144899966153.457 144899966153.457 0 0 1 .151.151c.076 0 .227.076.3.076a.455.455 0 0 0 .3-.076 265.6 265.6 0 0 0 .151-.151l31.949-20.668a.756.756 0 0 0 .3-.379l3.71-8.025c0-.076 0-.076.076-.151v-.076a.573.573 0 0 1-.076-.3zm-34.75-33.69a.815.815 0 0 0-.606.757 9.739 9.739 0 0 1-.3 1.438l-.227-.227a2.064 2.064 0 0 1-.3-1.211l.227-1.363zm1.06.53l.757.379a2.528 2.528 0 0 1-.833.984 3.8 3.8 0 0 0 .151-.909.96.96 0 0 0-.076-.454zm-3.634 2.574a2.326 2.326 0 0 0 1.136.757c0 .076-.076.227-.076.3h-.379a4.783 4.783 0 0 0-4.845 4.845.909.909 0 0 0 1.817 0 3.042 3.042 0 0 1 2.725-3.028c0 .076-.076.151-.076.227a.912.912 0 0 0 .454 1.211.683.683 0 0 0 .379.076.931.931 0 0 0 .833-.53c.076-.151.151-.378.227-.53a3.054 3.054 0 0 1 1.514 2.65.908.908 0 1 0 1.817 0 4.8 4.8 0 0 0-2.725-4.391 5.219 5.219 0 0 1 .227-.606 4.286 4.286 0 0 0 2.953-2.271l14.233 7.268-19.457 9.993-19.457-9.993 18.17-9.236c0 .227-.076.454-.076.681a3.1 3.1 0 0 0 .606 2.578zm1.666 17.488l20.138-10.3 13.4 23.242-33.538 20.749zm3.1-22.485c0 .3-.076.606-.076.909l-1.136-.606a.833.833 0 0 0 .454-.757v-.984a1.045 1.045 0 0 1 .3.227 1.6 1.6 0 0 1 .454 1.211zm-7.571-25.74a36.55 36.55 0 0 1-.227-1.211c-.076-.379-.076-.757-.151-1.06a1.47 1.47 0 0 1 .379-1.211c.076-.076.227-.227.3-.227 0 .227.076.454.076.681a.968.968 0 0 0 .909.833h.076a.855.855 0 0 0 .757-.984v-.3a2.385 2.385 0 0 1 .909 1.438c.076.681.227 1.363.3 2.044l.076.379a1.36 1.36 0 0 1-.227 1.136l-.227.227a4.432 4.432 0 0 1-.151-.984.921.921 0 1 0-1.817.3c0 .227.076.379.076.606a2.666 2.666 0 0 1-1.054-1.667zm2.044 9.312c-.076-.379-.151-.681-.227-1.06s-.227-.833-.3-1.363a1.288 1.288 0 0 1 .151-1.06 1.045 1.045 0 0 1 .3-.227c.076.454.227.833.3 1.211a.909.909 0 0 0 .908.681h.227a.982.982 0 0 0 .681-1.06c-.076-.227-.076-.454-.151-.606a2.8 2.8 0 0 1 1.136 1.514c.076.379.151.681.227 1.06s.227.833.3 1.363a1.42 1.42 0 0 1-.151 1.136l-.227.227c-.076-.454-.227-.984-.3-1.438a.891.891 0 0 0-1.741.379 3.221 3.221 0 0 1 .151.833 2.829 2.829 0 0 1-1.28-1.59zm1.893 9.463c-.076-.681-.227-1.363-.3-2.044l-.076-.379a1.361 1.361 0 0 1 .3-1.211c.076-.076.151-.151.227-.151l.151.757a.9.9 0 0 0 .909.757h.151a.875.875 0 0 0 .681-1.06l-.076-.227a2.332 2.332 0 0 1 1.06 1.59c.076.379.151.757.227 1.211.076.379.076.757.151 1.06a1.4 1.4 0 0 1-.378 1.211c-.076.076-.227.151-.3.227 0-.3-.076-.681-.076-.984a.878.878 0 1 0-1.741.227c0 .227.076.379.076.606a2.584 2.584 0 0 1-.982-1.589zm1.136 5.6v1.06l-.606-.3a1.041 1.041 0 0 1 .61-.757zm-33.463 32.478c2.044-3.558 4.921-8.479 7.192-12.567 2.044-3.558 3.1-5.451 3.634-6.511l20.214 10.372v33.614l-33.534-20.665a96.37 96.37 0 0 0 2.498-4.239zm-1.59 6.889l32.63 20.138v4.542l-30.359-19.608zm64.805 5.072l-30.354 19.612v-4.467l32.706-20.214z" transform="translate(-222.485 -129.298)"/>
            <path id="path1956" d="M266.282 376.325c0-.151-.076-.227-.076-.379l-14.233-24.756a.913.913 0 0 0-.379-.379l-16.883-8.631c.076-.454.076-.909.151-1.363a3.48 3.48 0 0 0-.908-2.574 3.369 3.369 0 0 0-1.59-.909v-.076a3.369 3.369 0 0 0 1.59-.908 3.2 3.2 0 0 0 .908-2.574 253.16 253.16 0 0 0-.227-2.347 3.95 3.95 0 0 0-3.028-3.407v-.222a2.949 2.949 0 0 0 1.514-.984 3.039 3.039 0 0 0 .606-2.574 23.188 23.188 0 0 0-.379-2.423 4.135 4.135 0 0 0-3.18-3.255v-.076a2.55 2.55 0 0 0 1.287-.833 3.235 3.235 0 0 0 .681-2.65l-.076-.379a17.684 17.684 0 0 1-.3-1.968 3.975 3.975 0 0 0-2.953-3.331v-.3a3.969 3.969 0 0 0 1.438-.833 3.272 3.272 0 0 0 .908-2.65c-.076-.757-.076-1.514-.076-2.271a3.525 3.525 0 0 0-2.423-3.407 3.975 3.975 0 0 0 2.953-3.255q.227-1.249.454-2.271a3.015 3.015 0 0 0-.833-3.1.912.912 0 0 0-1.211 1.363 1.314 1.314 0 0 1 .227 1.363c-.151.757-.3 1.514-.454 2.347a2.437 2.437 0 0 1-.908 1.514c0-.227.076-.379.076-.606a.921.921 0 0 0-1.817-.3c-.076.379-.076.757-.151 1.06a1.33 1.33 0 0 1-.379-.3 1.448 1.448 0 0 1-.3-1.136c.151-.757.3-1.514.454-2.347a.921.921 0 1 0-1.817-.3c-.151.833-.3 1.59-.454 2.347a3.07 3.07 0 0 0 .681 2.574 2.926 2.926 0 0 0 1.438.909 3.566 3.566 0 0 0-2.65 3.407 7.344 7.344 0 0 0 .076 1.287v1.136a3.708 3.708 0 0 0 2.877 3.407v.227a2.547 2.547 0 0 0-1.514.984 3.14 3.14 0 0 0-.681 2.574 5.937 5.937 0 0 1 .151 1.06c.076.454.151.833.227 1.211a4.03 4.03 0 0 0 3.18 3.331v.076a2.921 2.921 0 0 0-1.287.833 3.235 3.235 0 0 0-.681 2.65 5.94 5.94 0 0 1 .151 1.06c.076.454.151.833.227 1.211a4.038 4.038 0 0 0 3.1 3.331.572.572 0 0 0 .076.3 3.168 3.168 0 0 0-1.363.833 3.532 3.532 0 0 0-.833 2.574c.076.833.151 1.59.227 2.347a3.653 3.653 0 0 0 2.725 3.407 3.636 3.636 0 0 0-2.725 3.331l-19.987 10.221a.8.8 0 0 0-.454.53c-.454.909-5.981 10.6-11.2 19.608-1.666 2.877-2.877 5-2.877 5a.455.455 0 0 0-.076.3v.454c0 .076 0 .076.076.151l3.71 8.025a.756.756 0 0 0 .3.379l31.721 20.517a.96.96 0 0 0 .681.3h.076a1.4 1.4 0 0 0 .53-.151l31.948-20.668a.756.756 0 0 0 .3-.379l3.71-8.025c0-.076 0-.076.076-.151v-.076c-.151.151-.151.076-.151 0zm-36.567-34.6l2.953 1.514a1.881 1.881 0 0 1-.908 1.211c.076-.3.076-.606.151-.909a.878.878 0 0 0-1.741-.227c-.076.454-.151.833-.227 1.287l-.227-.227a1.457 1.457 0 0 1-.3-1.287v-.076c.076-.379.076-.833.151-1.287zm-1.363 3.937a2.545 2.545 0 0 0 1.211.757c0 .151-.076.3-.076.454h-.151a4.783 4.783 0 0 0-4.845 4.845.908.908 0 1 0 1.817 0 3.032 3.032 0 0 1 2.65-3.028c0 .076-.076.151-.076.227a.881.881 0 0 0 .606 1.136c.076 0 .151.076.3.076a.82.82 0 0 0 .833-.606c.076-.151.076-.3.151-.454a3.123 3.123 0 0 1 1.59 2.65.908.908 0 1 0 1.817 0 4.877 4.877 0 0 0-2.877-4.467 2.21 2.21 0 0 0 .151-.681 4.133 4.133 0 0 0 2.953-2.5l14.914 7.646-19.608 9.993-19.457-9.993 17.337-8.858v.151a3.194 3.194 0 0 0 .757 2.65zm2.2 17.64l20.29-10.372 13.32 23.17-33.614 20.9zm2.423-22.636c0 .227-.076.454-.076.606l-.908-.454.227-.454c0-.379.076-.757.076-1.136.076.076.227.151.3.227a1.47 1.47 0 0 1 .377 1.212zM225.7 305.69v-1.136c0-.379-.076-.757-.076-1.211a2.057 2.057 0 0 1 .833-1.514v1.06a.908.908 0 0 0 1.817 0v-.989a1.723 1.723 0 0 1 .757 1.438c0 .757 0 1.59.076 2.423a1.719 1.719 0 0 1-.454 1.211l-.227.227c0-.379-.076-.757-.076-1.136a.908.908 0 1 0-1.817 0 5 5 0 0 0 .076 1.06 1.87 1.87 0 0 1-.909-1.433zm1.06 9.312a36.55 36.55 0 0 1-.227-1.211c-.076-.379-.076-.757-.151-1.136a1.448 1.448 0 0 1 .3-1.136l.3-.3c0 .227.076.454.076.681a.968.968 0 0 0 .908.833h.076a.855.855 0 0 0 .757-.984v-.3a2.343 2.343 0 0 1 .984 1.514c.076.681.227 1.363.3 2.044l.076.379a1.361 1.361 0 0 1-.3 1.211l-.227.227a4.43 4.43 0 0 1-.151-.984.921.921 0 0 0-1.817.3c0 .227.076.379.076.606a3.375 3.375 0 0 1-.984-1.741zm1.59 9.236a36.066 36.066 0 0 1-.227-1.211c-.076-.379-.076-.757-.151-1.136a1.361 1.361 0 0 1 .3-1.211c.076-.076.151-.151.227-.151.076.379.151.833.227 1.211a.9.9 0 0 0 .908.757h.151a.889.889 0 0 0 .757-1.06c-.076-.227-.076-.53-.151-.757a2.61 2.61 0 0 1 1.06 1.59 20.293 20.293 0 0 1 .379 2.271v.076a1.426 1.426 0 0 1-.227 1.136.756.756 0 0 1-.379.3c-.076-.454-.151-.909-.227-1.287a.921.921 0 0 0-1.817.3c.076.3.076.53.151.833a2.749 2.749 0 0 1-.979-1.661zm1.211 9.539a253.16 253.16 0 0 1-.227-2.347 1.4 1.4 0 0 1 .379-1.211l.227-.227c0 .227.076.454.076.681a.968.968 0 0 0 .908.833H231a.855.855 0 0 0 .757-.984.455.455 0 0 0-.076-.3 2.094 2.094 0 0 1 .984 1.514l.227 2.271a1.719 1.719 0 0 1-.454 1.211 1.044 1.044 0 0 1-.3.227v-.833a.977.977 0 0 0-.908-.909.921.921 0 0 0-.908.909v.757a2.628 2.628 0 0 1-.758-1.592zm.908 5.527v.681l-.3-.151c-.076 0-.151-.076-.227-.076a3.292 3.292 0 0 1 .53-.454zm-32.706 32.554c2.12-3.634 4.921-8.479 7.192-12.567 1.136-2.044 2.2-3.785 2.877-5.072a14.7 14.7 0 0 1 .757-1.287l20.142 10.368v33.538L195.344 376.1c.456-.835 1.363-2.349 2.423-4.242zm-1.59 6.889l32.554 20.138v4.467l-30.279-19.532zm64.805 5.072l-30.43 19.681v-4.391l32.706-20.365z" transform="translate(-180.629 -110.814)"/>
            <path id="path1958" d="M608.358 390.823c0-.151-.076-.227-.076-.379l-14.233-24.756c-.076-.076-.151-.151-.151-.227a.074.074 0 0 1-.076-.076c-.076 0-.076-.076-.151-.076l-20.744-10.6a3.451 3.451 0 0 0-2.347-3.028 4.038 4.038 0 0 0 3.1-3.331c.151-.833.3-1.59.454-2.347a2.963 2.963 0 0 0-.606-2.65 2.475 2.475 0 0 0-1.136-.833c0-.076.076-.227.076-.3a4.3 4.3 0 0 0 3.331-3.331c.151-.833.3-1.59.454-2.347a3.235 3.235 0 0 0-.681-2.65 3.42 3.42 0 0 0-1.287-.833 3.639 3.639 0 0 0 2.8-3.483c0-.833 0-1.59-.076-2.423a2.7 2.7 0 0 0-.908-2.044.91.91 0 0 0-1.287 1.287 1.139 1.139 0 0 1 .3.833v.076a21.3 21.3 0 0 1 .076 2.271 1.792 1.792 0 0 1-.833 1.438v-.833a.909.909 0 0 0-1.817 0v.909a1.762 1.762 0 0 1-.757-1.514c0-.757 0-1.59-.076-2.423a.912.912 0 0 0-1.817.151c.076.757.076 1.514.076 2.271a3.488 3.488 0 0 0 2.347 3.407 4.378 4.378 0 0 0-3.1 3.255c-.151.833-.3 1.59-.454 2.347a2.963 2.963 0 0 0 .606 2.65 2.69 2.69 0 0 0 1.211.833c0 .076-.076.151-.076.3a4.389 4.389 0 0 0-3.4 3.333c-.151.833-.3 1.59-.454 2.347a2.812 2.812 0 0 0 .606 2.574 3.761 3.761 0 0 0 1.439.984v.076a3.639 3.639 0 0 0-2.8 3.483v.076c0 .379.076.757.076 1.136a2.336 2.336 0 0 0 .076.757l-16.126 8.252a.883.883 0 0 0-.454.454c-.454.909-7.117 12.492-11.2 19.608-1.59 2.8-2.8 4.845-2.877 5-.076.076-.076.151-.076.3v.454c0 .076 0 .076.076.151l3.71 8.025a.756.756 0 0 0 .3.379l31.721 20.517a.959.959 0 0 0 .681.3h.076a1.4 1.4 0 0 0 .53-.151l31.949-20.668a.756.756 0 0 0 .3-.379l3.71-8.025c0-.076 0-.076.076-.151v-.076a.572.572 0 0 1-.076-.3zm-37.172-34.3c0 .3.076.53.076.833v.227a1.733 1.733 0 0 1-.3 1.287l-.227.227c-.076-.454-.151-.833-.227-1.287a.87.87 0 0 0-.454-.681zm-2.347 2.271a2.407 2.407 0 0 1-.757-.757l.606-.3v.151a5.592 5.592 0 0 1 .151.909zm.454 2.12a2.21 2.21 0 0 1 .151.681 4.783 4.783 0 0 0-2.8 4.391.908.908 0 1 0 1.817 0 2.971 2.971 0 0 1 1.59-2.65c.076.227.151.379.227.606a.931.931 0 0 0 .833.53.682.682 0 0 0 .378-.076.912.912 0 0 0 .454-1.211c0-.076-.076-.151-.076-.227a2.977 2.977 0 0 1 2.65 3.028.909.909 0 0 0 1.817 0 4.783 4.783 0 0 0-4.845-4.845h-.3c0-.151-.076-.227-.076-.379a4.067 4.067 0 0 0 1.211-.757 3.608 3.608 0 0 0 .833-2.65v-.53l18.17 9.312-19.533 9.993-19.381-9.993 14.157-7.192a3.758 3.758 0 0 0 2.723 1.973zm3.331 16.807l20.214-10.3 13.4 23.242-33.614 20.82zm-1.59-23.166l-.757.379c0-.076.076-.151.076-.3v-1.06a1.487 1.487 0 0 1 .681.985zm-.454-15.6c.151-.757.3-1.514.454-2.347a2.61 2.61 0 0 1 1.06-1.59c-.076.227-.076.53-.151.757a.935.935 0 0 0 .681 1.06h.151a.9.9 0 0 0 .909-.757c.076-.379.151-.833.227-1.211.076.076.151.151.227.151a1.448 1.448 0 0 1 .3 1.136c-.151.757-.3 1.514-.454 2.347a2.668 2.668 0 0 1-1.06 1.514 2.693 2.693 0 0 0 .151-.757.891.891 0 0 0-1.741-.379c-.076.454-.227.908-.3 1.363l-.227-.227a1.192 1.192 0 0 1-.227-1.052zm-1.893 10.523a1.426 1.426 0 0 1-.227-1.136c.151-.757.3-1.514.454-2.347a2.974 2.974 0 0 1 1.136-1.59c0 .076 0 .151-.076.151a.826.826 0 0 0 .681 1.06h.227a1.061 1.061 0 0 0 .909-.681 2.691 2.691 0 0 0 .151-.757c.076.076.151.076.151.151a1.54 1.54 0 0 1 .227 1.211 80.72 80.72 0 0 0-.454 2.423 2.189 2.189 0 0 1-1.06 1.514c0-.151.076-.379.076-.53a.891.891 0 0 0-1.741-.379 5.114 5.114 0 0 0-.151 1.06c-.076.086-.227-.066-.303-.141zm-.984 5.6a1.792 1.792 0 0 1 .833-1.438v.984a.913.913 0 0 0 .606.833l-1.363.681a5.365 5.365 0 0 0-.079-1.049zm-27.86 31.267c2.044-3.558 4.921-8.479 7.192-12.567 2.044-3.558 3.1-5.451 3.634-6.511l20.138 10.372v33.538L537.344 390.6a97.547 97.547 0 0 0 2.5-4.24zm-1.59 6.889l32.554 20.062v4.542l-30.283-19.533zm64.805 5.072L572.624 418v-4.467l32.706-20.29z" transform="translate(-263.71 -119.028)"/>
            <path id="path1960" d="M290.386 334.6a.839.839 0 0 0-.984.833c-.151 1.363-.379 2.725-.606 4.012a.889.889 0 0 0 .757 1.06h.151a.9.9 0 0 0 .909-.757c.227-1.363.454-2.725.606-4.164a1.048 1.048 0 0 0-.833-.984z" transform="translate(-203.825 -121.276)"/>
            <path id="path1962" d="M288.124 345.9a.889.889 0 0 0-1.06.757l-.151.909a77.678 77.678 0 0 0-1.514 13.93.875.875 0 0 0 .908.909.921.921 0 0 0 .909-.909 75.039 75.039 0 0 1 1.514-13.552l.151-.909a1 1 0 0 0-.757-1.136z" transform="translate(-203.001 -124.036)"/>
            <path id="path1964" d="M287.765 377.056a.455.455 0 0 0 .3-.076.842.842 0 0 0 .53-1.136 19.941 19.941 0 0 1-.984-4.391.921.921 0 0 0-1.817.3 22.46 22.46 0 0 0 1.136 4.694.886.886 0 0 0 .835.609z" transform="translate(-203.096 -130.072)"/>
            <path id="path1966" d="M277.708 330.614a.985.985 0 0 0 .984-.833 38.129 38.129 0 0 0-.076-5.148.912.912 0 0 0-1.817.151 33.525 33.525 0 0 1 .076 4.845.839.839 0 0 0 .833.984z" transform="translate(-200.913 -118.648)"/>
            <path id="path1968" d="M275.8 337.833a71.307 71.307 0 0 1-.909 5.6.935.935 0 0 0 .681 1.06h.151a.9.9 0 0 0 .909-.757c.379-1.893.681-3.861.909-5.754a.829.829 0 0 0-.757-.984.975.975 0 0 0-.984.833z" transform="translate(-200.448 -121.865)"/>
            <path id="path1970" d="M273.778 350.753a35.435 35.435 0 0 0-.681 4.24.839.839 0 0 0 .833.984h.076a.968.968 0 0 0 .909-.833 32.874 32.874 0 0 1 .681-4.088.921.921 0 1 0-1.817-.3z" transform="translate(-200.012 -125.028)"/>
            <path id="path1972" d="M264.529 315.893a.91.91 0 1 0-1.741.53 27.582 27.582 0 0 1 1.287 7.419.909.909 0 0 0 .908.833h.076a.839.839 0 0 0 .833-.984 31.046 31.046 0 0 0-1.363-7.8z" transform="translate(-197.5 -116.565)"/>
            <path id="path1974" d="M265.162 332.5a.874.874 0 0 0-.984.833q-.227 2.725-.681 5.224a.889.889 0 0 0 .757 1.06h.151a.9.9 0 0 0 .909-.757c.3-1.666.53-3.558.681-5.375a.914.914 0 0 0-.833-.985z" transform="translate(-197.679 -120.765)"/>
            <path id="path1976" d="M195.238 341.359c.3-1.893.606-3.785.833-5.678a.878.878 0 1 0-1.741-.227c-.227 1.893-.53 3.785-.833 5.678a.889.889 0 0 0 .757 1.06h.151a1.049 1.049 0 0 0 .833-.833z" transform="translate(-180.674 -121.301)"/>
            <path id="path1978" d="M193.238 347.9a.889.889 0 0 0-1.06.757c-.151.681-.227 1.438-.379 2.12-.076.681-.227 1.363-.3 2.044a.889.889 0 0 0 .757 1.06h.151a.9.9 0 0 0 .908-.757c.076-.681.227-1.363.3-2.044.151-.681.227-1.438.379-2.12a.927.927 0 0 0-.756-1.06z" transform="translate(-180.188 -124.516)"/>
            <path id="path1980" d="M193.088 374.287a.943.943 0 0 0 .606-1.136 31.73 31.73 0 0 1-1.136-12.87.912.912 0 0 0-1.817-.151 32.6 32.6 0 0 0 1.287 13.627.886.886 0 0 0 .833.606.278.278 0 0 1 .227-.076z" transform="translate(-179.963 -127.301)"/>
            <path id="path1982" d="M209.114 334.874a47.556 47.556 0 0 0 .454-10.145.912.912 0 0 0-1.817.151 44.828 44.828 0 0 1-.454 9.842.943.943 0 0 0 .757 1.06h.151a1.231 1.231 0 0 0 .909-.909z" transform="translate(-184.027 -118.672)"/>
            <path id="path1984" d="M206.226 343.354l-.226 1.363c-.076.454-.227.984-.3 1.514a.889.889 0 0 0 .757 1.06h.151a.9.9 0 0 0 .908-.757l.227-1.363c.076-.454.227-.984.3-1.514a.889.889 0 0 0-.757-1.06.99.99 0 0 0-1.06.757z" transform="translate(-183.638 -123.225)"/>
            <path id="path1986" d="M204.2 355.282a.889.889 0 0 0 .757 1.06h.151a.9.9 0 0 0 .908-.757c.076-.53.151-.984.227-1.514s.151-.984.227-1.514a.921.921 0 1 0-1.817-.3c-.076.53-.151.984-.227 1.514s-.154 1.056-.226 1.511z" transform="translate(-183.273 -125.393)"/>
            <path id="path1988" d="M219.193 315.285a.943.943 0 0 0-.606 1.136 28.259 28.259 0 0 1 1.211 5.905.909.909 0 0 0 .908.833h.076a.839.839 0 0 0 .833-.984 33.056 33.056 0 0 0-1.211-6.359 1.023 1.023 0 0 0-1.211-.531z" transform="translate(-186.762 -116.562)"/>
            <path id="path1990" d="M220.029 330.008a48.919 48.919 0 0 1-.833 7.722.889.889 0 0 0 .757 1.06h.151a.9.9 0 0 0 .908-.757 52.565 52.565 0 0 0 .833-8.025.875.875 0 0 0-.908-.908.921.921 0 0 0-.908.908z" transform="translate(-186.917 -119.941)"/>
            <path id="path1992" d="M209.231 221.1a.935.935 0 0 0-1.06.681c-.3 1.363-.606 2.725-.984 4.012a.943.943 0 0 0 .606 1.136h.227a.951.951 0 0 0 .908-.681c.379-1.363.681-2.8.984-4.164a.948.948 0 0 0-.681-.984z" transform="translate(-183.993 -93.618)"/>
            <path id="path1994" d="M205.508 233.153c-.984 4.467-1.666 9.842.681 15.141a.819.819 0 0 0 .833.53.682.682 0 0 0 .379-.076.912.912 0 0 0 .454-1.211c-2.12-4.845-1.438-9.842-.53-14.082a.921.921 0 1 0-1.817-.3z" transform="translate(-183.374 -96.376)"/>
            <path id="path1996" d="M197.046 217.135h.151a.9.9 0 0 0 .909-.757 25.466 25.466 0 0 0 .3-5.148.912.912 0 1 0-1.817.151 22.954 22.954 0 0 1-.3 4.845c-.151.379.227.833.757.908z" transform="translate(-181.347 -91.012)"/>
            <path id="path1998" d="M194.526 224.078c-.227.908-.454 1.893-.681 2.8-.227.984-.53 1.893-.757 2.877a.826.826 0 0 0 .681 1.06H194a1.061 1.061 0 0 0 .908-.681c.227-.908.454-1.893.681-2.8.227-.984.53-1.893.757-2.877a.826.826 0 0 0-.681-1.06.976.976 0 0 0-1.139.681z" transform="translate(-180.568 -94.179)"/>
            <path id="path2000" d="M191.8 237.254a24.6 24.6 0 0 0-.3 4.315.908.908 0 1 0 1.817 0 21.121 21.121 0 0 1 .3-4.012.889.889 0 0 0-.757-1.06 1.044 1.044 0 0 0-1.06.757z" transform="translate(-180.192 -97.371)"/>
            <path id="path2002" d="M182.926 201.682a.912.912 0 0 0-.454 1.211 17.308 17.308 0 0 1 1.438 7.268.908.908 0 1 0 1.817 0 19.722 19.722 0 0 0-1.59-8.025.924.924 0 0 0-1.211-.454z" transform="translate(-177.977 -88.877)"/>
            <path id="path2004" d="M184.259 219a.927.927 0 0 0-1.06.757 48.212 48.212 0 0 1-1.211 5.224.927.927 0 0 0 .681 1.136h.227a1.061 1.061 0 0 0 .908-.681c.454-1.666.908-3.558 1.211-5.375a.969.969 0 0 0-.756-1.061z" transform="translate(-177.872 -93.107)"/>
            <path id="path2006" d="M615.13 229.7a.839.839 0 0 0-.833.984c.076 1.363.076 2.725.076 4.012a.909.909 0 0 0 1.817 0c0-1.363 0-2.725-.076-4.164a1.048 1.048 0 0 0-.984-.833z" transform="translate(-282.898 -95.717)"/>
            <path id="path2008" d="M612.4 256.42a.829.829 0 0 0 .757.984h.151a.9.9 0 0 0 .909-.833c.53-4.088 1.136-9.388 1.363-14.687a.912.912 0 1 0-1.817-.151c-.227 5.375-.833 10.675-1.363 14.687z" transform="translate(-282.437 -98.451)"/>
            <path id="path2010" d="M611.5 266.554c-.151.757-.227 1.514-.3 2.271s-.151 1.514-.3 2.271a.943.943 0 0 0 .757 1.06h.151a.9.9 0 0 0 .909-.757c.151-.757.227-1.514.3-2.271s.151-1.514.3-2.271a.943.943 0 0 0-.757-1.06.991.991 0 0 0-1.06.757z" transform="translate(-282.072 -104.511)"/>
            <path id="path2012" d="M626.953 218.9a.889.889 0 0 0-.757 1.06c.3 1.59.454 3.255.606 4.921a.968.968 0 0 0 .908.833h.076a.975.975 0 0 0 .833-.984c-.151-1.666-.3-3.331-.606-5.072a.943.943 0 0 0-1.06-.758z" transform="translate(-285.788 -93.083)"/>
            <path id="path2014" d="M628.284 232.1a.875.875 0 0 0-.909.908c0 1.817 0 3.785-.076 5.678a.875.875 0 0 0 .909.908.921.921 0 0 0 .909-.908c.076-1.893.076-3.861.076-5.678a.921.921 0 0 0-.909-.908z" transform="translate(-286.059 -96.303)"/>
            <path id="path2016" d="M628.414 250.345c.076-.681.151-1.363.227-2.12.076-.681.076-1.363.151-2.044a.839.839 0 0 0-.833-.984.874.874 0 0 0-.984.833c-.076.681-.151 1.363-.227 2.12-.076.681-.076 1.363-.151 2.044a.839.839 0 0 0 .833.984h.076c.454-.078.908-.378.908-.833z" transform="translate(-285.886 -99.491)"/>
            <path id="path2018" d="M639.27 219.76a.889.889 0 0 0 .757-1.06 69.875 69.875 0 0 0-1.514-7.722.936.936 0 0 0-1.817.454A70.228 70.228 0 0 1 638.21 219a.9.9 0 0 0 .908.757h.151z" transform="translate(-288.339 -90.988)"/>
            <path id="path2020" d="M640.43 227.7a.839.839 0 0 0-.833.984c.076 1.817.151 3.558.151 5.224a.908.908 0 1 0 1.817 0c0-1.741-.076-3.483-.151-5.375a.985.985 0 0 0-.984-.833z" transform="translate(-289.044 -95.23)"/>
            <path id="path2022" d="M508.633 294.892a.985.985 0 0 0 .984-.833l.454-5.678a.874.874 0 0 0-.833-.984.914.914 0 0 0-.984.833l-.454 5.678a.931.931 0 0 0 .833.984z" transform="translate(-257.03 -109.775)"/>
            <path id="path2024" d="M507.4 305.872a.908.908 0 1 0 1.817 0c0-1.363 0-2.8.076-4.088a.912.912 0 1 0-1.817-.151c-.076 1.438-.076 2.877-.076 4.24z" transform="translate(-256.932 -113.043)"/>
            <path id="path2026" d="M509.414 312.83a.912.912 0 1 0-1.817.151 76.67 76.67 0 0 0 2.044 13.4.909.909 0 0 0 .909.681h.227a1.022 1.022 0 0 0 .681-1.136 72.027 72.027 0 0 1-2.044-13.096z" transform="translate(-256.978 -115.774)"/>
            <path id="path2028" d="M523.492 276.6a.99.99 0 0 0-1.06.757 228.122 228.122 0 0 0-1.136 10.069.875.875 0 0 0 .833.984h.076a.968.968 0 0 0 .909-.833c.3-3.331.681-6.662 1.136-9.918a.943.943 0 0 0-.757-1.06z" transform="translate(-260.306 -107.146)"/>
            <path id="path2030" d="M521.733 295.4a.874.874 0 0 0-.984.833 10.141 10.141 0 0 0-.076 1.514 8.231 8.231 0 0 1-.076 1.363.875.875 0 0 0 .833.984h.076a.968.968 0 0 0 .909-.833 9.656 9.656 0 0 0 .076-1.438 9.648 9.648 0 0 1 .076-1.438.914.914 0 0 0-.834-.985z" transform="translate(-260.136 -111.723)"/>
            <path id="path2032" d="M521.409 304.3a.875.875 0 0 0-.909.909v3.028a.909.909 0 0 0 1.817 0v-3.028a.921.921 0 0 0-.908-.909z" transform="translate(-260.115 -113.895)"/>
            <path id="path2034" d="M536.99 268.1a.943.943 0 0 0-1.06.757c-.151 1.06-.3 2.044-.454 3.1-.151.984-.227 2.044-.379 3.028a.943.943 0 0 0 .757 1.06h.151a.9.9 0 0 0 .909-.757c.151-1.06.3-2.044.454-3.1.151-.984.227-2.044.379-3.028a.889.889 0 0 0-.757-1.06z" transform="translate(-263.658 -105.072)"/>
            <path id="path2036" d="M534.13 282.846c-.378 2.574-.606 5-.833 7.949a.874.874 0 0 0 .833.984h.076a.968.968 0 0 0 .909-.833c.227-2.877.454-5.3.833-7.8a.943.943 0 0 0-.757-1.06.844.844 0 0 0-1.06.757z" transform="translate(-263.221 -108.477)"/>
            <path id="path2038" d="M334.74 342.3a.889.889 0 0 0-1.06.757c-.151.909-.3 1.893-.454 2.8-.151.984-.379 1.893-.53 2.877a.889.889 0 0 0 .757 1.06h.151a.9.9 0 0 0 .909-.757c.151-.909.3-1.893.454-2.8.151-.984.379-1.893.53-2.877a.927.927 0 0 0-.757-1.06z" transform="translate(-214.489 -123.153)"/>
            <path id="path2040" d="M333.718 356.681a.912.912 0 1 0-1.817-.151 34.361 34.361 0 0 0 .454 12.037.909.909 0 0 0 .909.681h.227a1.022 1.022 0 0 0 .681-1.136 31.038 31.038 0 0 1-.454-11.431z" transform="translate(-214.224 -126.423)"/>
            <path id="path2042" d="M349.043 331.6a.985.985 0 0 0-.984.833 71.574 71.574 0 0 1-1.363 9.842.889.889 0 0 0 .757 1.06h.151a.9.9 0 0 0 .909-.757 75.963 75.963 0 0 0 1.363-10.145c.076-.379-.379-.757-.833-.833z" transform="translate(-217.89 -120.552)"/>
            <path id="path2044" d="M346 354.99a.9.9 0 0 0 .909-.757c.076-.454.151-.984.227-1.438s.151-.984.227-1.438a.921.921 0 0 0-1.817-.3c-.076.53-.151.984-.227 1.438s-.151.908-.227 1.438a.889.889 0 0 0 .757 1.06H346z" transform="translate(-217.502 -125.1)"/>
            <path id="path2046" d="M371.854 338.61h.151a.9.9 0 0 0 .909-.757 46.259 46.259 0 0 0 .833-10.22.881.881 0 0 0-.984-.833.839.839 0 0 0-.833.984 42.456 42.456 0 0 1-.833 9.766.943.943 0 0 0 .757 1.06z" transform="translate(-223.818 -119.382)"/>
            <path id="path2048" d="M372.429 318.093a.91.91 0 0 0-1.741.53c.3 1.06.53 1.968.757 2.8a.838.838 0 0 0 .909.681h.227a.935.935 0 0 0 .681-1.06c-.3-.908-.53-1.893-.833-2.953z" transform="translate(-223.712 -117.099)"/>
            <path id="path2050" d="M346.494 360.182a.985.985 0 0 0-.833-.984.925.925 0 0 0-.984.833 28.114 28.114 0 0 0 1.211 10.9.886.886 0 0 0 .833.606.572.572 0 0 0 .3-.076.943.943 0 0 0 .606-1.136 26.967 26.967 0 0 1-1.133-10.143z" transform="translate(-217.386 -127.275)"/>
            <path id="path2052" d="M361.632 330.946a.875.875 0 0 0 .909-.909 35.911 35.911 0 0 0-.227-6.284.921.921 0 0 0-1.817.3 32.568 32.568 0 0 1 .227 5.981.921.921 0 0 0 .908.912z" transform="translate(-221.243 -118.45)"/>
            <path id="path2054" d="M360.5 337a.829.829 0 0 0-.984.757c-.3 2.12-.681 4.315-1.06 6.435-.53 2.953-1.06 5.905-1.363 8.933a.875.875 0 0 0 .833.984h.076a.968.968 0 0 0 .909-.833 84.76 84.76 0 0 1 1.363-8.782c.379-2.12.833-4.315 1.06-6.511a1.048 1.048 0 0 0-.834-.983z" transform="translate(-220.417 -121.868)"/>
            <path id="path2056" d="M471.611 223.8a.874.874 0 0 0-.984.833c-.151 1.817-.3 3.785-.53 5.678a.829.829 0 0 0 .757.984h.076a.9.9 0 0 0 .909-.833c.227-1.893.379-3.861.53-5.678a.809.809 0 0 0-.757-.984z" transform="translate(-247.868 -94.277)"/>
            <path id="path2058" d="M470.335 237.2a.874.874 0 0 0-.984.833l-.454 4.164a.839.839 0 0 0 .833.984h.076a.968.968 0 0 0 .909-.833l.454-4.164a1.048 1.048 0 0 0-.833-.984z" transform="translate(-247.577 -97.542)"/>
            <path id="path2060" d="M470.08 249.482a.985.985 0 0 0-.833-.984.925.925 0 0 0-.984.833 53.222 53.222 0 0 0 .757 13.476.9.9 0 0 0 .909.757h.151a.875.875 0 0 0 .681-1.06 57.509 57.509 0 0 1-.681-13.022z" transform="translate(-247.397 -100.3)"/>
            <path id="path2062" d="M484.833 213.1a.839.839 0 0 0-.833.984 74.5 74.5 0 0 1-.3 9.842.874.874 0 0 0 .833.984h.076a.968.968 0 0 0 .909-.833 67.58 67.58 0 0 0 .3-10.145 1.048 1.048 0 0 0-.985-.832z" transform="translate(-251.172 -91.674)"/>
            <path id="path2064" d="M483.884 231.8a.925.925 0 0 0-.984.833 8.338 8.338 0 0 1-.151 1.363 9.323 9.323 0 0 0-.151 1.514.875.875 0 0 0 .833.984h.076a.968.968 0 0 0 .909-.833 8.338 8.338 0 0 1 .151-1.363 9.319 9.319 0 0 0 .151-1.514.914.914 0 0 0-.833-.984z" transform="translate(-250.905 -96.229)"/>
            <path id="path2066" d="M482.96 240.8a.889.889 0 0 0-1.06.757c-.151.984-.227 1.968-.3 2.953v.151a.874.874 0 0 0 .833.984h.076a.968.968 0 0 0 .909-.833v-.151c.076-.908.151-1.893.3-2.8a.889.889 0 0 0-.757-1.06z" transform="translate(-250.662 -98.418)"/>
            <path id="path2068" d="M496.855 212.438a.934.934 0 0 0 .909-.984 42.377 42.377 0 0 0-.833-6.284.891.891 0 0 0-1.741.379 49.555 49.555 0 0 1 .833 5.981.859.859 0 0 0 .833.908z" transform="translate(-253.958 -89.566)"/>
            <path id="path2070" d="M497.135 218.4a.875.875 0 0 0-.908.908 77.417 77.417 0 0 1-.53 7.8.839.839 0 0 0 .833.984h.076a.968.968 0 0 0 .908-.833c.3-2.423.454-5 .53-7.949a1.044 1.044 0 0 0-.909-.91z" transform="translate(-254.087 -92.965)"/>
            <path id="path2072" d="M303.23 185.692a.9.9 0 0 0 .909-.833c.076-.908.227-1.893.379-2.8.151-.984.3-1.893.379-2.877a.878.878 0 1 0-1.741-.227c-.076.908-.227 1.893-.379 2.8-.151.984-.3 1.893-.379 2.877a.829.829 0 0 0 .757.984.074.074 0 0 0 .076.076z" transform="translate(-207.129 -83.165)"/>
            <path id="path2074" d="M301.762 192.384a42.862 42.862 0 0 0 1.59 15.823.886.886 0 0 0 .833.606.572.572 0 0 0 .3-.076.943.943 0 0 0 .606-1.136 41.511 41.511 0 0 1-1.438-15.217.985.985 0 0 0-.833-.984 1.134 1.134 0 0 0-1.058.984z" transform="translate(-206.949 -86.388)"/>
            <path id="path2076" d="M318.613 172.36l.3-1.741c.681-3.937 1.363-8.025 1.666-12.037a.912.912 0 0 0-1.817-.151c-.3 3.937-.984 8.025-1.666 11.886l-.3 1.741a.889.889 0 0 0 .757 1.06h.151a.9.9 0 0 0 .909-.757z" transform="translate(-210.627 -78.147)"/>
            <path id="path2078" d="M317.213 185.133c.076-.53.151-.984.227-1.438s.076-.908.151-1.438a.921.921 0 0 0-1.817-.3c-.076.53-.151.984-.227 1.438s-.076.908-.151 1.438a.889.889 0 0 0 .757 1.06h.151a.9.9 0 0 0 .909-.757z" transform="translate(-210.287 -83.895)"/>
            <path id="path2080" d="M314.851 191.033c-.076.984-.151 2.12-.151 3.1a.908.908 0 0 0 1.817 0c0-.908.076-1.968.151-2.953a.874.874 0 0 0-.833-.984 1.048 1.048 0 0 0-.984.833z" transform="translate(-210.12 -86.092)"/>
            <path id="path2082" d="M330.9 156.042a.829.829 0 0 0 .757.984h.151a.9.9 0 0 0 .909-.757c.757-5.905 1.363-13.779-.984-21.577a.91.91 0 0 0-1.741.53c2.271 7.5 1.666 15.066.909 20.82z" transform="translate(-213.825 -72.412)"/>
            <path id="path2084" d="M329.446 177.511h.151a.9.9 0 0 0 .908-.757c.3-2.271.681-4.467 1.136-6.814l.151-.984a.889.889 0 0 0-.757-1.06.927.927 0 0 0-1.06.757l-.151.984c-.379 2.347-.757 4.542-1.136 6.889a.809.809 0 0 0 .757.984z" transform="translate(-213.511 -80.655)"/>
            <path id="path2086" d="M462.586 401.2a.874.874 0 0 0-.984.833c-.151 1.363-.379 2.725-.606 4.013a.889.889 0 0 0 .757 1.06h.151a.9.9 0 0 0 .909-.757c.227-1.363.454-2.725.606-4.164a1.048 1.048 0 0 0-.833-.985z" transform="translate(-245.657 -137.505)"/>
            <path id="path2088" d="M460.324 412.4a.889.889 0 0 0-1.06.757l-.151.908a77.676 77.676 0 0 0-1.514 13.93.875.875 0 0 0 .909.909.921.921 0 0 0 .908-.909 75.04 75.04 0 0 1 1.514-13.552l.151-.909a1 1 0 0 0-.757-1.136z" transform="translate(-244.833 -140.242)"/>
            <path id="path2090" d="M460.065 443.556a.455.455 0 0 0 .3-.076.842.842 0 0 0 .53-1.136 19.941 19.941 0 0 1-.984-4.391.921.921 0 1 0-1.817.3 22.457 22.457 0 0 0 1.136 4.694.886.886 0 0 0 .835.609z" transform="translate(-244.952 -146.323)"/>
            <path id="path2092" d="M449.908 397.214a.985.985 0 0 0 .984-.833 38.133 38.133 0 0 0-.076-5.148.975.975 0 0 0-.984-.833.925.925 0 0 0-.833.984 33.521 33.521 0 0 1 .076 4.845.839.839 0 0 0 .833.985z" transform="translate(-242.745 -134.877)"/>
            <path id="path2094" d="M448 404.33a66.037 66.037 0 0 1-.909 5.6.935.935 0 0 0 .681 1.06h.151a.9.9 0 0 0 .908-.757c.379-1.893.681-3.861.909-5.754a.829.829 0 0 0-.757-.984.914.914 0 0 0-.983.835z" transform="translate(-242.28 -138.066)"/>
            <path id="path2096" d="M445.978 417.253a35.421 35.421 0 0 0-.681 4.24.839.839 0 0 0 .833.984h.076a.968.968 0 0 0 .908-.833 32.884 32.884 0 0 1 .681-4.088.935.935 0 0 0-.681-1.06.926.926 0 0 0-1.136.757z" transform="translate(-241.844 -141.295)"/>
            <path id="path2098" d="M436.829 382.393a.91.91 0 0 0-1.741.53 27.581 27.581 0 0 1 1.287 7.419.909.909 0 0 0 .908.833h.076a.839.839 0 0 0 .833-.984 31.045 31.045 0 0 0-1.363-7.8z" transform="translate(-239.356 -132.771)"/>
            <path id="path2100" d="M437.362 399.1a.874.874 0 0 0-.984.833q-.227 2.725-.681 5.224a.889.889 0 0 0 .757 1.06h.151a.9.9 0 0 0 .909-.757c.3-1.741.53-3.483.681-5.375a.914.914 0 0 0-.833-.985z" transform="translate(-239.511 -136.994)"/>
            <path id="path2102" d="M366.629 408.616a.9.9 0 0 0 .909-.757c.3-1.893.606-3.785.833-5.678a.878.878 0 1 0-1.741-.227c-.227 1.893-.53 3.785-.833 5.6a.894.894 0 0 0 .833 1.06z" transform="translate(-222.53 -137.506)"/>
            <path id="path2104" d="M364.378 415.254c-.076.681-.227 1.363-.3 2.044-.151.681-.227 1.438-.379 2.12a.889.889 0 0 0 .757 1.06h.151a.9.9 0 0 0 .908-.757c.151-.681.227-1.438.379-2.12.076-.681.227-1.363.3-2.044a.889.889 0 0 0-.757-1.06 1.044 1.044 0 0 0-1.059.757z" transform="translate(-222.02 -140.746)"/>
            <path id="path2106" d="M365.388 440.787a.942.942 0 0 0 .606-1.136 31.73 31.73 0 0 1-1.136-12.87.912.912 0 0 0-1.817-.151 32.6 32.6 0 0 0 1.287 13.627.886.886 0 0 0 .833.606.278.278 0 0 1 .227-.076z" transform="translate(-221.819 -143.554)"/>
            <path id="path2108" d="M380.353 402.132h.151a.9.9 0 0 0 .909-.757 47.554 47.554 0 0 0 .454-10.145.912.912 0 1 0-1.817.151 44.826 44.826 0 0 1-.454 9.842.826.826 0 0 0 .757.909z" transform="translate(-225.883 -134.878)"/>
            <path id="path2110" d="M378.426 409.854l-.227 1.363c-.076.454-.227.984-.3 1.514a.889.889 0 0 0 .757 1.06h.151a.9.9 0 0 0 .909-.757l.227-1.363c.076-.454.227-.984.3-1.514a.889.889 0 0 0-.757-1.06.99.99 0 0 0-1.06.757z" transform="translate(-225.47 -139.429)"/>
            <path id="path2112" d="M376.851 418.754c-.076.53-.151 1.06-.227 1.514-.076.53-.151.984-.227 1.514a.889.889 0 0 0 .757 1.06h.151a.9.9 0 0 0 .909-.757c.076-.454.151-.984.227-1.514s.151-1.06.227-1.514a.889.889 0 0 0-.757-1.06.99.99 0 0 0-1.06.757z" transform="translate(-225.105 -141.66)"/>
            <path id="path2114" d="M391.393 381.885a.942.942 0 0 0-.606 1.136 28.258 28.258 0 0 1 1.213 5.905.909.909 0 0 0 .909.833h.076a.839.839 0 0 0 .833-.984 33.051 33.051 0 0 0-1.211-6.359 1.023 1.023 0 0 0-1.211-.53z" transform="translate(-228.594 -132.791)"/>
            <path id="path2116" d="M392.229 396.608a48.911 48.911 0 0 1-.833 7.722.889.889 0 0 0 .757 1.06h.151a.9.9 0 0 0 .908-.757 52.565 52.565 0 0 0 .833-8.025.875.875 0 0 0-.909-.909.921.921 0 0 0-.907.909z" transform="translate(-228.749 -136.171)"/>
            <path id="path2118" d="M632.086 343.6a.839.839 0 0 0-.984.833c-.151 1.363-.379 2.725-.606 4.012a.889.889 0 0 0 .757 1.06h.151a.9.9 0 0 0 .908-.757c.227-1.363.454-2.725.606-4.164a1.048 1.048 0 0 0-.832-.984z" transform="translate(-286.833 -123.469)"/>
            <path id="path2120" d="M630.581 355.956a.921.921 0 0 0-1.817-.3l-.151.909a77.673 77.673 0 0 0-1.514 13.93.875.875 0 0 0 .909.909.921.921 0 0 0 .909-.909 75.043 75.043 0 0 1 1.514-13.552z" transform="translate(-286.009 -126.229)"/>
            <path id="path2122" d="M628.453 379.7a.889.889 0 0 0-.757 1.06 22.458 22.458 0 0 0 1.136 4.694.886.886 0 0 0 .833.606.455.455 0 0 0 .3-.076.842.842 0 0 0 .53-1.136 19.945 19.945 0 0 1-.984-4.391 1.044 1.044 0 0 0-1.058-.757z" transform="translate(-286.153 -132.266)"/>
            <path id="path2124" d="M619.409 339.614a.985.985 0 0 0 .984-.833 38.144 38.144 0 0 0-.076-5.148.912.912 0 1 0-1.817.151 33.534 33.534 0 0 1 .076 4.845.839.839 0 0 0 .833.984z" transform="translate(-283.922 -120.841)"/>
            <path id="path2126" d="M617.5 346.833a66.037 66.037 0 0 1-.909 5.6.935.935 0 0 0 .681 1.06h.151a.9.9 0 0 0 .909-.757c.379-1.893.681-3.861.909-5.754a.829.829 0 0 0-.757-.984.975.975 0 0 0-.984.833z" transform="translate(-283.456 -124.058)"/>
            <path id="path2128" d="M616.538 359a.935.935 0 0 0-1.06.681 35.435 35.435 0 0 0-.681 4.24.839.839 0 0 0 .833.984h.076a.968.968 0 0 0 .908-.833 32.873 32.873 0 0 1 .681-4.088 1.121 1.121 0 0 0-.757-.984z" transform="translate(-283.02 -127.221)"/>
            <path id="path2130" d="M606.329 324.893a.91.91 0 0 0-1.741.53 27.581 27.581 0 0 1 1.287 7.419.909.909 0 0 0 .908.833h.076a.839.839 0 0 0 .833-.984 31.045 31.045 0 0 0-1.363-7.8z" transform="translate(-280.532 -118.759)"/>
            <path id="path2132" d="M606.862 341.6a.874.874 0 0 0-.984.833q-.227 2.725-.681 5.224a.889.889 0 0 0 .757 1.06h.151a.9.9 0 0 0 .908-.757c.3-1.741.53-3.483.681-5.375a.914.914 0 0 0-.833-.984z" transform="translate(-280.687 -122.982)"/>
            <path id="path2134" d="M536.029 344.46c-.227 1.893-.53 3.785-.833 5.678a.889.889 0 0 0 .757 1.06h.151a.9.9 0 0 0 .908-.757c.3-1.893.606-3.785.833-5.678a.829.829 0 0 0-.757-.984.765.765 0 0 0-1.059.681z" transform="translate(-263.682 -123.5)"/>
            <path id="path2136" d="M533.954 362.877h.151a.9.9 0 0 0 .909-.757c.076-.681.227-1.363.3-2.044.151-.757.227-1.438.378-2.12a.921.921 0 1 0-1.817-.3c-.151.681-.227 1.438-.379 2.2-.076.681-.227 1.363-.3 2.044a.912.912 0 0 0 .758.977z" transform="translate(-263.197 -126.709)"/>
            <path id="path2138" d="M534.888 383.287a.942.942 0 0 0 .606-1.136 31.731 31.731 0 0 1-1.136-12.87.912.912 0 1 0-1.817-.151 32.607 32.607 0 0 0 1.287 13.627.886.886 0 0 0 .833.606.278.278 0 0 1 .227-.076z" transform="translate(-262.995 -129.494)"/>
            <path id="path2140" d="M549.853 344.632H550a.9.9 0 0 0 .909-.757 47.55 47.55 0 0 0 .454-10.145.912.912 0 1 0-1.817.151 44.836 44.836 0 0 1-.454 9.842.826.826 0 0 0 .761.909z" transform="translate(-267.059 -120.865)"/>
            <path id="path2142" d="M547.926 352.354l-.227 1.363c-.076.454-.227.984-.3 1.514a.889.889 0 0 0 .757 1.06h.151a.9.9 0 0 0 .908-.757l.227-1.363c.076-.454.227-.984.3-1.514a.889.889 0 0 0-.757-1.06.991.991 0 0 0-1.059.757z" transform="translate(-266.646 -125.418)"/>
            <path id="path2144" d="M546.351 361.254l-.227 1.438-.227 1.59a.889.889 0 0 0 .757 1.06h.151a.9.9 0 0 0 .909-.757l.227-1.59.227-1.438a.889.889 0 0 0-.757-1.06.991.991 0 0 0-1.06.757z" transform="translate(-266.281 -127.586)"/>
            <path id="path2146" d="M560.893 324.285a.942.942 0 0 0-.606 1.136 28.252 28.252 0 0 1 1.211 5.905.909.909 0 0 0 .909.833h.076a.839.839 0 0 0 .833-.984 33.06 33.06 0 0 0-1.211-6.359 1.023 1.023 0 0 0-1.212-.531z" transform="translate(-269.771 -118.755)"/>
            <path id="path2148" d="M561.729 339.108a48.911 48.911 0 0 1-.833 7.722.889.889 0 0 0 .757 1.06h.151a.9.9 0 0 0 .909-.757 53.54 53.54 0 0 0 .833-8.025.875.875 0 0 0-.909-.908.921.921 0 0 0-.908.908z" transform="translate(-269.925 -122.159)"/>
            <path id="path2150" d="M246.382 265.416a1.076 1.076 0 0 0 .454-.151 4.1 4.1 0 0 0 1.664-1.965.935.935 0 0 0-1.741-.681 2.156 2.156 0 0 1-.909 1.06.818.818 0 0 0-.3 1.211.961.961 0 0 0 .832.526z" transform="translate(-193.284 -103.596)"/>
            <path id="path2152" d="M405.936 347.505a6.717 6.717 0 0 0-.151 1.136 4 4 0 0 0 2.65 4.391c.076 0 .227.076.3.076a.821.821 0 0 0 .833-.606.881.881 0 0 0-.606-1.136 2.337 2.337 0 0 1-1.438-2.423 5.846 5.846 0 0 1 .151-1.136 6.623 6.623 0 0 0 .151-1.211 1.23 1.23 0 0 1 .681-1.06.915.915 0 0 0-.757-1.666 2.955 2.955 0 0 0-1.741 2.574 2.6 2.6 0 0 1-.076 1.06z" transform="translate(-232.235 -123.519)"/>
            <path id="path2154" d="M412.4 349.671a.915.915 0 0 0-.757 1.666 2.445 2.445 0 0 1 1.211 2.725c-.151.681-.379 1.438-.606 2.2a1.2 1.2 0 0 1-1.136.984.908.908 0 0 0 0 1.817 2.97 2.97 0 0 0 2.877-2.347c.227-.757.454-1.59.606-2.271a4.177 4.177 0 0 0-2.2-4.77z" transform="translate(-233.32 -124.932)"/>
            <path id="path2156" d="M409.586 331.329a.91.91 0 1 0-.53-1.741 2.931 2.931 0 0 0-1.968 3.255c.076.379.076.833.151 1.211s.076.757.151 1.211a4.259 4.259 0 0 0 3.861 3.634h.076a.909.909 0 0 0 .908-.833.985.985 0 0 0-.833-.984 2.57 2.57 0 0 1-2.2-2.044c-.076-.379-.076-.833-.151-1.211s-.076-.757-.151-1.136a1.068 1.068 0 0 1 .686-1.362z" transform="translate(-232.555 -120.05)"/>
            <path id="path2158" d="M415.252 341.751a.818.818 0 0 0-.3 1.211.833.833 0 0 0 .757.454 1.076 1.076 0 0 0 .454-.151 4.1 4.1 0 0 0 1.666-1.968.935.935 0 1 0-1.741-.681 1.828 1.828 0 0 1-.836 1.135z" transform="translate(-234.435 -122.603)"/>
            <path id="path2160" d="M233.687 290.174a.927.927 0 0 0 .681 1.136h.227a1.061 1.061 0 0 0 .908-.681 2.264 2.264 0 0 1 2.5-1.514.912.912 0 1 0 .151-1.817 4.085 4.085 0 0 0-4.467 2.876z" transform="translate(-190.431 -109.749)"/>
            <path id="path2162" d="M405.911 367.133a.932.932 0 0 0 .757.379 1.4 1.4 0 0 0 .53-.151.966.966 0 0 0 .3-1.287 2.282 2.282 0 0 1 .454-2.877.91.91 0 1 0-1.287-1.287 4.2 4.2 0 0 0-.757 5.224z" transform="translate(-232.135 -127.864)"/>
            <path id="path2164" d="M416.963 324.235a.966.966 0 0 0-.3 1.287.833.833 0 0 0 .757.454 1.076 1.076 0 0 0 .454-.151 5.091 5.091 0 0 0 2.574-3.331 3.152 3.152 0 0 0-.681-2.5.912.912 0 1 0-1.363 1.211 1.506 1.506 0 0 1 .3 1.06 3.65 3.65 0 0 1-1.741 1.968z" transform="translate(-234.859 -117.641)"/>
            <path id="path2166" d="M585.884 310.825a.839.839 0 0 0-.984-.833 2.408 2.408 0 0 1-2.271-1.741 21.266 21.266 0 0 0-.606-2.347 1.279 1.279 0 0 1 .3-1.287.912.912 0 0 0-1.363-1.211 3.188 3.188 0 0 0-.606 2.953 19.9 19.9 0 0 1 .606 2.271 4.186 4.186 0 0 0 3.937 3.18h.151a.914.914 0 0 0 .833-.984z" transform="translate(-274.624 -113.608)"/>
            <path id="path2168" d="M588.971 314.743a.943.943 0 0 0-.606 1.136.886.886 0 0 0 .833.606.455.455 0 0 0 .3-.076 3.042 3.042 0 0 0 1.968-3.255c-.076-.379-.076-.833-.151-1.211s-.076-.757-.151-1.136a4.5 4.5 0 0 0-3.785-3.71.912.912 0 1 0-.151 1.817 2.412 2.412 0 0 1 2.12 2.044c.076.379.076.833.151 1.211s.076.757.151 1.136a1.119 1.119 0 0 1-.679 1.438z" transform="translate(-276.121 -114.577)"/>
            <path id="path2170" d="M578.445 289.891a.945.945 0 0 0-1.287-.151 2.9 2.9 0 0 0-.681 3.71l1.136 2.044a4.455 4.455 0 0 0 3.785 2.2 5.115 5.115 0 0 0 1.06-.151.91.91 0 0 0-.53-1.741 2.446 2.446 0 0 1-2.725-1.136l-1.136-2.044a1.061 1.061 0 0 1 .227-1.438.953.953 0 0 0 .151-1.293z" transform="translate(-273.62 -110.303)"/>
            <path id="path2172" d="M588.593 296.5a.875.875 0 0 0-.909.909 2.149 2.149 0 0 1-.454 1.287.942.942 0 0 0 .076 1.287.86.86 0 0 0 .606.227.822.822 0 0 0 .681-.3 3.967 3.967 0 0 0 .909-2.5.921.921 0 0 0-.909-.908z" transform="translate(-276.272 -111.994)"/>
            <path id="path2174" d="M582.526 320.806a3.2 3.2 0 0 0-1.439 1.741.943.943 0 0 0 .606 1.136c.076 0 .151.076.3.076a.82.82 0 0 0 .833-.606c.151-.379.53-1.136 1.817-.681a.91.91 0 0 0 .53-1.741 3.525 3.525 0 0 0-2.65.076z" transform="translate(-274.823 -117.844)"/>
            <path id="path2176" d="M582.856 286.3a.927.927 0 0 0-1.06.757.889.889 0 0 0 .757 1.06 2.249 2.249 0 0 1 1.893 2.725.874.874 0 0 0 .833.984h.076a.968.968 0 0 0 .908-.833 4.131 4.131 0 0 0-3.407-4.694z" transform="translate(-275.003 -109.506)"/>
        </g>
    </g>
</svg>
