<?xml version="1.0" encoding="utf-8"?>
<!-- Generator: Adobe Illustrator 21.0.0, SVG Export Plug-In . SVG Version: 6.00 Build 0)  -->
<svg version="1.1" id="Layer_1" xmlns="http://www.w3.org/2000/svg" xmlns:xlink="http://www.w3.org/1999/xlink" x="0px" y="0px"
	viewBox="0 0 500 150" style="enable-background:new 0 0 500 150;" xml:space="preserve">
<g>
	<g>
		<g>
			<path d="M95.6,75.2c5.6,4.1,9.8,4.4,10.7,4.1c-0.1-1.2-4.2-5.7-12.1-8.6l0.8-2.2c4.5,1.6,8.6,4.2,11.1,6.6l2-2
				c-1-1-3-2.9-5.4-4.4c-3.8-2.4-7.6-3.3-10.1-3.3c-0.6,0-1.1,0.1-1.6,0.2s-1.1,0.4-1.4,0.8c0,0,0,0.1-0.1,0.1c0,0.1,0,0.1-0.1,0.2
				C89.1,68.3,90.9,71.8,95.6,75.2z"/>
		</g>
		<g>
			<path d="M79,92c-0.6,0.5-1.7,1-3,1.1c0.6,1.9,6.7,7,9.4,6.9c0.5-0.1,1.6-1.2,2.3-2.1C84.9,97,81,94,79,92z"/>
		</g>
		<g>
			<path d="M81,66.2c-0.6-0.6-1.3-1.2-2-1.8c-1,1.6-2.4,5.2,1.2,10.5c0.7,1.1,1.6,2,2.5,2.8c1.1-2.5,2.1-4.9,2.8-6.8
				C84.6,69.3,82.9,67.8,81,66.2z"/>
		</g>
		<g>
			<path d="M87.9,95.4c5.5-6.2,11.8-11.2,15.5-14c-2.5-0.6-5.8-2-9.1-4.4c-2.9-2.1-5-4.3-6.1-6.5c-1.7,4.5-4.7,11.9-8.5,18.3
				C80.1,90.5,85.3,94.4,87.9,95.4z"/>
		</g>
		<g>
			<path d="M79.1,53.2c-0.6-0.5-1.2-1-1.7-1.4c-0.6,0.6-1.3,1.7-1.4,3.2c-0.1,2,0.9,4.2,3.2,6.4c1.1,1.1,2.2,2.1,3.3,3.1
				c1.5,1.3,2.8,2.5,4,3.8c0.4-1,0.6-1.8,0.8-2.2c0.1-0.3,0.2-0.6,0.4-0.8c0.4-0.7,1.2-1.3,2.1-1.7C87.5,60.1,82.3,55.8,79.1,53.2z"
				/>
		</g>
		<g>
			<path d="M96.2,59.4c0-3.3-5.3-8.3-13.3-15.8c-1.5-1.4-3.2-3-4.9-4.6c-1,1-1.7,2.3-1.9,3.9c-0.3,2.4,0.6,4.9,2.2,6.5
				c0.5,0.4,1.4,1.2,2.4,2c3.7,3.1,9.3,7.8,11.6,11.7l-0.2,0.1c0.6,0,1.2,0,1.8,0.1c0.3-0.3,0.6-0.6,0.9-1
				C95.8,61.3,96.2,60.4,96.2,59.4z"/>
		</g>
		<g>
			<path d="M67.5,88.6c-2.2-3-5.7-2.8-10.4-2.5c-0.9,0.1-1.8,0.1-2.8,0.2c0.4,1.9,2,5.7,8.7,6.9c3.7,0.7,6.6-0.2,8.5-1
				C69.9,91.4,68.6,90.2,67.5,88.6z"/>
		</g>
		<g>
			<path d="M63.3,70c-2.5-2.4-10-2.2-21.4-1.8c-2.2,0.1-4.5,0.2-7,0.2c-0.1,1.5,0.4,3,1.5,4.3c1.6,2,4.1,3.2,6.4,3.1
				c0.7,0,1.9-0.1,3.2-0.3c7.3-0.7,14.6-1.2,18.4,0.5c0-1-0.1-2-0.1-3.1C64.3,71.6,64,70.7,63.3,70z"/>
		</g>
		<g>
			<path d="M105.1,59.1c0-5.3-5.9-11-11-16.1l-0.2-0.2c-9.6-9.4-13.4-15.2-14.7-17.7c-1.6,1.4-2.5,3.3-2.7,5.3
				c-0.2,2.3,0.6,4.6,2.4,6.2c2,1.9,3.8,3.6,5.6,5.3c9,8.5,14,13.2,14.1,17.5c0,1.5-0.6,2.9-1.8,4.2c1.6,0.4,3.4,1.1,5,1.9l0.7-0.7
				C104.3,63,105.1,61.1,105.1,59.1z"/>
		</g>
		<g>
			<path d="M64.3,78.7c-2.6-2.3-13.1-1.3-18.1-0.8c-0.9,0.1-1.7,0.2-2.3,0.2c0.1,0.9,0.3,2.3,1.3,3.4c1.4,1.6,3.7,2.4,7.1,2.4
				c1.6,0,3.2-0.1,4.7-0.2c3.1-0.2,6.1-0.4,8.7,0.5c-0.4-1.4-0.7-3-1-4.8C64.7,79.2,64.6,79,64.3,78.7z"/>
		</g>
		<g>
			<path d="M79.5,89.2C79.5,89.2,79.5,89.3,79.5,89.2L79.5,89.2C79.5,89.3,79.5,89.2,79.5,89.2z"/>
		</g>
		<g>
			<path d="M54.5,113.7c-0.2,0.1-0.3,0.3-0.3,0.6c0,0.8,0,5.2,5.1,9.2c4.6,3.6,9,3.4,10.5,3.3H70c0.5,0,0.9-0.3,1-0.8
				c1.5-4.4,5.6-15.2,11.7-24.3c-3-1.2-6.5-4.1-8.1-6.4C65.8,104.2,57.1,111.5,54.5,113.7z"/>
		</g>
		<g>
			<path d="M74.5,90.7L74.5,90.7L74.5,90.7c0.4,0,0.7,0.1,0.9,0.1c0.4,0,0.8,0,1.1-0.1c-4.7-3.5-4.7-7.7-4.7-19.4v-1.9
				c0-2.7-0.7-4.7-2.2-6.2c-3.8-3.7-11.9-3.7-19.1-3.7h-1.2c-12.6,0-20-0.6-23.8-2c-0.1,2.2,0.6,4.2,2,5.8c1.6,1.9,3.8,2.9,6.3,2.8
				c2.8-0.1,5.5-0.2,7.9-0.3c4.1-0.1,7.6-0.3,10.5-0.3c6.4,0,10.4,0.6,12.6,2.7c1.2,1.2,1.8,2.7,1.8,4.7c0,2.2,0.1,4.2,0.3,5.8
				c0,0.1,0,0.2,0,0.2C68.2,88.8,72.2,90.4,74.5,90.7z"/>
		</g>
	</g>
	<g>
		<path d="M157.5,66.6c-2.1-1-4.2-1.5-6.4-1.5c-2.7,0-5.2,0.6-7.4,1.9s-4,3.1-5.3,5.3c-1.3,2.3-1.9,4.8-1.9,7.5s0.6,5.2,1.9,7.5
			c1.3,2.3,3.1,4.1,5.3,5.4s4.7,2,7.4,2c2.1,0,4.2-0.5,6.3-1.4s4-2.2,5.6-3.8l4.9,5.5c-2.3,2.3-4.9,4.2-8,5.5c-3,1.4-6.1,2-9.2,2
			c-4.2,0-8-1-11.5-3s-6.2-4.7-8.2-8.1s-3-7.2-3-11.4c0-4.2,1-7.9,3.1-11.4c2-3.4,4.8-6.1,8.3-8c3.5-2,7.4-2.9,11.7-2.9
			c3.1,0,6.2,0.6,9.2,1.9c3,1.2,5.6,3,7.7,5.2l-4.9,6.1C161.5,68.9,159.6,67.6,157.5,66.6z"/>
		<path d="M190.3,69.9c1.9-1.1,4.2-1.7,6.8-1.8V76c-3.5-0.2-6.2,0.6-8.3,2.4s-3.1,4.3-3.1,7.3v16.1h-8.1V68.4h8.1v6.4
			C186.8,72.7,188.3,71,190.3,69.9z"/>
		<path d="M229.6,70.3c2.6,1.4,4.7,3.4,6.2,6s2.2,5.5,2.2,8.8c0,3.4-0.7,6.3-2.2,8.9s-3.5,4.6-6.2,6c-2.6,1.4-5.7,2.1-9.1,2.1
			c-3.5,0-6.6-0.7-9.2-2.1c-2.7-1.4-4.7-3.4-6.2-6s-2.2-5.6-2.2-8.9s0.7-6.3,2.2-8.8c1.5-2.6,3.5-4.5,6.2-6c2.7-1.4,5.7-2.1,9.2-2.1
			C223.9,68.2,226.9,68.9,229.6,70.3z M213.6,77.9c-1.7,1.9-2.6,4.3-2.6,7.3s0.9,5.4,2.6,7.3c1.7,1.9,4,2.8,6.9,2.8
			c2.7,0,5-0.9,6.7-2.8s2.6-4.3,2.6-7.3s-0.9-5.4-2.6-7.3c-1.7-1.9-4-2.8-6.7-2.8C217.6,75.1,215.3,76,213.6,77.9z"/>
		<path d="M241.8,68.5l8.4-0.1l8.2,25.2l7.9-25.2h8.2l8,25.2l8-25.2h8.2l-12.1,33.4h-8.3l-8-23.5l-7.9,23.5h-8.3L241.8,68.5z"/>
		<path d="M337.5,55.5v46.3h-8.1v-5.4c-1.2,1.9-2.8,3.3-4.6,4.3c-1.9,1-4.1,1.5-6.6,1.5c-3.2,0-5.9-0.7-8.3-2.2
			c-2.4-1.4-4.3-3.5-5.6-6.1c-1.3-2.6-2-5.6-2-8.9s0.7-6.3,2-8.8c1.3-2.6,3.2-4.5,5.6-6c2.4-1.4,5.1-2.1,8.2-2.1
			c2.5,0,4.8,0.5,6.7,1.5c1.9,1,3.5,2.4,4.7,4.3V55.5H337.5z M326.7,92.5c1.8-1.9,2.7-4.3,2.7-7.3s-0.9-5.4-2.7-7.3
			c-1.8-1.9-4-2.8-6.8-2.8s-5.1,0.9-6.8,2.8c-1.7,1.9-2.6,4.3-2.7,7.3c0,3,0.9,5.4,2.7,7.3c1.7,1.9,4,2.8,6.8,2.8
			C322.7,95.4,325,94.4,326.7,92.5z"/>
		<path d="M365.8,75.2c-1.7-0.5-3.3-0.8-4.8-0.8c-1.4,0-2.5,0.2-3.3,0.7s-1.2,1.2-1.2,2.2s0.5,1.8,1.5,2.4s2.6,1.2,4.8,1.8
			c2.3,0.7,4.2,1.4,5.7,2.1s2.8,1.7,3.9,3.1s1.7,3.1,1.7,5.3c0,3.2-1.2,5.7-3.7,7.5c-2.5,1.7-5.6,2.6-9.4,2.6
			c-2.6,0-5.1-0.4-7.5-1.2c-2.5-0.8-4.5-2-6.2-3.5l2.8-5.7c1.5,1.3,3.3,2.3,5.4,3s4.1,1.1,5.9,1.1c1.5,0,2.7-0.3,3.6-0.8
			s1.3-1.3,1.3-2.3c0-1.2-0.5-2-1.6-2.6c-1-0.6-2.7-1.2-5.1-1.9c-2.2-0.7-4.1-1.3-5.5-2c-1.4-0.6-2.6-1.6-3.7-2.9
			c-1-1.3-1.6-3-1.6-5.1c0-3.3,1.2-5.8,3.6-7.5s5.4-2.6,9-2.6c2.2,0,4.4,0.3,6.5,0.9s4,1.5,5.7,2.6l-2.9,5.9
			C369.2,76.5,367.5,75.8,365.8,75.2z"/>
		<path d="M410.1,72.7c2.7,3,4,7.3,4,12.8c0,1.1,0,1.9-0.1,2.4h-24.6c0.5,2.4,1.7,4.2,3.3,5.6c1.7,1.4,3.8,2,6.2,2
			c1.7,0,3.3-0.3,4.9-1c1.6-0.6,2.9-1.6,4.1-2.8l4.4,4.6c-1.7,1.8-3.7,3.2-6.1,4.2s-5,1.5-8,1.5c-3.4,0-6.4-0.7-9-2.1s-4.6-3.4-6-6
			s-2.1-5.5-2.1-8.8s0.7-6.3,2.2-8.9c1.4-2.6,3.4-4.6,6-6s5.5-2.2,8.8-2.2C403.5,68.2,407.5,69.7,410.1,72.7z M406.7,82.5
			c-0.1-2.5-0.9-4.4-2.4-5.9s-3.6-2.2-6.1-2.2c-2.4,0-4.4,0.7-6,2.2c-1.6,1.4-2.6,3.4-3,5.9H406.7z"/>
		<path d="M424.6,55.5h8.1v46.3h-8.1V55.5z"/>
		<path d="M446.5,55.5h8.1v46.3h-8.1V55.5z"/>
		<path d="M473.2,94.6c0.8,0.8,1.2,1.9,1.2,3.2c0,1.3-0.4,2.4-1.2,3.3c-0.8,0.9-1.8,1.3-3.1,1.3c-1.2,0-2.2-0.4-3-1.3
			s-1.2-2-1.2-3.2c0-1.3,0.4-2.3,1.2-3.2c0.8-0.8,1.8-1.2,3-1.2C471.4,93.4,472.4,93.8,473.2,94.6z"/>
	</g>
</g>
</svg>
