<?xml version="1.0" encoding="UTF-8" standalone="no"?>
<!-- Generator: Adobe Illustrator 21.0.0, SVG Export Plug-In . SVG Version: 6.00 Build 0)  -->

<svg
   xmlns:svg="http://www.w3.org/2000/svg"
   xmlns="http://www.w3.org/2000/svg"
   version="1.1"
   id="Layer_1"
   x="0px"
   y="0px"
   viewBox="0 0 83 102">
<g
   transform="translate(-25.4906,-25.1)"
   id="g165">
	<g
   id="g163">
		<g
   id="g113">
			<path
   d="m 95.6,75.2 c 5.6,4.1 9.8,4.4 10.7,4.1 -0.1,-1.2 -4.2,-5.7 -12.1,-8.6 L 95,68.5 c 4.5,1.6 8.6,4.2 11.1,6.6 l 2,-2 c -1,-1 -3,-2.9 -5.4,-4.4 -3.8,-2.4 -7.6,-3.3 -10.1,-3.3 -0.6,0 -1.1,0.1 -1.6,0.2 -0.5,0.1 -1.1,0.4 -1.4,0.8 0,0 0,0.1 -0.1,0.1 0,0.1 0,0.1 -0.1,0.2 -0.3,1.6 1.5,5.1 6.2,8.5 z"/>
		</g>
		<g
   id="g117">
			<path
   d="m 79,92 c -0.6,0.5 -1.7,1 -3,1.1 0.6,1.9 6.7,7 9.4,6.9 0.5,-0.1 1.6,-1.2 2.3,-2.1 C 84.9,97 81,94 79,92 Z"
   id="path115"/>
		</g>
		<g
   id="g121">
			<path
   d="m 81,66.2 c -0.6,-0.6 -1.3,-1.2 -2,-1.8 -1,1.6 -2.4,5.2 1.2,10.5 0.7,1.1 1.6,2 2.5,2.8 1.1,-2.5 2.1,-4.9 2.8,-6.8 -0.9,-1.6 -2.6,-3.1 -4.5,-4.7 z"
   id="path119"/>
		</g>
		<g
   id="g125">
			<path
   d="m 87.9,95.4 c 5.5,-6.2 11.8,-11.2 15.5,-14 -2.5,-0.6 -5.8,-2 -9.1,-4.4 -2.9,-2.1 -5,-4.3 -6.1,-6.5 -1.7,4.5 -4.7,11.9 -8.5,18.3 0.4,1.7 5.6,5.6 8.2,6.6 z"
   id="path123"/>
		</g>
		<g
   id="g129">
			<path
   d="m 79.1,53.2 c -0.6,-0.5 -1.2,-1 -1.7,-1.4 -0.6,0.6 -1.3,1.7 -1.4,3.2 -0.1,2 0.9,4.2 3.2,6.4 1.1,1.1 2.2,2.1 3.3,3.1 1.5,1.3 2.8,2.5 4,3.8 0.4,-1 0.6,-1.8 0.8,-2.2 0.1,-0.3 0.2,-0.6 0.4,-0.8 0.4,-0.7 1.2,-1.3 2.1,-1.7 -2.3,-3.5 -7.5,-7.8 -10.7,-10.4 z"
   id="path127"/>
		</g>
		<g
   id="g133">
			<path
   d="m 96.2,59.4 c 0,-3.3 -5.3,-8.3 -13.3,-15.8 -1.5,-1.4 -3.2,-3 -4.9,-4.6 -1,1 -1.7,2.3 -1.9,3.9 -0.3,2.4 0.6,4.9 2.2,6.5 0.5,0.4 1.4,1.2 2.4,2 3.7,3.1 9.3,7.8 11.6,11.7 l -0.2,0.1 c 0.6,0 1.2,0 1.8,0.1 0.3,-0.3 0.6,-0.6 0.9,-1 1,-1 1.4,-1.9 1.4,-2.9 z"
   id="path131"/>
		</g>
		<g
   id="g137">
			<path
   d="m 67.5,88.6 c -2.2,-3 -5.7,-2.8 -10.4,-2.5 -0.9,0.1 -1.8,0.1 -2.8,0.2 0.4,1.9 2,5.7 8.7,6.9 3.7,0.7 6.6,-0.2 8.5,-1 -1.6,-0.8 -2.9,-2 -4,-3.6 z"
   id="path135"/>
		</g>
		<g
   id="g141">
			<path
   d="m 63.3,70 c -2.5,-2.4 -10,-2.2 -21.4,-1.8 -2.2,0.1 -4.5,0.2 -7,0.2 -0.1,1.5 0.4,3 1.5,4.3 1.6,2 4.1,3.2 6.4,3.1 0.7,0 1.9,-0.1 3.2,-0.3 7.3,-0.7 14.6,-1.2 18.4,0.5 0,-1 -0.1,-2 -0.1,-3.1 0,-1.3 -0.3,-2.2 -1,-2.9 z"
   id="path139"/>
		</g>
		<g
   id="g145">
			<path
   d="m 105.1,59.1 c 0,-5.3 -5.9,-11 -11,-16.1 L 93.9,42.8 C 84.3,33.4 80.5,27.6 79.2,25.1 c -1.6,1.4 -2.5,3.3 -2.7,5.3 -0.2,2.3 0.6,4.6 2.4,6.2 2,1.9 3.8,3.6 5.6,5.3 9,8.5 14,13.2 14.1,17.5 0,1.5 -0.6,2.9 -1.8,4.2 1.6,0.4 3.4,1.1 5,1.9 l 0.7,-0.7 c 1.8,-1.8 2.6,-3.7 2.6,-5.7 z"
   id="path143"/>
		</g>
		<g
   id="g149">
			<path
   d="m 64.3,78.7 c -2.6,-2.3 -13.1,-1.3 -18.1,-0.8 -0.9,0.1 -1.7,0.2 -2.3,0.2 0.1,0.9 0.3,2.3 1.3,3.4 1.4,1.6 3.7,2.4 7.1,2.4 1.6,0 3.2,-0.1 4.7,-0.2 3.1,-0.2 6.1,-0.4 8.7,0.5 -0.4,-1.4 -0.7,-3 -1,-4.8 0,-0.2 -0.1,-0.4 -0.4,-0.7 z"
   id="path147"/>
		</g>
		<g
   id="g153">
			<path
   d="m 79.5,89.2 c 0,0 0,0.1 0,0 v 0 c 0,0.1 0,0 0,0 z"
   id="path151"/>
		</g>
		<g
   id="g157">
			<path
   d="m 54.5,113.7 c -0.2,0.1 -0.3,0.3 -0.3,0.6 0,0.8 0,5.2 5.1,9.2 4.6,3.6 9,3.4 10.5,3.3 H 70 c 0.5,0 0.9,-0.3 1,-0.8 1.5,-4.4 5.6,-15.2 11.7,-24.3 -3,-1.2 -6.5,-4.1 -8.1,-6.4 -8.8,8.9 -17.5,16.2 -20.1,18.4 z"
   id="path155"/>
		</g>
		<g
   id="g161">
			<path
   d="m 74.5,90.7 v 0 0 c 0.4,0 0.7,0.1 0.9,0.1 0.4,0 0.8,0 1.1,-0.1 C 71.8,87.2 71.8,83 71.8,71.3 v -1.9 c 0,-2.7 -0.7,-4.7 -2.2,-6.2 -3.8,-3.7 -11.9,-3.7 -19.1,-3.7 h -1.2 c -12.6,0 -20,-0.6 -23.8,-2 -0.1,2.2 0.6,4.2 2,5.8 1.6,1.9 3.8,2.9 6.3,2.8 2.8,-0.1 5.5,-0.2 7.9,-0.3 4.1,-0.1 7.6,-0.3 10.5,-0.3 6.4,0 10.4,0.6 12.6,2.7 1.2,1.2 1.8,2.7 1.8,4.7 0,2.2 0.1,4.2 0.3,5.8 0,0.1 0,0.2 0,0.2 1.3,9.9 5.3,11.5 7.6,11.8 z"
   id="path159"/>
		</g>
	</g>

</g>
</svg>
