<?xml version="1.0" encoding="UTF-8" standalone="no"?>
<!-- Generator: Adobe Illustrator 21.0.0, SVG Export Plug-In . SVG Version: 6.00 Build 0)  -->

<svg
   xmlns:dc="http://purl.org/dc/elements/1.1/"
   xmlns:cc="http://creativecommons.org/ns#"
   xmlns:rdf="http://www.w3.org/1999/02/22-rdf-syntax-ns#"
   xmlns:svg="http://www.w3.org/2000/svg"
   xmlns="http://www.w3.org/2000/svg"
   xmlns:sodipodi="http://sodipodi.sourceforge.net/DTD/sodipodi-0.dtd"
   xmlns:inkscape="http://www.inkscape.org/namespaces/inkscape"
   version="1.1"
   id="Layer_1"
   x="0px"
   y="0px"
   viewBox="0 0 638.39124 475.31534"
   xml:space="preserve"
   sodipodi:docname="intellectual-property-is-broken_touched.svg"
   width="638.39124"
   height="475.31534"
   inkscape:version="0.92.4 (33fec40, 2019-01-16)"><metadata
   id="metadata1776"><rdf:RDF><cc:Work
       rdf:about=""><dc:format>image/svg+xml</dc:format><dc:type
         rdf:resource="http://purl.org/dc/dcmitype/StillImage" /><dc:title></dc:title></cc:Work></rdf:RDF></metadata><defs
   id="defs1774" /><sodipodi:namedview
   pagecolor="#ffffff"
   bordercolor="#666666"
   borderopacity="1"
   objecttolerance="10"
   gridtolerance="10"
   guidetolerance="10"
   inkscape:pageopacity="0"
   inkscape:pageshadow="2"
   inkscape:window-width="3840"
   inkscape:window-height="2112"
   id="namedview1772"
   showgrid="false"
   inkscape:zoom="3.0583333"
   inkscape:cx="329.05919"
   inkscape:cy="236.2"
   inkscape:window-x="0"
   inkscape:window-y="48"
   inkscape:window-maximized="1"
   inkscape:current-layer="Layer_1"
   fit-margin-top="0"
   fit-margin-left="0"
   fit-margin-right="0"
   fit-margin-bottom="0" />

<style type="text/css">
	.st0{opacity:0.5;fill:#E86060;enable-background:new    ;}
	.st1{opacity:0.56;fill:#FFFFFF;enable-background:new    ;}
	.st2{fill:#FFFFFF;}
	.st3{fill:#E86060;}
</style>

<g
   id="g1769"
   transform="translate(-79.115197,-60.884668)">
	<path
   class="st0"
   d="M 704.3,141.3 C 793.6,346.8 403.5,450.8 328.9,281.1 263.3,131.7 623.1,-45.4 704.3,141.3 Z"
   id="path1550"
   inkscape:connector-curvature="0" />
	<path
   class="st0"
   d="m 399.4,440.4 c -6,116.6 208.7,119.1 187.4,5.7 -21.3,-113.4 -183.1,-88.5 -187.4,-5.7 z"
   id="path1552"
   inkscape:connector-curvature="0" />
	<path
   class="st0"
   d="M 500.2,254.7 C 544.3,472.6 242.4,639.6 103.6,310.3 -35.2,-19 459.6,54.2 500.2,254.7 Z"
   id="path1554"
   inkscape:connector-curvature="0" />
	<path
   class="st1"
   d="m 256.8,384.2 c -8.2,16.8 8.8,61.5 -59,31 -11.4,-5.1 -21.9,-3.3 -31,1.7 12.1,14.3 24.7,26.5 37.6,36.6 H 351.7 C 324.6,401.4 272,352.7 256.8,384.2 Z"
   id="path1556"
   inkscape:connector-curvature="0" />
	<path
   class="st1"
   d="m 588.3,461.8 c -4,-0.4 -8.2,0.2 -12.6,2.2 -50.1,22.6 -37.6,-10.5 -43.6,-23 -11.4,-23.3 -50.3,12.7 -70.3,51.3 h 118.6 c 4.9,-8.7 7.8,-18.8 7.9,-30.5 z"
   id="path1558"
   inkscape:connector-curvature="0" />
	<path
   class="st1"
   d="m 699.6,264.6 c -21.4,3.6 -14.9,-17.2 -19.1,-26 -9.7,-20 -43.2,11 -60.6,44.2 h 67 c 4.7,-5.8 9,-11.9 12.7,-18.2 z"
   id="path1560"
   inkscape:connector-curvature="0" />
	<path
   class="st1"
   d="m 383.7,171.5 h 201.2 c 0,0 -24.8,-33.5 -58.7,-23.5 -62.8,18.7 -47.1,-8.7 -54.6,-19 -14,-19.3 -62.7,10.6 -87.9,42.5 z"
   id="path1562"
   inkscape:connector-curvature="0" />
	<path
   class="st1"
   d="M 507.8,207.1 H 318.9 c 0,0 23.3,-35.5 55.1,-24.8 58.9,19.8 44.2,-9.2 51.3,-20.1 13.2,-20.4 58.9,11.2 82.5,44.9 z"
   id="path1564"
   inkscape:connector-curvature="0" />
	<path
   class="st1"
   d="m 88.9,269.4 h 108.4 c -96.1,-135.4 -63.9,-11.9 -114,-23 1.4,7.4 3.3,15 5.6,23 z"
   id="path1566"
   inkscape:connector-curvature="0" />
	<path
   class="st1"
   d="m 645.9,77.6 c -4.8,9.7 -11,18.4 -25.2,12.3 -40.7,-17.3 -75.3,19.6 -75.3,19.6 H 685.1 C 674.1,95.8 660.8,85.2 645.9,77.6 Z"
   id="path1568"
   inkscape:connector-curvature="0" />
	<path
   class="st2"
   d="m 172.6,315 c -2.3,4 -3.9,6.8 -3.9,6.8 l 5,10.8 43.3,28.1 43.3,-28.1 5,-10.8 -19.3,-33.6 -29,-14.9 -29.1,14.9 c 0,0 -9.7,17 -15.3,26.8 z"
   id="path1570"
   inkscape:connector-curvature="0" />
	<path
   class="st2"
   d="m 227.6,150.1 c 8.9,9 15,7.9 40.7,1.6 20.5,-5.1 25.4,18.1 30.1,37.2 6.3,25.6 11.1,38.8 15.4,42.9 -4.6,1.2 -10.9,-1 -14.7,-7.5 l 0.1,0.3 c 0,0 -7.9,1.6 -12,-7.3 v 0 c -4.2,1 -8.2,-1.4 -10.6,-5.9 -4.6,1.1 -9.7,-1.4 -12.1,-7.1 0,0 -8.9,2.4 -12.4,-9 0,0 -8.2,1.3 -11.3,-7.5 v 0 c 0,0 -9.6,0.2 -12.2,-10.4 -2.1,-8.7 1.9,-12.4 0.6,-18 l -1.6,-4 c -1.8,-3.8 0,-5.3 0,-5.3 z"
   id="path1572"
   inkscape:connector-curvature="0" />
	<path
   class="st2"
   d="m 558.6,393 c -2.3,4 -3.9,6.8 -3.9,6.8 l 5,10.8 43.3,28.1 43.3,-28.1 5,-10.8 -19.3,-33.6 -29,-14.9 -29,14.9 c 0,0 -9.8,17 -15.4,26.8 z"
   id="path1574"
   inkscape:connector-curvature="0" />
	<path
   class="st2"
   d="m 361.5,489.7 c -2.3,4 -3.9,6.8 -3.9,6.8 l 5,10.8 43.3,28.1 43.3,-28.1 5,-10.8 -19.3,-33.6 -29,-14.9 -29.1,14.9 c 0.1,0.1 -9.7,17 -15.3,26.8 z"
   id="path1576"
   inkscape:connector-curvature="0" />
	<path
   class="st2"
   d="m 91.6,120.2 c 0,0 2.6,1 10.1,-1.5 7.5,-2.5 40.4,-17.5 47,-20.1 6.5,-2.6 26.4,-8 32.2,3.7 5.8,11.7 14.4,34.7 28.5,33.8 0,0 -1.5,3.4 -7.8,3.6 0,0 -12.5,14.2 -20.4,14.2 -7.9,0 -9.7,-4.4 -9.7,-4.4 0,0 -8,2.7 -12.4,-3.9 0,0 -9.3,3.8 -14.5,-3.8 0,0 -10.5,2.1 -13.7,-5.5 0,0 -8,0.9 -11.1,-4.8 0,0 -10.3,1.2 -13.3,-4.5 0,0.1 -12.1,-0.2 -14.9,-6.8 z"
   id="path1578"
   inkscape:connector-curvature="0" />
	<path
   class="st2"
   d="m 278.4,398.6 c 0,0 3,-1.1 7.7,-8.8 4.6,-7.7 22.2,-45.4 25.9,-52.6 3.7,-7.2 17,-26.7 30.8,-20.8 13.8,5.9 38.5,19.5 50,8.2 0,0 1.2,4.1 -4.1,9 0,0 -0.2,21.7 -7.1,27.6 -6.9,5.9 -11.8,3.4 -11.8,3.4 0,0 -6.2,7.9 -12.4,6.2 0,0 -9.8,9.6 -16.9,7.2 0,0 -9.8,8.5 -16,5.4 0,0 -6.3,6.7 -13.2,4.1 0,0 -8.1,8.8 -15,6.1 0.2,-0.1 -10.6,8.7 -17.9,5 z"
   id="path1580"
   inkscape:connector-curvature="0" />
	<path
   class="st2"
   d="m 549.4,298.9 c 0,0 -3.1,0.9 -11.4,-2.5 -8.3,-3.4 -45,-23 -52.3,-26.6 -7.3,-3.5 -29.6,-11.2 -37.1,1.8 -7.5,13 -19.1,38.7 -35.1,36.6 0,0 1.5,4 8.6,4.8 0,0 13.2,17.2 22.3,17.8 9,0.6 11.5,-4.3 11.5,-4.3 0,0 9.7,2.6 13.6,-2.5 0,0 13.6,1.7 17.8,-4.3 0,0 12.9,0.9 16.1,-5.3 0,0 9.1,1.6 13,-4.6 0,0 11.8,2.2 15.6,-4.1 -0.2,0 13.7,0.6 17.4,-6.8 z"
   id="path1582"
   inkscape:connector-curvature="0" />
	<path
   class="st2"
   d="m 262.9,105.4 c 0,0 -26,-25 -35.1,-14.1 0,0 -7.2,27.4 -18.5,44.8 0,0 -2.2,1.9 -5.5,7.9 -1.8,3.2 -38.5,38.2 -38.5,38.2 -3.1,3.2 4.8,16.9 16.1,21.9 l 4.6,-2.8 1,5.1 c 0,0 12.1,3.2 13.8,-1.8 1.6,-5 14.1,-38.9 21.5,-47 0,0 5.4,-0.3 8.3,-6.4 1,-2.1 -0.2,-3.9 -0.2,-3.9 0,0 20.1,-23.3 32.6,-29.8 0,0 1.2,-3.7 -3.6,-8.7 z"
   id="path1584"
   inkscape:connector-curvature="0" />
	<path
   class="st2"
   d="m 346.8,270.1 c 0,0 23.6,-27.4 43.5,-13.1 0,0 15.5,27.7 23,51.2 0,0 2.6,2.1 6.7,8.9 13.4,8.8 46,42.9 46,42.9 3.8,3.5 -4.9,19.8 -17.8,26 l -6.4,2.8 c 0,0 -13.3,3.9 -16,-1.6 -10.1,-20 -20.2,-37.1 -26.5,-53.6 0,0 -6.3,-0.2 -9.9,-7.1 -1.2,-2.4 0.1,-4.5 0.1,-4.5 0,0 -22.4,-16.6 -38.8,-33.3 0,0 -4,-3.7 2.9,-11.8 z"
   id="path1586"
   inkscape:connector-curvature="0" />
	<path
   class="st2"
   d="m 643.3,180.1 4,-3.6 c 0,0 -7.5,-5.8 -16.3,-10 0.4,-0.5 0.8,-1.1 1.2,-1.6 10.5,-14 7,-24.9 -10.3,-37.8 -6.5,-4.8 -38.9,-29.3 -45.7,-35.9 -6.4,-6.2 -7.5,-8.8 -7.5,-8.8 -7,8.3 1.5,18.7 1.5,18.7 -4.2,6.5 2.5,14.9 2.5,14.9 -4.1,6.6 2.1,14.5 2.1,14.5 -5.8,6.9 2.4,14.6 2.4,14.6 -5.6,8.5 4.5,16.7 4.5,16.7 -4.1,9.8 3.2,14.6 3.2,14.6 0,0 -3,7.8 2,13.7 4.4,5.3 9.5,7.2 14.1,8.7 -1.7,5.9 -3.8,11.8 -6.4,17.1 0,0 -0.3,0.4 -0.9,1.2 -14.3,0.5 -20.6,-19.6 -26.9,-32.8 -6.5,-13.4 -17.6,-16.4 -36.3,-8.3 -7,3 -43.2,17.5 -51,20.6 -7.9,3.1 -10.7,2 -10.7,2 3.1,7.6 16,7.6 16,7.6 3.3,6.5 14.4,4.8 14.4,4.8 3.5,6.4 11.9,5.2 11.9,5.2 2.6,6.4 14.7,6.1 14.7,6.1 4.3,8.6 14.6,4.1 14.6,4.1 6.1,8 14.4,4.2 14.4,4.2 0,0 3.7,6.9 10.9,5.6 12.2,-2.1 15.9,-13.9 22.9,-15.1 1.5,-0.3 2.6,-0.6 3.5,-1 -0.7,1.3 -1.5,3 -2.4,5.2 -1.5,3.8 -35,45.3 -35,45.3 -3,3.9 6,19 18.9,22.9 l 4.6,-3.7 1.8,5.4 c 0,0 13.6,1.8 14.7,-3.8 1.1,-5.6 10,-44 16.9,-53.8 0,0 5.8,-1.1 8.2,-8.1 0.8,-2.4 -0.8,-4.2 -0.8,-4.2 0,0 17,-26.8 29.7,-35.6 -0.2,0.2 0.5,-4.9 -5.4,-9.6 z"
   id="path1588"
   inkscape:connector-curvature="0" />
	<path
   class="st3"
   d="m 380.7,278.6 c 0,0 -12.5,8.8 1.2,24.7 13.7,15.9 15.8,18.2 15.8,18.2 0,0 -3.4,3.2 -6.5,2.3 0,0 -22.8,-17.5 -40.2,-34.9 0.1,0 5.7,6.1 29.7,-10.3 z"
   id="path1590"
   inkscape:connector-curvature="0" />
	<circle
   class="st3"
   cx="407"
   cy="323.79999"
   r="4.9000001"
   id="circle54" />
	<path
   class="st3"
   d="m 349.4,272.7 c 0,0 22.2,-23.3 36.8,-15.2 3.2,1.8 4.1,8.7 4.1,8.7 l -4.1,7 -5.4,5.4 c 0,0 -9.7,6.3 -13.1,7.8 l -2.4,-2.1 c 0,0 17.7,-8.1 20.8,-17.8 l -3.6,-6 c 0,0 -3.6,15.9 -20.4,19.1 l 4.8,7.1 c 0,0 -9.2,4.7 -13.8,3.1 -4.7,-1.6 16.4,-26.1 29.4,-29.4 0,0 -9,-7.5 -28.4,16.8 z"
   id="path1593"
   inkscape:connector-curvature="0" />
	<path
   class="st3"
   d="m 404.8,331.2 c 0,0 0.2,0.2 0.4,0.6 3.2,-2 11.1,-7.5 15.5,-13.8 l 2.6,2.6 c 0,0 -17.8,10.9 -7.2,26.6 v 0 c 4.1,5.9 8.7,12.8 12.8,19.1 8.8,13.6 30,10.7 30,10.7 0,0 -4.7,5.4 -11.1,8.2 l -6.3,2.8 c 0,0 -12.4,5 -15.9,-1.5 -16,-30.3 -26.7,-53.7 -26.7,-53.7 z"
   id="path1595"
   inkscape:connector-curvature="0" />
	<path
   class="st3"
   d="m 549.3,298.2 c 0,0 -9.5,0.8 -38.7,-15 -29.1,-15.9 -52.5,-30.5 -64.2,-9 -11.7,21.5 -17.6,33.9 -33.1,33.8 0,0 13.9,9.9 28.9,-19.6 15.6,-30.7 18.7,-25.5 66,0.2 25.2,13.7 31.1,15.6 41.1,9.6 z"
   id="path1597"
   inkscape:connector-curvature="0" />
	<path
   class="st3"
   d="m 531.9,304.9 c 0,0 -8.6,-3 -35,-18.1 -26.4,-15.1 -38.3,-19.9 -46.2,-6 0,0 6.6,-11.5 42.9,10.8 36.2,22.3 38.3,13.3 38.3,13.3 z"
   id="path1599"
   inkscape:connector-curvature="0" />
	<path
   class="st3"
   d="m 516.4,309.5 c 0,0 -6.3,4.3 -16.2,-2.6 -10,-6.9 -36.1,-22.5 -51.5,-21.5 0,0 0.5,-13 30,3.1 29.5,16 37.7,21 37.7,21 z"
   id="path1601"
   inkscape:connector-curvature="0" />
	<path
   class="st3"
   d="m 503.1,313.9 c 0,0 -5.2,3.3 -11.6,-0.1 -6.4,-3.4 -34.7,-22.7 -47.9,-20.1 0,0 0.1,-12.3 30.5,4.3 18.7,10.1 29,15.9 29,15.9 z"
   id="path1603"
   inkscape:connector-curvature="0" />
	<path
   class="st3"
   d="m 487.7,318.7 c 0,0 -10.8,-5.7 -21.5,-12.7 -10.7,-7 -22.6,-12.3 -28.6,-4.3 0,0 5.6,-3.8 26.3,9.3 13.5,8.5 20.4,11.3 23.8,7.7 z"
   id="path1605"
   inkscape:connector-curvature="0" />
	<path
   class="st3"
   d="m 470.5,322.2 c 0,0 -13.8,-8.1 -17.1,-9.8 -3.2,-1.7 -15.4,-9.8 -23.1,-3.2 0,0 8.9,0.3 20.2,8.2 11.3,7.9 17.4,7.7 20,4.8 z"
   id="path1607"
   inkscape:connector-curvature="0" />
	<path
   class="st3"
   d="m 455.4,326 c 0,0 -9.1,3.6 -17.2,-2.5 -8.1,-6.1 -11.9,-10.2 -16.2,-10.8 -0.1,0 6,-6.8 33.4,13.3 z"
   id="path1609"
   inkscape:connector-curvature="0" />
	<path
   class="st3"
   d="m 277.8,398.3 c 0,0 8.1,-5.1 21.7,-35.3 13.7,-30.2 23.5,-56 45.8,-45.9 22.3,10.1 34.5,16.4 46.8,6.9 0,0 -5.1,16.3 -34.9,1.8 -31,-15 -30.3,-9 -52.4,40 -11.8,26.2 -15.4,31.2 -27,32.5 z"
   id="path1611"
   inkscape:connector-curvature="0" />
	<path
   class="st3"
   d="m 295.7,393.1 c 0,0 5,-7.6 16.9,-35.6 11.9,-27.9 18.5,-39 33.2,-32.7 0,0 -12.2,-5.2 -27.7,34.6 -15.3,39.7 -22.4,33.7 -22.4,33.7 z"
   id="path1613"
   inkscape:connector-curvature="0" />
	<path
   class="st3"
   d="m 310.8,387.4 c 0,0 7.6,-0.4 11.4,-11.9 3.8,-11.5 15.2,-39.7 28.1,-48.3 0,0 -8.2,-10.1 -22.1,20.6 -13.8,30.7 -17.4,39.6 -17.4,39.6 z"
   id="path1615"
   inkscape:connector-curvature="0" />
	<path
   class="st3"
   d="m 324.1,383 c 0,0 6.2,-0.5 9.2,-7.1 3,-6.6 13.9,-39 26.1,-44.9 0,0 -7.5,-9.8 -21.8,21.8 -8.8,19.3 -13.5,30.2 -13.5,30.2 z"
   id="path1617"
   inkscape:connector-curvature="0" />
	<path
   class="st3"
   d="m 339.2,377.5 c 0,0 5.2,-11.1 9.5,-23.1 4.3,-12 10.6,-23.4 20.2,-20.7 0,0 -6.8,0.4 -15.3,23.3 -5.7,14.9 -9.5,21.3 -14.4,20.5 z"
   id="path1619"
   inkscape:connector-curvature="0" />
	<path
   class="st3"
   d="m 355.1,369.9 c 0,0 6.1,-14.8 7.7,-18.1 1.5,-3.3 6.3,-17.1 16.4,-16.5 0,0 -7,5.6 -11.1,18.7 -4.2,13.1 -9.2,16.6 -13,15.9 z"
   id="path1621"
   inkscape:connector-curvature="0" />
	<path
   class="st3"
   d="m 369.4,363.8 c 0,0 9.5,-2.6 12.3,-12.4 2.8,-9.7 3.3,-15.4 6.4,-18.4 0,0 -9,-1.8 -18.7,30.8 z"
   id="path1623"
   inkscape:connector-curvature="0" />
	<path
   class="st3"
   d="m 236.7,109.4 c 0,0 11.1,7.3 -0.4,21.5 -11.5,14.2 -13.3,16.3 -13.3,16.3 0,0 3,2.7 5.7,1.8 0,0 20.7,-23.2 34,-31.5 0.1,0 -4.6,5.5 -26,-8.1 z"
   id="path1625"
   inkscape:connector-curvature="0" />
	<path
   class="st3"
   d="m 217.2,155.9 c 0,0 -11.5,17 -20,31.3 -7.2,12.1 -25.8,10.1 -25.8,10.1 0,0 4.3,4.6 9.9,6.8 l 4.6,-2.8 1,5.1 c 0,0 12,4.4 13.8,-1.8 7.4,-26.3 21.7,-47.5 21.7,-47.5 z"
   id="path1627"
   inkscape:connector-curvature="0" />

		<circle
   transform="matrix(0.9995,-0.03217651,0.03217651,0.9995,-4.6991,6.9987)"
   class="st3"
   cx="215.10001"
   cy="149.5"
   id="ellipse1629"
   r="4.1999998" />
	<path
   class="st3"
   d="m 260.8,107.1 c 0,0 -20.7,-20.6 -30.1,-14.3 -2.7,1.8 -2.6,6.1 -2.6,6.1 l 3.8,6 4.9,4.5 c 0,0 8.6,5.2 11.6,6.4 l 2,-1.9 c 0,0 -15.9,-6.9 -18.8,-15.3 l 1.6,-3.7 c 0,0 -0.3,7.1 19.6,16.7 L 249,116 c 0,0 8.1,3.9 12.1,2.3 4,-1.6 -14.7,-17 -27.2,-23.5 0,0 4.6,-4.3 24.9,13.8 z"
   id="path1631"
   inkscape:connector-curvature="0" />
	<path
   class="st3"
   d="m 203,144.8 -2.2,2.4 c 0,0 15.8,9 7,23 L 218,157.1 c 0.1,0 -10,-5.5 -15,-12.3 z"
   id="path1633"
   inkscape:connector-curvature="0" />
	<path
   class="st3"
   d="m 91.6,120.2 c 0,0 8.2,1.3 34.4,-10.9 26.2,-12.2 47.3,-23.6 56.3,-4.3 9,19.3 13.4,30.4 27,31.1 0,0 -12.6,7.9 -24.1,-18.6 -11.9,-27.5 -14.9,-23.2 -57.3,-3.4 -22.7,10.5 -27.9,11.8 -36.3,6.1 z"
   id="path1635"
   inkscape:connector-curvature="0" />
	<path
   class="st3"
   d="m 106.4,127 c 0,0 7.6,-2.2 31.4,-13.8 23.8,-11.6 34.4,-15.2 40.5,-2.7 0,0 -5.1,-10.4 -37.9,7.1 -32.7,17.3 -34,9.4 -34,9.4 z"
   id="path1637"
   inkscape:connector-curvature="0" />
	<path
   class="st3"
   d="m 119.6,131.8 c 0,0 5.2,4.1 14.3,-1.4 9.1,-5.5 32.6,-17.6 46,-15.9 0,0 0.3,-11.3 -26.3,1.1 -26.6,12.4 -34,16.2 -34,16.2 z"
   id="path1639"
   inkscape:connector-curvature="0" />
	<path
   class="st3"
   d="m 130.9,136.3 c 0,0 4.4,3.2 10.1,0.5 5.7,-2.7 31.3,-17.9 42.7,-14.8 0,0 0.6,-10.7 -26.8,2 -16.8,7.9 -26,12.3 -26,12.3 z"
   id="path1641"
   inkscape:connector-curvature="0" />
	<path
   class="st3"
   d="m 144,141.3 c 0,0 9.7,-4.4 19.3,-9.9 9.6,-5.5 20.3,-9.5 25.1,-2.2 0,0 -4.7,-3.6 -23.3,6.7 -12.2,6.7 -18.3,8.8 -21.1,5.4 z"
   id="path1643"
   inkscape:connector-curvature="0" />
	<path
   class="st3"
   d="m 158.8,145.3 c 0,0 12.5,-6.3 15.4,-7.6 2.9,-1.3 13.9,-7.7 20.2,-1.6 0,0 -7.8,-0.2 -18,6 -10.2,6.4 -15.6,5.9 -17.6,3.2 z"
   id="path1645"
   inkscape:connector-curvature="0" />
	<path
   class="st3"
   d="m 171.7,149.5 c 0,0 7.8,3.6 15.1,-1.2 7.4,-4.9 10.9,-8.3 14.7,-8.5 0,-0.1 -4.9,-6.3 -29.8,9.7 z"
   id="path1647"
   inkscape:connector-curvature="0" />
	<path
   class="st3"
   d="m 313.8,231.8 c 0,0 -6.1,-5.6 -13.1,-33.7 -6.9,-28 -11.2,-51.7 -32,-46.6 -20.8,5.1 -32.1,8.6 -41.2,-1.5 0,0 1.8,14.8 29.6,7.1 28.9,-8 27.4,-3 38.6,42.6 6.1,24.3 8.4,29.2 18.1,32.1 z"
   id="path1649"
   inkscape:connector-curvature="0" />
	<path
   class="st3"
   d="m 299.3,224.6 c 0,0 -3.1,-7.3 -8.9,-33.1 -5.8,-25.8 -9.7,-36.3 -23.3,-33.2 0,0 11.3,-2.5 18.2,34 7,36.2 14,32.3 14,32.3 z"
   id="path1651"
   inkscape:connector-curvature="0" />
	<path
   class="st3"
   d="m 287.2,217.3 c 0,0 -6.4,-1.5 -7.9,-12 -1.5,-10.5 -6.8,-36.4 -16.4,-45.8 0,0 8.6,-7.3 15.6,21.1 7.1,28.5 8.7,36.7 8.7,36.7 z"
   id="path1653"
   inkscape:connector-curvature="0" />
	<path
   class="st3"
   d="m 276.6,211.4 c 0,0 -5.2,-1.4 -6.7,-7.5 -1.5,-6.1 -5.7,-35.6 -15.2,-42.6 0,0 8,-7.2 15.2,22.1 4.4,18 6.7,28 6.7,28 z"
   id="path1655"
   inkscape:connector-curvature="0" />
	<path
   class="st3"
   d="m 264.5,204.3 c 0,0 -2.7,-10.3 -4.5,-21.3 -1.8,-10.9 -5.4,-21.7 -14,-20.9 0,0 5.8,1.4 9.4,22.4 2.5,13.6 4.7,19.7 9.1,19.8 z"
   id="path1657"
   inkscape:connector-curvature="0" />
	<path
   class="st3"
   d="m 252.1,195.3 c 0,0 -2.9,-13.6 -3.7,-16.7 -0.8,-3.1 -2.7,-15.7 -11.5,-16.7 0,0 5.1,5.9 6.6,17.8 1.5,11.8 5.2,15.6 8.6,15.6 z"
   id="path1659"
   inkscape:connector-curvature="0" />
	<path
   class="st3"
   d="m 240.8,187.8 c 0,0 -7.7,-3.8 -8.5,-12.5 -0.8,-8.8 -0.4,-13.7 -2.6,-16.8 -0.1,0 7.9,-0.1 11.1,29.3 z"
   id="path1661"
   inkscape:connector-curvature="0" />
	<path
   class="st3"
   d="m 619.9,184.3 c 0,0 12.9,6.2 2.7,23 -10.2,16.7 -11.8,19.3 -11.8,19.3 0,0 3.6,2.5 6.4,1.1 0,0 18.7,-27.6 31.7,-38.4 -0.1,0 -4.4,6.5 -29,-5 z"
   id="path1663"
   inkscape:connector-curvature="0" />
	<path
   class="st3"
   d="m 605.7,236.6 c 0,0 -9.8,19.8 -16.8,36.2 -6,13.9 -26,14.5 -26,14.5 0,0 5.2,4.3 11.5,5.9 l 6.3,1.6 c 0,0 13.4,3 14.4,-3.8 4.2,-29 16.4,-53.7 16.4,-53.7 z"
   id="path1665"
   inkscape:connector-curvature="0" />

		<circle
   transform="matrix(0.07818644,-0.9969,0.9969,0.07818644,325.545,809.3237)"
   class="st3"
   cx="600.40002"
   cy="228.60001"
   id="ellipse1667"
   r="4.5" />
	<path
   class="st3"
   d="m 645.1,178.5 c 0,0 -25,-19 -34.1,-11 -2.6,2.3 -1.9,6.9 -1.9,6.9 l 4.9,5.8 1.2,5.7 4.6,-1.6 c 0,0 9.9,4.3 13.3,5.2 l 1.9,-2.3 c 0,0 -17.9,-5.1 -22.2,-13.6 l 1.2,-4.2 c 0,0 0.7,7.6 23.2,15 l -3.5,5.3 c 0,0 9.2,2.9 13.2,0.7 4.1,-2.2 -18.1,-16 -32.3,-21.2 0,0 4.3,-5.2 28.4,11.2 z"
   id="path1669"
   inkscape:connector-curvature="0" />
	<path
   class="st3"
   d="m 589,226.9 -2,2.8 c 0,0 18.1,7.3 10.8,23.5 l 9,-15.4 c 0,0 -11.4,-4.5 -17.8,-10.9 z"
   id="path1671"
   inkscape:connector-curvature="0" />
	<path
   class="st3"
   d="m 468.6,198.1 c 0,0 8.8,1.5 37.1,-11.1 28.3,-12.6 51.2,-24.5 60.5,-3.6 9.3,20.9 13.9,32.9 28.4,33.9 0,0 -13.7,8.2 -25.5,-20.4 -12.3,-29.7 -15.5,-25.1 -61.5,-4.7 -24.5,10.9 -30.1,12.2 -39,5.9 z"
   id="path1673"
   inkscape:connector-curvature="0" />
	<path
   class="st3"
   d="m 484.3,205.6 c 0,0 8.2,-2.2 33.9,-14.3 25.7,-12.1 37.2,-15.7 43.5,-2.2 0,0 -5.3,-11.2 -40.8,6.9 -35.3,18.2 -36.6,9.6 -36.6,9.6 z"
   id="path1675"
   inkscape:connector-curvature="0" />
	<path
   class="st3"
   d="m 498.4,211.1 c 0,0 5.5,4.5 15.3,-1.2 9.8,-5.7 35.3,-18.3 49.6,-16.3 0,0 0.5,-12.1 -28.2,0.7 -28.7,12.7 -36.7,16.8 -36.7,16.8 z"
   id="path1677"
   inkscape:connector-curvature="0" />
	<path
   class="st3"
   d="m 510.4,216.2 c 0,0 4.6,3.5 10.8,0.7 6.2,-2.7 34,-18.6 46.1,-15.1 0,0 0.8,-11.5 -28.8,1.7 -18,8 -28.1,12.7 -28.1,12.7 z"
   id="path1679"
   inkscape:connector-curvature="0" />
	<path
   class="st3"
   d="m 524.5,221.8 c 0,0 10.5,-4.6 21,-10.2 10.4,-5.7 22,-9.8 26.9,-1.9 0,0 -5,-4 -25.2,6.7 -13.2,6.9 -19.8,9 -22.7,5.4 z"
   id="path1681"
   inkscape:connector-curvature="0" />
	<path
   class="st3"
   d="m 540.3,226.3 c 0,0 13.5,-6.5 16.6,-7.9 3.1,-1.3 15.1,-8 21.8,-1.3 0,0 -8.4,-0.4 -19.4,6.2 -11.2,6.6 -16.9,5.9 -19,3 z"
   id="path1683"
   inkscape:connector-curvature="0" />
	<path
   class="st3"
   d="m 554.1,231 c 0,0 8.3,4.1 16.3,-1 8,-5.1 11.9,-8.7 15.9,-8.9 -0.1,0 -5.3,-6.8 -32.2,9.9 z"
   id="path1685"
   inkscape:connector-curvature="0" />
	<path
   class="st3"
   d="m 246.1,288.2 c 0,0 2.3,13.1 -8.7,19.4 -12.3,7 0.7,19.7 -9.2,26.6 -11.1,7.7 -11.2,17.4 -11.2,17.4 l 48.4,-29.8 -48.4,38.9 -48.3,-38.9 c 0,0 9,-8.4 16.1,-5.6 10.4,4.1 9.3,-15.1 19.7,-11.6 8,2.7 12.5,-1.5 12.5,-1.5 l -29,-14.9 -20,33.6 5.8,10.8 42.6,28.1 1.2,-57.6 z"
   id="path1687"
   inkscape:connector-curvature="0" />
	<path
   class="st3"
   d="m 217.1,273.3 29,14.9 c 0,0 -18.5,-8.1 -26.4,-6.4 -7.9,1.7 -11.7,5 -20,4.8 -8.3,-0.2 -11.8,1.7 -11.8,1.7 z"
   id="path1689"
   inkscape:connector-curvature="0" />
	<path
   class="st3"
   d="m 632.2,366.2 c 0,0 2.3,13.1 -8.7,19.4 -12.3,7 0.7,19.7 -9.2,26.6 -11.1,7.7 -11.2,17.4 -11.2,17.4 l 48.4,-29.8 -48.3,38.9 -48.3,-38.9 c 0,0 9,-8.4 16.1,-5.6 10.4,4.1 9.3,-15.1 19.7,-11.6 8,2.7 12.5,-1.5 12.5,-1.5 l -29,-14.9 -20,33.6 5.8,10.8 42.6,28.1 1.2,-57.6 z"
   id="path1691"
   inkscape:connector-curvature="0" />
	<path
   class="st3"
   d="m 603.1,351.3 29,14.9 c 0,0 -18.5,-8.1 -26.4,-6.4 -7.9,1.7 -11.7,5 -20,4.8 -8.3,-0.2 -11.8,1.7 -11.8,1.7 z"
   id="path1693"
   inkscape:connector-curvature="0" />
	<path
   class="st3"
   d="m 435.1,463 c 0,0 2.3,13.1 -8.7,19.4 -12.3,7 0.7,19.7 -9.2,26.6 -11.1,7.7 -11.2,17.4 -11.2,17.4 l 48.4,-29.8 -48.4,38.8 -48.3,-38.9 c 0,0 9,-8.4 16.1,-5.6 10.4,4.1 9.3,-15.1 19.7,-11.6 8,2.7 12.5,-1.5 12.5,-1.5 l -29,-14.9 -20,33.6 5.8,10.8 42.6,28.1 1.2,-57.6 z"
   id="path1695"
   inkscape:connector-curvature="0" />
	<path
   class="st3"
   d="m 406,448.1 29,14.9 c 0,0 -18.5,-8.1 -26.4,-6.4 -7.9,1.7 -11.7,5 -20,4.8 -8.3,-0.2 -11.8,1.7 -11.8,1.7 z"
   id="path1697"
   inkscape:connector-curvature="0" />
	<path
   class="st3"
   d="m 570.2,100.5 c 0,0 -3.9,7.1 15.6,18.8 19.6,11.8 41.3,27.4 43.3,37.3 0,0 7.8,-11.3 -28.2,-33.6 -21.2,-13 -28.9,-19.8 -30.7,-22.5 z"
   id="path1699"
   inkscape:connector-curvature="0" />
	<path
   class="st3"
   d="m 568.5,82.3 c 0,0 6.1,13.4 42,35.9 35.9,22.5 29.2,38.1 20.8,48.3 l -4.2,-1.6 c 7,-9.4 12.1,-17.2 -5.5,-33 C 604,116.1 565.1,102.1 568.5,82.3 Z"
   id="path1701"
   inkscape:connector-curvature="0" />
	<path
   class="st3"
   d="m 572.9,116.1 c 28.9,23.4 56.8,31.6 51.4,47.9 0,0 -3.6,-10.7 -33.1,-29.1 -15.4,-9.6 -20,-13.2 -18.3,-18.8 z"
   id="path1703"
   inkscape:connector-curvature="0" />
	<path
   class="st3"
   d="m 574.8,129.6 c 0,0 -3.5,7.9 17.4,19.6 13.1,7.3 19.5,14 19.5,14 l 6,-1 c 0,0 -7.1,-8.4 -20.7,-17.3 -13.8,-8.8 -22.2,-15.3 -22.2,-15.3 z"
   id="path1705"
   inkscape:connector-curvature="0" />
	<path
   class="st3"
   d="m 577.3,145.2 30.7,21.3 -1,6 c -23,-16.1 -27.1,-15.4 -29.7,-27.3 z"
   id="path1707"
   inkscape:connector-curvature="0" />
	<path
   class="st3"
   d="m 581.7,161.9 c 0,0 17.3,11.4 23.8,17 l -1.4,6 c -12.4,-8.9 -23.5,-14.2 -22.4,-23 z"
   id="path1709"
   inkscape:connector-curvature="0" />
	<path
   class="st3"
   d="m 584.9,176.8 c 0,0 2.3,16 16.8,17.1 l 1.5,-5.4 z"
   id="path1711"
   inkscape:connector-curvature="0" />
	<g
   id="g1767">
		<path
   d="m 549.1,297 c -6.6,0.5 -21.8,-5.9 -47.6,-20 l -2.2,-1.2 c -10,-5.4 -20.2,-11 -29.8,-12.8 -11.2,-2.1 -19.3,1.5 -24.5,11.2 -14,25.8 -17.7,31.7 -30.9,32.5 0,0 0,0 0,-0.1 -8.7,-27.7 -22.6,-49.6 -22.7,-49.8 -0.1,-0.2 -0.2,-0.3 -0.4,-0.4 -6.6,-9.8 -22.1,-5.1 -33.4,1.9 -7.8,4.9 -11.7,10.8 -11.9,11.1 -0.3,0.5 -0.2,1.1 0.2,1.5 l 5.7,5.6 c -2,3 -3.4,6.1 -3.3,8.8 0,1.8 0.7,3.3 1.9,4.4 0.1,0.1 0.2,0.1 0.3,0.2 1.8,1.9 18.7,19 37.7,33.1 -0.3,0.7 -0.3,1.4 -0.1,2.2 -9.6,5.3 -17.1,2.2 -41.7,-9 -10,-4.5 -18.6,-2.6 -26.3,5.8 -6.5,7.2 -11.3,17.9 -16,28.2 l -1.1,2.4 c -12.2,27 -20.4,41.2 -25.9,44.7 -0.4,0.2 -0.6,0.6 -0.5,1.1 0,0.4 0.3,0.8 0.7,1 1.7,0.8 3.7,1.3 5.7,1.3 1.8,0 3.7,-0.3 5.5,-1 2.8,-1 5.4,-2.8 7.6,-5.2 0.8,0.2 2,0.4 3.6,0.4 3.2,0 7.8,-1.1 11.6,-6.1 1.1,0.4 2.2,0.6 3.3,0.6 3.5,0 7,-1.8 9.8,-5 1.3,0.5 2.7,0.7 4.1,0.7 1.5,0 3,-0.3 4.4,-0.8 2.7,-1 5,-2.9 6.9,-5.4 0.9,0.3 2.2,0.6 3.8,0.6 1.3,0 2.7,-0.2 4.2,-0.7 3.2,-1.2 5.9,-3.7 8,-7.5 0.7,0.1 1.7,0.3 2.9,0.3 3.3,0 8,-1.1 11.5,-6.5 0.4,0 0.9,0.1 1.5,0.1 1.1,0 2.6,-0.1 4.2,-0.5 3.3,-0.9 7.9,-3.2 10.7,-9.5 2.5,-5.5 2.3,-9.6 2.2,-13.1 -0.1,-3.6 -0.2,-6.5 2.4,-10.1 0.2,-0.3 0.5,-0.5 0.7,-0.8 1.8,1.9 4.1,3.6 5.7,3.7 0.1,0 0.2,0 0.3,0 0.3,0 0.5,0 0.8,0 1.1,3 2.3,5.8 3.5,8.6 -0.7,0.8 -1.2,1.8 -1.2,2.9 v 4.1 c 0,2.1 1.5,3.8 3.5,4.1 v 0.4 c -2,0.3 -3.5,2.1 -3.5,4.1 v 4.1 c 0,2.1 1.5,3.8 3.5,4.1 v 0.1 c -2,0.3 -3.5,2.1 -3.5,4.1 v 4.1 c 0,2.1 1.5,3.8 3.5,4.1 v 0.4 c -2,0.3 -3.5,2.1 -3.5,4.1 v 4.2 c 0,2.1 1.5,3.8 3.5,4.1 v 0.1 c -2,0.3 -3.5,2.1 -3.5,4.1 v 4.1 c 0,2.1 1.5,3.8 3.5,4.1 v 0.4 c -2,0.3 -3.5,2.1 -3.5,4.1 v 4.1 c 0,2.1 1.5,3.8 3.5,4.1 v 0.2 c -2,0.3 -3.5,2.1 -3.5,4.1 v 4.1 c 0,2.1 1.5,3.8 3.5,4.1 v 0.4 c -2,0.3 -3.5,2.1 -3.5,4.1 v 4.1 c 0,2.1 1.5,3.8 3.5,4.1 v 0.2 c -2,0.3 -3.5,2.1 -3.5,4.1 v 1.5 l -24.6,12.6 c -0.3,0.1 -0.5,0.4 -0.6,0.7 -0.5,0.9 -4.9,8.6 -8.8,15.5 -2.2,3.9 -4.5,7.9 -6.4,11.1 -2.3,4 -3.9,6.8 -3.9,6.8 -0.1,0.1 -0.1,0.2 -0.1,0.4 v 0.1 c 0,0.1 0,0.3 0,0.4 0,0 0,0 0,0.1 0,0.1 0,0.1 0.1,0.2 l 5,10.8 c 0.1,0.2 0.2,0.4 0.4,0.5 l 43.3,28.1 c 0,0 0.1,0 0.1,0.1 0,0 0.1,0 0.1,0.1 0.1,0 0.3,0.1 0.4,0.1 0.1,0 0.3,0 0.4,-0.1 0,0 0.1,0 0.1,-0.1 0,0 0.1,0 0.1,-0.1 l 43.3,-28.1 c 0.2,-0.1 0.3,-0.3 0.4,-0.5 l 4.9,-10.5 c 0.4,-0.4 0.5,-1 0.2,-1.5 -0.1,-0.1 -0.2,-0.2 -0.3,-0.3 l -18.8,-32.7 c 0,-0.2 -0.1,-0.3 -0.1,-0.5 -0.1,-0.3 -0.4,-0.4 -0.6,-0.6 l -0.1,-0.1 -25.1,-12.9 V 447 c 0,-2.1 -1.5,-3.8 -3.5,-4.1 v -0.2 c 2,-0.3 3.5,-2.1 3.5,-4.1 v -4.1 c 0,-2.1 -1.5,-3.8 -3.5,-4.1 V 430 c 2,-0.3 3.5,-2.1 3.5,-4.1 v -4.1 c 0,-2.1 -1.5,-3.8 -3.5,-4.1 v -0.2 c 2,-0.3 3.5,-2 3.5,-4.1 v -4.1 c 0,-2.1 -1.5,-3.8 -3.5,-4.1 v -0.4 c 2,-0.3 3.5,-2 3.5,-4.1 v -4.1 c 0,-2.1 -1.5,-3.8 -3.5,-4.1 v -0.1 c 2,-0.3 3.5,-2.1 3.5,-4.2 v -4.1 c 0,-2.1 -1.5,-3.8 -3.5,-4.1 v -0.4 c 2,-0.3 3.5,-2 3.5,-4.1 v -4.1 c 0,-2.1 -1.5,-3.8 -3.5,-4.1 v -0.1 c 2,-0.3 3.5,-2.1 3.5,-4.1 V 361 c 4,7.9 7.7,14.6 10.5,19.5 1.6,2.8 2.8,5 3.7,6.7 1,2 2.9,3.3 5.4,3.9 0.9,0.2 2,0.3 3,0.3 6,0 14,-3.3 21.8,-9 8.1,-6.1 12.8,-12.5 13.1,-18.3 0.1,-2.8 -0.8,-5.3 -2.7,-7 -1.4,-1.3 -3.3,-3.3 -5.8,-5.8 -5.1,-5.3 -12.6,-13 -22.3,-21.6 2.9,1.5 5.5,2 7.9,2 5.5,0 9.3,-3 10.8,-4.3 1.9,0.7 3.6,1 5.2,1 5.3,0 8.7,-3.2 10,-4.7 2.6,1.1 5,1.7 7.2,1.7 1.3,0 2.5,-0.2 3.7,-0.5 3.5,-1.1 5.5,-3.5 6.4,-4.7 1.6,0.4 3.1,0.7 4.7,0.7 4.5,0 8.4,-1.9 10.8,-5.5 1.2,0.3 2.4,0.4 3.6,0.4 4.1,0 7.7,-1.7 9.7,-4.8 1.6,0.4 3.2,0.6 4.6,0.6 5.4,0 9.1,-2.8 10.9,-5.2 3.2,0.5 6.2,0.3 9.1,-0.5 3.9,-1.2 7.1,-3.8 8.8,-7 0.2,-0.4 0.2,-0.8 -0.1,-1.2 -0.5,-0.6 -0.9,-0.7 -1.3,-0.7 z m -132,16.4 c 0.2,0.1 0.3,0.1 0.5,0.1 0.6,1 1.2,2.5 1,3.2 -0.6,2 -3.3,5.2 -6.8,8.1 0,-0.3 0,-0.5 0,-0.8 0,-3.4 -2.3,-6.2 -5.5,-6.9 2.4,-1.9 4.5,-3.8 5.8,-5.3 0.2,-0.2 0.5,-0.6 0.9,-1.1 0.8,1 2.1,2 4.1,2.7 z M 404,341.7 c 0.1,0 0.3,0.1 0.4,0.1 v 0.2 c -0.1,0 -0.2,0 -0.2,0 -0.1,0 -0.1,-0.2 -0.2,-0.3 z m 3.9,8.6 c 0,0.1 0,0.1 0,0.2 -0.6,-1.2 -1.1,-2.4 -1.7,-3.7 0.3,-0.2 0.6,-0.6 0.6,-1 v -1.3 c 0.6,0.3 1.1,0.9 1.1,1.7 z m -2.3,-13.4 c -0.7,0 -1.2,0.5 -1.2,1.2 v 1.3 c -0.6,-0.3 -1.1,-0.9 -1.1,-1.7 v -4.1 c 0,-0.1 0,-0.2 0,-0.3 0.4,-0.2 0.7,-0.3 1.1,-0.5 v 0.6 c 0,0.7 0.5,1.2 1.2,1.2 0.7,0 1.2,-0.5 1.2,-1.2 v -1.5 c 0.6,0.3 1.1,0.9 1.1,1.7 v 4.1 c 0,0.7 -0.5,1.4 -1.1,1.7 v -1.3 c 0,-0.7 -0.5,-1.2 -1.2,-1.2 z m -14.4,-14.7 c -15.6,-11.3 -29.9,-24.9 -36.1,-31 5.8,0 14.2,-3.7 21.1,-8.2 6.4,-4.2 10.2,-8.3 12.5,-11.9 v 0 c 0.3,-0.2 0.5,-0.6 0.6,-0.9 1.5,-2.5 2.2,-4.7 2.5,-6.2 0.1,-0.4 0.1,-0.8 0.2,-1.1 4.5,7.8 13.4,24.6 19.6,44.4 0,0.1 0,0.2 0.1,0.2 0,0.1 0.1,0.3 0.1,0.4 -0.1,0.8 -1.9,3.6 -7.5,7.8 -1.1,0.9 -2.3,1.6 -3.3,2.3 -0.1,0.1 -0.2,0.1 -0.4,0.2 -4.5,3 -8.3,4.5 -9.4,4 z m -4.5,-52.3 c -2.1,3.3 -5.7,7.1 -11.8,11 -2.5,1.6 -4.8,2.9 -7,4 l -3.3,-4 c 1.9,-0.7 5.2,-2.1 9,-4.9 4.6,-3.5 8.2,-8.3 9.4,-12.2 z m 15.5,50.3 v 0 c 0.8,-0.5 1.7,-0.8 2.6,-0.8 2.6,0 4.7,2.1 4.7,4.7 0,1.9 -1.1,3.5 -2.7,4.2 v -2.7 c 0,-0.7 -0.5,-1.2 -1.2,-1.2 -0.7,0 -1.2,0.5 -1.2,1.2 v 3.2 c -2.4,-0.2 -4.3,-2.2 -4.3,-4.7 0,-1.6 0.8,-3.1 2.1,-3.9 z m -53.9,-50.3 c 1.3,-1.7 4.8,-6 10.6,-9.5 13.8,-8.6 25.7,-9.5 30.3,-2.4 0.6,0.9 1,2.8 0.4,5.4 -0.2,1.1 -0.7,2.5 -1.5,4.1 l -4.9,-8.2 c -0.1,-0.2 -0.3,-0.3 -0.4,-0.4 -0.5,-0.6 -1.4,-1.4 -2.9,-1.5 -5.5,-0.7 -15.4,5.5 -20.4,10 -1.9,1.7 -4.4,4.3 -6.5,7.2 z m 5.5,7.6 c 0.1,-0.1 0.2,-0.1 0.3,-0.2 0.2,-0.2 0.3,-0.4 0.3,-0.7 1.9,-2.7 4.3,-5.3 6.7,-7.5 5.4,-4.9 14.3,-9.9 18.5,-9.4 0.7,0.1 1.2,0.3 1.4,0.7 0.9,1.4 -1.9,8.4 -8.7,13.6 -5.7,4.2 -9.9,5 -9.9,5 -0.4,0.1 -0.8,0.4 -0.9,0.8 -0.1,0.4 -0.1,0.8 0.2,1.2 l 4.1,5 c -6.9,3 -11.8,3.3 -13.7,2.1 C 352,288 352,288 352,288 c -0.1,-0.1 -0.2,-0.2 -0.3,-0.2 -0.7,-0.6 -1,-1.5 -1,-2.5 -0.1,-2.1 1.1,-4.9 3.1,-7.8 z m -66.2,119.9 c -2.5,0.9 -5.2,1.1 -7.5,0.5 5.8,-5.3 13.4,-18.9 25,-44.3 l 1.1,-2.4 c 4.6,-10.2 9.4,-20.7 15.6,-27.6 7,-7.7 14.5,-9.4 23.5,-5.3 26.9,12.2 34.4,15.2 46.2,7.5 0,0.7 -0.3,1.8 -1.3,3.3 -0.4,0.4 -0.7,0.8 -1,1.2 -4.1,4.5 -12.9,6.6 -40.4,-5.1 v 0 c 0,0 -0.1,0 -0.1,-0.1 -1.8,-0.8 -3.6,-1.6 -5.6,-2.4 -2.9,-1.3 -5.8,-1.5 -8.5,-0.4 -9.6,3.7 -17.5,21.8 -28.5,46.9 -2.4,5.4 -4.8,11 -7.5,16.9 -2.5,5.6 -6.4,9.6 -11,11.3 z m 10.2,-5 c 1.2,-1.6 2.2,-3.3 3,-5.2 2.7,-5.9 5.1,-11.5 7.5,-17 10.7,-24.5 18.5,-42.3 27.1,-45.6 2.2,-0.8 4.4,-0.7 6.7,0.3 0.3,0.2 0.7,0.3 1,0.5 -9.7,4.4 -19.8,29.7 -26.6,46.5 -1.8,4.4 -3.3,8.1 -4.5,10.7 -4.4,10.1 -11.2,10.3 -14.2,9.8 z m 14.9,-5.7 c 0.6,-0.9 1.1,-1.9 1.6,-3.1 1.2,-2.7 2.7,-6.4 4.5,-10.8 6.3,-15.6 16.8,-41.8 25.6,-45.3 1.2,-0.5 2.3,-0.5 3.3,-0.1 1.5,0.6 2.9,1.2 4.3,1.8 -8.9,4.9 -18.6,29.4 -23.9,42.7 -1.1,2.7 -1.9,4.9 -2.5,6.1 -3,6.5 -8.1,9.9 -12.9,8.7 z m 19.3,-4.6 c -2,0.8 -4.1,0.8 -6.1,0.3 0.7,-1 1.3,-2.2 1.9,-3.4 0.6,-1.2 1.4,-3.4 2.5,-6.2 4.6,-11.5 15.3,-38.5 23.4,-41.8 0.9,-0.4 1.8,-0.4 2.6,0 0.1,0.1 0.3,0.1 0.4,0.1 1.7,0.6 3.3,1.2 4.8,1.7 -6.7,4.2 -13,19.2 -19,34.5 -1.1,2.9 -2.1,5.3 -2.7,6.8 -0.4,0.9 -0.9,1.7 -1.3,2.5 -0.1,0.1 -0.3,0.2 -0.3,0.4 v 0.1 c -1.8,2.3 -3.9,4.1 -6.2,5 z m 14.9,-5.6 c -2.3,0.9 -4.4,0.6 -5.8,0.3 0.3,-0.6 0.6,-1.2 0.9,-1.8 0.7,-1.6 1.6,-3.9 2.8,-6.9 4.3,-11.1 13.2,-34.1 20.4,-34.1 0,0 0,0 0.1,0 0,0 0,0 0.1,0 2.7,0.8 5.1,1.4 7.4,1.8 -6.5,3.9 -10.6,14.2 -14.7,24.2 -1.1,2.8 -2.3,5.6 -3.4,8.2 -2.1,4.3 -4.7,7.1 -7.8,8.3 z m 9.9,-7.5 c 1.2,-2.6 2.3,-5.5 3.5,-8.3 4.8,-11.7 9.7,-23.9 17.8,-24.3 0.2,0 0.3,-0.1 0.5,-0.1 0.7,0 1.4,0 2.1,0 -3.3,3.7 -5.5,9.9 -8.3,17.2 -0.8,2.2 -1.6,4.4 -2.6,6.8 -0.4,1 -0.8,1.9 -1.3,2.7 -0.1,0.1 -0.2,0.2 -0.2,0.4 -3.7,6 -9,6 -11.5,5.6 z m 29.4,-27 c 0.1,3.5 0.3,7.1 -2,12 -3.5,7.8 -9.9,8.7 -13,8.7 0.2,-0.5 0.5,-1 0.7,-1.5 0.9,-2.4 1.8,-4.6 2.6,-6.8 3.5,-9.4 6.2,-16.7 10.8,-18.8 0.1,0 0.1,-0.1 0.2,-0.1 0.4,-0.1 0.8,-0.3 1.2,-0.5 -0.6,2.4 -0.5,4.7 -0.5,7 z m 11.4,-9.7 c -0.6,0 -2.5,-1.2 -4.5,-3.4 1,-2 0.9,-3.6 0.5,-4.6 1.3,-0.3 2.7,-0.9 4.2,-1.7 -0.1,0.4 -0.1,0.9 -0.1,1.4 0,3 1.8,5.5 4.4,6.6 -0.2,0.2 -0.4,0.5 -0.6,0.8 -1.3,0.5 -2.6,0.8 -3.7,0.8 -0.1,0.1 -0.1,0.1 -0.2,0.1 z m 5.7,18 v -4.1 0 c 0.5,1.1 1,2.2 1.4,3.2 -0.2,0.2 -0.3,0.5 -0.3,0.8 v 1.8 c -0.7,-0.3 -1.1,-1 -1.1,-1.7 z m 2.3,100.2 c -0.7,0 -1.2,0.5 -1.2,1.2 v 1.8 c -0.6,-0.3 -1.1,-0.9 -1.1,-1.7 v -1.1 l 2.6,-1.3 2,1 v 1.4 c 0,0.7 -0.5,1.4 -1.1,1.7 v -1.8 c 0,-0.7 -0.5,-1.2 -1.2,-1.2 z m -2.3,-2.8 c 0,-0.7 0.5,-1.4 1.1,-1.7 v 1.3 0.1 l -1.1,0.6 z m -40.8,42.6 v 0 c 1.8,-3.2 4.1,-7.2 6.4,-11.1 2.3,-4 4.5,-7.9 6.2,-10.8 1,-1.8 1.7,-3 2.2,-3.8 l 27.4,14.1 v 45.6 l -45.5,-28.1 c 0.7,-1.3 1.9,-3.4 3.3,-5.9 z m 72,-25.7 18.1,31.5 -45.5,28.2 v -45.7 z m -74.1,35 44.3,27.4 v 6.2 l -41.2,-26.7 z m 87.8,6.9 -41.2,26.7 v -6.1 l 44.3,-27.4 z M 432.5,463 405.9,476.6 379.4,463 400.9,452 c 0.1,2 1.5,3.7 3.5,4 v 0.3 c -3.1,0.6 -5.4,3.3 -5.4,6.5 0,0.7 0.5,1.2 1.2,1.2 0.7,0 1.2,-0.5 1.2,-1.2 0,-1.9 1.3,-3.5 3,-4 v 0.8 c 0,0.7 0.5,1.2 1.2,1.2 0.7,0 1.2,-0.5 1.2,-1.2 v -0.8 c 1.7,0.5 3,2.1 3,4 0,0.7 0.5,1.2 1.2,1.2 0.7,0 1.2,-0.5 1.2,-1.2 0,-3.2 -2.3,-5.9 -5.4,-6.5 V 456 c 2,-0.3 3.5,-2.1 3.5,-4.1 v -0.2 z m -24.6,-15.3 -1.1,-0.6 V 446 c 0.6,0.3 1.1,0.9 1.1,1.7 z m 0,-12.6 v 4.1 c 0,0.7 -0.5,1.4 -1.1,1.7 v -1.3 c 0,-0.7 -0.5,-1.2 -1.2,-1.2 -0.7,0 -1.2,0.5 -1.2,1.2 v 1.3 c -0.6,-0.3 -1.1,-0.9 -1.1,-1.7 v -4.1 c 0,-0.7 0.5,-1.4 1.1,-1.7 v 0.7 c 0,0.7 0.5,1.2 1.2,1.2 0.7,0 1.2,-0.5 1.2,-1.2 v -0.7 c 0.6,0.3 1.1,0.9 1.1,1.7 z m 0,-12.8 v 4.1 c 0,0.7 -0.5,1.4 -1.1,1.7 v -1.8 c 0,-0.7 -0.5,-1.2 -1.2,-1.2 -0.7,0 -1.2,0.5 -1.2,1.2 v 1.8 c -0.6,-0.3 -1.1,-0.9 -1.1,-1.7 v -4.1 c 0,-0.7 0.5,-1.4 1.1,-1.7 v 1.4 c 0,0.7 0.5,1.2 1.2,1.2 0.7,0 1.2,-0.5 1.2,-1.2 v -1.4 c 0.6,0.3 1.1,0.9 1.1,1.7 z m 0,-12.6 v 4.1 c 0,0.8 -0.4,1.4 -1.1,1.7 v -1.3 c 0,-0.7 -0.5,-1.2 -1.2,-1.2 -0.7,0 -1.2,0.5 -1.2,1.2 v 1.3 c -0.6,-0.3 -1.1,-0.9 -1.1,-1.7 v -4.1 c 0,-0.7 0.5,-1.4 1.1,-1.7 v 0.7 c 0,0.7 0.5,1.2 1.2,1.2 0.7,0 1.2,-0.5 1.2,-1.2 V 408 c 0.6,0.3 1.1,0.9 1.1,1.7 z m 0,-12.8 v 4.1 c 0,0.8 -0.4,1.4 -1.1,1.7 v -1.8 c 0,-0.7 -0.5,-1.2 -1.2,-1.2 -0.7,0 -1.2,0.5 -1.2,1.2 v 1.8 c -0.6,-0.3 -1.1,-0.9 -1.1,-1.7 v -4.1 c 0,-0.7 0.5,-1.4 1.1,-1.7 v 1.4 c 0,0.7 0.5,1.2 1.2,1.2 0.7,0 1.2,-0.5 1.2,-1.2 v -1.4 c 0.6,0.3 1.1,0.9 1.1,1.7 z m 0,-12.6 v 4.1 c 0,0.8 -0.4,1.5 -1.1,1.8 v -1.4 c 0,-0.7 -0.5,-1.2 -1.2,-1.2 -0.7,0 -1.2,0.5 -1.2,1.2 v 1.4 c -0.6,-0.3 -1.1,-0.9 -1.1,-1.7 v -4.2 c 0,-0.7 0.5,-1.4 1.1,-1.7 v 0.7 c 0,0.7 0.5,1.2 1.2,1.2 0.7,0 1.2,-0.5 1.2,-1.2 v -0.7 c 0.6,0.3 1.1,0.9 1.1,1.7 z m 0,-12.8 v 4.1 c 0,0.8 -0.4,1.4 -1.1,1.7 v -1.7 c 0,-0.7 -0.5,-1.2 -1.2,-1.2 -0.7,0 -1.2,0.5 -1.2,1.2 v 1.7 c -0.6,-0.3 -1.1,-0.9 -1.1,-1.7 v -4.1 c 0,-0.7 0.5,-1.4 1.1,-1.7 v 1.4 c 0,0.7 0.5,1.2 1.2,1.2 0.7,0 1.2,-0.5 1.2,-1.2 v -1.4 c 0.6,0.3 1.1,0.9 1.1,1.7 z m 0,-8.4 c 0,0.7 -0.5,1.4 -1.1,1.7 v -1.4 c 0,-0.7 -0.5,-1.2 -1.2,-1.2 -0.7,0 -1.2,0.5 -1.2,1.2 v 1.4 c -0.6,-0.3 -1.1,-0.9 -1.1,-1.7 V 359 c 0,-0.7 0.5,-1.4 1.1,-1.7 v 0.7 c 0,0.7 0.5,1.2 1.2,1.2 0.7,0 1.2,-0.5 1.2,-1.2 v -0.7 c 0.6,0.3 1.1,0.9 1.1,1.7 z m -1.1,-8.3 v -0.4 c 0.1,0 0.2,0 0.3,-0.1 0.1,0.2 0.2,0.4 0.3,0.6 -0.2,0 -0.4,0 -0.6,-0.1 z m 50.8,-1.9 c 2.5,2.6 4.5,4.6 5.9,6 1.3,1.2 2,3 1.9,5.1 -0.2,4.9 -4.7,10.9 -12.1,16.5 -8.5,6.3 -17.4,9.5 -22.8,8.3 -1.8,-0.4 -3.1,-1.3 -3.8,-2.7 -0.9,-1.7 -2.1,-3.9 -3.7,-6.8 -3.5,-6.3 -8.6,-15.3 -13.8,-26.1 0.7,-0.8 1.1,-1.8 1.1,-2.9 v -4.1 c 0,-2.1 -1.5,-3.8 -3.5,-4.1 v -0.2 c 2,-0.3 3.5,-2.1 3.5,-4.1 v -4.1 c 0,-1.3 -0.6,-2.5 -1.6,-3.3 5,-3.4 9.7,-8 11.6,-11.3 17.2,13.1 29.7,26 37.3,33.8 z m -36.5,-36.4 c 0,-0.7 -0.2,-1.5 -0.4,-2.1 3,1.4 4.4,3.4 6.2,5.9 0.4,0.6 0.9,1.2 1.3,1.9 -2.3,-1.9 -4.7,-3.8 -7.1,-5.7 z m 16.6,10.8 c -4.8,-2.6 -6.9,-5.6 -8.9,-8.4 -1.3,-1.9 -2.6,-3.8 -4.7,-5.3 0.6,-0.1 1.2,-0.3 1.8,-0.6 4.9,-0.9 11.3,3.2 19.3,8.3 2.1,1.3 4.2,2.7 6.5,4.1 0.5,0.3 1,0.6 1.5,0.8 -2.4,2 -8,5.1 -15.5,1.1 z m 18.3,-2.4 c -0.1,-0.1 -0.2,-0.1 -0.3,-0.1 -0.8,-0.4 -1.7,-0.8 -2.7,-1.4 -2.3,-1.4 -4.4,-2.7 -6.5,-4.1 -6.4,-4.1 -11.8,-7.5 -16.5,-8.5 0.7,-0.5 1.5,-1.1 2.2,-1.7 6.7,-4 17.7,2.5 28.2,8.7 2.7,1.6 5.4,3.2 8.1,4.6 0,0 0.1,0 0.1,0.1 -1.7,1.9 -5.9,5.1 -12.6,2.4 z m 25.1,-2.4 c -3.2,1 -7.1,0.3 -11.4,-2.1 -2.6,-1.4 -5.3,-3 -8,-4.6 -9,-5.4 -18.3,-10.9 -25.7,-10.3 1.6,-1.7 3.3,-3.8 5,-6.1 6,-3.9 26.7,8.8 36.7,15 2.7,1.7 4.9,3 6.4,3.8 0.6,0.3 1.2,0.6 1.9,0.9 -1,1.2 -2.5,2.7 -4.9,3.4 z m 4.1,-6.3 c -1.4,-0.8 -3.7,-2.2 -6.3,-3.8 -13.9,-8.6 -27.8,-16.6 -35.8,-16.1 0.9,-1.3 1.8,-2.7 2.7,-4.1 0.1,-0.1 0.1,-0.1 0.2,-0.2 0.4,-0.8 1.1,-1.3 2.1,-1.5 8.4,-2.3 32.2,12.1 43.6,19 2.7,1.6 4.8,2.9 6,3.6 1.2,0.6 2.3,1.1 3.5,1.5 -3.6,4.7 -10.8,4.5 -16,1.6 z m 13.7,-5.3 c -1.2,-0.6 -3.3,-1.9 -5.9,-3.5 -12.2,-7.4 -34.5,-20.9 -44.5,-19.4 0.8,-1.4 1.7,-2.8 2.5,-4.4 0.6,-0.8 1.4,-1.3 2.5,-1.6 9.2,-2.5 33.3,12 47.7,20.6 4.1,2.4 7.6,4.6 10.2,6 1.1,0.6 2.2,1.1 3.3,1.5 -3.2,3.8 -9.4,4.3 -15.8,0.8 z m 13.6,-4.5 c -2.5,-1.4 -6,-3.5 -10.1,-5.9 -16.4,-9.8 -38.8,-23.3 -49.2,-20.9 0.2,-0.3 0.3,-0.5 0.5,-0.8 1.2,-2.3 2.9,-3.7 5.1,-4.3 8.8,-2.6 25.5,6.8 48.7,19.7 5.3,3 10.8,6 16.7,9.2 1.9,1 3.8,1.8 5.6,2.3 -2.2,2.2 -7.7,6 -17.3,0.7 z m 28.3,-3 c -2.7,0.8 -5.6,0.9 -8.6,0.3 -0.1,0 -0.1,0 -0.2,0 -2.2,-0.5 -4.5,-1.3 -6.7,-2.5 -5.9,-3.2 -11.4,-6.2 -16.7,-9.2 -23.7,-13.2 -40.8,-22.7 -50.5,-19.9 -2.8,0.8 -5,2.7 -6.5,5.5 -0.9,1.7 -1.9,3.4 -2.8,4.9 -0.1,0.1 -0.2,0.2 -0.2,0.4 0,0.1 0,0.1 0,0.2 -3.5,6.1 -6.6,11 -9.5,14.8 -0.1,0.1 -0.1,0.2 -0.2,0.3 -3,4.1 -5.7,7 -8,9.1 -0.1,0.1 -0.2,0.1 -0.3,0.2 -0.1,0.1 -0.3,0.2 -0.3,0.4 -1.7,1.4 -3.3,2.4 -4.7,3 -0.1,0 -0.3,0 -0.4,0.1 -0.2,0 -0.4,0.2 -0.5,0.3 -1.6,0.5 -3.1,0.7 -4.4,0.5 -0.7,-0.2 -1.4,-0.4 -2.2,-0.6 -0.1,0 -0.2,0 -0.3,0 -1.5,-0.6 -2.3,-1.3 -2.7,-1.9 13.9,-1 18.2,-7.9 32.2,-33.7 4.8,-8.8 11.8,-11.9 22,-10 9.2,1.7 19.3,7.2 29.1,12.6 l 2.2,1.2 c 24.1,13.1 38.8,19.5 46.7,20.2 -1.8,1.6 -3.9,3 -6.5,3.8 z"
   id="path1713"
   inkscape:connector-curvature="0" />
		<path
   d="m 266.4,321.1 c -0.1,-0.1 -0.2,-0.2 -0.3,-0.3 L 247.3,288 c 0,-0.1 0,-0.2 -0.1,-0.3 -0.2,-0.3 -0.5,-0.5 -0.8,-0.6 l -24.8,-12.7 v -1.2 c 0,-2.1 -1.5,-3.8 -3.5,-4.1 V 269 c 0.9,-0.2 1.8,-0.6 2.4,-1.3 0.8,-0.8 1.1,-1.9 1.1,-2.9 v -4.1 c 0,-2.1 -1.5,-3.8 -3.5,-4.1 V 256 c 0.9,-0.2 1.8,-0.6 2.4,-1.3 0.8,-0.8 1.1,-1.9 1.1,-2.9 v -4.1 c 0,-2.1 -1.5,-3.8 -3.5,-4.1 v -0.2 c 0.9,-0.2 1.8,-0.6 2.4,-1.3 0.8,-0.8 1.1,-1.9 1.1,-2.9 v -4.1 c 0,-2.1 -1.5,-3.8 -3.5,-4.1 v -0.4 c 0.9,-0.2 1.8,-0.6 2.4,-1.3 0.8,-0.8 1.2,-1.9 1.1,-3 v -4.1 c 0,-2.1 -1.5,-3.8 -3.5,-4.1 V 218 c 0.9,-0.1 1.8,-0.6 2.4,-1.3 0.8,-0.8 1.1,-1.8 1.1,-2.9 v -4.1 c 0,-2.1 -1.5,-3.8 -3.5,-4.1 v -0.4 c 0.9,-0.2 1.8,-0.6 2.4,-1.3 0.8,-0.8 1.1,-1.9 1.1,-2.9 v -4 c 0,-2.1 -1.5,-3.8 -3.5,-4.1 v -0.1 c 0.9,-0.2 1.8,-0.6 2.4,-1.3 0.8,-0.8 1.1,-1.9 1.1,-2.9 v -4.1 c 0,-2.1 -1.5,-3.8 -3.5,-4.1 v -0.5 c 0.9,-0.1 1.8,-0.6 2.4,-1.3 0.8,-0.8 1.1,-1.8 1.1,-2.9 v -4.1 c 0,-2.1 -1.5,-3.8 -3.5,-4.1 v -0.1 c 0.9,-0.2 1.8,-0.6 2.4,-1.3 0.8,-0.8 1.1,-1.9 1.1,-2.9 v -2.4 c 0.4,-0.7 0.9,-1.4 1.4,-2.1 0.1,0 0.1,0 0.2,0 0.2,0 0.4,0 0.6,0 0.9,-0.1 2.1,-0.2 3.5,-1.4 l 0.1,0.1 c 1.5,3.3 1,5.7 0.3,8.6 -0.7,3.1 -1.5,6.5 -0.2,11.6 2.3,9.4 9.9,11 12.5,11.3 2.9,6.8 8.7,7.6 11.2,7.6 0.1,0 0.1,0 0.2,0 1.2,3.6 3.1,6.2 5.7,7.7 2,1.2 4,1.5 5.5,1.5 0.5,0 0.9,0 1.3,-0.1 2.1,4.1 5.9,7.2 10.5,7.2 0.5,0 1.1,-0.1 1.7,-0.2 2.3,3.8 5.6,6 9.3,6 0.4,0 0.9,0 1.3,-0.1 3,5.7 7.7,7.3 11.1,7.3 0.4,0 0.7,0 1.1,-0.1 1.5,2.3 3.5,4.2 5.7,5.6 2.2,1.2 4.5,1.9 6.7,1.9 1,0 2,-0.1 2.9,-0.4 0.4,-0.1 0.7,-0.4 0.8,-0.9 0.1,-0.4 0,-0.9 -0.3,-1.2 -4.1,-4 -8.9,-17.4 -15.1,-42.3 l -0.5,-2 c -3.3,-13.5 -7,-28.7 -16.5,-34.5 -4.1,-2.5 -9,-3 -14.5,-1.6 -22.4,5.5 -29.5,6.9 -36.6,1.4 0.7,-1.6 0.6,-3.2 0.1,-4.2 11.9,-13.9 26.8,-25.4 30.9,-28.4 0.6,-0.2 1.1,-0.6 1.5,-1 0.4,-0.4 0.9,-1.2 0.7,-2.5 -0.2,-1.9 -1.8,-4.5 -4,-7 l 3,-2.4 c 0.3,-0.2 0.4,-0.5 0.4,-0.8 0,-0.3 -0.1,-0.6 -0.3,-0.9 -0.2,-0.2 -4,-4.7 -10.5,-9.2 -8.6,-5.9 -17.2,-8.9 -22.3,-7.6 -1.7,0.4 -3.1,1.3 -3.9,2.6 -0.2,0.1 -0.3,0.3 -0.4,0.6 0,0 0,0.2 -0.1,0.4 -0.2,0.4 -0.3,0.9 -0.4,1.3 -1.9,6 -8.6,26.5 -17.3,42.1 -11.5,-1.3 -14.4,-6.6 -25.2,-29.9 -2.4,-5.2 -5.9,-8.7 -10.4,-10.3 -10.5,-3.8 -24.8,2.9 -37.4,8.8 l -1.7,0.8 C 110.8,115 97.4,119.7 91.9,119 c -0.4,-0.1 -0.9,0.1 -1.1,0.5 -0.3,0.3 -0.3,0.8 -0.1,1.2 1.3,2.9 4,5.4 7.4,6.6 2.4,0.9 5,1.2 7.7,0.9 1.6,2.4 5,5.2 10.2,5.2 0.9,0 2,-0.1 3,-0.3 1.1,1.8 2.8,3.2 4.9,4 1.3,0.5 2.7,0.7 4.2,0.7 0.7,0 1.5,-0.1 2.2,-0.2 1.9,3.1 5.5,5.4 10.1,5.4 1,0 2,-0.1 3.1,-0.3 0.8,1.2 2.4,3.3 5.4,4.4 1.3,0.5 2.6,0.7 4,0.7 1.7,0 3.6,-0.4 5.6,-1.1 1.2,1.5 4.3,4.6 9.2,4.6 1.1,0 2.4,-0.2 3.7,-0.5 1.3,1.3 4.8,4.3 10,4.3 2,0 4.2,-0.4 6.7,-1.6 4.8,-2.2 7,-5 8.9,-7.4 1.7,-2.1 3.1,-3.9 6,-4.9 -0.3,0.7 -0.5,1.6 -0.4,2.3 -18.1,19.8 -36.3,35.6 -37.1,36.3 -1.1,0.9 -1.6,2.1 -1.6,3.5 0,3.9 1.5,11.6 11.3,18.5 1.7,1.2 3.6,2.3 5.6,3.4 0.4,0.2 0.8,0.2 1.2,0 l 3.1,-1.9 0.7,3.4 c 0.1,0.4 0.4,0.8 0.8,0.9 3.4,1 6.4,1.3 8.6,1.3 0.7,0 1.4,0 2,-0.1 2.2,-0.1 4.1,-1.7 4.8,-3.8 1.7,-5.4 5.3,-16.2 10.7,-27.7 0.6,1.3 1.7,2.2 3.1,2.4 v 0.5 c -2,0.3 -3.5,2.1 -3.5,4.1 v 4.1 c 0,2.1 1.5,3.8 3.5,4.1 v 0.1 c -2,0.3 -3.5,2.1 -3.5,4.1 v 4.1 c 0,2.1 1.5,3.8 3.5,4.1 v 0.4 c -2,0.3 -3.5,2.1 -3.5,4.1 v 4.1 c 0,2.1 1.5,3.8 3.5,4.1 v 0.1 c -2,0.3 -3.5,2.1 -3.5,4.1 v 4.2 c 0,2.1 1.5,3.8 3.5,4.1 v 0.4 c -2,0.3 -3.5,2.1 -3.5,4.1 v 4.1 c 0,2.1 1.5,3.8 3.5,4.1 v 0.2 c -2,0.3 -3.5,2.1 -3.5,4.1 v 4.1 c 0,2.1 1.5,3.8 3.5,4.1 v 0.4 c -2,0.3 -3.5,2.1 -3.5,4.1 v 4.1 c 0,2.1 1.5,3.8 3.5,4.1 v 0.1 c -2,0.3 -3.5,2.1 -3.5,4.1 v 1.3 l -24.8,12.7 c -0.1,0 -0.1,0.1 -0.2,0.1 0,0 -0.1,0 -0.1,0.1 -0.1,0.1 -0.2,0.2 -0.3,0.3 0,0 -9.7,17 -15.3,26.8 -2.3,4 -3.9,6.8 -3.9,6.8 -0.1,0.1 -0.1,0.2 -0.1,0.4 v 0.1 c 0,0.1 0,0.3 0,0.4 0,0 0,0 0,0.1 0,0.1 0,0.1 0.1,0.2 l 5,10.8 c 0.1,0.2 0.2,0.4 0.4,0.5 l 43,27.9 c 0.2,0.2 0.5,0.4 0.9,0.4 v 0 c 0,0 0,0 0.1,0 0.2,0 0.5,-0.1 0.7,-0.2 l 43.3,-28.1 c 0.2,-0.1 0.3,-0.3 0.4,-0.5 l 4.9,-10.5 c 0.2,0.4 0.3,-0.2 0,-0.7 z m -48.3,-17.3 27.5,-14 18.2,31.6 -45.6,28.2 v -45.8 z m 1.1,-26.6 c 0,0.6 -0.2,0.9 -0.4,1.2 -0.2,0.2 -0.4,0.3 -0.7,0.4 v -1.7 c 0,-0.7 -0.5,-1.2 -1.2,-1.2 -0.7,0 -1.2,0.5 -1.2,1.2 v 1.7 c -0.6,-0.3 -1.1,-0.9 -1.1,-1.7 v -1.3 l 2.4,-1.2 2.2,1.1 z m 0,-4.1 -1.1,-0.6 v -1.1 c 0.6,0.3 1.1,0.9 1.1,1.7 z M 204.9,143.4 c -0.1,-0.4 0.3,-1.7 0.9,-2.8 v -0.1 c 2.1,-0.6 3.2,-1.5 3.9,-2.4 0.4,0.6 0.8,1.1 1.1,1.3 1,1.1 2.7,2.6 4.6,4.1 -2.8,0.7 -4.8,3.3 -4.7,6.3 0,0.1 0,0.1 0,0.2 -2.9,-2.3 -5.2,-4.9 -5.8,-6.6 z m 12,6.5 c -0.7,0 -1.2,0.5 -1.2,1.2 v 2.3 c -0.5,-0.2 -1,-0.5 -1.4,-0.8 -0.8,-0.7 -1.2,-1.7 -1.2,-2.7 -0.1,-2.1 1.6,-4 3.8,-4 2.2,-0.1 4,1.6 4,3.8 0,1 -0.3,2 -1.1,2.8 -0.5,0.5 -1.1,0.9 -1.7,1.1 v -2.3 c 0,-0.9 -0.5,-1.4 -1.2,-1.4 z m -2.3,9.2 c 0,-0.7 0.5,-1.4 1.1,-1.7 v 1.5 c 0,0.7 0.5,1.2 1.2,1.2 0.7,0 1.2,-0.5 1.2,-1.2 v -1.4 c 0.1,0.1 0.3,0.1 0.4,0.2 0.4,0.3 0.7,0.8 0.7,1.4 v 1 c -0.5,0.8 -1,1.7 -1.5,2.5 -0.2,-0.2 -0.5,-0.3 -0.8,-0.3 -0.7,0 -1.2,0.5 -1.2,1.2 v 1.4 c -0.6,-0.3 -1.1,-0.9 -1.1,-1.7 z m 8.9,-2.8 c -1.1,0.1 -2.4,-0.2 -3.8,-0.7 0,0 -0.1,-0.1 -0.2,-0.1 0.8,-0.3 1.5,-0.8 2.1,-1.5 1.2,-1.2 1.8,-2.8 1.7,-4.5 0,-0.3 0,-0.5 -0.1,-0.8 1,0.5 2,1 2.9,1.4 -0.5,0.9 -1,2.5 -0.1,5 -1,1 -1.6,1.1 -2.5,1.2 z m 6.3,20.8 c -1.1,-4.6 -0.5,-7.6 0.2,-10.5 0.4,-1.9 0.8,-3.8 0.7,-5.9 0.1,0.1 0.3,0.2 0.4,0.3 0.1,0.1 0.2,0.3 0.3,0.3 3.6,2.4 4.7,9.1 6.2,17.6 0.4,2 0.7,4.2 1.2,6.4 0.1,0.4 0.2,0.8 0.3,1.2 -2.6,-0.6 -7.6,-2.4 -9.3,-9.4 z m 12.1,10.4 c 0,-0.1 -0.1,-0.2 -0.1,-0.3 -0.3,-0.7 -0.5,-1.6 -0.7,-2.5 -0.4,-2.2 -0.8,-4.3 -1.2,-6.3 -1.1,-6.5 -2.1,-12.1 -4.3,-15.8 0.6,0.1 1.2,0.2 1.8,0.3 h 0.1 c 6.7,1.7 8.9,12.6 11.2,23.2 0.5,2.6 1.1,5.3 1.7,7.9 -2,0.1 -6.3,-0.8 -8.5,-6.5 z m 16.3,14.6 c -2.5,-1.5 -4.3,-4.3 -5.3,-8.5 -0.6,-2.5 -1.2,-5.2 -1.7,-7.9 -1.8,-8.9 -3.7,-18 -8.4,-22.5 1.9,0 3.9,-0.1 6.2,-0.4 6,1.1 10,22.1 12,32.2 0.5,2.8 1,5.1 1.3,6.6 0.1,0.5 0.3,1 0.5,1.5 -1.2,0.2 -2.9,0.1 -4.6,-1 z m 7.5,2 V 204 c 0,-0.2 -0.1,-0.3 -0.2,-0.4 -0.3,-0.7 -0.6,-1.5 -0.8,-2.3 -0.4,-1.4 -0.8,-3.7 -1.3,-6.4 -2.6,-13.8 -5.6,-27.3 -10.6,-32.3 1.3,-0.2 2.6,-0.4 4,-0.6 0.1,0 0.3,0 0.4,0 0.7,-0.2 1.4,0 2.1,0.4 6.4,4.1 11.3,28.8 13.4,39.3 0.5,2.6 0.9,4.6 1.2,5.7 0.3,1.1 0.6,2.1 1,3.1 -3.5,0.1 -7.2,-1.9 -9.2,-6.4 z m 10.5,2.7 c -0.3,-1.1 -0.7,-3.1 -1.2,-5.6 -2.4,-12.1 -6.8,-34.3 -13.5,-40.2 1,-0.2 2,-0.4 3,-0.6 0.2,0.1 0.4,0.1 0.6,0 1,-0.2 1.9,-0.1 2.8,0.5 7,4.4 11.8,28.4 14.7,42.8 0.8,4 1.5,7.4 2.1,9.9 0.2,1 0.5,1.9 0.8,2.7 -4.1,0.2 -7.9,-3.5 -9.3,-9.5 z m 10.9,6.2 c -0.6,-2.4 -1.3,-5.8 -2.1,-9.8 -3.3,-16.4 -7.8,-38.7 -15.4,-44.1 0.2,-0.1 0.5,-0.1 0.7,-0.2 2.1,-0.5 4,-0.3 5.6,0.8 6.7,4.1 10.5,20.2 15.8,42.5 1.2,5.3 2.5,10.7 4,16.5 0.4,1.7 1,3.3 1.8,4.8 -2.8,-0.1 -8.2,-1.4 -10.4,-10.5 z m -18.5,-60.2 c 5,-1.2 9.1,-0.8 12.7,1.4 8.7,5.2 12.3,20 15.5,33 l 0.5,2 c 5.6,23 10.1,36.1 14.3,41.8 -1.9,0.1 -3.9,-0.5 -5.8,-1.6 -3.7,-2.1 -6.4,-6.1 -7.7,-11.3 -1.4,-5.8 -2.7,-11.2 -3.9,-16.4 -5.4,-22.8 -9.3,-39.3 -16.9,-44 -1.5,-0.9 -3.1,-1.4 -4.8,-1.4 -0.8,0 -1.7,0.1 -2.6,0.3 -28.9,7.1 -37.2,4.2 -40.3,-0.4 -0.2,-0.5 -0.5,-1 -0.8,-1.5 l -0.1,-0.1 c -0.5,-1.1 -0.6,-2 -0.6,-2.6 8.6,8.2 15.6,6.9 40.5,0.8 z m -40.7,-4.7 c -1.5,-0.5 -3.8,-1.5 -7,-3.6 -6,-3.8 -9.8,-7.8 -9.8,-8.9 0,0 0,-0.1 0.1,-0.2 7,-12.6 12.6,-28.2 15.5,-37 0.5,1.3 1.1,2.6 2,3.9 0.1,0.3 0.3,0.6 0.6,0.8 0.5,0.8 1.1,1.5 1.8,2.3 l 0.1,0.1 4.9,4.5 c 0,0 0.1,0 0.1,0.1 1.4,1.1 3,2.1 4.5,3 2.4,1.4 4.6,2.5 6.8,3.4 v 0 c 0.2,0.3 0.6,0.4 0.9,0.4 3.6,1.5 6.8,2.4 9.4,2.6 -6.6,5.3 -19.6,16.1 -29.9,28.6 z M 233,98.3 c 2.5,3.9 8.8,8.2 9.7,8.8 3.5,2.4 6.4,3.9 8.1,4.8 l -2.6,2.4 c -1.9,-0.9 -4.1,-1.9 -6.4,-3.3 -1.5,-0.8 -2.9,-1.8 -4.2,-2.8 l -4.8,-4.4 c -0.6,-0.6 -1.1,-1.3 -1.5,-1.9 z m 29.2,17.7 c 0,0.1 0,0.3 0,0.4 h -0.1 c 0,0 -0.4,0.3 -0.9,0.7 -1.8,0.5 -5.4,0.2 -10.5,-1.8 l 3.1,-2.9 c 0.3,-0.3 0.4,-0.7 0.4,-1.1 0,-0.4 -0.4,-0.7 -0.7,-0.9 0,0 -4.1,-1.6 -9.4,-5.3 -7.2,-4.8 -10.1,-9 -9.6,-9.7 0.9,-0.9 8.7,2.2 17.5,8.5 2,1.4 4,3.2 5.7,5 0,0.2 0.1,0.3 0.2,0.5 0.1,0.2 0.3,0.3 0.5,0.4 2.1,2.4 3.7,4.8 3.8,6.2 z M 231.5,90.1 c 4.4,-1.1 12.4,1.8 20.4,7.3 4.6,3.2 7.8,6.4 9.2,7.9 L 259,107 c -1.8,-1.9 -3.8,-3.6 -5.7,-4.9 -0.1,-0.1 -14.1,-10 -19.2,-8.9 -0.6,0.1 -1,0.4 -1.3,0.7 -0.3,0.1 -0.5,0.3 -0.7,0.6 l -2.3,5.2 c -1.2,-2.3 -1.7,-4.5 -1.4,-6.3 0.1,-0.4 0.2,-0.8 0.3,-1 0.1,-0.1 0.1,-0.3 0.2,-0.4 0.5,-1 1.4,-1.6 2.6,-1.9 z m -132.6,35 c -2.1,-0.8 -3.9,-2.1 -5,-3.6 6.9,-0.4 19.9,-5.1 41.4,-15.1 l 1.7,-0.8 c 12.2,-5.7 26,-12.2 35.5,-8.8 3.9,1.4 6.9,4.4 9.1,9.1 10.7,23.2 14.1,29.5 26,31.2 -0.4,0.4 -1.1,0.9 -2.4,1.2 v 0 c -0.5,0.1 -1,0.2 -1.4,0.3 -5.6,0.6 -13.1,-3.8 -25.8,-31.1 -1.2,-2.6 -3.1,-4.3 -5.5,-5.2 -1.3,-0.5 -2.7,-0.7 -4.4,-0.7 -8.9,0 -22.7,6.6 -40.7,15.3 -4.8,2.3 -9.7,4.7 -15,7.1 -4.8,2.2 -9.6,2.5 -13.5,1.1 z m 9.6,2.7 c 1.6,-0.4 3.2,-0.9 4.8,-1.6 5.3,-2.5 10.2,-4.8 15,-7.1 20.8,-10 35.7,-17.2 43.2,-14.5 1.9,0.7 3.2,2 4.2,3.9 0.1,0.2 0.2,0.4 0.3,0.6 -9.1,-2.5 -30.2,8.5 -44.3,15.8 -3.5,1.8 -6.5,3.4 -8.7,4.4 -1.3,0.6 -2.4,1 -3.5,1.3 -0.2,0 -0.3,0 -0.5,0.1 v 0 c -5.7,1.3 -9,-1.2 -10.5,-2.9 z m 16.2,7.1 c -1.3,-0.5 -2.4,-1.3 -3.2,-2.3 0.9,-0.3 1.7,-0.6 2.7,-1.1 2.2,-1 5.3,-2.6 8.8,-4.4 13.1,-6.8 35,-18.2 42.9,-15.5 1.1,0.4 1.8,1 2.2,1.9 0.1,0.2 0.2,0.3 0.4,0.4 0.5,0.9 0.9,1.8 1.4,2.7 -8.8,-1.5 -28.9,8.9 -39.9,14.7 -2.3,1.2 -4,2.1 -5.1,2.6 -1.3,0.6 -2.5,1 -3.8,1.3 -0.2,0 -0.4,0 -0.5,0.1 v 0 c -2.3,0.3 -4.3,0.2 -5.9,-0.4 z m 8.1,2.2 c 1,-0.3 1.9,-0.7 2.9,-1.1 1.1,-0.5 2.9,-1.4 5.2,-2.6 9.5,-5 31.9,-16.7 39.1,-14.3 0.8,0.3 1.3,0.7 1.6,1.3 0.1,0.1 0.1,0.2 0.2,0.3 0.7,1.2 1.3,2.4 2,3.4 -7,-0.8 -19.4,5.4 -31.7,12 -2.4,1.3 -4.5,2.4 -5.8,3 -6,2.9 -11.1,1.2 -13.5,-2 z m 16.8,7.8 c -1.9,-0.7 -3.1,-2 -3.8,-2.9 0.5,-0.2 1,-0.4 1.5,-0.6 1.4,-0.6 3.4,-1.7 5.9,-3.1 9.1,-4.9 28,-15 32.6,-10.9 1.2,1.9 2.4,3.6 3.6,5.1 -6.4,-0.8 -14.7,3.5 -22.8,7.6 -2.4,1.2 -4.9,2.5 -7.2,3.6 -0.4,0.2 -0.8,0.4 -1.2,0.5 0,0 0,0 -0.1,0 v 0 c -3.2,1.3 -6.1,1.5 -8.5,0.7 z m 11.1,0.9 c 2.3,-1.1 4.7,-2.3 7.1,-3.5 9.7,-5 19.7,-10.1 25.1,-5.9 0,0 0.1,0 0.2,0.1 0.4,0.4 0.9,0.8 1.3,1.1 -4.2,0.7 -9.1,3.4 -14.8,6.6 -1.8,1 -3.7,2 -5.7,3.1 -7.3,3.7 -11.5,0.4 -13.2,-1.5 z m 34.3,-1.2 c -1.9,2.3 -3.8,4.8 -8,6.7 -6.6,3.1 -11.2,0.3 -13.2,-1.5 0.4,-0.2 0.8,-0.4 1.2,-0.6 2,-1.1 3.9,-2.1 5.7,-3.1 7.5,-4.1 13.4,-7.4 17.6,-6.2 h 0.1 c 0.3,0.1 0.6,0.2 0.9,0.4 -1.8,1.3 -3,2.8 -4.3,4.3 z m 4.5,59.7 c -0.4,1.2 -1.4,2.1 -2.7,2.1 -2,0.2 -5.1,0.1 -9,-1 l -0.9,-4.4 c -0.1,-0.4 -0.3,-0.7 -0.7,-0.9 -0.4,-0.2 -0.8,-0.1 -1.1,0.1 l -4,2.4 c -1.7,-0.9 -3.3,-1.9 -4.8,-2.9 -9,-6.3 -10.3,-13 -10.3,-16.5 0,-0.7 0.3,-1.2 0.8,-1.7 0.8,-0.7 18.6,-16.1 36.6,-35.7 1.9,3 6.2,6.8 10.7,9.5 -1.2,0.7 -2,2.1 -2,3.6 v 4.1 c 0,1.8 1.2,3.4 2.9,4 -0.1,0.2 -0.2,0.4 -0.3,0.6 -1.5,0.6 -2.5,2.1 -2.5,3.9 v 1 c -6.5,13.1 -10.8,25.8 -12.7,31.8 z m 15.1,-28.6 v -2.5 c 0.4,-0.7 0.7,-1.4 1.1,-2.1 v 0.2 c 0,0.7 0.5,1.2 1.2,1.2 0.7,0 1.2,-0.5 1.2,-1.2 v -1.4 c 0.6,0.3 1.1,0.9 1.1,1.7 v 4.2 c 0,0.6 -0.2,0.9 -0.4,1.2 -0.2,0.2 -0.4,0.3 -0.7,0.4 v -1.7 c 0,-0.7 -0.5,-1.2 -1.2,-1.2 -0.7,0 -1.2,0.5 -1.2,1.2 v 1.7 c -0.7,-0.3 -1.1,-1 -1.1,-1.7 z m 0,12.9 v -4.1 c 0,-0.7 0.5,-1.4 1.1,-1.7 v 0.6 c 0,0.7 0.5,1.2 1.2,1.2 0.7,0 1.2,-0.5 1.2,-1.2 v -0.6 c 0.6,0.3 1.1,0.9 1.1,1.7 v 4.2 c 0,0.4 -0.1,0.8 -0.4,1.1 -0.2,0.2 -0.4,0.3 -0.7,0.4 v -1.4 c 0,-0.7 -0.5,-1.2 -1.2,-1.2 -0.7,0 -1.2,0.5 -1.2,1.2 v 1.4 c -0.7,-0.2 -1.1,-0.9 -1.1,-1.6 z m 0,12.5 V 197 c 0,-0.7 0.5,-1.4 1.1,-1.7 v 1.4 c 0,0.7 0.5,1.2 1.2,1.2 0.7,0 1.2,-0.5 1.2,-1.2 v -1.4 c 0.6,0.3 1.1,0.9 1.1,1.7 v 4.2 c 0,0.4 -0.1,0.8 -0.4,1.1 -0.2,0.2 -0.4,0.3 -0.7,0.4 V 201 c 0,-0.7 -0.5,-1.2 -1.2,-1.2 -0.7,0 -1.2,0.5 -1.2,1.2 v 1.8 c -0.7,-0.3 -1.1,-1 -1.1,-1.7 z m 0,12.8 v -4.1 c 0,-0.7 0.5,-1.4 1.1,-1.7 v 0.7 c 0,0.7 0.5,1.2 1.2,1.2 0.7,0 1.2,-0.5 1.2,-1.2 v -0.7 c 0.6,0.3 1.1,0.9 1.1,1.7 v 4.2 c 0,0.6 -0.2,0.9 -0.4,1.2 -0.2,0.2 -0.4,0.3 -0.7,0.4 v -1.3 c 0,-0.7 -0.5,-1.2 -1.2,-1.2 -0.7,0 -1.2,0.5 -1.2,1.2 v 1.3 c -0.7,-0.3 -1.1,-1 -1.1,-1.7 z m 0,12.6 v -4.2 c 0,-0.7 0.5,-1.4 1.1,-1.7 v 1.5 c 0,0.7 0.5,1.2 1.2,1.2 0.7,0 1.2,-0.5 1.2,-1.2 v -1.5 c 0.6,0.3 1.1,0.9 1.1,1.7 v 4.2 c 0,0.5 -0.1,0.9 -0.5,1.3 -0.2,0.2 -0.4,0.3 -0.6,0.4 v -1.8 c 0,-0.7 -0.5,-1.2 -1.2,-1.2 -0.7,0 -1.2,0.5 -1.2,1.2 v 1.8 c -0.7,-0.3 -1.1,-1 -1.1,-1.7 z m 0,12.8 v -4.1 c 0,-0.7 0.5,-1.4 1.1,-1.7 v 0.7 c 0,0.7 0.5,1.2 1.2,1.2 0.7,0 1.2,-0.5 1.2,-1.2 v -0.7 c 0.6,0.3 1.1,0.9 1.1,1.7 v 4.2 c 0,0.4 -0.1,0.8 -0.4,1.1 -0.2,0.2 -0.4,0.3 -0.7,0.4 v -1.4 c 0,-0.7 -0.5,-1.2 -1.2,-1.2 -0.7,0 -1.2,0.5 -1.2,1.2 v 1.4 c -0.7,-0.2 -1.1,-0.9 -1.1,-1.6 z m 0,12.6 v -4.1 c 0,-0.7 0.5,-1.4 1.1,-1.7 v 1.3 c 0,0.7 0.5,1.2 1.2,1.2 0.7,0 1.2,-0.5 1.2,-1.2 v -1.3 c 0.6,0.3 1.1,0.9 1.1,1.7 v 4.2 c 0,0.4 -0.1,0.8 -0.4,1.1 -0.2,0.2 -0.4,0.3 -0.7,0.4 v -1.8 c 0,-0.7 -0.5,-1.2 -1.2,-1.2 -0.7,0 -1.2,0.5 -1.2,1.2 v 1.8 c -0.7,-0.2 -1.1,-0.9 -1.1,-1.6 z m 0,12.8 v -4.1 c 0,-0.7 0.5,-1.4 1.1,-1.7 v 0.7 c 0,0.7 0.5,1.2 1.2,1.2 0.7,0 1.2,-0.5 1.2,-1.2 v -0.7 c 0.6,0.3 1.1,0.9 1.1,1.7 v 4.2 c 0,0.4 -0.1,0.8 -0.4,1.1 -0.2,0.2 -0.4,0.3 -0.7,0.4 V 265 c 0,-0.7 -0.5,-1.2 -1.2,-1.2 -0.7,0 -1.2,0.5 -1.2,1.2 v 1.4 c -0.7,-0.3 -1.1,-1 -1.1,-1.7 z m 0,8.4 c 0,-0.7 0.5,-1.4 1.1,-1.7 v 1.2 z m 1.1,8.2 v 0.4 c -3,0.6 -5.3,3.3 -5.3,6.5 0,0.7 0.5,1.2 1.2,1.2 0.7,0 1.2,-0.5 1.2,-1.2 0,-1.9 1.2,-3.4 2.9,-4 v 0.7 c 0,0.7 0.5,1.2 1.2,1.2 0.7,0 1.2,-0.5 1.2,-1.2 v -0.7 c 1.8,0.5 3.1,2.1 3.1,4 0,0.7 0.5,1.2 1.2,1.2 0.7,0 1.2,-0.5 1.2,-1.2 0,-3.3 -2.4,-6 -5.5,-6.5 v -0.4 c 0.9,-0.1 1.8,-0.6 2.4,-1.3 0.8,-0.8 1.1,-1.8 1.1,-2.9 V 277 l 21.8,11.2 -26.5,13.5 -26.4,-13.5 21.7,-11.1 v 0.1 c 0,2.1 1.5,3.8 3.5,4.1 z m -42.1,34.3 v 0 c 4.8,-8.4 12.6,-22 14.7,-25.8 l 27.3,14 v 45.6 l -45.4,-28 c 0.8,-1.2 2,-3.3 3.4,-5.8 z m -2.1,9.3 44.2,27.3 v 6.2 l -41.1,-26.6 z m 87.8,6.9 -41.3,26.8 v -6.1 L 262.4,325 Z"
   id="path1715"
   inkscape:connector-curvature="0" />
		<path
   d="m 652.2,398.9 -18.8,-32.7 c 0,-0.2 0,-0.4 -0.1,-0.5 -0.2,-0.4 -0.5,-0.6 -0.9,-0.6 l -25.2,-12.9 v -1 c 0,-2.1 -1.5,-3.8 -3.5,-4.1 V 347 c 0.9,-0.2 1.8,-0.6 2.4,-1.3 0.8,-0.8 1.2,-1.9 1.1,-2.9 v -4.1 c 0,-2.1 -1.5,-3.8 -3.5,-4.1 V 334 c 0.9,-0.2 1.8,-0.6 2.4,-1.3 0.8,-0.8 1.2,-1.9 1.1,-2.9 v -4.1 c 0,-2.1 -1.5,-3.8 -3.5,-4.1 v -0.2 c 0.9,-0.2 1.8,-0.6 2.4,-1.3 0.8,-0.8 1.2,-1.9 1.1,-2.9 v -4.1 c 0,-2.1 -1.5,-3.8 -3.5,-4.1 v -0.4 c 0.9,-0.2 1.8,-0.6 2.4,-1.3 0.8,-0.8 1.2,-1.9 1.1,-3 v -4.1 c 0,-2.1 -1.5,-3.8 -3.5,-4.1 V 296 c 0.9,-0.1 1.8,-0.6 2.4,-1.3 0.8,-0.8 1.1,-1.8 1.1,-2.9 v -4.1 c 0,-2.1 -1.5,-3.8 -3.5,-4.1 v -0.4 c 0.9,-0.2 1.8,-0.6 2.4,-1.3 0.8,-0.8 1.2,-1.9 1.1,-2.9 v -4 c 0,-2.1 -1.5,-3.8 -3.5,-4.1 v -0.1 c 0.9,-0.2 1.8,-0.6 2.4,-1.3 0.8,-0.8 1.2,-1.9 1.1,-2.9 v -4.1 c 0,-1.9 -1.3,-3.5 -3,-4 0.1,-0.3 0.2,-0.6 0.3,-0.9 0.6,-0.2 1.2,-0.6 1.6,-1 0.8,-0.8 1.1,-1.8 1.1,-2.9 V 250 c 1.5,-3.8 3.1,-7.5 4.8,-11.2 0.4,0 0.7,-0.1 1,-0.1 2.3,-0.5 6.2,-5.5 7.1,-9.1 0.5,-1.9 0.1,-3 -0.5,-3.8 12.4,-19.2 29.7,-35.4 29.9,-35.6 0.3,-0.2 0.4,-0.6 0.4,-0.9 0.2,-0.5 0.3,-1.2 0.1,-2.1 -0.5,-2 -2.5,-4.5 -5.1,-6.8 l 3,-3.2 c 0.2,-0.2 0.3,-0.6 0.3,-0.9 0,-0.3 -0.2,-0.6 -0.4,-0.8 -0.2,-0.2 -4.9,-4.3 -12.6,-8.3 -0.8,-0.4 -1.5,-0.7 -2.2,-1.1 0.6,-0.9 1.3,-1.8 1.9,-2.8 3.7,-5.3 5.1,-10.6 4.2,-15.9 -2.2,-12.3 -16.6,-22.3 -29.4,-31.2 l -1.9,-1.3 C 584.1,98.3 571.9,87.8 569.5,81.8 c -0.2,-0.4 -0.5,-0.7 -1,-0.7 -0.4,-0.1 -0.9,0.1 -1.1,0.5 -2.1,2.9 -3,6.8 -2.3,10.8 0.5,2.9 1.7,5.7 3.6,8.2 -1,2.2 -3.3,8.8 2.6,15.6 -1.5,2.6 -1.8,5.7 -0.7,8.9 0.5,1.6 1.4,3.2 2.6,4.6 -3.1,5.3 -1.3,11.2 2.5,15.6 -0.7,1.3 -1.9,4.2 -1.3,7.7 0.5,3.3 2.5,6.4 5.8,9.1 -1,2.3 -2.9,9 3.3,15 -0.3,1.1 -0.8,3.1 -0.6,5.6 0.2,3.4 1.7,8.2 7.2,12.1 3.6,2.5 6.6,3.5 9.3,4 -1.6,5.8 -3.5,11.6 -5.7,17.1 -11.9,-1.7 -15,-7.6 -26.1,-32.5 -2.5,-5.6 -6.2,-9.4 -10.9,-11.2 -11.1,-4.3 -26.5,2.6 -40.1,8.7 l -2,0.9 c -25.2,11.2 -39.7,16 -45.8,15.1 -0.4,-0.1 -0.9,0.1 -1.1,0.5 -0.3,0.3 -0.3,0.8 -0.2,1.2 1.3,3.2 4.2,5.8 7.8,7.2 2.6,1 5.4,1.4 8.3,1.1 1.6,2.6 5.3,5.7 11,5.7 1,0 2,-0.1 3.1,-0.3 1.9,3.5 5.6,5.3 10,5.3 0.6,0 1.3,0 2,-0.1 2.3,4.2 6.5,5.9 10.9,5.9 1.1,0 2.1,-0.1 3.2,-0.3 0.7,1.3 2.5,3.6 5.7,4.9 1.4,0.6 2.9,0.8 4.5,0.8 1.8,0 3.8,-0.4 5.8,-1.1 1.3,1.7 4.6,5.1 10,5.1 1.2,0 2.5,-0.2 3.8,-0.5 1.4,1.4 5.1,4.8 10.8,4.8 2.1,0 4.4,-0.4 6.9,-1.6 5.1,-2.3 7.5,-5.2 9.7,-7.8 2.1,-2.5 3.8,-4.5 7.5,-5.5 0,0 0,0 0.1,0 -0.3,1 -0.6,2.2 -0.4,3.3 -9.6,13.8 -21.1,28.6 -34.1,43.8 l -0.2,0.3 c -1,1.1 -1.4,2.6 -1.2,3.9 0.4,3.4 2.6,12 14.7,17.9 6.6,3.3 14.8,4.5 20.3,4.5 1.5,0 2.9,-0.1 3.9,-0.3 2.2,-0.4 4.1,-2.3 4.5,-4.7 0.5,-2.8 1.1,-6.3 2,-10.2 0.6,1.2 1.7,2.1 3.1,2.3 v 0.4 c -2,0.3 -3.5,2.1 -3.5,4.1 v 4.1 c 0,2.1 1.5,3.8 3.5,4.1 v 0.1 c -2,0.3 -3.5,2.1 -3.5,4.1 v 4.2 c 0,2.1 1.5,3.8 3.5,4.1 v 0.4 c -2,0.3 -3.5,2.1 -3.5,4.1 v 4.1 c 0,2.1 1.5,3.8 3.5,4.1 v 0.2 c -2,0.3 -3.5,2.1 -3.5,4.1 v 4.1 c 0,2.1 1.5,3.8 3.5,4.1 v 0.4 c -2,0.3 -3.5,2.1 -3.5,4.1 v 4.1 c 0,2.1 1.5,3.8 3.5,4.1 v 0.1 c -2,0.3 -3.5,2.1 -3.5,4.1 v 1.5 l -24.3,12.5 c -0.1,0 -0.1,0.1 -0.2,0.1 0,0 -0.1,0 -0.1,0.1 -0.1,0.1 -0.2,0.2 -0.3,0.3 0,0 -9.8,17 -15.4,26.8 -2.3,4 -3.9,6.8 -3.9,6.8 -0.1,0.1 -0.1,0.2 -0.1,0.4 v 0.1 c 0,0.1 0,0.3 0,0.4 0,0 0,0 0,0.1 0,0.1 0,0.1 0.1,0.2 l 5,10.8 c 0.1,0.2 0.2,0.4 0.4,0.5 l 43.3,28.1 c 0,0 0.1,0 0.1,0.1 0,0 0.1,0 0.1,0.1 0.1,0 0.3,0.1 0.4,0.1 0.1,0 0.3,0 0.4,-0.1 0,0 0.1,0 0.1,-0.1 0,0 0.1,0 0.1,-0.1 l 43.3,-28.1 c 0.2,-0.1 0.3,-0.3 0.4,-0.5 l 4.9,-10.5 c 0.4,-0.4 0.5,-1 0.2,-1.5 0.1,0.6 0,0.5 0,0.5 z m -48,-17.1 27.4,-14 18.1,31.6 -45.5,28.2 z m 25.3,-15.6 -26.5,13.5 -26.4,-13.6 21.2,-10.9 c 0.1,2 1.5,3.7 3.5,4 v 0.4 c -3,0.6 -5.3,3.3 -5.3,6.5 0,0.7 0.5,1.2 1.2,1.2 0.7,0 1.2,-0.5 1.2,-1.2 0,-1.9 1.2,-3.4 2.9,-4 v 0.7 c 0,0.7 0.5,1.2 1.2,1.2 0.7,0 1.2,-0.5 1.2,-1.2 v -0.7 c 1.8,0.5 3.1,2.1 3.1,4 0,0.7 0.5,1.2 1.2,1.2 0.7,0 1.2,-0.5 1.2,-1.2 0,-3.3 -2.4,-6 -5.5,-6.5 v -0.4 c 0.9,-0.1 1.8,-0.6 2.4,-1.3 0.8,-0.8 1.1,-1.8 1.1,-2.9 v -0.4 z m -26.5,-13.6 1.8,0.9 v 1.7 c 0,0.6 -0.2,0.9 -0.4,1.2 -0.2,0.2 -0.4,0.3 -0.7,0.4 v -1.7 c 0,-0.7 -0.5,-1.2 -1.2,-1.2 -0.7,0 -1.2,0.5 -1.2,1.2 v 1.7 c -0.6,-0.3 -1.1,-0.9 -1.1,-1.7 V 354 Z m 1.8,-1.8 -1.1,-0.6 v -0.9 c 0.6,0.4 1,0.9 1.1,1.5 z m -14,-125.5 c -0.2,-0.5 0.1,-2.1 0.6,-3.2 0,-0.1 0,-0.2 0,-0.2 2.3,-0.7 3.4,-2 4,-2.9 0.5,0.5 1,1 1.3,1.2 0.9,0.8 2.3,1.7 3.9,2.7 -0.9,0.3 -1.7,0.7 -2.5,1.3 -1.4,1.2 -2.2,2.8 -2.3,4.6 0,0.5 0,0.9 0,1.4 -2.4,-1.8 -4.4,-3.6 -5,-4.9 z m 15.8,-45.8 c 0.2,-0.3 0.3,-0.6 0.2,-0.9 0.3,-1.6 0.6,-3.1 0.9,-4.4 1.1,2.2 2.9,4.5 5.2,6.5 l 1.1,5.3 c 0.1,0.3 0.3,0.6 0.6,0.8 0.3,0.2 0.7,0.2 1,0.1 l 4.1,-1.4 c 1.6,0.9 3.1,1.6 4.8,2.3 2.8,1.1 5.4,2.1 7.9,2.8 0.2,0.2 0.5,0.2 0.8,0.2 3.7,1 7.1,1.6 9.8,1.6 0.4,0 0.9,0 1.3,0 -6.3,6.4 -18.7,19.7 -27.8,34.6 -2,-0.3 -5.2,-1.3 -9.4,-3.4 -6.7,-3.3 -10.4,-6.5 -10.5,-7.5 V 216 c 4.4,-12.3 7.9,-26.5 10,-36.5 z m 19.1,1.5 c 4.1,2.1 7.5,3.3 9.5,4 l -2.6,3.2 c -2.2,-0.6 -4.6,-1.5 -7.3,-2.6 -1.7,-0.7 -3.3,-1.5 -5,-2.4 -0.2,-0.1 -0.4,-0.2 -0.6,-0.2 -0.1,0 -0.3,0 -0.4,0.1 l -3.3,1.2 -0.9,-4.4 c -0.1,-0.3 -0.2,-0.5 -0.4,-0.6 -0.7,-0.6 -1.4,-1.3 -2,-1.9 l 1.4,-4.2 c 3.1,3.4 9.8,6.9 11.6,7.8 z m -27.5,47.9 c 0.1,-1.1 0.6,-2.2 1.5,-2.9 0.8,-0.7 1.8,-1 2.8,-1 0.1,0 0.2,0 0.3,0 1.1,0.1 2.2,0.6 2.9,1.5 0.7,0.9 1.1,2 1,3.1 -0.1,1.1 -0.6,2.2 -1.5,2.9 -0.3,0.3 -0.6,0.5 -1,0.6 -0.2,-0.1 -0.4,-0.1 -0.6,-0.1 v -3.9 c 0,-0.7 -0.5,-1.2 -1.2,-1.2 -0.7,0 -1.2,0.5 -1.2,1.2 v 3.9 c -0.2,0 -0.4,0.1 -0.5,0.1 -0.3,-0.2 -0.7,-0.4 -1,-0.6 -1,-0.8 -1.6,-2.2 -1.5,-3.6 z m 2,8.2 c 0,-0.5 0.2,-1 0.6,-1.3 0.2,0.1 0.4,0.2 0.5,0.3 v 0.8 c 0,0.7 0.5,1.2 1.2,1.2 0.6,0 1.1,-0.4 1.2,-1 0.4,0.2 0.8,0.3 1.1,0.4 v 3.8 c 0,0.4 -0.1,0.8 -0.4,1.1 -0.2,0.2 -0.4,0.3 -0.7,0.4 v -1.4 c 0,-0.7 -0.5,-1.2 -1.2,-1.2 -0.7,0 -1.2,0.5 -1.2,1.2 v 1.4 c -0.6,-0.3 -1.1,-0.9 -1.1,-1.7 z m 9.2,1.6 c -1.2,2.6 -2.4,5.2 -3.5,7.9 -0.6,-0.6 -1.4,-1 -2.2,-1.1 v -0.1 c 0.9,-0.2 1.8,-0.6 2.4,-1.3 0.8,-0.8 1.2,-1.9 1.1,-2.9 v -2.9 c 0.8,0.1 1.5,0.3 2.2,0.4 z m -6.9,11.8 c 0.7,0 1.2,-0.5 1.2,-1.2 v -1.4 c 0.6,0.3 1.1,0.9 1.1,1.6 -0.4,1.2 -0.9,2.4 -1.3,3.5 -0.2,-0.3 -0.6,-0.6 -1,-0.6 -0.7,0 -1.2,0.5 -1.2,1.2 v 1.7 c -0.6,-0.3 -1.1,-0.9 -1.1,-1.7 v -4.1 c 0,-0.7 0.5,-1.4 1.1,-1.7 v 1.4 c 0,0.7 0.5,1.3 1.2,1.3 z m -2.3,12.8 v -0.8 c 0,-0.6 0.3,-1 0.7,-1.4 -0.3,0.7 -0.5,1.5 -0.7,2.2 z m 1.1,4.9 v 0 z m 3.5,-5.7 v 4.2 c 0,0.4 -0.1,0.8 -0.4,1.1 -0.2,0.2 -0.4,0.3 -0.7,0.4 v -1.4 c 0,-0.7 -0.5,-1.2 -1.2,-1.2 -0.2,0 -0.4,0.1 -0.5,0.1 0.3,-1.1 0.6,-2.2 1,-3.3 0.4,-0.2 0.8,-0.6 0.8,-1.1 v -0.6 c 0.5,0.4 1,1 1,1.8 z m 7.7,-26.2 c -1.5,0.3 -3.4,0 -5.6,-0.6 -0.1,-0.4 -0.3,-0.7 -0.5,-1.1 1.5,-1.1 2.6,-2.9 2.8,-4.9 0.1,-0.9 0,-1.8 -0.3,-2.7 3.2,1.4 6.3,2.3 8.6,2.3 0.1,0 0.2,0 0.4,0 -1.2,3.2 -4.5,6.8 -5.4,7 z m 35.2,-48.6 c 0.1,0.4 0.1,0.6 0,0.8 -1,1.4 -5.1,2.2 -12.7,0.4 l 3.1,-3.7 c 0.3,-0.3 0.3,-0.7 0.2,-1.1 -0.1,-0.4 -0.4,-0.7 -0.8,-0.8 0,0 -4.6,-1.2 -10.8,-4.3 -7.5,-3.8 -11.2,-7.4 -11.6,-8.8 l 0.1,-0.4 v -0.1 h 0.1 c 2.6,-0.9 12.2,2.7 19.7,6.6 2.5,1.3 5.1,3.1 7.2,4.9 l 0.1,0.1 c 0.1,0.1 0.2,0.1 0.2,0.2 2.8,2.3 4.8,4.6 5.2,6.2 z m -2.4,-11.3 -2.2,2.3 c -2.2,-1.8 -4.7,-3.4 -7,-4.6 -0.7,-0.4 -16.5,-8.6 -21.6,-6.8 -1,0.4 -1.4,1 -1.6,1.4 -0.2,0.3 -0.2,0.7 -0.2,1 l -1.7,5.2 c -1.4,-2 -2.2,-4 -2.4,-5.8 0.3,-1.7 0.5,-2.7 0.5,-2.7 0,-0.1 0,-0.1 0,-0.1 0.4,-0.9 1.2,-1.5 2.4,-2 1.6,-0.6 3.7,-0.8 6.1,-0.5 0.2,0.1 0.4,0.2 0.6,0.2 0.1,0 0.3,0 0.4,-0.1 4.5,0.6 10.1,2.4 15.8,5.2 5.3,2.9 9.2,5.9 10.9,7.3 z M 568.4,84.8 c 4.1,6.6 16,16.7 38.1,32.1 l 1.9,1.3 c 12.4,8.6 26.4,18.4 28.4,29.7 0.8,4.7 -0.4,9.3 -3.8,14.1 -0.7,1.1 -1.4,2.2 -2.1,3.1 -1.6,-0.7 -3.1,-1.2 -4.6,-1.7 0,-0.1 0.1,-0.1 0.1,-0.2 0.9,-1.3 1.9,-2.7 2.9,-4.2 1.8,-2.6 2.5,-5.3 1.9,-8.2 -1.8,-9.9 -17.6,-20.7 -39.6,-35.8 -4.9,-3.3 -9.9,-6.8 -15.3,-10.6 -4.8,-3.4 -7.9,-7.8 -8.7,-12.5 -0.4,-2.5 -0.1,-5 0.8,-7.1 z m 2.1,17.8 c 1.3,1.4 2.8,2.7 4.4,3.8 5.3,3.8 10.4,7.2 15.3,10.6 21.5,14.7 37,25.3 38.6,34.2 0.4,2.2 -0.1,4.3 -1.6,6.3 -0.2,0.3 -0.4,0.5 -0.6,0.8 -2.7,-10.2 -25.1,-24.6 -40.1,-34.1 -3.8,-2.4 -7,-4.5 -9.3,-6.1 -8.7,-6.1 -7.8,-12.6 -6.7,-15.5 z m 2.7,15.4 c 0.8,0.7 1.7,1.5 2.7,2.2 2.3,1.6 5.6,3.7 9.4,6.1 14,8.9 37.3,23.9 39.2,33.1 0.2,0.9 0.1,1.8 -0.2,2.5 -0.2,0.2 -0.3,0.5 -0.5,0.7 -1.8,-0.5 -3.5,-0.8 -5.1,-1 -7.1,-9 -24.7,-20.2 -34.3,-26.2 -2.3,-1.4 -4.1,-2.6 -5.1,-3.3 -1.3,-0.9 -2.5,-2 -3.4,-3.1 -0.1,-0.2 -0.2,-0.3 -0.4,-0.4 v 0 c -1.1,-1.4 -2,-2.8 -2.5,-4.3 -0.8,-2.3 -0.7,-4.4 0.2,-6.3 z m 1.8,13.6 c 0.9,0.9 1.8,1.7 2.9,2.4 1,0.7 2.9,1.9 5.2,3.3 8.8,5.6 24.6,15.7 32.2,24 -1.8,0 -3.5,0.3 -4.8,0.8 -1.3,0.5 -2.4,1.3 -3.1,2.2 -6.4,-5.4 -14.6,-10.5 -20.7,-14.2 -2.6,-1.6 -4.8,-3 -6.2,-3.9 -6.3,-4.4 -7.5,-10.3 -5.5,-14.6 z m 1.8,21.1 c -0.4,-2.4 0.2,-4.4 0.8,-5.6 0.5,0.4 1,0.8 1.5,1.2 1.4,1 3.7,2.4 6.3,4 6.2,3.8 14.6,9 20.9,14.4 -0.2,0.8 -0.3,1.6 -0.2,2.5 -0.3,1.8 -0.8,4.3 -1.4,7.2 -4,-3.5 -9.1,-6.8 -14.1,-10 -2.4,-1.5 -4.9,-3.1 -7.1,-4.7 -3.8,-2.7 -6.1,-5.8 -6.7,-9 z m 5.4,11 v 0 c 2.3,1.6 4.8,3.2 7.2,4.7 5.3,3.4 10.8,7 14.8,10.7 -0.5,2.3 -1,4.8 -1.7,7.5 -2.7,-1.9 -5.9,-3.8 -9.3,-5.8 -1.6,-1 -3.3,-2 -5,-3 -0.9,-0.6 -1.8,-1.2 -2.5,-1.8 v 0 c -5.4,-4.8 -4.3,-10 -3.5,-12.3 z m 9.3,29.2 c -6.9,-4.9 -6.6,-11.2 -5.9,-14.1 0.4,0.3 0.9,0.7 1.4,1 1.7,1.1 3.4,2.1 5,3.1 3.8,2.3 7.2,4.3 9.9,6.3 -0.6,2.4 -1.2,4.9 -1.9,7.4 -2.4,-0.5 -5.2,-1.4 -8.5,-3.7 z m -115.3,10.6 c -2.3,-0.9 -4.2,-2.4 -5.5,-4.2 7.4,-0.2 21.6,-5 44.9,-15.4 l 2,-0.9 c 13.2,-5.9 28.1,-12.6 38.3,-8.6 4.2,1.6 7.3,4.8 9.6,9.9 11.3,25.1 14.8,31.9 27.5,33.9 -0.4,0.5 -1.2,1 -2.5,1.4 -0.1,0 -0.1,0 -0.2,0 -0.7,0.1 -1.4,0.2 -2,0.4 -5.6,0.3 -13,-4.2 -24.6,-28.7 v 0 c 0,0 0,-0.1 -0.1,-0.1 -0.8,-1.6 -1.5,-3.3 -2.3,-5.1 -1.2,-2.7 -3.1,-4.6 -5.7,-5.6 -1.5,-0.6 -3.1,-0.8 -5,-0.8 -9.5,0 -24.2,6.7 -43.3,15.5 -5.3,2.4 -10.8,4.9 -16.6,7.5 -2.1,0.9 -4.2,1.5 -6.3,1.8 -0.1,0 -0.2,0 -0.3,0 -2.8,0.3 -5.5,0 -7.9,-1 z m 10.1,3 c 1.7,-0.4 3.5,-0.9 5.2,-1.7 5.9,-2.6 11.4,-5.1 16.6,-7.5 22.3,-10.2 38.5,-17.6 46.4,-14.6 2,0.8 3.4,2.2 4.4,4.3 0.1,0.2 0.2,0.5 0.3,0.7 -9.6,-2.7 -32.3,8.5 -47.5,16.1 -3.9,1.9 -7.2,3.6 -9.6,4.7 -9.1,4 -13.9,0.2 -15.8,-2 z m 13.8,5.2 c 1,-0.3 2,-0.7 3.1,-1.1 2.5,-1.1 5.8,-2.8 9.7,-4.7 14.1,-7 37.8,-18.8 46.1,-15.8 1.1,0.4 1.8,1 2.2,1.9 0.6,1.4 1.3,2.7 1.9,4 -9.3,-1.9 -31.1,9 -43,14.9 -2.5,1.3 -4.5,2.3 -5.7,2.8 -1.4,0.6 -2.9,1.1 -4.2,1.3 0,0 0,0 -0.1,0 -4.2,0.8 -8,-0.4 -10,-3.3 z m 12.2,5.3 c 1.1,-0.3 2.2,-0.7 3.3,-1.2 1.2,-0.5 3.2,-1.5 5.8,-2.8 11.2,-5.6 34.5,-17.3 42.2,-14.5 0.9,0.3 1.5,0.8 1.8,1.5 0,0 0,0 0,0.1 0.8,1.5 1.5,2.9 2.3,4.2 -7.4,-1.1 -20.9,5.3 -34.4,12.2 -2.6,1.3 -4.9,2.5 -6.3,3.1 -5.1,2.3 -11.7,2 -14.7,-2.6 z m 18.1,8.8 c -2.1,-0.8 -3.4,-2.3 -4.1,-3.3 0.5,-0.2 1.1,-0.4 1.6,-0.6 1.5,-0.7 3.7,-1.8 6.4,-3.2 9.9,-5.1 30.5,-15.6 35.3,-11 0,0 0.1,0 0.1,0.1 1.3,2.1 2.6,3.9 3.9,5.5 -6.9,-1 -15.9,3.4 -24.8,7.7 -2.6,1.3 -5.2,2.6 -7.7,3.7 -0.4,0.2 -0.8,0.3 -1.2,0.5 -0.1,0 -0.2,0 -0.2,0.1 v 0 c -3.6,1.3 -6.7,1.5 -9.3,0.5 z m 11.8,1 c 2.5,-1.1 5.1,-2.4 7.7,-3.7 10.5,-5.2 21.4,-10.5 27.3,-5.9 v 0 c 0.5,0.5 1,1 1.6,1.4 -4.5,0.6 -9.7,3.4 -15.9,6.7 -2,1.1 -4.1,2.2 -6.3,3.3 -8.1,4.1 -12.7,0.3 -14.4,-1.8 z m 37.1,-0.5 c -2.1,2.5 -4.2,5.1 -8.8,7.1 -7.3,3.3 -12.2,0 -14.3,-1.9 0.4,-0.2 0.9,-0.4 1.3,-0.6 2.2,-1.1 4.3,-2.2 6.4,-3.3 8.1,-4.3 14.5,-7.7 18.8,-6.2 0.1,0 0.1,0 0.2,0 0.3,0.2 0.7,0.3 1,0.4 -1.9,1.2 -3.2,2.8 -4.6,4.5 z m 14.6,64.4 c -0.2,1.4 -1.3,2.5 -2.5,2.7 -4.5,0.7 -14.8,-0.1 -22.8,-4 -11,-5.4 -13,-13 -13.3,-16.1 -0.1,-0.7 0.1,-1.4 0.6,-2 l 0.2,-0.3 c 12.8,-14.9 24,-29.4 33.6,-43.1 1.8,2.1 5.1,4.6 8.8,6.7 0,0 0.1,0 0.1,0.1 -0.5,0.7 -0.8,1.5 -0.8,2.4 v 4.1 c 0,2.1 1.5,3.8 3.5,4.1 v 0.1 c -2,0.3 -3.5,2.1 -3.5,4.1 v 4.1 c 0,2.1 1.5,3.8 3.5,4.1 v 0.5 c -2,0.3 -3.5,2.1 -3.5,4.1 v 4.1 c 0,0.9 0.3,1.8 0.8,2.5 -2.3,8.7 -3.8,16.4 -4.7,21.8 z m 6.8,-20.2 c 0.2,0.1 0.4,0.1 0.6,0.2 v 0.1 c -0.3,0 -0.5,0.1 -0.7,0.2 0,-0.1 0,-0.3 0.1,-0.5 z m -0.5,8.6 V 275 c 0,-0.7 0.5,-1.4 1.1,-1.7 v 1.4 c 0,0.7 0.5,1.2 1.2,1.2 0.7,0 1.2,-0.5 1.2,-1.2 v -1.4 c 0.6,0.3 1.1,0.9 1.1,1.7 v 4.2 c 0,0.4 -0.1,0.8 -0.4,1.1 -0.2,0.2 -0.4,0.3 -0.7,0.4 V 279 c 0,-0.7 -0.5,-1.2 -1.2,-1.2 -0.7,0 -1.2,0.5 -1.2,1.2 v 1.8 c -0.7,-0.3 -1.1,-1 -1.1,-1.7 z m 0,12.8 v -4.1 c 0,-0.7 0.5,-1.4 1.1,-1.7 v 0.7 c 0,0.7 0.5,1.2 1.2,1.2 0.7,0 1.2,-0.5 1.2,-1.2 v -0.7 c 0.6,0.3 1.1,0.9 1.1,1.7 v 4.2 c 0,0.6 -0.2,0.9 -0.4,1.2 -0.2,0.2 -0.4,0.3 -0.7,0.4 v -1.3 c 0,-0.7 -0.5,-1.2 -1.2,-1.2 -0.7,0 -1.2,0.5 -1.2,1.2 v 1.3 c -0.7,-0.3 -1.1,-1 -1.1,-1.7 z m 0,12.6 v -4.2 c 0,-0.7 0.5,-1.4 1.1,-1.7 v 1.5 c 0,0.7 0.5,1.2 1.2,1.2 0.7,0 1.2,-0.5 1.2,-1.2 v -1.5 c 0.6,0.3 1.1,0.9 1.1,1.7 v 4.2 c 0,0.5 -0.1,0.9 -0.5,1.3 -0.2,0.2 -0.4,0.3 -0.6,0.4 v -1.8 c 0,-0.7 -0.5,-1.2 -1.2,-1.2 -0.7,0 -1.2,0.5 -1.2,1.2 v 1.8 c -0.7,-0.3 -1.1,-1 -1.1,-1.7 z m 0,12.8 v -4.1 c 0,-0.7 0.5,-1.4 1.1,-1.7 v 0.7 c 0,0.7 0.5,1.2 1.2,1.2 0.7,0 1.2,-0.5 1.2,-1.2 v -0.7 c 0.6,0.3 1.1,0.9 1.1,1.7 v 4.2 c 0,0.4 -0.1,0.8 -0.4,1.1 -0.2,0.2 -0.4,0.3 -0.7,0.4 v -1.4 c 0,-0.7 -0.5,-1.2 -1.2,-1.2 -0.7,0 -1.2,0.5 -1.2,1.2 v 1.4 c -0.7,-0.2 -1.1,-0.9 -1.1,-1.6 z m 0,12.6 v -4.1 c 0,-0.7 0.5,-1.4 1.1,-1.7 v 1.3 c 0,0.7 0.5,1.2 1.2,1.2 0.7,0 1.2,-0.5 1.2,-1.2 v -1.3 c 0.6,0.3 1.1,0.9 1.1,1.7 v 4.2 c 0,0.4 -0.1,0.8 -0.4,1.1 -0.2,0.2 -0.4,0.3 -0.7,0.4 v -1.8 c 0,-0.7 -0.5,-1.2 -1.2,-1.2 -0.7,0 -1.2,0.5 -1.2,1.2 v 1.8 c -0.7,-0.2 -1.1,-0.9 -1.1,-1.6 z m 0,12.8 v -4.1 c 0,-0.7 0.5,-1.4 1.1,-1.7 v 0.7 c 0,0.7 0.5,1.2 1.2,1.2 0.7,0 1.2,-0.5 1.2,-1.2 v -0.7 c 0.6,0.3 1.1,0.9 1.1,1.7 v 4.2 c 0,0.4 -0.1,0.8 -0.4,1.1 -0.2,0.2 -0.4,0.3 -0.7,0.4 V 343 c 0,-0.7 -0.5,-1.2 -1.2,-1.2 -0.7,0 -1.2,0.5 -1.2,1.2 v 1.4 c -0.7,-0.3 -1.1,-1 -1.1,-1.7 z m 0,8.4 c 0,-0.7 0.5,-1.4 1.1,-1.7 v 1.4 0 l -1.1,0.6 z m -40.6,42.5 v 0 c 4.8,-8.4 12.7,-22 14.8,-25.8 l 27.3,14 v 45.7 l -45.5,-28.1 c 0.8,-1.2 2,-3.3 3.4,-5.8 z m -2.1,9.3 44.3,27.4 v 6.2 l -41.2,-26.7 z m 87.8,6.9 -41.2,26.7 v -6.1 L 648.4,403 Z"
   id="path1717"
   inkscape:connector-curvature="0" />

		<path
   d="m 126.2,156.9 -0.8,0.2 c -2.2,0.4 -4.3,0.9 -6.5,0.5 -2.4,-0.4 -4.3,-1.8 -4.8,-3.6 -0.1,-0.5 -0.2,-1 -0.3,-1.6 -0.2,-1.5 -0.3,-3.1 -1.7,-4.2 -1.2,-1 -2.6,-1 -3.7,-1 l -7.6,0.3 c -0.8,0 -1.6,0 -2.1,-0.2 -0.9,-0.5 -1.1,-1.6 -1.3,-3.4 -0.1,-1.1 -0.3,-2.2 -0.7,-3.3 -0.6,-1.4 -1.8,-2.6 -3.3,-3.2 -1.6,-0.6 -3.3,-0.6 -4.7,0.1 -0.6,0.3 -0.9,1 -0.6,1.6 0.3,0.6 1,0.9 1.6,0.6 0.8,-0.4 1.8,-0.4 2.8,-0.1 0.9,0.4 1.6,1 2,1.8 0.3,0.8 0.4,1.7 0.5,2.7 0.2,1.9 0.5,4.1 2.5,5.3 1.1,0.5 2.3,0.5 3.3,0.5 l 7.2,-0.3 h 0.4 c 1,0 1.7,0 2.2,0.4 0.6,0.5 0.7,1.5 0.9,2.7 0.1,0.7 0.1,1.4 0.3,2 0.8,2.7 3.4,4.8 6.8,5.4 0.7,0.1 1.3,0.1 1.9,0.1 1.8,0 3.6,-0.4 5.4,-0.7 l 0.8,-0.2 c 0.7,-0.1 1.1,-0.8 1,-1.4 -0.3,-0.7 -0.9,-1.1 -1.5,-1 z"
   id="path1719"
   inkscape:connector-curvature="0" />
		<path
   d="m 122.3,167.4 c -1.9,-1 -4.2,-1.1 -6.3,-0.9 -1.1,0 -2.3,0.1 -3.4,0.1 -1.2,0 -2.3,0.1 -3.4,0.1 -0.3,0 -1,0 -1.2,-0.1 0,0 0,-0.1 -0.1,-0.1 v -0.1 c 0,-0.1 -0.1,-0.2 -0.1,-0.4 -0.8,-4.7 -5.4,-8.4 -10.3,-8.3 -0.7,0 -1.2,0.6 -1.2,1.2 0,0.7 0.6,1.2 1.2,1.2 3.7,-0.1 7.3,2.8 7.9,6.4 0,0.1 0,0.1 0,0.2 0,0.1 0,0.1 0,0.2 0.1,0.3 0.1,0.7 0.4,1.1 0.8,1.2 2.3,1.2 3.2,1.2 1.1,0 2.3,-0.1 3.4,-0.1 1.2,0 2.3,-0.1 3.5,-0.1 1.8,-0.1 3.7,-0.1 5.1,0.7 2,1.1 3.1,3.7 4,6.3 0.2,0.5 0.6,0.8 1.1,0.8 0.1,0 0.3,0 0.4,-0.1 0.6,-0.2 1,-0.9 0.8,-1.5 -0.9,-3.2 -2.3,-6.3 -5,-7.8 z"
   id="path1721"
   inkscape:connector-curvature="0" />
		<path
   d="m 273.4,240.7 c 0.3,0.4 0.8,0.5 1.3,0.4 3.1,-1.1 6.7,-0.6 9.3,1.3 0.2,0.1 0.4,0.2 0.7,0.2 0.4,0 0.8,-0.2 1,-0.5 0.4,-0.5 0.2,-1.3 -0.3,-1.7 -2.7,-1.9 -6,-2.6 -9.2,-2.1 0.4,-2.8 -0.8,-5.7 -2.7,-7.5 -2,-2.1 -4.9,-3.5 -8.8,-4.2 -2.6,-0.5 -5.3,-0.8 -8,-0.9 -0.1,0 -0.3,0 -0.5,0 0,-0.2 0,-0.5 0,-0.7 0,-4 -2.6,-7.9 -6.3,-9.3 -1.3,-0.5 -2.8,-0.8 -4.2,-1 -1.9,-0.3 -3.6,-0.6 -5,-1.6 -0.5,-0.4 -1.3,-0.3 -1.7,0.2 -0.4,0.5 -0.3,1.3 0.2,1.7 1.8,1.4 4,1.7 6,2 1.3,0.2 2.6,0.4 3.6,0.8 2.8,1.1 4.7,4 4.7,7.1 0,0.7 0,1.7 0.8,2.4 0.7,0.7 1.5,0.7 2.1,0.7 2.5,0.1 5.1,0.4 7.6,0.9 3.5,0.7 5.9,1.9 7.6,3.6 2,2 2.6,5 1.5,7 -0.1,0.3 -0.1,0.9 0.3,1.2 z"
   id="path1723"
   inkscape:connector-curvature="0" />
		<path
   d="m 296.3,243.9 c 4.8,0.9 9.2,3.6 12.2,7.5 0.2,0.3 0.6,0.5 0.9,0.5 0.3,0 0.5,-0.1 0.7,-0.3 0.5,-0.4 0.6,-1.2 0.2,-1.7 -3.4,-4.3 -8.2,-7.3 -13.6,-8.3 -0.6,-0.1 -1.3,0.3 -1.4,0.9 -0.1,0.6 0.3,1.2 1,1.4 z"
   id="path1725"
   inkscape:connector-curvature="0" />
		<path
   d="m 139.3,156.2 c -1.2,-0.2 -2.6,-0.2 -4.3,0.1 -0.7,0.1 -1.1,0.7 -1,1.4 0.1,0.7 0.7,1.1 1.4,1 1.4,-0.2 2.5,-0.3 3.4,-0.1 0.6,0.1 1.8,0.5 2.2,1.5 0.2,0.5 0.6,0.7 1.1,0.7 0.2,0 0.3,0 0.5,-0.1 0.6,-0.3 0.9,-1 0.6,-1.6 -0.6,-1.4 -2,-2.5 -3.9,-2.9 z"
   id="path1727"
   inkscape:connector-curvature="0" />
		<path
   d="m 135.5,186.4 c -2.3,-0.2 -4.5,-1.7 -5.4,-3.8 -0.3,-0.6 -1,-0.9 -1.6,-0.6 -0.6,0.3 -0.9,1 -0.6,1.6 1.3,2.9 4.2,5 7.4,5.2 h 0.1 c 0.6,0 1.1,-0.5 1.2,-1.1 0,-0.7 -0.5,-1.3 -1.1,-1.3 z"
   id="path1729"
   inkscape:connector-curvature="0" />
		<path
   d="m 350.2,398.8 c 0.2,0 0.4,0 0.5,-0.1 2.3,-1.1 3.5,-3.3 4.7,-5.4 0.7,-1.1 1.3,-2.2 2.1,-3.1 1.4,-1.7 3.5,-2.8 5.6,-3.2 1.1,-0.1 2.2,-0.1 3.3,-0.1 2.2,0.1 4.5,0.1 6.6,-1 1.7,-0.9 2.8,-2.4 3.9,-3.8 0.6,-0.7 1.1,-1.4 1.7,-2 2.1,-2.1 5.1,-3.1 8,-2.8 0.7,0.1 1.3,-0.4 1.3,-1 0.1,-0.7 -0.4,-1.3 -1,-1.3 -3.7,-0.4 -7.4,0.8 -10,3.4 -0.7,0.7 -1.3,1.5 -1.9,2.3 -1,1.3 -1.9,2.5 -3.1,3.1 -1.5,0.8 -3.4,0.8 -5.4,0.7 -1.2,0 -2.5,-0.1 -3.7,0.1 -2.8,0.4 -5.3,1.9 -7.1,4 -0.9,1.1 -1.6,2.3 -2.3,3.5 -1.1,1.9 -2.1,3.6 -3.7,4.4 -0.6,0.3 -0.8,1 -0.6,1.6 0.2,0.4 0.6,0.7 1.1,0.7 z"
   id="path1731"
   inkscape:connector-curvature="0" />
		<path
   d="m 526.9,326.8 c -4.3,-1.7 -9.4,-1 -13.1,1.8 -0.8,0.6 -1.6,1.4 -2.4,2.1 -1.5,1.4 -2.9,2.8 -4.7,3.2 -1,0.2 -2.1,0.2 -3.3,0.1 -1.5,-0.1 -3,-0.2 -4.6,0.3 -1.8,0.6 -3,1.8 -4.3,3 -1,1 -1.9,1.9 -3,2.3 -1.2,0.5 -2.7,0.4 -4.2,0.3 -1.5,-0.1 -3,-0.2 -4.5,0.2 -2.4,0.6 -4.4,2.5 -5.2,4.9 -0.2,0.6 0.2,1.3 0.8,1.5 0.1,0 0.2,0.1 0.3,0.1 0.5,0 1,-0.3 1.1,-0.9 0.5,-1.6 1.8,-2.9 3.5,-3.3 1.2,-0.3 2.4,-0.2 3.8,-0.2 1.7,0.1 3.5,0.2 5.2,-0.5 1.6,-0.6 2.7,-1.8 3.8,-2.9 1.1,-1 2.1,-2 3.3,-2.4 1.1,-0.3 2.3,-0.3 3.7,-0.2 1.3,0.1 2.7,0.2 4,-0.1 2.4,-0.6 4.1,-2.2 5.8,-3.8 0.7,-0.7 1.4,-1.4 2.2,-1.9 3,-2.2 7.2,-2.8 10.7,-1.4 0.6,0.2 1.3,-0.1 1.6,-0.7 0.4,-0.6 0.1,-1.3 -0.5,-1.5 z"
   id="path1733"
   inkscape:connector-curvature="0" />
		<path
   d="m 545.4,320.4 c -0.6,-0.3 -1.3,0 -1.6,0.6 -0.6,1.4 -1.3,2.5 -2.2,3.1 -0.5,0.4 -1.1,0.6 -2,0.8 -1.3,0.4 -2.7,0.6 -4.7,0.7 -0.7,0 -1.2,0.6 -1.1,1.3 0,0.6 0.6,1.1 1.2,1.1 0,0 0,0 0.1,0 2.2,-0.1 3.8,-0.4 5.2,-0.8 1.1,-0.3 2,-0.7 2.7,-1.2 1.2,-0.9 2.2,-2.3 3,-4.1 0.3,-0.6 0,-1.3 -0.6,-1.5 z"
   id="path1735"
   inkscape:connector-curvature="0" />
		<path
   d="m 521,339.4 c -0.6,-0.2 -1.3,0.2 -1.5,0.8 -0.3,1.1 -1.5,2 -3.1,2.5 -1.3,0.3 -2.7,0.5 -4.4,0.4 -0.5,0 -1.1,0 -1.6,-0.1 -2.8,-0.1 -5.7,-0.3 -8.3,1.1 -0.8,0.5 -1.5,1.1 -2.2,1.7 l -0.5,0.4 c -0.7,0.7 -1.4,1.3 -2.1,1.9 -0.3,0.3 -0.7,0.6 -1,0.9 -0.5,0.4 -0.5,1.2 -0.1,1.7 0.2,0.3 0.6,0.4 0.9,0.4 0.3,0 0.6,-0.1 0.8,-0.3 0.3,-0.3 0.6,-0.6 1,-0.8 0.7,-0.6 1.5,-1.3 2.1,-1.9 l 0.5,-0.4 c 0.6,-0.5 1.1,-1 1.7,-1.3 2,-1.1 4.5,-1 7.1,-0.8 0.5,0 1.1,0.1 1.6,0.1 1.9,0.1 3.6,0 5.1,-0.4 2.4,-0.7 4.2,-2.2 4.7,-4.1 0.3,-0.9 0,-1.6 -0.7,-1.8 z"
   id="path1737"
   inkscape:connector-curvature="0" />
		<path
   d="m 370.3,242.3 c 1,-0.6 2.1,-1 3.2,-1.5 0.5,-0.2 0.9,-0.3 1.3,-0.2 0.4,0.1 0.7,0.3 1.2,0.6 2.7,1.4 5.8,1.9 8.7,1.2 0.4,-0.1 0.8,-0.2 1.2,-0.3 0.6,-0.2 1.2,-0.3 1.7,-0.3 1.3,0.1 2.5,1 3.8,2 0.3,0.2 0.6,0.5 0.9,0.7 1.2,0.9 2.8,1.6 4.4,1.6 1,0 2,-0.3 2.8,-1.1 0.5,-0.5 0.5,-1.2 0.1,-1.7 -0.5,-0.5 -1.2,-0.5 -1.7,-0.1 -0.9,0.9 -2.8,0.3 -4.2,-0.7 -0.3,-0.2 -0.5,-0.4 -0.8,-0.6 -1.4,-1.1 -3,-2.4 -5.2,-2.5 -0.9,0 -1.6,0.2 -2.4,0.4 -0.3,0.1 -0.7,0.2 -1.1,0.2 -2.4,0.5 -4.9,0.2 -7,-1 -0.6,-0.3 -1.2,-0.7 -2,-0.9 -1,-0.1 -1.8,0.1 -2.4,0.4 h -0.1 c -1.1,0.5 -2.2,1 -3.4,1.6 -0.6,0.3 -0.8,1 -0.5,1.6 0.2,0.7 0.9,0.9 1.5,0.6 z"
   id="path1739"
   inkscape:connector-curvature="0" />
		<path
   d="m 375.7,231.1 h 0.2 c 1.6,-0.4 3.2,-0.7 4.5,0 0.3,0.1 0.6,0.4 1,0.6 0.2,0.2 0.4,0.3 0.7,0.5 1.4,0.9 3,1.3 4.7,1.3 1.6,0 3.3,-0.4 4.7,-1.3 0.6,-0.4 0.7,-1.1 0.4,-1.7 -0.4,-0.6 -1.1,-0.7 -1.7,-0.4 -2,1.3 -4.8,1.3 -6.8,0 -0.2,-0.1 -0.3,-0.2 -0.5,-0.4 -0.4,-0.3 -0.9,-0.7 -1.4,-0.9 -2,-1.1 -4.3,-0.6 -6.1,-0.2 h -0.2 c -0.6,0.1 -1.1,0.8 -0.9,1.4 0.2,0.9 0.8,1.3 1.4,1.1 z"
   id="path1741"
   inkscape:connector-curvature="0" />
		<path
   d="m 220.6,81.2 c -0.9,1.6 -2.8,2.4 -4.8,3.2 -2.3,1 -4.7,2 -6,4.3 -0.8,1.5 -0.9,3.3 -1,4.9 -0.2,2.3 -0.3,4.5 -0.4,6.7 -0.1,2.2 -0.2,4.4 -0.4,6.7 0,0.7 0.5,1.2 1.1,1.3 h 0.1 c 0.6,0 1.2,-0.5 1.2,-1.1 0.2,-2.3 0.3,-4.5 0.4,-6.7 0.1,-2.2 0.2,-4.4 0.4,-6.7 0.1,-1.4 0.2,-2.8 0.7,-3.8 0.9,-1.6 2.8,-2.4 4.8,-3.2 2.3,-1 4.6,-2 6,-4.2 0.3,-0.5 0.5,-1.1 0.7,-1.6 0.2,-0.4 0.3,-0.8 0.5,-1.2 1.1,-2.5 4.3,-3.9 6.9,-3.2 0.6,0.2 1.3,-0.2 1.5,-0.9 0.2,-0.6 -0.2,-1.3 -0.9,-1.5 -3.8,-0.9 -8,1.1 -9.6,4.5 -0.3,0.5 -0.5,1 -0.6,1.5 -0.3,0.2 -0.4,0.6 -0.6,1 z"
   id="path1743"
   inkscape:connector-curvature="0" />
		<path
   d="m 203.3,90.1 c 0.1,0 0.3,0 0.4,-0.1 0.6,-0.2 1,-0.9 0.7,-1.5 -0.6,-1.7 0.3,-3.8 2,-5 0.5,-0.3 1.2,-0.6 1.8,-0.9 0.9,-0.4 2,-0.8 2.9,-1.5 1.6,-1.2 2.5,-2.9 3.2,-4.3 l 0.2,-0.5 c 0.6,-1.2 1.1,-2.4 2,-3.2 0,0 0.1,0 0.1,-0.1 0.9,-0.9 2.2,-1.4 3.1,-1.1 0.6,0.2 1.3,-0.1 1.5,-0.8 0.2,-0.6 -0.1,-1.3 -0.8,-1.5 -1.9,-0.6 -4.1,0.1 -5.6,1.7 -1.2,1.1 -1.9,2.6 -2.5,3.9 l -0.2,0.5 c -0.6,1.3 -1.3,2.6 -2.5,3.5 -0.6,0.5 -1.4,0.8 -2.3,1.2 -0.7,0.3 -1.5,0.6 -2.2,1.1 -2.7,1.8 -3.9,5.1 -3,7.8 0.2,0.5 0.7,0.8 1.2,0.8 z"
   id="path1745"
   inkscape:connector-curvature="0" />
		<path
   d="m 527.9,241.5 c -0.6,0.1 -1.2,-0.6 -2,-1.6 -0.2,-0.2 -0.3,-0.4 -0.5,-0.5 -2.6,-3 -6.6,-4.5 -10.6,-3.8 -0.9,0.2 -1.8,0.4 -2.7,0.7 -1.8,0.5 -3.6,1.1 -5.1,0.6 -1.5,-0.5 -2.5,-1.9 -3.6,-3.3 -0.6,-0.8 -1.2,-1.6 -1.9,-2.3 -2.1,-2.1 -4.9,-3.3 -7.8,-3.5 -1,0 -1.9,0.1 -2.8,0.2 -0.9,0.1 -1.7,0.1 -2.5,0.1 -5.2,-0.1 -9.9,-4.3 -10.5,-9.4 -0.1,-0.7 -0.7,-1.1 -1.3,-1 -0.7,0.1 -1.1,0.7 -1,1.3 0.8,6.3 6.5,11.4 12.9,11.6 1,0 1.9,-0.1 2.8,-0.2 0.9,-0.1 1.7,-0.1 2.5,-0.1 2.3,0.1 4.5,1.1 6.2,2.7 0.6,0.6 1.1,1.3 1.7,2.1 1.3,1.7 2.6,3.4 4.8,4.1 2.2,0.7 4.4,0.1 6.5,-0.5 0.9,-0.3 1.7,-0.5 2.4,-0.6 3.1,-0.5 6.4,0.6 8.4,3 0.1,0.2 0.3,0.3 0.4,0.5 0.9,1.1 2.1,2.4 3.8,2.4 0.1,0 0.2,0 0.2,0 0.7,0 1.2,-0.6 1.1,-1.3 -0.2,-0.8 -0.7,-1.3 -1.4,-1.2 z"
   id="path1747"
   inkscape:connector-curvature="0" />
		<path
   d="m 518.8,249.3 c -0.3,-0.2 -0.6,-0.5 -0.9,-0.7 -0.8,-0.6 -1.6,-1.3 -2.6,-1.7 -2,-0.9 -4,-0.7 -5.9,-0.5 -0.6,0.1 -1.3,0.1 -1.9,0.2 -4.8,0.2 -9.7,-2.6 -11.9,-6.7 -0.3,-0.6 -1,-0.8 -1.6,-0.5 -0.6,0.3 -0.8,1 -0.5,1.6 2.7,5 8.4,8.1 14.1,7.9 0.7,0 1.4,-0.1 2,-0.2 1.7,-0.2 3.3,-0.3 4.7,0.3 0.7,0.3 1.3,0.8 2,1.4 0.3,0.3 0.7,0.5 1,0.8 3.3,2.6 6.9,3.6 10.1,3.6 2.8,0 5.4,-0.8 7.2,-2.1 0.5,-0.4 0.7,-1.1 0.3,-1.7 -0.4,-0.6 -1.1,-0.7 -1.7,-0.3 -4.3,3.1 -10.5,1.6 -14.4,-1.4 z"
   id="path1749"
   inkscape:connector-curvature="0" />
		<path
   d="m 322.7,411.9 c 2.2,-2.3 4.3,-4.4 7,-4.5 0.7,0 1.2,-0.6 1.2,-1.2 0,-0.6 -0.6,-1.2 -1.2,-1.2 -3.7,0.1 -6.2,2.7 -8.7,5.2 -1.7,1.7 -3.4,3.5 -5.4,4.3 -3.2,1.4 -6.7,0.5 -10.4,-0.5 -1.4,-0.4 -2.8,-0.7 -4.1,-1 -4.3,-0.8 -8.8,-0.5 -12.9,0.8 -1.1,0.4 -2.1,0.8 -3.1,1.2 -2,0.8 -3.8,1.5 -5.8,1.9 -4.9,0.8 -10.3,-1.5 -13,-5.7 -0.4,-0.6 -1.1,-0.7 -1.7,-0.3 -0.6,0.4 -0.7,1.1 -0.3,1.7 2.8,4.3 7.8,6.9 12.9,6.9 0.8,0 1.6,-0.1 2.5,-0.2 2.2,-0.3 4.3,-1.2 6.3,-2 1,-0.4 2,-0.8 3,-1.1 3.8,-1.3 7.8,-1.5 11.7,-0.8 1.3,0.2 2.6,0.6 4,0.9 4,1 8.1,2.1 12,0.4 2.3,-1 4.2,-2.9 6,-4.8 z"
   id="path1751"
   inkscape:connector-curvature="0" />
		<path
   d="m 360.1,413.9 c 0.2,-0.6 -0.2,-1.3 -0.8,-1.5 -0.6,-0.2 -1.3,0.2 -1.5,0.8 -1.2,4.1 -6.5,5.7 -10.7,5.7 -1.4,0 -2.9,-0.1 -4.4,-0.1 -3.4,-0.2 -7,-0.4 -10.4,0.8 -2.7,0.9 -4.9,2.6 -7,4.2 -0.6,0.4 -1.2,0.9 -1.8,1.3 -3.4,2.3 -6,3.2 -8.5,2.9 -0.7,-0.1 -1.3,0.4 -1.3,1 -0.1,0.7 0.4,1.3 1,1.3 0.4,0 0.8,0.1 1.2,0.1 3.5,0 6.8,-1.9 9,-3.4 0.6,-0.4 1.2,-0.9 1.8,-1.3 2,-1.5 4.1,-3 6.4,-3.8 3,-1 6.1,-0.9 9.5,-0.7 1.5,0.1 3,0.2 4.6,0.1 5,0 11.3,-2 12.9,-7.4 z"
   id="path1753"
   inkscape:connector-curvature="0" />
		<path
   d="m 314.5,297 c -0.2,2.3 -0.5,4.9 -2.3,6 -1,0.6 -2.3,0.7 -3.8,0.8 -1.7,0.1 -3.7,0.2 -5.2,1.4 -2,1.6 -2.3,4 -2.6,6.2 l -0.1,0.7 c -0.2,1.8 -0.8,4.1 -2.5,4.5 -0.5,0.2 -1.2,0.1 -1.9,0 -0.6,-0.1 -1.2,-0.1 -1.8,-0.1 -2.9,0.2 -5.5,2.7 -6.3,5.9 -0.6,2.6 -0.2,5.1 0.2,7.5 l 0.1,0.5 c 0.1,0.6 0.6,1 1.2,1 0.1,0 0.1,0 0.2,0 0.7,-0.1 1.1,-0.7 1,-1.4 l -0.1,-0.5 c -0.4,-2.2 -0.7,-4.5 -0.2,-6.6 0.5,-1.9 2,-3.9 4.1,-4.1 0.4,0 0.9,0 1.4,0.1 0.9,0.1 1.9,0.2 2.8,-0.1 2.3,-0.6 3.7,-2.8 4.2,-6.5 l 0.1,-0.8 c 0.2,-1.9 0.4,-3.7 1.7,-4.6 0.9,-0.7 2.3,-0.8 3.8,-0.9 1.6,-0.1 3.4,-0.2 5,-1.2 2.9,-1.8 3.2,-5.7 3.4,-7.8 0.1,-0.7 -0.4,-1.2 -1.1,-1.3 -0.7,0.1 -1.3,0.6 -1.3,1.3 z"
   id="path1755"
   inkscape:connector-curvature="0" />
		<path
   d="m 291.7,293.6 c -1.8,0.9 -2.4,2.9 -2.7,4.4 -0.3,1.8 -0.4,3.6 -0.3,5.4 0,0.6 0.6,1.1 1.2,1.1 0,0 0,0 0.1,0 0.7,0 1.2,-0.6 1.1,-1.3 -0.1,-1.6 0,-3.2 0.3,-4.8 0.3,-1.6 0.8,-2.4 1.5,-2.8 0.6,-0.4 1.4,-0.3 2.4,-0.3 0.6,0 1.2,0 1.9,0 2.2,-0.2 4,-1.7 5.6,-2.9 0.9,-0.7 2,-1.6 2.7,-2.8 0.9,-1.5 1,-3.2 0.2,-4.5 -0.3,-0.6 -1.1,-0.8 -1.6,-0.4 -0.5,0.4 -0.8,1.1 -0.4,1.6 0.4,0.6 0.1,1.5 -0.2,2.1 -0.5,0.9 -1.4,1.6 -2.2,2.2 -1.4,1.1 -2.8,2.2 -4.3,2.4 -0.5,0.1 -1,0 -1.5,0 -1.3,0 -2.6,-0.1 -3.8,0.6 z"
   id="path1757"
   inkscape:connector-curvature="0" />
		<path
   d="m 545.1,103.3 0.2,0.1 c 4.1,1.2 7,5.8 6.2,10 -0.2,0.9 -0.5,1.8 -0.8,2.7 -0.7,2 -1.4,4.1 -1,6.3 0.6,2.9 2.9,4.6 5.2,6.3 1.5,1.1 2.9,2.2 3.8,3.5 1.6,2.5 1.1,5.8 0.7,9.1 -0.1,0.8 -0.2,1.6 -0.3,2.3 -0.5,4.9 1.1,10.5 5.7,11.6 0.1,0 0.2,0 0.3,0 0.5,0 1,-0.4 1.2,-0.9 0.1,-0.6 -0.3,-1.3 -0.9,-1.4 -3.4,-0.8 -4.2,-5.8 -3.9,-9 0.1,-0.7 0.2,-1.5 0.3,-2.3 0.5,-3.5 1,-7.5 -1.1,-10.7 -1.1,-1.7 -2.8,-3 -4.4,-4.2 -2,-1.5 -3.8,-2.8 -4.2,-4.8 -0.3,-1.6 0.3,-3.3 0.9,-5.1 0.3,-1 0.7,-2 0.9,-3.1 1,-5.4 -2.6,-11.2 -7.8,-12.8 l -0.2,-0.1 c -0.3,-0.1 -1,-0.3 -1.1,-0.5 0,0 0,-0.1 -0.1,-0.1 -0.1,-0.1 -0.1,-0.4 0,-1 0.4,-4 1.1,-7.7 2.2,-11.3 0.2,-0.6 -0.2,-1.3 -0.8,-1.5 -0.6,-0.2 -1.3,0.2 -1.5,0.8 -1.1,3.7 -1.8,7.6 -2.2,11.6 -0.1,0.7 -0.2,1.9 0.5,2.8 0.3,1.2 1.4,1.5 2.2,1.7 z"
   id="path1759"
   inkscape:connector-curvature="0" />
		<path
   d="m 529.7,104.5 c 1.6,0.8 3.2,1.6 4.2,2.9 1.2,1.5 1.6,3.6 1.2,6.8 -0.1,0.6 -0.2,1.3 -0.2,1.9 -0.3,2.1 -0.6,4.2 -0.2,6.5 0.7,3.8 3.4,7.1 7.1,8.4 0.1,0.1 0.3,0.1 0.4,0.1 0.5,0 0.9,-0.3 1.1,-0.8 0.2,-0.6 -0.1,-1.3 -0.7,-1.5 -2.8,-1.1 -5,-3.7 -5.5,-6.6 -0.3,-1.9 0,-3.8 0.3,-5.8 0.1,-0.6 0.2,-1.3 0.2,-1.9 0.3,-2.4 0.4,-5.9 -1.8,-8.6 -1.3,-1.6 -3.2,-2.6 -4.9,-3.5 -2.1,-1.1 -3.9,-2 -4.6,-3.9 -0.5,-1.3 -0.2,-2.9 0.2,-4.4 0.4,-1.9 0.8,-3.8 1.2,-5.6 0.4,-1.9 0.8,-3.8 1.2,-5.7 0.1,-0.6 -0.3,-1.3 -0.9,-1.4 -0.6,-0.1 -1.3,0.3 -1.4,0.9 -0.4,1.9 -0.8,3.8 -1.2,5.6 -0.4,1.9 -0.8,3.8 -1.2,5.6 -0.4,1.9 -0.8,3.9 -0.1,5.8 0.8,2.8 3.2,4 5.6,5.2 z"
   id="path1761"
   inkscape:connector-curvature="0" />
		<path
   d="m 668.2,186.3 -0.2,-0.1 c -0.4,-0.2 -0.5,-0.3 -0.6,-0.5 -0.4,-0.5 0.2,-1.7 0.6,-2.7 1.9,-4.1 1.9,-8.9 0.1,-13 -1.9,-4.1 -5.4,-7.3 -9.8,-8.6 -0.6,-0.2 -1.3,0.2 -1.5,0.8 -0.2,0.6 0.2,1.3 0.8,1.5 3.7,1.1 6.7,3.7 8.2,7.2 1.5,3.4 1.5,7.5 -0.1,11 -0.7,1.4 -1.6,3.4 -0.4,5.1 0.4,0.5 0.9,0.8 1.4,1.1 l 0.2,0.1 c 4,2.5 5.5,8.4 3.3,12.5 -0.4,0.7 -0.9,1.4 -1.4,2.2 -1.2,1.7 -2.5,3.5 -2.6,5.8 0,0.7 0.5,1.2 1.2,1.2 v 0 c 0.6,0 1.2,-0.5 1.2,-1.2 0.1,-1.6 1.1,-3 2.2,-4.5 0.5,-0.8 1.1,-1.5 1.6,-2.4 2.8,-5 0.9,-12.3 -4.2,-15.5 z"
   id="path1763"
   inkscape:connector-curvature="0" />
		<path
   d="m 685,184.1 -0.3,-0.2 c -0.6,-0.4 -1.1,-0.8 -1.3,-1.3 -0.2,-0.4 -0.1,-1 0,-1.7 0.6,-5.7 -0.6,-11.7 -3.4,-16.7 -0.3,-0.6 -1.1,-0.8 -1.6,-0.5 -0.6,0.3 -0.8,1.1 -0.5,1.6 2.6,4.6 3.7,10.1 3.2,15.3 -0.1,0.9 -0.2,1.9 0.2,2.9 0.5,1.1 1.3,1.7 2.1,2.3 l 0.3,0.2 c 4.9,3.8 6.4,11.2 3.3,16.4 -0.3,0.6 -0.1,1.3 0.4,1.6 0.2,0.1 0.4,0.2 0.6,0.2 0.4,0 0.8,-0.2 1,-0.6 3.6,-6.2 1.9,-15 -4,-19.5 z"
   id="path1765"
   inkscape:connector-curvature="0" />
	</g>
</g>
</svg>
