<?xml version="1.0" encoding="UTF-8" standalone="no"?>
<!-- Generator: Adobe Illustrator 21.0.0, SVG Export Plug-In . SVG Version: 6.00 Build 0)  -->

<svg
   xmlns:dc="http://purl.org/dc/elements/1.1/"
   xmlns:cc="http://creativecommons.org/ns#"
   xmlns:rdf="http://www.w3.org/1999/02/22-rdf-syntax-ns#"
   xmlns:svg="http://www.w3.org/2000/svg"
   xmlns="http://www.w3.org/2000/svg"
   xmlns:sodipodi="http://sodipodi.sourceforge.net/DTD/sodipodi-0.dtd"
   xmlns:inkscape="http://www.inkscape.org/namespaces/inkscape"
   version="1.1"
   id="Layer_1"
   x="0px"
   y="0px"
   viewBox="0 0 288.81372 247.59953"
   xml:space="preserve"
   sodipodi:docname="how-could-crowdsell-change-society_touched.svg"
   width="288.81372"
   height="247.59953"
   inkscape:version="0.92.4 (33fec40, 2019-01-16)"><metadata
   id="metadata3084"><rdf:RDF><cc:Work
       rdf:about=""><dc:format>image/svg+xml</dc:format><dc:type
         rdf:resource="http://purl.org/dc/dcmitype/StillImage" /><dc:title></dc:title></cc:Work></rdf:RDF></metadata><defs
   id="defs3082" /><sodipodi:namedview
   pagecolor="#ffffff"
   bordercolor="#666666"
   borderopacity="1"
   objecttolerance="10"
   gridtolerance="10"
   guidetolerance="10"
   inkscape:pageopacity="0"
   inkscape:pageshadow="2"
   inkscape:window-width="3840"
   inkscape:window-height="2112"
   id="namedview3080"
   showgrid="false"
   fit-margin-top="0"
   fit-margin-left="0"
   fit-margin-right="0"
   fit-margin-bottom="0"
   inkscape:zoom="0.59"
   inkscape:cx="145.60686"
   inkscape:cy="121.5"
   inkscape:window-x="0"
   inkscape:window-y="48"
   inkscape:window-maximized="1"
   inkscape:current-layer="Layer_1" />

<style type="text/css">
	.st0{opacity:0.5;fill:#7CCFDD;}
	.st1{fill:#FFFFFF;}
	.st2{fill:#7CCFDD;}
</style>

<g
   id="g3077"
   transform="translate(-54.393139,-73.900471)">
	<path
   class="st0"
   d="M 111.7,107.5 C 2.1,211 189.5,384.6 288.9,281.2 406.8,158.4 220.1,5 111.7,107.5 Z"
   id="path2973"
   inkscape:connector-curvature="0" />
	<path
   class="st1"
   d="m 196.2,273.8 -10.4,-1.6 c 3.9,-1 7.3,-1.2 10.4,1.6 z"
   id="path2975"
   inkscape:connector-curvature="0" />
	<path
   class="st1"
   d="m 149.5,260.1 c 0.4,6.2 7.5,10.3 13.3,8.6 0,0 1,9.7 13.4,6.5 0.3,-0.1 0.6,-0.2 0.8,-0.2 v 0 c 0,0 2,8.5 14,7.7 8.5,-0.6 12.5,-6.3 12.6,-6.3 l 0.4,2.8 c -7.6,13.2 -15.8,24.7 -17.9,27.6 -0.4,0.5 -0.5,1.2 -0.4,1.8 0.4,2.1 2.5,7 9.5,10.1 7.1,3.1 12.9,1.1 14.3,0.6 1.1,-0.3 1.8,-1.3 1.9,-2.4 0.4,-5 1.9,-20.2 6.9,-33 0.4,0 0.7,-0.1 1,-0.2 1.2,-0.4 3.6,-4.2 3.3,-6.2 0,0 0,0 0,0 v 0 c -0.1,-0.4 -0.2,-0.7 -0.5,-0.9 H 222 l 16,-23.4 c 1.1,-1.2 -0.8,-3.2 -4.3,-5 l 2.6,0.7 2.7,-4.7 c 0,0 -4,-2.8 -9,-4.4 -0.6,-0.2 -1.2,-0.4 -1.8,-0.5 0.4,-0.6 0.7,-1.2 1.1,-1.9 6.8,-11.4 -6.2,-18.7 -17,-24.9 -19,-10.9 -23.1,-17.1 -23.1,-17.1 -4.8,5.3 -3.8,13.3 2.4,16.8 -2.1,2.4 -2.5,5.6 -1.7,8.6 v 0 0 c 0.8,2.6 2.5,5 4.9,6.3 0,0 -6,7.3 4.7,13.6 0.2,0.1 0.5,0.3 0.7,0.4 v 0 c 0,0 -2.7,4.3 0.2,9.9 v 0.2 l 0.2,0.2 c 0.8,1.4 2.1,3 3.8,4.5 1.7,1.4 3.3,2.4 4.9,3.1 l -2.1,12.3 -2.3,1 v 0 l -6.2,-9 c -1,-3.1 -2,-7.2 -3.5,-12.7 -3.5,-13.3 -18.2,-8.9 -30.7,-5.7 -16.7,4.3 -25.7,5.7 -29.4,4.5 0.7,7.5 7.3,12.7 14.4,10.7 z m 58.1,11.2 c 0,-0.1 0,-0.1 0.1,-0.2 z"
   id="path2977"
   inkscape:connector-curvature="0" />
	<path
   class="st1"
   d="m 70.9,185.4 c 0,0 6.2,7.3 22.3,0.6 16.1,-6.7 27,-18.1 28.6,-18.5 1.7,-0.4 12.4,10.7 16.1,10.6 3.7,-0.1 1.9,-11.9 3.7,-11.9 1.8,0 18.2,11.3 18.2,11.3 l -37.9,50.2 c 0,0 14.6,-0.6 27.5,-18.4 12.9,-17.8 23.3,-40.9 29.2,-40.9 5.6,0 2.4,13.2 6.5,13.2 4.1,0 6,-19.1 9.4,-19.1 3.4,0 4.2,17.7 10.4,17.7 6.4,0 5.3,-14.9 11.8,-15.4 3.8,-0.3 24,26.6 27.5,24.2 3.8,-2.5 1.5,-12.7 5.1,-12 0,0 7.8,-0.6 9.8,-5.6 2.1,-5 5.3,7.6 9.4,7.6 4.1,0 3.2,12.3 10.9,12.3 l 0.6,-7.2 -7.7,-15.8 c 0,0 8,2.6 12.6,10.6 4.6,8 7.2,-1.5 12.5,3.7 5.2,5.2 21.6,4.2 21.6,4.2 l -19.5,-8.8 -36.6,-28.7 -30.1,18.2 c 0,0 -14.4,-12.3 -15.3,-19.9 0,0 -19.9,-14.7 -24.3,-15.1 -4.4,-0.4 -31,41.8 -31,41.8 L 125.7,147.2 107,169 Z"
   id="path2979"
   inkscape:connector-curvature="0" />
	<path
   class="st2"
   d="m 227.3,253.1 -10.6,25 6.1,-0.6 c 0,0 4,-10.8 15.4,-24.4 -0.1,0 -4.9,1.8 -10.9,0 z"
   id="path2981"
   inkscape:connector-curvature="0" />
	<path
   class="st2"
   d="m 213.9,283.2 c 0,0 -5.5,28.2 -17.9,27.2 -4.7,-0.4 -7.8,-6.3 -7.8,-6.3 l -1.9,2.7 c 0,0 -0.4,13.2 19.8,13.5 4.8,0.1 5.5,-3.3 5.5,-3.3 0,0 1.6,-22.5 7,-33.3 z"
   id="path2983"
   inkscape:connector-curvature="0" />
	<path
   class="st2"
   d="m 215.4,247.7 c 0,0 10.8,-1.2 20,5.9 0,0 -12.1,1.3 -20,-5.9 z"
   id="path2985"
   inkscape:connector-curvature="0" />
	<path
   class="st2"
   d="m 220.8,243.2 c 0,0 6.9,-2.2 17.3,2.8 l -1.9,3.5 -14.7,-4.9 z"
   id="path2987"
   inkscape:connector-curvature="0" />
	<path
   class="st2"
   d="m 189.3,195.4 c 0,0 -2.4,10.1 5.9,14.5 8.2,4.4 38.1,15.1 28.3,28.5 l 4.8,0.8 c 0,0 8.9,-11.1 -4.2,-19.3 -13.1,-8.2 -31.7,-19.7 -34.8,-24.5 z"
   id="path2989"
   inkscape:connector-curvature="0" />
	<path
   class="st2"
   d="m 218.8,238.3 c 0,0 4.3,-5.6 0.4,-9 -3.9,-3.4 -28.2,-16.8 -28.2,-16.8 0,0 -2.4,7.1 10.8,13.6 13.1,6.4 17,12.2 17,12.2 z"
   id="path2991"
   inkscape:connector-curvature="0" />
	<path
   class="st2"
   d="M 213.9,238.6 194.5,227 c 0,0 -0.8,6.8 7,10.2 7.9,3.5 11.2,7.1 11.2,7.1 z"
   id="path2993"
   inkscape:connector-curvature="0" />
	<path
   class="st2"
   d="m 200.3,241.2 c 0,0 1.2,10.5 10.8,13.6 l 1,-7.8 z"
   id="path2995"
   inkscape:connector-curvature="0" />
	<path
   class="st2"
   d="m 197.6,274.9 c 0,0 -9,8.4 -20.3,1.3 0,0 12.5,-8.8 20.3,-1.3 z"
   id="path2997"
   inkscape:connector-curvature="0" />
	<path
   class="st2"
   d="m 162.8,268.7 c 0,0 24.7,-10.5 27.5,-4 0.7,1.5 2.2,4.4 2.2,4.4 0,0 -2.9,-2.4 -13.2,0.5 -10.3,2.9 -15.3,2 -16.5,-0.9 z"
   id="path2999"
   inkscape:connector-curvature="0" />
	<path
   class="st2"
   d="m 149.6,260.1 c 0,0 21.2,-6.6 25.9,-7.2 4.7,-0.6 10.3,-1.7 12,3.2 0.4,1.2 0.9,3.1 0.9,3.1 0,0 -4.5,-2.4 -13.7,0.8 -9.2,3.2 -22.8,7.6 -25.1,0.1 z"
   id="path3001"
   inkscape:connector-curvature="0" />
	<path
   class="st2"
   d="m 135.4,249.5 c 0,0 3.4,7.2 15.2,5.4 11.8,-1.9 39.1,-13.7 41,-2.1 1.9,11.6 6.3,23.7 16.4,21.7 l -2.8,-2 c 0,0 -4.1,-1.4 -6.5,-10 -2.4,-8.6 -2.9,-23.5 -19.2,-20.9 -16.3,2.5 -37.3,10.4 -44.1,7.9 z"
   id="path3003"
   inkscape:connector-curvature="0" />
	<path
   class="st2"
   d="m 126,148.7 10.8,36.5 -29.8,24.5 c 0,0 2.8,2.8 8.9,0 6.1,-2.8 12.9,-4.3 15.4,1.2 l -4.5,-12.4 c 0,0 7.8,-6.8 13.6,-8.3 5.8,-1.5 7.3,-14.9 17.7,-10.5 l 4.1,-5.4 c 0,0 -21.5,-13.3 -23.8,-13.3 -2.3,0 2.6,11.3 0.6,11.3 -2,0 -13,-23.6 -13,-23.6 z"
   id="path3005"
   inkscape:connector-curvature="0" />
	<path
   class="st2"
   d="m 121.9,174.9 c 2.2,0 6.8,6.2 6.8,7.9 0,3.1 -29.8,22.2 -31.2,19.9 -1.4,-2.3 20.6,-27.8 24.4,-27.8 z"
   id="path3007"
   inkscape:connector-curvature="0" />
	<path
   class="st2"
   d="m 85.4,203.7 c -3.4,-4.1 -4.5,-13 -5.9,-13 -1.4,0 -2.6,8.9 -5.9,13 -1.5,1.8 3.9,1.2 5.9,-1 2,2.2 7.4,2.8 5.9,1 z"
   id="path3009"
   inkscape:connector-curvature="0" />
	<path
   class="st2"
   d="m 86.1,210.2 c -3.8,-4.6 -5,-14.5 -6.6,-14.5 -1.6,0 -2.9,9.9 -6.6,14.5 -1.7,2 4.3,1.3 6.6,-1.1 2.3,2.4 8.3,3.1 6.6,1.1 z"
   id="path3011"
   inkscape:connector-curvature="0" />
	<path
   class="st2"
   d="m 86.8,217.2 c -4.1,-5 -5.5,-15.9 -7.3,-15.9 -1.8,0 -3.1,10.8 -7.3,15.9 -1.8,2.2 4.8,1.4 7.3,-1.2 2.5,2.6 9.1,3.5 7.3,1.2 z"
   id="path3013"
   inkscape:connector-curvature="0" />
	<path
   class="st2"
   d="m 68,208.3 c -3.4,-4.1 -4.5,-13 -5.9,-13 -1.4,0 -2.6,8.9 -5.9,13 -1.5,1.8 3.9,1.2 5.9,-1 2,2.1 7.4,2.8 5.9,1 z"
   id="path3015"
   inkscape:connector-curvature="0" />
	<path
   class="st2"
   d="m 68.7,214.7 c -3.8,-4.6 -5,-14.5 -6.6,-14.5 -1.6,0 -2.9,9.9 -6.6,14.5 -1.7,2 4.3,1.3 6.6,-1.1 2.3,2.5 8.3,3.2 6.6,1.1 z"
   id="path3017"
   inkscape:connector-curvature="0" />
	<path
   class="st2"
   d="m 69.3,221.8 c -4.1,-5 -5.5,-15.9 -7.3,-15.9 -1.8,0 -3.1,10.8 -7.3,15.9 -1.8,2.2 4.8,1.4 7.3,-1.2 2.6,2.6 9.2,3.4 7.3,1.2 z"
   id="path3019"
   inkscape:connector-curvature="0" />
	<path
   class="st2"
   d="m 87.3,224.4 c -4.4,-5.4 -5.9,-17 -7.8,-17 -1.9,0 -3.4,11.6 -7.8,17 -2,2.4 5.1,1.5 7.8,-1.3 2.7,2.9 9.7,3.7 7.8,1.3 z"
   id="path3021"
   inkscape:connector-curvature="0" />
	<path
   class="st2"
   d="m 312.2,206.8 c 3.4,-4.1 4.5,-13 5.9,-13 1.4,0 2.6,8.9 5.9,13 1.5,1.8 -3.9,1.2 -5.9,-1 -2,2.1 -7.4,2.8 -5.9,1 z"
   id="path3023"
   inkscape:connector-curvature="0" />
	<path
   class="st2"
   d="m 311.5,213.2 c 3.8,-4.6 5,-14.5 6.6,-14.5 1.6,0 2.9,9.9 6.6,14.5 1.7,2 -4.3,1.3 -6.6,-1.1 -2.2,2.5 -8.3,3.2 -6.6,1.1 z"
   id="path3025"
   inkscape:connector-curvature="0" />
	<path
   class="st2"
   d="m 310.9,220.3 c 4.1,-5 5.5,-15.9 7.3,-15.9 1.8,0 3.1,10.8 7.3,15.9 1.8,2.2 -4.8,1.4 -7.3,-1.2 -2.6,2.6 -9.1,3.4 -7.3,1.2 z"
   id="path3027"
   inkscape:connector-curvature="0" />
	<path
   class="st2"
   d="m 329.6,211.4 c 3.4,-4.1 4.5,-13 5.9,-13 1.4,0 2.6,8.9 5.9,13 1.5,1.8 -3.9,1.2 -5.9,-1 -2,2.1 -7.4,2.8 -5.9,1 z"
   id="path3029"
   inkscape:connector-curvature="0" />
	<path
   class="st2"
   d="m 328.9,217.8 c 3.8,-4.6 5,-14.5 6.6,-14.5 1.6,0 2.9,9.9 6.6,14.5 1.7,2 -4.3,1.3 -6.6,-1.1 -2.2,2.4 -8.3,3.2 -6.6,1.1 z"
   id="path3031"
   inkscape:connector-curvature="0" />
	<path
   class="st2"
   d="m 328.3,224.9 c 4.1,-5 5.5,-15.9 7.3,-15.9 1.8,0 3.1,10.8 7.3,15.9 1.8,2.2 -4.8,1.4 -7.3,-1.2 -2.5,2.6 -9.1,3.4 -7.3,1.2 z"
   id="path3033"
   inkscape:connector-curvature="0" />
	<path
   class="st2"
   d="m 91.5,220.8 c 3.4,-4.1 4.5,-13 5.9,-13 1.4,0 2.6,8.9 5.9,13 1.5,1.8 -3.9,1.2 -5.9,-1 -2,2.2 -7.4,2.9 -5.9,1 z"
   id="path3035"
   inkscape:connector-curvature="0" />
	<path
   class="st2"
   d="m 90.8,227.3 c 3.8,-4.6 5,-14.5 6.6,-14.5 1.6,0 2.9,9.9 6.6,14.5 1.7,2 -4.3,1.3 -6.6,-1.1 -2.3,2.4 -8.3,3.2 -6.6,1.1 z"
   id="path3037"
   inkscape:connector-curvature="0" />
	<path
   class="st2"
   d="m 90.2,234.4 c 4.1,-5 5.5,-15.9 7.3,-15.9 1.8,0 3.1,10.8 7.3,15.9 1.8,2.2 -4.8,1.4 -7.3,-1.2 -2.6,2.6 -9.2,3.4 -7.3,1.2 z"
   id="path3039"
   inkscape:connector-curvature="0" />
	<path
   class="st2"
   d="m 294.2,221.7 c 3.4,-4.1 4.5,-13 5.9,-13 1.4,0 2.6,8.9 5.9,13 1.5,1.8 -3.9,1.2 -5.9,-1 -2,2.1 -7.4,2.8 -5.9,1 z"
   id="path3041"
   inkscape:connector-curvature="0" />
	<path
   class="st2"
   d="m 293.5,228.2 c 3.8,-4.6 5,-14.5 6.6,-14.5 1.6,0 2.9,9.9 6.6,14.5 1.7,2 -4.3,1.3 -6.6,-1.1 -2.2,2.4 -8.3,3.1 -6.6,1.1 z"
   id="path3043"
   inkscape:connector-curvature="0" />
	<path
   class="st2"
   d="m 292.9,235.2 c 4.1,-5 5.5,-15.9 7.3,-15.9 1.8,0 3.1,10.8 7.3,15.9 1.8,2.2 -4.8,1.4 -7.3,-1.2 -2.6,2.6 -9.2,3.4 -7.3,1.2 z"
   id="path3045"
   inkscape:connector-curvature="0" />
	<path
   class="st2"
   d="m 310.4,227.5 c 4.4,-5.4 5.9,-17 7.8,-17 1.9,0 3.4,11.6 7.8,17 2,2.4 -5.1,1.5 -7.8,-1.3 -2.7,2.8 -9.8,3.7 -7.8,1.3 z"
   id="path3047"
   inkscape:connector-curvature="0" />
	<path
   class="st2"
   d="m 257.4,178.9 c 0,0 18.1,18.5 21.5,18.8 l -0.9,11.5 z"
   id="path3049"
   inkscape:connector-curvature="0" />
	<path
   class="st2"
   d="m 262.8,149.3 17.3,34.8 -0.6,7.2 18.7,8.7 c 0,0 -10.5,-8.5 -10.5,-14.1 0,-5.6 -9.4,-14.6 -4.3,-14.6 5.1,0 -2.8,-8.4 -2.8,-8.4 z"
   id="path3051"
   inkscape:connector-curvature="0" />
	<polygon
   class="st2"
   points="209.9,100.4 217.6,108.1 193.2,108.1 193.2,92.5 217.8,92.5 "
   id="polygon3053" />
	<path
   class="st2"
   d="m 193.1,153.7 c -5,2.5 14.5,23.6 6,37.6 -4.6,7.5 9.1,9.5 23.8,4.4 14.7,-5.1 13.1,13.4 23.4,13.4 5.7,0 -0.8,-15.6 4.2,-15.6 5,0 6.5,42.2 14.1,42.2 7.6,0 2.9,-35.4 24.9,-9.7 l -32,-47 c 0,0 -11,-2.7 -14.4,-4.3 C 221,164.5 214.3,153 211.8,153 c -3.2,0 1.6,11.7 -3.3,11.7 -4.9,0 -12.4,-12.6 -15.4,-11 z"
   id="path3055"
   inkscape:connector-curvature="0" />
	<path
   class="st2"
   d="m 175.2,180.4 c -5.4,0 -16.5,25.7 -15,27.8 1.6,2.2 20.2,-4 20.2,-9.6 0,-3.4 -1,-18.2 -5.2,-18.2 z"
   id="path3057"
   inkscape:connector-curvature="0" />
	<g
   id="g3075">
		<path
   d="m 230.4,238.6 c -0.1,0 -0.2,-0.1 -0.4,-0.1 l 0.3,-0.5 c 1.9,-3.2 2.5,-6.4 1.7,-9.5 -1.9,-7.2 -10.9,-12.3 -18.8,-16.9 l -0.3,-0.2 c -18.3,-10.5 -22.6,-16.6 -22.7,-16.7 -0.2,-0.3 -0.5,-0.5 -0.9,-0.5 -0.4,0 -0.7,0.1 -1,0.4 -2.6,2.9 -3.8,6.7 -3.2,10.4 0.5,3 2.2,5.7 4.6,7.5 -1.4,1.9 -2,4.3 -1.7,6.8 0.4,3.3 2.3,6.3 5,8.2 -0.7,1.2 -1.5,3.4 -1.1,6 0.5,3.1 2.8,5.8 6.6,8.2 -1,2.5 -2.3,8.8 5.1,15.2 1.6,1.4 3.3,2.4 5.2,3.2 -0.7,3.8 -1.6,7.7 -2.7,11.5 -4.7,-2.2 -5.7,-6.2 -9,-19 l -0.6,-2.2 c -1,-3.7 -2.9,-6.5 -5.7,-8.1 -6.4,-3.8 -16.4,-1.1 -25.2,1.2 l -1.3,0.3 c -15.9,4.1 -25.3,5.6 -28.7,4.5 -0.4,-0.1 -0.8,0 -1.1,0.2 -0.3,0.2 -0.5,0.6 -0.5,1 0.2,4.1 2.2,7.7 5.4,9.9 2.3,1.6 5,2.4 7.8,2.2 0.3,2.3 1.6,4.3 3.7,5.9 2.4,1.8 5.5,2.8 8.5,2.8 0.8,0 1.6,-0.1 2.4,-0.2 0.4,1.4 1.4,3.6 3.6,5.2 1.7,1.1 3.7,1.7 6.1,1.7 1.5,0 3.1,-0.2 4.8,-0.7 1,2.4 4.3,7.5 13.2,7.5 0.5,0 1.1,0 1.7,-0.1 5.7,-0.4 9.5,-2.9 11.6,-4.8 -7.1,12.3 -14.6,22.9 -17.5,27 -0.6,0.8 -0.8,1.8 -0.6,2.8 0.4,1.7 2.2,7.5 10.2,11 2.7,1.2 5.5,1.8 8.4,1.8 2.2,0 4.4,-0.3 6.6,-1 l 0.2,-0.1 c 1.6,-0.5 2.6,-1.8 2.8,-3.5 0.6,-7 2.1,-20.4 6.6,-32 0.2,0 0.3,-0.1 0.5,-0.1 0.1,0 0.2,-0.1 0.3,-0.1 0,0 0,0 0,0 0.5,-0.3 1,-0.7 1.4,-1.3 0,0 0,0 0,0 0.1,-0.1 0.2,-0.2 0.3,-0.4 0,0 0.1,-0.1 0.1,-0.1 0.1,-0.1 0.1,-0.2 0.2,-0.3 0.3,-0.5 0.6,-1 0.9,-1.5 0,-0.1 0.1,-0.2 0.1,-0.3 0,-0.1 0,-0.1 0.1,-0.2 0.3,-0.7 0.6,-1.5 0.7,-2.1 0.1,-0.4 0.1,-0.7 0,-1 0,0 0,0 0,0 0,-0.1 0,-0.1 0,-0.2 0,-0.1 0,-0.2 -0.1,-0.3 -0.1,-0.4 -0.2,-0.6 -0.4,-0.9 6.4,-12.1 15.4,-22.2 15.5,-22.3 0,0 0,0 0,0 0,0 0,0 0,0 0.6,-0.7 0.8,-1.7 0.4,-2.6 -0.3,-0.8 -0.9,-1.5 -1.8,-2.3 l 2.5,-4.3 c 0.3,-0.5 0.2,-1.2 -0.3,-1.6 -0.3,0 -4.3,-2.8 -9.5,-4.4 z m 7.1,5.9 -1.9,3.2 c -3.6,-2.1 -9.2,-3.8 -15,-4.4 -0.7,-0.1 -1.2,0.4 -1.3,1.1 -0.1,0.7 0.4,1.2 1.1,1.3 10.4,1 16.9,5.4 16.8,6.6 -0.6,0.6 -5.7,1.7 -13.9,-1.5 -6.9,-2.7 -9.7,-6.2 -9.8,-8.2 0,-0.1 0,-0.2 0,-0.3 0,-0.1 0,-0.1 0,-0.2 0.2,-0.7 0.9,-1.2 1.5,-1.5 1.5,-0.8 3.7,-1.2 6.1,-1.2 2.6,0 5.6,0.4 8.4,1.3 3.6,1.2 6.6,2.9 8,3.8 z m -49.9,-39.9 c -0.4,-2.5 0.2,-5.1 1.7,-7.3 2.1,2.4 8.1,8 22.5,16.2 l 0.3,0.2 c 7.5,4.3 16,9.2 17.7,15.4 0.6,2.5 0.2,5 -1.4,7.7 l -0.7,1.1 c -2.4,-0.5 -4.7,-0.7 -6.8,-0.7 1.2,-2 1.5,-3.8 1,-5.6 -1.3,-4.9 -8.5,-8.8 -21.5,-15.9 -2.5,-1.3 -5.1,-2.8 -8,-4.4 -2.7,-1.5 -4.3,-3.8 -4.8,-6.7 z m 2.9,14.4 c -0.3,-2 0.2,-3.8 1.4,-5.3 2.6,1.4 5,2.8 7.3,4 11.6,6.3 19.2,10.5 20.3,14.4 0.3,1.2 0.1,2.4 -0.7,3.8 -0.3,0.5 -0.6,1 -0.8,1.5 -1,0.2 -1.9,0.4 -2.7,0.7 -4.2,-4 -12.7,-8.4 -17.4,-10.7 -1,-0.5 -1.8,-0.9 -2.4,-1.2 -2.7,-1.5 -4.6,-4.3 -5,-7.2 z m 4,14.1 c -0.3,-1.9 0.3,-3.4 0.8,-4.4 0.4,0.2 0.9,0.5 1.4,0.7 4.3,2.2 12.2,6.2 16.3,9.8 -0.8,0.6 -1.3,1.4 -1.6,2.2 -0.1,0.3 -0.1,0.7 -0.2,1.1 0,0.6 -0.1,1.6 -0.3,3.1 -1.7,-1.3 -3.8,-2.3 -6,-3.4 -1.6,-0.8 -3.2,-1.6 -4.8,-2.6 -3.3,-1.8 -5.2,-4.1 -5.6,-6.5 z m 10.9,22 c -6.1,-5.3 -5.3,-10.2 -4.5,-12.3 1,0.6 2,1.1 3,1.6 2.8,1.4 5.1,2.6 6.8,4.2 -0.3,2.6 -0.7,5.7 -1.3,9.1 -1.4,-0.6 -2.8,-1.5 -4,-2.6 z m 16,23.9 c 0,0.1 0,0.2 -0.1,0.3 0,0 0,0 0,0 -0.1,0.2 -0.2,0.4 -0.3,0.6 0,0.1 0,0.1 -0.1,0.2 -0.6,1.3 -1.5,2.4 -1.8,2.5 -0.2,0.1 -0.4,0.1 -0.6,0.1 0,0 -0.1,0 -0.1,0 -0.2,0 -0.4,0 -0.7,0 -0.7,0 -1.6,-0.2 -2.5,-0.4 -0.1,0 -0.2,0 -0.3,-0.1 -0.1,0 -0.1,0 -0.2,-0.1 -3.6,-1.1 -7.9,-3.4 -8.8,-4.9 0,0 0,-0.1 0,-0.1 1.8,-0.5 2.8,-1.6 3.3,-2.3 2.7,1.7 8.6,4.2 12.2,4.2 z M 141,257.6 c -2.2,-1.5 -3.6,-3.9 -4.2,-6.6 4.7,0.5 13.6,-1 28.3,-4.8 l 1.3,-0.3 c 8.4,-2.2 17.8,-4.7 23.4,-1.4 2.2,1.3 3.7,3.5 4.5,6.6 l 0.6,2.2 c 3.5,13.7 4.8,18.5 11.5,21 -0.4,0.3 -0.9,0.5 -1.6,0.7 0,0 0,0 0,0 0,0 0,0 0,0 -0.3,0.1 -0.7,0.1 -1.1,0.2 -0.1,0 -0.1,0 -0.2,0 -2.8,0.3 -7.9,-0.6 -12.2,-11.3 0,-0.1 -0.1,-0.2 -0.1,-0.3 -0.7,-1.9 -1.5,-4.1 -2.1,-6.7 -0.6,-2.3 -1.7,-3.9 -3.4,-4.8 -1.3,-0.7 -2.9,-1.1 -4.8,-1.1 -4.9,0 -12,2.1 -22.5,5.2 -2.8,0.8 -5.8,1.7 -9.1,2.7 -2.9,0.9 -5.9,0.4 -8.3,-1.3 z m 11.4,8.1 c -1.1,-0.9 -2.5,-2.3 -2.7,-4.4 0.1,0 0.2,0 0.3,-0.1 3.3,-0.9 6.3,-1.8 9.1,-2.7 13.1,-3.9 21.7,-6.5 25.4,-4.4 1.1,0.6 1.8,1.7 2.3,3.3 0.4,1.4 0.7,2.6 1.1,3.8 -4.8,-1 -13.3,1.8 -21.7,4.9 -1.6,0.6 -2.9,1.1 -3.7,1.3 -3.2,1.1 -7.4,0.3 -10.1,-1.7 z m 14.5,7.7 c -1.7,-1.1 -2.4,-2.8 -2.7,-3.9 0.8,-0.3 1.7,-0.6 2.8,-1 5.7,-2.1 17.6,-6.4 21.3,-4.5 0.3,0.2 0.5,0.4 0.7,0.6 0.9,2.2 1.8,4.2 2.8,5.8 -3.2,-0.5 -6.7,0.7 -10.5,1.9 -1.7,0.6 -3.5,1.2 -5.4,1.6 -3.8,1.1 -6.9,0.9 -9,-0.5 z m 24.2,8.1 c -8.5,0.6 -11.5,-3.7 -12.4,-5.7 1.2,-0.4 2.3,-0.7 3.4,-1.1 5.4,-1.8 9.4,-3.1 13,-0.2 1.8,1.7 3.8,2.7 6,3 -1.9,1.5 -5.2,3.6 -10,4 z m 19.3,35.3 c -0.1,0.6 -0.5,1.2 -1.1,1.4 l -0.2,0.1 c -1.7,0.5 -6.8,2.2 -13.3,-0.7 -7.2,-3.1 -8.6,-8.3 -8.8,-9.3 -0.1,-0.3 0,-0.6 0.2,-0.9 3,-4.2 10.6,-15 17.9,-27.5 1.3,1.1 3.2,2.3 5.4,3.3 2.1,0.9 4.3,1.6 6.3,1.9 -4.3,11.6 -5.8,24.8 -6.4,31.7 z m 10.3,-40.2 c -1,-0.1 -2.5,-0.4 -4.5,-1.2 -3.9,-1.4 -6.8,-3.2 -7.3,-3.9 0,0 0,0 0,0 2.3,-8.1 3.6,-17.1 4.2,-23 0,-0.1 0,-0.2 0,-0.3 0,-0.3 0.1,-0.7 0.1,-1 1.9,2.2 5.2,4.3 9.3,5.9 4.2,1.6 8.1,2.3 11,2.3 0.4,0 0.8,0 1.1,0 -3.3,4.2 -9.4,12.2 -13.9,21.2 z"
   id="path3059"
   inkscape:connector-curvature="0" />
		<path
   d="m 337.5,192.8 c -11.5,-4.4 -34.2,-13.4 -37.8,-16.1 -4.6,-3.5 -35.9,-28.8 -36.2,-29 -0.1,-0.1 -0.2,-0.1 -0.3,-0.2 0,0 -0.1,0 -0.1,0 -0.1,0 -0.3,-0.1 -0.4,-0.1 0,0 -0.1,0 -0.1,0 -0.1,0 -0.2,0 -0.3,0.1 0,0 0,0 0,0 0,0 -0.1,0.1 -0.1,0.1 -0.1,0 -0.1,0.1 -0.2,0.1 -4.6,4.3 -27.4,17.4 -29.7,18.7 -5.3,-4.8 -9.9,-11.2 -13.8,-19.3 -0.1,-0.2 -0.2,-0.3 -0.4,-0.5 -15.5,-11.2 -21.3,-14.4 -23.8,-15.1 v -39 c 0,-0.7 -0.5,-1.2 -1.2,-1.2 -0.7,0 -1.2,0.5 -1.2,1.2 V 132 c -3.7,3.8 -18.9,25.3 -25.6,34.8 l -4.3,5.7 c -9.4,-9.1 -34.9,-26.5 -36,-27.3 0,0 0,0 -0.1,0 -0.1,0 -0.1,-0.1 -0.2,-0.1 -0.1,0 -0.1,-0.1 -0.2,-0.1 -0.1,0 -0.1,0 -0.2,0 -0.1,0 -0.2,0 -0.3,0 0,0 -0.1,0 -0.1,0 0,0 -0.1,0 -0.1,0.1 -0.1,0 -0.2,0.1 -0.2,0.1 -0.1,0 -0.1,0.1 -0.2,0.1 0,0 -0.1,0 -0.1,0.1 l -18.7,23.2 -36.5,16.1 c -0.6,0.3 -0.9,1 -0.6,1.6 0.2,0.4 0.6,0.7 1.1,0.7 0.2,0 0.3,0 0.5,-0.1 l 36.8,-16.2 c 0.2,-0.1 0.3,-0.2 0.4,-0.3 l 17.4,-21.6 10.6,35.9 -29.2,24.1 c -0.5,0.4 -0.6,1.2 -0.2,1.7 0.2,0.3 0.6,0.4 0.9,0.4 0.3,0 0.5,-0.1 0.8,-0.3 l 16.7,-13.7 6.6,16.6 -9.9,13.4 c -0.4,0.5 -0.3,1.3 0.2,1.7 0.2,0.2 0.5,0.2 0.7,0.2 0.4,0 0.7,-0.2 1,-0.5 l 45.4,-60.1 c 8.7,-12.4 23.1,-32.4 25.3,-34.5 2.3,0.5 13.2,7.7 22.9,14.7 9,18.8 22.4,29.1 39.6,30.7 l 32.3,47.5 c 0.4,0.5 1.1,0.7 1.7,0.3 0.5,-0.4 0.7,-1.1 0.3,-1.7 l -11.1,-16.4 1.3,-15.8 26.1,12.2 c 0.2,0.1 0.3,0.1 0.5,0.1 0.5,0 0.9,-0.3 1.1,-0.7 0.3,-0.6 0,-1.3 -0.6,-1.6 l -26.9,-12.6 0.5,-6.3 c 0,-0.2 0,-0.4 -0.1,-0.6 l -15,-30.5 c 8.8,7.1 28.4,22.9 32.1,25.7 4.7,3.6 37,15.9 38.4,16.4 0.1,0.1 0.3,0.1 0.4,0.1 0.5,0 0.9,-0.3 1.1,-0.8 0.2,-0.6 -0.1,-1.3 -0.7,-1.6 z m -211.1,2.5 11.2,-9.2 c 0.4,-0.3 0.5,-0.8 0.4,-1.3 l -10.5,-35.6 c 7.1,4.9 25.8,18.1 33.1,25.3 l -27.8,36.8 z m 150.7,10.4 -19.3,-28.4 c -0.2,-0.3 -0.5,-0.5 -0.9,-0.5 -8.7,-0.7 -16.2,-3.6 -22.6,-8.7 4.4,-2.5 22,-12.7 28.1,-17.5 l 16.4,33.8 z"
   id="path3061"
   inkscape:connector-curvature="0" />
		<path
   d="m 62.1,213.7 c -0.7,0 -1.2,0.5 -1.2,1.2 v 10.9 c 0,0.7 0.5,1.2 1.2,1.2 0.7,0 1.2,-0.5 1.2,-1.2 v -10.9 c 0,-0.7 -0.6,-1.2 -1.2,-1.2 z"
   id="path3063"
   inkscape:connector-curvature="0" />
		<path
   d="m 79.5,216.4 c -0.7,0 -1.2,0.5 -1.2,1.2 v 10.9 c 0,0.7 0.5,1.2 1.2,1.2 0.7,0 1.2,-0.5 1.2,-1.2 v -10.9 c 0,-0.6 -0.6,-1.2 -1.2,-1.2 z"
   id="path3065"
   inkscape:connector-curvature="0" />
		<path
   d="m 97.5,225.7 c -0.7,0 -1.2,0.5 -1.2,1.2 v 10.9 c 0,0.7 0.5,1.2 1.2,1.2 0.7,0 1.2,-0.5 1.2,-1.2 v -10.9 c 0,-0.7 -0.6,-1.2 -1.2,-1.2 z"
   id="path3067"
   inkscape:connector-curvature="0" />
		<path
   d="m 300.1,226.5 c -0.7,0 -1.2,0.5 -1.2,1.2 v 10.9 c 0,0.7 0.5,1.2 1.2,1.2 0.7,0 1.2,-0.5 1.2,-1.2 v -10.9 c 0,-0.7 -0.5,-1.2 -1.2,-1.2 z"
   id="path3069"
   inkscape:connector-curvature="0" />
		<path
   d="m 317.9,220.5 c -0.7,0 -1.2,0.5 -1.2,1.2 v 10.9 c 0,0.7 0.5,1.2 1.2,1.2 0.7,0 1.2,-0.5 1.2,-1.2 v -10.9 c 0,-0.6 -0.6,-1.2 -1.2,-1.2 z"
   id="path3071"
   inkscape:connector-curvature="0" />
		<path
   d="m 335.6,217.7 c -0.7,0 -1.2,0.5 -1.2,1.2 v 10.9 c 0,0.7 0.5,1.2 1.2,1.2 0.7,0 1.2,-0.5 1.2,-1.2 v -10.9 c 0,-0.7 -0.6,-1.2 -1.2,-1.2 z"
   id="path3073"
   inkscape:connector-curvature="0" />
	</g>
</g>
</svg>
