<?xml version="1.0" encoding="UTF-8" standalone="no"?>
<!-- Generator: Adobe Illustrator 21.0.0, SVG Export Plug-In . SVG Version: 6.00 Build 0)  -->

<svg
   xmlns:dc="http://purl.org/dc/elements/1.1/"
   xmlns:cc="http://creativecommons.org/ns#"
   xmlns:rdf="http://www.w3.org/1999/02/22-rdf-syntax-ns#"
   xmlns:svg="http://www.w3.org/2000/svg"
   xmlns="http://www.w3.org/2000/svg"
   xmlns:sodipodi="http://sodipodi.sourceforge.net/DTD/sodipodi-0.dtd"
   xmlns:inkscape="http://www.inkscape.org/namespaces/inkscape"
   version="1.1"
   id="Layer_1"
   x="0px"
   y="0px"
   viewBox="0 0 251.8163 259.85001"
   xml:space="preserve"
   sodipodi:docname="how-does-crowdsell-work_touched.svg"
   width="251.8163"
   height="259.85001"
   inkscape:version="0.92.4 (33fec40, 2019-01-16)"><metadata
   id="metadata3179"><rdf:RDF><cc:Work
       rdf:about=""><dc:format>image/svg+xml</dc:format><dc:type
         rdf:resource="http://purl.org/dc/dcmitype/StillImage" /><dc:title></dc:title></cc:Work></rdf:RDF></metadata><defs
   id="defs3177" /><sodipodi:namedview
   pagecolor="#ffffff"
   bordercolor="#666666"
   borderopacity="1"
   objecttolerance="10"
   gridtolerance="10"
   guidetolerance="10"
   inkscape:pageopacity="0"
   inkscape:pageshadow="2"
   inkscape:window-width="3840"
   inkscape:window-height="2112"
   id="namedview3175"
   showgrid="false"
   fit-margin-top="0"
   fit-margin-left="0"
   fit-margin-right="0"
   fit-margin-bottom="0"
   inkscape:zoom="0.59"
   inkscape:cx="125.70982"
   inkscape:cy="128.4"
   inkscape:window-x="0"
   inkscape:window-y="48"
   inkscape:window-maximized="1"
   inkscape:current-layer="Layer_1" />

<style type="text/css">
	.st0{opacity:0.5;fill:#7CCFDD;}
	.st1{fill:#FFFFFF;}
	.st2{fill:#7CCFDD;}
</style>

<g
   id="g3172"
   transform="translate(-74.290184,-68.55)">
	<path
   class="st0"
   d="M 129.6,103.2 C 5,185.7 107.9,401.4 269.8,295 412.9,200.9 252.5,21.8 129.6,103.2 Z"
   id="path3086"
   inkscape:connector-curvature="0" />
	<path
   class="st1"
   d="m 175.6,145 -9.1,-5.4 c 4.1,0.5 7.3,1.6 9.1,5.4 z"
   id="path3088"
   inkscape:connector-curvature="0" />
	<path
   class="st1"
   d="m 137.4,114.8 c -2,5.9 3.1,12.4 9.1,12.9 0,0 -2.7,9.4 10.1,11 0.3,0 0.6,0.1 0.9,0.1 v 0 c 0,0 -1.4,8.7 10.2,12.4 8.1,2.6 14,-1.1 14,-1.2 l -0.6,2.7 c -12,9.4 -23.8,17 -26.9,19 -0.6,0.4 -0.9,0.9 -1.1,1.6 -0.4,2.1 -0.4,7.5 5.1,13 5.5,5.6 11.5,5.8 13,5.9 1.1,0.1 2.2,-0.5 2.7,-1.5 2.2,-4.5 9.3,-18 18.7,-28.1 0.3,0.1 0.7,0.2 1,0.2 1.2,0.1 4.9,-2.5 5.4,-4.5 0,0 0,0 0,0 v 0 c 0.1,-0.4 0.1,-0.7 -0.1,-1.1 h -0.1 l 23.5,-15.8 c 1.5,-0.7 0.5,-3.3 -2.2,-6.3 l 2.1,1.6 4.3,-3.3 c 0,0 -2.7,-4.1 -6.8,-7.4 -0.5,-0.4 -1,-0.8 -1.5,-1.1 0.6,-0.4 1.1,-0.9 1.7,-1.3 10.5,-8.1 1.2,-19.7 -6.5,-29.4 -13.5,-17.2 -15,-24.4 -15,-24.4 -6.4,3.1 -8.5,10.9 -4.1,16.5 -2.9,1.4 -4.5,4.3 -4.8,7.3 v 0 0 c -0.3,2.7 0.4,5.5 2.2,7.7 0,0 -8.2,4.5 -0.7,14.4 0.2,0.2 0.3,0.4 0.5,0.6 v 0 c 0,0 -4.2,3 -3.5,9.3 l -0.1,0.2 0.1,0.3 c 0.2,1.6 0.8,3.5 1.9,5.6 1,2 2.2,3.5 3.4,4.7 l -6.6,10.6 -2.5,0.1 v 0 l -2.4,-10.7 c 0.2,-3.3 0.8,-7.5 1.5,-13.1 1.8,-13.7 -13.6,-15.1 -26.4,-16.8 -17.1,-2.2 -26,-4.3 -28.9,-6.8 -2.1,7 2.1,14.3 9.4,15.1 z m 49.7,32.1 c 0,0 0.1,-0.1 0.1,-0.1 z"
   id="path3090"
   inkscape:connector-curvature="0" />
	<path
   class="st1"
   d="m 235.3,273.6 -2,-33.9 -12.4,0.7 -13.3,-20.1 5.6,-11.1 -30.3,-15.2 -5.6,11.1 -24.1,1.4 -6.8,-10.3 -28.3,18.7 6.8,10.3 -10.8,21.6 -12.4,0.7 2,33.9 12.4,-0.7 13.3,20.1 -5.6,11.1 30.3,15.2 5.6,-11.1 24.1,-1.4 6.8,10.3 28.3,-18.7 -6.8,-10.3 10.8,-21.6 z m -52.8,11.1 h -28 l -14,-24.2 14,-24.2 h 28 l 14,24.2 z"
   id="path3092"
   inkscape:connector-curvature="0" />
	<path
   class="st1"
   d="m 305.6,203.9 c 0.3,-3.9 0,-7.7 -0.7,-11.6 l 5.8,-11 -13.3,-20.1 -12.4,1 c -3.3,-2.2 -6.7,-3.9 -10.4,-5.2 l -6.7,-10.5 -24,1.4 -5.4,11.2 c -1.7,0.8 -3.4,1.8 -5,2.9 -1.6,1.1 -3.2,2.3 -4.6,3.5 l -12.4,0.5 -10.8,21.5 7,10.3 c -0.3,3.9 0,7.7 0.7,11.6 l -5.8,11 13.3,20.1 12.4,-1 c 3.3,2.2 6.7,3.9 10.4,5.2 l 6.7,10.5 24,-1.4 5.4,-11.2 c 1.7,-0.8 3.4,-1.8 5,-2.9 1.6,-1.1 3.2,-2.3 4.6,-3.5 l 12.4,-0.5 10.8,-21.5 z m -22.2,10.9 -24.2,14 -24.2,-14 v -28 l 24.2,-14 24.2,14 z"
   id="path3094"
   inkscape:connector-curvature="0" />
	<path
   class="st2"
   d="m 212.2,137.3 -19.2,19.2 5.9,1.7 c 0,0 7.8,-8.6 23.3,-16.9 0,0.1 -5.1,-0.1 -10,-4 z"
   id="path3096"
   inkscape:connector-curvature="0" />
	<path
   class="st2"
   d="m 188.6,160.2 c 0,0 -15.6,24.1 -26.8,18.5 -4.2,-2.1 -4.9,-8.8 -4.9,-8.8 l -2.7,1.8 c 0,0 -5.3,12.1 13.4,19.9 4.4,1.9 6.3,-1 6.3,-1 0,0 9.9,-20.3 18.9,-28.3 z"
   id="path3098"
   inkscape:connector-curvature="0" />
	<path
   class="st2"
   d="m 203.2,127.8 c 0,0 10.4,2.9 16.4,12.9 -0.1,0.1 -11.8,-3.2 -16.4,-12.9 z"
   id="path3100"
   inkscape:connector-curvature="0" />
	<path
   class="st2"
   d="m 209.9,125.7 c 0,0 7.2,0.6 15,9 l -3.1,2.5 -11.8,-10 z"
   id="path3102"
   inkscape:connector-curvature="0" />
	<path
   class="st2"
   d="m 198.4,69.6 c 0,0 -5.9,8.5 0,15.7 6,7.2 29.7,28.3 15.6,37 l 4.1,2.5 c 0,0 12.4,-7 3.3,-19.5 -9.1,-12.5 -21.9,-30.1 -23,-35.7 z"
   id="path3104"
   inkscape:connector-curvature="0" />
	<path
   class="st2"
   d="m 209.9,120.4 c 0,0 6.1,-3.6 3.7,-8.2 -2.3,-4.6 -19.9,-26.2 -19.9,-26.2 0,0 -4.9,5.7 4.9,16.6 9.8,10.9 11.3,17.8 11.3,17.8 z"
   id="path3106"
   inkscape:connector-curvature="0" />
	<path
   class="st2"
   d="m 205.1,118.8 -13.6,-18 c 0,0 -3.3,6 2.7,12.1 6,6.2 7.8,10.7 7.8,10.7 z"
   id="path3108"
   inkscape:connector-curvature="0" />
	<path
   class="st2"
   d="m 191.6,116.2 c 0,0 -2.8,10.1 4.9,16.7 l 3.8,-6.9 z"
   id="path3110"
   inkscape:connector-curvature="0" />
	<path
   class="st2"
   d="m 176.5,146.4 c 0,0 -11.5,4.5 -19.3,-6.3 0,0 14.9,-3.6 19.3,6.3 z"
   id="path3112"
   inkscape:connector-curvature="0" />
	<path
   class="st2"
   d="m 146.6,127.7 c 0,0 26.9,-0.6 27,6.6 0,1.7 0.3,4.9 0.3,4.9 0,0 -1.8,-3.3 -12.5,-4.5 -10.6,-1.1 -14.8,-3.9 -14.8,-7 z"
   id="path3114"
   inkscape:connector-curvature="0" />
	<path
   class="st2"
   d="m 137.5,114.8 c 0,0 22.1,1.8 26.7,2.9 4.6,1.1 10.2,2.2 9.9,7.4 -0.1,1.2 -0.3,3.2 -0.3,3.2 0,0 -3.3,-3.9 -13,-4.4 -9.7,-0.3 -23.9,-1.3 -23.3,-9.1 z"
   id="path3116"
   inkscape:connector-curvature="0" />
	<path
   class="st2"
   d="m 128.3,99.7 c 0,0 0.4,8 12.1,10.6 11.7,2.7 41.4,1.9 38.8,13.4 -2.6,11.5 -3,24.3 7.1,26.2 l -1.9,-2.9 c 0,0 -3.3,-2.8 -2.3,-11.7 1,-8.9 6.1,-22.9 -10,-26.6 -16,-3.6 -38.5,-4.1 -43.8,-9 z"
   id="path3118"
   inkscape:connector-curvature="0" />
	<polygon
   class="st2"
   points="166.6,218.7 172,205.4 153.3,206.5 161.7,219.2 "
   id="polygon3120" />
	<polygon
   class="st2"
   points="129.3,245.9 114.2,246.8 122.1,231 131.4,241.3 "
   id="polygon3122" />
	<polygon
   class="st2"
   points="136.3,287.2 133.3,283.2 119.7,285.9 129.4,300.7 "
   id="polygon3124" />
	<polygon
   class="st2"
   points="183.8,314.5 175.5,301.8 170.6,302.4 166.6,315.5 "
   id="polygon3126" />
	<polygon
   class="st2"
   points="215.4,289.3 222.9,274.3 207.8,275.2 206.1,279.7 "
   id="polygon3128" />
	<polygon
   class="st2"
   points="204.4,238.9 216.8,234.1 207.8,221.6 200.9,233.9 "
   id="polygon3130" />
	<path
   class="st2"
   d="m 146.5,196.2 c 1,20.9 -16.4,25.4 -13.1,41.7 0,0 7.6,-14.9 28.3,-18.7 z"
   id="path3132"
   inkscape:connector-curvature="0" />
	<path
   class="st2"
   d="m 101.8,247.5 c 18.6,9.5 13.8,26.9 29.6,32.2 0,0 -9.1,-14.1 -2,-33.9 z"
   id="path3134"
   inkscape:connector-curvature="0" />
	<path
   class="st2"
   d="m 123.9,311.8 c 17.5,-11.3 30.2,1.5 42.7,-9.5 0,0 -16.7,0.8 -30.3,-15.2 z"
   id="path3136"
   inkscape:connector-curvature="0" />
	<path
   class="st2"
   d="m 190.7,324.9 c -1,-20.9 16.4,-25.4 13.1,-41.7 0,0 -7.6,14.9 -28.3,18.7 z"
   id="path3138"
   inkscape:connector-curvature="0" />
	<path
   class="st2"
   d="m 235.3,273.6 c -18.6,-9.5 -13.8,-26.9 -29.6,-32.2 0,0 9.1,14.1 2,33.9 z"
   id="path3140"
   inkscape:connector-curvature="0" />
	<polygon
   class="st2"
   points="187.4,244.7 182.5,236.3 154.6,236.3 140.6,260.5 154.6,284.7 154.7,284.7 145.5,268.9 159.5,244.7 "
   id="polygon3142" />
	<path
   class="st2"
   d="m 213.2,209.2 c -17.5,11.3 -30.2,-1.5 -42.7,9.5 0,0 16.7,-0.8 30.3,15.2 z"
   id="path3144"
   inkscape:connector-curvature="0" />
	<path
   class="st2"
   d="m 292.5,178.5 c -12.6,-6.4 -5.6,-20.9 -34.6,-14.5 -15.9,3.5 -19.9,-0.1 -27.8,6.8 -7.8,6.9 -3.4,18.8 -8.6,33.4 -5.2,14.7 -0.5,25.2 13.8,26.8 14.3,1.7 15.7,14.8 25,12 9.3,-2.8 10.7,-10 21.9,-12 11.2,-2 16.5,-6.2 15.1,-20.7 -1.4,-14.5 7.8,-25.3 -4.8,-31.8 z m -33.3,55.6 c -18.4,0 -33.3,-14.9 -33.3,-33.3 0,-18.4 14.9,-33.3 33.3,-33.3 18.4,0 33.3,14.9 33.3,33.3 0,18.4 -14.9,33.3 -33.3,33.3 z"
   id="path3146"
   inkscape:connector-curvature="0" />
	<path
   class="st2"
   d="m 244,147.8 c 0,0 17.2,2.3 17.8,6.6 l 12.9,2.5 -6.7,-10.5 z"
   id="path3148"
   inkscape:connector-curvature="0" />
	<path
   class="st2"
   d="m 297.5,161.2 c 0,0 4.8,10.9 4,20.4 l 3.4,10.7 5.8,-11 z"
   id="path3150"
   inkscape:connector-curvature="0" />
	<path
   class="st2"
   d="m 312.7,214.1 -10.8,21.5 -12.4,0.5 c 0,0 6.4,-4.6 9.8,-11.7 -0.1,0 4.6,-2.1 13.4,-10.3 z"
   id="path3152"
   inkscape:connector-curvature="0" />
	<path
   class="st2"
   d="m 274.4,253.8 -24,1.4 -6.7,-10.5 c 0,0 7.2,3.2 15,2.6 0.1,0 4.3,3 15.7,6.5 z"
   id="path3154"
   inkscape:connector-curvature="0" />
	<path
   class="st2"
   d="m 220.9,240.4 -13.3,-20.1 5.8,-11 c 0,0 0.8,7.8 5.3,14.3 0,0 -0.4,5.2 2.2,16.8 z"
   id="path3156"
   inkscape:connector-curvature="0" />
	<path
   class="st2"
   d="M 205.8,187.5 216.6,166 229,165.5 c 0,0 -6.4,4.6 -9.8,11.7 0,0 -4.7,2.2 -13.4,10.3 z"
   id="path3158"
   inkscape:connector-curvature="0" />
	<g
   id="g3170">
		<path
   d="m 313.7,213.4 -6.8,-9.9 c 0.2,-3.7 0,-7.4 -0.6,-11.1 l 5.6,-10.6 c 0.2,-0.4 0.2,-0.9 -0.1,-1.2 l -13.3,-20.1 c -0.2,-0.4 -0.6,-0.6 -1.1,-0.5 l -12,0.9 c -3.1,-2 -6.4,-3.7 -9.9,-5 l -6.4,-10.2 c -0.2,-0.4 -0.6,-0.6 -1.1,-0.6 l -24,1.4 c -0.4,0 -0.8,0.3 -1,0.7 l -5.2,10.9 c -1.7,0.9 -3.3,1.8 -4.8,2.8 -1.5,1 -3,2.1 -4.4,3.3 l -12,0.5 c -0.4,0 -0.8,0.3 -1,0.7 l -10.8,21.5 c -0.2,0.4 -0.2,0.9 0.1,1.2 l 6.8,9.9 c -0.2,3.1 0,6.1 0.4,9.1 L 183.5,193 c -0.3,-0.1 -0.6,-0.2 -0.9,-0.1 -0.3,0.1 -0.6,0.3 -0.7,0.6 l -5.2,10.5 -22.7,1.3 -6.4,-9.8 c -0.4,-0.6 -1.1,-0.7 -1.7,-0.3 l -28.3,18.7 c -0.3,0.2 -0.5,0.4 -0.5,0.8 -0.1,0.3 0,0.6 0.2,0.9 l 6.4,9.8 -10.2,20.3 -11.7,0.7 c -0.3,0 -0.6,0.2 -0.8,0.4 -0.2,0.2 -0.3,0.5 -0.3,0.9 l 2,33.9 c 0,0.3 0.2,0.6 0.4,0.8 0.2,0.2 0.6,0.3 0.9,0.3 l 11.7,-0.7 12.5,19 -5.2,10.5 c -0.3,0.6 -0.1,1.3 0.5,1.6 l 30.3,15.2 c 0.2,0.1 0.4,0.1 0.5,0.1 0.1,0 0.3,0 0.4,-0.1 0.3,-0.1 0.6,-0.3 0.7,-0.6 l 5.2,-10.5 22.7,-1.3 6.4,9.8 c 0.2,0.3 0.4,0.5 0.8,0.5 0.3,0.1 0.6,0 0.9,-0.2 l 28.3,-18.7 c 0.6,-0.4 0.7,-1.1 0.3,-1.7 l -6.4,-9.8 10.2,-20.3 11.7,-0.7 c 0.7,0 1.2,-0.6 1.1,-1.3 l -1.9,-31.8 c 2.6,1.6 5.4,2.9 8.3,3.9 l 6.4,10.2 c 0.2,0.3 0.6,0.6 1,0.6 0,0 0,0 0.1,0 l 24,-1.4 c 0.4,0 0.8,-0.3 1,-0.7 l 5.2,-10.9 c 1.7,-0.9 3.3,-1.8 4.8,-2.8 1.5,-1 3,-2.1 4.4,-3.3 l 12,-0.5 c 0.4,0 0.8,-0.3 1,-0.7 l 10.8,-21.5 c 0.2,-0.3 0.2,-0.8 0,-1.2 z m -4.4,-32.1 -4,7.6 c -2.7,-10.4 -8.8,-19.4 -17.1,-25.8 l 8.6,-0.7 z m -50.1,64.8 c -25,0 -45.3,-20.3 -45.3,-45.3 0,-25 20.3,-45.3 45.3,-45.3 25,0 45.3,20.3 45.3,45.3 0,25 -20.3,45.3 -45.3,45.3 z m -49.7,27.8 c 1.4,-4.2 2.1,-8.7 2.1,-13.4 0,-6.5 -1.4,-12.6 -4,-18.1 l 13.4,-0.8 c 0,0 0,0 0,0 l 5.5,-0.3 5.7,-0.3 1.9,31.5 z m 7.8,32 -26.3,17.3 -6.2,-9.3 v 0 l -7.4,-11.2 c 10.8,-2.3 20.1,-8.6 26.3,-17.4 z m -48.7,-4.7 c -22.4,0 -40.7,-18.2 -40.7,-40.7 0,-22.5 18.2,-40.7 40.7,-40.7 22.5,0 40.7,18.2 40.7,40.7 0,22.5 -18.3,40.7 -40.7,40.7 z m -63.7,-21.1 -1.9,-31.5 5.3,-0.3 5.9,-0.4 c 0,0 0,0 0,0 l 13.4,-0.8 c -1.4,4.2 -2.1,8.7 -2.1,13.4 0,6.5 1.4,12.6 4,18.1 z M 126,224.5 c 0,0 0,0 0,0 l -4.2,-6.4 -1.9,-3 26.3,-17.3 6.2,9.3 c 0,0 0,0 0,0 l 7.4,11.2 c -10.8,2.3 -20.1,8.6 -26.3,17.4 z m 95.6,14.7 -8.3,-12.6 -4.2,-6.3 4,-7.6 c 2.7,10.4 8.8,19.4 17.1,25.8 z m -13.8,-16.5 11,16.6 -12.3,0.7 c -1.2,-2.2 -2.6,-4.3 -4.2,-6.3 z m 37,-73.7 22.6,-1.3 4.6,7.2 c -4.1,-1.1 -8.4,-1.8 -12.8,-1.8 -6.4,0 -12.5,1.3 -18.1,3.6 z m -37.7,38.4 10.2,-20.3 8.6,-0.4 c -7.4,7.3 -12.5,16.9 -13.9,27.7 z m -0.5,32.4 c 0,0 0,0.1 0,0.1 l -5.9,11.9 c -7.1,-7.9 -17,-13.2 -28.2,-14.2 l 11,-22 28.2,14.1 z m -31.2,-13.3 -5.5,11 c -0.4,0 -0.8,0 -1.3,0 -2.2,0 -4.3,0.2 -6.3,0.5 l -6.8,-10.3 z m -50.3,21.1 6.8,10.3 c -1.3,2.1 -2.5,4.4 -3.4,6.8 l -12.3,0.7 z m -6.8,54.1 12.3,-0.7 c 1.2,2.2 2.6,4.3 4.2,6.3 l -5.5,11.1 z m 9.5,25 8.7,-17.4 c 7.1,7.9 17,13.1 28.2,14.1 l -6,12 c 0,0 0,0 0,0 l -5,10 -28.2,-14.1 z m 34,7.9 5.5,-11 c 0.4,0 0.8,0 1.3,0 2.2,0 4.3,-0.2 6.3,-0.5 l 6.8,10.3 z m 50.2,-21.1 -6.8,-10.3 c 1.3,-2.1 2.5,-4.4 3.4,-6.8 l 12.3,-0.7 z m 61.6,-40.9 -22.6,1.3 -4.6,-7.2 c 4.1,1.1 8.4,1.8 12.8,1.8 6.4,0 12.5,-1.3 18.1,-3.6 z m 27.5,-18.1 -8.6,0.4 c 7.4,-7.3 12.5,-16.9 13.9,-27.7 l 4.8,7.1 z"
   id="path3160"
   inkscape:connector-curvature="0" />
		<path
   d="m 259.2,166.3 c -19,0 -34.5,15.5 -34.5,34.5 0,19 15.5,34.5 34.5,34.5 19,0 34.5,-15.5 34.5,-34.5 0,-19 -15.5,-34.5 -34.5,-34.5 z m 0,66.6 c -17.7,0 -32.1,-14.4 -32.1,-32.1 0,-17.7 14.4,-32.1 32.1,-32.1 17.7,0 32.1,14.4 32.1,32.1 0,17.7 -14.4,32.1 -32.1,32.1 z"
   id="path3162"
   inkscape:connector-curvature="0" />
		<path
   d="m 134.8,115.5 c -0.5,2.2 -0.1,4.6 1.2,6.8 1.9,3.2 5.5,5.7 9.2,6.4 -0.1,1.5 -0.1,3.9 1.4,6.2 1.8,2.7 5,4.4 9.7,5 0.1,2.7 1.3,9.3 11,12.5 2.2,0.7 4.3,1 6.1,1 2.6,0 4.8,-0.6 6.4,-1.1 -11.2,8.8 -22,15.8 -26.3,18.5 -0.8,0.5 -1.4,1.4 -1.6,2.4 -0.3,1.7 -0.8,7.7 5.4,14 3.7,3.8 8.3,5.9 13.6,6.3 h 0.2 c 0.1,0 0.2,0 0.3,0 1.5,0 2.9,-0.8 3.5,-2.2 3.1,-6.3 9.6,-18.1 18,-27.3 0.2,0 0.3,0.1 0.5,0.1 0,0 0.1,0 0.1,0 0,0 0,0 0,0 0.2,0 0.4,0 0.6,-0.1 0.1,0 0.1,0 0.2,0 0.2,-0.1 0.4,-0.1 0.6,-0.2 0.1,0 0.2,-0.1 0.3,-0.1 0.2,-0.1 0.4,-0.2 0.7,-0.3 0.1,0 0.1,-0.1 0.2,-0.1 0.5,-0.3 1.1,-0.7 1.6,-1.2 0,0 0,0 0,0 0.2,-0.2 0.4,-0.4 0.6,-0.6 0.1,-0.1 0.2,-0.2 0.2,-0.2 0.1,-0.1 0.2,-0.2 0.2,-0.3 0.3,-0.4 0.6,-0.7 0.8,-1.1 0.2,-0.3 0.3,-0.7 0.4,-0.9 0,0 0,0 0,0 0,-0.1 0,-0.1 0.1,-0.2 0,-0.1 0,-0.2 0.1,-0.3 0.1,-0.4 0,-0.7 0,-0.9 10.5,-8.8 22.5,-14.8 22.7,-14.9 0,0 0,0 0,0 0,0 0,0 0,0 0.9,-0.4 1.4,-1.2 1.4,-2.3 0,-0.8 -0.3,-1.8 -0.9,-2.8 l 4,-3.1 c 0.5,-0.4 0.6,-1.1 0.3,-1.6 -0.1,-0.2 -2.8,-4.3 -7,-7.7 -0.1,-0.1 -0.2,-0.1 -0.3,-0.2 l 0.5,-0.4 c 3,-2.3 4.7,-5 5.1,-8.2 0.9,-7.4 -5.5,-15.5 -11.2,-22.7 l -0.2,-0.3 C 201.4,76.8 199.7,69.5 199.7,69.5 c -0.1,-0.4 -0.3,-0.7 -0.6,-0.8 -0.3,-0.2 -0.7,-0.2 -1.1,0 -3.5,1.7 -6,4.8 -6.8,8.5 -0.7,3 -0.1,6.1 1.5,8.7 -2,1.2 -3.5,3.2 -4.1,5.7 -0.8,3.2 -0.2,6.7 1.6,9.5 -1.1,0.9 -2.7,2.6 -3.2,5.1 -0.6,3.1 0.4,6.5 3.1,10.1 -1.8,2 -5.4,7.3 -1,16 0.9,1.9 2.2,3.5 3.6,4.9 -2,3.2 -4.3,6.6 -6.8,9.6 -3.5,-3.7 -3,-7.9 -1.3,-21 l 0.3,-2.3 c 0.5,-3.8 -0.3,-7.1 -2.2,-9.6 -4.5,-5.9 -14.8,-7.2 -23.8,-8.3 l -1.4,-0.2 c -16.3,-2.1 -25.6,-4.2 -28.3,-6.5 -0.3,-0.3 -0.7,-0.3 -1.1,-0.2 -0.4,0.1 -0.7,0.4 -0.8,0.8 -1.3,3.9 -0.9,7.9 1.3,11.2 1.3,2.2 3.6,3.9 6.2,4.8 z m 3.2,5.6 c -0.7,-1.2 -1.4,-3 -0.9,-5.1 0.1,0 0.2,0 0.3,0 3.4,0.3 6.5,0.6 9.4,0.9 13.6,1.3 22.6,2.1 25.2,5.4 0.8,1 1.1,2.2 0.8,3.9 -0.2,1.4 -0.3,2.7 -0.4,4 -4.1,-2.7 -13,-3.3 -22,-3.5 -1.7,-0.1 -3.1,-0.1 -3.9,-0.2 -3.2,-0.3 -6.7,-2.5 -8.5,-5.4 z m 10.6,12.5 c -1.1,-1.7 -1.2,-3.5 -1.1,-4.6 0.8,0 1.8,0.1 2.9,0.1 6.1,0.2 18.8,0.6 21.5,3.8 0.2,0.3 0.4,0.5 0.4,0.8 0,2.4 0.1,4.5 0.5,6.4 -2.8,-1.6 -6.5,-1.9 -10.5,-2.1 -1.8,-0.1 -3.7,-0.2 -5.6,-0.5 -3.9,-0.4 -6.7,-1.8 -8.1,-3.9 z m 19.4,16.5 c -8.1,-2.6 -9.3,-7.7 -9.4,-9.9 1.2,0.1 2.4,0.2 3.6,0.3 5.8,0.4 9.9,0.6 12.1,4.7 1,2.2 2.5,3.8 4.4,4.9 -2.3,0.8 -6.1,1.5 -10.7,0 z m 32.7,-22.4 c 0.1,-0.1 0.1,-0.2 0.2,-0.3 0.2,-0.3 0.3,-0.6 0.5,-0.9 1,2.8 3.2,5.9 6.4,9 3.7,3.5 7.5,5.7 10.5,6.7 -4.7,2.6 -13.4,7.8 -20.9,14.4 -0.9,-0.5 -2.1,-1.3 -3.8,-2.8 -3.1,-2.8 -5.1,-5.5 -5.3,-6.4 0,0 0,0 0,0 5.1,-6.6 9.7,-14.5 12.4,-19.7 z m -13.4,23 c 1.9,2.5 6.5,7.1 9.7,8.4 -0.1,0.1 -0.1,0.1 -0.2,0.2 0,0 0,0 0,0 -0.1,0.2 -0.3,0.3 -0.4,0.4 0,0 -0.1,0.1 -0.1,0.1 -1.1,1 -2.3,1.6 -2.7,1.7 -0.2,0 -0.4,-0.1 -0.6,-0.1 0,0 -0.1,0 -0.1,0 -0.2,-0.1 -0.4,-0.1 -0.6,-0.2 0,0 0,0 0,0 -0.1,0 -0.2,-0.1 -0.3,-0.2 -3.5,-1.7 -8.2,-7.1 -8.5,-9.3 0,0 0,-0.1 0.1,-0.1 0.2,0 0.4,0 0.6,0 1.4,0.1 2.5,-0.5 3.1,-0.9 z m -14.5,39.4 c -0.3,0.6 -0.9,0.9 -1.5,0.9 h -0.2 c -1.8,-0.1 -7.1,-0.5 -12.1,-5.6 -5.5,-5.6 -4.9,-10.9 -4.7,-11.9 0.1,-0.3 0.2,-0.6 0.5,-0.8 4.3,-2.7 15.4,-9.9 26.8,-18.9 0.5,1 1.2,2 2.1,3.1 1.9,2.3 4.4,4.7 6.8,6 -8.3,9.4 -14.6,21 -17.7,27.2 z m 52.1,-57 -2.9,2.3 c -2.6,-3.3 -7.1,-7 -12.2,-9.7 -0.6,-0.3 -1.3,-0.1 -1.6,0.5 -0.3,0.6 -0.1,1.3 0.5,1.6 9.2,4.8 13.7,11.3 13.1,12.4 -0.7,0.3 -5.9,-0.5 -12.3,-6.5 -5.4,-5.1 -6.7,-9.4 -6,-11.2 0,-0.1 0.1,-0.2 0.1,-0.2 0,-0.1 0.1,-0.1 0.1,-0.2 0.5,-0.6 1.3,-0.8 1.9,-0.8 0.2,0 0.5,0 0.8,0 3.1,0 7.4,1.7 11.2,4.5 0,0 0,0 0,0 0.5,0.4 1,0.7 1.5,1.1 2.7,2.2 4.8,4.9 5.8,6.2 z M 193.4,77.5 c 0.6,-2.5 2.1,-4.7 4.3,-6.2 1.1,3 4.5,10.4 14.8,23.4 l 0.2,0.3 c 5.4,6.8 11.5,14.5 10.7,20.9 -0.3,2.5 -1.7,4.7 -4.2,6.6 l -1,0.8 c -2,-1.4 -4.1,-2.4 -6.1,-3.2 1.8,-1.4 2.8,-3 3,-4.8 0.6,-5.1 -4.6,-11.3 -14,-22.7 -1.8,-2.2 -3.7,-4.5 -5.8,-7.1 -1.8,-2.3 -2.5,-5.1 -1.9,-8 z M 190.8,92 c 0.5,-1.9 1.6,-3.5 3.2,-4.4 1.9,2.3 3.6,4.5 5.3,6.4 8.4,10.2 13.9,16.9 13.5,20.9 -0.1,1.2 -0.8,2.2 -2.1,3.2 -0.5,0.4 -0.9,0.7 -1.3,1 -1,-0.2 -1.9,-0.4 -2.8,-0.4 -2.4,-5.2 -8.7,-12.5 -12.1,-16.5 -0.7,-0.9 -1.3,-1.5 -1.7,-2 -2,-2.1 -2.7,-5.4 -2,-8.2 z m -1.6,14.5 c 0.4,-1.8 1.5,-3.1 2.3,-3.8 0.3,0.4 0.7,0.8 1,1.2 3.2,3.7 8.9,10.3 11.4,15.2 -1,0.3 -1.8,0.8 -2.3,1.5 -0.2,0.3 -0.4,0.6 -0.5,0.9 -0.2,0.5 -0.7,1.5 -1.4,2.8 -1.1,-1.8 -2.7,-3.6 -4.3,-5.4 -1.1,-1.3 -2.3,-2.7 -3.5,-4.2 -2.2,-3 -3.2,-5.7 -2.7,-8.2 z m 1.9,24.5 c -3.7,-7.2 -1.1,-11.4 0.4,-13.1 0.7,0.9 1.5,1.8 2.2,2.6 2,2.3 3.8,4.3 4.7,6.4 -1.2,2.3 -2.8,5 -4.6,8 -1,-1.1 -1.9,-2.4 -2.7,-3.9 z M 129,101.6 c 4.1,2.2 13,4.1 28,6.1 l 1.4,0.2 c 8.6,1.1 18.3,2.3 22.2,7.4 1.6,2.1 2.2,4.6 1.7,7.8 l -0.3,2.3 c -1.9,14.4 -2.5,19 2.8,23.8 -0.5,0.1 -1,0.2 -1.7,0 -0.3,-0.1 -0.7,-0.1 -1.1,-0.3 -0.1,0 -0.1,0 -0.2,-0.1 -2.7,-0.8 -7.1,-3.5 -7.1,-15 0,-0.1 0,-0.2 0,-0.3 0,-2.1 0.2,-4.4 0.5,-7 0.3,-2.4 -0.1,-4.2 -1.4,-5.8 -3.3,-4.1 -11.7,-4.9 -26.9,-6.3 -2.9,-0.3 -6,-0.6 -9.4,-0.9 -3.1,-0.3 -5.6,-1.9 -7.2,-4.4 -1.3,-2.1 -1.8,-4.8 -1.3,-7.5 z"
   id="path3164"
   inkscape:connector-curvature="0" />
		<path
   d="m 197.6,259.9 -14,-24.2 c -0.2,-0.4 -0.6,-0.6 -1,-0.6 h -28 c -0.4,0 -0.8,0.2 -1,0.6 l -14,24.2 c -0.2,0.4 -0.2,0.8 0,1.2 l 14,24.2 c 0.2,0.4 0.6,0.6 1,0.6 h 28 c 0.4,0 0.8,-0.2 1,-0.6 l 14,-24.2 c 0.2,-0.3 0.2,-0.8 0,-1.2 z m -15.7,23.6 h -26.6 l -13.3,-23 13.3,-23 h 26.6 l 13.3,23 z"
   id="path3166"
   inkscape:connector-curvature="0" />
		<path
   d="m 284,185.8 -24.2,-14 c -0.4,-0.2 -0.8,-0.2 -1.2,0 l -24.2,14 c -0.4,0.2 -0.6,0.6 -0.6,1 v 28 c 0,0.4 0.2,0.8 0.6,1 l 24.2,14 c 0.2,0.1 0.4,0.2 0.6,0.2 0.2,0 0.4,-0.1 0.6,-0.2 l 24.2,-14 c 0.4,-0.2 0.6,-0.6 0.6,-1 v -28 c 0,-0.4 -0.2,-0.8 -0.6,-1 z m -1.8,28.3 -23,13.3 -23,-13.3 v -26.6 l 23,-13.3 23,13.3 z"
   id="path3168"
   inkscape:connector-curvature="0" />
	</g>
</g>
</svg>
