<?xml version="1.0" encoding="UTF-8" standalone="no"?>
<!-- Generator: Adobe Illustrator 21.0.0, SVG Export Plug-In . SVG Version: 6.00 Build 0)  -->

<svg
   xmlns:dc="http://purl.org/dc/elements/1.1/"
   xmlns:cc="http://creativecommons.org/ns#"
   xmlns:rdf="http://www.w3.org/1999/02/22-rdf-syntax-ns#"
   xmlns:svg="http://www.w3.org/2000/svg"
   xmlns="http://www.w3.org/2000/svg"
   xmlns:sodipodi="http://sodipodi.sourceforge.net/DTD/sodipodi-0.dtd"
   xmlns:inkscape="http://www.inkscape.org/namespaces/inkscape"
   version="1.1"
   id="Layer_1"
   x="0px"
   y="0px"
   viewBox="0 0 543.6203 429.21323"
   xml:space="preserve"
   sodipodi:docname="freeing-intellectual-property_touched.svg"
   width="543.6203"
   height="429.21323"
   inkscape:version="0.92.4 (33fec40, 2019-01-16)"><metadata
   id="metadata962"><rdf:RDF><cc:Work
       rdf:about=""><dc:format>image/svg+xml</dc:format><dc:type
         rdf:resource="http://purl.org/dc/dcmitype/StillImage" /><dc:title></dc:title></cc:Work></rdf:RDF></metadata><defs
   id="defs960" /><sodipodi:namedview
   pagecolor="#ffffff"
   bordercolor="#666666"
   borderopacity="1"
   objecttolerance="10"
   gridtolerance="10"
   guidetolerance="10"
   inkscape:pageopacity="0"
   inkscape:pageshadow="2"
   inkscape:window-width="3840"
   inkscape:window-height="2112"
   id="namedview958"
   showgrid="false"
   fit-margin-top="0"
   fit-margin-left="0"
   fit-margin-right="0"
   fit-margin-bottom="0"
   inkscape:zoom="3.0583333"
   inkscape:cx="267.81757"
   inkscape:cy="214.61805"
   inkscape:window-x="0"
   inkscape:window-y="48"
   inkscape:window-maximized="1"
   inkscape:current-layer="Layer_1" />
<g
   id="g955"
   transform="translate(-132.18243,-85.404817)">
	<path
   class="st0"
   d="m 332.1,153.6 c -31.1,56.4 7.5,147.5 75.5,199.9 75.3,57.9 172.1,75.4 243.2,0.4 55.9,-59 10.2,-150.7 -59.7,-208.6 -81.8,-67.7 -202.5,-94.3 -259,8.3 z"
   id="path815"
   inkscape:connector-curvature="0" />
	<path
   class="st0"
   d="M 158.7,383.8 C 184.5,591.5 678.6,528.7 657.6,356.9 636.6,185.7 130,152.1 158.7,383.8 Z"
   id="path817"
   inkscape:connector-curvature="0" />
	<path
   class="st0"
   d="m 337,247.8 c 45.3,-107.6 -155.9,-183 -174.3,-69 -18.4,114 142.2,145.5 174.3,69 z"
   id="path819"
   inkscape:connector-curvature="0" />
	<path
   class="st1"
   d="m 172.7,240.8 h 58.8 c -13.6,-26.1 -40,-50.6 -47.6,-34.8 -3.5,7.3 2.3,25.1 -18,19.9 1.8,5.3 4.1,10.2 6.8,14.9 z"
   id="path821"
   inkscape:connector-curvature="0" />
	<path
   class="st1"
   d="m 357.8,179.3 h 182.9 c 0,0 -22.6,-46 -53.3,-32.2 -57,25.7 -42.8,-11.9 -49.6,-26.1 -12.9,-26.5 -57.2,14.5 -80,58.3 z"
   id="path823"
   inkscape:connector-curvature="0" />
	<path
   class="st1"
   d="m 260.6,495.3 h 155.8 c -25,-48 -73.4,-92.8 -87.4,-63.8 -7.5,15.5 8.1,56.7 -54.3,28.6 -20.7,-9.4 -38,6.2 -48.3,19.5 10.6,6 22,11.3 34.2,15.7 z"
   id="path825"
   inkscape:connector-curvature="0" />
	<path
   class="st1"
   d="m 185.5,180.6 h 118.1 c 0,0 -14.6,-22.2 -34.4,-15.5 -36.8,12.4 -27.6,-5.8 -32.1,-12.6 -8.3,-12.7 -36.9,7 -51.6,28.1 z"
   id="path827"
   inkscape:connector-curvature="0" />
	<path
   class="st1"
   d="m 643.2,416 c -7.3,-2.9 -15.4,-3.3 -24.1,0.6 -62.6,28.2 -46.9,-13.1 -54.5,-28.6 -14,-29.1 -62.6,15.8 -87.6,63.9 h 131.3 c 14.4,-10.8 26.3,-22.8 34.9,-35.9 z"
   id="path829"
   inkscape:connector-curvature="0" />
	<path
   class="st1"
   d="M 657.8,376.1 C 626,328.5 580.7,292.8 566,323 c -9.1,18.9 9.9,69 -66.1,34.8 -40.9,-18.4 -71,42.9 -71,42.9 h 222.5 c 3.3,-7.9 5.5,-16.1 6.4,-24.6 z"
   id="path831"
   inkscape:connector-curvature="0" />
	<path
   class="st2"
   d="m 490.1,287.2 c -3.2,-7.6 -9.3,-13.9 -9.3,-13.9 l -3.6,3.7 c 0,0 -5,-6.8 -8.2,-4.7 -2.7,1.8 -17.1,17 -19.9,19.2 l -13.9,9.7 c 2.5,-12.7 18.4,-20.1 27,-26.9 9.9,-7.9 2.5,-24.6 -2.8,-31.3 -4.2,-5.4 -24.1,-34.6 -28,-41.1 -3.9,-6.5 -3.5,-9.2 -3.5,-9.2 -5.7,4 -3.4,15.5 -3.4,15.5 -4.7,4 -1.4,13.6 -1.4,13.6 -4.7,4.1 -2.2,11.5 -2.2,11.5 -6.6,4.6 -2.4,14.1 -2.4,14.1 -0.4,0.4 -0.7,0.8 -1,1.2 -5,-2.7 -10.6,-4.2 -13.6,-4.7 -6.7,-1.3 -41.6,-6.2 -49,-8.1 -7.4,-1.9 -9,-4 -9,-4 -1.2,6.9 8.5,13.4 8.5,13.4 -0.5,6.2 8.6,10.6 8.6,10.6 -0.4,6.2 6.6,9.7 6.6,9.7 -1.4,7.9 8.3,11.7 8.3,11.7 0.3,8.9 9.9,10.7 9.9,10.7 0.2,7.7 8.2,9.7 8.2,9.7 0,0 -0.8,4.6 5.6,8.7 6.5,4.1 24.1,-1 24.1,-1 0.2,0.1 0.3,0.2 0.5,0.3 -0.7,0.4 -1.2,0.8 -1.2,1 v 0 c -22.3,7.4 -43.7,12.3 -49.2,13.5 -1,0.2 -1.8,0.8 -2.3,1.7 -1.6,2.8 -4.2,9.6 0.9,19.9 1,2 2.1,3.8 3.1,5.4 l 5.2,-0.3 -1.5,4.8 c 3,3.1 5.9,4.8 8,5.8 1.5,0.7 3.3,0.4 4.5,-0.8 5.4,-5.2 22.2,-20.5 40.4,-29.8 0.4,0.3 0.8,0.6 1.3,0.8 1.6,0.7 8.2,-1.1 9.8,-3.6 v 0 c 0.3,-0.5 0.3,-1.6 0.3,-1.6 16.3,-7.4 45.6,-13.6 45.6,-13.6 0,-0.4 6.8,-3 -1,-21.6 z m -60.8,14.3 c 0.8,0.6 1.3,1 1.3,1 0.1,0.3 0.2,0.6 0.3,0.8 -0.1,0 -0.1,0 -0.2,0.1 -0.6,-0.6 -1,-1.3 -1.4,-1.9 z"
   id="path833"
   inkscape:connector-curvature="0" />
	<path
   class="st2"
   d="m 133.7,327.4 c 0,0 9,4.4 23.4,7.5 31,6.6 80.9,0.6 77.1,33.9 -1.5,13 -4.8,33.9 0.9,40.2 0,0 3.2,-1.2 7.6,-1.7 l 13.4,-10.8 c -10.5,-9.6 -22.3,-18.5 -9.9,-33.2 0,0 -4.9,-8.7 4.9,-15.2 0,0 -5.1,-11.5 4.8,-17.4 0,0 -3.8,-10.9 6,-15.5 0,0 -2.9,-8.6 5.4,-13.3 0,0 -4,-9.9 5.7,-15.6 0,0 -2.7,-11.5 8.1,-17.4 0,0 0,14.4 16,47.9 16,33.5 18.1,46.8 5,60.9 0,0 24.6,22.1 11.9,31.7 -12.8,9.6 -51.7,24.2 -51.7,24.2 0,0 -1.5,8.9 -14.7,8.6 0,0 -31.7,33.9 -47.9,42.6 -8,4.1 -23.3,-11.7 -25.6,-16.3 -2.4,-4.7 -10.6,-21.4 -0.3,-26.7 10.3,-5.3 44.6,-21 44.6,-21 0,0 -21.9,-0.9 -22.3,-14.4 0,0 -9.8,-1.6 -10.4,-11.3 0,0 -13.1,-2.9 -12.6,-13.8 0,0 -10.8,-4.1 -10.1,-12.6 0,0 -8.7,-3.2 -8.1,-11.8 0,0 -11.3,-3.7 -10,-13.5 0,0.1 -11.6,-2.5 -11.2,-16 z"
   id="path835"
   inkscape:connector-curvature="0" />
	<path
   class="st3"
   d="m 430.2,323 c -1.6,-2.8 -5.4,-10 -6.3,-16.4 l -3,1 c 0,0 9.2,15.1 -4.9,22.8 v 0 c -5.4,2.9 -11.5,6.2 -17,9.4 -11.9,6.9 -26.7,-3.6 -26.7,-3.6 0,0 1.4,5.9 5.1,10.4 l 3.7,4.5 c 0,0 8.1,9.4 12.5,5 18.7,-18.8 40.8,-30 40.8,-30 l -3.8,-3.5 c 0.2,0.2 0,0.3 -0.4,0.4 z"
   id="path837"
   inkscape:connector-curvature="0" />
	<path
   class="st3"
   d="m 423.9,277.9 c -4.4,27.7 10.1,27.8 10.1,27.8 -10.7,-7.6 -8.6,-19 -5.9,-39.5 2.7,-20.5 -20.6,-22.1 -48.4,-25.7 -27.8,-3.6 -33.9,-8.9 -33.9,-8.9 3.9,9 8.9,10.2 33,13 41.1,4.6 49.6,4.6 45.1,33.3 z"
   id="path839"
   inkscape:connector-curvature="0" />
	<path
   class="st3"
   d="m 387.1,254.6 c 35.3,2.7 34.8,13.5 34.7,13.9 1.5,-13.4 -9.1,-16.1 -34.6,-18.8 -25.5,-2.8 -32.9,-4.9 -32.9,-4.9 0,0 -3.1,7.1 32.8,9.8 z"
   id="path841"
   inkscape:connector-curvature="0" />
	<path
   class="st3"
   d="M 421.8,268.5 Z"
   id="path843"
   inkscape:connector-curvature="0" />
	<path
   class="st3"
   d="m 375,261.8 c 10.2,0.2 35.8,2.5 45.9,10.8 0,0 6.1,-9.1 -22.1,-12.8 -28.2,-3.7 -36.2,-4.3 -36.2,-4.3 0,0 2.2,6.1 12.4,6.3 z"
   id="path845"
   inkscape:connector-curvature="0" />
	<path
   class="st3"
   d="m 420.2,280.8 c 0,0 6.1,-8.5 -23,-12.2 -17.8,-2.3 -27.7,-3.4 -27.7,-3.4 0,0 1.9,4.9 8,5.7 6.1,0.7 35,1.5 42.7,9.9 z"
   id="path847"
   inkscape:connector-curvature="0" />
	<path
   class="st3"
   d="m 397.8,282.5 c 20.6,1.3 22.6,6.7 22.6,6.7 -0.1,-8.4 -11,-10.7 -21.7,-11.2 -10.7,-0.5 -21,-2 -21,-2 0.5,4.2 6.6,5.7 20.1,6.5 z"
   id="path849"
   inkscape:connector-curvature="0" />
	<path
   class="st3"
   d="m 431.1,262.9 c -1,-1.1 -1.9,-2.3 -2.8,-3.4 l -0.5,6.5 c 12.6,15.3 10.1,20.3 10.1,20.3 6,-5.8 0.2,-15.2 -6.8,-23.4 z"
   id="path851"
   inkscape:connector-curvature="0" />
	<path
   class="st3"
   d="m 427.1,274.4 -0.1,-0.1 -0.6,6.9 c 5,6.8 5.9,12.2 5.9,12.2 4.8,-7.2 -3.4,-16.5 -5.2,-19 z"
   id="path853"
   inkscape:connector-curvature="0" />
	<path
   class="st3"
   d="m 426.5,287.5 -0.4,5.3 c 0.8,3.6 2.1,7.3 4.3,8 -0.1,0 2.6,-3.2 -3.9,-13.3 z"
   id="path855"
   inkscape:connector-curvature="0" />
	<path
   class="st3"
   d="m 448.5,281.2 c -23.1,15.8 -13.3,26.4 -13.3,26.4 -1.8,-13 7.9,-19.3 24.7,-31.5 16.7,-12.2 1.9,-30.1 -14.5,-52.8 -16.5,-22.7 -16.8,-30.7 -16.8,-30.7 -3.9,9 -1.3,13.4 13,33 26.7,36.7 30.9,39.1 6.9,55.6 z"
   id="path857"
   inkscape:connector-curvature="0" />
	<path
   class="st3"
   d="m 440.7,237.6 c 22.3,27.5 13.6,35.3 13.3,35.6 10.8,-8.1 5.4,-17.6 -10.1,-38.1 -15.5,-20.4 -19,-27.3 -19,-27.3 0,0 -6.9,1.9 15.8,29.8 z"
   id="path859"
   inkscape:connector-curvature="0" />
	<path
   class="st3"
   d="m 427.5,234.3 c 6.8,7.6 25.4,31.5 22.8,41.2 0,0 10.8,-1.8 -5.9,-24.8 -16.7,-23 -21.7,-29.3 -21.7,-29.3 0,0 -2,5.3 4.8,12.9 z"
   id="path861"
   inkscape:connector-curvature="0" />
	<path
   class="st3"
   d="m 443.9,280.5 c 0,0 10.3,-1.4 -6.9,-25.1 -10.5,-14.5 -16.5,-22.5 -16.5,-22.5 0,0 -1.7,4.4 1.8,9.3 3.6,4.9 25.1,28.4 21.6,38.3 z"
   id="path863"
   inkscape:connector-curvature="0" />
	<path
   class="st3"
   d="m 403.8,293.6 c 11.6,0.2 17.9,4.4 17.9,4.4 -2,-8.3 -14.3,-8.8 -17.4,-9.2 -3.1,-0.4 -16.5,-1.8 -16.5,-1.8 0.2,3.2 4.3,6.4 16,6.6 z"
   id="path865"
   inkscape:connector-curvature="0" />
	<path
   class="st3"
   d="m 396.2,297.1 c 0,0 4.5,7 13,6.9 8.6,-0.2 13.2,-1.1 16.5,0.6 0,0 -0.9,-7.7 -29.5,-7.5 z"
   id="path867"
   inkscape:connector-curvature="0" />
	<path
   class="st3"
   d="m 133.7,327.4 c 0,0 7.5,6.3 41.4,10.3 33.9,4 62.2,5.5 59.3,30.5 -2.9,25 -5.3,38.9 7.8,48 0,0 -17.5,0.1 -12.7,-33.6 5.1,-35 -0.7,-34 -55.6,-40.4 -29.4,-3.5 -35.3,-3.9 -40.2,-14.8 z"
   id="path869"
   inkscape:connector-curvature="0" />
	<path
   class="st3"
   d="m 144.3,342.3 c 0,0 8.9,3.8 40.1,5.5 32.6,1.8 44,6 42.4,22.3 0,0 4.1,-18.7 -42.5,-17.4 -43.8,1.3 -40,-10.4 -40,-10.4 z"
   id="path871"
   inkscape:connector-curvature="0" />
	<path
   class="st3"
   d="m 154.7,356.4 c 0,0 2.8,8.2 15.2,7.4 38.1,-2.5 50.9,1.4 56,12.4 0,0 4.3,-19 -30.2,-18.4 -33.2,0.7 -41,-1.4 -41,-1.4 z"
   id="path873"
   inkscape:connector-curvature="0" />
	<path
   class="st3"
   d="m 163.2,367.9 c 0,0 2.4,5.9 9.8,6.7 7.4,0.8 40,-3.7 52.1,11.5 0,0 6.7,-15.1 -28.9,-16.2 -22.2,-0.6 -33,-2 -33,-2 z"
   id="path875"
   inkscape:connector-curvature="0" />
	<path
   class="st3"
   d="m 173.3,381.1 c 0,0 12.5,1.4 25.5,1.5 19.9,0.2 26.3,3.6 26.6,13.8 0,0 0.1,-7.6 -27.6,-7.7 -16.4,-0.1 -23.8,-2.6 -24.5,-7.6 z"
   id="path877"
   inkscape:connector-curvature="0" />
	<path
   class="st3"
   d="m 185.7,394.2 c 0,0 16.6,0.3 20.3,0.3 13.2,-0.2 18.6,2.5 21.1,12.6 0,0 -2.8,-8.4 -21.7,-7.2 -14.1,0.9 -19.3,-1.7 -19.7,-5.7 z"
   id="path879"
   inkscape:connector-curvature="0" />
	<path
   class="st3"
   d="m 196.1,406.4 c 0,0 6,7.9 16.4,7.6 10.4,-0.3 12.2,-3.2 17.8,-0.3 -3.5,-11.3 -18.3,-5.7 -34.2,-7.3 z"
   id="path881"
   inkscape:connector-curvature="0" />
	<g
   id="g897">
		<path
   class="st3"
   d="m 294,309.7 c -14.3,-31 -12.8,-40.7 -12.8,-40.7 -6.8,9.9 -3.7,15.9 8.6,42.7 20.7,44.9 22.8,53.9 5.5,65.6 0.7,0.8 2.4,2.9 3.2,3.7 1.1,-0.5 2.7,-2.4 3.7,-3.3 16.5,-16.1 6.1,-37.1 -8.2,-68 z"
   id="path883"
   inkscape:connector-curvature="0" />
		<path
   class="st3"
   d="m 292.8,374.7 c 14.8,-7.2 10.3,-23.2 -3.4,-51.2 -13.7,-28.1 -16.2,-37.1 -16.2,-37.1 0,0 -11.8,-0.9 10.8,36.5 22.3,36.9 8.8,51.8 8.8,51.8 z"
   id="path885"
   inkscape:connector-curvature="0" />
		<path
   class="st3"
   d="m 290.1,372.3 c 3,-1.9 8.5,-9.3 -1.6,-31.1 C 274,309.8 267.4,302 267.4,302 c 0,0 -4.8,6.1 1.6,16.8 6.1,10.2 24.4,34.1 18.7,52 0.7,0.3 1.4,0.7 2.1,1.3 0.1,0 0.2,0.1 0.3,0.2 z"
   id="path887"
   inkscape:connector-curvature="0" />
		<path
   class="st3"
   d="M 278.7,345 C 269.6,325.2 262,315.2 262,315.2 c 0,0 -3.8,5.2 -0.6,11.9 2.9,6.3 22,27.5 17.8,47.4 l 4.5,-4.4 c 0.8,-5.8 0.6,-13 -5,-25.1 z"
   id="path889"
   inkscape:connector-curvature="0" />
		<path
   class="st3"
   d="M 269.2,352.8 C 262.8,341.4 256,330.7 256,330.7 c -3.9,3.3 -1.2,12.2 7.7,25.6 12.4,18.6 6.7,26.5 6.4,26.9 l 2.8,-2.7 c 4.4,-6.4 1.8,-17.9 -3.7,-27.7 z"
   id="path891"
   inkscape:connector-curvature="0" />
		<path
   class="st3"
   d="m 261.9,390.2 c 12.4,-11 2.1,-21.1 0.6,-24.5 -1.5,-3.4 -11.2,-17.6 -11.2,-17.6 -3.1,2.4 -2.3,8.9 5.2,20.9 8.7,13.9 5.4,21.2 5.4,21.2 z"
   id="path893"
   inkscape:connector-curvature="0" />
		<path
   class="st3"
   d="m 246.3,363.4 c 0,0 -2.3,8.5 3.4,17.2 4.5,6.9 5.8,11.6 7.2,15.2 l 4.5,-4.1 c 0.4,-7.2 -4.6,-11.8 -15.1,-28.3 z"
   id="path895"
   inkscape:connector-curvature="0" />
	</g>
	<path
   class="st3"
   d="m 168.1,451.9 c 0,0 15.3,22 29.9,12.3 14.6,-9.7 30.5,-14.6 31.9,-22.5 1.4,-7.9 -8.6,-13.4 -0.5,-22.6 8.1,-9.3 0,0 0,0 0,0 5.8,20 18.3,23.1 0,0 -37.8,41.9 -51,42.8 -13.2,0.9 -27.4,-18.6 -28.6,-33.1 z"
   id="path899"
   inkscape:connector-curvature="0" />
	<path
   class="st3"
   d="m 253.9,428.2 c 0,0 37.8,-11.1 38.1,-17.8 0.3,-6.7 -5.8,-17.9 -5.8,-17.9 0,0 14,18.7 25.7,18.2 0,0 -31.4,19.8 -49.5,22.9 0,0 -6,-2.5 -8.5,-5.4 z"
   id="path901"
   inkscape:connector-curvature="0" />
	<path
   class="st3"
   d="m 287.8,386.4 c 0,0 10.5,15.8 15.8,16.9 l -3.6,2.8 c 0,0 -11.5,-7.6 -15.4,-16.1 z"
   id="path903"
   inkscape:connector-curvature="0" />
	<path
   class="st3"
   d="m 280.3,374.4 c 0,0 7.3,-1.4 14.7,7.7 7.4,9.1 9.5,18.5 9.5,18.5 0,0 -12.7,-11.6 -14.2,-17 l -5.8,6.3 c 0,0.1 -5,-5.6 -4.2,-15.5 z"
   id="path905"
   inkscape:connector-curvature="0" />
	<path
   class="st3"
   d="m 300.2,379.8 c 0,0 15.9,16.3 15.1,28.4 0,0 -6.8,5.8 -15.4,-2 l 8.3,-5.3 c 0,0 -1.2,-11.1 -9.6,-19.8 z"
   id="path907"
   inkscape:connector-curvature="0" />
	<path
   class="st3"
   d="m 479.6,274.5 c 0,0 15.9,22.8 10.9,30.5 -1.2,1.9 -2.8,2.2 -4.9,2.9 l -4.3,-2.8 c 0,0 5.7,-1.3 7.2,-2.5 1.5,-1.2 -2.1,-15 -11.2,-25.7 z"
   id="path909"
   inkscape:connector-curvature="0" />
	<path
   class="st3"
   d="m 471.3,284.7 c 0,0 5.2,14.9 13.4,19.6 l -3.4,0.9 c 0,0 -7,-4.1 -12,-18.7 z"
   id="path911"
   inkscape:connector-curvature="0" />
	<path
   class="st3"
   d="m 467.8,274.2 c 0,0 11.2,3.3 18.5,28.3 0,0 -9.8,-8.5 -12.2,-19.5 l -4.8,3.4 c 0,0 -2.3,-5.5 -1.5,-12.2 z"
   id="path913"
   inkscape:connector-curvature="0" />
	<path
   class="st3"
   d="m 469.3,286.4 c 0,0 1.1,15.9 -13.4,21.1 -14.5,5.1 -17.4,8.2 -17.4,8.2 l 5.2,7.2 c 0,0 31.6,-12.3 47.4,-14.5 0,0 -13.8,1.3 -21.8,-22 z"
   id="path915"
   inkscape:connector-curvature="0" />
	<path
   class="st3"
   d="M 453.9,273.2 Z"
   id="path917"
   inkscape:connector-curvature="0" />
	<path
   class="st2"
   d="m 578.6,227.6 -4.5,-6.5 c 2.6,1.6 4.5,3.4 4.5,6.5 z"
   id="path919"
   inkscape:connector-curvature="0" />
	<path
   class="st2"
   d="m 562,195.1 c -3.2,3.4 -1.8,9.4 2.2,11.7 0,0 -4.8,5.6 3.4,10.7 0.2,0.1 0.4,0.2 0.6,0.3 v 0 c 0,0 -3.6,5.5 3.1,11.6 4.7,4.3 9.9,3.6 9.9,3.6 l -1.3,1.7 c -11.1,2.6 -21.6,4.1 -24.3,4.5 -0.5,0.1 -0.9,0.3 -1.2,0.7 -0.9,1.3 -2.6,5 -0.6,10.4 2,5.5 6,7.6 7,8.1 0.7,0.4 1.7,0.3 2.3,-0.2 2.9,-2.4 12,-9.4 21.5,-13.3 0.2,0.2 0.4,0.3 0.6,0.4 0.8,0.4 4.1,-0.2 5.1,-1.4 v 0 0 c 0.2,-0.2 0.3,-0.5 0.2,-0.8 V 243 l 21,-3.4 c 1.2,0 1.4,-2.1 0.5,-5 l 0.9,1.8 4,-0.9 c 0,0 -0.5,-3.6 -2.3,-7.2 -0.2,-0.4 -0.4,-0.8 -0.7,-1.3 0.5,-0.1 1,-0.2 1.6,-0.4 9.7,-2.2 7,-13 4.8,-22.1 -3.9,-15.9 -2.6,-21.4 -2.6,-21.4 -5.3,0.1 -9.2,4.8 -8,10 -2.4,0.1 -4.4,1.5 -5.5,3.5 v 0 0 c -1,1.8 -1.4,3.9 -0.9,5.9 0,0 -7,0.5 -5,9.6 0,0.2 0.1,0.4 0.1,0.6 v 0 c 0,0 -3.8,0.7 -5.3,5.3 l -0.1,0.1 v 0.2 c -0.4,1.2 -0.5,2.6 -0.5,4.4 0.1,1.7 0.4,3.1 0.9,4.3 l -7.8,5.2 -1.7,-0.7 v 0 l 1.7,-8 c 1.2,-2.2 2.9,-4.8 5.1,-8.4 5.5,-8.8 -4.5,-14.6 -12.7,-19.7 -10.9,-6.8 -16.4,-11.1 -17.6,-13.7 -3.7,4.3 -3.1,10.6 1.6,13.4 z m 23.8,37.4 c 0,0 0.1,0 0.1,-0.1 z"
   id="path921"
   inkscape:connector-curvature="0" />
	<path
   class="st3"
   d="m 605.9,233.8 -19.1,7.1 3.5,3 c 0,0 8,-3.4 21.2,-4.2 0,0.1 -3.4,-1.6 -5.6,-5.9 z"
   id="path923"
   inkscape:connector-curvature="0" />
	<path
   class="st3"
   d="m 582.6,242.1 c 0,0 -18.2,11.6 -24.1,4.2 -2.2,-2.7 -0.6,-7.5 -0.6,-7.5 l -2.4,0.3 c 0,0 -7.4,6.6 2.9,17.7 2.4,2.7 4.6,1.3 4.6,1.3 0,0 13.1,-10.7 21.8,-13.4 z"
   id="path925"
   inkscape:connector-curvature="0" />
	<path
   class="st3"
   d="m 602.8,224.6 c 0,0 6.2,5.3 7.1,13.9 0,0 -7,-5.9 -7.1,-13.9 z"
   id="path927"
   inkscape:connector-curvature="0" />
	<path
   class="st3"
   d="m 608,225.2 c 0,0 4.8,2.7 7.4,10.8 l -2.9,0.8 -4.9,-10.5 z"
   id="path929"
   inkscape:connector-curvature="0" />
	<path
   class="st3"
   d="m 617.7,183.4 c 0,0 -6.7,3.9 -4.9,10.7 1.8,6.8 11.4,28.6 -0.9,30.1 l 2,3 c 0,0 10.6,-0.9 8.4,-12.3 -2.2,-11.3 -5.6,-27.4 -4.6,-31.5 z"
   id="path931"
   inkscape:connector-curvature="0" />
	<path
   class="st3"
   d="m 609.6,221.6 c 0,0 5.2,-0.6 5.1,-4.5 -0.1,-3.9 -5.4,-24.1 -5.4,-24.1 0,0 -5.1,2.4 -1.8,12.9 3.3,10.6 2.1,15.7 2.1,15.7 z"
   id="path933"
   inkscape:connector-curvature="0" />
	<path
   class="st3"
   d="m 606.9,219 -3.7,-16.5 c 0,0 -4.1,3 -1.9,9.1 2.2,6.1 1.9,9.7 1.9,9.7 z"
   id="path935"
   inkscape:connector-curvature="0" />
	<path
   class="st3"
   d="m 598.5,213 c 0,0 -5.1,6 -1.9,12.9 l 4.8,-3.5 z"
   id="path937"
   inkscape:connector-curvature="0" />
	<path
   class="st3"
   d="m 578.8,228.9 c 0,0 -9.2,-0.6 -11.2,-10.4 0,0 11.2,2.3 11.2,10.4 z"
   id="path939"
   inkscape:connector-curvature="0" />
	<path
   class="st3"
   d="m 564.2,206.8 c 0,0 18.5,8 16.4,13 -0.5,1.1 -1.3,3.5 -1.3,3.5 0,0 -0.2,-2.8 -7.1,-7 -7,-4.2 -9,-7.4 -8,-9.5 z"
   id="path941"
   inkscape:connector-curvature="0" />
	<path
   class="st3"
   d="m 562.1,195.2 c 0,0 14.5,8.1 17.3,10.4 2.8,2.2 6.3,4.7 4.4,8.2 -0.4,0.8 -1.2,2.1 -1.2,2.1 0,0 -1,-3.7 -7.5,-7.1 -6.5,-3.4 -15.9,-8.5 -13,-13.6 z"
   id="path943"
   inkscape:connector-curvature="0" />
	<path
   class="st3"
   d="m 560.5,182 c 0,0 -2.2,5.6 4.9,11 7.1,5.5 27.6,14.3 22.3,21.2 -5.4,7 -9.6,15.6 -3.3,20.1 l -0.4,-2.6 c 0,0 -1.4,-3 2.1,-8.7 3.5,-5.7 11.3,-13.7 1.5,-21.2 -9.9,-7.5 -25,-14.9 -27.1,-19.8 z"
   id="path945"
   inkscape:connector-curvature="0" />
	<g
   id="g953">
		<path
   d="m 481.8,272.4 c -0.2,-0.2 -0.5,-0.4 -0.9,-0.4 v 0 c -0.3,0 -0.6,0.1 -0.9,0.4 l -2.7,2.7 c -2.3,-2.3 -4.6,-4 -6.4,-4.4 -1.2,-0.2 -2,0.1 -2.5,0.5 -0.1,0.1 -0.2,0.2 -0.2,0.2 0,0 0,0 0,0 0,0 0,0 0,0 -0.1,0.1 -0.3,0.3 -0.4,0.4 -2.5,2.6 -15.7,16.1 -30.6,26.7 2.1,-5.9 8.6,-10.7 23,-21.1 l 0.1,-0.1 c 4.5,-3.3 7.2,-7.2 7.9,-11.8 1.7,-10.7 -7.3,-23 -15.3,-33.9 l -1.1,-1.5 c -14.6,-20.2 -21.6,-32.1 -21.9,-37.6 0,-0.4 -0.3,-0.8 -0.7,-1 -0.4,-0.2 -0.9,-0.2 -1.2,0.1 -2.6,1.8 -4.4,4.8 -4.9,8.4 -0.4,2.4 -0.2,4.9 0.5,7.4 -2.4,2.3 -4.8,7.1 -2.2,13.5 -2.9,2.6 -3.7,6.8 -2.4,11.2 -2,1.8 -3.2,4.3 -3.5,7.3 -0.2,2.4 0.3,4.8 1.3,7 -7.5,-3.3 -17.2,-4.5 -25.9,-5.7 l -2.1,-0.3 c -24.7,-3.2 -38.1,-6.4 -42.4,-9.9 -0.3,-0.3 -0.8,-0.4 -1.2,-0.2 -0.4,0.2 -0.7,0.5 -0.8,0.9 -0.5,3.1 0.5,6.5 2.6,9.3 1.5,2 3.6,3.6 6,4.8 0,3.3 1.9,8.5 8.4,11 -0.1,4 2.5,7.5 6.8,9.5 -0.1,2.4 0.6,4.7 2.2,6.7 1.5,1.9 3.6,3.4 6,4.3 0,1.4 0.3,4 2.1,6.4 1.7,2.3 4.4,3.8 8,4.6 0.2,2.3 1.5,8.1 8.6,10.2 0.5,2.5 2.9,9.7 12.2,10.9 1.1,0.1 2.1,0.2 3,0.2 0.6,0 1.3,0 1.8,-0.1 -17.1,5.1 -31.8,8.5 -36.6,9.5 -1.3,0.3 -2.4,1.1 -3.1,2.3 -1.6,2.6 -4.6,10 0.9,21 1,2.1 2.2,3.9 3.2,5.5 0,0 0.1,0.1 0.1,0.1 l 3.8,4.6 c 2.5,2.6 5.2,4.6 8.4,6.1 0.7,0.3 1.4,0.5 2.2,0.5 1.3,0 2.7,-0.5 3.7,-1.5 4.7,-4.5 21.3,-19.9 39.5,-29.3 0.3,0.2 0.6,0.4 0.9,0.5 0.4,0.2 0.9,0.3 1.6,0.3 2.5,0 6.5,-1.3 8.6,-3 1.2,-1 1.7,-2 1.7,-2.8 16.3,-6.9 37.6,-11.8 43.2,-13 0.6,0 1.2,-0.2 1.7,-0.4 1.5,-0.7 2.6,-2 3.2,-3.7 1.6,-4.8 -0.4,-13.4 -5.3,-22.3 -3.9,-6.7 -7.9,-10.9 -8,-11 z m -5.6,4.9 c 0.1,0.2 0.2,0.3 0.3,0.5 0.1,0.1 0.2,0.2 0.4,0.2 1.6,1.8 3.2,4 4.4,6.1 5.2,9.1 7.5,16.8 6.5,17.6 -0.8,0.4 -4.5,-2.9 -8.4,-10.2 -3,-5.5 -4.2,-9.5 -4.2,-9.6 -0.1,-0.4 -0.4,-0.7 -0.8,-0.8 -0.1,0 -0.2,0 -0.3,0 -0.3,0 -0.6,0.1 -0.8,0.3 l -3.2,2.9 c -1.6,-5.7 -1.4,-9.5 -0.4,-10.8 0.2,-0.2 0.3,-0.3 0.4,-0.4 0.1,-0.1 0.4,-0.1 0.5,0 1.3,0.2 3.4,1.9 5.6,4.2 z m -2.9,15.8 c -1,-2.3 -1.9,-4.4 -2.5,-6.3 l 2.7,-2.4 c 0.6,1.8 1.9,4.7 3.8,8.3 1.2,2.1 4.3,7.5 7.5,10.1 l -3.6,1.1 c -2.8,-2.3 -5.6,-5.7 -7.9,-10.8 z m -6.9,-16.4 c -0.1,4.3 1.5,10.5 4.7,17.4 3.7,8 8.8,12.6 13.3,14.6 -9.4,2.2 -27,6.8 -40.5,12.8 -0.9,-0.9 -2.2,-2.5 -3.9,-5.4 -3.5,-6.1 -5.2,-11.9 -4.8,-13.3 0.1,0 0.1,0 0.2,-0.1 13.1,-8.8 25.2,-20.3 31,-26 z m -41.1,-76.3 c 0.3,-2.1 1.2,-4 2.4,-5.4 1.6,6.6 8.6,18.1 22,36.5 l 1.1,1.6 c 7.7,10.5 16.4,22.4 14.9,32.1 -0.6,4 -2.9,7.3 -6.9,10.2 l -0.1,0.1 c -16.7,12.2 -23.2,16.9 -24.5,25 0,0 -0.1,0 -0.1,0 -1,0.5 -1.3,1.5 -1.3,2.6 -0.4,-0.3 -0.7,-0.7 -1,-1 -1.1,-4.6 0.8,-12.2 25,-29.8 2.2,-1.6 3.6,-3.7 3.9,-6.2 1.3,-8.6 -8.5,-21.9 -22.2,-40.2 -3.1,-4.1 -6.3,-8.4 -9.6,-13 -3,-4.1 -4.2,-8.5 -3.6,-12.5 z m 13.8,83.1 c 0,0.1 0,0.1 -0.1,0.2 -1.6,1.5 -2.9,2.9 -4,4.3 -0.3,-4.7 -3.5,-9.6 -6.8,-14.1 0.3,-2.2 0.6,-4.5 0.9,-7.1 0.2,-1.4 0.2,-2.7 0.2,-4 4.8,6.3 12.1,16.8 9.8,20.7 z m -11.3,-6.1 c 4,5.8 6,10.6 4.1,14.5 0,0.1 0,0.2 -0.1,0.2 -0.3,0.5 -0.5,0.9 -0.8,1.3 -0.9,-2.3 -2.4,-4.6 -4,-6.7 0.1,-2.6 0.4,-5.6 0.8,-9.3 z m 1.5,20.4 c 0,0 0,0 0,0 -0.1,0.4 -0.1,0.7 -0.1,1 -1.2,-2.1 -1.9,-4.5 -2.1,-7.7 1.7,2.8 2.4,4.8 2.2,6.7 z M 424.5,210 c 0.6,1.4 1.4,2.9 2.4,4.2 3.3,4.6 6.5,8.9 9.6,13 13.3,17.9 22.9,30.8 21.7,38.4 -0.3,1.9 -1.3,3.4 -3,4.7 -0.1,0.1 -0.3,0.2 -0.4,0.3 0.5,-9.1 -13,-26.2 -23,-38.8 -2.5,-3.1 -4.6,-5.8 -6,-7.8 -5.2,-7.1 -3,-11.9 -1.3,-14 z m -2.1,13.2 c 0.4,0.8 0.9,1.5 1.5,2.3 1.4,2 3.6,4.7 6.1,7.8 8.8,11.1 23.6,29.8 22.5,37.6 -0.1,1.1 -0.6,1.8 -1.4,2.4 -0.1,0.1 -0.3,0.2 -0.3,0.4 -0.9,0.7 -1.7,1.3 -2.5,1.9 -0.2,-8.8 -13.9,-26 -21.4,-35.4 -1.5,-1.9 -2.7,-3.4 -3.3,-4.2 -3.5,-4.8 -3.9,-9.8 -1.2,-12.8 z m -1.3,25.4 c -2.3,-2.7 -3.5,-5.9 -3.3,-9.1 0.2,-2 0.9,-3.7 2,-5 0.5,1 1,2 1.7,2.9 0.7,0.9 1.9,2.4 3.4,4.3 6.5,8.2 21.8,27.4 20.9,34.7 -0.1,0.8 -0.4,1.4 -1,1.8 -0.2,0.1 -0.3,0.3 -0.4,0.5 -0.9,0.8 -1.8,1.6 -2.7,2.3 -0.5,-6 -6.9,-15 -13.4,-23.3 0,0 0,0 0,0 -1.2,-3.9 -3.7,-6.8 -7.2,-9.1 0,0.1 0,0 0,0 z M 349,239.1 c -1.3,-1.7 -2,-3.6 -2.2,-5.5 5.9,3.4 19.1,6.2 41.7,9.2 l 2.1,0.3 c 10.9,1.4 22,2.9 29,7.3 0.1,0 0.1,0.1 0.2,0.1 5.1,3.3 8,8.2 7,15.9 -3.2,24.6 -3.7,31.5 5.1,39 -0.6,0.1 -1.4,0 -2.7,-0.4 -2.6,-0.9 -5.2,-2.8 -6.6,-8.1 0,-0.2 0,-0.3 -0.1,-0.5 0,-0.1 -0.1,-0.2 -0.1,-0.3 -0.6,-2.5 -1,-5.8 -1,-10 0,0 0,-0.1 0,-0.1 0,-2.1 0,-4.4 0.2,-6.9 0.1,-0.1 0.1,-0.2 0.1,-0.4 0.1,-0.4 0,-0.8 0,-1.2 0.1,-2 0.3,-4.1 0.6,-6.5 0,0 0,-0.1 0,-0.1 0,-0.2 0,-0.4 0,-0.7 0.2,-1.5 0.3,-3 0.6,-4.6 0.4,-2.7 -0.3,-5.1 -1.8,-7.1 -5.3,-6.8 -20.8,-8.7 -44.3,-11.4 -5.2,-0.6 -10.5,-1.2 -16.3,-2 -4.9,-0.6 -9,-2.8 -11.5,-6 z m 6.6,7.3 c 1.5,0.5 3,0.9 4.7,1.1 5.7,0.7 11.1,1.4 16.3,2 22,2.6 37.9,4.5 42.6,10.5 1.2,1.5 1.6,3.2 1.3,5.3 0,0.2 0,0.4 -0.1,0.6 -5.9,-6 -24.2,-8.1 -44.2,-9.8 -3.9,-0.3 -7.2,-0.6 -9.5,-0.9 -1.3,-0.2 -2.4,-0.4 -3.4,-0.7 -0.1,-0.1 -0.3,-0.1 -0.5,-0.2 0,0 0,0 -0.1,0 -5.4,-1.9 -6.8,-5.7 -7.1,-7.9 z m 8.3,10.7 c 0.8,0.2 1.7,0.4 2.6,0.5 2.4,0.3 5.8,0.6 9.6,0.9 14.2,1.2 38,3.3 43,9.5 0.6,0.7 0.8,1.4 0.8,2.2 -0.1,1.3 -0.3,2.5 -0.4,3.8 -6.7,-5.6 -27.9,-7.4 -39.7,-8.4 -2.7,-0.2 -4.8,-0.4 -5.9,-0.6 -5.8,-0.8 -9.7,-4 -10,-7.9 z m 8.4,14 c -1,-1.3 -1.6,-2.8 -1.7,-4.3 0.9,0.3 1.9,0.5 3,0.7 1.2,0.2 3.3,0.4 6,0.6 11.2,1 34.5,2.9 39,8.6 0.3,0.4 0.5,0.7 0.6,1.1 -0.1,1.7 -0.2,3.3 -0.2,4.9 -5.4,-4.2 -18.7,-5.5 -32.1,-6.5 -2.6,-0.2 -4.9,-0.4 -6.3,-0.6 -3.6,-0.7 -6.5,-2.2 -8.3,-4.5 z m 8.2,10.7 c -1.2,-1.5 -1.5,-3.1 -1.6,-4.3 0.4,0.1 0.9,0.2 1.4,0.2 1.5,0.2 3.7,0.4 6.5,0.6 9.8,0.7 30.2,2.3 32.2,7.8 0,2.2 0.1,4.2 0.3,6 -4.9,-3.9 -13.9,-4.7 -22.6,-5.5 -2.5,-0.2 -5.1,-0.5 -7.5,-0.8 -4.1,-0.4 -7,-1.8 -8.7,-4 z m 8.5,6.5 c 2.4,0.3 5,0.5 7.5,0.8 10.4,0.9 21.1,1.9 23.6,7.9 0.2,0.7 0.4,1.4 0.6,2.1 -3.8,-1.6 -9.2,-1.9 -15.5,-2.3 -2,-0.1 -4,-0.2 -6.2,-0.4 -7.9,-0.7 -9.6,-5.7 -10,-8.1 z m 18.7,18.3 c -6.9,-0.9 -9.2,-5.5 -9.9,-8 0.3,0 0.7,0.1 1.1,0.1 2.2,0.2 4.2,0.3 6.2,0.4 8.3,0.5 14.9,0.9 17.7,4.1 0,0.1 0.1,0.1 0.2,0.1 0.2,0.2 0.3,0.4 0.5,0.7 -2,0.1 -3.8,0.7 -5.6,1.3 -2.9,0.9 -5.7,1.9 -10.2,1.3 z m -14.8,48.9 c -0.8,0.8 -2.1,1.1 -3.1,0.6 -2.8,-1.4 -5.4,-3.2 -7.6,-5.5 l -3.7,-4.4 c -0.9,-1.5 -2,-3.3 -3,-5.2 -5,-10 -2.3,-16.5 -0.9,-18.8 0.3,-0.6 0.8,-1 1.5,-1.1 5.8,-1.3 26.2,-5.9 47.7,-13 0.3,4.9 4,13.9 8.3,18.3 -18.2,9.4 -34.6,24.5 -39.2,29.1 z m 43,-29.3 c -0.3,-0.1 -0.7,-0.3 -1,-0.6 0,0 -0.1,-0.1 -0.1,-0.1 -4.5,-3.4 -9.2,-14.9 -8.6,-18.9 0.7,0.2 1.4,0.4 2.2,0.8 0.2,0.1 0.5,0.1 0.7,0.1 0.8,0.2 1.6,0.3 2.2,0.3 1,0 1.7,-0.2 2.3,-0.5 1.6,5.2 5.9,14 9.6,16.6 -2.4,1.8 -6.5,2.6 -7.3,2.3 z M 492.7,305 c -0.4,1.1 -1,1.8 -1.8,2.3 -0.1,0 -0.6,0.1 -1.5,0.3 -1.4,0 -3.5,-0.5 -5.8,-1.9 l 5,-1.6 c 0.2,-0.1 0.3,-0.2 0.5,-0.3 0.4,-0.2 0.9,-0.7 1.1,-1.5 1.5,-4.8 -6.5,-18.8 -6.8,-19.4 -1.2,-2 -2.7,-4.1 -4.3,-6 L 481,275 c 1.3,1.5 4.1,4.9 6.7,9.6 4.4,8.2 6.4,16.3 5,20.4 z"
   id="path947"
   inkscape:connector-curvature="0" />
		<path
   d="m 304,377.7 c 15.3,-16.4 6.4,-35.6 -2.3,-54.3 -0.6,-1.4 -1.3,-2.7 -1.9,-4.1 -12.7,-27.6 -18.2,-43.6 -17.3,-50.2 0.1,-0.4 -0.1,-0.9 -0.5,-1.1 -0.3,-0.3 -0.8,-0.3 -1.2,-0.1 -3.4,1.5 -6.3,4.7 -7.8,8.7 -1.1,2.9 -1.4,6 -1.1,9.3 -3.4,2.1 -7.6,7.3 -5.9,15.7 -4.2,2.4 -6.1,7.4 -5.3,13.1 -5.7,3.1 -7.2,9.6 -6,15.6 -1.4,0.8 -3.9,2.8 -5.3,6.3 -1.2,3.3 -1.1,7.1 0.4,11.3 -2.1,1.6 -7.4,6.7 -4.9,15.3 -0.8,0.8 -2.4,2.4 -3.6,4.8 -1.6,3.2 -2.8,8.3 0.1,14.7 2.6,5.7 5.9,8.3 8.8,10.6 1.5,1.2 2.9,2.3 3.9,3.7 -4.7,4.2 -8.9,7.7 -11.8,9.4 -1.1,-0.1 -3.7,0 -6.7,1.3 -3.7,-6.9 -2.8,-16.7 -0.3,-38.5 0.8,-6.7 -0.6,-12.3 -4,-16.7 -8.1,-10.2 -26.5,-12.3 -42.7,-14.2 l -2.4,-0.3 c -30.1,-3.5 -46.6,-7.1 -51.9,-11.4 -0.3,-0.3 -0.8,-0.3 -1.2,-0.2 -0.4,0.2 -0.7,0.5 -0.8,0.9 -0.5,3.6 0.6,7.6 3.2,11 1.9,2.5 4.4,4.4 7.5,5.9 0,3.9 2.3,10.2 10.3,13.2 -0.1,2.5 0.7,5 2.3,7.1 1.5,1.9 3.6,3.4 6.2,4.5 -0.2,6.4 4.4,11 10.1,13.1 0,1.5 0.2,4.9 2.6,7.9 2.2,2.8 5.5,4.6 9.9,5.5 0.3,2.7 1.9,9.7 10.5,12 0.2,1.1 0.8,3.3 2.3,5.6 1.9,3 5.6,6.7 12.7,7.5 1.2,0.1 2.2,0.2 3.3,0.2 1.2,0 2.3,-0.1 3.3,-0.2 -13.2,6.5 -33.4,16.3 -42.6,20 -3.9,1.6 -6.1,5.1 -6.4,10.2 -0.5,11.6 9.7,28.4 20.5,33.9 2.7,1.4 5.3,2 7.8,2 3.2,0 6.2,-1.1 8.9,-3.2 19.7,-15.6 40.3,-36.6 43.7,-40.2 0.7,0.1 1.3,0.1 2,0.1 8.3,0 11.9,-6.9 12.7,-8.8 21.9,-8.6 41,-18.6 48.6,-22.8 1.8,-0.3 3,-1.2 3.8,-2.1 0,0 0,-0.1 0.1,-0.1 0,-0.1 0.1,-0.1 0.1,-0.2 9.1,-11 -7.4,-27.7 -11.7,-31.7 z m 10,30.1 c -0.4,0.2 -1.4,0.8 -2.9,1.6 -0.9,0.1 -1.9,0 -3,-0.2 -1.9,-0.5 -4.1,-1.5 -6.2,-2.9 l 6.3,-4.4 c 0,0 0,0 0,0 0,0 0,0 0.1,0 3.6,-3.1 -2.9,-13.9 -8,-20.6 0.7,-0.6 1.4,-1.2 2.1,-1.8 3.7,3.5 19.1,19 11.6,28.3 z m -28,-17.7 4.1,-4.6 c 2.6,4 9.2,13.6 13.9,16.2 l -4.4,3.1 c -4.9,-3.7 -10,-9.2 -13.6,-14.7 z m -3.7,-17.2 c 0.8,-0.8 1.3,-1.3 1.4,-1.4 0,0 0,0 0,0 0.1,0 0.1,-0.1 0.2,-0.1 0,0 0,0 0.1,0 0.2,0 0.4,-0.1 0.5,-0.1 2.4,-0.2 6.9,3.2 11.8,9 8.3,9.8 11.7,18.7 10.4,19.9 l -0.1,0.1 c -0.1,0 -0.2,0.1 -0.4,0 -3.3,-0.5 -10.9,-10.8 -14.9,-17.1 -0.2,-0.3 -0.5,-0.5 -0.9,-0.6 0,0 -0.1,0 -0.1,0 -0.3,0 -0.7,0.1 -0.9,0.4 l -4.7,5.2 c -1.5,-2.7 -2.7,-5.3 -3.2,-7.7 -0.7,-3.3 -0.5,-5.8 0.8,-7.6 z m -7,-95.6 c 1,-2.7 2.7,-4.9 4.7,-6.3 0.2,8.1 5.8,23.5 17.6,49.3 0.6,1.4 1.3,2.7 1.9,4.1 8.4,18.1 17.1,36.9 2,52.3 0,0 -0.1,0 -0.1,0.1 l -2.8,2.5 c -0.2,-0.2 -0.4,-0.5 -0.6,-0.7 -1,-1.1 -2.1,-2.4 -3.4,-3.7 16.4,-11.2 6.6,-31.1 -8.1,-60.9 -3.2,-6.6 -6.6,-13.4 -10,-20.8 -2.5,-5.6 -3,-11.2 -1.2,-15.9 z m -2.9,11.1 c 0.4,1.9 1.1,3.9 2,5.8 3.4,7.4 6.8,14.3 10,20.8 15.5,31.5 23,48.6 8.5,58.1 -0.5,-0.4 -0.9,-0.8 -1.4,-1.2 10.3,-13.2 -3.7,-36.1 -14,-53 -3.1,-5 -5.7,-9.4 -7.3,-12.7 -0.7,-1.5 -1.2,-2.8 -1.5,-4.1 0,-0.2 0,-0.4 -0.1,-0.6 0,0 -0.1,-0.1 -0.1,-0.1 -1.7,-7.3 1.8,-11.4 3.9,-13 z m -5.7,15.5 c 0.3,1.1 0.8,2.2 1.3,3.3 1.6,3.4 4.3,7.9 7.4,13 9.9,16.3 23.5,38.5 14.1,50.4 -1.4,-0.9 -2.8,-1.6 -4.2,-1.8 2.3,-14.3 -9.4,-31.8 -16.5,-42.4 -1.9,-2.9 -3.5,-5.2 -4.1,-6.5 -3,-6.7 -2.1,-13.1 2,-16 z m -5.5,13.1 c 0.3,1.3 0.8,2.6 1.4,3.9 0.7,1.5 2.3,3.8 4.2,6.8 6.6,9.8 18.7,27.9 16,41.4 -0.3,0.1 -0.6,0.3 -1,0.6 -0.6,0.5 -1,1 -1.5,1.6 -1,1 -2.4,2.5 -4.2,4.2 1.7,-12.9 -7.3,-26 -13.4,-34.9 -2,-2.9 -3.8,-5.5 -4.6,-7.2 -0.4,-0.9 -0.7,-1.8 -1,-2.7 0,-0.2 0,-0.3 -0.1,-0.5 0,0 0,0 -0.1,-0.1 -1.3,-5.9 0.8,-10.7 4.3,-13.1 z m -9.5,20.3 c 0.9,-2.4 2.6,-3.9 3.7,-4.8 0.2,0.6 0.4,1.3 0.7,1.9 0.9,2 2.7,4.6 4.8,7.6 6.5,9.4 16.2,23.7 12.3,36.7 -1.3,1.3 -2.6,2.6 -4.1,4.1 1.9,-7.6 -3.5,-14.9 -8.7,-22.1 -2.8,-3.8 -5.6,-7.7 -7.4,-11.6 -2.1,-4.6 -2.5,-8.6 -1.3,-11.8 z m -0.9,12.7 c 1.9,4.2 4.8,8.2 7.6,12 7,9.6 13.1,18 4,27 0,-4 -3.3,-8.4 -6.8,-12.9 -2.5,-3.2 -5,-6.5 -6.9,-10.2 -4.7,-8.8 -0.1,-14 2.1,-15.9 z m 1,41.2 c -2.8,-2.3 -5.7,-4.6 -8.1,-9.7 -3.7,-8.1 0.1,-13.7 2.2,-16 0.2,0.5 0.5,1.1 0.8,1.7 2,3.9 4.8,7.4 7.2,10.5 5.6,7.2 8.5,11.5 4.3,15.3 -0.2,0.2 -0.3,0.4 -0.3,0.6 -0.6,0.5 -1.2,1.1 -1.8,1.6 -1.3,-1.6 -2.8,-2.7 -4.3,-4 z m 26.9,-14.7 c -0.1,1.3 0.1,2.8 0.4,4.3 0.7,3 2.2,6.3 4.3,9.7 0,0.1 0.1,0.2 0.2,0.3 3.9,6.2 9.6,12.3 15.3,16.4 0.1,0.1 0.2,0.2 0.3,0.2 2.8,2 5.6,3.4 8.1,4.1 -9,4.8 -25.8,13.3 -44.8,20.8 -12.3,-4.5 -17.2,-20.5 -18.2,-24.4 8.3,-5.3 25.8,-22.7 34.4,-31.4 z M 137.6,336.6 c -1.7,-2.2 -2.7,-4.7 -2.8,-7.1 7,4.1 23.1,7.4 51.3,10.7 l 2.4,0.3 c 15.8,1.8 33.6,3.9 41.1,13.3 3.1,3.9 4.3,8.8 3.5,14.9 -2.6,22.8 -3.6,33.1 0.9,40.7 0,0.1 0.1,0.2 0.1,0.4 0.1,0.1 0.2,0.3 0.3,0.4 1.4,2.2 3.3,4.1 5.7,6.1 -0.7,0.3 -1.9,0.3 -3.7,-0.3 -3.7,-1.2 -6.7,-4 -8.3,-10.8 -0.1,-0.5 -0.2,-0.9 -0.3,-1.4 -1.4,-7.2 -1.6,-18.4 0.2,-36 0.5,-5 -0.5,-8.8 -3.1,-11.8 -6.2,-7.3 -21.1,-8.2 -41.6,-9.4 -9.3,-0.6 -19.8,-1.2 -31.3,-2.5 -6.2,-0.8 -11.3,-3.5 -14.4,-7.5 z m 8.1,8.4 c 1.9,0.7 3.9,1.2 6.1,1.4 11.5,1.3 22.1,2 31.4,2.5 20,1.2 34.4,2.1 40,8.6 2.1,2.4 2.9,5.7 2.5,10 -0.6,-1 -1.3,-2 -2.2,-2.9 -8.8,-8.7 -30.5,-8.4 -47.9,-8.2 -6.5,0.1 -12.1,0.2 -15.8,-0.3 -11.5,-1.3 -13.7,-8 -14.1,-11.1 z m 12,17.7 c -1.2,-1.5 -1.8,-3.1 -1.8,-4.9 1.1,0.3 2.3,0.5 3.6,0.6 3.9,0.5 9.5,0.4 16.1,0.3 16.1,-0.2 38,-0.5 46.2,7.5 2.1,2.1 3.2,4.6 3.2,7.7 0,0.2 0,0.3 0.1,0.4 -0.1,1.1 -0.2,2.1 -0.2,3.2 -0.2,-0.3 -0.5,-0.6 -0.7,-0.9 -8.1,-8.7 -32.4,-8.6 -46.9,-8.6 -3.9,0 -7,0 -8.6,-0.2 -1.7,-0.2 -3.2,-0.6 -4.7,-1.1 -0.2,-0.1 -0.3,-0.2 -0.5,-0.2 0,0 0,0 0,0 -2.5,-0.7 -4.5,-2.1 -5.8,-3.8 z m 6.7,6.9 c 1.2,0.4 2.5,0.6 3.9,0.8 1.7,0.2 4.9,0.2 8.9,0.2 13.2,0 37.7,-0.1 45.2,7.8 1.6,1.7 2.3,3.6 2.1,5.9 0,1.2 -0.1,2.4 -0.1,3.5 -6.6,-6.8 -25.3,-6.9 -38.5,-7 -3.8,0 -7.2,-0.1 -9,-0.3 -6.2,-0.7 -12.3,-4.7 -12.5,-10.9 z m 12.2,18.7 c -1.6,-2.1 -2,-4.4 -2.1,-5.8 0.7,0.2 1.4,0.3 2.1,0.4 2,0.2 5.2,0.3 9.3,0.3 13.1,0.1 37.3,0.3 38.5,9.9 0,1.7 0.1,3.3 0.3,4.9 -5.1,-5.1 -14.7,-4.8 -24,-4.5 -4.5,0.2 -9.2,0.3 -13.3,-0.2 -0.4,0 -0.7,-0.1 -1.1,-0.2 -0.2,-0.1 -0.3,-0.1 -0.5,-0.1 0,0 0,0 0,0 -0.1,0 -0.1,0 -0.2,0 -4.1,-0.7 -7.1,-2.3 -9,-4.7 z m 10.4,7.4 c 0,0 0,0 0,0 4.3,0.5 9.1,0.3 13.7,0.2 13.2,-0.4 22.3,-0.1 24.7,8.2 0.1,0.6 0.3,1.2 0.4,1.7 0,0.2 0.1,0.4 0.1,0.6 0,0.1 0.1,0.2 0.1,0.3 -3.9,-2.2 -9,-1.8 -14.7,-1.4 -3.5,0.3 -7.5,0.6 -11.8,0.3 -9.9,-0.6 -12,-7 -12.5,-9.9 z m 35.7,20.5 c -3.4,1.2 -6.9,2.5 -12.4,1.8 -9,-1.1 -11.8,-7.3 -12.6,-10.2 0.6,0.1 1.2,0.1 1.8,0.2 4.4,0.3 8.5,0 12.1,-0.3 8.3,-0.7 13.8,-1.1 17,5.2 0.1,0.2 0.3,0.4 0.5,0.5 -0.3,0.4 -0.4,0.7 -0.6,1.1 -0.1,0.1 -0.3,0.1 -0.4,0.2 -2,0.3 -3.7,0.9 -5.4,1.5 z m -19.3,65.3 c -4.1,3.3 -8.9,3.6 -14.1,0.9 -10.2,-5.2 -19.7,-20.9 -19.2,-31.7 0.2,-4.1 1.8,-6.8 4.9,-8.1 12.7,-5.1 45.9,-21.6 53.5,-25.4 0.9,5 4.5,19.4 17.6,25.2 -5.2,5.2 -24.3,24.5 -42.7,39.1 z m 45.4,-40.7 c -0.2,-0.1 -0.4,-0.2 -0.7,-0.2 -12.7,-4.9 -16.4,-18.7 -17.3,-23.7 1.4,0.1 3,0.5 4.9,1.2 0.2,0.1 0.4,0.1 0.6,0.1 1.1,0.3 2,0.5 2.8,0.5 2.9,0 4.2,-1.8 4.2,-1.9 0.4,-0.5 0.2,-1.2 -0.3,-1.6 -2.5,-1.9 -4.4,-3.7 -5.9,-5.7 2.1,-0.9 4,-1 4.9,-1 0.5,1.8 1.7,6 4,10.5 3.8,7.5 8.9,12.6 14.8,15.1 -1.1,2.3 -4.5,7.6 -12,6.7 z"
   id="path949"
   inkscape:connector-curvature="0" />
		<path
   d="m 621.6,204.7 -0.1,-0.2 c -3.7,-15.3 -2.6,-20.8 -2.6,-20.8 0.1,-0.4 0,-0.7 -0.2,-1 -0.2,-0.3 -0.6,-0.5 -1,-0.4 -3,0.1 -5.8,1.4 -7.5,3.8 -1.4,1.8 -2,4.1 -1.7,6.4 -1.7,0.3 -3.3,1.2 -4.6,2.7 -1.5,1.9 -2.3,4.4 -2,6.9 -1.1,0.3 -2.6,1 -3.7,2.5 -1.4,1.9 -1.8,4.6 -1.2,7.9 -2,0.9 -5.9,3.6 -5.7,10.8 0.1,1.6 0.4,3 0.8,4.4 -2.2,1.5 -4.6,2.9 -7,4.1 -1,-3.2 0.5,-5.9 5.7,-14.1 l 0.9,-1.5 c 1.6,-2.5 2.1,-5.1 1.5,-7.5 -1.3,-5.6 -8,-9.7 -13.8,-13.3 l -0.8,-0.5 c -3.8,-2.4 -15.5,-9.7 -17.1,-13.2 -0.2,-0.4 -0.5,-0.6 -0.9,-0.7 -0.4,-0.1 -0.8,0.1 -1.1,0.4 -2.2,2.3 -3.1,5.3 -2.7,8.3 0.3,2.1 1.3,3.9 2.7,5.3 -1,1.4 -1.5,3.2 -1.2,5.1 0.3,2.8 2,5.6 4.2,7.3 -0.6,1 -1.2,2.7 -0.9,4.7 0.4,2.4 2.1,4.6 5,6.5 -0.8,2.1 -1.7,7 3.8,12 2.5,2.2 5,3.2 7.1,3.7 -9.9,2.2 -19.1,3.6 -22.1,4 0,0 -0.1,0 -0.1,0 -0.8,0.2 -1.5,0.5 -2,1.2 -0.8,1.1 -3.1,5.2 -0.7,11.5 1.9,5.3 5.6,7.8 7.5,8.7 0.5,0.3 1,0.4 1.6,0.4 0.7,0 1.5,-0.2 2.1,-0.7 8.9,-7.2 15.9,-10.9 20.4,-12.8 0.2,0.1 0.3,0.2 0.5,0.3 0.4,0.2 0.8,0.3 1.4,0.3 1.5,0 3.5,-0.6 4.5,-1.4 0.7,-0.5 1,-1 1.1,-1.5 9.7,-2.7 19.7,-3 19.8,-3 0.2,0 0.4,-0.1 0.6,-0.2 0.5,-0.2 1,-0.5 1.3,-1.1 0.3,-0.5 0.4,-1.3 0.3,-2.1 l 3.5,-0.8 c 0.6,-0.1 1,-0.7 0.9,-1.4 0,-0.2 -0.6,-3.7 -2.3,-7.4 h 0.1 c 2.8,-0.6 4.9,-2 6.2,-4.1 3,-5.2 1.2,-12.8 -0.5,-19.5 z m -15.8,-8.2 c 0.6,-0.8 1.7,-1.6 3.2,-1.8 0.5,1.9 1,3.7 1.4,5.4 2.6,9.7 4.2,16.1 2.7,18.6 -0.4,0.7 -1.1,1.2 -2.2,1.4 -0.4,0.1 -0.8,0.2 -1.1,0.2 -0.6,-0.4 -1.1,-0.8 -1.7,-1.1 -0.1,-4.6 -2.2,-11.8 -3.3,-15.4 -0.2,-0.6 -0.3,-1 -0.4,-1.3 -0.4,-2 0.1,-4.4 1.4,-6 z m -5.7,9.3 c 0.7,-0.9 1.6,-1.4 2.3,-1.6 0,0.1 0.1,0.2 0.1,0.3 0.9,3 2.9,9.7 3.1,14 -0.7,0 -1.3,0.1 -1.9,0.4 -0.4,0.2 -0.8,0.6 -1.1,1 -0.3,0.2 -0.6,0.5 -1,0.8 -0.2,-1.5 -0.7,-3 -1.1,-4.6 -0.3,-1 -0.6,-2.1 -0.9,-3.1 0,-0.1 0,-0.1 0,-0.2 0,-0.1 -0.1,-0.2 -0.1,-0.3 0,-0.1 -0.1,-0.2 -0.1,-0.3 -0.5,-2.8 -0.3,-4.9 0.7,-6.4 z m 3.1,25.4 c 1.3,3.3 3.1,5.9 4.7,7.6 -4.1,0.3 -11.2,1.2 -18.1,3.2 -1.4,-2 -3.3,-7 -3.1,-8.5 5.8,-3.1 11.4,-7.1 14.9,-9.7 -0.1,2 0.4,4.5 1.6,7.4 z m -19.1,4.3 c 0.2,0 0.3,0 0.4,0 0.5,2.1 1.9,6.2 3.7,8.3 -0.9,0.3 -2.1,0.5 -2.5,0.4 0,0 0,0 -0.1,-0.1 -0.1,-0.3 -0.3,-0.5 -0.6,-0.6 -1.7,-2.1 -3.2,-6.9 -3,-8.6 0.8,0.5 1.5,0.6 2.1,0.6 z m 9.7,-12.5 c -0.2,-5.4 2.3,-7.6 3.8,-8.3 0.2,0.7 0.4,1.5 0.6,2.2 0.6,2.1 1.2,4 1.2,5.6 -1.4,1.1 -3.2,2.3 -5.1,3.6 -0.3,-1 -0.4,-2 -0.5,-3.1 z m -33.4,-39.1 c 2.3,2.8 7.7,6.9 17.1,12.7 l 0.8,0.5 c 5.5,3.4 11.7,7.2 12.8,11.8 0.4,1.8 0,3.7 -1.2,5.7 l -0.9,1.5 c -5.4,8.7 -7.4,12 -5.7,16.7 -0.2,-0.1 -0.3,-0.2 -0.5,-0.3 -0.1,-0.1 -0.3,-0.2 -0.5,-0.3 -0.1,-0.1 -0.2,-0.2 -0.4,-0.3 -1.5,-1.4 -3.4,-4.4 -0.2,-11.5 0,0 0.1,-0.1 0.1,-0.1 0.2,-0.3 0.3,-0.5 0.3,-0.8 0.6,-1.3 1.5,-2.8 2.5,-4.4 1,-1.6 1.3,-3.1 0.9,-4.6 -1,-4 -6.6,-7.2 -16.7,-13 -1.8,-1.1 -3.8,-2.2 -5.9,-3.4 -1.9,-1.1 -3.1,-2.9 -3.4,-5 -0.5,-1.8 -0.1,-3.6 0.9,-5.2 z m 0.4,15.6 c -0.1,-1 0,-2.3 0.7,-3.4 2.1,1.2 4.1,2.4 5.9,3.4 8.9,5.1 14.8,8.5 15.6,11.5 0.2,0.9 0,1.7 -0.6,2.8 -0.5,0.7 -0.9,1.4 -1.3,2.1 -2.2,-3.1 -8,-6.1 -13.7,-9 -1.1,-0.5 -2.1,-1 -2.6,-1.3 -2.1,-1.1 -3.7,-3.6 -4,-6.1 z m 3.3,11.9 c -0.2,-1.3 0.2,-2.4 0.6,-3.1 0.5,0.2 1,0.5 1.7,0.8 4,2 12.5,6.2 13.3,9.1 0.1,0.2 0.1,0.3 0,0.5 -0.7,1.5 -1.2,2.8 -1.6,4.1 -1.5,-1.9 -3.9,-3.1 -6.3,-4.4 -0.9,-0.5 -1.9,-1 -2.8,-1.6 0,0 -0.1,-0.1 -0.1,-0.1 -0.1,-0.1 -0.2,-0.1 -0.3,-0.1 -0.1,-0.1 -0.2,-0.1 -0.4,-0.2 -2.4,-1.5 -3.9,-3.2 -4.1,-5 z m 4.6,8.2 c 0.7,0.4 1.3,0.7 1.9,1.1 4.3,2.3 6.7,3.7 6.7,7.1 0,0.1 0,0.2 0.1,0.3 0.1,1.4 0.5,2.6 1.1,3.7 -1.7,-0.3 -4.2,-1.1 -6.5,-3.2 -4.1,-3.9 -3.8,-7.4 -3.3,-9 z m -6.4,37.6 c -0.2,0.2 -0.7,0.2 -1,0 -1.7,-0.8 -4.8,-2.9 -6.4,-7.4 -2,-5.4 0,-8.7 0.4,-9.3 0.1,-0.1 0.1,-0.2 0.4,-0.2 3.2,-0.4 13.3,-1.9 23.8,-4.3 0.2,2.5 1.4,6 3,8.4 -6.2,2.7 -13,7 -20.2,12.8 z m 51,-22 c -0.8,-3.1 -2.7,-6.9 -5.3,-10.2 -0.4,-0.5 -1.2,-0.6 -1.7,-0.2 -0.5,0.4 -0.6,1.2 -0.2,1.7 4.3,5.6 5.4,10.7 5.2,12 -1,-0.4 -3.8,-2.8 -5.9,-8.1 -1.9,-4.5 -1.6,-7.5 -1,-8.8 0.3,-0.2 0.5,-0.4 0.5,-0.4 0.1,-0.1 0.1,-0.1 0.2,-0.2 0.1,0 0.2,0 0.3,0 0.3,0 0.6,0.1 0.8,0.2 2,0.7 5.2,3.6 7.2,7.9 1.1,2.2 1.7,4.5 2,5.8 z m 6.8,-12.6 c -1,1.5 -2.5,2.5 -4.8,3.1 l -0.3,0.1 c -0.2,0 -0.3,0.1 -0.4,0.1 -0.8,-1.3 -1.7,-2.6 -2.7,-3.6 1.5,-0.4 2.6,-1.2 3.3,-2.4 2.1,-3.4 0.5,-9.5 -2.4,-20.5 -0.5,-2 -1.1,-4 -1.7,-6.3 -0.5,-2.1 -0.2,-4.1 1.1,-5.8 1,-1.4 2.6,-2.3 4.3,-2.7 -0.2,2.7 0,8.9 2.8,20.3 l 0.1,0.2 c 1.4,6.4 3.1,13.5 0.7,17.5 z"
   id="path951"
   inkscape:connector-curvature="0" />
	</g>
</g>
</svg>