<?xml version="1.0" encoding="utf-8"?>
<!-- Generator: Adobe Illustrator 21.0.0, SVG Export Plug-In . SVG Version: 6.00 Build 0)  -->
<svg version="1.1" id="Layer_1" xmlns="http://www.w3.org/2000/svg" xmlns:xlink="http://www.w3.org/1999/xlink" x="0px" y="0px"
	viewBox="0 0 800 600" style="enable-background:new 0 0 800 600;" xml:space="preserve">
<g>
	<path class="st0" d="M332.1,153.6c-31.1,56.4,7.5,147.5,75.5,199.9c75.3,57.9,172.1,75.4,243.2,0.4c55.9-59,10.2-150.7-59.7-208.6
		C509.3,77.6,388.6,51,332.1,153.6z"/>
	<path class="st0" d="M158.7,383.8c25.8,207.7,519.9,144.9,498.9-26.9C636.6,185.7,130,152.1,158.7,383.8z"/>
	<path class="st0" d="M337,247.8c45.3-107.6-155.9-183-174.3-69S304.9,324.3,337,247.8z"/>
	<path class="st1" d="M172.7,240.8h58.8c-13.6-26.1-40-50.6-47.6-34.8c-3.5,7.3,2.3,25.1-18,19.9C167.7,231.2,170,236.1,172.7,240.8
		z"/>
	<path class="st1" d="M357.8,179.3h182.9c0,0-22.6-46-53.3-32.2c-57,25.7-42.8-11.9-49.6-26.1C424.9,94.5,380.6,135.5,357.8,179.3z"
		/>
	<path class="st1" d="M260.6,495.3h155.8c-25-48-73.4-92.8-87.4-63.8c-7.5,15.5,8.1,56.7-54.3,28.6c-20.7-9.4-38,6.2-48.3,19.5
		C237,485.6,248.4,490.9,260.6,495.3z"/>
	<path class="st1" d="M185.5,180.6h118.1c0,0-14.6-22.2-34.4-15.5c-36.8,12.4-27.6-5.8-32.1-12.6
		C228.8,139.8,200.2,159.5,185.5,180.6z"/>
	<path class="st1" d="M643.2,416c-7.3-2.9-15.4-3.3-24.1,0.6c-62.6,28.2-46.9-13.1-54.5-28.6c-14-29.1-62.6,15.8-87.6,63.9h131.3
		C622.7,441.1,634.6,429.1,643.2,416z"/>
	<path class="st1" d="M657.8,376.1C626,328.5,580.7,292.8,566,323c-9.1,18.9,9.9,69-66.1,34.8c-40.9-18.4-71,42.9-71,42.9h222.5
		C654.7,392.8,656.9,384.6,657.8,376.1z"/>
	<path class="st2" d="M490.1,287.2c-3.2-7.6-9.3-13.9-9.3-13.9l-3.6,3.7c0,0-5-6.8-8.2-4.7c-2.7,1.8-17.1,17-19.9,19.2l-13.9,9.7
		c2.5-12.7,18.4-20.1,27-26.9c9.9-7.9,2.5-24.6-2.8-31.3c-4.2-5.4-24.1-34.6-28-41.1s-3.5-9.2-3.5-9.2c-5.7,4-3.4,15.5-3.4,15.5
		c-4.7,4-1.4,13.6-1.4,13.6c-4.7,4.1-2.2,11.5-2.2,11.5c-6.6,4.6-2.4,14.1-2.4,14.1c-0.4,0.4-0.7,0.8-1,1.2
		c-5-2.7-10.6-4.2-13.6-4.7c-6.7-1.3-41.6-6.2-49-8.1c-7.4-1.9-9-4-9-4c-1.2,6.9,8.5,13.4,8.5,13.4c-0.5,6.2,8.6,10.6,8.6,10.6
		c-0.4,6.2,6.6,9.7,6.6,9.7c-1.4,7.9,8.3,11.7,8.3,11.7c0.3,8.9,9.9,10.7,9.9,10.7c0.2,7.7,8.2,9.7,8.2,9.7s-0.8,4.6,5.6,8.7
		c6.5,4.1,24.1-1,24.1-1c0.2,0.1,0.3,0.2,0.5,0.3c-0.7,0.4-1.2,0.8-1.2,1l0,0c-22.3,7.4-43.7,12.3-49.2,13.5c-1,0.2-1.8,0.8-2.3,1.7
		c-1.6,2.8-4.2,9.6,0.9,19.9c1,2,2.1,3.8,3.1,5.4l5.2-0.3l-1.5,4.8c3,3.1,5.9,4.8,8,5.8c1.5,0.7,3.3,0.4,4.5-0.8
		c5.4-5.2,22.2-20.5,40.4-29.8c0.4,0.3,0.8,0.6,1.3,0.8c1.6,0.7,8.2-1.1,9.8-3.6l0,0c0.3-0.5,0.3-1.6,0.3-1.6
		c16.3-7.4,45.6-13.6,45.6-13.6C491.1,308.4,497.9,305.8,490.1,287.2z M429.3,301.5c0.8,0.6,1.3,1,1.3,1c0.1,0.3,0.2,0.6,0.3,0.8
		c-0.1,0-0.1,0-0.2,0.1C430.1,302.8,429.7,302.1,429.3,301.5z"/>
	<path class="st2" d="M133.7,327.4c0,0,9,4.4,23.4,7.5c31,6.6,80.9,0.6,77.1,33.9c-1.5,13-4.8,33.9,0.9,40.2c0,0,3.2-1.2,7.6-1.7
		l13.4-10.8c-10.5-9.6-22.3-18.5-9.9-33.2c0,0-4.9-8.7,4.9-15.2c0,0-5.1-11.5,4.8-17.4c0,0-3.8-10.9,6-15.5c0,0-2.9-8.6,5.4-13.3
		c0,0-4-9.9,5.7-15.6c0,0-2.7-11.5,8.1-17.4c0,0,0,14.4,16,47.9s18.1,46.8,5,60.9c0,0,24.6,22.1,11.9,31.7
		c-12.8,9.6-51.7,24.2-51.7,24.2s-1.5,8.9-14.7,8.6c0,0-31.7,33.9-47.9,42.6c-8,4.1-23.3-11.7-25.6-16.3
		c-2.4-4.7-10.6-21.4-0.3-26.7s44.6-21,44.6-21s-21.9-0.9-22.3-14.4c0,0-9.8-1.6-10.4-11.3c0,0-13.1-2.9-12.6-13.8
		c0,0-10.8-4.1-10.1-12.6c0,0-8.7-3.2-8.1-11.8c0,0-11.3-3.7-10-13.5C144.9,343.5,133.3,340.9,133.7,327.4z"/>
	<path class="st3" d="M430.2,323c-1.6-2.8-5.4-10-6.3-16.4l-3,1c0,0,9.2,15.1-4.9,22.8l0,0c-5.4,2.9-11.5,6.2-17,9.4
		c-11.9,6.9-26.7-3.6-26.7-3.6s1.4,5.9,5.1,10.4l3.7,4.5c0,0,8.1,9.4,12.5,5c18.7-18.8,40.8-30,40.8-30l-3.8-3.5
		C430.8,322.8,430.6,322.9,430.2,323z"/>
	<path class="st3" d="M423.9,277.9c-4.4,27.7,10.1,27.8,10.1,27.8c-10.7-7.6-8.6-19-5.9-39.5s-20.6-22.1-48.4-25.7
		c-27.8-3.6-33.9-8.9-33.9-8.9c3.9,9,8.9,10.2,33,13C419.9,249.2,428.4,249.2,423.9,277.9z"/>
	<path class="st3" d="M387.1,254.6c35.3,2.7,34.8,13.5,34.7,13.9c1.5-13.4-9.1-16.1-34.6-18.8c-25.5-2.8-32.9-4.9-32.9-4.9
		S351.2,251.9,387.1,254.6z"/>
	<path class="st3" d="M421.8,268.5L421.8,268.5L421.8,268.5z"/>
	<path class="st3" d="M375,261.8c10.2,0.2,35.8,2.5,45.9,10.8c0,0,6.1-9.1-22.1-12.8c-28.2-3.7-36.2-4.3-36.2-4.3
		S364.8,261.6,375,261.8z"/>
	<path class="st3" d="M420.2,280.8c0,0,6.1-8.5-23-12.2c-17.8-2.3-27.7-3.4-27.7-3.4s1.9,4.9,8,5.7
		C383.6,271.6,412.5,272.4,420.2,280.8z"/>
	<path class="st3" d="M397.8,282.5c20.6,1.3,22.6,6.7,22.6,6.7c-0.1-8.4-11-10.7-21.7-11.2s-21-2-21-2
		C378.2,280.2,384.3,281.7,397.8,282.5z"/>
	<path class="st3" d="M431.1,262.9c-1-1.1-1.9-2.3-2.8-3.4l-0.5,6.5c12.6,15.3,10.1,20.3,10.1,20.3
		C443.9,280.5,438.1,271.1,431.1,262.9z"/>
	<path class="st3" d="M427.1,274.4l-0.1-0.1l-0.6,6.9c5,6.8,5.9,12.2,5.9,12.2C437.1,286.2,428.9,276.9,427.1,274.4z"/>
	<path class="st3" d="M426.5,287.5l-0.4,5.3c0.8,3.6,2.1,7.3,4.3,8C430.3,300.8,433,297.6,426.5,287.5z"/>
	<path class="st3" d="M448.5,281.2c-23.1,15.8-13.3,26.4-13.3,26.4c-1.8-13,7.9-19.3,24.7-31.5c16.7-12.2,1.9-30.1-14.5-52.8
		c-16.5-22.7-16.8-30.7-16.8-30.7c-3.9,9-1.3,13.4,13,33C468.3,262.3,472.5,264.7,448.5,281.2z"/>
	<path class="st3" d="M440.7,237.6c22.3,27.5,13.6,35.3,13.3,35.6c10.8-8.1,5.4-17.6-10.1-38.1c-15.5-20.4-19-27.3-19-27.3
		S418,209.7,440.7,237.6z"/>
	<path class="st3" d="M427.5,234.3c6.8,7.6,25.4,31.5,22.8,41.2c0,0,10.8-1.8-5.9-24.8c-16.7-23-21.7-29.3-21.7-29.3
		S420.7,226.7,427.5,234.3z"/>
	<path class="st3" d="M443.9,280.5c0,0,10.3-1.4-6.9-25.1c-10.5-14.5-16.5-22.5-16.5-22.5s-1.7,4.4,1.8,9.3
		C425.9,247.1,447.4,270.6,443.9,280.5z"/>
	<path class="st3" d="M403.8,293.6c11.6,0.2,17.9,4.4,17.9,4.4c-2-8.3-14.3-8.8-17.4-9.2c-3.1-0.4-16.5-1.8-16.5-1.8
		C388,290.2,392.1,293.4,403.8,293.6z"/>
	<path class="st3" d="M396.2,297.1c0,0,4.5,7,13,6.9c8.6-0.2,13.2-1.1,16.5,0.6C425.7,304.6,424.8,296.9,396.2,297.1z"/>
	<path class="st3" d="M133.7,327.4c0,0,7.5,6.3,41.4,10.3s62.2,5.5,59.3,30.5s-5.3,38.9,7.8,48c0,0-17.5,0.1-12.7-33.6
		c5.1-35-0.7-34-55.6-40.4C144.5,338.7,138.6,338.3,133.7,327.4z"/>
	<path class="st3" d="M144.3,342.3c0,0,8.9,3.8,40.1,5.5c32.6,1.8,44,6,42.4,22.3c0,0,4.1-18.7-42.5-17.4
		C140.5,354,144.3,342.3,144.3,342.3z"/>
	<path class="st3" d="M154.7,356.4c0,0,2.8,8.2,15.2,7.4c38.1-2.5,50.9,1.4,56,12.4c0,0,4.3-19-30.2-18.4
		C162.5,358.5,154.7,356.4,154.7,356.4z"/>
	<path class="st3" d="M163.2,367.9c0,0,2.4,5.9,9.8,6.7s40-3.7,52.1,11.5c0,0,6.7-15.1-28.9-16.2C174,369.3,163.2,367.9,163.2,367.9
		z"/>
	<path class="st3" d="M173.3,381.1c0,0,12.5,1.4,25.5,1.5c19.9,0.2,26.3,3.6,26.6,13.8c0,0,0.1-7.6-27.6-7.7
		C181.4,388.6,174,386.1,173.3,381.1z"/>
	<path class="st3" d="M185.7,394.2c0,0,16.6,0.3,20.3,0.3c13.2-0.2,18.6,2.5,21.1,12.6c0,0-2.8-8.4-21.7-7.2
		C191.3,400.8,186.1,398.2,185.7,394.2z"/>
	<path class="st3" d="M196.1,406.4c0,0,6,7.9,16.4,7.6s12.2-3.2,17.8-0.3C226.8,402.4,212,408,196.1,406.4z"/>
	<g>
		<path class="st3" d="M294,309.7c-14.3-31-12.8-40.7-12.8-40.7c-6.8,9.9-3.7,15.9,8.6,42.7c20.7,44.9,22.8,53.9,5.5,65.6
			c0.7,0.8,2.4,2.9,3.2,3.7c1.1-0.5,2.7-2.4,3.7-3.3C318.7,361.6,308.3,340.6,294,309.7z"/>
		<path class="st3" d="M292.8,374.7c14.8-7.2,10.3-23.2-3.4-51.2c-13.7-28.1-16.2-37.1-16.2-37.1s-11.8-0.9,10.8,36.5
			C306.3,359.8,292.8,374.7,292.8,374.7z"/>
		<path class="st3" d="M290.1,372.3c3-1.9,8.5-9.3-1.6-31.1C274,309.8,267.4,302,267.4,302s-4.8,6.1,1.6,16.8
			c6.1,10.2,24.4,34.1,18.7,52c0.7,0.3,1.4,0.7,2.1,1.3C289.9,372.1,290,372.2,290.1,372.3z"/>
		<path class="st3" d="M278.7,345c-9.1-19.8-16.7-29.8-16.7-29.8s-3.8,5.2-0.6,11.9c2.9,6.3,22,27.5,17.8,47.4l4.5-4.4
			C284.5,364.3,284.3,357.1,278.7,345z"/>
		<path class="st3" d="M269.2,352.8c-6.4-11.4-13.2-22.1-13.2-22.1c-3.9,3.3-1.2,12.2,7.7,25.6c12.4,18.6,6.7,26.5,6.4,26.9l2.8-2.7
			C277.3,374.1,274.7,362.6,269.2,352.8z"/>
		<path class="st3" d="M261.9,390.2c12.4-11,2.1-21.1,0.6-24.5s-11.2-17.6-11.2-17.6c-3.1,2.4-2.3,8.9,5.2,20.9
			C265.2,382.9,261.9,390.2,261.9,390.2z"/>
		<path class="st3" d="M246.3,363.4c0,0-2.3,8.5,3.4,17.2c4.5,6.9,5.8,11.6,7.2,15.2l4.5-4.1C261.8,384.5,256.8,379.9,246.3,363.4z"
			/>
	</g>
	<path class="st3" d="M168.1,451.9c0,0,15.3,22,29.9,12.3s30.5-14.6,31.9-22.5s-8.6-13.4-0.5-22.6c8.1-9.3,0,0,0,0s5.8,20,18.3,23.1
		c0,0-37.8,41.9-51,42.8C183.5,485.9,169.3,466.4,168.1,451.9z"/>
	<path class="st3" d="M253.9,428.2c0,0,37.8-11.1,38.1-17.8s-5.8-17.9-5.8-17.9s14,18.7,25.7,18.2c0,0-31.4,19.8-49.5,22.9
		C262.4,433.6,256.4,431.1,253.9,428.2z"/>
	<path class="st3" d="M287.8,386.4c0,0,10.5,15.8,15.8,16.9l-3.6,2.8c0,0-11.5-7.6-15.4-16.1L287.8,386.4z"/>
	<path class="st3" d="M280.3,374.4c0,0,7.3-1.4,14.7,7.7c7.4,9.1,9.5,18.5,9.5,18.5s-12.7-11.6-14.2-17l-5.8,6.3
		C284.5,390,279.5,384.3,280.3,374.4z"/>
	<path class="st3" d="M300.2,379.8c0,0,15.9,16.3,15.1,28.4c0,0-6.8,5.8-15.4-2l8.3-5.3c0,0-1.2-11.1-9.6-19.8L300.2,379.8z"/>
	<path class="st3" d="M479.6,274.5c0,0,15.9,22.8,10.9,30.5c-1.2,1.9-2.8,2.2-4.9,2.9l-4.3-2.8c0,0,5.7-1.3,7.2-2.5
		s-2.1-15-11.2-25.7L479.6,274.5z"/>
	<path class="st3" d="M471.3,284.7c0,0,5.2,14.9,13.4,19.6l-3.4,0.9c0,0-7-4.1-12-18.7L471.3,284.7z"/>
	<path class="st3" d="M467.8,274.2c0,0,11.2,3.3,18.5,28.3c0,0-9.8-8.5-12.2-19.5l-4.8,3.4C469.3,286.4,467,280.9,467.8,274.2z"/>
	<path class="st3" d="M469.3,286.4c0,0,1.1,15.9-13.4,21.1c-14.5,5.1-17.4,8.2-17.4,8.2l5.2,7.2c0,0,31.6-12.3,47.4-14.5
		C491.1,308.4,477.3,309.7,469.3,286.4z"/>
	<path class="st3" d="M453.9,273.2L453.9,273.2L453.9,273.2z"/>
	<path class="st2" d="M578.6,227.6l-4.5-6.5C576.7,222.7,578.6,224.5,578.6,227.6z"/>
	<path class="st2" d="M562,195.1c-3.2,3.4-1.8,9.4,2.2,11.7c0,0-4.8,5.6,3.4,10.7c0.2,0.1,0.4,0.2,0.6,0.3l0,0c0,0-3.6,5.5,3.1,11.6
		c4.7,4.3,9.9,3.6,9.9,3.6l-1.3,1.7c-11.1,2.6-21.6,4.1-24.3,4.5c-0.5,0.1-0.9,0.3-1.2,0.7c-0.9,1.3-2.6,5-0.6,10.4
		c2,5.5,6,7.6,7,8.1c0.7,0.4,1.7,0.3,2.3-0.2c2.9-2.4,12-9.4,21.5-13.3c0.2,0.2,0.4,0.3,0.6,0.4c0.8,0.4,4.1-0.2,5.1-1.4l0,0l0,0
		c0.2-0.2,0.3-0.5,0.2-0.8V243l21-3.4c1.2,0,1.4-2.1,0.5-5l0.9,1.8l4-0.9c0,0-0.5-3.6-2.3-7.2c-0.2-0.4-0.4-0.8-0.7-1.3
		c0.5-0.1,1-0.2,1.6-0.4c9.7-2.2,7-13,4.8-22.1c-3.9-15.9-2.6-21.4-2.6-21.4c-5.3,0.1-9.2,4.8-8,10c-2.4,0.1-4.4,1.5-5.5,3.5l0,0
		l0,0c-1,1.8-1.4,3.9-0.9,5.9c0,0-7,0.5-5,9.6c0,0.2,0.1,0.4,0.1,0.6l0,0c0,0-3.8,0.7-5.3,5.3l-0.1,0.1v0.2
		c-0.4,1.2-0.5,2.6-0.5,4.4c0.1,1.7,0.4,3.1,0.9,4.3l-7.8,5.2l-1.7-0.7l0,0l1.7-8c1.2-2.2,2.9-4.8,5.1-8.4
		c5.5-8.8-4.5-14.6-12.7-19.7c-10.9-6.8-16.4-11.1-17.6-13.7C556.7,186,557.3,192.3,562,195.1z M585.8,232.5c0,0,0.1,0,0.1-0.1
		L585.8,232.5L585.8,232.5z"/>
	<path class="st3" d="M605.9,233.8l-19.1,7.1l3.5,3c0,0,8-3.4,21.2-4.2C611.5,239.8,608.1,238.1,605.9,233.8z"/>
	<path class="st3" d="M582.6,242.1c0,0-18.2,11.6-24.1,4.2c-2.2-2.7-0.6-7.5-0.6-7.5l-2.4,0.3c0,0-7.4,6.6,2.9,17.7
		c2.4,2.7,4.6,1.3,4.6,1.3s13.1-10.7,21.8-13.4L582.6,242.1z"/>
	<path class="st3" d="M602.8,224.6c0,0,6.2,5.3,7.1,13.9C609.9,238.5,602.9,232.6,602.8,224.6z"/>
	<path class="st3" d="M608,225.2c0,0,4.8,2.7,7.4,10.8l-2.9,0.8l-4.9-10.5L608,225.2z"/>
	<path class="st3" d="M617.7,183.4c0,0-6.7,3.9-4.9,10.7s11.4,28.6-0.9,30.1l2,3c0,0,10.6-0.9,8.4-12.3
		C620.1,203.6,616.7,187.5,617.7,183.4z"/>
	<path class="st3" d="M609.6,221.6c0,0,5.2-0.6,5.1-4.5c-0.1-3.9-5.4-24.1-5.4-24.1s-5.1,2.4-1.8,12.9
		C610.8,216.5,609.6,221.6,609.6,221.6z"/>
	<path class="st3" d="M606.9,219l-3.7-16.5c0,0-4.1,3-1.9,9.1c2.2,6.1,1.9,9.7,1.9,9.7L606.9,219z"/>
	<path class="st3" d="M598.5,213c0,0-5.1,6-1.9,12.9l4.8-3.5L598.5,213z"/>
	<path class="st3" d="M578.8,228.9c0,0-9.2-0.6-11.2-10.4C567.6,218.5,578.8,220.8,578.8,228.9z"/>
	<path class="st3" d="M564.2,206.8c0,0,18.5,8,16.4,13c-0.5,1.1-1.3,3.5-1.3,3.5s-0.2-2.8-7.1-7
		C565.2,212.1,563.2,208.9,564.2,206.8z"/>
	<path class="st3" d="M562.1,195.2c0,0,14.5,8.1,17.3,10.4c2.8,2.2,6.3,4.7,4.4,8.2c-0.4,0.8-1.2,2.1-1.2,2.1s-1-3.7-7.5-7.1
		C568.6,205.4,559.2,200.3,562.1,195.2z"/>
	<path class="st3" d="M560.5,182c0,0-2.2,5.6,4.9,11c7.1,5.5,27.6,14.3,22.3,21.2c-5.4,7-9.6,15.6-3.3,20.1l-0.4-2.6
		c0,0-1.4-3,2.1-8.7s11.3-13.7,1.5-21.2C577.7,194.3,562.6,186.9,560.5,182z"/>
	<g>
		<path d="M481.8,272.4c-0.2-0.2-0.5-0.4-0.9-0.4h0c-0.3,0-0.6,0.1-0.9,0.4l-2.7,2.7c-2.3-2.3-4.6-4-6.4-4.4c-1.2-0.2-2,0.1-2.5,0.5
			c-0.1,0.1-0.2,0.2-0.2,0.2c0,0,0,0,0,0c0,0,0,0,0,0c-0.1,0.1-0.3,0.3-0.4,0.4c-2.5,2.6-15.7,16.1-30.6,26.7
			c2.1-5.9,8.6-10.7,23-21.1l0.1-0.1c4.5-3.3,7.2-7.2,7.9-11.8c1.7-10.7-7.3-23-15.3-33.9l-1.1-1.5c-14.6-20.2-21.6-32.1-21.9-37.6
			c0-0.4-0.3-0.8-0.7-1c-0.4-0.2-0.9-0.2-1.2,0.1c-2.6,1.8-4.4,4.8-4.9,8.4c-0.4,2.4-0.2,4.9,0.5,7.4c-2.4,2.3-4.8,7.1-2.2,13.5
			c-2.9,2.6-3.7,6.8-2.4,11.2c-2,1.8-3.2,4.3-3.5,7.3c-0.2,2.4,0.3,4.8,1.3,7c-7.5-3.3-17.2-4.5-25.9-5.7l-2.1-0.3
			c-24.7-3.2-38.1-6.4-42.4-9.9c-0.3-0.3-0.8-0.4-1.2-0.2c-0.4,0.2-0.7,0.5-0.8,0.9c-0.5,3.1,0.5,6.5,2.6,9.3c1.5,2,3.6,3.6,6,4.8
			c0,3.3,1.9,8.5,8.4,11c-0.1,4,2.5,7.5,6.8,9.5c-0.1,2.4,0.6,4.7,2.2,6.7c1.5,1.9,3.6,3.4,6,4.3c0,1.4,0.3,4,2.1,6.4
			c1.7,2.3,4.4,3.8,8,4.6c0.2,2.3,1.5,8.1,8.6,10.2c0.5,2.5,2.9,9.7,12.2,10.9c1.1,0.1,2.1,0.2,3,0.2c0.6,0,1.3,0,1.8-0.1
			c-17.1,5.1-31.8,8.5-36.6,9.5c-1.3,0.3-2.4,1.1-3.1,2.3c-1.6,2.6-4.6,10,0.9,21c1,2.1,2.2,3.9,3.2,5.5c0,0,0.1,0.1,0.1,0.1
			l3.8,4.6c2.5,2.6,5.2,4.6,8.4,6.1c0.7,0.3,1.4,0.5,2.2,0.5c1.3,0,2.7-0.5,3.7-1.5c4.7-4.5,21.3-19.9,39.5-29.3
			c0.3,0.2,0.6,0.4,0.9,0.5c0.4,0.2,0.9,0.3,1.6,0.3c2.5,0,6.5-1.3,8.6-3c1.2-1,1.7-2,1.7-2.8c16.3-6.9,37.6-11.8,43.2-13
			c0.6,0,1.2-0.2,1.7-0.4c1.5-0.7,2.6-2,3.2-3.7c1.6-4.8-0.4-13.4-5.3-22.3C485.9,276.7,481.9,272.5,481.8,272.4z M476.2,277.3
			c0.1,0.2,0.2,0.3,0.3,0.5c0.1,0.1,0.2,0.2,0.4,0.2c1.6,1.8,3.2,4,4.4,6.1c5.2,9.1,7.5,16.8,6.5,17.6c-0.8,0.4-4.5-2.9-8.4-10.2
			c-3-5.5-4.2-9.5-4.2-9.6c-0.1-0.4-0.4-0.7-0.8-0.8c-0.1,0-0.2,0-0.3,0c-0.3,0-0.6,0.1-0.8,0.3l-3.2,2.9c-1.6-5.7-1.4-9.5-0.4-10.8
			c0.2-0.2,0.3-0.3,0.4-0.4c0.1-0.1,0.4-0.1,0.5,0C471.9,273.3,474,275,476.2,277.3z M473.3,293.1c-1-2.3-1.9-4.4-2.5-6.3l2.7-2.4
			c0.6,1.8,1.9,4.7,3.8,8.3c1.2,2.1,4.3,7.5,7.5,10.1l-3.6,1.1C478.4,301.6,475.6,298.2,473.3,293.1z M466.4,276.7
			c-0.1,4.3,1.5,10.5,4.7,17.4c3.7,8,8.8,12.6,13.3,14.6c-9.4,2.2-27,6.8-40.5,12.8c-0.9-0.9-2.2-2.5-3.9-5.4
			c-3.5-6.1-5.2-11.9-4.8-13.3c0.1,0,0.1,0,0.2-0.1C448.5,293.9,460.6,282.4,466.4,276.7z M425.3,200.4c0.3-2.1,1.2-4,2.4-5.4
			c1.6,6.6,8.6,18.1,22,36.5l1.1,1.6c7.7,10.5,16.4,22.4,14.9,32.1c-0.6,4-2.9,7.3-6.9,10.2l-0.1,0.1c-16.7,12.2-23.2,16.9-24.5,25
			c0,0-0.1,0-0.1,0c-1,0.5-1.3,1.5-1.3,2.6c-0.4-0.3-0.7-0.7-1-1c-1.1-4.6,0.8-12.2,25-29.8c2.2-1.6,3.6-3.7,3.9-6.2
			c1.3-8.6-8.5-21.9-22.2-40.2c-3.1-4.1-6.3-8.4-9.6-13C425.9,208.8,424.7,204.4,425.3,200.4z M439.1,283.5c0,0.1,0,0.1-0.1,0.2
			c-1.6,1.5-2.9,2.9-4,4.3c-0.3-4.7-3.5-9.6-6.8-14.1c0.3-2.2,0.6-4.5,0.9-7.1c0.2-1.4,0.2-2.7,0.2-4
			C434.1,269.1,441.4,279.6,439.1,283.5z M427.8,277.4c4,5.8,6,10.6,4.1,14.5c0,0.1,0,0.2-0.1,0.2c-0.3,0.5-0.5,0.9-0.8,1.3
			c-0.9-2.3-2.4-4.6-4-6.7C427.1,284.1,427.4,281.1,427.8,277.4z M429.3,297.8C429.3,297.8,429.3,297.8,429.3,297.8
			c-0.1,0.4-0.1,0.7-0.1,1c-1.2-2.1-1.9-4.5-2.1-7.7C428.8,293.9,429.5,295.9,429.3,297.8z M424.5,210c0.6,1.4,1.4,2.9,2.4,4.2
			c3.3,4.6,6.5,8.9,9.6,13c13.3,17.9,22.9,30.8,21.7,38.4c-0.3,1.9-1.3,3.4-3,4.7c-0.1,0.1-0.3,0.2-0.4,0.3c0.5-9.1-13-26.2-23-38.8
			c-2.5-3.1-4.6-5.8-6-7.8C420.6,216.9,422.8,212.1,424.5,210z M422.4,223.2c0.4,0.8,0.9,1.5,1.5,2.3c1.4,2,3.6,4.7,6.1,7.8
			c8.8,11.1,23.6,29.8,22.5,37.6c-0.1,1.1-0.6,1.8-1.4,2.4c-0.1,0.1-0.3,0.2-0.3,0.4c-0.9,0.7-1.7,1.3-2.5,1.9
			c-0.2-8.8-13.9-26-21.4-35.4c-1.5-1.9-2.7-3.4-3.3-4.2C420.1,231.2,419.7,226.2,422.4,223.2z M421.1,248.6
			c-2.3-2.7-3.5-5.9-3.3-9.1c0.2-2,0.9-3.7,2-5c0.5,1,1,2,1.7,2.9c0.7,0.9,1.9,2.4,3.4,4.3c6.5,8.2,21.8,27.4,20.9,34.7
			c-0.1,0.8-0.4,1.4-1,1.8c-0.2,0.1-0.3,0.3-0.4,0.5c-0.9,0.8-1.8,1.6-2.7,2.3c-0.5-6-6.9-15-13.4-23.3c0,0,0,0,0,0
			C427.1,253.8,424.6,250.9,421.1,248.6C421.1,248.7,421.1,248.6,421.1,248.6z M349,239.1c-1.3-1.7-2-3.6-2.2-5.5
			c5.9,3.4,19.1,6.2,41.7,9.2l2.1,0.3c10.9,1.4,22,2.9,29,7.3c0.1,0,0.1,0.1,0.2,0.1c5.1,3.3,8,8.2,7,15.9
			c-3.2,24.6-3.7,31.5,5.1,39c-0.6,0.1-1.4,0-2.7-0.4c-2.6-0.9-5.2-2.8-6.6-8.1c0-0.2,0-0.3-0.1-0.5c0-0.1-0.1-0.2-0.1-0.3
			c-0.6-2.5-1-5.8-1-10c0,0,0-0.1,0-0.1c0-2.1,0-4.4,0.2-6.9c0.1-0.1,0.1-0.2,0.1-0.4c0.1-0.4,0-0.8,0-1.2c0.1-2,0.3-4.1,0.6-6.5
			c0,0,0-0.1,0-0.1c0-0.2,0-0.4,0-0.7c0.2-1.5,0.3-3,0.6-4.6c0.4-2.7-0.3-5.1-1.8-7.1c-5.3-6.8-20.8-8.7-44.3-11.4
			c-5.2-0.6-10.5-1.2-16.3-2C355.6,244.5,351.5,242.3,349,239.1z M355.6,246.4c1.5,0.5,3,0.9,4.7,1.1c5.7,0.7,11.1,1.4,16.3,2
			c22,2.6,37.9,4.5,42.6,10.5c1.2,1.5,1.6,3.2,1.3,5.3c0,0.2,0,0.4-0.1,0.6c-5.9-6-24.2-8.1-44.2-9.8c-3.9-0.3-7.2-0.6-9.5-0.9
			c-1.3-0.2-2.4-0.4-3.4-0.7c-0.1-0.1-0.3-0.1-0.5-0.2c0,0,0,0-0.1,0C357.3,252.4,355.9,248.6,355.6,246.4z M363.9,257.1
			c0.8,0.2,1.7,0.4,2.6,0.5c2.4,0.3,5.8,0.6,9.6,0.9c14.2,1.2,38,3.3,43,9.5c0.6,0.7,0.8,1.4,0.8,2.2c-0.1,1.3-0.3,2.5-0.4,3.8
			c-6.7-5.6-27.9-7.4-39.7-8.4c-2.7-0.2-4.8-0.4-5.9-0.6C368.1,264.2,364.2,261,363.9,257.1z M372.3,271.1c-1-1.3-1.6-2.8-1.7-4.3
			c0.9,0.3,1.9,0.5,3,0.7c1.2,0.2,3.3,0.4,6,0.6c11.2,1,34.5,2.9,39,8.6c0.3,0.4,0.5,0.7,0.6,1.1c-0.1,1.7-0.2,3.3-0.2,4.9
			c-5.4-4.2-18.7-5.5-32.1-6.5c-2.6-0.2-4.9-0.4-6.3-0.6C377,274.9,374.1,273.4,372.3,271.1z M380.5,281.8c-1.2-1.5-1.5-3.1-1.6-4.3
			c0.4,0.1,0.9,0.2,1.4,0.2c1.5,0.2,3.7,0.4,6.5,0.6c9.8,0.7,30.2,2.3,32.2,7.8c0,2.2,0.1,4.2,0.3,6c-4.9-3.9-13.9-4.7-22.6-5.5
			c-2.5-0.2-5.1-0.5-7.5-0.8C385.1,285.4,382.2,284,380.5,281.8z M389,288.3c2.4,0.3,5,0.5,7.5,0.8c10.4,0.9,21.1,1.9,23.6,7.9
			c0.2,0.7,0.4,1.4,0.6,2.1c-3.8-1.6-9.2-1.9-15.5-2.3c-2-0.1-4-0.2-6.2-0.4C391.1,295.7,389.4,290.7,389,288.3z M407.7,306.6
			c-6.9-0.9-9.2-5.5-9.9-8c0.3,0,0.7,0.1,1.1,0.1c2.2,0.2,4.2,0.3,6.2,0.4c8.3,0.5,14.9,0.9,17.7,4.1c0,0.1,0.1,0.1,0.2,0.1
			c0.2,0.2,0.3,0.4,0.5,0.7c-2,0.1-3.8,0.7-5.6,1.3C415,306.2,412.2,307.2,407.7,306.6z M392.9,355.5c-0.8,0.8-2.1,1.1-3.1,0.6
			c-2.8-1.4-5.4-3.2-7.6-5.5l-3.7-4.4c-0.9-1.5-2-3.3-3-5.2c-5-10-2.3-16.5-0.9-18.8c0.3-0.6,0.8-1,1.5-1.1
			c5.8-1.3,26.2-5.9,47.7-13c0.3,4.9,4,13.9,8.3,18.3C413.9,335.8,397.5,350.9,392.9,355.5z M435.9,326.2c-0.3-0.1-0.7-0.3-1-0.6
			c0,0-0.1-0.1-0.1-0.1c-4.5-3.4-9.2-14.9-8.6-18.9c0.7,0.2,1.4,0.4,2.2,0.8c0.2,0.1,0.5,0.1,0.7,0.1c0.8,0.2,1.6,0.3,2.2,0.3
			c1,0,1.7-0.2,2.3-0.5c1.6,5.2,5.9,14,9.6,16.6C440.8,325.7,436.7,326.5,435.9,326.2z M492.7,305c-0.4,1.1-1,1.8-1.8,2.3
			c-0.1,0-0.6,0.1-1.5,0.3c-1.4,0-3.5-0.5-5.8-1.9l5-1.6c0.2-0.1,0.3-0.2,0.5-0.3c0.4-0.2,0.9-0.7,1.1-1.5
			c1.5-4.8-6.5-18.8-6.8-19.4c-1.2-2-2.7-4.1-4.3-6l1.9-1.9c1.3,1.5,4.1,4.9,6.7,9.6C492.1,292.8,494.1,300.9,492.7,305z"/>
		<path d="M304,377.7c15.3-16.4,6.4-35.6-2.3-54.3c-0.6-1.4-1.3-2.7-1.9-4.1c-12.7-27.6-18.2-43.6-17.3-50.2
			c0.1-0.4-0.1-0.9-0.5-1.1c-0.3-0.3-0.8-0.3-1.2-0.1c-3.4,1.5-6.3,4.7-7.8,8.7c-1.1,2.9-1.4,6-1.1,9.3c-3.4,2.1-7.6,7.3-5.9,15.7
			c-4.2,2.4-6.1,7.4-5.3,13.1c-5.7,3.1-7.2,9.6-6,15.6c-1.4,0.8-3.9,2.8-5.3,6.3c-1.2,3.3-1.1,7.1,0.4,11.3
			c-2.1,1.6-7.4,6.7-4.9,15.3c-0.8,0.8-2.4,2.4-3.6,4.8c-1.6,3.2-2.8,8.3,0.1,14.7c2.6,5.7,5.9,8.3,8.8,10.6
			c1.5,1.2,2.9,2.3,3.9,3.7c-4.7,4.2-8.9,7.7-11.8,9.4c-1.1-0.1-3.7,0-6.7,1.3c-3.7-6.9-2.8-16.7-0.3-38.5c0.8-6.7-0.6-12.3-4-16.7
			c-8.1-10.2-26.5-12.3-42.7-14.2l-2.4-0.3c-30.1-3.5-46.6-7.1-51.9-11.4c-0.3-0.3-0.8-0.3-1.2-0.2c-0.4,0.2-0.7,0.5-0.8,0.9
			c-0.5,3.6,0.6,7.6,3.2,11c1.9,2.5,4.4,4.4,7.5,5.9c0,3.9,2.3,10.2,10.3,13.2c-0.1,2.5,0.7,5,2.3,7.1c1.5,1.9,3.6,3.4,6.2,4.5
			c-0.2,6.4,4.4,11,10.1,13.1c0,1.5,0.2,4.9,2.6,7.9c2.2,2.8,5.5,4.6,9.9,5.5c0.3,2.7,1.9,9.7,10.5,12c0.2,1.1,0.8,3.3,2.3,5.6
			c1.9,3,5.6,6.7,12.7,7.5c1.2,0.1,2.2,0.2,3.3,0.2c1.2,0,2.3-0.1,3.3-0.2c-13.2,6.5-33.4,16.3-42.6,20c-3.9,1.6-6.1,5.1-6.4,10.2
			c-0.5,11.6,9.7,28.4,20.5,33.9c2.7,1.4,5.3,2,7.8,2c3.2,0,6.2-1.1,8.9-3.2c19.7-15.6,40.3-36.6,43.7-40.2c0.7,0.1,1.3,0.1,2,0.1
			c8.3,0,11.9-6.9,12.7-8.8c21.9-8.6,41-18.6,48.6-22.8c1.8-0.3,3-1.2,3.8-2.1c0,0,0-0.1,0.1-0.1c0-0.1,0.1-0.1,0.1-0.2
			C324.8,398.4,308.3,381.7,304,377.7z M314,407.8c-0.4,0.2-1.4,0.8-2.9,1.6c-0.9,0.1-1.9,0-3-0.2c-1.9-0.5-4.1-1.5-6.2-2.9l6.3-4.4
			c0,0,0,0,0,0c0,0,0,0,0.1,0c3.6-3.1-2.9-13.9-8-20.6c0.7-0.6,1.4-1.2,2.1-1.8C306.1,383,321.5,398.5,314,407.8z M286,390.1
			l4.1-4.6c2.6,4,9.2,13.6,13.9,16.2l-4.4,3.1C294.7,401.1,289.6,395.6,286,390.1z M282.3,372.9c0.8-0.8,1.3-1.3,1.4-1.4
			c0,0,0,0,0,0c0.1,0,0.1-0.1,0.2-0.1c0,0,0,0,0.1,0c0.2,0,0.4-0.1,0.5-0.1c2.4-0.2,6.9,3.2,11.8,9c8.3,9.8,11.7,18.7,10.4,19.9
			l-0.1,0.1c-0.1,0-0.2,0.1-0.4,0c-3.3-0.5-10.9-10.8-14.9-17.1c-0.2-0.3-0.5-0.5-0.9-0.6c0,0-0.1,0-0.1,0c-0.3,0-0.7,0.1-0.9,0.4
			l-4.7,5.2c-1.5-2.7-2.7-5.3-3.2-7.7C280.8,377.2,281,374.7,282.3,372.9z M275.3,277.3c1-2.7,2.7-4.9,4.7-6.3
			c0.2,8.1,5.8,23.5,17.6,49.3c0.6,1.4,1.3,2.7,1.9,4.1c8.4,18.1,17.1,36.9,2,52.3c0,0-0.1,0-0.1,0.1l-2.8,2.5
			c-0.2-0.2-0.4-0.5-0.6-0.7c-1-1.1-2.1-2.4-3.4-3.7c16.4-11.2,6.6-31.1-8.1-60.9c-3.2-6.6-6.6-13.4-10-20.8
			C274,287.6,273.5,282,275.3,277.3z M272.4,288.4c0.4,1.9,1.1,3.9,2,5.8c3.4,7.4,6.8,14.3,10,20.8c15.5,31.5,23,48.6,8.5,58.1
			c-0.5-0.4-0.9-0.8-1.4-1.2c10.3-13.2-3.7-36.1-14-53c-3.1-5-5.7-9.4-7.3-12.7c-0.7-1.5-1.2-2.8-1.5-4.1c0-0.2,0-0.4-0.1-0.6
			c0,0-0.1-0.1-0.1-0.1C266.8,294.1,270.3,290,272.4,288.4z M266.7,303.9c0.3,1.1,0.8,2.2,1.3,3.3c1.6,3.4,4.3,7.9,7.4,13
			c9.9,16.3,23.5,38.5,14.1,50.4c-1.4-0.9-2.8-1.6-4.2-1.8c2.3-14.3-9.4-31.8-16.5-42.4c-1.9-2.9-3.5-5.2-4.1-6.5
			C261.7,313.2,262.6,306.8,266.7,303.9z M261.2,317c0.3,1.3,0.8,2.6,1.4,3.9c0.7,1.5,2.3,3.8,4.2,6.8c6.6,9.8,18.7,27.9,16,41.4
			c-0.3,0.1-0.6,0.3-1,0.6c-0.6,0.5-1,1-1.5,1.6c-1,1-2.4,2.5-4.2,4.2c1.7-12.9-7.3-26-13.4-34.9c-2-2.9-3.8-5.5-4.6-7.2
			c-0.4-0.9-0.7-1.8-1-2.7c0-0.2,0-0.3-0.1-0.5c0,0,0,0-0.1-0.1C255.6,324.2,257.7,319.4,261.2,317z M251.7,337.3
			c0.9-2.4,2.6-3.9,3.7-4.8c0.2,0.6,0.4,1.3,0.7,1.9c0.9,2,2.7,4.6,4.8,7.6c6.5,9.4,16.2,23.7,12.3,36.7c-1.3,1.3-2.6,2.6-4.1,4.1
			c1.9-7.6-3.5-14.9-8.7-22.1c-2.8-3.8-5.6-7.7-7.4-11.6C250.9,344.5,250.5,340.5,251.7,337.3z M250.8,350c1.9,4.2,4.8,8.2,7.6,12
			c7,9.6,13.1,18,4,27c0-4-3.3-8.4-6.8-12.9c-2.5-3.2-5-6.5-6.9-10.2C244,357.1,248.6,351.9,250.8,350z M251.8,391.2
			c-2.8-2.3-5.7-4.6-8.1-9.7c-3.7-8.1,0.1-13.7,2.2-16c0.2,0.5,0.5,1.1,0.8,1.7c2,3.9,4.8,7.4,7.2,10.5c5.6,7.2,8.5,11.5,4.3,15.3
			c-0.2,0.2-0.3,0.4-0.3,0.6c-0.6,0.5-1.2,1.1-1.8,1.6C254.8,393.6,253.3,392.5,251.8,391.2z M278.7,376.5c-0.1,1.3,0.1,2.8,0.4,4.3
			c0.7,3,2.2,6.3,4.3,9.7c0,0.1,0.1,0.2,0.2,0.3c3.9,6.2,9.6,12.3,15.3,16.4c0.1,0.1,0.2,0.2,0.3,0.2c2.8,2,5.6,3.4,8.1,4.1
			c-9,4.8-25.8,13.3-44.8,20.8c-12.3-4.5-17.2-20.5-18.2-24.4C252.6,402.6,270.1,385.2,278.7,376.5z M137.6,336.6
			c-1.7-2.2-2.7-4.7-2.8-7.1c7,4.1,23.1,7.4,51.3,10.7l2.4,0.3c15.8,1.8,33.6,3.9,41.1,13.3c3.1,3.9,4.3,8.8,3.5,14.9
			c-2.6,22.8-3.6,33.1,0.9,40.7c0,0.1,0.1,0.2,0.1,0.4c0.1,0.1,0.2,0.3,0.3,0.4c1.4,2.2,3.3,4.1,5.7,6.1c-0.7,0.3-1.9,0.3-3.7-0.3
			c-3.7-1.2-6.7-4-8.3-10.8c-0.1-0.5-0.2-0.9-0.3-1.4c-1.4-7.2-1.6-18.4,0.2-36c0.5-5-0.5-8.8-3.1-11.8c-6.2-7.3-21.1-8.2-41.6-9.4
			c-9.3-0.6-19.8-1.2-31.3-2.5C145.8,343.3,140.7,340.6,137.6,336.6z M145.7,345c1.9,0.7,3.9,1.2,6.1,1.4c11.5,1.3,22.1,2,31.4,2.5
			c20,1.2,34.4,2.1,40,8.6c2.1,2.4,2.9,5.7,2.5,10c-0.6-1-1.3-2-2.2-2.9c-8.8-8.7-30.5-8.4-47.9-8.2c-6.5,0.1-12.1,0.2-15.8-0.3
			C148.3,354.8,146.1,348.1,145.7,345z M157.7,362.7c-1.2-1.5-1.8-3.1-1.8-4.9c1.1,0.3,2.3,0.5,3.6,0.6c3.9,0.5,9.5,0.4,16.1,0.3
			c16.1-0.2,38-0.5,46.2,7.5c2.1,2.1,3.2,4.6,3.2,7.7c0,0.2,0,0.3,0.1,0.4c-0.1,1.1-0.2,2.1-0.2,3.2c-0.2-0.3-0.5-0.6-0.7-0.9
			c-8.1-8.7-32.4-8.6-46.9-8.6c-3.9,0-7,0-8.6-0.2c-1.7-0.2-3.2-0.6-4.7-1.1c-0.2-0.1-0.3-0.2-0.5-0.2c0,0,0,0,0,0
			C161,365.8,159,364.4,157.7,362.7z M164.4,369.6c1.2,0.4,2.5,0.6,3.9,0.8c1.7,0.2,4.9,0.2,8.9,0.2c13.2,0,37.7-0.1,45.2,7.8
			c1.6,1.7,2.3,3.6,2.1,5.9c0,1.2-0.1,2.4-0.1,3.5c-6.6-6.8-25.3-6.9-38.5-7c-3.8,0-7.2-0.1-9-0.3
			C170.7,379.8,164.6,375.8,164.4,369.6z M176.6,388.3c-1.6-2.1-2-4.4-2.1-5.8c0.7,0.2,1.4,0.3,2.1,0.4c2,0.2,5.2,0.3,9.3,0.3
			c13.1,0.1,37.3,0.3,38.5,9.9c0,1.7,0.1,3.3,0.3,4.9c-5.1-5.1-14.7-4.8-24-4.5c-4.5,0.2-9.2,0.3-13.3-0.2c-0.4,0-0.7-0.1-1.1-0.2
			c-0.2-0.1-0.3-0.1-0.5-0.1c0,0,0,0,0,0c-0.1,0-0.1,0-0.2,0C181.5,392.3,178.5,390.7,176.6,388.3z M187,395.7
			C187,395.7,187,395.7,187,395.7c4.3,0.5,9.1,0.3,13.7,0.2c13.2-0.4,22.3-0.1,24.7,8.2c0.1,0.6,0.3,1.2,0.4,1.7
			c0,0.2,0.1,0.4,0.1,0.6c0,0.1,0.1,0.2,0.1,0.3c-3.9-2.2-9-1.8-14.7-1.4c-3.5,0.3-7.5,0.6-11.8,0.3
			C189.6,405,187.5,398.6,187,395.7z M222.7,416.2c-3.4,1.2-6.9,2.5-12.4,1.8c-9-1.1-11.8-7.3-12.6-10.2c0.6,0.1,1.2,0.1,1.8,0.2
			c4.4,0.3,8.5,0,12.1-0.3c8.3-0.7,13.8-1.1,17,5.2c0.1,0.2,0.3,0.4,0.5,0.5c-0.3,0.4-0.4,0.7-0.6,1.1c-0.1,0.1-0.3,0.1-0.4,0.2
			C226.1,415,224.4,415.6,222.7,416.2z M203.4,481.5c-4.1,3.3-8.9,3.6-14.1,0.9c-10.2-5.2-19.7-20.9-19.2-31.7
			c0.2-4.1,1.8-6.8,4.9-8.1c12.7-5.1,45.9-21.6,53.5-25.4c0.9,5,4.5,19.4,17.6,25.2C240.9,447.6,221.8,466.9,203.4,481.5z
			M248.8,440.8c-0.2-0.1-0.4-0.2-0.7-0.2c-12.7-4.9-16.4-18.7-17.3-23.7c1.4,0.1,3,0.5,4.9,1.2c0.2,0.1,0.4,0.1,0.6,0.1
			c1.1,0.3,2,0.5,2.8,0.5c2.9,0,4.2-1.8,4.2-1.9c0.4-0.5,0.2-1.2-0.3-1.6c-2.5-1.9-4.4-3.7-5.9-5.7c2.1-0.9,4-1,4.9-1
			c0.5,1.8,1.7,6,4,10.5c3.8,7.5,8.9,12.6,14.8,15.1C259.7,436.4,256.3,441.7,248.8,440.8z"/>
		<path d="M621.6,204.7l-0.1-0.2c-3.7-15.3-2.6-20.8-2.6-20.8c0.1-0.4,0-0.7-0.2-1c-0.2-0.3-0.6-0.5-1-0.4c-3,0.1-5.8,1.4-7.5,3.8
			c-1.4,1.8-2,4.1-1.7,6.4c-1.7,0.3-3.3,1.2-4.6,2.7c-1.5,1.9-2.3,4.4-2,6.9c-1.1,0.3-2.6,1-3.7,2.5c-1.4,1.9-1.8,4.6-1.2,7.9
			c-2,0.9-5.9,3.6-5.7,10.8c0.1,1.6,0.4,3,0.8,4.4c-2.2,1.5-4.6,2.9-7,4.1c-1-3.2,0.5-5.9,5.7-14.1l0.9-1.5c1.6-2.5,2.1-5.1,1.5-7.5
			c-1.3-5.6-8-9.7-13.8-13.3l-0.8-0.5c-3.8-2.4-15.5-9.7-17.1-13.2c-0.2-0.4-0.5-0.6-0.9-0.7c-0.4-0.1-0.8,0.1-1.1,0.4
			c-2.2,2.3-3.1,5.3-2.7,8.3c0.3,2.1,1.3,3.9,2.7,5.3c-1,1.4-1.5,3.2-1.2,5.1c0.3,2.8,2,5.6,4.2,7.3c-0.6,1-1.2,2.7-0.9,4.7
			c0.4,2.4,2.1,4.6,5,6.5c-0.8,2.1-1.7,7,3.8,12c2.5,2.2,5,3.2,7.1,3.7c-9.9,2.2-19.1,3.6-22.1,4c0,0-0.1,0-0.1,0
			c-0.8,0.2-1.5,0.5-2,1.2c-0.8,1.1-3.1,5.2-0.7,11.5c1.9,5.3,5.6,7.8,7.5,8.7c0.5,0.3,1,0.4,1.6,0.4c0.7,0,1.5-0.2,2.1-0.7
			c8.9-7.2,15.9-10.9,20.4-12.8c0.2,0.1,0.3,0.2,0.5,0.3c0.4,0.2,0.8,0.3,1.4,0.3c1.5,0,3.5-0.6,4.5-1.4c0.7-0.5,1-1,1.1-1.5
			c9.7-2.7,19.7-3,19.8-3c0.2,0,0.4-0.1,0.6-0.2c0.5-0.2,1-0.5,1.3-1.1c0.3-0.5,0.4-1.3,0.3-2.1l3.5-0.8c0.6-0.1,1-0.7,0.9-1.4
			c0-0.2-0.6-3.7-2.3-7.4l0.1,0c2.8-0.6,4.9-2,6.2-4.1C625.1,219,623.3,211.4,621.6,204.7z M605.8,196.5c0.6-0.8,1.7-1.6,3.2-1.8
			c0.5,1.9,1,3.7,1.4,5.4c2.6,9.7,4.2,16.1,2.7,18.6c-0.4,0.7-1.1,1.2-2.2,1.4c-0.4,0.1-0.8,0.2-1.1,0.2c-0.6-0.4-1.1-0.8-1.7-1.1
			c-0.1-4.6-2.2-11.8-3.3-15.4c-0.2-0.6-0.3-1-0.4-1.3C604,200.5,604.5,198.1,605.8,196.5z M600.1,205.8c0.7-0.9,1.6-1.4,2.3-1.6
			c0,0.1,0.1,0.2,0.1,0.3c0.9,3,2.9,9.7,3.1,14c-0.7,0-1.3,0.1-1.9,0.4c-0.4,0.2-0.8,0.6-1.1,1c-0.3,0.2-0.6,0.5-1,0.8
			c-0.2-1.5-0.7-3-1.1-4.6c-0.3-1-0.6-2.1-0.9-3.1c0-0.1,0-0.1,0-0.2c0-0.1-0.1-0.2-0.1-0.3c0-0.1-0.1-0.2-0.1-0.3
			C598.9,209.4,599.1,207.3,600.1,205.8z M603.2,231.2c1.3,3.3,3.1,5.9,4.7,7.6c-4.1,0.3-11.2,1.2-18.1,3.2c-1.4-2-3.3-7-3.1-8.5
			c5.8-3.1,11.4-7.1,14.9-9.7C601.5,225.8,602,228.3,603.2,231.2z M584.1,235.5c0.2,0,0.3,0,0.4,0c0.5,2.1,1.9,6.2,3.7,8.3
			c-0.9,0.3-2.1,0.5-2.5,0.4c0,0,0,0-0.1-0.1c-0.1-0.3-0.3-0.5-0.6-0.6c-1.7-2.1-3.2-6.9-3-8.6C582.8,235.4,583.5,235.5,584.1,235.5
			z M593.8,223c-0.2-5.4,2.3-7.6,3.8-8.3c0.2,0.7,0.4,1.5,0.6,2.2c0.6,2.1,1.2,4,1.2,5.6c-1.4,1.1-3.2,2.3-5.1,3.6
			C594,225.1,593.9,224.1,593.8,223z M560.4,183.9c2.3,2.8,7.7,6.9,17.1,12.7l0.8,0.5c5.5,3.4,11.7,7.2,12.8,11.8
			c0.4,1.8,0,3.7-1.2,5.7l-0.9,1.5c-5.4,8.7-7.4,12-5.7,16.7c-0.2-0.1-0.3-0.2-0.5-0.3c-0.1-0.1-0.3-0.2-0.5-0.3
			c-0.1-0.1-0.2-0.2-0.4-0.3c-1.5-1.4-3.4-4.4-0.2-11.5c0,0,0.1-0.1,0.1-0.1c0.2-0.3,0.3-0.5,0.3-0.8c0.6-1.3,1.5-2.8,2.5-4.4
			c1-1.6,1.3-3.1,0.9-4.6c-1-4-6.6-7.2-16.7-13c-1.8-1.1-3.8-2.2-5.9-3.4c-1.9-1.1-3.1-2.9-3.4-5C559,187.3,559.4,185.5,560.4,183.9
			z M560.8,199.5c-0.1-1,0-2.3,0.7-3.4c2.1,1.2,4.1,2.4,5.9,3.4c8.9,5.1,14.8,8.5,15.6,11.5c0.2,0.9,0,1.7-0.6,2.8
			c-0.5,0.7-0.9,1.4-1.3,2.1c-2.2-3.1-8-6.1-13.7-9c-1.1-0.5-2.1-1-2.6-1.3C562.7,204.5,561.1,202,560.8,199.5z M564.1,211.4
			c-0.2-1.3,0.2-2.4,0.6-3.1c0.5,0.2,1,0.5,1.7,0.8c4,2,12.5,6.2,13.3,9.1c0.1,0.2,0.1,0.3,0,0.5c-0.7,1.5-1.2,2.8-1.6,4.1
			c-1.5-1.9-3.9-3.1-6.3-4.4c-0.9-0.5-1.9-1-2.8-1.6c0,0-0.1-0.1-0.1-0.1c-0.1-0.1-0.2-0.1-0.3-0.1c-0.1-0.1-0.2-0.1-0.4-0.2
			C565.8,214.9,564.3,213.2,564.1,211.4z M568.7,219.6c0.7,0.4,1.3,0.7,1.9,1.1c4.3,2.3,6.7,3.7,6.7,7.1c0,0.1,0,0.2,0.1,0.3
			c0.1,1.4,0.5,2.6,1.1,3.7c-1.7-0.3-4.2-1.1-6.5-3.2C567.9,224.7,568.2,221.2,568.7,219.6z M562.3,257.2c-0.2,0.2-0.7,0.2-1,0
			c-1.7-0.8-4.8-2.9-6.4-7.4c-2-5.4,0-8.7,0.4-9.3c0.1-0.1,0.1-0.2,0.4-0.2c3.2-0.4,13.3-1.9,23.8-4.3c0.2,2.5,1.4,6,3,8.4
			C576.3,247.1,569.5,251.4,562.3,257.2z M613.3,235.2c-0.8-3.1-2.7-6.9-5.3-10.2c-0.4-0.5-1.2-0.6-1.7-0.2
			c-0.5,0.4-0.6,1.2-0.2,1.7c4.3,5.6,5.4,10.7,5.2,12c-1-0.4-3.8-2.8-5.9-8.1c-1.9-4.5-1.6-7.5-1-8.8c0.3-0.2,0.5-0.4,0.5-0.4
			c0.1-0.1,0.1-0.1,0.2-0.2c0.1,0,0.2,0,0.3,0c0.3,0,0.6,0.1,0.8,0.2c2,0.7,5.2,3.6,7.2,7.9c1.1,2.2,1.7,4.5,2,5.8L613.3,235.2z
			M620.1,222.6c-1,1.5-2.5,2.5-4.8,3.1l-0.3,0.1c-0.2,0-0.3,0.1-0.4,0.1c-0.8-1.3-1.7-2.6-2.7-3.6c1.5-0.4,2.6-1.2,3.3-2.4
			c2.1-3.4,0.5-9.5-2.4-20.5c-0.5-2-1.1-4-1.7-6.3c-0.5-2.1-0.2-4.1,1.1-5.8c1-1.4,2.6-2.3,4.3-2.7c-0.2,2.7,0,8.9,2.8,20.3l0.1,0.2
			C620.8,211.5,622.5,218.6,620.1,222.6z"/>
	</g>
</g>
</svg>
