<?xml version="1.0" encoding="utf-8"?>
<!-- Generator: Adobe Illustrator 21.0.0, SVG Export Plug-In . SVG Version: 6.00 Build 0)  -->
<svg version="1.1" id="Layer_1" xmlns="http://www.w3.org/2000/svg" xmlns:xlink="http://www.w3.org/1999/xlink" x="0px" y="0px"
	 viewBox="0 0 800 600" style="enable-background:new 0 0 800 600;" xml:space="preserve">
<style type="text/css">
	.st0{opacity:0.5;fill:#E86060;enable-background:new    ;}
	.st1{opacity:0.56;fill:#FFFFFF;enable-background:new    ;}
	.st2{fill:#FFFFFF;}
	.st3{fill:#E86060;}
</style>
<g>
	<path class="st0" d="M704.3,141.3c89.3,205.5-300.8,309.5-375.4,139.8C263.3,131.7,623.1-45.4,704.3,141.3z"/>
	<path class="st0" d="M399.4,440.4c-6,116.6,208.7,119.1,187.4,5.7S403.7,357.6,399.4,440.4z"/>
	<path class="st0" d="M500.2,254.7c44.1,217.9-257.8,384.9-396.6,55.6S459.6,54.2,500.2,254.7z"/>
	<path class="st1" d="M256.8,384.2c-8.2,16.8,8.8,61.5-59,31c-11.4-5.1-21.9-3.3-31,1.7c12.1,14.3,24.7,26.5,37.6,36.6h147.3
		C324.6,401.4,272,352.7,256.8,384.2z"/>
	<path class="st1" d="M588.3,461.8c-4-0.4-8.2,0.2-12.6,2.2c-50.1,22.6-37.6-10.5-43.6-23c-11.4-23.3-50.3,12.7-70.3,51.3h118.6
		C585.3,483.6,588.2,473.5,588.3,461.8z"/>
	<path class="st1" d="M699.6,264.6c-21.4,3.6-14.9-17.2-19.1-26c-9.7-20-43.2,11-60.6,44.2h67C691.6,277,695.9,270.9,699.6,264.6z"
		/>
	<path class="st1" d="M383.7,171.5h201.2c0,0-24.8-33.5-58.7-23.5c-62.8,18.7-47.1-8.7-54.6-19C457.6,109.7,408.9,139.6,383.7,171.5
		z"/>
	<path class="st1" d="M507.8,207.1H318.9c0,0,23.3-35.5,55.1-24.8c58.9,19.8,44.2-9.2,51.3-20.1
		C438.5,141.8,484.2,173.4,507.8,207.1z"/>
	<path class="st1" d="M88.9,269.4h108.4c-96.1-135.4-63.9-11.9-114-23C84.7,253.8,86.6,261.4,88.9,269.4z"/>
	<path class="st1" d="M645.9,77.6c-4.8,9.7-11,18.4-25.2,12.3c-40.7-17.3-75.3,19.6-75.3,19.6h139.7
		C674.1,95.8,660.8,85.2,645.9,77.6z"/>
	<path class="st2" d="M172.6,315c-2.3,4-3.9,6.8-3.9,6.8l5,10.8l43.3,28.1l43.3-28.1l5-10.8L246,288.2l-29-14.9l-29.1,14.9
		C187.9,288.2,178.2,305.2,172.6,315z"/>
	<path class="st2" d="M227.6,150.1c8.9,9,15,7.9,40.7,1.6c20.5-5.1,25.4,18.1,30.1,37.2c6.3,25.6,11.1,38.8,15.4,42.9
		c-4.6,1.2-10.9-1-14.7-7.5l0.1,0.3c0,0-7.9,1.6-12-7.3l0,0c-4.2,1-8.2-1.4-10.6-5.9c-4.6,1.1-9.7-1.4-12.1-7.1c0,0-8.9,2.4-12.4-9
		c0,0-8.2,1.3-11.3-7.5l0,0c0,0-9.6,0.2-12.2-10.4c-2.1-8.7,1.9-12.4,0.6-18l-1.6-4C225.8,151.6,227.6,150.1,227.6,150.1z"/>
	<path class="st2" d="M558.6,393c-2.3,4-3.9,6.8-3.9,6.8l5,10.8l43.3,28.1l43.3-28.1l5-10.8L632,366.2l-29-14.9l-29,14.9
		C574,366.2,564.2,383.2,558.6,393z"/>
	<path class="st2" d="M361.5,489.7c-2.3,4-3.9,6.8-3.9,6.8l5,10.8l43.3,28.1l43.3-28.1l5-10.8l-19.3-33.6l-29-14.9l-29.1,14.9
		C376.9,463,367.1,479.9,361.5,489.7z"/>
	<path class="st2" d="M91.6,120.2c0,0,2.6,1,10.1-1.5s40.4-17.5,47-20.1c6.5-2.6,26.4-8,32.2,3.7s14.4,34.7,28.5,33.8
		c0,0-1.5,3.4-7.8,3.6c0,0-12.5,14.2-20.4,14.2s-9.7-4.4-9.7-4.4s-8,2.7-12.4-3.9c0,0-9.3,3.8-14.5-3.8c0,0-10.5,2.1-13.7-5.5
		c0,0-8,0.9-11.1-4.8c0,0-10.3,1.2-13.3-4.5C106.5,127.1,94.4,126.8,91.6,120.2z"/>
	<path class="st2" d="M278.4,398.6c0,0,3-1.1,7.7-8.8c4.6-7.7,22.2-45.4,25.9-52.6c3.7-7.2,17-26.7,30.8-20.8
		c13.8,5.9,38.5,19.5,50,8.2c0,0,1.2,4.1-4.1,9c0,0-0.2,21.7-7.1,27.6s-11.8,3.4-11.8,3.4s-6.2,7.9-12.4,6.2c0,0-9.8,9.6-16.9,7.2
		c0,0-9.8,8.5-16,5.4c0,0-6.3,6.7-13.2,4.1c0,0-8.1,8.8-15,6.1C296.5,393.5,285.7,402.3,278.4,398.6z"/>
	<path class="st2" d="M549.4,298.9c0,0-3.1,0.9-11.4-2.5s-45-23-52.3-26.6c-7.3-3.5-29.6-11.2-37.1,1.8s-19.1,38.7-35.1,36.6
		c0,0,1.5,4,8.6,4.8c0,0,13.2,17.2,22.3,17.8c9,0.6,11.5-4.3,11.5-4.3s9.7,2.6,13.6-2.5c0,0,13.6,1.7,17.8-4.3
		c0,0,12.9,0.9,16.1-5.3c0,0,9.1,1.6,13-4.6c0,0,11.8,2.2,15.6-4.1C531.8,305.7,545.7,306.3,549.4,298.9z"/>
	<path class="st2" d="M262.9,105.4c0,0-26-25-35.1-14.1c0,0-7.2,27.4-18.5,44.8c0,0-2.2,1.9-5.5,7.9c-1.8,3.2-38.5,38.2-38.5,38.2
		c-3.1,3.2,4.8,16.9,16.1,21.9l4.6-2.8l1,5.1c0,0,12.1,3.2,13.8-1.8c1.6-5,14.1-38.9,21.5-47c0,0,5.4-0.3,8.3-6.4
		c1-2.1-0.2-3.9-0.2-3.9s20.1-23.3,32.6-29.8c0,0,1.2-3.7-3.6-8.7L262.9,105.4z"/>
	<path class="st2" d="M346.8,270.1c0,0,23.6-27.4,43.5-13.1c0,0,15.5,27.7,23,51.2c0,0,2.6,2.1,6.7,8.9c13.4,8.8,46,42.9,46,42.9
		c3.8,3.5-4.9,19.8-17.8,26l-6.4,2.8c0,0-13.3,3.9-16-1.6c-10.1-20-20.2-37.1-26.5-53.6c0,0-6.3-0.2-9.9-7.1
		c-1.2-2.4,0.1-4.5,0.1-4.5s-22.4-16.6-38.8-33.3c0,0-4-3.7,2.9-11.8L346.8,270.1z"/>
	<path class="st2" d="M643.3,180.1l4-3.6c0,0-7.5-5.8-16.3-10c0.4-0.5,0.8-1.1,1.2-1.6c10.5-14,7-24.9-10.3-37.8
		c-6.5-4.8-38.9-29.3-45.7-35.9c-6.4-6.2-7.5-8.8-7.5-8.8c-7,8.3,1.5,18.7,1.5,18.7c-4.2,6.5,2.5,14.9,2.5,14.9
		c-4.1,6.6,2.1,14.5,2.1,14.5c-5.8,6.9,2.4,14.6,2.4,14.6c-5.6,8.5,4.5,16.7,4.5,16.7c-4.1,9.8,3.2,14.6,3.2,14.6s-3,7.8,2,13.7
		c4.4,5.3,9.5,7.2,14.1,8.7c-1.7,5.9-3.8,11.8-6.4,17.1c0,0-0.3,0.4-0.9,1.2c-14.3,0.5-20.6-19.6-26.9-32.8
		c-6.5-13.4-17.6-16.4-36.3-8.3c-7,3-43.2,17.5-51,20.6c-7.9,3.1-10.7,2-10.7,2c3.1,7.6,16,7.6,16,7.6c3.3,6.5,14.4,4.8,14.4,4.8
		c3.5,6.4,11.9,5.2,11.9,5.2c2.6,6.4,14.7,6.1,14.7,6.1c4.3,8.6,14.6,4.1,14.6,4.1c6.1,8,14.4,4.2,14.4,4.2s3.7,6.9,10.9,5.6
		c12.2-2.1,15.9-13.9,22.9-15.1c1.5-0.3,2.6-0.6,3.5-1c-0.7,1.3-1.5,3-2.4,5.2c-1.5,3.8-35,45.3-35,45.3c-3,3.9,6,19,18.9,22.9
		l4.6-3.7l1.8,5.4c0,0,13.6,1.8,14.7-3.8c1.1-5.6,10-44,16.9-53.8c0,0,5.8-1.1,8.2-8.1c0.8-2.4-0.8-4.2-0.8-4.2s17-26.8,29.7-35.6
		C648.5,189.9,649.2,184.8,643.3,180.1z"/>
	<path class="st3" d="M380.7,278.6c0,0-12.5,8.8,1.2,24.7s15.8,18.2,15.8,18.2s-3.4,3.2-6.5,2.3c0,0-22.8-17.5-40.2-34.9
		C351.1,288.9,356.7,295,380.7,278.6z"/>
	<circle class="st3" cx="407" cy="323.8" r="4.9"/>
	<path class="st3" d="M349.4,272.7c0,0,22.2-23.3,36.8-15.2c3.2,1.8,4.1,8.7,4.1,8.7l-4.1,7l-5.4,5.4c0,0-9.7,6.3-13.1,7.8l-2.4-2.1
		c0,0,17.7-8.1,20.8-17.8l-3.6-6c0,0-3.6,15.9-20.4,19.1l4.8,7.1c0,0-9.2,4.7-13.8,3.1c-4.7-1.6,16.4-26.1,29.4-29.4
		c0,0-9-7.5-28.4,16.8L349.4,272.7z"/>
	<path class="st3" d="M404.8,331.2c0,0,0.2,0.2,0.4,0.6c3.2-2,11.1-7.5,15.5-13.8l2.6,2.6c0,0-17.8,10.9-7.2,26.6l0,0
		c4.1,5.9,8.7,12.8,12.8,19.1c8.8,13.6,30,10.7,30,10.7s-4.7,5.4-11.1,8.2l-6.3,2.8c0,0-12.4,5-15.9-1.5
		c-16-30.3-26.7-53.7-26.7-53.7L404.8,331.2z"/>
	<path class="st3" d="M549.3,298.2c0,0-9.5,0.8-38.7-15c-29.1-15.9-52.5-30.5-64.2-9s-17.6,33.9-33.1,33.8c0,0,13.9,9.9,28.9-19.6
		c15.6-30.7,18.7-25.5,66,0.2C533.4,302.3,539.3,304.2,549.3,298.2z"/>
	<path class="st3" d="M531.9,304.9c0,0-8.6-3-35-18.1c-26.4-15.1-38.3-19.9-46.2-6c0,0,6.6-11.5,42.9,10.8
		C529.8,313.9,531.9,304.9,531.9,304.9z"/>
	<path class="st3" d="M516.4,309.5c0,0-6.3,4.3-16.2-2.6c-10-6.9-36.1-22.5-51.5-21.5c0,0,0.5-13,30,3.1
		C508.2,304.5,516.4,309.5,516.4,309.5z"/>
	<path class="st3" d="M503.1,313.9c0,0-5.2,3.3-11.6-0.1s-34.7-22.7-47.9-20.1c0,0,0.1-12.3,30.5,4.3
		C492.8,308.1,503.1,313.9,503.1,313.9z"/>
	<path class="st3" d="M487.7,318.7c0,0-10.8-5.7-21.5-12.7s-22.6-12.3-28.6-4.3c0,0,5.6-3.8,26.3,9.3
		C477.4,319.5,484.3,322.3,487.7,318.7z"/>
	<path class="st3" d="M470.5,322.2c0,0-13.8-8.1-17.1-9.8c-3.2-1.7-15.4-9.8-23.1-3.2c0,0,8.9,0.3,20.2,8.2
		C461.8,325.3,467.9,325.1,470.5,322.2z"/>
	<path class="st3" d="M455.4,326c0,0-9.1,3.6-17.2-2.5s-11.9-10.2-16.2-10.8C421.9,312.7,428,305.9,455.4,326z"/>
	<path class="st3" d="M277.8,398.3c0,0,8.1-5.1,21.7-35.3c13.7-30.2,23.5-56,45.8-45.9s34.5,16.4,46.8,6.9c0,0-5.1,16.3-34.9,1.8
		c-31-15-30.3-9-52.4,40C293,392,289.4,397,277.8,398.3z"/>
	<path class="st3" d="M295.7,393.1c0,0,5-7.6,16.9-35.6c11.9-27.9,18.5-39,33.2-32.7c0,0-12.2-5.2-27.7,34.6
		C302.8,399.1,295.7,393.1,295.7,393.1z"/>
	<path class="st3" d="M310.8,387.4c0,0,7.6-0.4,11.4-11.9s15.2-39.7,28.1-48.3c0,0-8.2-10.1-22.1,20.6
		C314.4,378.5,310.8,387.4,310.8,387.4z"/>
	<path class="st3" d="M324.1,383c0,0,6.2-0.5,9.2-7.1s13.9-39,26.1-44.9c0,0-7.5-9.8-21.8,21.8C328.8,372.1,324.1,383,324.1,383z"/>
	<path class="st3" d="M339.2,377.5c0,0,5.2-11.1,9.5-23.1s10.6-23.4,20.2-20.7c0,0-6.8,0.4-15.3,23.3
		C347.9,371.9,344.1,378.3,339.2,377.5z"/>
	<path class="st3" d="M355.1,369.9c0,0,6.1-14.8,7.7-18.1c1.5-3.3,6.3-17.1,16.4-16.5c0,0-7,5.6-11.1,18.7
		C363.9,367.1,358.9,370.6,355.1,369.9z"/>
	<path class="st3" d="M369.4,363.8c0,0,9.5-2.6,12.3-12.4c2.8-9.7,3.3-15.4,6.4-18.4C388.1,333,379.1,331.2,369.4,363.8z"/>
	<path class="st3" d="M236.7,109.4c0,0,11.1,7.3-0.4,21.5S223,147.2,223,147.2s3,2.7,5.7,1.8c0,0,20.7-23.2,34-31.5
		C262.8,117.5,258.1,123,236.7,109.4z"/>
	<path class="st3" d="M217.2,155.9c0,0-11.5,17-20,31.3c-7.2,12.1-25.8,10.1-25.8,10.1s4.3,4.6,9.9,6.8l4.6-2.8l1,5.1
		c0,0,12,4.4,13.8-1.8c7.4-26.3,21.7-47.5,21.7-47.5L217.2,155.9z"/>
	
		<ellipse transform="matrix(0.9995 -3.217651e-02 3.217651e-02 0.9995 -4.6991 6.9987)" class="st3" cx="215.1" cy="149.5" rx="4.2" ry="4.2"/>
	<path class="st3" d="M260.8,107.1c0,0-20.7-20.6-30.1-14.3c-2.7,1.8-2.6,6.1-2.6,6.1l3.8,6l4.9,4.5c0,0,8.6,5.2,11.6,6.4l2-1.9
		c0,0-15.9-6.9-18.8-15.3l1.6-3.7c0,0-0.3,7.1,19.6,16.7L249,116c0,0,8.1,3.9,12.1,2.3s-14.7-17-27.2-23.5c0,0,4.6-4.3,24.9,13.8
		L260.8,107.1z"/>
	<path class="st3" d="M203,144.8l-2.2,2.4c0,0,15.8,9,7,23l10.2-13.1C218.1,157.1,208,151.6,203,144.8z"/>
	<path class="st3" d="M91.6,120.2c0,0,8.2,1.3,34.4-10.9s47.3-23.6,56.3-4.3s13.4,30.4,27,31.1c0,0-12.6,7.9-24.1-18.6
		c-11.9-27.5-14.9-23.2-57.3-3.4C105.2,124.6,100,125.9,91.6,120.2z"/>
	<path class="st3" d="M106.4,127c0,0,7.6-2.2,31.4-13.8s34.4-15.2,40.5-2.7c0,0-5.1-10.4-37.9,7.1C107.7,134.9,106.4,127,106.4,127z
		"/>
	<path class="st3" d="M119.6,131.8c0,0,5.2,4.1,14.3-1.4s32.6-17.6,46-15.9c0,0,0.3-11.3-26.3,1.1S119.6,131.8,119.6,131.8z"/>
	<path class="st3" d="M130.9,136.3c0,0,4.4,3.2,10.1,0.5c5.7-2.7,31.3-17.9,42.7-14.8c0,0,0.6-10.7-26.8,2
		C140.1,131.9,130.9,136.3,130.9,136.3z"/>
	<path class="st3" d="M144,141.3c0,0,9.7-4.4,19.3-9.9s20.3-9.5,25.1-2.2c0,0-4.7-3.6-23.3,6.7C152.9,142.6,146.8,144.7,144,141.3z"
		/>
	<path class="st3" d="M158.8,145.3c0,0,12.5-6.3,15.4-7.6s13.9-7.7,20.2-1.6c0,0-7.8-0.2-18,6C166.2,148.5,160.8,148,158.8,145.3z"
		/>
	<path class="st3" d="M171.7,149.5c0,0,7.8,3.6,15.1-1.2c7.4-4.9,10.9-8.3,14.7-8.5C201.5,139.7,196.6,133.5,171.7,149.5z"/>
	<path class="st3" d="M313.8,231.8c0,0-6.1-5.6-13.1-33.7c-6.9-28-11.2-51.7-32-46.6s-32.1,8.6-41.2-1.5c0,0,1.8,14.8,29.6,7.1
		c28.9-8,27.4-3,38.6,42.6C301.8,224,304.1,228.9,313.8,231.8z"/>
	<path class="st3" d="M299.3,224.6c0,0-3.1-7.3-8.9-33.1s-9.7-36.3-23.3-33.2c0,0,11.3-2.5,18.2,34
		C292.3,228.5,299.3,224.6,299.3,224.6z"/>
	<path class="st3" d="M287.2,217.3c0,0-6.4-1.5-7.9-12s-6.8-36.4-16.4-45.8c0,0,8.6-7.3,15.6,21.1
		C285.6,209.1,287.2,217.3,287.2,217.3z"/>
	<path class="st3" d="M276.6,211.4c0,0-5.2-1.4-6.7-7.5s-5.7-35.6-15.2-42.6c0,0,8-7.2,15.2,22.1
		C274.3,201.4,276.6,211.4,276.6,211.4z"/>
	<path class="st3" d="M264.5,204.3c0,0-2.7-10.3-4.5-21.3c-1.8-10.9-5.4-21.7-14-20.9c0,0,5.8,1.4,9.4,22.4
		C257.9,198.1,260.1,204.2,264.5,204.3z"/>
	<path class="st3" d="M252.1,195.3c0,0-2.9-13.6-3.7-16.7c-0.8-3.1-2.7-15.7-11.5-16.7c0,0,5.1,5.9,6.6,17.8
		C245,191.5,248.7,195.3,252.1,195.3z"/>
	<path class="st3" d="M240.8,187.8c0,0-7.7-3.8-8.5-12.5c-0.8-8.8-0.4-13.7-2.6-16.8C229.6,158.5,237.6,158.4,240.8,187.8z"/>
	<path class="st3" d="M619.9,184.3c0,0,12.9,6.2,2.7,23c-10.2,16.7-11.8,19.3-11.8,19.3s3.6,2.5,6.4,1.1c0,0,18.7-27.6,31.7-38.4
		C648.8,189.3,644.5,195.8,619.9,184.3z"/>
	<path class="st3" d="M605.7,236.6c0,0-9.8,19.8-16.8,36.2c-6,13.9-26,14.5-26,14.5s5.2,4.3,11.5,5.9l6.3,1.6c0,0,13.4,3,14.4-3.8
		c4.2-29,16.4-53.7,16.4-53.7L605.7,236.6z"/>
	
		<ellipse transform="matrix(7.818644e-02 -0.9969 0.9969 7.818644e-02 325.545 809.3237)" class="st3" cx="600.4" cy="228.6" rx="4.5" ry="4.5"/>
	<path class="st3" d="M645.1,178.5c0,0-25-19-34.1-11c-2.6,2.3-1.9,6.9-1.9,6.9l4.9,5.8l1.2,5.7l4.6-1.6c0,0,9.9,4.3,13.3,5.2
		l1.9-2.3c0,0-17.9-5.1-22.2-13.6l1.2-4.2c0,0,0.7,7.6,23.2,15l-3.5,5.3c0,0,9.2,2.9,13.2,0.7c4.1-2.2-18.1-16-32.3-21.2
		c0,0,4.3-5.2,28.4,11.2L645.1,178.5z"/>
	<path class="st3" d="M589,226.9l-2,2.8c0,0,18.1,7.3,10.8,23.5l9-15.4C606.8,237.8,595.4,233.3,589,226.9z"/>
	<path class="st3" d="M468.6,198.1c0,0,8.8,1.5,37.1-11.1c28.3-12.6,51.2-24.5,60.5-3.6s13.9,32.9,28.4,33.9c0,0-13.7,8.2-25.5-20.4
		c-12.3-29.7-15.5-25.1-61.5-4.7C483.1,203.1,477.5,204.4,468.6,198.1z"/>
	<path class="st3" d="M484.3,205.6c0,0,8.2-2.2,33.9-14.3s37.2-15.7,43.5-2.2c0,0-5.3-11.2-40.8,6.9
		C485.6,214.2,484.3,205.6,484.3,205.6z"/>
	<path class="st3" d="M498.4,211.1c0,0,5.5,4.5,15.3-1.2c9.8-5.7,35.3-18.3,49.6-16.3c0,0,0.5-12.1-28.2,0.7
		C506.4,207,498.4,211.1,498.4,211.1z"/>
	<path class="st3" d="M510.4,216.2c0,0,4.6,3.5,10.8,0.7c6.2-2.7,34-18.6,46.1-15.1c0,0,0.8-11.5-28.8,1.7
		C520.5,211.5,510.4,216.2,510.4,216.2z"/>
	<path class="st3" d="M524.5,221.8c0,0,10.5-4.6,21-10.2c10.4-5.7,22-9.8,26.9-1.9c0,0-5-4-25.2,6.7
		C534,223.3,527.4,225.4,524.5,221.8z"/>
	<path class="st3" d="M540.3,226.3c0,0,13.5-6.5,16.6-7.9c3.1-1.3,15.1-8,21.8-1.3c0,0-8.4-0.4-19.4,6.2
		C548.1,229.9,542.4,229.2,540.3,226.3z"/>
	<path class="st3" d="M554.1,231c0,0,8.3,4.1,16.3-1s11.9-8.7,15.9-8.9C586.2,221.1,581,214.3,554.1,231z"/>
	<path class="st3" d="M246.1,288.2c0,0,2.3,13.1-8.7,19.4c-12.3,7,0.7,19.7-9.2,26.6c-11.1,7.7-11.2,17.4-11.2,17.4l48.4-29.8
		L217,360.7l-48.3-38.9c0,0,9-8.4,16.1-5.6c10.4,4.1,9.3-15.1,19.7-11.6c8,2.7,12.5-1.5,12.5-1.5l-29-14.9l-20,33.6l5.8,10.8
		l42.6,28.1l1.2-57.6L246.1,288.2z"/>
	<path class="st3" d="M217.1,273.3l29,14.9c0,0-18.5-8.1-26.4-6.4s-11.7,5-20,4.8s-11.8,1.7-11.8,1.7L217.1,273.3z"/>
	<path class="st3" d="M632.2,366.2c0,0,2.3,13.1-8.7,19.4c-12.3,7,0.7,19.7-9.2,26.6c-11.1,7.7-11.2,17.4-11.2,17.4l48.4-29.8
		l-48.3,38.9l-48.3-38.9c0,0,9-8.4,16.1-5.6c10.4,4.1,9.3-15.1,19.7-11.6c8,2.7,12.5-1.5,12.5-1.5l-29-14.9l-20,33.6l5.8,10.8
		l42.6,28.1l1.2-57.6L632.2,366.2z"/>
	<path class="st3" d="M603.1,351.3l29,14.9c0,0-18.5-8.1-26.4-6.4s-11.7,5-20,4.8s-11.8,1.7-11.8,1.7L603.1,351.3z"/>
	<path class="st3" d="M435.1,463c0,0,2.3,13.1-8.7,19.4c-12.3,7,0.7,19.7-9.2,26.6c-11.1,7.7-11.2,17.4-11.2,17.4l48.4-29.8
		L406,535.4l-48.3-38.9c0,0,9-8.4,16.1-5.6c10.4,4.1,9.3-15.1,19.7-11.6c8,2.7,12.5-1.5,12.5-1.5l-29-14.9l-20,33.6l5.8,10.8
		l42.6,28.1l1.2-57.6L435.1,463z"/>
	<path class="st3" d="M406,448.1l29,14.9c0,0-18.5-8.1-26.4-6.4s-11.7,5-20,4.8s-11.8,1.7-11.8,1.7L406,448.1z"/>
	<path class="st3" d="M570.2,100.5c0,0-3.9,7.1,15.6,18.8c19.6,11.8,41.3,27.4,43.3,37.3c0,0,7.8-11.3-28.2-33.6
		C579.7,110,572,103.2,570.2,100.5z"/>
	<path class="st3" d="M568.5,82.3c0,0,6.1,13.4,42,35.9s29.2,38.1,20.8,48.3l-4.2-1.6c7-9.4,12.1-17.2-5.5-33
		S565.1,102.1,568.5,82.3z"/>
	<path class="st3" d="M572.9,116.1c28.9,23.4,56.8,31.6,51.4,47.9c0,0-3.6-10.7-33.1-29.1C575.8,125.3,571.2,121.7,572.9,116.1z"/>
	<path class="st3" d="M574.8,129.6c0,0-3.5,7.9,17.4,19.6c13.1,7.3,19.5,14,19.5,14l6-1c0,0-7.1-8.4-20.7-17.3
		C583.2,136.1,574.8,129.6,574.8,129.6z"/>
	<path class="st3" d="M577.3,145.2l30.7,21.3l-1,6C584,156.4,579.9,157.1,577.3,145.2z"/>
	<path class="st3" d="M581.7,161.9c0,0,17.3,11.4,23.8,17l-1.4,6C591.7,176,580.6,170.7,581.7,161.9z"/>
	<path class="st3" d="M584.9,176.8c0,0,2.3,16,16.8,17.1l1.5-5.4L584.9,176.8z"/>
	<g>
		<path d="M549.1,297c-6.6,0.5-21.8-5.9-47.6-20l-2.2-1.2c-10-5.4-20.2-11-29.8-12.8c-11.2-2.1-19.3,1.5-24.5,11.2
			c-14,25.8-17.7,31.7-30.9,32.5c0,0,0,0,0-0.1c-8.7-27.7-22.6-49.6-22.7-49.8c-0.1-0.2-0.2-0.3-0.4-0.4c-6.6-9.8-22.1-5.1-33.4,1.9
			c-7.8,4.9-11.7,10.8-11.9,11.1c-0.3,0.5-0.2,1.1,0.2,1.5l5.7,5.6c-2,3-3.4,6.1-3.3,8.8c0,1.8,0.7,3.3,1.9,4.4
			c0.1,0.1,0.2,0.1,0.3,0.2c1.8,1.9,18.7,19,37.7,33.1c-0.3,0.7-0.3,1.4-0.1,2.2c-9.6,5.3-17.1,2.2-41.7-9
			c-10-4.5-18.6-2.6-26.3,5.8c-6.5,7.2-11.3,17.9-16,28.2l-1.1,2.4c-12.2,27-20.4,41.2-25.9,44.7c-0.4,0.2-0.6,0.6-0.5,1.1
			c0,0.4,0.3,0.8,0.7,1c1.7,0.8,3.7,1.3,5.7,1.3c1.8,0,3.7-0.3,5.5-1c2.8-1,5.4-2.8,7.6-5.2c0.8,0.2,2,0.4,3.6,0.4
			c3.2,0,7.8-1.1,11.6-6.1c1.1,0.4,2.2,0.6,3.3,0.6c3.5,0,7-1.8,9.8-5c1.3,0.5,2.7,0.7,4.1,0.7c1.5,0,3-0.3,4.4-0.8
			c2.7-1,5-2.9,6.9-5.4c0.9,0.3,2.2,0.6,3.8,0.6c1.3,0,2.7-0.2,4.2-0.7c3.2-1.2,5.9-3.7,8-7.5c0.7,0.1,1.7,0.3,2.9,0.3
			c3.3,0,8-1.1,11.5-6.5c0.4,0,0.9,0.1,1.5,0.1c1.1,0,2.6-0.1,4.2-0.5c3.3-0.9,7.9-3.2,10.7-9.5c2.5-5.5,2.3-9.6,2.2-13.1
			c-0.1-3.6-0.2-6.5,2.4-10.1c0.2-0.3,0.5-0.5,0.7-0.8c1.8,1.9,4.1,3.6,5.7,3.7c0.1,0,0.2,0,0.3,0c0.3,0,0.5,0,0.8,0
			c1.1,3,2.3,5.8,3.5,8.6c-0.7,0.8-1.2,1.8-1.2,2.9v4.1c0,2.1,1.5,3.8,3.5,4.1v0.4c-2,0.3-3.5,2.1-3.5,4.1v4.1
			c0,2.1,1.5,3.8,3.5,4.1v0.1c-2,0.3-3.5,2.1-3.5,4.1v4.1c0,2.1,1.5,3.8,3.5,4.1v0.4c-2,0.3-3.5,2.1-3.5,4.1v4.2
			c0,2.1,1.5,3.8,3.5,4.1v0.1c-2,0.3-3.5,2.1-3.5,4.1v4.1c0,2.1,1.5,3.8,3.5,4.1v0.4c-2,0.3-3.5,2.1-3.5,4.1v4.1
			c0,2.1,1.5,3.8,3.5,4.1v0.2c-2,0.3-3.5,2.1-3.5,4.1v4.1c0,2.1,1.5,3.8,3.5,4.1v0.4c-2,0.3-3.5,2.1-3.5,4.1v4.1
			c0,2.1,1.5,3.8,3.5,4.1v0.2c-2,0.3-3.5,2.1-3.5,4.1v1.5l-24.6,12.6c-0.3,0.1-0.5,0.4-0.6,0.7c-0.5,0.9-4.9,8.6-8.8,15.5
			c-2.2,3.9-4.5,7.9-6.4,11.1c-2.3,4-3.9,6.8-3.9,6.8c-0.1,0.1-0.1,0.2-0.1,0.4v0.1c0,0.1,0,0.3,0,0.4c0,0,0,0,0,0.1s0,0.1,0.1,0.2
			l5,10.8c0.1,0.2,0.2,0.4,0.4,0.5l43.3,28.1c0,0,0.1,0,0.1,0.1c0,0,0.1,0,0.1,0.1c0.1,0,0.3,0.1,0.4,0.1s0.3,0,0.4-0.1
			c0,0,0.1,0,0.1-0.1c0,0,0.1,0,0.1-0.1l43.3-28.1c0.2-0.1,0.3-0.3,0.4-0.5l4.9-10.5c0.4-0.4,0.5-1,0.2-1.5
			c-0.1-0.1-0.2-0.2-0.3-0.3l-18.8-32.7c0-0.2-0.1-0.3-0.1-0.5c-0.1-0.3-0.4-0.4-0.6-0.6l-0.1-0.1l-25.1-12.9V447
			c0-2.1-1.5-3.8-3.5-4.1v-0.2c2-0.3,3.5-2.1,3.5-4.1v-4.1c0-2.1-1.5-3.8-3.5-4.1V430c2-0.3,3.5-2.1,3.5-4.1v-4.1
			c0-2.1-1.5-3.8-3.5-4.1v-0.2c2-0.3,3.5-2,3.5-4.1v-4.1c0-2.1-1.5-3.8-3.5-4.1v-0.4c2-0.3,3.5-2,3.5-4.1v-4.1
			c0-2.1-1.5-3.8-3.5-4.1v-0.1c2-0.3,3.5-2.1,3.5-4.2v-4.1c0-2.1-1.5-3.8-3.5-4.1v-0.4c2-0.3,3.5-2,3.5-4.1v-4.1
			c0-2.1-1.5-3.8-3.5-4.1v-0.1c2-0.3,3.5-2.1,3.5-4.1V361c4,7.9,7.7,14.6,10.5,19.5c1.6,2.8,2.8,5,3.7,6.7c1,2,2.9,3.3,5.4,3.9
			c0.9,0.2,2,0.3,3,0.3c6,0,14-3.3,21.8-9c8.1-6.1,12.8-12.5,13.1-18.3c0.1-2.8-0.8-5.3-2.7-7c-1.4-1.3-3.3-3.3-5.8-5.8
			c-5.1-5.3-12.6-13-22.3-21.6c2.9,1.5,5.5,2,7.9,2c5.5,0,9.3-3,10.8-4.3c1.9,0.7,3.6,1,5.2,1c5.3,0,8.7-3.2,10-4.7
			c2.6,1.1,5,1.7,7.2,1.7c1.3,0,2.5-0.2,3.7-0.5c3.5-1.1,5.5-3.5,6.4-4.7c1.6,0.4,3.1,0.7,4.7,0.7c4.5,0,8.4-1.9,10.8-5.5
			c1.2,0.3,2.4,0.4,3.6,0.4c4.1,0,7.7-1.7,9.7-4.8c1.6,0.4,3.2,0.6,4.6,0.6c5.4,0,9.1-2.8,10.9-5.2c3.2,0.5,6.2,0.3,9.1-0.5
			c3.9-1.2,7.1-3.8,8.8-7c0.2-0.4,0.2-0.8-0.1-1.2C549.9,297.1,549.5,297,549.1,297z M417.1,313.4c0.2,0.1,0.3,0.1,0.5,0.1
			c0.6,1,1.2,2.5,1,3.2c-0.6,2-3.3,5.2-6.8,8.1c0-0.3,0-0.5,0-0.8c0-3.4-2.3-6.2-5.5-6.9c2.4-1.9,4.5-3.8,5.8-5.3
			c0.2-0.2,0.5-0.6,0.9-1.1C413.8,311.7,415.1,312.7,417.1,313.4z M404,341.7c0.1,0,0.3,0.1,0.4,0.1v0.2c-0.1,0-0.2,0-0.2,0
			C404.1,342,404.1,341.8,404,341.7z M407.9,350.3c0,0.1,0,0.1,0,0.2c-0.6-1.2-1.1-2.4-1.7-3.7c0.3-0.2,0.6-0.6,0.6-1v-1.3
			c0.6,0.3,1.1,0.9,1.1,1.7V350.3z M405.6,336.9c-0.7,0-1.2,0.5-1.2,1.2v1.3c-0.6-0.3-1.1-0.9-1.1-1.7v-4.1c0-0.1,0-0.2,0-0.3
			c0.4-0.2,0.7-0.3,1.1-0.5v0.6c0,0.7,0.5,1.2,1.2,1.2s1.2-0.5,1.2-1.2v-1.5c0.6,0.3,1.1,0.9,1.1,1.7v4.1c0,0.7-0.5,1.4-1.1,1.7
			v-1.3C406.8,337.4,406.3,336.9,405.6,336.9z M391.2,322.2c-15.6-11.3-29.9-24.9-36.1-31c5.8,0,14.2-3.7,21.1-8.2
			c6.4-4.2,10.2-8.3,12.5-11.9l0,0c0.3-0.2,0.5-0.6,0.6-0.9c1.5-2.5,2.2-4.7,2.5-6.2c0.1-0.4,0.1-0.8,0.2-1.1
			c4.5,7.8,13.4,24.6,19.6,44.4c0,0.1,0,0.2,0.1,0.2c0,0.1,0.1,0.3,0.1,0.4c-0.1,0.8-1.9,3.6-7.5,7.8c-1.1,0.9-2.3,1.6-3.3,2.3
			c-0.1,0.1-0.2,0.1-0.4,0.2C396.1,321.2,392.3,322.7,391.2,322.2z M386.7,269.9c-2.1,3.3-5.7,7.1-11.8,11c-2.5,1.6-4.8,2.9-7,4
			l-3.3-4c1.9-0.7,5.2-2.1,9-4.9c4.6-3.5,8.2-8.3,9.4-12.2L386.7,269.9z M402.2,320.2L402.2,320.2c0.8-0.5,1.7-0.8,2.6-0.8
			c2.6,0,4.7,2.1,4.7,4.7c0,1.9-1.1,3.5-2.7,4.2v-2.7c0-0.7-0.5-1.2-1.2-1.2s-1.2,0.5-1.2,1.2v3.2c-2.4-0.2-4.3-2.2-4.3-4.7
			C400.1,322.5,400.9,321,402.2,320.2z M348.3,269.9c1.3-1.7,4.8-6,10.6-9.5c13.8-8.6,25.7-9.5,30.3-2.4c0.6,0.9,1,2.8,0.4,5.4
			c-0.2,1.1-0.7,2.5-1.5,4.1l-4.9-8.2c-0.1-0.2-0.3-0.3-0.4-0.4c-0.5-0.6-1.4-1.4-2.9-1.5c-5.5-0.7-15.4,5.5-20.4,10
			c-1.9,1.7-4.4,4.3-6.5,7.2L348.3,269.9z M353.8,277.5c0.1-0.1,0.2-0.1,0.3-0.2c0.2-0.2,0.3-0.4,0.3-0.7c1.9-2.7,4.3-5.3,6.7-7.5
			c5.4-4.9,14.3-9.9,18.5-9.4c0.7,0.1,1.2,0.3,1.4,0.7c0.9,1.4-1.9,8.4-8.7,13.6c-5.7,4.2-9.9,5-9.9,5c-0.4,0.1-0.8,0.4-0.9,0.8
			s-0.1,0.8,0.2,1.2l4.1,5c-6.9,3-11.8,3.3-13.7,2.1C352,288,352,288,352,288c-0.1-0.1-0.2-0.2-0.3-0.2c-0.7-0.6-1-1.5-1-2.5
			C350.6,283.2,351.8,280.4,353.8,277.5z M287.6,397.4c-2.5,0.9-5.2,1.1-7.5,0.5c5.8-5.3,13.4-18.9,25-44.3l1.1-2.4
			c4.6-10.2,9.4-20.7,15.6-27.6c7-7.7,14.5-9.4,23.5-5.3c26.9,12.2,34.4,15.2,46.2,7.5c0,0.7-0.3,1.8-1.3,3.3
			c-0.4,0.4-0.7,0.8-1,1.2c-4.1,4.5-12.9,6.6-40.4-5.1l0,0c0,0-0.1,0-0.1-0.1c-1.8-0.8-3.6-1.6-5.6-2.4c-2.9-1.3-5.8-1.5-8.5-0.4
			c-9.6,3.7-17.5,21.8-28.5,46.9c-2.4,5.4-4.8,11-7.5,16.9C296.1,391.7,292.2,395.7,287.6,397.4z M297.8,392.4
			c1.2-1.6,2.2-3.3,3-5.2c2.7-5.9,5.1-11.5,7.5-17c10.7-24.5,18.5-42.3,27.1-45.6c2.2-0.8,4.4-0.7,6.7,0.3c0.3,0.2,0.7,0.3,1,0.5
			c-9.7,4.4-19.8,29.7-26.6,46.5c-1.8,4.4-3.3,8.1-4.5,10.7C307.6,392.7,300.8,392.9,297.8,392.4z M312.7,386.7
			c0.6-0.9,1.1-1.9,1.6-3.1c1.2-2.7,2.7-6.4,4.5-10.8c6.3-15.6,16.8-41.8,25.6-45.3c1.2-0.5,2.3-0.5,3.3-0.1
			c1.5,0.6,2.9,1.2,4.3,1.8c-8.9,4.9-18.6,29.4-23.9,42.7c-1.1,2.7-1.9,4.9-2.5,6.1C322.6,384.5,317.5,387.9,312.7,386.7z
			 M332,382.1c-2,0.8-4.1,0.8-6.1,0.3c0.7-1,1.3-2.2,1.9-3.4c0.6-1.2,1.4-3.4,2.5-6.2c4.6-11.5,15.3-38.5,23.4-41.8
			c0.9-0.4,1.8-0.4,2.6,0c0.1,0.1,0.3,0.1,0.4,0.1c1.7,0.6,3.3,1.2,4.8,1.7c-6.7,4.2-13,19.2-19,34.5c-1.1,2.9-2.1,5.3-2.7,6.8
			c-0.4,0.9-0.9,1.7-1.3,2.5c-0.1,0.1-0.3,0.2-0.3,0.4v0.1C336.4,379.4,334.3,381.2,332,382.1z M346.9,376.5
			c-2.3,0.9-4.4,0.6-5.8,0.3c0.3-0.6,0.6-1.2,0.9-1.8c0.7-1.6,1.6-3.9,2.8-6.9C349.1,357,358,334,365.2,334c0,0,0,0,0.1,0
			c0,0,0,0,0.1,0c2.7,0.8,5.1,1.4,7.4,1.8c-6.5,3.9-10.6,14.2-14.7,24.2c-1.1,2.8-2.3,5.6-3.4,8.2
			C352.6,372.5,350,375.3,346.9,376.5z M356.8,369c1.2-2.6,2.3-5.5,3.5-8.3c4.8-11.7,9.7-23.9,17.8-24.3c0.2,0,0.3-0.1,0.5-0.1
			c0.7,0,1.4,0,2.1,0c-3.3,3.7-5.5,9.9-8.3,17.2c-0.8,2.2-1.6,4.4-2.6,6.8c-0.4,1-0.8,1.9-1.3,2.7c-0.1,0.1-0.2,0.2-0.2,0.4
			C364.6,369.4,359.3,369.4,356.8,369z M386.2,342c0.1,3.5,0.3,7.1-2,12c-3.5,7.8-9.9,8.7-13,8.7c0.2-0.5,0.5-1,0.7-1.5
			c0.9-2.4,1.8-4.6,2.6-6.8c3.5-9.4,6.2-16.7,10.8-18.8c0.1,0,0.1-0.1,0.2-0.1c0.4-0.1,0.8-0.3,1.2-0.5
			C386.1,337.4,386.2,339.7,386.2,342z M397.6,332.3c-0.6,0-2.5-1.2-4.5-3.4c1-2,0.9-3.6,0.5-4.6c1.3-0.3,2.7-0.9,4.2-1.7
			c-0.1,0.4-0.1,0.9-0.1,1.4c0,3,1.8,5.5,4.4,6.6c-0.2,0.2-0.4,0.5-0.6,0.8c-1.3,0.5-2.6,0.8-3.7,0.8
			C397.7,332.3,397.7,332.3,397.6,332.3z M403.3,350.3v-4.1l0,0c0.5,1.1,1,2.2,1.4,3.2c-0.2,0.2-0.3,0.5-0.3,0.8v1.8
			C403.7,351.7,403.3,351,403.3,350.3z M405.6,450.5c-0.7,0-1.2,0.5-1.2,1.2v1.8c-0.6-0.3-1.1-0.9-1.1-1.7v-1.1l2.6-1.3l2,1v1.4
			c0,0.7-0.5,1.4-1.1,1.7v-1.8C406.8,451,406.3,450.5,405.6,450.5z M403.3,447.7c0-0.7,0.5-1.4,1.1-1.7v1.3v0.1l-1.1,0.6V447.7z
			 M362.5,490.3L362.5,490.3c1.8-3.2,4.1-7.2,6.4-11.1c2.3-4,4.5-7.9,6.2-10.8c1-1.8,1.7-3,2.2-3.8l27.4,14.1v45.6l-45.5-28.1
			C359.9,494.9,361.1,492.8,362.5,490.3z M434.5,464.6l18.1,31.5l-45.5,28.2v-45.7L434.5,464.6z M360.4,499.6l44.3,27.4v6.2
			l-41.2-26.7L360.4,499.6z M448.2,506.5L407,533.2v-6.1l44.3-27.4L448.2,506.5z M432.5,463l-26.6,13.6L379.4,463l21.5-11
			c0.1,2,1.5,3.7,3.5,4v0.3c-3.1,0.6-5.4,3.3-5.4,6.5c0,0.7,0.5,1.2,1.2,1.2s1.2-0.5,1.2-1.2c0-1.9,1.3-3.5,3-4v0.8
			c0,0.7,0.5,1.2,1.2,1.2s1.2-0.5,1.2-1.2v-0.8c1.7,0.5,3,2.1,3,4c0,0.7,0.5,1.2,1.2,1.2s1.2-0.5,1.2-1.2c0-3.2-2.3-5.9-5.4-6.5V456
			c2-0.3,3.5-2.1,3.5-4.1v-0.2L432.5,463z M407.9,447.7l-1.1-0.6V446C407.4,446.3,407.9,446.9,407.9,447.7z M407.9,435.1v4.1
			c0,0.7-0.5,1.4-1.1,1.7v-1.3c0-0.7-0.5-1.2-1.2-1.2s-1.2,0.5-1.2,1.2v1.3c-0.6-0.3-1.1-0.9-1.1-1.7v-4.1c0-0.7,0.5-1.4,1.1-1.7
			v0.7c0,0.7,0.5,1.2,1.2,1.2s1.2-0.5,1.2-1.2v-0.7C407.4,433.7,407.9,434.3,407.9,435.1z M407.9,422.3v4.1c0,0.7-0.5,1.4-1.1,1.7
			v-1.8c0-0.7-0.5-1.2-1.2-1.2s-1.2,0.5-1.2,1.2v1.8c-0.6-0.3-1.1-0.9-1.1-1.7v-4.1c0-0.7,0.5-1.4,1.1-1.7v1.4
			c0,0.7,0.5,1.2,1.2,1.2s1.2-0.5,1.2-1.2v-1.4C407.4,420.9,407.9,421.5,407.9,422.3z M407.9,409.7v4.1c0,0.8-0.4,1.4-1.1,1.7v-1.3
			c0-0.7-0.5-1.2-1.2-1.2s-1.2,0.5-1.2,1.2v1.3c-0.6-0.3-1.1-0.9-1.1-1.7v-4.1c0-0.7,0.5-1.4,1.1-1.7v0.7c0,0.7,0.5,1.2,1.2,1.2
			s1.2-0.5,1.2-1.2V408C407.4,408.3,407.9,408.9,407.9,409.7z M407.9,396.9v4.1c0,0.8-0.4,1.4-1.1,1.7v-1.8c0-0.7-0.5-1.2-1.2-1.2
			s-1.2,0.5-1.2,1.2v1.8c-0.6-0.3-1.1-0.9-1.1-1.7v-4.1c0-0.7,0.5-1.4,1.1-1.7v1.4c0,0.7,0.5,1.2,1.2,1.2s1.2-0.5,1.2-1.2v-1.4
			C407.4,395.5,407.9,396.1,407.9,396.9z M407.9,384.3v4.1c0,0.8-0.4,1.5-1.1,1.8v-1.4c0-0.7-0.5-1.2-1.2-1.2s-1.2,0.5-1.2,1.2v1.4
			c-0.6-0.3-1.1-0.9-1.1-1.7v-4.2c0-0.7,0.5-1.4,1.1-1.7v0.7c0,0.7,0.5,1.2,1.2,1.2s1.2-0.5,1.2-1.2v-0.7
			C407.4,382.9,407.9,383.5,407.9,384.3z M407.9,371.5v4.1c0,0.8-0.4,1.4-1.1,1.7v-1.7c0-0.7-0.5-1.2-1.2-1.2s-1.2,0.5-1.2,1.2v1.7
			c-0.6-0.3-1.1-0.9-1.1-1.7v-4.1c0-0.7,0.5-1.4,1.1-1.7v1.4c0,0.7,0.5,1.2,1.2,1.2s1.2-0.5,1.2-1.2v-1.4
			C407.4,370.1,407.9,370.7,407.9,371.5z M407.9,363.1c0,0.7-0.5,1.4-1.1,1.7v-1.4c0-0.7-0.5-1.2-1.2-1.2s-1.2,0.5-1.2,1.2v1.4
			c-0.6-0.3-1.1-0.9-1.1-1.7V359c0-0.7,0.5-1.4,1.1-1.7v0.7c0,0.7,0.5,1.2,1.2,1.2s1.2-0.5,1.2-1.2v-0.7c0.6,0.3,1.1,0.9,1.1,1.7
			V363.1z M406.8,354.8v-0.4c0.1,0,0.2,0,0.3-0.1c0.1,0.2,0.2,0.4,0.3,0.6C407.2,354.9,407,354.9,406.8,354.8z M457.6,352.9
			c2.5,2.6,4.5,4.6,5.9,6c1.3,1.2,2,3,1.9,5.1c-0.2,4.9-4.7,10.9-12.1,16.5c-8.5,6.3-17.4,9.5-22.8,8.3c-1.8-0.4-3.1-1.3-3.8-2.7
			c-0.9-1.7-2.1-3.9-3.7-6.8c-3.5-6.3-8.6-15.3-13.8-26.1c0.7-0.8,1.1-1.8,1.1-2.9v-4.1c0-2.1-1.5-3.8-3.5-4.1v-0.2
			c2-0.3,3.5-2.1,3.5-4.1v-4.1c0-1.3-0.6-2.5-1.6-3.3c5-3.4,9.7-8,11.6-11.3C437.5,332.2,450,345.1,457.6,352.9z M421.1,316.5
			c0-0.7-0.2-1.5-0.4-2.1c3,1.4,4.4,3.4,6.2,5.9c0.4,0.6,0.9,1.2,1.3,1.9C425.9,320.3,423.5,318.4,421.1,316.5z M437.7,327.3
			c-4.8-2.6-6.9-5.6-8.9-8.4c-1.3-1.9-2.6-3.8-4.7-5.3c0.6-0.1,1.2-0.3,1.8-0.6c4.9-0.9,11.3,3.2,19.3,8.3c2.1,1.3,4.2,2.7,6.5,4.1
			c0.5,0.3,1,0.6,1.5,0.8C450.8,328.2,445.2,331.3,437.7,327.3z M456,324.9c-0.1-0.1-0.2-0.1-0.3-0.1c-0.8-0.4-1.7-0.8-2.7-1.4
			c-2.3-1.4-4.4-2.7-6.5-4.1c-6.4-4.1-11.8-7.5-16.5-8.5c0.7-0.5,1.5-1.1,2.2-1.7c6.7-4,17.7,2.5,28.2,8.7c2.7,1.6,5.4,3.2,8.1,4.6
			c0,0,0.1,0,0.1,0.1C466.9,324.4,462.7,327.6,456,324.9z M481.1,322.5c-3.2,1-7.1,0.3-11.4-2.1c-2.6-1.4-5.3-3-8-4.6
			c-9-5.4-18.3-10.9-25.7-10.3c1.6-1.7,3.3-3.8,5-6.1c6-3.9,26.7,8.8,36.7,15c2.7,1.7,4.9,3,6.4,3.8c0.6,0.3,1.2,0.6,1.9,0.9
			C485,320.3,483.5,321.8,481.1,322.5z M485.2,316.2c-1.4-0.8-3.7-2.2-6.3-3.8c-13.9-8.6-27.8-16.6-35.8-16.1
			c0.9-1.3,1.8-2.7,2.7-4.1c0.1-0.1,0.1-0.1,0.2-0.2c0.4-0.8,1.1-1.3,2.1-1.5c8.4-2.3,32.2,12.1,43.6,19c2.7,1.6,4.8,2.9,6,3.6
			c1.2,0.6,2.3,1.1,3.5,1.5C497.6,319.3,490.4,319.1,485.2,316.2z M498.9,310.9c-1.2-0.6-3.3-1.9-5.9-3.5
			c-12.2-7.4-34.5-20.9-44.5-19.4c0.8-1.4,1.7-2.8,2.5-4.4c0.6-0.8,1.4-1.3,2.5-1.6c9.2-2.5,33.3,12,47.7,20.6
			c4.1,2.4,7.6,4.6,10.2,6c1.1,0.6,2.2,1.1,3.3,1.5C511.5,313.9,505.3,314.4,498.9,310.9z M512.5,306.4c-2.5-1.4-6-3.5-10.1-5.9
			c-16.4-9.8-38.8-23.3-49.2-20.9c0.2-0.3,0.3-0.5,0.5-0.8c1.2-2.3,2.9-3.7,5.1-4.3c8.8-2.6,25.5,6.8,48.7,19.7
			c5.3,3,10.8,6,16.7,9.2c1.9,1,3.8,1.8,5.6,2.3C527.6,307.9,522.1,311.7,512.5,306.4z M540.8,303.4c-2.7,0.8-5.6,0.9-8.6,0.3
			c-0.1,0-0.1,0-0.2,0c-2.2-0.5-4.5-1.3-6.7-2.5c-5.9-3.2-11.4-6.2-16.7-9.2c-23.7-13.2-40.8-22.7-50.5-19.9c-2.8,0.8-5,2.7-6.5,5.5
			c-0.9,1.7-1.9,3.4-2.8,4.9c-0.1,0.1-0.2,0.2-0.2,0.4c0,0.1,0,0.1,0,0.2c-3.5,6.1-6.6,11-9.5,14.8c-0.1,0.1-0.1,0.2-0.2,0.3
			c-3,4.1-5.7,7-8,9.1c-0.1,0.1-0.2,0.1-0.3,0.2c-0.1,0.1-0.3,0.2-0.3,0.4c-1.7,1.4-3.3,2.4-4.7,3c-0.1,0-0.3,0-0.4,0.1
			c-0.2,0-0.4,0.2-0.5,0.3c-1.6,0.5-3.1,0.7-4.4,0.5c-0.7-0.2-1.4-0.4-2.2-0.6c-0.1,0-0.2,0-0.3,0c-1.5-0.6-2.3-1.3-2.7-1.9
			c13.9-1,18.2-7.9,32.2-33.7c4.8-8.8,11.8-11.9,22-10c9.2,1.7,19.3,7.2,29.1,12.6l2.2,1.2c24.1,13.1,38.8,19.5,46.7,20.2
			C545.5,301.2,543.4,302.6,540.8,303.4z"/>
		<path d="M266.4,321.1c-0.1-0.1-0.2-0.2-0.3-0.3L247.3,288c0-0.1,0-0.2-0.1-0.3c-0.2-0.3-0.5-0.5-0.8-0.6l-24.8-12.7v-1.2
			c0-2.1-1.5-3.8-3.5-4.1V269c0.9-0.2,1.8-0.6,2.4-1.3c0.8-0.8,1.1-1.9,1.1-2.9v-4.1c0-2.1-1.5-3.8-3.5-4.1V256
			c0.9-0.2,1.8-0.6,2.4-1.3c0.8-0.8,1.1-1.9,1.1-2.9v-4.1c0-2.1-1.5-3.8-3.5-4.1v-0.2c0.9-0.2,1.8-0.6,2.4-1.3
			c0.8-0.8,1.1-1.9,1.1-2.9v-4.1c0-2.1-1.5-3.8-3.5-4.1v-0.4c0.9-0.2,1.8-0.6,2.4-1.3c0.8-0.8,1.2-1.9,1.1-3v-4.1
			c0-2.1-1.5-3.8-3.5-4.1V218c0.9-0.1,1.8-0.6,2.4-1.3c0.8-0.8,1.1-1.8,1.1-2.9v-4.1c0-2.1-1.5-3.8-3.5-4.1v-0.4
			c0.9-0.2,1.8-0.6,2.4-1.3c0.8-0.8,1.1-1.9,1.1-2.9v-4c0-2.1-1.5-3.8-3.5-4.1v-0.1c0.9-0.2,1.8-0.6,2.4-1.3
			c0.8-0.8,1.1-1.9,1.1-2.9v-4.1c0-2.1-1.5-3.8-3.5-4.1v-0.5c0.9-0.1,1.8-0.6,2.4-1.3c0.8-0.8,1.1-1.8,1.1-2.9v-4.1
			c0-2.1-1.5-3.8-3.5-4.1v-0.1c0.9-0.2,1.8-0.6,2.4-1.3c0.8-0.8,1.1-1.9,1.1-2.9v-2.4c0.4-0.7,0.9-1.4,1.4-2.1c0.1,0,0.1,0,0.2,0
			c0.2,0,0.4,0,0.6,0c0.9-0.1,2.1-0.2,3.5-1.4l0.1,0.1c1.5,3.3,1,5.7,0.3,8.6c-0.7,3.1-1.5,6.5-0.2,11.6c2.3,9.4,9.9,11,12.5,11.3
			c2.9,6.8,8.7,7.6,11.2,7.6c0.1,0,0.1,0,0.2,0c1.2,3.6,3.1,6.2,5.7,7.7c2,1.2,4,1.5,5.5,1.5c0.5,0,0.9,0,1.3-0.1
			c2.1,4.1,5.9,7.2,10.5,7.2c0.5,0,1.1-0.1,1.7-0.2c2.3,3.8,5.6,6,9.3,6c0.4,0,0.9,0,1.3-0.1c3,5.7,7.7,7.3,11.1,7.3
			c0.4,0,0.7,0,1.1-0.1c1.5,2.3,3.5,4.2,5.7,5.6c2.2,1.2,4.5,1.9,6.7,1.9c1,0,2-0.1,2.9-0.4c0.4-0.1,0.7-0.4,0.8-0.9
			c0.1-0.4,0-0.9-0.3-1.2c-4.1-4-8.9-17.4-15.1-42.3l-0.5-2c-3.3-13.5-7-28.7-16.5-34.5c-4.1-2.5-9-3-14.5-1.6
			c-22.4,5.5-29.5,6.9-36.6,1.4c0.7-1.6,0.6-3.2,0.1-4.2c11.9-13.9,26.8-25.4,30.9-28.4c0.6-0.2,1.1-0.6,1.5-1s0.9-1.2,0.7-2.5
			c-0.2-1.9-1.8-4.5-4-7l3-2.4c0.3-0.2,0.4-0.5,0.4-0.8s-0.1-0.6-0.3-0.9c-0.2-0.2-4-4.7-10.5-9.2c-8.6-5.9-17.2-8.9-22.3-7.6
			c-1.7,0.4-3.1,1.3-3.9,2.6c-0.2,0.1-0.3,0.3-0.4,0.6c0,0,0,0.2-0.1,0.4c-0.2,0.4-0.3,0.9-0.4,1.3c-1.9,6-8.6,26.5-17.3,42.1
			c-11.5-1.3-14.4-6.6-25.2-29.9c-2.4-5.2-5.9-8.7-10.4-10.3c-10.5-3.8-24.8,2.9-37.4,8.8l-1.7,0.8C110.8,115,97.4,119.7,91.9,119
			c-0.4-0.1-0.9,0.1-1.1,0.5c-0.3,0.3-0.3,0.8-0.1,1.2c1.3,2.9,4,5.4,7.4,6.6c2.4,0.9,5,1.2,7.7,0.9c1.6,2.4,5,5.2,10.2,5.2
			c0.9,0,2-0.1,3-0.3c1.1,1.8,2.8,3.2,4.9,4c1.3,0.5,2.7,0.7,4.2,0.7c0.7,0,1.5-0.1,2.2-0.2c1.9,3.1,5.5,5.4,10.1,5.4
			c1,0,2-0.1,3.1-0.3c0.8,1.2,2.4,3.3,5.4,4.4c1.3,0.5,2.6,0.7,4,0.7c1.7,0,3.6-0.4,5.6-1.1c1.2,1.5,4.3,4.6,9.2,4.6
			c1.1,0,2.4-0.2,3.7-0.5c1.3,1.3,4.8,4.3,10,4.3c2,0,4.2-0.4,6.7-1.6c4.8-2.2,7-5,8.9-7.4c1.7-2.1,3.1-3.9,6-4.9
			c-0.3,0.7-0.5,1.6-0.4,2.3c-18.1,19.8-36.3,35.6-37.1,36.3c-1.1,0.9-1.6,2.1-1.6,3.5c0,3.9,1.5,11.6,11.3,18.5
			c1.7,1.2,3.6,2.3,5.6,3.4c0.4,0.2,0.8,0.2,1.2,0l3.1-1.9l0.7,3.4c0.1,0.4,0.4,0.8,0.8,0.9c3.4,1,6.4,1.3,8.6,1.3
			c0.7,0,1.4,0,2-0.1c2.2-0.1,4.1-1.7,4.8-3.8c1.7-5.4,5.3-16.2,10.7-27.7c0.6,1.3,1.7,2.2,3.1,2.4v0.5c-2,0.3-3.5,2.1-3.5,4.1v4.1
			c0,2.1,1.5,3.8,3.5,4.1v0.1c-2,0.3-3.5,2.1-3.5,4.1v4.1c0,2.1,1.5,3.8,3.5,4.1v0.4c-2,0.3-3.5,2.1-3.5,4.1v4.1
			c0,2.1,1.5,3.8,3.5,4.1v0.1c-2,0.3-3.5,2.1-3.5,4.1v4.2c0,2.1,1.5,3.8,3.5,4.1v0.4c-2,0.3-3.5,2.1-3.5,4.1v4.1
			c0,2.1,1.5,3.8,3.5,4.1v0.2c-2,0.3-3.5,2.1-3.5,4.1v4.1c0,2.1,1.5,3.8,3.5,4.1v0.4c-2,0.3-3.5,2.1-3.5,4.1v4.1
			c0,2.1,1.5,3.8,3.5,4.1v0.1c-2,0.3-3.5,2.1-3.5,4.1v1.3l-24.8,12.7c-0.1,0-0.1,0.1-0.2,0.1c0,0-0.1,0-0.1,0.1
			c-0.1,0.1-0.2,0.2-0.3,0.3c0,0-9.7,17-15.3,26.8c-2.3,4-3.9,6.8-3.9,6.8c-0.1,0.1-0.1,0.2-0.1,0.4v0.1c0,0.1,0,0.3,0,0.4
			c0,0,0,0,0,0.1s0,0.1,0.1,0.2l5,10.8c0.1,0.2,0.2,0.4,0.4,0.5l43,27.9c0.2,0.2,0.5,0.4,0.9,0.4l0,0c0,0,0,0,0.1,0
			c0.2,0,0.5-0.1,0.7-0.2l43.3-28.1c0.2-0.1,0.3-0.3,0.4-0.5l4.9-10.5C266.6,322.2,266.7,321.6,266.4,321.1z M218.1,303.8l27.5-14
			l18.2,31.6l-45.6,28.2v-45.8H218.1z M219.2,277.2c0,0.6-0.2,0.9-0.4,1.2c-0.2,0.2-0.4,0.3-0.7,0.4v-1.7c0-0.7-0.5-1.2-1.2-1.2
			s-1.2,0.5-1.2,1.2v1.7c-0.6-0.3-1.1-0.9-1.1-1.7v-1.3l2.4-1.2l2.2,1.1V277.2z M219.2,273.1l-1.1-0.6v-1.1
			C218.7,271.7,219.2,272.3,219.2,273.1z M204.9,143.4c-0.1-0.4,0.3-1.7,0.9-2.8v-0.1c2.1-0.6,3.2-1.5,3.9-2.4
			c0.4,0.6,0.8,1.1,1.1,1.3c1,1.1,2.7,2.6,4.6,4.1c-2.8,0.7-4.8,3.3-4.7,6.3c0,0.1,0,0.1,0,0.2C207.8,147.7,205.5,145.1,204.9,143.4
			z M216.9,149.9c-0.7,0-1.2,0.5-1.2,1.2v2.3c-0.5-0.2-1-0.5-1.4-0.8c-0.8-0.7-1.2-1.7-1.2-2.7c-0.1-2.1,1.6-4,3.8-4
			c2.2-0.1,4,1.6,4,3.8c0,1-0.3,2-1.1,2.8c-0.5,0.5-1.1,0.9-1.7,1.1v-2.3C218.1,150.4,217.6,149.9,216.9,149.9z M214.6,159.1
			c0-0.7,0.5-1.4,1.1-1.7v1.5c0,0.7,0.5,1.2,1.2,1.2s1.2-0.5,1.2-1.2v-1.4c0.1,0.1,0.3,0.1,0.4,0.2c0.4,0.3,0.7,0.8,0.7,1.4v1
			c-0.5,0.8-1,1.7-1.5,2.5c-0.2-0.2-0.5-0.3-0.8-0.3c-0.7,0-1.2,0.5-1.2,1.2v1.4c-0.6-0.3-1.1-0.9-1.1-1.7L214.6,159.1L214.6,159.1z
			 M223.5,156.3c-1.1,0.1-2.4-0.2-3.8-0.7c0,0-0.1-0.1-0.2-0.1c0.8-0.3,1.5-0.8,2.1-1.5c1.2-1.2,1.8-2.8,1.7-4.5
			c0-0.3,0-0.5-0.1-0.8c1,0.5,2,1,2.9,1.4c-0.5,0.9-1,2.5-0.1,5C225,156.1,224.4,156.2,223.5,156.3z M229.8,177.1
			c-1.1-4.6-0.5-7.6,0.2-10.5c0.4-1.9,0.8-3.8,0.7-5.9c0.1,0.1,0.3,0.2,0.4,0.3c0.1,0.1,0.2,0.3,0.3,0.3c3.6,2.4,4.7,9.1,6.2,17.6
			c0.4,2,0.7,4.2,1.2,6.4c0.1,0.4,0.2,0.8,0.3,1.2C236.5,185.9,231.5,184.1,229.8,177.1z M241.9,187.5c0-0.1-0.1-0.2-0.1-0.3
			c-0.3-0.7-0.5-1.6-0.7-2.5c-0.4-2.2-0.8-4.3-1.2-6.3c-1.1-6.5-2.1-12.1-4.3-15.8c0.6,0.1,1.2,0.2,1.8,0.3h0.1
			c6.7,1.7,8.9,12.6,11.2,23.2c0.5,2.6,1.1,5.3,1.7,7.9C248.4,194.1,244.1,193.2,241.9,187.5z M258.2,202.1
			c-2.5-1.5-4.3-4.3-5.3-8.5c-0.6-2.5-1.2-5.2-1.7-7.9c-1.8-8.9-3.7-18-8.4-22.5c1.9,0,3.9-0.1,6.2-0.4c6,1.1,10,22.1,12,32.2
			c0.5,2.8,1,5.1,1.3,6.6c0.1,0.5,0.3,1,0.5,1.5C261.6,203.3,259.9,203.2,258.2,202.1z M265.7,204.1V204c0-0.2-0.1-0.3-0.2-0.4
			c-0.3-0.7-0.6-1.5-0.8-2.3c-0.4-1.4-0.8-3.7-1.3-6.4c-2.6-13.8-5.6-27.3-10.6-32.3c1.3-0.2,2.6-0.4,4-0.6c0.1,0,0.3,0,0.4,0
			c0.7-0.2,1.4,0,2.1,0.4c6.4,4.1,11.3,28.8,13.4,39.3c0.5,2.6,0.9,4.6,1.2,5.7c0.3,1.1,0.6,2.1,1,3.1
			C271.4,210.6,267.7,208.6,265.7,204.1z M276.2,206.8c-0.3-1.1-0.7-3.1-1.2-5.6c-2.4-12.1-6.8-34.3-13.5-40.2c1-0.2,2-0.4,3-0.6
			c0.2,0.1,0.4,0.1,0.6,0c1-0.2,1.9-0.1,2.8,0.5c7,4.4,11.8,28.4,14.7,42.8c0.8,4,1.5,7.4,2.1,9.9c0.2,1,0.5,1.9,0.8,2.7
			C281.4,216.5,277.6,212.8,276.2,206.8z M287.1,213c-0.6-2.4-1.3-5.8-2.1-9.8c-3.3-16.4-7.8-38.7-15.4-44.1
			c0.2-0.1,0.5-0.1,0.7-0.2c2.1-0.5,4-0.3,5.6,0.8c6.7,4.1,10.5,20.2,15.8,42.5c1.2,5.3,2.5,10.7,4,16.5c0.4,1.7,1,3.3,1.8,4.8
			C294.7,223.4,289.3,222.1,287.1,213z M268.6,152.8c5-1.2,9.1-0.8,12.7,1.4c8.7,5.2,12.3,20,15.5,33l0.5,2
			c5.6,23,10.1,36.1,14.3,41.8c-1.9,0.1-3.9-0.5-5.8-1.6c-3.7-2.1-6.4-6.1-7.7-11.3c-1.4-5.8-2.7-11.2-3.9-16.4
			c-5.4-22.8-9.3-39.3-16.9-44c-1.5-0.9-3.1-1.4-4.8-1.4c-0.8,0-1.7,0.1-2.6,0.3c-28.9,7.1-37.2,4.2-40.3-0.4
			c-0.2-0.5-0.5-1-0.8-1.5l-0.1-0.1c-0.5-1.1-0.6-2-0.6-2.6C236.7,160.2,243.7,158.9,268.6,152.8z M227.9,148.1
			c-1.5-0.5-3.8-1.5-7-3.6c-6-3.8-9.8-7.8-9.8-8.9c0,0,0-0.1,0.1-0.2c7-12.6,12.6-28.2,15.5-37c0.5,1.3,1.1,2.6,2,3.9
			c0.1,0.3,0.3,0.6,0.6,0.8c0.5,0.8,1.1,1.5,1.8,2.3l0.1,0.1l4.9,4.5c0,0,0.1,0,0.1,0.1c1.4,1.1,3,2.1,4.5,3
			c2.4,1.4,4.6,2.5,6.8,3.4l0,0c0.2,0.3,0.6,0.4,0.9,0.4c3.6,1.5,6.8,2.4,9.4,2.6C251.2,124.8,238.2,135.6,227.9,148.1z M233,98.3
			c2.5,3.9,8.8,8.2,9.7,8.8c3.5,2.4,6.4,3.9,8.1,4.8l-2.6,2.4c-1.9-0.9-4.1-1.9-6.4-3.3c-1.5-0.8-2.9-1.8-4.2-2.8l-4.8-4.4
			c-0.6-0.6-1.1-1.3-1.5-1.9L233,98.3z M262.2,116c0,0.1,0,0.3,0,0.4h-0.1c0,0-0.4,0.3-0.9,0.7c-1.8,0.5-5.4,0.2-10.5-1.8l3.1-2.9
			c0.3-0.3,0.4-0.7,0.4-1.1s-0.4-0.7-0.7-0.9c0,0-4.1-1.6-9.4-5.3c-7.2-4.8-10.1-9-9.6-9.7c0.9-0.9,8.7,2.2,17.5,8.5
			c2,1.4,4,3.2,5.7,5c0,0.2,0.1,0.3,0.2,0.5s0.3,0.3,0.5,0.4C260.5,112.2,262.1,114.6,262.2,116z M231.5,90.1
			c4.4-1.1,12.4,1.8,20.4,7.3c4.6,3.2,7.8,6.4,9.2,7.9L259,107c-1.8-1.9-3.8-3.6-5.7-4.9c-0.1-0.1-14.1-10-19.2-8.9
			c-0.6,0.1-1,0.4-1.3,0.7c-0.3,0.1-0.5,0.3-0.7,0.6l-2.3,5.2c-1.2-2.3-1.7-4.5-1.4-6.3c0.1-0.4,0.2-0.8,0.3-1
			c0.1-0.1,0.1-0.3,0.2-0.4C229.4,91,230.3,90.4,231.5,90.1z M98.9,125.1c-2.1-0.8-3.9-2.1-5-3.6c6.9-0.4,19.9-5.1,41.4-15.1
			l1.7-0.8c12.2-5.7,26-12.2,35.5-8.8c3.9,1.4,6.9,4.4,9.1,9.1c10.7,23.2,14.1,29.5,26,31.2c-0.4,0.4-1.1,0.9-2.4,1.2l0,0
			c-0.5,0.1-1,0.2-1.4,0.3c-5.6,0.6-13.1-3.8-25.8-31.1c-1.2-2.6-3.1-4.3-5.5-5.2c-1.3-0.5-2.7-0.7-4.4-0.7
			c-8.9,0-22.7,6.6-40.7,15.3c-4.8,2.3-9.7,4.7-15,7.1C107.6,126.2,102.8,126.5,98.9,125.1z M108.5,127.8c1.6-0.4,3.2-0.9,4.8-1.6
			c5.3-2.5,10.2-4.8,15-7.1c20.8-10,35.7-17.2,43.2-14.5c1.9,0.7,3.2,2,4.2,3.9c0.1,0.2,0.2,0.4,0.3,0.6
			c-9.1-2.5-30.2,8.5-44.3,15.8c-3.5,1.8-6.5,3.4-8.7,4.4c-1.3,0.6-2.4,1-3.5,1.3c-0.2,0-0.3,0-0.5,0.1l0,0
			C113.3,132,110,129.5,108.5,127.8z M124.7,134.9c-1.3-0.5-2.4-1.3-3.2-2.3c0.9-0.3,1.7-0.6,2.7-1.1c2.2-1,5.3-2.6,8.8-4.4
			c13.1-6.8,35-18.2,42.9-15.5c1.1,0.4,1.8,1,2.2,1.9c0.1,0.2,0.2,0.3,0.4,0.4c0.5,0.9,0.9,1.8,1.4,2.7c-8.8-1.5-28.9,8.9-39.9,14.7
			c-2.3,1.2-4,2.1-5.1,2.6c-1.3,0.6-2.5,1-3.8,1.3c-0.2,0-0.4,0-0.5,0.1l0,0C128.3,135.6,126.3,135.5,124.7,134.9z M132.8,137.1
			c1-0.3,1.9-0.7,2.9-1.1c1.1-0.5,2.9-1.4,5.2-2.6c9.5-5,31.9-16.7,39.1-14.3c0.8,0.3,1.3,0.7,1.6,1.3c0.1,0.1,0.1,0.2,0.2,0.3
			c0.7,1.2,1.3,2.4,2,3.4c-7-0.8-19.4,5.4-31.7,12c-2.4,1.3-4.5,2.4-5.8,3C140.3,142,135.2,140.3,132.8,137.1z M149.6,144.9
			c-1.9-0.7-3.1-2-3.8-2.9c0.5-0.2,1-0.4,1.5-0.6c1.4-0.6,3.4-1.7,5.9-3.1c9.1-4.9,28-15,32.6-10.9c1.2,1.9,2.4,3.6,3.6,5.1
			c-6.4-0.8-14.7,3.5-22.8,7.6c-2.4,1.2-4.9,2.5-7.2,3.6c-0.4,0.2-0.8,0.4-1.2,0.5c0,0,0,0-0.1,0l0,0
			C154.9,145.5,152,145.7,149.6,144.9z M160.7,145.8c2.3-1.1,4.7-2.3,7.1-3.5c9.7-5,19.7-10.1,25.1-5.9c0,0,0.1,0,0.2,0.1
			c0.4,0.4,0.9,0.8,1.3,1.1c-4.2,0.7-9.1,3.4-14.8,6.6c-1.8,1-3.7,2-5.7,3.1C166.6,151,162.4,147.7,160.7,145.8z M195,144.6
			c-1.9,2.3-3.8,4.8-8,6.7c-6.6,3.1-11.2,0.3-13.2-1.5c0.4-0.2,0.8-0.4,1.2-0.6c2-1.1,3.9-2.1,5.7-3.1c7.5-4.1,13.4-7.4,17.6-6.2
			h0.1c0.3,0.1,0.6,0.2,0.9,0.4C197.5,141.6,196.3,143.1,195,144.6z M199.5,204.3c-0.4,1.2-1.4,2.1-2.7,2.1c-2,0.2-5.1,0.1-9-1
			l-0.9-4.4c-0.1-0.4-0.3-0.7-0.7-0.9s-0.8-0.1-1.1,0.1l-4,2.4c-1.7-0.9-3.3-1.9-4.8-2.9c-9-6.3-10.3-13-10.3-16.5
			c0-0.7,0.3-1.2,0.8-1.7c0.8-0.7,18.6-16.1,36.6-35.7c1.9,3,6.2,6.8,10.7,9.5c-1.2,0.7-2,2.1-2,3.6v4.1c0,1.8,1.2,3.4,2.9,4
			c-0.1,0.2-0.2,0.4-0.3,0.6c-1.5,0.6-2.5,2.1-2.5,3.9v1C205.7,185.6,201.4,198.3,199.5,204.3z M214.6,175.7v-2.5
			c0.4-0.7,0.7-1.4,1.1-2.1v0.2c0,0.7,0.5,1.2,1.2,1.2s1.2-0.5,1.2-1.2v-1.4c0.6,0.3,1.1,0.9,1.1,1.7v4.2c0,0.6-0.2,0.9-0.4,1.2
			c-0.2,0.2-0.4,0.3-0.7,0.4v-1.7c0-0.7-0.5-1.2-1.2-1.2s-1.2,0.5-1.2,1.2v1.7C215,177.1,214.6,176.4,214.6,175.7z M214.6,188.6
			v-4.1c0-0.7,0.5-1.4,1.1-1.7v0.6c0,0.7,0.5,1.2,1.2,1.2s1.2-0.5,1.2-1.2v-0.6c0.6,0.3,1.1,0.9,1.1,1.7v4.2c0,0.4-0.1,0.8-0.4,1.1
			c-0.2,0.2-0.4,0.3-0.7,0.4v-1.4c0-0.7-0.5-1.2-1.2-1.2s-1.2,0.5-1.2,1.2v1.4C215,190,214.6,189.3,214.6,188.6z M214.6,201.1V197
			c0-0.7,0.5-1.4,1.1-1.7v1.4c0,0.7,0.5,1.2,1.2,1.2s1.2-0.5,1.2-1.2v-1.4c0.6,0.3,1.1,0.9,1.1,1.7v4.2c0,0.4-0.1,0.8-0.4,1.1
			c-0.2,0.2-0.4,0.3-0.7,0.4V201c0-0.7-0.5-1.2-1.2-1.2s-1.2,0.5-1.2,1.2v1.8C215,202.5,214.6,201.8,214.6,201.1z M214.6,213.9v-4.1
			c0-0.7,0.5-1.4,1.1-1.7v0.7c0,0.7,0.5,1.2,1.2,1.2s1.2-0.5,1.2-1.2v-0.7c0.6,0.3,1.1,0.9,1.1,1.7v4.2c0,0.6-0.2,0.9-0.4,1.2
			c-0.2,0.2-0.4,0.3-0.7,0.4v-1.3c0-0.7-0.5-1.2-1.2-1.2s-1.2,0.5-1.2,1.2v1.3C215,215.3,214.6,214.6,214.6,213.9z M214.6,226.5
			v-4.2c0-0.7,0.5-1.4,1.1-1.7v1.5c0,0.7,0.5,1.2,1.2,1.2s1.2-0.5,1.2-1.2v-1.5c0.6,0.3,1.1,0.9,1.1,1.7v4.2c0,0.5-0.1,0.9-0.5,1.3
			c-0.2,0.2-0.4,0.3-0.6,0.4v-1.8c0-0.7-0.5-1.2-1.2-1.2s-1.2,0.5-1.2,1.2v1.8C215,227.9,214.6,227.2,214.6,226.5z M214.6,239.3
			v-4.1c0-0.7,0.5-1.4,1.1-1.7v0.7c0,0.7,0.5,1.2,1.2,1.2s1.2-0.5,1.2-1.2v-0.7c0.6,0.3,1.1,0.9,1.1,1.7v4.2c0,0.4-0.1,0.8-0.4,1.1
			c-0.2,0.2-0.4,0.3-0.7,0.4v-1.4c0-0.7-0.5-1.2-1.2-1.2s-1.2,0.5-1.2,1.2v1.4C215,240.7,214.6,240,214.6,239.3z M214.6,251.9v-4.1
			c0-0.7,0.5-1.4,1.1-1.7v1.3c0,0.7,0.5,1.2,1.2,1.2s1.2-0.5,1.2-1.2v-1.3c0.6,0.3,1.1,0.9,1.1,1.7v4.2c0,0.4-0.1,0.8-0.4,1.1
			c-0.2,0.2-0.4,0.3-0.7,0.4v-1.8c0-0.7-0.5-1.2-1.2-1.2s-1.2,0.5-1.2,1.2v1.8C215,253.3,214.6,252.6,214.6,251.9z M214.6,264.7
			v-4.1c0-0.7,0.5-1.4,1.1-1.7v0.7c0,0.7,0.5,1.2,1.2,1.2s1.2-0.5,1.2-1.2v-0.7c0.6,0.3,1.1,0.9,1.1,1.7v4.2c0,0.4-0.1,0.8-0.4,1.1
			c-0.2,0.2-0.4,0.3-0.7,0.4V265c0-0.7-0.5-1.2-1.2-1.2s-1.2,0.5-1.2,1.2v1.4C215,266.1,214.6,265.4,214.6,264.7z M214.6,273.1
			c0-0.7,0.5-1.4,1.1-1.7v1.2L214.6,273.1L214.6,273.1z M215.7,281.3v0.4c-3,0.6-5.3,3.3-5.3,6.5c0,0.7,0.5,1.2,1.2,1.2
			s1.2-0.5,1.2-1.2c0-1.9,1.2-3.4,2.9-4v0.7c0,0.7,0.5,1.2,1.2,1.2s1.2-0.5,1.2-1.2v-0.7c1.8,0.5,3.1,2.1,3.1,4
			c0,0.7,0.5,1.2,1.2,1.2s1.2-0.5,1.2-1.2c0-3.3-2.4-6-5.5-6.5v-0.4c0.9-0.1,1.8-0.6,2.4-1.3c0.8-0.8,1.1-1.8,1.1-2.9V277l21.8,11.2
			l-26.5,13.5l-26.4-13.5l21.7-11.1v0.1C212.2,279.3,213.7,281,215.7,281.3z M173.6,315.6L173.6,315.6c4.8-8.4,12.6-22,14.7-25.8
			l27.3,14v45.6l-45.4-28C171,320.2,172.2,318.1,173.6,315.6z M171.5,324.9l44.2,27.3v6.2l-41.1-26.6L171.5,324.9z M259.3,331.8
			L218,358.6v-6.1l44.4-27.5L259.3,331.8z"/>
		<path d="M652.2,398.9l-18.8-32.7c0-0.2,0-0.4-0.1-0.5c-0.2-0.4-0.5-0.6-0.9-0.6l-25.2-12.9v-1c0-2.1-1.5-3.8-3.5-4.1V347
			c0.9-0.2,1.8-0.6,2.4-1.3c0.8-0.8,1.2-1.9,1.1-2.9v-4.1c0-2.1-1.5-3.8-3.5-4.1V334c0.9-0.2,1.8-0.6,2.4-1.3
			c0.8-0.8,1.2-1.9,1.1-2.9v-4.1c0-2.1-1.5-3.8-3.5-4.1v-0.2c0.9-0.2,1.8-0.6,2.4-1.3c0.8-0.8,1.2-1.9,1.1-2.9v-4.1
			c0-2.1-1.5-3.8-3.5-4.1v-0.4c0.9-0.2,1.8-0.6,2.4-1.3c0.8-0.8,1.2-1.9,1.1-3v-4.1c0-2.1-1.5-3.8-3.5-4.1V296
			c0.9-0.1,1.8-0.6,2.4-1.3c0.8-0.8,1.1-1.8,1.1-2.9v-4.1c0-2.1-1.5-3.8-3.5-4.1v-0.4c0.9-0.2,1.8-0.6,2.4-1.3
			c0.8-0.8,1.2-1.9,1.1-2.9v-4c0-2.1-1.5-3.8-3.5-4.1v-0.1c0.9-0.2,1.8-0.6,2.4-1.3c0.8-0.8,1.2-1.9,1.1-2.9v-4.1c0-1.9-1.3-3.5-3-4
			c0.1-0.3,0.2-0.6,0.3-0.9c0.6-0.2,1.2-0.6,1.6-1c0.8-0.8,1.1-1.8,1.1-2.9V250c1.5-3.8,3.1-7.5,4.8-11.2c0.4,0,0.7-0.1,1-0.1
			c2.3-0.5,6.2-5.5,7.1-9.1c0.5-1.9,0.1-3-0.5-3.8c12.4-19.2,29.7-35.4,29.9-35.6c0.3-0.2,0.4-0.6,0.4-0.9c0.2-0.5,0.3-1.2,0.1-2.1
			c-0.5-2-2.5-4.5-5.1-6.8l3-3.2c0.2-0.2,0.3-0.6,0.3-0.9c0-0.3-0.2-0.6-0.4-0.8s-4.9-4.3-12.6-8.3c-0.8-0.4-1.5-0.7-2.2-1.1
			c0.6-0.9,1.3-1.8,1.9-2.8c3.7-5.3,5.1-10.6,4.2-15.9c-2.2-12.3-16.6-22.3-29.4-31.2l-1.9-1.3c-23.7-16.6-35.9-27.1-38.3-33.1
			c-0.2-0.4-0.5-0.7-1-0.7c-0.4-0.1-0.9,0.1-1.1,0.5c-2.1,2.9-3,6.8-2.3,10.8c0.5,2.9,1.7,5.7,3.6,8.2c-1,2.2-3.3,8.8,2.6,15.6
			c-1.5,2.6-1.8,5.7-0.7,8.9c0.5,1.6,1.4,3.2,2.6,4.6c-3.1,5.3-1.3,11.2,2.5,15.6c-0.7,1.3-1.9,4.2-1.3,7.7c0.5,3.3,2.5,6.4,5.8,9.1
			c-1,2.3-2.9,9,3.3,15c-0.3,1.1-0.8,3.1-0.6,5.6c0.2,3.4,1.7,8.2,7.2,12.1c3.6,2.5,6.6,3.5,9.3,4c-1.6,5.8-3.5,11.6-5.7,17.1
			c-11.9-1.7-15-7.6-26.1-32.5c-2.5-5.6-6.2-9.4-10.9-11.2c-11.1-4.3-26.5,2.6-40.1,8.7l-2,0.9c-25.2,11.2-39.7,16-45.8,15.1
			c-0.4-0.1-0.9,0.1-1.1,0.5c-0.3,0.3-0.3,0.8-0.2,1.2c1.3,3.2,4.2,5.8,7.8,7.2c2.6,1,5.4,1.4,8.3,1.1c1.6,2.6,5.3,5.7,11,5.7
			c1,0,2-0.1,3.1-0.3c1.9,3.5,5.6,5.3,10,5.3c0.6,0,1.3,0,2-0.1c2.3,4.2,6.5,5.9,10.9,5.9c1.1,0,2.1-0.1,3.2-0.3
			c0.7,1.3,2.5,3.6,5.7,4.9c1.4,0.6,2.9,0.8,4.5,0.8c1.8,0,3.8-0.4,5.8-1.1c1.3,1.7,4.6,5.1,10,5.1c1.2,0,2.5-0.2,3.8-0.5
			c1.4,1.4,5.1,4.8,10.8,4.8c2.1,0,4.4-0.4,6.9-1.6c5.1-2.3,7.5-5.2,9.7-7.8c2.1-2.5,3.8-4.5,7.5-5.5c0,0,0,0,0.1,0
			c-0.3,1-0.6,2.2-0.4,3.3c-9.6,13.8-21.1,28.6-34.1,43.8l-0.2,0.3c-1,1.1-1.4,2.6-1.2,3.9c0.4,3.4,2.6,12,14.7,17.9
			c6.6,3.3,14.8,4.5,20.3,4.5c1.5,0,2.9-0.1,3.9-0.3c2.2-0.4,4.1-2.3,4.5-4.7c0.5-2.8,1.1-6.3,2-10.2c0.6,1.2,1.7,2.1,3.1,2.3v0.4
			c-2,0.3-3.5,2.1-3.5,4.1v4.1c0,2.1,1.5,3.8,3.5,4.1v0.1c-2,0.3-3.5,2.1-3.5,4.1v4.2c0,2.1,1.5,3.8,3.5,4.1v0.4
			c-2,0.3-3.5,2.1-3.5,4.1v4.1c0,2.1,1.5,3.8,3.5,4.1v0.2c-2,0.3-3.5,2.1-3.5,4.1v4.1c0,2.1,1.5,3.8,3.5,4.1v0.4
			c-2,0.3-3.5,2.1-3.5,4.1v4.1c0,2.1,1.5,3.8,3.5,4.1v0.1c-2,0.3-3.5,2.1-3.5,4.1v1.5l-24.3,12.5c-0.1,0-0.1,0.1-0.2,0.1
			c0,0-0.1,0-0.1,0.1c-0.1,0.1-0.2,0.2-0.3,0.3c0,0-9.8,17-15.4,26.8c-2.3,4-3.9,6.8-3.9,6.8c-0.1,0.1-0.1,0.2-0.1,0.4v0.1
			c0,0.1,0,0.3,0,0.4c0,0,0,0,0,0.1s0,0.1,0.1,0.2l5,10.8c0.1,0.2,0.2,0.4,0.4,0.5l43.3,28.1c0,0,0.1,0,0.1,0.1c0,0,0.1,0,0.1,0.1
			c0.1,0,0.3,0.1,0.4,0.1s0.3,0,0.4-0.1c0,0,0.1,0,0.1-0.1c0,0,0.1,0,0.1-0.1l43.3-28.1c0.2-0.1,0.3-0.3,0.4-0.5l4.9-10.5
			c0.4-0.4,0.5-1,0.2-1.5C652.3,399,652.2,398.9,652.2,398.9z M604.2,381.8l27.4-14l18.1,31.6l-45.5,28.2V381.8z M629.5,366.2
			L603,379.7l-26.4-13.6l21.2-10.9c0.1,2,1.5,3.7,3.5,4v0.4c-3,0.6-5.3,3.3-5.3,6.5c0,0.7,0.5,1.2,1.2,1.2s1.2-0.5,1.2-1.2
			c0-1.9,1.2-3.4,2.9-4v0.7c0,0.7,0.5,1.2,1.2,1.2s1.2-0.5,1.2-1.2v-0.7c1.8,0.5,3.1,2.1,3.1,4c0,0.7,0.5,1.2,1.2,1.2
			s1.2-0.5,1.2-1.2c0-3.3-2.4-6-5.5-6.5v-0.4c0.9-0.1,1.8-0.6,2.4-1.3c0.8-0.8,1.1-1.8,1.1-2.9v-0.4L629.5,366.2z M603,352.6
			l1.8,0.9v1.7c0,0.6-0.2,0.9-0.4,1.2c-0.2,0.2-0.4,0.3-0.7,0.4v-1.7c0-0.7-0.5-1.2-1.2-1.2s-1.2,0.5-1.2,1.2v1.7
			c-0.6-0.3-1.1-0.9-1.1-1.7V354L603,352.6z M604.8,350.8l-1.1-0.6v-0.9C604.3,349.7,604.7,350.2,604.8,350.8z M590.8,225.3
			c-0.2-0.5,0.1-2.1,0.6-3.2c0-0.1,0-0.2,0-0.2c2.3-0.7,3.4-2,4-2.9c0.5,0.5,1,1,1.3,1.2c0.9,0.8,2.3,1.7,3.9,2.7
			c-0.9,0.3-1.7,0.7-2.5,1.3c-1.4,1.2-2.2,2.8-2.3,4.6c0,0.5,0,0.9,0,1.4C593.4,228.4,591.4,226.6,590.8,225.3z M606.6,179.5
			c0.2-0.3,0.3-0.6,0.2-0.9c0.3-1.6,0.6-3.1,0.9-4.4c1.1,2.2,2.9,4.5,5.2,6.5l1.1,5.3c0.1,0.3,0.3,0.6,0.6,0.8s0.7,0.2,1,0.1
			l4.1-1.4c1.6,0.9,3.1,1.6,4.8,2.3c2.8,1.1,5.4,2.1,7.9,2.8c0.2,0.2,0.5,0.2,0.8,0.2c3.7,1,7.1,1.6,9.8,1.6c0.4,0,0.9,0,1.3,0
			c-6.3,6.4-18.7,19.7-27.8,34.6c-2-0.3-5.2-1.3-9.4-3.4c-6.7-3.3-10.4-6.5-10.5-7.5V216C601,203.7,604.5,189.5,606.6,179.5z
			 M625.7,181c4.1,2.1,7.5,3.3,9.5,4l-2.6,3.2c-2.2-0.6-4.6-1.5-7.3-2.6c-1.7-0.7-3.3-1.5-5-2.4c-0.2-0.1-0.4-0.2-0.6-0.2
			c-0.1,0-0.3,0-0.4,0.1l-3.3,1.2l-0.9-4.4c-0.1-0.3-0.2-0.5-0.4-0.6c-0.7-0.6-1.4-1.3-2-1.9l1.4-4.2
			C617.2,176.6,623.9,180.1,625.7,181z M598.2,228.9c0.1-1.1,0.6-2.2,1.5-2.9c0.8-0.7,1.8-1,2.8-1c0.1,0,0.2,0,0.3,0
			c1.1,0.1,2.2,0.6,2.9,1.5s1.1,2,1,3.1s-0.6,2.2-1.5,2.9c-0.3,0.3-0.6,0.5-1,0.6c-0.2-0.1-0.4-0.1-0.6-0.1v-3.9
			c0-0.7-0.5-1.2-1.2-1.2s-1.2,0.5-1.2,1.2v3.9c-0.2,0-0.4,0.1-0.5,0.1c-0.3-0.2-0.7-0.4-1-0.6C598.7,231.7,598.1,230.3,598.2,228.9
			z M600.2,237.1c0-0.5,0.2-1,0.6-1.3c0.2,0.1,0.4,0.2,0.5,0.3v0.8c0,0.7,0.5,1.2,1.2,1.2c0.6,0,1.1-0.4,1.2-1
			c0.4,0.2,0.8,0.3,1.1,0.4v3.8c0,0.4-0.1,0.8-0.4,1.1c-0.2,0.2-0.4,0.3-0.7,0.4v-1.4c0-0.7-0.5-1.2-1.2-1.2s-1.2,0.5-1.2,1.2v1.4
			c-0.6-0.3-1.1-0.9-1.1-1.7L600.2,237.1L600.2,237.1z M609.4,238.7c-1.2,2.6-2.4,5.2-3.5,7.9c-0.6-0.6-1.4-1-2.2-1.1v-0.1
			c0.9-0.2,1.8-0.6,2.4-1.3c0.8-0.8,1.2-1.9,1.1-2.9v-2.9C608,238.4,608.7,238.6,609.4,238.7z M602.5,250.5c0.7,0,1.2-0.5,1.2-1.2
			v-1.4c0.6,0.3,1.1,0.9,1.1,1.6c-0.4,1.2-0.9,2.4-1.3,3.5c-0.2-0.3-0.6-0.6-1-0.6c-0.7,0-1.2,0.5-1.2,1.2v1.7
			c-0.6-0.3-1.1-0.9-1.1-1.7v-4.1c0-0.7,0.5-1.4,1.1-1.7v1.4C601.3,249.9,601.8,250.5,602.5,250.5z M600.2,263.3v-0.8
			c0-0.6,0.3-1,0.7-1.4C600.6,261.8,600.4,262.6,600.2,263.3z M601.3,268.2L601.3,268.2L601.3,268.2L601.3,268.2z M604.8,262.5v4.2
			c0,0.4-0.1,0.8-0.4,1.1c-0.2,0.2-0.4,0.3-0.7,0.4v-1.4c0-0.7-0.5-1.2-1.2-1.2c-0.2,0-0.4,0.1-0.5,0.1c0.3-1.1,0.6-2.2,1-3.3
			c0.4-0.2,0.8-0.6,0.8-1.1v-0.6C604.3,261.1,604.8,261.7,604.8,262.5z M612.5,236.3c-1.5,0.3-3.4,0-5.6-0.6
			c-0.1-0.4-0.3-0.7-0.5-1.1c1.5-1.1,2.6-2.9,2.8-4.9c0.1-0.9,0-1.8-0.3-2.7c3.2,1.4,6.3,2.3,8.6,2.3c0.1,0,0.2,0,0.4,0
			C616.7,232.5,613.4,236.1,612.5,236.3z M647.7,187.7c0.1,0.4,0.1,0.6,0,0.8c-1,1.4-5.1,2.2-12.7,0.4l3.1-3.7
			c0.3-0.3,0.3-0.7,0.2-1.1s-0.4-0.7-0.8-0.8c0,0-4.6-1.2-10.8-4.3c-7.5-3.8-11.2-7.4-11.6-8.8l0.1-0.4v-0.1h0.1
			c2.6-0.9,12.2,2.7,19.7,6.6c2.5,1.3,5.1,3.1,7.2,4.9l0.1,0.1c0.1,0.1,0.2,0.1,0.2,0.2C645.3,183.8,647.3,186.1,647.7,187.7z
			 M645.3,176.4l-2.2,2.3c-2.2-1.8-4.7-3.4-7-4.6c-0.7-0.4-16.5-8.6-21.6-6.8c-1,0.4-1.4,1-1.6,1.4c-0.2,0.3-0.2,0.7-0.2,1l-1.7,5.2
			c-1.4-2-2.2-4-2.4-5.8c0.3-1.7,0.5-2.7,0.5-2.7c0-0.1,0-0.1,0-0.1c0.4-0.9,1.2-1.5,2.4-2c1.6-0.6,3.7-0.8,6.1-0.5
			c0.2,0.1,0.4,0.2,0.6,0.2c0.1,0,0.3,0,0.4-0.1c4.5,0.6,10.1,2.4,15.8,5.2C639.7,172,643.6,175,645.3,176.4z M568.4,84.8
			c4.1,6.6,16,16.7,38.1,32.1l1.9,1.3c12.4,8.6,26.4,18.4,28.4,29.7c0.8,4.7-0.4,9.3-3.8,14.1c-0.7,1.1-1.4,2.2-2.1,3.1
			c-1.6-0.7-3.1-1.2-4.6-1.7c0-0.1,0.1-0.1,0.1-0.2c0.9-1.3,1.9-2.7,2.9-4.2c1.8-2.6,2.5-5.3,1.9-8.2c-1.8-9.9-17.6-20.7-39.6-35.8
			c-4.9-3.3-9.9-6.8-15.3-10.6c-4.8-3.4-7.9-7.8-8.7-12.5C567.2,89.4,567.5,86.9,568.4,84.8z M570.5,102.6c1.3,1.4,2.8,2.7,4.4,3.8
			c5.3,3.8,10.4,7.2,15.3,10.6c21.5,14.7,37,25.3,38.6,34.2c0.4,2.2-0.1,4.3-1.6,6.3c-0.2,0.3-0.4,0.5-0.6,0.8
			c-2.7-10.2-25.1-24.6-40.1-34.1c-3.8-2.4-7-4.5-9.3-6.1C568.5,112,569.4,105.5,570.5,102.6z M573.2,118c0.8,0.7,1.7,1.5,2.7,2.2
			c2.3,1.6,5.6,3.7,9.4,6.1c14,8.9,37.3,23.9,39.2,33.1c0.2,0.9,0.1,1.8-0.2,2.5c-0.2,0.2-0.3,0.5-0.5,0.7c-1.8-0.5-3.5-0.8-5.1-1
			c-7.1-9-24.7-20.2-34.3-26.2c-2.3-1.4-4.1-2.6-5.1-3.3c-1.3-0.9-2.5-2-3.4-3.1c-0.1-0.2-0.2-0.3-0.4-0.4l0,0
			c-1.1-1.4-2-2.8-2.5-4.3C572.2,122,572.3,119.9,573.2,118z M575,131.6c0.9,0.9,1.8,1.7,2.9,2.4c1,0.7,2.9,1.9,5.2,3.3
			c8.8,5.6,24.6,15.7,32.2,24c-1.8,0-3.5,0.3-4.8,0.8s-2.4,1.3-3.1,2.2c-6.4-5.4-14.6-10.5-20.7-14.2c-2.6-1.6-4.8-3-6.2-3.9
			C574.2,141.8,573,135.9,575,131.6z M576.8,152.7c-0.4-2.4,0.2-4.4,0.8-5.6c0.5,0.4,1,0.8,1.5,1.2c1.4,1,3.7,2.4,6.3,4
			c6.2,3.8,14.6,9,20.9,14.4c-0.2,0.8-0.3,1.6-0.2,2.5c-0.3,1.8-0.8,4.3-1.4,7.2c-4-3.5-9.1-6.8-14.1-10c-2.4-1.5-4.9-3.1-7.1-4.7
			C579.7,159,577.4,155.9,576.8,152.7z M582.2,163.7L582.2,163.7c2.3,1.6,4.8,3.2,7.2,4.7c5.3,3.4,10.8,7,14.8,10.7
			c-0.5,2.3-1,4.8-1.7,7.5c-2.7-1.9-5.9-3.8-9.3-5.8c-1.6-1-3.3-2-5-3c-0.9-0.6-1.8-1.2-2.5-1.8l0,0
			C580.3,171.2,581.4,166,582.2,163.7z M591.5,192.9c-6.9-4.9-6.6-11.2-5.9-14.1c0.4,0.3,0.9,0.7,1.4,1c1.7,1.1,3.4,2.1,5,3.1
			c3.8,2.3,7.2,4.3,9.9,6.3c-0.6,2.4-1.2,4.9-1.9,7.4C597.6,196.1,594.8,195.2,591.5,192.9z M476.2,203.5c-2.3-0.9-4.2-2.4-5.5-4.2
			c7.4-0.2,21.6-5,44.9-15.4l2-0.9c13.2-5.9,28.1-12.6,38.3-8.6c4.2,1.6,7.3,4.8,9.6,9.9c11.3,25.1,14.8,31.9,27.5,33.9
			c-0.4,0.5-1.2,1-2.5,1.4c-0.1,0-0.1,0-0.2,0c-0.7,0.1-1.4,0.2-2,0.4c-5.6,0.3-13-4.2-24.6-28.7l0,0c0,0,0-0.1-0.1-0.1
			c-0.8-1.6-1.5-3.3-2.3-5.1c-1.2-2.7-3.1-4.6-5.7-5.6c-1.5-0.6-3.1-0.8-5-0.8c-9.5,0-24.2,6.7-43.3,15.5
			c-5.3,2.4-10.8,4.9-16.6,7.5c-2.1,0.9-4.2,1.5-6.3,1.8c-0.1,0-0.2,0-0.3,0C481.3,204.8,478.6,204.5,476.2,203.5z M486.3,206.5
			c1.7-0.4,3.5-0.9,5.2-1.7c5.9-2.6,11.4-5.1,16.6-7.5c22.3-10.2,38.5-17.6,46.4-14.6c2,0.8,3.4,2.2,4.4,4.3
			c0.1,0.2,0.2,0.5,0.3,0.7c-9.6-2.7-32.3,8.5-47.5,16.1c-3.9,1.9-7.2,3.6-9.6,4.7C493,212.5,488.2,208.7,486.3,206.5z M500.1,211.7
			c1-0.3,2-0.7,3.1-1.1c2.5-1.1,5.8-2.8,9.7-4.7c14.1-7,37.8-18.8,46.1-15.8c1.1,0.4,1.8,1,2.2,1.9c0.6,1.4,1.3,2.7,1.9,4
			c-9.3-1.9-31.1,9-43,14.9c-2.5,1.3-4.5,2.3-5.7,2.8c-1.4,0.6-2.9,1.1-4.2,1.3c0,0,0,0-0.1,0C505.9,215.8,502.1,214.6,500.1,211.7z
			 M512.3,217c1.1-0.3,2.2-0.7,3.3-1.2c1.2-0.5,3.2-1.5,5.8-2.8c11.2-5.6,34.5-17.3,42.2-14.5c0.9,0.3,1.5,0.8,1.8,1.5
			c0,0,0,0,0,0.1c0.8,1.5,1.5,2.9,2.3,4.2c-7.4-1.1-20.9,5.3-34.4,12.2c-2.6,1.3-4.9,2.5-6.3,3.1C521.9,221.9,515.3,221.6,512.3,217
			z M530.4,225.8c-2.1-0.8-3.4-2.3-4.1-3.3c0.5-0.2,1.1-0.4,1.6-0.6c1.5-0.7,3.7-1.8,6.4-3.2c9.9-5.1,30.5-15.6,35.3-11
			c0,0,0.1,0,0.1,0.1c1.3,2.1,2.6,3.9,3.9,5.5c-6.9-1-15.9,3.4-24.8,7.7c-2.6,1.3-5.2,2.6-7.7,3.7c-0.4,0.2-0.8,0.3-1.2,0.5
			c-0.1,0-0.2,0-0.2,0.1l0,0C536.1,226.6,533,226.8,530.4,225.8z M542.2,226.8c2.5-1.1,5.1-2.4,7.7-3.7c10.5-5.2,21.4-10.5,27.3-5.9
			l0,0c0.5,0.5,1,1,1.6,1.4c-4.5,0.6-9.7,3.4-15.9,6.7c-2,1.1-4.1,2.2-6.3,3.3C548.5,232.7,543.9,228.9,542.2,226.8z M579.3,226.3
			c-2.1,2.5-4.2,5.1-8.8,7.1c-7.3,3.3-12.2,0-14.3-1.9c0.4-0.2,0.9-0.4,1.3-0.6c2.2-1.1,4.3-2.2,6.4-3.3c8.1-4.3,14.5-7.7,18.8-6.2
			c0.1,0,0.1,0,0.2,0c0.3,0.2,0.7,0.3,1,0.4C582,223,580.7,224.6,579.3,226.3z M593.9,290.7c-0.2,1.4-1.3,2.5-2.5,2.7
			c-4.5,0.7-14.8-0.1-22.8-4c-11-5.4-13-13-13.3-16.1c-0.1-0.7,0.1-1.4,0.6-2l0.2-0.3c12.8-14.9,24-29.4,33.6-43.1
			c1.8,2.1,5.1,4.6,8.8,6.7c0,0,0.1,0,0.1,0.1c-0.5,0.7-0.8,1.5-0.8,2.4v4.1c0,2.1,1.5,3.8,3.5,4.1v0.1c-2,0.3-3.5,2.1-3.5,4.1v4.1
			c0,2.1,1.5,3.8,3.5,4.1v0.5c-2,0.3-3.5,2.1-3.5,4.1v4.1c0,0.9,0.3,1.8,0.8,2.5C596.3,277.6,594.8,285.3,593.9,290.7z M600.7,270.5
			c0.2,0.1,0.4,0.1,0.6,0.2v0.1c-0.3,0-0.5,0.1-0.7,0.2C600.6,270.9,600.6,270.7,600.7,270.5z M600.2,279.1V275
			c0-0.7,0.5-1.4,1.1-1.7v1.4c0,0.7,0.5,1.2,1.2,1.2s1.2-0.5,1.2-1.2v-1.4c0.6,0.3,1.1,0.9,1.1,1.7v4.2c0,0.4-0.1,0.8-0.4,1.1
			c-0.2,0.2-0.4,0.3-0.7,0.4V279c0-0.7-0.5-1.2-1.2-1.2s-1.2,0.5-1.2,1.2v1.8C600.6,280.5,600.2,279.8,600.2,279.1z M600.2,291.9
			v-4.1c0-0.7,0.5-1.4,1.1-1.7v0.7c0,0.7,0.5,1.2,1.2,1.2s1.2-0.5,1.2-1.2v-0.7c0.6,0.3,1.1,0.9,1.1,1.7v4.2c0,0.6-0.2,0.9-0.4,1.2
			c-0.2,0.2-0.4,0.3-0.7,0.4v-1.3c0-0.7-0.5-1.2-1.2-1.2s-1.2,0.5-1.2,1.2v1.3C600.6,293.3,600.2,292.6,600.2,291.9z M600.2,304.5
			v-4.2c0-0.7,0.5-1.4,1.1-1.7v1.5c0,0.7,0.5,1.2,1.2,1.2s1.2-0.5,1.2-1.2v-1.5c0.6,0.3,1.1,0.9,1.1,1.7v4.2c0,0.5-0.1,0.9-0.5,1.3
			c-0.2,0.2-0.4,0.3-0.6,0.4v-1.8c0-0.7-0.5-1.2-1.2-1.2s-1.2,0.5-1.2,1.2v1.8C600.6,305.9,600.2,305.2,600.2,304.5z M600.2,317.3
			v-4.1c0-0.7,0.5-1.4,1.1-1.7v0.7c0,0.7,0.5,1.2,1.2,1.2s1.2-0.5,1.2-1.2v-0.7c0.6,0.3,1.1,0.9,1.1,1.7v4.2c0,0.4-0.1,0.8-0.4,1.1
			c-0.2,0.2-0.4,0.3-0.7,0.4v-1.4c0-0.7-0.5-1.2-1.2-1.2s-1.2,0.5-1.2,1.2v1.4C600.6,318.7,600.2,318,600.2,317.3z M600.2,329.9
			v-4.1c0-0.7,0.5-1.4,1.1-1.7v1.3c0,0.7,0.5,1.2,1.2,1.2s1.2-0.5,1.2-1.2v-1.3c0.6,0.3,1.1,0.9,1.1,1.7v4.2c0,0.4-0.1,0.8-0.4,1.1
			c-0.2,0.2-0.4,0.3-0.7,0.4v-1.8c0-0.7-0.5-1.2-1.2-1.2s-1.2,0.5-1.2,1.2v1.8C600.6,331.3,600.2,330.6,600.2,329.9z M600.2,342.7
			v-4.1c0-0.7,0.5-1.4,1.1-1.7v0.7c0,0.7,0.5,1.2,1.2,1.2s1.2-0.5,1.2-1.2v-0.7c0.6,0.3,1.1,0.9,1.1,1.7v4.2c0,0.4-0.1,0.8-0.4,1.1
			c-0.2,0.2-0.4,0.3-0.7,0.4V343c0-0.7-0.5-1.2-1.2-1.2s-1.2,0.5-1.2,1.2v1.4C600.6,344.1,600.2,343.4,600.2,342.7z M600.2,351.1
			c0-0.7,0.5-1.4,1.1-1.7v1.4l0,0l-1.1,0.6V351.1z M559.6,393.6L559.6,393.6c4.8-8.4,12.7-22,14.8-25.8l27.3,14v45.7l-45.5-28.1
			C557,398.2,558.2,396.1,559.6,393.6z M557.5,402.9l44.3,27.4v6.2l-41.2-26.7L557.5,402.9z M645.3,409.8l-41.2,26.7v-6.1l44.3-27.4
			L645.3,409.8z"/>
		<path d="M222.5,129.5l3.2,1.3c0.1,0.1,0.3,0.1,0.5,0.1c0.5,0,0.9-0.3,1.1-0.7c0.2-0.6,0-1.3-0.7-1.6l-3.2-1.3
			c-0.6-0.2-1.3,0-1.6,0.7C221.6,128.5,221.9,129.2,222.5,129.5z"/>
		<path d="M233.1,131.8c-0.4-0.5-1.2-0.5-1.7-0.1s-0.5,1.2-0.1,1.7l2,2.2c0.2,0.3,0.6,0.4,0.9,0.4c0.3,0,0.6-0.1,0.8-0.3
			c0.5-0.4,0.5-1.2,0.1-1.7L233.1,131.8z"/>
		<path d="M226.2,134.9c-3.2-2.2-7.9-0.3-8.1-0.2c-0.6,0.2-0.9,0.9-0.7,1.6c0.2,0.6,0.9,0.9,1.6,0.7c1-0.4,4.1-1.2,5.9,0
			c1,0.7,1.6,2.1,1.6,4.2c0,0.7,0.5,1.2,1.2,1.2s1.2-0.5,1.2-1.2C228.8,138.2,227.9,136.1,226.2,134.9z"/>
		<path d="M608.1,210.3l3.5,0.7c0.1,0,0.2,0,0.2,0c0.6,0,1.1-0.4,1.2-1c0.1-0.6-0.3-1.3-0.9-1.4l-3.5-0.7c-0.6-0.1-1.3,0.3-1.4,0.9
			S607.4,210.1,608.1,210.3z"/>
		<path d="M619.7,214.6c0.2,0.2,0.5,0.3,0.7,0.3c0.4,0,0.7-0.2,0.9-0.5c0.4-0.5,0.3-1.3-0.2-1.7l-2.4-1.9c-0.5-0.4-1.3-0.3-1.7,0.2
			s-0.3,1.3,0.2,1.7L619.7,214.6z"/>
		<path d="M605.8,218.1c0.9-0.6,3.8-1.8,5.7-1c1.1,0.5,1.9,1.8,2.3,3.8c0.1,0.6,0.6,1,1.2,1c0.1,0,0.1,0,0.2,0
			c0.7-0.1,1.1-0.7,1-1.4c-0.5-2.8-1.7-4.7-3.6-5.6c-3.5-1.6-7.8,1-8,1.1c-0.6,0.3-0.7,1.1-0.4,1.6
			C604.5,218.3,605.2,218.4,605.8,218.1z"/>
		<path d="M392,304.6c-0.4-0.5-1.2-0.6-1.7-0.2l-2.8,2.2c-0.5,0.4-0.6,1.2-0.2,1.7c0.2,0.3,0.6,0.5,0.9,0.5s0.5-0.1,0.7-0.3l2.8-2.2
			C392.4,305.9,392.4,305.2,392,304.6z"/>
		<path d="M396.6,302.9c0.1,0,0.2,0,0.3,0l3-0.7c0.6-0.2,1-0.8,0.9-1.4c-0.2-0.6-0.8-1.1-1.4-0.9l-3,0.7c-0.6,0.2-1,0.8-0.9,1.4
			C395.5,302.5,396,302.9,396.6,302.9z"/>
		<path d="M401.1,310.8c0.6,0.3,1.3,0.1,1.6-0.5c0.3-0.6,0.1-1.3-0.5-1.6c-2.6-1.4-4.8-1.6-6.7-0.7c-3.4,1.7-4.1,6.7-4.2,6.9
			c-0.1,0.7,0.4,1.3,1,1.4c0.1,0,0.1,0,0.2,0c0.6,0,1.1-0.4,1.2-1c0,0,0.6-3.9,2.9-5C397.8,309.6,399.3,309.8,401.1,310.8z"/>
		<path d="M126.2,156.9l-0.8,0.2c-2.2,0.4-4.3,0.9-6.5,0.5c-2.4-0.4-4.3-1.8-4.8-3.6c-0.1-0.5-0.2-1-0.3-1.6
			c-0.2-1.5-0.3-3.1-1.7-4.2c-1.2-1-2.6-1-3.7-1l-7.6,0.3c-0.8,0-1.6,0-2.1-0.2c-0.9-0.5-1.1-1.6-1.3-3.4c-0.1-1.1-0.3-2.2-0.7-3.3
			c-0.6-1.4-1.8-2.6-3.3-3.2c-1.6-0.6-3.3-0.6-4.7,0.1c-0.6,0.3-0.9,1-0.6,1.6s1,0.9,1.6,0.6c0.8-0.4,1.8-0.4,2.8-0.1
			c0.9,0.4,1.6,1,2,1.8c0.3,0.8,0.4,1.7,0.5,2.7c0.2,1.9,0.5,4.1,2.5,5.3c1.1,0.5,2.3,0.5,3.3,0.5l7.2-0.3h0.4c1,0,1.7,0,2.2,0.4
			c0.6,0.5,0.7,1.5,0.9,2.7c0.1,0.7,0.1,1.4,0.3,2c0.8,2.7,3.4,4.8,6.8,5.4c0.7,0.1,1.3,0.1,1.9,0.1c1.8,0,3.6-0.4,5.4-0.7l0.8-0.2
			c0.7-0.1,1.1-0.8,1-1.4C127.4,157.2,126.8,156.8,126.2,156.9z"/>
		<path d="M122.3,167.4c-1.9-1-4.2-1.1-6.3-0.9c-1.1,0-2.3,0.1-3.4,0.1c-1.2,0-2.3,0.1-3.4,0.1c-0.3,0-1,0-1.2-0.1
			c0,0,0-0.1-0.1-0.1v-0.1c0-0.1-0.1-0.2-0.1-0.4c-0.8-4.7-5.4-8.4-10.3-8.3c-0.7,0-1.2,0.6-1.2,1.2c0,0.7,0.6,1.2,1.2,1.2
			c3.7-0.1,7.3,2.8,7.9,6.4c0,0.1,0,0.1,0,0.2c0,0.1,0,0.1,0,0.2c0.1,0.3,0.1,0.7,0.4,1.1c0.8,1.2,2.3,1.2,3.2,1.2
			c1.1,0,2.3-0.1,3.4-0.1c1.2,0,2.3-0.1,3.5-0.1c1.8-0.1,3.7-0.1,5.1,0.7c2,1.1,3.1,3.7,4,6.3c0.2,0.5,0.6,0.8,1.1,0.8
			c0.1,0,0.3,0,0.4-0.1c0.6-0.2,1-0.9,0.8-1.5C126.4,172,125,168.9,122.3,167.4z"/>
		<path d="M273.4,240.7c0.3,0.4,0.8,0.5,1.3,0.4c3.1-1.1,6.7-0.6,9.3,1.3c0.2,0.1,0.4,0.2,0.7,0.2c0.4,0,0.8-0.2,1-0.5
			c0.4-0.5,0.2-1.3-0.3-1.7c-2.7-1.9-6-2.6-9.2-2.1c0.4-2.8-0.8-5.7-2.7-7.5c-2-2.1-4.9-3.5-8.8-4.2c-2.6-0.5-5.3-0.8-8-0.9
			c-0.1,0-0.3,0-0.5,0c0-0.2,0-0.5,0-0.7c0-4-2.6-7.9-6.3-9.3c-1.3-0.5-2.8-0.8-4.2-1c-1.9-0.3-3.6-0.6-5-1.6
			c-0.5-0.4-1.3-0.3-1.7,0.2s-0.3,1.3,0.2,1.7c1.8,1.4,4,1.7,6,2c1.3,0.2,2.6,0.4,3.6,0.8c2.8,1.1,4.7,4,4.7,7.1
			c0,0.7,0,1.7,0.8,2.4c0.7,0.7,1.5,0.7,2.1,0.7c2.5,0.1,5.1,0.4,7.6,0.9c3.5,0.7,5.9,1.9,7.6,3.6c2,2,2.6,5,1.5,7
			C273,239.8,273,240.4,273.4,240.7z"/>
		<path d="M296.3,243.9c4.8,0.9,9.2,3.6,12.2,7.5c0.2,0.3,0.6,0.5,0.9,0.5s0.5-0.1,0.7-0.3c0.5-0.4,0.6-1.2,0.2-1.7
			c-3.4-4.3-8.2-7.3-13.6-8.3c-0.6-0.1-1.3,0.3-1.4,0.9C295.2,243.1,295.6,243.7,296.3,243.9z"/>
		<path d="M139.3,156.2c-1.2-0.2-2.6-0.2-4.3,0.1c-0.7,0.1-1.1,0.7-1,1.4s0.7,1.1,1.4,1c1.4-0.2,2.5-0.3,3.4-0.1
			c0.6,0.1,1.8,0.5,2.2,1.5c0.2,0.5,0.6,0.7,1.1,0.7c0.2,0,0.3,0,0.5-0.1c0.6-0.3,0.9-1,0.6-1.6
			C142.6,157.7,141.2,156.6,139.3,156.2z"/>
		<path d="M135.5,186.4c-2.3-0.2-4.5-1.7-5.4-3.8c-0.3-0.6-1-0.9-1.6-0.6c-0.6,0.3-0.9,1-0.6,1.6c1.3,2.9,4.2,5,7.4,5.2h0.1
			c0.6,0,1.1-0.5,1.2-1.1C136.6,187,136.1,186.4,135.5,186.4z"/>
		<path d="M350.2,398.8c0.2,0,0.4,0,0.5-0.1c2.3-1.1,3.5-3.3,4.7-5.4c0.7-1.1,1.3-2.2,2.1-3.1c1.4-1.7,3.5-2.8,5.6-3.2
			c1.1-0.1,2.2-0.1,3.3-0.1c2.2,0.1,4.5,0.1,6.6-1c1.7-0.9,2.8-2.4,3.9-3.8c0.6-0.7,1.1-1.4,1.7-2c2.1-2.1,5.1-3.1,8-2.8
			c0.7,0.1,1.3-0.4,1.3-1c0.1-0.7-0.4-1.3-1-1.3c-3.7-0.4-7.4,0.8-10,3.4c-0.7,0.7-1.3,1.5-1.9,2.3c-1,1.3-1.9,2.5-3.1,3.1
			c-1.5,0.8-3.4,0.8-5.4,0.7c-1.2,0-2.5-0.1-3.7,0.1c-2.8,0.4-5.3,1.9-7.1,4c-0.9,1.1-1.6,2.3-2.3,3.5c-1.1,1.9-2.1,3.6-3.7,4.4
			c-0.6,0.3-0.8,1-0.6,1.6C349.3,398.5,349.7,398.8,350.2,398.8z"/>
		<path d="M526.9,326.8c-4.3-1.7-9.4-1-13.1,1.8c-0.8,0.6-1.6,1.4-2.4,2.1c-1.5,1.4-2.9,2.8-4.7,3.2c-1,0.2-2.1,0.2-3.3,0.1
			c-1.5-0.1-3-0.2-4.6,0.3c-1.8,0.6-3,1.8-4.3,3c-1,1-1.9,1.9-3,2.3c-1.2,0.5-2.7,0.4-4.2,0.3s-3-0.2-4.5,0.2
			c-2.4,0.6-4.4,2.5-5.2,4.9c-0.2,0.6,0.2,1.3,0.8,1.5c0.1,0,0.2,0.1,0.3,0.1c0.5,0,1-0.3,1.1-0.9c0.5-1.6,1.8-2.9,3.5-3.3
			c1.2-0.3,2.4-0.2,3.8-0.2c1.7,0.1,3.5,0.2,5.2-0.5c1.6-0.6,2.7-1.8,3.8-2.9c1.1-1,2.1-2,3.3-2.4c1.1-0.3,2.3-0.3,3.7-0.2
			c1.3,0.1,2.7,0.2,4-0.1c2.4-0.6,4.1-2.2,5.8-3.8c0.7-0.7,1.4-1.4,2.2-1.9c3-2.2,7.2-2.8,10.7-1.4c0.6,0.2,1.3-0.1,1.6-0.7
			C527.8,327.7,527.5,327,526.9,326.8z"/>
		<path d="M545.4,320.4c-0.6-0.3-1.3,0-1.6,0.6c-0.6,1.4-1.3,2.5-2.2,3.1c-0.5,0.4-1.1,0.6-2,0.8c-1.3,0.4-2.7,0.6-4.7,0.7
			c-0.7,0-1.2,0.6-1.1,1.3c0,0.6,0.6,1.1,1.2,1.1c0,0,0,0,0.1,0c2.2-0.1,3.8-0.4,5.2-0.8c1.1-0.3,2-0.7,2.7-1.2
			c1.2-0.9,2.2-2.3,3-4.1C546.3,321.3,546,320.6,545.4,320.4z"/>
		<path d="M521,339.4c-0.6-0.2-1.3,0.2-1.5,0.8c-0.3,1.1-1.5,2-3.1,2.5c-1.3,0.3-2.7,0.5-4.4,0.4c-0.5,0-1.1,0-1.6-0.1
			c-2.8-0.1-5.7-0.3-8.3,1.1c-0.8,0.5-1.5,1.1-2.2,1.7l-0.5,0.4c-0.7,0.7-1.4,1.3-2.1,1.9c-0.3,0.3-0.7,0.6-1,0.9
			c-0.5,0.4-0.5,1.2-0.1,1.7c0.2,0.3,0.6,0.4,0.9,0.4s0.6-0.1,0.8-0.3c0.3-0.3,0.6-0.6,1-0.8c0.7-0.6,1.5-1.3,2.1-1.9l0.5-0.4
			c0.6-0.5,1.1-1,1.7-1.3c2-1.1,4.5-1,7.1-0.8c0.5,0,1.1,0.1,1.6,0.1c1.9,0.1,3.6,0,5.1-0.4c2.4-0.7,4.2-2.2,4.7-4.1
			C522,340.3,521.7,339.6,521,339.4z"/>
		<path d="M370.3,242.3c1-0.6,2.1-1,3.2-1.5c0.5-0.2,0.9-0.3,1.3-0.2s0.7,0.3,1.2,0.6c2.7,1.4,5.8,1.9,8.7,1.2
			c0.4-0.1,0.8-0.2,1.2-0.3c0.6-0.2,1.2-0.3,1.7-0.3c1.3,0.1,2.5,1,3.8,2c0.3,0.2,0.6,0.5,0.9,0.7c1.2,0.9,2.8,1.6,4.4,1.6
			c1,0,2-0.3,2.8-1.1c0.5-0.5,0.5-1.2,0.1-1.7c-0.5-0.5-1.2-0.5-1.7-0.1c-0.9,0.9-2.8,0.3-4.2-0.7c-0.3-0.2-0.5-0.4-0.8-0.6
			c-1.4-1.1-3-2.4-5.2-2.5c-0.9,0-1.6,0.2-2.4,0.4c-0.3,0.1-0.7,0.2-1.1,0.2c-2.4,0.5-4.9,0.2-7-1c-0.6-0.3-1.2-0.7-2-0.9
			c-1-0.1-1.8,0.1-2.4,0.4h-0.1c-1.1,0.5-2.2,1-3.4,1.6c-0.6,0.3-0.8,1-0.5,1.6C369,242.4,369.7,242.6,370.3,242.3z"/>
		<path d="M375.7,231.1h0.2c1.6-0.4,3.2-0.7,4.5,0c0.3,0.1,0.6,0.4,1,0.6c0.2,0.2,0.4,0.3,0.7,0.5c1.4,0.9,3,1.3,4.7,1.3
			c1.6,0,3.3-0.4,4.7-1.3c0.6-0.4,0.7-1.1,0.4-1.7c-0.4-0.6-1.1-0.7-1.7-0.4c-2,1.3-4.8,1.3-6.8,0c-0.2-0.1-0.3-0.2-0.5-0.4
			c-0.4-0.3-0.9-0.7-1.4-0.9c-2-1.1-4.3-0.6-6.1-0.2h-0.2c-0.6,0.1-1.1,0.8-0.9,1.4C374.5,230.9,375.1,231.3,375.7,231.1z"/>
		<path d="M220.6,81.2c-0.9,1.6-2.8,2.4-4.8,3.2c-2.3,1-4.7,2-6,4.3c-0.8,1.5-0.9,3.3-1,4.9c-0.2,2.3-0.3,4.5-0.4,6.7
			c-0.1,2.2-0.2,4.4-0.4,6.7c0,0.7,0.5,1.2,1.1,1.3h0.1c0.6,0,1.2-0.5,1.2-1.1c0.2-2.3,0.3-4.5,0.4-6.7c0.1-2.2,0.2-4.4,0.4-6.7
			c0.1-1.4,0.2-2.8,0.7-3.8c0.9-1.6,2.8-2.4,4.8-3.2c2.3-1,4.6-2,6-4.2c0.3-0.5,0.5-1.1,0.7-1.6c0.2-0.4,0.3-0.8,0.5-1.2
			c1.1-2.5,4.3-3.9,6.9-3.2c0.6,0.2,1.3-0.2,1.5-0.9c0.2-0.6-0.2-1.3-0.9-1.5c-3.8-0.9-8,1.1-9.6,4.5c-0.3,0.5-0.5,1-0.6,1.5
			C220.9,80.4,220.8,80.8,220.6,81.2z"/>
		<path d="M203.3,90.1c0.1,0,0.3,0,0.4-0.1c0.6-0.2,1-0.9,0.7-1.5c-0.6-1.7,0.3-3.8,2-5c0.5-0.3,1.2-0.6,1.8-0.9
			c0.9-0.4,2-0.8,2.9-1.5c1.6-1.2,2.5-2.9,3.2-4.3l0.2-0.5c0.6-1.2,1.1-2.4,2-3.2c0,0,0.1,0,0.1-0.1c0.9-0.9,2.2-1.4,3.1-1.1
			c0.6,0.2,1.3-0.1,1.5-0.8c0.2-0.6-0.1-1.3-0.8-1.5c-1.9-0.6-4.1,0.1-5.6,1.7c-1.2,1.1-1.9,2.6-2.5,3.9l-0.2,0.5
			c-0.6,1.3-1.3,2.6-2.5,3.5c-0.6,0.5-1.4,0.8-2.3,1.2c-0.7,0.3-1.5,0.6-2.2,1.1c-2.7,1.8-3.9,5.1-3,7.8
			C202.3,89.8,202.8,90.1,203.3,90.1z"/>
		<path d="M527.9,241.5c-0.6,0.1-1.2-0.6-2-1.6c-0.2-0.2-0.3-0.4-0.5-0.5c-2.6-3-6.6-4.5-10.6-3.8c-0.9,0.2-1.8,0.4-2.7,0.7
			c-1.8,0.5-3.6,1.1-5.1,0.6s-2.5-1.9-3.6-3.3c-0.6-0.8-1.2-1.6-1.9-2.3c-2.1-2.1-4.9-3.3-7.8-3.5c-1,0-1.9,0.1-2.8,0.2
			c-0.9,0.1-1.7,0.1-2.5,0.1c-5.2-0.1-9.9-4.3-10.5-9.4c-0.1-0.7-0.7-1.1-1.3-1c-0.7,0.1-1.1,0.7-1,1.3c0.8,6.3,6.5,11.4,12.9,11.6
			c1,0,1.9-0.1,2.8-0.2c0.9-0.1,1.7-0.1,2.5-0.1c2.3,0.1,4.5,1.1,6.2,2.7c0.6,0.6,1.1,1.3,1.7,2.1c1.3,1.7,2.6,3.4,4.8,4.1
			c2.2,0.7,4.4,0.1,6.5-0.5c0.9-0.3,1.7-0.5,2.4-0.6c3.1-0.5,6.4,0.6,8.4,3c0.1,0.2,0.3,0.3,0.4,0.5c0.9,1.1,2.1,2.4,3.8,2.4
			c0.1,0,0.2,0,0.2,0c0.7,0,1.2-0.6,1.1-1.3C529.1,241.9,528.6,241.4,527.9,241.5z"/>
		<path d="M518.8,249.3c-0.3-0.2-0.6-0.5-0.9-0.7c-0.8-0.6-1.6-1.3-2.6-1.7c-2-0.9-4-0.7-5.9-0.5c-0.6,0.1-1.3,0.1-1.9,0.2
			c-4.8,0.2-9.7-2.6-11.9-6.7c-0.3-0.6-1-0.8-1.6-0.5s-0.8,1-0.5,1.6c2.7,5,8.4,8.1,14.1,7.9c0.7,0,1.4-0.1,2-0.2
			c1.7-0.2,3.3-0.3,4.7,0.3c0.7,0.3,1.3,0.8,2,1.4c0.3,0.3,0.7,0.5,1,0.8c3.3,2.6,6.9,3.6,10.1,3.6c2.8,0,5.4-0.8,7.2-2.1
			c0.5-0.4,0.7-1.1,0.3-1.7s-1.1-0.7-1.7-0.3C528.9,253.8,522.7,252.3,518.8,249.3z"/>
		<path d="M322.7,411.9c2.2-2.3,4.3-4.4,7-4.5c0.7,0,1.2-0.6,1.2-1.2s-0.6-1.2-1.2-1.2c-3.7,0.1-6.2,2.7-8.7,5.2
			c-1.7,1.7-3.4,3.5-5.4,4.3c-3.2,1.4-6.7,0.5-10.4-0.5c-1.4-0.4-2.8-0.7-4.1-1c-4.3-0.8-8.8-0.5-12.9,0.8c-1.1,0.4-2.1,0.8-3.1,1.2
			c-2,0.8-3.8,1.5-5.8,1.9c-4.9,0.8-10.3-1.5-13-5.7c-0.4-0.6-1.1-0.7-1.7-0.3c-0.6,0.4-0.7,1.1-0.3,1.7c2.8,4.3,7.8,6.9,12.9,6.9
			c0.8,0,1.6-0.1,2.5-0.2c2.2-0.3,4.3-1.2,6.3-2c1-0.4,2-0.8,3-1.1c3.8-1.3,7.8-1.5,11.7-0.8c1.3,0.2,2.6,0.6,4,0.9
			c4,1,8.1,2.1,12,0.4C319,415.7,320.9,413.8,322.7,411.9z"/>
		<path d="M360.1,413.9c0.2-0.6-0.2-1.3-0.8-1.5c-0.6-0.2-1.3,0.2-1.5,0.8c-1.2,4.1-6.5,5.7-10.7,5.7c-1.4,0-2.9-0.1-4.4-0.1
			c-3.4-0.2-7-0.4-10.4,0.8c-2.7,0.9-4.9,2.6-7,4.2c-0.6,0.4-1.2,0.9-1.8,1.3c-3.4,2.3-6,3.2-8.5,2.9c-0.7-0.1-1.3,0.4-1.3,1
			c-0.1,0.7,0.4,1.3,1,1.3c0.4,0,0.8,0.1,1.2,0.1c3.5,0,6.8-1.9,9-3.4c0.6-0.4,1.2-0.9,1.8-1.3c2-1.5,4.1-3,6.4-3.8
			c3-1,6.1-0.9,9.5-0.7c1.5,0.1,3,0.2,4.6,0.1C352.2,421.3,358.5,419.3,360.1,413.9z"/>
		<path d="M314.5,297c-0.2,2.3-0.5,4.9-2.3,6c-1,0.6-2.3,0.7-3.8,0.8c-1.7,0.1-3.7,0.2-5.2,1.4c-2,1.6-2.3,4-2.6,6.2l-0.1,0.7
			c-0.2,1.8-0.8,4.1-2.5,4.5c-0.5,0.2-1.2,0.1-1.9,0c-0.6-0.1-1.2-0.1-1.8-0.1c-2.9,0.2-5.5,2.7-6.3,5.9c-0.6,2.6-0.2,5.1,0.2,7.5
			l0.1,0.5c0.1,0.6,0.6,1,1.2,1c0.1,0,0.1,0,0.2,0c0.7-0.1,1.1-0.7,1-1.4l-0.1-0.5c-0.4-2.2-0.7-4.5-0.2-6.6c0.5-1.9,2-3.9,4.1-4.1
			c0.4,0,0.9,0,1.4,0.1c0.9,0.1,1.9,0.2,2.8-0.1c2.3-0.6,3.7-2.8,4.2-6.5l0.1-0.8c0.2-1.9,0.4-3.7,1.7-4.6c0.9-0.7,2.3-0.8,3.8-0.9
			c1.6-0.1,3.4-0.2,5-1.2c2.9-1.8,3.2-5.7,3.4-7.8c0.1-0.7-0.4-1.2-1.1-1.3C315.1,295.8,314.5,296.3,314.5,297z"/>
		<path d="M291.7,293.6c-1.8,0.9-2.4,2.9-2.7,4.4c-0.3,1.8-0.4,3.6-0.3,5.4c0,0.6,0.6,1.1,1.2,1.1c0,0,0,0,0.1,0
			c0.7,0,1.2-0.6,1.1-1.3c-0.1-1.6,0-3.2,0.3-4.8c0.3-1.6,0.8-2.4,1.5-2.8c0.6-0.4,1.4-0.3,2.4-0.3c0.6,0,1.2,0,1.9,0
			c2.2-0.2,4-1.7,5.6-2.9c0.9-0.7,2-1.6,2.7-2.8c0.9-1.5,1-3.2,0.2-4.5c-0.3-0.6-1.1-0.8-1.6-0.4s-0.8,1.1-0.4,1.6
			c0.4,0.6,0.1,1.5-0.2,2.1c-0.5,0.9-1.4,1.6-2.2,2.2c-1.4,1.1-2.8,2.2-4.3,2.4c-0.5,0.1-1,0-1.5,0
			C294.2,293,292.9,292.9,291.7,293.6z"/>
		<path d="M545.1,103.3l0.2,0.1c4.1,1.2,7,5.8,6.2,10c-0.2,0.9-0.5,1.8-0.8,2.7c-0.7,2-1.4,4.1-1,6.3c0.6,2.9,2.9,4.6,5.2,6.3
			c1.5,1.1,2.9,2.2,3.8,3.5c1.6,2.5,1.1,5.8,0.7,9.1c-0.1,0.8-0.2,1.6-0.3,2.3c-0.5,4.9,1.1,10.5,5.7,11.6c0.1,0,0.2,0,0.3,0
			c0.5,0,1-0.4,1.2-0.9c0.1-0.6-0.3-1.3-0.9-1.4c-3.4-0.8-4.2-5.8-3.9-9c0.1-0.7,0.2-1.5,0.3-2.3c0.5-3.5,1-7.5-1.1-10.7
			c-1.1-1.7-2.8-3-4.4-4.2c-2-1.5-3.8-2.8-4.2-4.8c-0.3-1.6,0.3-3.3,0.9-5.1c0.3-1,0.7-2,0.9-3.1c1-5.4-2.6-11.2-7.8-12.8l-0.2-0.1
			c-0.3-0.1-1-0.3-1.1-0.5c0,0,0-0.1-0.1-0.1c-0.1-0.1-0.1-0.4,0-1c0.4-4,1.1-7.7,2.2-11.3c0.2-0.6-0.2-1.3-0.8-1.5
			s-1.3,0.2-1.5,0.8c-1.1,3.7-1.8,7.6-2.2,11.6c-0.1,0.7-0.2,1.9,0.5,2.8C543.2,102.8,544.3,103.1,545.1,103.3z"/>
		<path d="M529.7,104.5c1.6,0.8,3.2,1.6,4.2,2.9c1.2,1.5,1.6,3.6,1.2,6.8c-0.1,0.6-0.2,1.3-0.2,1.9c-0.3,2.1-0.6,4.2-0.2,6.5
			c0.7,3.8,3.4,7.1,7.1,8.4c0.1,0.1,0.3,0.1,0.4,0.1c0.5,0,0.9-0.3,1.1-0.8c0.2-0.6-0.1-1.3-0.7-1.5c-2.8-1.1-5-3.7-5.5-6.6
			c-0.3-1.9,0-3.8,0.3-5.8c0.1-0.6,0.2-1.3,0.2-1.9c0.3-2.4,0.4-5.9-1.8-8.6c-1.3-1.6-3.2-2.6-4.9-3.5c-2.1-1.1-3.9-2-4.6-3.9
			c-0.5-1.3-0.2-2.9,0.2-4.4c0.4-1.9,0.8-3.8,1.2-5.6c0.4-1.9,0.8-3.8,1.2-5.7c0.1-0.6-0.3-1.3-0.9-1.4c-0.6-0.1-1.3,0.3-1.4,0.9
			c-0.4,1.9-0.8,3.8-1.2,5.6c-0.4,1.9-0.8,3.8-1.2,5.6c-0.4,1.9-0.8,3.9-0.1,5.8C524.9,102.1,527.3,103.3,529.7,104.5z"/>
		<path d="M668.2,186.3l-0.2-0.1c-0.4-0.2-0.5-0.3-0.6-0.5c-0.4-0.5,0.2-1.7,0.6-2.7c1.9-4.1,1.9-8.9,0.1-13
			c-1.9-4.1-5.4-7.3-9.8-8.6c-0.6-0.2-1.3,0.2-1.5,0.8s0.2,1.3,0.8,1.5c3.7,1.1,6.7,3.7,8.2,7.2c1.5,3.4,1.5,7.5-0.1,11
			c-0.7,1.4-1.6,3.4-0.4,5.1c0.4,0.5,0.9,0.8,1.4,1.1l0.2,0.1c4,2.5,5.5,8.4,3.3,12.5c-0.4,0.7-0.9,1.4-1.4,2.2
			c-1.2,1.7-2.5,3.5-2.6,5.8c0,0.7,0.5,1.2,1.2,1.2l0,0c0.6,0,1.2-0.5,1.2-1.2c0.1-1.6,1.1-3,2.2-4.5c0.5-0.8,1.1-1.5,1.6-2.4
			C675.2,196.8,673.3,189.5,668.2,186.3z"/>
		<path d="M685,184.1l-0.3-0.2c-0.6-0.4-1.1-0.8-1.3-1.3c-0.2-0.4-0.1-1,0-1.7c0.6-5.7-0.6-11.7-3.4-16.7c-0.3-0.6-1.1-0.8-1.6-0.5
			c-0.6,0.3-0.8,1.1-0.5,1.6c2.6,4.6,3.7,10.1,3.2,15.3c-0.1,0.9-0.2,1.9,0.2,2.9c0.5,1.1,1.3,1.7,2.1,2.3l0.3,0.2
			c4.9,3.8,6.4,11.2,3.3,16.4c-0.3,0.6-0.1,1.3,0.4,1.6c0.2,0.1,0.4,0.2,0.6,0.2c0.4,0,0.8-0.2,1-0.6
			C692.6,197.4,690.9,188.6,685,184.1z"/>
	</g>
</g>
</svg>
