<?xml version="1.0" encoding="UTF-8" standalone="no"?>
<!-- Generator: Adobe Illustrator 21.0.0, SVG Export Plug-In . SVG Version: 6.00 Build 0)  -->
<svg version="1.1" id="Layer_1" xmlns="http://www.w3.org/2000/svg" xmlns:xlink="http://www.w3.org/1999/xlink" x="0px" y="0px"
	viewBox="0 0 800 600" style="enable-background:new 0 0 800 600;" xml:space="preserve">
<g>
	<path class="st0" d="M69.9,239c0,176.8,428,305.1,428,11.5S69.9,63.7,69.9,239z"/>
	<path class="st0" d="M122.7,474.2c42.2,108.2,237.9,22.8,172.2-71.4S92.7,397.3,122.7,474.2z"/>
	<path class="st0" d="M327.9,143.6c-157,134.3,39.4,559.4,314.9,338C891.6,281.6,561.7-56.3,327.9,143.6z"/>
	<path class="st1" d="M303,385h229.8c0,0-28.4-43.1-67-30.2c-71.7,24.1-53.8-11.2-62.4-24.5C387.4,305.6,331.8,344,303,385z"/>
	<path class="st1" d="M642.8,481.6c0.4-0.3,0.7-0.6,1.1-0.9c-4.8,0-9.8,0.7-15,2.3c-76.2,22.7-57.2-10.6-66.3-23.1   c-17.1-23.4-76.3,12.8-106.8,51.6h143.9C613.8,503.3,628.2,493.4,642.8,481.6z"/>
	<path class="st1" d="M311.3,149.2h198c0,0-24.4-33-57.7-23.1c-61.7,18.4-46.3-8.6-53.7-18.7C384,88.4,336,117.8,311.3,149.2z"/>
	<path class="st1" d="M730.8,330.4c-36.6,8.4-25.9-24.7-32.5-38.5c-14.7-30.2-65.3,16.6-91.4,66.7h119.4   C728.6,349.1,730,339.7,730.8,330.4z"/>
	<path class="st1" d="M708.6,222.2c-14.7-7.4-27.2-6.5-33.7,7c-9.5,19.6,10.3,71.8-68.9,36.2c-42.7-19.2-74,44.7-74,44.7h199.4   C730.6,279.6,722.5,249.7,708.6,222.2z"/>
	<path class="st1" d="M511.6,198.1H295.7c0,0,26.7-40.5,62.9-28.4c67.3,22.6,50.5-10.5,58.6-23C432.4,123.4,484.6,159.5,511.6,198.1   z"/>
	<path class="st1" d="M77.1,278.7H224c-24.1-49.2-70.9-95.2-84.4-65.4c-7.2,15.9,7.8,58.1-52.4,29.3c-6.1-2.9-11.9-3.5-17.3-2.4   C70.1,253.4,72.6,266.3,77.1,278.7z"/>
	<path class="st1" d="M127.3,464.3c-2.7-1-5.4-1.9-8-2.7c0.7,4.2,1.8,8.4,3.4,12.6c2.3,5.9,5.1,11.3,8.3,16.1h122   C148.6,343,188.7,487.8,127.3,464.3z"/>
	<path class="st2" d="M261.3,126.6c-31.3,11.6-17.7,32-13.4,43.6c3.6,9.7,3.7,18.7,0.1,24.4c-1-0.5-1.8-0.7-2-0.8l-9.5-12.9   c12-15.9-1.4-24-1.4-24c1.9-9.2-6.5-12.6-6.5-12.6c2.3-12.2-6.6-14.6-6.6-14.6c1.4-10.9-7.4-12.7-7.4-12.7   c0.2-9.1-6.6-10.8-6.6-10.8c0.4-11-7.2-12.8-7.2-12.8c-2.4-13.6-9.5-14.1-9.5-14.1c2.3,11.3-6.3,34.3-11,56.8s-3.5,31.9,4.8,36.6   c0.9,0.4,1.8,0.7,2.6,1l2.7,1.5c-2.7,4.3-4.2,8.6-2.5,9.9l0,0c0,0,20.1,9.4,39.2,25.2l-0.1,0.1c-0.3,0.5-0.3,1.1-0.2,1.7l0,0   c0.8,3.2,6.8,7.3,8.8,7.1c0.5,0,1-0.2,1.6-0.4c15.3,15.8,27.1,37.4,30.8,44.5c0.8,1.6,2.6,2.5,4.4,2.4c2.4-0.2,5.9-1,10.1-3.1   l0.1-5.4l5.2,2.1c1.7-1.2,3.4-2.7,5.1-4.4c8.8-8.7,8.5-16.6,7.9-20c-0.2-1-0.8-1.9-1.7-2.5c-5.2-3.1-25.4-15.6-45.5-31l0,0   c0-1.9-0.9-3.3-2.2-4.4c1.4-0.9,2.4-2,2.4-2c33,3.9,29.4-14.6,29.4-14.6c7.7-3,6.6-12.6,6.6-12.6c10.4-3.7,8.1-13.8,8.1-13.8   c8.4-4.6,6.1-13.3,6.1-13.3c7.1-3.6,5.1-11.7,5.1-11.7c8.5-4.5,6.3-13.3,6.3-13.3c9.2-5.9,6.1-15.9,6.1-15.9   C316.1,106.4,292.6,115,261.3,126.6z M245.5,193.2c0.1,0.1,0.2,0.2,0.2,0.3C245.6,193.4,245.5,193.3,245.5,193.2L245.5,193.2z"/>
	<path class="st2" d="M370.3,461.3c-2.2,3.9-3.8,6.6-3.8,6.6l4.9,10.6l42.2,27.3l42.2-27.3l4.9-10.6l-18.8-32.7l-28.3-14.5   l-28.4,14.5C385.3,435.2,375.8,451.8,370.3,461.3z"/>
	<path class="st2" d="M416.6,240.3c7.9-9.5,6.2-15.3-2.5-39.6c-7-19.4,15-26.4,33-32.9c24.2-8.7,36.5-14.7,40-19.2   c1.7,4.3,0.2,10.7-5.8,15l0.2-0.2c0,0,2.4,7.5-5.9,12.4l0,0c1.4,4-0.5,8.1-4.7,10.9c1.6,4.3-0.4,9.5-5.7,12.5c0,0,3.2,8.4-7.5,12.9   c0,0,2,7.8-6.1,11.7l0,0c0,0,1.1,9.3-8.8,12.9c-8.2,2.9-12.2-0.6-17.5,1.2l-3.7,2C418.2,242,416.6,240.3,416.6,240.3z"/>
	<path class="st2" d="M647.4,173.2c0,0-2.5-6.1-7.8-13.1c-1.2-1.5-2.4-3-3.6-4.4c1.3-0.8,2.6-1.6,4-2.4c20.4-12,6.2-34.3-4.9-53.4   c-14.9-25.4-21.4-39.8-21.1-46.4c-4.6,2.6-8,9.3-5.9,17.5l-0.1-0.3c0,0-7.6,4.9-4,15.2c-4.2,2.4-5.5,7.5-3.9,13   c-4.5,2.7-6.6,8.6-4.2,15.1c0,0-9,5.1-2.9,16.9c0,0-7.5,5.4-3.2,14.8c0,0-7.9,7.4-1.7,17.9c1.9,3.3,5.2,6.1,7.2,7.6L579.1,188   c0.6-0.5,1.2-1.1,1.8-1.7l0,0c-1.7,1.3,1.5,7.2,5.6,12.6l-12.5-8.8l1.1,0.5c4.1,2.1,5.9,0.1,5.9,0.1c-0.8-0.9-1.6-1.8-2.2-2.6   c-7.1-9.1-5.2-16.9,2.4-42.9c6.7-22.7-19-29.2-40.2-35.5c-28.3-8.3-42.8-14.3-47.2-19.3c-1.6,5,0.5,12.2,7.7,16.8l-0.3-0.2   c0,0-2.2,8.8,7.6,13.8c-1.4,4.6,1.1,9.2,6.1,12.1c-1.5,5.1,1.1,10.8,7.3,13.9c0,0-3.1,9.9,9.5,14.3c0,0-1.8,9.1,7.8,13   c0,0-0.6,10.8,11,14.2c9.6,2.8,13.9-1.5,20.2,0.2l2.7,1.2c-0.4,0.4-2.4,2.3-2.3,3.6l0,0c-23.6,13.2-46.8,23.5-52.8,26   c-1,0.5-1.8,1.3-2.2,2.4c-1.2,3.5-2.6,11.8,5.4,22.3c1.6,2.1,3.2,3.9,4.7,5.4l5.9-1.4l-0.7,5.7c4.1,2.9,7.8,4.2,10.3,4.8   c1.9,0.5,3.8-0.3,5-1.9c5-7,20.7-28,39.2-42.5c0.5,0.3,1.1,0.5,1.6,0.6c2,0.5,9-3,10.4-6.2l0,0c0.3-0.6,0-1.9,0-1.9   c16.8-11.9,45.3-20.8,45.3-20.8l0,0c2-1.1,1-5.9-1.2-10.8L647.4,173.2z"/>
	<path class="st2" d="M198.1,397.2c-2.2,3.9-3.8,6.6-3.8,6.6l4.9,10.6l42.2,27.3l42.2-27.3l4.9-10.6l-18.8-32.7l-28.3-14.5   L213,371.1C213.1,371.2,203.6,387.7,198.1,397.2z"/>
	<path class="st2" d="M540.2,405.5c-2.2,3.9-3.8,6.6-3.8,6.6l4.9,10.6l42.2,27.3l42.2-27.3l4.9-10.6l-18.8-32.7l-28.3-14.5   l-28.4,14.5C555.2,379.4,545.7,396,540.2,405.5z"/>
	<path class="st2" d="M487.5,148.1c0,0-1.1,2.5-8,6s-40.2,15.9-46.6,18.6s-23.9,12.8-19.7,24.9c4.1,12.2,14.1,34.1,3.7,43.2   c0,0,4.4,0.3,8.9-3.9c0,0,14.8,4.2,22.5-3.3c5.6-5.4,4.2-9.8,4.2-9.8s7.1-4.8,6.1-10.1c0,0,8.8-7.8,7.3-13.9c0,0,7.9-7.8,5.6-13.3   c0,0,6.1-4.9,4.4-11c0,0,8-6.3,6.2-12.4C482,163.2,490.2,154.6,487.5,148.1z"/>
	<path class="st2" d="M295.9,302.3c0,0,2.7-0.6,7.6-6.5c4.9-6,24.4-35.7,28.4-41.3c4-5.6,15.3-21.9,28.6-13.8   c11,6.7,30.2,19.2,41.3,11.1c0,0-0.7,6.4-5.7,9.9c0,0,0.9,15.4-8.1,21.3c-6.5,4.2-10.5,1.9-10.5,1.9s-6.2,5.9-11.2,3.7   c0,0-9.5,6.9-15.2,4c0,0-9.3,6-14.2,2.6c0,0-6.2,4.9-11.7,1.9c0,0-8,6.4-13.4,3.3C311.8,300.3,301.7,306.4,295.9,302.3z"/>
	<path class="st2" d="M384.6,192.5c-4.2,0.7-30.2,17.4-22.4,30.7c0,0,22.9,19.9,36.2,30c0,0,1.1,2.6,5.7,7.4   c6.3,18.1,24.4,46.6,24.4,46.6c2,3.8,17.1,0.4,24.9-8.6l3.7-4.5c0,0,6.5-10.3,2.3-13.2c-4.2-2.9-21.9-21.6-37.4-33.3   c0,0,1.3-5.1-3.6-9.6c-1.7-1.5-3.7-0.9-3.7-0.9s-10.2-24.8-18.3-38.7c0,0-3.7-3.5-9.6-0.5L384.6,192.5z"/>
	<path class="st3" d="M618.2,168.4c0,0,9.3,11.7-7.9,22.7c-17.2,11.1-19.8,12.7-19.8,12.7s2.3,4,5.4,3.9c0,0,30.1-17.4,47.1-21.6   C643.1,186.1,636.1,190.3,618.2,168.4z"/>

		<ellipse transform="matrix(0.2815 -0.9596 0.9596 0.2815 222.3839 703.8542)" class="st3" cx="581.2" cy="203.4" rx="4.7" ry="4.7"/>
	<path class="st3" d="M644.5,174.3c0,0-14.9-29.1-27-25.7c-3.4,1-4.9,5.6-4.9,5.6l2,7.7l3.6,6.5c0,0,7.4,8.5,10.1,10.9l2.8-1.3   c0,0-14.5-12.9-14.6-22.8l3-3.3c0,0-2.8,7.4,15,24.6l-5.6,3.4c0,0,7.3,6.9,12.1,6.7s-9.7-23.2-20.7-34.5c0,0,6.3-2.9,21.6,23.3   L644.5,174.3z"/>
	<path class="st3" d="M581.2,211c0,0-0.2,0.2-0.6,0.4c-2.4-2.8-8.3-10.1-10.7-17.1l-3.2,1.7c0,0,13.7,15.1-0.6,26.9l0,0   c-5.5,4.4-11.6,9.5-17.2,14.4c-11.9,10.4-30.9,1.8-30.9,1.8s2.9,6.4,8.1,10.7l5.2,4.3c0,0,11.2,8.9,15.2,2.9   c17.1-25.3,39.7-42.9,39.7-42.9L581.2,211z"/>
	<path class="st3" d="M607.9,70.8c0,0-6.5,4.7,6.4,23.5c12.9,18.7,26,41.8,23.8,51.6c0,0,11.8-7-11.7-42   C612.6,83.3,608.4,73.9,607.9,70.8z"/>
	<path class="st3" d="M613.9,53.6c0,0,0,14.7,23.1,49.8s10.7,46.5-1.1,52.3l-3.1-3.2c10.2-5.6,18.1-10.5,8.7-32.1   S602.6,70.1,613.9,53.6z"/>
	<path class="st3" d="M603.9,86c16.5,33.1,38.4,52,26.7,64.5c0,0,1.1-11.2-17.9-40C602.7,95.6,600,90.4,603.9,86z"/>
	<path class="st3" d="M600,99.1c0,0-6.5,5.7,7.6,25c8.8,12,11.9,20.7,11.9,20.7l5.8,1.5c0,0-2.9-10.5-11.6-24.2   C605,108.4,600,99.1,600,99.1z"/>
	<path class="st3" d="M595.9,114.2l18.9,32l-3.4,5C597.3,127.1,593.3,126,595.9,114.2z"/>
	<path class="st3" d="M593,131.1c0,0,10.9,17.4,14.5,25.2l-3.8,4.8C596.2,148,588.4,138.6,593,131.1z"/>
	<path class="st3" d="M589.7,145.9c0,0-4.5,15.4,8.1,22.4l3.6-4.3L589.7,145.9z"/>
	<path class="st3" d="M493.9,90.6c0,0,6,7.1,37,16.2s57.2,15.1,50.5,38s-11.2,35.5-0.3,46.1c0,0-16.4-2.7-6.5-33.4   c10.3-31.9,4.6-30.4-45.7-45.2C502,104.4,496.7,101.6,493.9,90.6z"/>
	<path class="st3" d="M501.3,107.2c0,0,8,3.8,36.6,11.5s40.1,12.6,36,27.6c0,0,3.4-12.5-37.1-22   C496.5,114.9,501.3,107.2,501.3,107.2z"/>
	<path class="st3" d="M508.9,121c0,0,1.4,7.3,13,9.4c11.6,2.1,40.4,9.3,50.4,20.6c0,0,8.6-9.3-22.8-18.5   C517.9,123.2,508.9,121,508.9,121z"/>
	<path class="st3" d="M514.9,133.2c0,0,1.3,5.9,8.1,7.9c6.7,2,39.5,8.2,46.8,19.1c0,0,8.4-8.5-24-18.1   C526,136.3,514.9,133.2,514.9,133.2z"/>
	<path class="st3" d="M522.3,147.1c0,0,11.4,3.5,23.5,6s24,7.1,22.7,16.6c0,0-1.3-6.5-24.5-11.6   C528.8,154.7,522.2,151.9,522.3,147.1z"/>
	<path class="st3" d="M531.8,161.4c0,0,15.1,3.9,18.5,5s17.4,3.8,18.2,13.6c0,0-6.4-6-19.6-8.2C535.6,169.5,531.5,165.1,531.8,161.4   z"/>
	<path class="st3" d="M539.6,174.4c0,0,3.8,8.8,13.6,10.1c9.8,1.4,15.3,1.1,18.6,3.7C571.8,188.2,572.2,179.3,539.6,174.4z"/>
	<path class="st3" d="M381.4,219.9c0,0,10.1-8.2,19.9,6.6s11.3,17.1,11.3,17.1s3.4-2,3.4-4.8c0,0-11.5-25.8-19.3-40.8   C396.6,198.1,400.3,204.1,381.4,219.9z"/>
	<path class="st3" d="M418.9,251.7c0,0,12.5,15.6,23.2,27.7c9.1,10.3,1.9,26.9,1.9,26.9s5.5-2.6,9.2-7.2l3.7-4.5   c0,0,6.7-8.8,2.4-13.3c-15.8-16.7-37.8-34.1-37.8-34.1L418.9,251.7z"/>

		<ellipse transform="matrix(0.2697 -0.9629 0.9629 0.2697 58.6492 580.9525)" class="st3" cx="412.3" cy="251.8" rx="4.1" ry="4.1"/>
	<path class="st3" d="M385.4,194.6c0,0-25.7,11.8-21.7,26.1c1.2,4.2,5.4,4.2,5.4,4.2c11.6-2,19.6-11.5,21.6-13.9l-2-3.1   c0,0-11,12.7-19.7,13l-2.1-1.9c0,0,6.5,2.3,21.3-13.3l3,4.9c0,0,6.7-6.5,5.7-10.6c-1.6-6.7-21.3,7.8-29.8,18.4   c0,0-3.5-7.8,19.2-21.4L385.4,194.6z"/>
	<path class="st3" d="M404.4,261.7l1.6,2.7c0,0,13-12.1,23.4,0.2l-9.2-13.3C420.3,251.3,412.2,258.9,404.4,261.7z"/>
	<path class="st3" d="M297,301.8c0,0,7.4-3.4,22.2-27.3c14.8-23.9,26-44.5,43.6-33.5s27.1,17.6,38.6,11c0,0-6.1,13.1-29.6-2.4   c-24.3-16.1-24.4-11-48.5,27.8C310.5,298.2,306.9,302,297,301.8z"/>
	<path class="st3" d="M312.7,299.5c0,0,5.1-5.8,18.2-28s19.9-30.7,31.6-23.8c0,0-9.7-5.7-27.1,26   C317.9,305.3,312.7,299.5,312.7,299.5z"/>
	<path class="st3" d="M326,296.3c0,0,6.4,0.5,10.9-8.7s17.2-31.7,29-37.5c0,0-5.8-9.4-20.8,14.9S326,296.3,326,296.3z"/>
	<path class="st3" d="M337.6,294.1c0,0,5.3,0.2,8.5-5s16-31.3,26.9-34.8c0,0-5.2-9.1-20.7,15.9C342.8,285.5,337.6,294.1,337.6,294.1   z"/>
	<path class="st3" d="M351,291.1c0,0,5.6-8.8,10.5-18.3c4.9-9.6,11.5-18.5,19.2-15.2c0,0-5.7-0.5-15.5,17.9   C358.9,287.5,355,292.4,351,291.1z"/>
	<path class="st3" d="M365.2,286.5c0,0,6.8-11.8,8.5-14.4s7.2-13.7,15.7-12.1c0,0-6.5,4-11.5,14.5S368.2,287.6,365.2,286.5z"/>
	<path class="st3" d="M377.9,283c0,0,8.3-1.2,11.7-9c3.4-7.9,4.5-12.5,7.4-14.8C397,259.2,389.6,256.7,377.9,283z"/>
	<path class="st3" d="M487.1,148.7c0,0-4.8,6.5-31.3,16s-48.9,16.1-41.9,35.6s11.5,30.2,2.7,40c0,0,14.1-3.2,3.9-29.4   c-10.6-27.2-5.6-26.2,37.3-41.6C480.7,161.1,485.2,158.4,487.1,148.7z"/>
	<path class="st3" d="M481.5,163.5c0,0-6.8,3.7-31.2,11.9s-34.2,13-29.9,25.9c0,0-3.6-10.7,31.1-21.1   C486,169.9,481.5,163.5,481.5,163.5z"/>
	<path class="st3" d="M475.6,175.9c0,0-0.8,6.4-10.8,8.8s-34.6,10.2-42.7,20.5c0,0-7.9-7.6,18.9-17.3S475.6,175.9,475.6,175.9z"/>
	<path class="st3" d="M471,186.7c0,0-0.9,5.2-6.6,7.3c-5.8,2.1-33.9,9.1-39.7,19c0,0-7.8-7,19.9-16.9C461.5,190,471,186.7,471,186.7   z"/>
	<path class="st3" d="M465.3,199.2c0,0-9.8,3.6-20.1,6.4c-10.4,2.8-20.5,7.4-18.8,15.6c0,0,0.8-5.7,20.7-11.4   C460.1,206.2,465.7,203.4,465.3,199.2z"/>
	<path class="st3" d="M457.8,212.1c0,0-12.9,4.2-15.8,5.3s-14.9,4.2-15.1,12.8c0,0,5.2-5.5,16.6-8.2S458.2,215.3,457.8,212.1z"/>
	<path class="st3" d="M451.7,223.8c0,0-2.9,7.8-11.3,9.5s-13.2,1.8-16,4.2C424.4,237.5,423.6,229.8,451.7,223.8z"/>
	<path class="st3" d="M213.3,171.6c0,0-10.1,9.6,4.4,22.1s16.7,14.3,16.7,14.3s-2.6,3.4-5.6,2.9c0,0-25.6-20-40.8-26.2   C188,184.9,193.9,189.6,213.3,171.6z"/>
	<path class="st3" d="M242,215.9c0,0,14.9,15.4,26.3,28.5c9.7,11.1,28.4,5.7,28.4,5.7s-3.5,5.5-8.9,8.9l-5.3,3.3   c0,0-11.6,6.8-14.5,0.7c-12.5-25.7-31.1-44.9-31.1-44.9L242,215.9z"/>
	<ellipse transform="matrix(0.9894 -0.145 0.145 0.9894 -27.7229 37.4427)" class="st3" cx="243" cy="208.9" rx="4.4" ry="4.4"/>
	<path class="st3" d="M188.1,173.7c0,0,17.6-25,28.3-20.3c3.1,1.3,3.8,5.8,3.8,5.8l-2.8,6.8l-4.2,5.6c0,0-7.9,6.9-10.8,8.7l-2.4-1.6   c0,0,15.1-10,16.5-19.2l-2.4-3.5c0,0,1.6,7.2-17.1,20.8l4.8,3.9c0,0-7.6,5.5-12.1,4.6c-4.4-0.8,12-20.2,23.7-29.2   c0,0-5.5-3.5-23,18.8L188.1,173.7z"/>
	<path class="st3" d="M254.6,201.9l2.7,2c0,0-14.6,12.2-3,25l-13-11.6C241.3,217.3,250.6,209.8,254.6,201.9z"/>
	<path class="st3" d="M321.5,99.7c0,0-5.2,7-33.7,17s-52.6,17-45.2,38c7.5,21,12.2,32.5,2.7,43c0,0,15.2-3.4,4.3-31.5   c-11.3-29.2-5.9-28.2,40.3-44.5C314.6,113,319.5,110.1,321.5,99.7z"/>
	<path class="st3" d="M315.5,115.6c0,0-7.3,4-33.6,12.7s-36.8,13.8-32.2,27.7c0,0-3.8-11.5,33.5-22.5   C320.3,122.4,315.5,115.6,315.5,115.6z"/>
	<path class="st3" d="M309.1,128.9c0,0-0.9,6.9-11.6,9.4s-37.2,10.8-46,21.8c0,0-8.5-8.2,20.4-18.5S309.1,128.9,309.1,128.9z"/>
	<path class="st3" d="M304.1,140.5c0,0-1,5.6-7.1,7.8c-6.2,2.2-36.5,9.6-42.7,20.2c0,0-8.3-7.5,21.5-18.1   C293.9,144,304.1,140.5,304.1,140.5z"/>
	<path class="st3" d="M297.9,153.9c0,0-10.5,3.8-21.7,6.8s-22.1,7.8-20.3,16.7c0,0,0.8-6.1,22.3-12.1   C292.2,161.4,298.3,158.4,297.9,153.9z"/>
	<path class="st3" d="M289.8,167.7c0,0-13.9,4.5-17,5.6c-3.1,1.2-16,4.4-16.2,13.7c0,0,5.6-5.9,17.9-8.7   C286.6,175.5,290.2,171.2,289.8,167.7z"/>
	<path class="st3" d="M283.2,180.2c0,0-3.1,8.4-12.2,10.2s-14.2,1.8-17.2,4.4C253.8,194.8,253,186.5,283.2,180.2z"/>
	<g>
		<path class="st3" d="M200.7,116c7.2-20,0.2-22.8,0.2-22.8c0.3,3-1.3,12.4-8.8,34.3c-9.1,26.3-5.6,35.8-2.8,39.1    c0.4-0.5,0.8-1,1.2-1.5C188.5,155,194.3,134,200.7,116z"/>
		<path class="st3" d="M182.4,146.2c3.3-21.8,23.1-54.7,9-67c0,0,3.5,13.3-9,50.6c-8.8,26-4.6,37.5,2.8,42.8    c0.6-1.1,1.4-2.2,2.2-3.4C182.7,165.8,180.3,159.7,182.4,146.2z"/>
		<path class="st3" d="M199.3,157.4c0.8-6.3,2.7-15,6.8-27c5.4-16,6.6-21.3,2.1-24.3c-5.2,25.2-15,44.1-14.1,55.6    c0.5-0.5,1.1-1,1.6-1.4C196.9,159.2,198.1,158.3,199.3,157.4z"/>
		<path class="st3" d="M210.6,150.6c0.8-2.7,1.8-5.9,3.2-9.3c8.1-20.8,0.9-24.4,0.9-24.4s-2.3,9.6-6.9,24.1    c-1.5,4.8-2.5,9.1-3.2,12.7C206.8,152.4,208.8,151.3,210.6,150.6z"/>
		<path class="st3" d="M219.8,152.6c0.2,0.5,0.5,1,0.8,1.6c4.3-13.6,5.6-16.5,1.5-24.5l-5.7,20.2C217.8,150.2,219,151.1,219.8,152.6    z"/>
		<path class="st3" d="M228.8,144.2c0,0-2.6,8.4-4.7,16.2c1.2,2.2,2.6,4.7,4,7.1C231.2,157.1,233.7,149,228.8,144.2z"/>
		<path class="st3" d="M235.2,156.9l-4.8,14.8c1.3,2.2,2.7,4.4,3.9,6.3C242.4,168.7,235.2,156.9,235.2,156.9z"/>
	</g>
	<path class="st3" d="M441.9,435.2c0,0,2.2,12.8-8.5,18.9c-11.9,6.8,0.7,19.2-9,25.9c-10.8,7.5-10.9,16.9-10.9,16.9l47.1-29.1   l-47.1,37.9l-47.1-37.9c0,0,8.7-8.1,15.6-5.4c10.1,4,9-14.7,19.2-11.3c7.8,2.6,12.2-1.5,12.2-1.5l-28.3-14.5l-19.5,32.7l5.6,10.6   l41.5,27.3l1.2-56.1L441.9,435.2z"/>
	<path class="st3" d="M413.7,420.7l28.3,14.5c0,0-18-7.9-25.7-6.3s-11.4,4.8-19.5,4.6c-8-0.2-11.4,1.6-11.4,1.6L413.7,420.7z"/>
	<path class="st3" d="M269.7,371.2c0,0,2.2,12.8-8.5,18.9c-11.9,6.8,0.7,19.2-9,25.9c-10.8,7.5-10.9,16.9-10.9,16.9l47.1-29.1   l-47.1,37.9l-47.1-37.9c0,0,8.7-8.1,15.6-5.4c10.1,4,9-14.7,19.2-11.3c7.8,2.6,12.2-1.5,12.2-1.5l-28.3-14.5l-19.5,32.7l5.6,10.6   l41.5,27.3l1.2-56.1L269.7,371.2z"/>
	<path class="st3" d="M241.5,356.6l28.3,14.5c0,0-18-7.9-25.7-6.3s-11.4,4.8-19.5,4.6s-11.4,1.6-11.4,1.6L241.5,356.6z"/>
	<path class="st3" d="M611.8,379.4c0,0,2.2,12.8-8.5,18.9c-11.9,6.8,0.7,19.2-9,25.9c-10.8,7.5-10.9,16.9-10.9,16.9l47.1-29.1   l-47,38l-47.1-37.9c0,0,8.7-8.1,15.6-5.4c10.1,4,9-14.7,19.2-11.3c7.8,2.6,12.2-1.5,12.2-1.5l-28.3-14.5l-19.5,32.7l5.6,10.6   l41.5,27.3l1.2-56.1L611.8,379.4z"/>
	<path class="st3" d="M583.6,364.9l28.3,14.5c0,0-18-7.9-25.7-6.3s-11.4,4.8-19.5,4.6s-11.4,1.6-11.4,1.6L583.6,364.9z"/>
	<g>
		<path d="M640.6,159.4c-0.9-1.2-1.8-2.3-2.8-3.4c0.9-0.5,1.8-1.1,2.7-1.6c20.6-12.1,7.4-34.6-3.2-52.7l-1.3-2.2    c-14.6-24.9-21.2-39.5-20.9-45.7c0-0.4-0.2-0.8-0.6-1.1c-0.4-0.2-0.8-0.2-1.2,0c-3.1,1.7-5.4,4.9-6.5,8.7c-0.8,2.8-0.8,5.9-0.2,9    c-2.9,2.3-6.3,7.6-4.1,15.2c-3.8,2.7-5.2,7.7-3.9,13.1c-5,3.5-5.9,9.7-4.2,15.2c-1.2,0.9-3.4,3-4.3,6.4c-0.9,3.2-0.4,6.8,1.4,10.7    c-1.9,1.8-6.3,7-3.2,14.8c-1.8,2.1-6.9,9.3-1.3,18.8c2.1,3.6,4.4,5.7,6.5,7.2c-4.5,5.2-9.5,10.4-14.5,14.9    c-5.8-8.2-3.8-16.1,3.4-40.8c3-10.3,0.1-18.3-9.1-24.6c-7.8-5.3-18.7-8.5-29.2-11.6l-2.7-0.8c-27.6-8.1-42.4-14.1-46.6-18.9    c-0.3-0.3-0.7-0.5-1.1-0.4s-0.8,0.4-0.9,0.8c-1.1,3.4-0.6,7.4,1.3,10.9c1.4,2.6,3.4,4.8,6,6.6c-0.6,3.7,0.6,9.9,7.6,13.9    c-0.5,2.9,0.2,5.9,2.2,8.5c1,1.3,2.3,2.5,3.9,3.5c-1,4.9,1.2,10.7,7.4,14.1c-0.3,1.5-0.4,4.6,1.2,7.7c1.6,2.9,4.4,5.2,8.3,6.7    c-0.2,2.6,0.2,9.5,7.9,13c0.1,2.8,1.4,11.5,11.9,14.5c5.6,1.6,9.5,1,12.9,0.3c2.9-0.5,5.3-0.9,8.3,0.1c-0.6,0.7-1.3,1.7-1.5,2.6    c-15.5,8.7-33,17.4-52.1,25.6c-1.3,0.5-2.4,1.7-2.9,3.1c-1.4,4.2-2.6,12.9,5.6,23.4c9.4,12.1,20.4,14.8,20.8,14.9    c0.5,0.1,1,0.2,1.4,0.2c1.9,0,3.7-0.9,4.8-2.6c4-5.6,17.2-23.6,33.6-37.9c0.5,1.5,1.7,2.6,3.2,3v0.1c-1.9,0.6-3.4,2.3-3.6,4.5    c0,1-0.1,2-0.2,3c-0.1,1.3,0.2,2.5,1.1,3.4c0.5,0.6,1.2,1,1.9,1.2c0,0.1,0,0.2,0,0.3c-2,0.5-3.7,2.2-4,4.3c-0.1,0.5-0.2,1-0.2,1.5    c-0.1,0.5-0.2,1.1-0.3,1.6c-0.2,1.3,0.1,2.6,0.9,3.5c0.5,0.6,1.1,0.9,1.8,1.2l0,0c-2.1,0.4-3.9,2.2-4.2,4.4    c-0.1,0.5-0.2,1-0.2,1.5c-0.1,0.5-0.2,1.1-0.3,1.6c-0.2,1.3,0.1,2.5,0.9,3.4c0.5,0.6,1.2,1,1.9,1.2c0,0.1,0,0.2,0,0.3    c-2.1,0.4-3.8,2.3-4,4.5v0.3c-0.1,1-0.2,1.9-0.2,2.9c-0.1,1.3,0.4,2.4,1.2,3.3c0.6,0.6,1.4,1.1,2.2,1.3c0,0.1,0,0.1,0,0.2    c-0.8,0.2-1.5,0.7-2,1.3c-0.8,0.9-1.2,2.1-1.1,3.3c0.1,1.1,0.2,2.1,0.3,3.1c0.1,1.4,1.1,2.9,2.5,3.7c0.2,0.1,0.4,0.2,0.6,0.2    c0.4,0,0.8-0.2,1-0.6c0.3-0.6,0.2-1.3-0.4-1.6c-0.7-0.4-1.3-1.2-1.3-1.9c-0.1-1-0.2-2-0.3-3.1c-0.1-0.5,0.1-1,0.5-1.5    c0.1-0.1,0.2-0.2,0.3-0.3c0,0.4,0,0.9,0.1,1.3c0.1,0.6,0.6,1.1,1.2,1.1h0.1c0.7-0.1,1.2-0.6,1.1-1.3c0-0.4-0.1-0.8-0.1-1.2    c0.7,0.4,1.2,1.2,1.3,2.1c0.1,1,0.2,2,0.3,3.1c0.1,0.7,0.6,1.1,1.3,1.1c0.7-0.1,1.1-0.6,1.1-1.3c-0.1-1.1-0.2-2.1-0.3-3.1    c-0.1-2.2-1.7-4.1-3.8-4.5v-0.1c2-0.6,3.5-2.4,3.5-4.5c0-1,0.1-2,0.2-3c0.1-1.3-0.2-2.5-1.1-3.4c-0.5-0.5-1.1-0.9-1.8-1.1    c0-0.1,0-0.3,0-0.4c2-0.5,3.7-2.2,4-4.3c0.1-0.5,0.2-1,0.2-1.5c0.1-0.5,0.2-1.1,0.3-1.6c0.2-1.3-0.1-2.6-0.9-3.5    c-0.5-0.5-1.1-0.9-1.7-1.1v-0.1c2-0.5,3.8-2.2,4.1-4.4c0.1-0.5,0.2-1,0.2-1.5c0.1-0.5,0.2-1.1,0.3-1.6v-0.1    c0.1-1.3-0.2-2.6-1.1-3.5c-0.5-0.5-1.1-0.9-1.8-1.1c0-0.1,0-0.2,0.1-0.4c2.1-0.5,3.8-2.3,3.9-4.5c0.1-0.6,0.1-1.1,0.1-1.6    s0-1,0.1-1.5c0.1-1.3-0.4-2.5-1.2-3.4c-0.6-0.6-1.3-1-2.1-1.2l0,0c0.8-0.2,1.5-0.6,2.1-1.2c0.9-0.9,1.3-2.1,1.2-3.4    c-0.1-0.8-0.1-1.5-0.2-2.3c2.7-0.9,6.1-2.9,7.8-4.9c0.4-0.5,0.7-1,0.9-1.4c0.1-0.1,0.2-0.3,0.2-0.5c0.2-0.7,0.2-1.3,0.1-1.8    c17.9-10.9,38.2-17.9,43.2-19.6c0.5-0.1,1-0.2,1.4-0.5c0.5-0.3,1.2-1,1.5-2.3c0.4-2.1-0.3-5.4-1.7-8.9l4.3-1.7    c0.3-0.1,0.5-0.3,0.7-0.6c0.1-0.3,0.1-0.6,0-0.9C648.4,172.5,645.9,166.4,640.6,159.4z M609.2,61.9c0.7-2.5,2-4.6,3.7-6.1    c0.9,7.6,7.5,21.3,21.2,44.8l1.3,2.2c10.6,18,22.6,38.5,4,49.4c-1.1,0.6-2.1,1.3-3.1,1.9c-1.1-1.2-2.3-2.4-3.4-3.4    c1.4-0.9,2.8-1.7,4.4-2.6c2.7-1.6,4.4-3.8,5.1-6.6c2.4-9.7-7.4-26-21-48.5c-3.1-5.1-6.2-10.3-9.5-16    C608.8,71.9,607.9,66.5,609.2,61.9z M607.3,72.9c0.6,1.8,1.4,3.6,2.4,5.3c3.3,5.7,6.5,10.9,9.5,16c13.3,22.1,22.9,38,20.7,46.7    c-0.6,2.2-1.9,3.9-4,5.1c-0.3,0.2-0.6,0.3-0.9,0.5c2-10.3-12.6-32.8-22.3-47.8c-2.4-3.6-4.4-6.8-5.7-9.1    C601.6,80.5,605.2,75.1,607.3,72.9z M603.4,87.9c0.4,1,0.9,2,1.6,3.1c1.4,2.3,3.4,5.5,5.8,9.2c9,13.9,24,37.1,21.9,46.3    c-0.3,1.2-0.9,2.1-1.8,2.7c-1.5-1.2-3-2.3-4.4-3.1c-2.7-10.9-13.9-28.1-19.9-37.5c-1.6-2.4-2.8-4.3-3.4-5.4    C599.6,97.1,599.8,91,603.4,87.9z M599.4,101c0.4,1.1,0.9,2.2,1.6,3.3c0.7,1.1,1.9,3.1,3.5,5.5c5.6,8.7,15.7,24.2,19.1,34.7    c-1.4-0.6-2.7-0.9-3.9-1c-1.7-0.2-3.2,0.2-4.4,1c-3.6-7.5-9.1-15.8-13.2-22c-1.6-2.4-3-4.5-3.8-5.8c-0.5-0.8-0.8-1.6-1.2-2.4    c0-0.2,0-0.4-0.1-0.6c0-0.1-0.1-0.1-0.2-0.2C595,108.1,596.5,103.6,599.4,101z M642.9,184.4c-0.1,0.3-0.2,0.6-0.4,0.7    c-0.2,0.1-0.4,0.1-0.8,0.3c-1.9,0.2-5.6-1.2-10.9-5.6l4.4-2.3c0.4-0.2,0.6-0.5,0.6-0.9s-0.1-0.8-0.4-1c0,0-3.9-3.2-8.2-8.9    c-5.9-7.6-7.6-13.2-6.8-13.9c0.1-0.1,0.2-0.1,0.4-0.1c2.9,0.3,10.3,8.1,15.5,15.2c1.7,2.4,3.3,5.2,4.5,7.8c0,0.1,0,0.1,0.1,0.2    c0,0.1,0.1,0.2,0.1,0.3C642.5,179.5,643.3,182.7,642.9,184.4z M618.1,155.1c1.2,5,6.4,11.8,7.2,12.8c3,3.9,5.7,6.7,7.3,8.1    l-3.7,1.9c-1.8-1.6-3.9-3.6-6-5.9c-4.7-5-7-9.6-8-13.3L618.1,155.1z M592.4,120.8c0.6-2.3,1.9-3.8,2.9-4.7    c0.3,0.6,0.5,1.1,0.9,1.7c0.8,1.4,2.2,3.4,3.8,5.9c4.2,6.3,9.9,14.9,13.4,22.5c-0.1,0.2-0.3,0.4-0.4,0.7c-1,1.4-2.8,3.9-5.1,7    c-2.2-4.7-5.4-9.7-8.5-14.6c-1.6-2.5-3.2-5.1-4.7-7.5C592.4,127.7,591.6,124,592.4,120.8z M592.7,133L592.7,133    c1.5,2.5,3.1,5.1,4.7,7.6c3.3,5.2,6.8,10.6,8.8,15.5c-1.4,1.8-3,3.8-4.7,5.9c-1.7-2.8-3.8-5.9-6-9.1c-1-1.5-2.1-3.1-3.2-4.7    C587.2,140.3,590.7,135.1,592.7,133z M589.1,163.2c-4.3-7.2-1.4-12.8,0.4-15.2c0.3,0.5,0.5,1,0.9,1.4c1.1,1.6,2.2,3.2,3.2,4.7    c2.4,3.5,4.7,6.8,6.4,9.8c-1.6,1.9-3.2,3.9-4.9,5.9C593.1,168.5,591,166.6,589.1,163.2z M602.2,165c0.1-0.1,0.2-0.2,0.3-0.3    c2.1-2.6,4.1-5.1,5.8-7.4c0.2-0.1,0.4-0.3,0.4-0.6c1.1-1.4,2-2.7,2.9-3.8c0,1.4,0.1,3.3,0.6,5.6c0,0.3,0,0.5,0.2,0.7    c1.1,4,3.5,9.1,8.6,14.6c6.2,6.7,12,11.2,16.4,13c-8.7,3.1-26.6,10.1-42,19.9c-1.8-1.3-4.5-3.8-7.6-7.9    c-4.9-6.4-6.4-10.6-6.1-11.4l0.1-0.1C589.1,180.4,596.3,172.2,602.2,165z M583.1,214.9c0-0.3,0-0.5,0-0.8c0.2,0.2,0.4,0.3,0.6,0.4    C583.5,214.7,583.3,214.8,583.1,214.9C583.1,215,583.1,215,583.1,214.9z M585.2,208.4c-0.2-0.6-0.3-1.1-0.5-1.7    c-0.2-0.6-0.9-1-1.5-0.8s-1,0.9-0.8,1.5c0.2,0.5,0.3,1,0.4,1.5c-0.3,0-0.6-0.1-1-0.2c-1.2-0.3-2.1-1.1-2.7-2.2    c-0.6-1.1-0.7-2.3-0.4-3.4l0,0c0.3-1.2,1.1-2.1,2.2-2.7c0.7-0.4,1.4-0.6,2.2-0.6c0.4,0,0.9,0.1,1.3,0.2c2.4,0.7,3.8,3.2,3.1,5.6    C587.1,206.9,586.2,207.8,585.2,208.4z M496.1,100c-1.2-2.3-1.8-4.8-1.5-7.1c6,4.9,20.5,10.6,46.1,18.1l2.7,0.8    c10.4,3.1,21.1,6.2,28.6,11.3c8.3,5.7,10.9,12.6,8.1,21.9c-8.1,27.6-9.9,35.3-1,45.4c-0.7,0.1-1.8,0-3.4-0.9    c-2.9-1.5-5.5-4.2-6.2-10.7c0-0.1,0-0.2,0-0.4c0-0.1,0-0.1-0.1-0.2c-0.4-4.6,0.2-11,2.2-20.1c0.1-0.1,0.1-0.2,0.2-0.3    c0.1-0.4,0.2-0.9,0.2-1.3c0.5-2.2,1.1-4.6,1.8-7.2c0-0.1,0.1-0.1,0.1-0.2c0.1-0.3,0.1-0.5,0.2-0.8c0.4-1.6,0.9-3.3,1.4-5    c0.9-3,0.6-5.8-0.8-8.3c-4.8-8.7-23.1-13.8-48.5-21c-5.7-1.6-11.7-3.3-18-5.1c-2.3-0.7-4.4-1.6-6.2-2.8l0,0    C499.4,104.6,497.4,102.5,496.1,100z M502.3,109.2c1.6,0.9,3.4,1.6,5.3,2.2c6.3,1.9,12.2,3.5,18,5.1c24.8,7,42.7,12,47,19.8    c1.1,2,1.3,4.1,0.6,6.5c-0.1,0.3-0.2,0.6-0.3,0.9c-5.7-8.7-31.5-15.1-48.7-19.4c-4.3-1.1-8-2-10.6-2.8    C503.4,118.6,502.2,112.2,502.3,109.2z M511.6,128.7c-1.4-1.9-2-3.9-1.8-5.9c0.9,0.4,2,0.8,3.1,1.1c2.7,0.8,6.4,1.7,10.7,2.8    c16,4,42.8,10.6,47.5,18.7c0.5,0.9,0.7,1.8,0.6,2.8c-0.4,1.6-0.8,3.1-1.2,4.5c-6.2-7.9-31-13.9-44.5-17.1    c-2.6-0.6-4.7-1.1-5.9-1.5C516.4,132.9,513.5,131.1,511.6,128.7z M515.8,134.9c1.1,0.5,2.3,1,3.6,1.4c1.2,0.4,3.3,0.9,6,1.5    c11.8,2.9,39.4,9.6,43.7,17c0.3,0.5,0.5,1,0.5,1.5c-0.5,2.1-0.9,4.1-1.3,6c-5.1-5.8-20.2-9.8-35.5-13.4c-3-0.7-5.6-1.3-7.2-1.8    C520,145.5,515,140.7,515.8,134.9z M524.3,154.4c-1.1-2.1-1.2-4.2-1.1-5.5c0.6,0.2,1.1,0.4,1.7,0.6c1.6,0.5,4.1,1.1,7.3,1.8    c11.1,2.6,34.1,8,35.4,14.8c-0.4,2.7-0.6,5.1-0.7,7.4c-4.8-5.5-15-8.1-25-10.6c-2.8-0.7-5.8-1.4-8.5-2.2    C529,159.4,525.9,157.2,524.3,154.4z M532.9,163c2.7,0.8,5.6,1.5,8.5,2.2c11.7,2.9,23.9,6,25.7,13.5c0.1,0.9,0.2,1.8,0.4,2.6    c-4-2.6-10.3-4-17.7-5.6c-2.1-0.5-4.4-1-6.7-1.5c-1-0.2-2-0.5-2.8-0.9h-0.1C533.6,170.6,532.8,165.5,532.9,163z M562.8,187.8    c-3.3,0.6-6.8,1.2-11.8-0.3c-8-2.3-9.7-8.4-10.1-11.3c0.5,0.2,1,0.3,1.6,0.4c2.3,0.6,4.6,1,6.7,1.5c9.6,2.1,17.2,3.8,19.7,7.9    l0.1,0.1c0.2,0.4,0.4,0.8,0.7,1.2C567.2,187,565.1,187.4,562.8,187.8z M574.6,191.8c0.1,0.1,0.3,0.1,0.4,0.2c1.4,0.7,2.6,1,3.6,1    s1.7-0.2,2.2-0.5c0.8,1.5,1.8,3.2,3.1,5.1c-1.4-0.2-2.8,0.1-4.1,0.8c-1.6,0.9-2.8,2.3-3.3,4.1c-0.1,0.2-0.1,0.4-0.1,0.6    c-2.4-3.7-4-7.4-4-9.5c0-0.4,0.6-1.3,1.5-2.2C574,191.5,574.3,191.7,574.6,191.8z M545.7,256.2c-0.8,1.2-2.3,1.8-3.7,1.4    c-0.4-0.1-10.6-2.7-19.5-14.1c-7.5-9.7-6.5-17.4-5.2-21.2c0.3-0.8,0.9-1.4,1.6-1.7c18.7-8.1,36-16.6,51.3-25.2    c1.2,4.7,6,12.5,11,17.1c-0.4,0.8-0.6,1.8-0.5,2.7c0.1,0.6,0.1,1.2,0.2,1.7C563.7,231.6,549.8,250.4,545.7,256.2z M582.5,262.8    c0.4,0.4,0.5,1,0.5,1.6c-0.1,1-0.2,2.1-0.2,3.2c0,0.8-0.4,1.5-1,1.9c0-0.3,0-0.6,0-1c0-0.7-0.5-1.2-1.2-1.2    c-0.6,0-1.2,0.5-1.2,1.2c0,0.4,0,0.8,0,1.1c-0.2-0.1-0.4-0.2-0.5-0.4c-0.3-0.3-0.6-0.8-0.6-1.6c0-0.9,0.1-1.7,0.2-2.7v-0.3    c0.1-0.9,0.6-1.6,1.4-2.1c0,0.2,0,0.4-0.1,0.5c-0.1,0.7,0.4,1.2,1.1,1.3h0.1c0.6,0,1.1-0.5,1.2-1.1c0-0.2,0.1-0.5,0.1-0.7    C582.3,262.7,582.4,262.7,582.5,262.8z M584.3,250.3c0.3,0.4,0.5,0.9,0.4,1.5s-0.2,1.1-0.3,1.7c-0.1,0.5-0.1,0.9-0.2,1.5    c-0.1,0.8-0.6,1.6-1.3,2c0.1-0.4,0.1-0.8,0.2-1.2c0.1-0.7-0.4-1.3-1-1.3c-0.7-0.1-1.3,0.4-1.3,1c-0.1,0.6-0.1,1.1-0.2,1.7    c-0.2-0.1-0.3-0.2-0.4-0.3c-0.3-0.4-0.5-0.9-0.4-1.5s0.2-1.1,0.3-1.7c0.1-0.5,0.1-0.9,0.2-1.5c0.1-0.8,0.7-1.6,1.4-2    c0,0,0,0.1,0,0.2l-0.1,0.9c-0.1,0.7,0.3,1.3,1,1.4c0.1,0,0.1,0,0.2,0c0.6,0,1.1-0.4,1.2-1l0.1-0.9c0-0.2,0.1-0.5,0.1-0.7    C584.1,250.1,584.2,250.2,584.3,250.3z M586.2,238.1c0.3,0.4,0.5,0.9,0.5,1.6c-0.1,0.5-0.2,1.1-0.3,1.6s-0.1,0.9-0.2,1.5    c-0.1,0.8-0.6,1.5-1.2,1.9c0-0.2,0.1-0.4,0.1-0.6c0.1-0.6-0.3-1.3-0.9-1.4c-0.6-0.1-1.3,0.3-1.4,0.9c-0.1,0.5-0.2,0.9-0.3,1.4    c-0.2-0.1-0.3-0.2-0.4-0.3c-0.3-0.4-0.5-0.9-0.4-1.5s0.2-1.1,0.3-1.7c0.1-0.5,0.1-0.9,0.2-1.5c0.1-0.8,0.6-1.5,1.3-2    c0,0.1,0,0.2,0,0.3c-0.1,0.7,0.3,1.3,1,1.4c0.1,0,0.1,0,0.2,0c0.6,0,1.1-0.4,1.2-1c0-0.3,0.1-0.6,0.1-0.9    C586,237.9,586.1,238,586.2,238.1z M587.4,225.7c0.4,0.4,0.6,1,0.6,1.5c-0.1,0.5-0.1,1.1-0.1,1.6s0,1-0.1,1.6c0,0.9-0.6,1.6-1.2,2    c0-0.4,0.1-0.9,0.1-1.3c0.1-0.7-0.4-1.2-1.1-1.3c-0.7-0.1-1.2,0.4-1.3,1.1c0,0.5-0.1,1.1-0.2,1.6c-0.1-0.1-0.3-0.2-0.4-0.3    c-0.4-0.4-0.5-1-0.5-1.6c0.1-1,0.2-2.1,0.2-3.2c0-0.8,0.5-1.5,1.1-2c0,0.4,0,0.8,0,1.3c0,0.7,0.5,1.2,1.2,1.2l0,0    c0.6,0,1.2-0.5,1.2-1.2c0-0.5,0-1,0-1.4C587.1,225.4,587.3,225.5,587.4,225.7z M587.3,219.9c-0.1,0.1-0.3,0.3-0.4,0.3    c0-0.4,0-0.8-0.1-1.2c-0.1-0.7-0.6-1.1-1.3-1.1c-0.7,0.1-1.2,0.6-1.1,1.3c0,0.3,0,0.6,0.1,0.9c-0.6-0.4-1-1.1-1.1-2V218    c0.9-0.7,1.8-1.4,2.6-2.1c0.4,0.1,0.7,0.3,1.1,0.3c0.2,0,0.4,0.1,0.6,0.1c0.1,0.7,0.1,1.3,0.2,2    C588,218.9,587.8,219.4,587.3,219.9z M589.6,213.5c-0.7-1.4-2-2.5-3.5-2.9c1.7-0.8,3.1-2.3,3.7-4.3c0.1-0.4,0.2-0.8,0.2-1.2    c2,2.1,4.1,3.8,5.8,4.6C594.2,211.4,591.5,212.8,589.6,213.5z M642.6,173.8c-1.2-2.7-2.8-5.3-4.4-7.5    c-0.5-0.6-11.5-15.5-17.1-16.1c-0.9-0.1-1.5,0.1-1.9,0.4c-0.2,0.1-0.4,0.2-0.5,0.3l-4.4,4.9c-0.2-1.3-0.2-2.3-0.2-3.2    c0.1-2,0.5-3.4,1-4.5c0.5-0.7,0.8-1.1,0.9-1.3c0.7-0.7,1.7-1,2.9-1c0.2,0,0.4,0,0.6,0c1.5,0.1,3.2,0.7,5,1.7    c0.2,0.3,0.5,0.4,0.8,0.5c1.5,0.9,3,2,4.5,3.3c0.1,0.1,0.2,0.2,0.3,0.3c2.9,2.5,5.8,5.6,8.5,9.2c3.8,5,6.2,9.7,7.1,11.7    L642.6,173.8z"/>
		<path d="M487.4,147.5c-0.4-0.1-0.9,0.1-1.1,0.5c-3.4,4.4-15.9,10.4-39.5,18.8l-1.9,0.7c-12.7,4.5-27.2,9.7-31.8,19.4    c-2,4.2-2,9-0.1,14.3c7.6,21.1,9.7,27.8,5,35.3c-0.7-0.4-1.4-0.6-1.9-0.6c-7.8-19.5-18.1-38-18.3-38.4l0,0l0,0l0,0l0,0    c-0.4-0.8-1.3-1.8-3.2-2.2c-2-0.4-4.6-0.1-7.2,0.7l-1.5-4c-0.2-0.6-0.9-0.9-1.4-0.7c-0.3,0.1-6.3,1.8-12.5,6.7    c-6.9,5.4-11.8,13.3-12.3,19.6c-0.2,2.6,0.4,4.7,1.7,6.2l0,0l0,0c0.2,0.2,18.7,18.1,35.3,29.2c-7.5,2.4-13.5-0.8-32.5-12.7    c-4.8-3-9.5-3.9-14-2.9c-10.6,2.5-18.6,15.5-25.7,27l-1,1.7c-13.3,21.3-21.7,32.3-26.7,34.7c-0.4,0.2-0.6,0.6-0.7,1    c0,0.4,0.2,0.8,0.5,1.1c1.8,1.2,4.1,1.8,6.5,1.8c1,0,2-0.1,3.1-0.3c2.5-0.5,4.8-1.7,6.9-3.4c1.2,0.5,2.7,0.9,4.4,0.9    c2.8,0,6-1,9.1-4c1.2,0.6,2.5,0.8,3.8,0.8c2.6,0,5.3-1.1,7.7-3.1c1.5,0.8,3,1.1,4.5,1.1c3.3,0,6.5-1.6,9-4.1c0.9,0.4,2.5,1,4.4,1    c0.7,0,1.5-0.1,2.3-0.3c2.8-0.6,5.4-2.4,7.6-5.4c0.9,0.3,2.3,0.6,4,0.6c2.6,0,5.9-0.9,8.8-4.2c0.7,0.2,1.8,0.3,3.1,0.3    c3.4,0,8.3-1.2,11.9-7c2.7-4.4,3.1-7.8,3.3-10.9c0.3-3,0.5-5.4,3-8c1,1.3,2.2,2.5,3.2,2.9c1.1,3,2.2,5.9,3.3,8.7    c-0.1,0.5-0.1,1,0,1.5c0.2,1.1,0.4,2.1,0.6,3.1c0.4,1.8,1.6,3.3,3.3,4c0.2,0.4,0.4,0.8,0.6,1.2c-0.3,0.2-0.6,0.5-0.9,0.8    c-0.7,1-1,2.2-0.6,3.5l0.2,0.7c0.2,0.8,0.4,1.6,0.6,2.3c0.4,2.2,2.3,3.9,4.4,4.4c0,0,0,0,0,0.1c-0.7,0.2-1.3,0.6-1.8,1.2    c-0.8,0.9-1.1,2.2-0.9,3.4c0.1,1,0.2,1.9,0.3,2.9v0.2c0.2,2.2,1.7,3.9,3.6,4.4c0,0.1,0,0.2,0,0.3c-1.9,0.5-3.5,2.1-4,4.3    c-0.2,1-0.5,2-0.8,3c-0.4,1.5-0.2,2.8,0.6,3.7c0.6,0.8,1.6,1.3,2.8,1.3c0.7,0,1.2-0.5,1.2-1.2s-0.5-1.2-1.2-1.2    c-0.4,0-0.7-0.1-0.9-0.3c-0.3-0.3-0.3-1-0.1-1.6c0.3-1,0.6-2.1,0.8-3.2c0.2-0.9,0.7-1.7,1.4-2.1c0,0.1,0,0.3-0.1,0.4    c-0.1,0.7,0.3,1.3,1,1.4c0.1,0,0.1,0,0.2,0c0.6,0,1.1-0.4,1.2-1c0-0.3,0.1-0.6,0.1-0.9c0.2,0.1,0.3,0.2,0.4,0.3    c0.3,0.4,0.4,0.9,0.3,1.4c-0.2,1-0.4,1.9-0.7,2.9c-0.2,0.6,0.1,1.3,0.7,1.5s1.3-0.1,1.5-0.7c0.4-1.2,0.6-2.2,0.8-3.3    c0.3-1.3,0-2.5-0.8-3.4c-0.5-0.6-1.3-1.1-2.1-1.3c0-0.1,0-0.3,0-0.4c0.8-0.2,1.6-0.7,2.2-1.3c0.8-0.9,1.2-2.1,1.1-3.3    c0,0,0,0,0-0.1c1.1,1.8,2.1,3.5,3,4.8c0.8,1.2,1.4,2.2,1.8,2.9c1.1,1.9,3.1,3.1,5.7,3.6c0.8,0.1,1.6,0.2,2.4,0.2    c4.9,0,10.9-2.3,16.1-6.5c6.8-5.3,11.8-13.6,11.7-19.4c0-2.6-1.2-3.9-2.1-4.6c-2.2-1.6-5.5-4.9-9.7-9c-6.8-6.7-16-15.9-26.9-24.1    c0.1-0.2,0.2-0.5,0.2-0.7c0.3-1.3-0.5-3.4-1.5-5.3c0.2-0.1,0.3-0.1,0.5-0.2c0.4-0.3,0.9-0.5,1.3-0.9c3.1-1.9,5.5-1.6,8.4-1.3    c3,0.3,6.4,0.7,11.3-1c8.9-3.2,9.6-10.8,9.6-13.3c6.3-3.4,6.5-9.3,6.2-11.7c3.3-1.6,5.6-3.7,6.9-6.4c1.3-2.8,1-5.5,0.7-6.8    c4.6-3,6.9-7.8,5.7-12.4c3.8-2.9,5.6-6.9,4.6-10.8c5.7-3.8,6.5-9.1,5.9-12.4c2.2-1.7,3.9-3.8,4.9-6.2c1.5-3.2,1.7-6.7,0.5-9.6    C488.2,147.9,487.8,147.6,487.4,147.5z M394,197.7c0.8,0.2,1.4,0.5,1.6,1c0.5,0.9,0.5,2.4,0,4.1c-0.6,1.9-1.9,4.3-4,6.9l-2.7-5.7    c-0.2-0.4-0.5-0.6-0.9-0.7c-0.4,0-0.8,0.1-1.1,0.4c0,0-2.7,3.4-7.6,7.2c-6.4,5-10.2,7.4-11.3,7.1c-1.6-2.6,5-10.7,11.6-15.7    C383.8,199.2,390.6,197,394,197.7z M373.3,222.9l-3.2-2.8c2.5-1,5.9-3.4,10.7-7.1c3.2-2.5,5.5-4.8,6.8-6.2l2.3,4.9c0,0,0,0,0,0.1    c-3.3,3.5-8.1,7.2-14.5,10.3C374.6,222.4,373.9,222.7,373.3,222.9z M361.8,217.8c0.4-4.8,4.1-12.1,11.4-17.9    c4.4-3.4,8.7-5.2,10.6-5.9l1.1,2.9c-2.6,1-5.1,2.4-7,3.8c-4.2,3.2-15.3,13.5-12.2,18.8c0.1,0.2,0.2,0.4,0.3,0.6l4.3,3.7    c-3.4,0.6-6.1-0.1-7.5-1.5l0,0C362.1,221.2,361.7,219.7,361.8,217.8z M368.1,226.3c2.6,0,5.5-0.7,8.3-2.1    c13.1-6.5,19.7-14.9,21.5-20.6c0-0.2,0.1-0.3,0.1-0.5c3.7,7,11.2,21.6,16.9,36.3c0,0,0,0,0,0.1c-0.8,1.2-2.3,2.8-4.7,4.9    c-5.4,4.7-10.6,7.3-11.7,7.1l-0.1-0.1l-0.1-0.1c-11.7-7.7-24.4-19-30.9-25C367.6,226.2,367.8,226.3,368.1,226.3z M412.9,259.3    c-0.1,1-0.2,2-0.3,3.1v0.1c0,0.8-0.4,1.6-1,2c0-0.3,0-0.7,0-1c0-0.7-0.5-1.2-1.2-1.2s-1.2,0.5-1.2,1.2c0,0.4,0,0.7,0,1.1    c-0.7-0.4-1.1-1.1-1.1-2c0-0.6,0-1.2,0.1-1.9c0.6-0.3,1.2-0.6,1.8-0.9c0.2,0.2,0.4,0.3,0.6,0.3c0.1,0,0.1,0,0.2,0    c0.6,0,1.1-0.4,1.2-1c0-0.2,0.1-0.3,0.1-0.5c0.2-0.1,0.5-0.3,0.7-0.4C412.9,258.5,413,258.9,412.9,259.3z M413.3,276.8    c-0.1-0.6-0.3-1.2-0.4-1.8c-0.1-0.6-0.8-1.1-1.4-0.9c-0.3,0.1-0.6,0.2-0.7,0.5c-0.6-1.4-1.2-2.8-1.8-4.2c0.1-0.1,0.1-0.2,0.2-0.3    c0.1-0.1,0.3-0.3,0.4-0.4c0.1,0.5,0.1,1,0.2,1.5c0.1,0.6,0.6,1,1.2,1c0.1,0,0.1,0,0.2,0c0.7-0.1,1.1-0.7,1-1.4    c0-0.3-0.1-0.6-0.1-0.9c0.6,0.5,1.1,1.2,1.3,2.1c0.1,0.3,0.1,0.7,0.2,1c0.1,0.7,0.2,1.4,0.4,2.1c0.1,0.6,0,1.1-0.3,1.5    C413.5,276.7,413.4,276.8,413.3,276.8z M414.7,282.7c0-0.1,0-0.1,0-0.2c0,0,0,0,0-0.1c0.7,0.5,1.3,1.2,1.5,2.1    c0.2,0.5,0.3,1.1,0.4,1.7c0,0.1,0,0.2,0.1,0.2C416,285.3,415.4,284,414.7,282.7z M402.8,252.4c1.2-0.6,2.6-1.5,4.2-2.6    c-0.1,2.1,0.9,4.1,2.5,5.3c-1.7,0.7-3,2.1-3.4,3.9c-0.9,0.3-1.7,0.5-2.3,0.6c-0.4-0.2-1.5-1.3-2.4-2.5    C403.1,255,403,253.3,402.8,252.4z M403.8,259.5L403.8,259.5L403.8,259.5L403.8,259.5z M405.8,261.6c0,0.2,0,0.4,0,0.6    c-0.1-0.2-0.1-0.4-0.2-0.6C405.6,261.6,405.7,261.6,405.8,261.6z M409.3,267.1c0,0.1,0,0.1,0,0.2c-0.5,0.1-1,0.4-1.4,0.7    c-0.3-0.7-0.5-1.4-0.8-2.1C407.7,266.4,408.4,266.9,409.3,267.1z M416.8,251.1c-0.3,1-0.9,1.8-1.8,2.3c-0.5,0.3-1.1,0.4-1.6,0.5    c0.3-0.7,0.5-1.4,0.9-2.1c0.3-0.6,0-1.3-0.6-1.6s-1.3,0-1.6,0.6c-0.4,0.8-0.7,1.6-1,2.5c-1.3-0.9-2-2.6-1.6-4.2    c0.3-1,0.9-1.8,1.8-2.3s1.9-0.6,2.9-0.3s1.8,0.9,2.3,1.8C416.9,249.1,417.1,250.2,416.8,251.1z M305.4,302    c-2.1,0.5-4.1,0.4-5.9-0.3c5.5-4,13.6-14.8,25.8-34.4l1-1.7c6.8-11.1,14.6-23.7,24.2-25.9c4-0.9,7.9-0.1,12.2,2.6    c21.1,13.2,27.2,16.5,37.7,11.6c-0.2,0.5-0.5,1.3-1.4,2.2c-3.8,4.2-11.4,6.3-38.6-10.6c-2.4-1.5-4.8-1.9-7.3-1.3    c-8.5,2-16.6,15.5-29,35.8c-2.7,4.4-5.5,9-8.5,13.9C313.1,298.2,309.4,301.1,305.4,302z M314.8,299c1.1-1.1,2.1-2.4,3-3.9    c3-4.9,5.8-9.5,8.5-13.9c11.6-19.1,20-32.9,27.5-34.7c1.9-0.4,3.7-0.1,5.5,1c0.2,0.1,0.4,0.2,0.6,0.3c-8.7,3-19.4,22.1-27.4,36.2    c-1.9,3.4-3.6,6.4-4.9,8.4c-0.7,1.1-1.4,2-2.1,2.8c-0.2,0.1-0.3,0.2-0.4,0.4v0.1C321,300,316.9,299.6,314.8,299z M328,295.9    c0.5-0.7,1-1.4,1.5-2.2c1.3-2.1,3-5.1,4.9-8.5c7-12.4,18.8-33.3,26.6-35.3c1.1-0.3,2-0.2,2.8,0.3l0,0c1,0.6,1.9,1.1,2.9,1.7    c-8,3.6-18.7,22.7-24.6,33.2c-1.2,2.1-2.1,3.8-2.7,4.8C336.4,294.9,331.8,297.2,328,295.9z M339.6,293.8c0.7-0.8,1.3-1.6,1.8-2.5    c0.6-1,1.6-2.7,2.8-4.9c5.1-9.2,17.1-30.7,24.3-32.5c0.8-0.2,1.4-0.1,2,0.2c0,0,0.1,0,0.1,0.1c1.3,0.7,2.5,1.3,3.7,1.9    c-6.1,3.1-13,14.9-19.6,27c-1.2,2.2-2.2,4.1-3,5.3c-0.4,0.7-0.9,1.3-1.4,1.8c-0.1,0.1-0.2,0.2-0.3,0.3v0.1    C346.7,294.1,342.7,294.9,339.6,293.8z M357.5,291c-1.9,0.4-3.5,0.1-4.6-0.3c0.3-0.4,0.5-0.7,0.8-1.1c0.7-1.2,1.8-3,3-5.4    c4.9-8.9,15-27.4,20.9-26.5c0.1,0,0.1,0,0.1,0c1.9,0.8,3.7,1.5,5.4,2.1c-5.6,2.8-10,10.6-14.3,18.2c-1.3,2.3-2.7,4.7-4,6.8    C362.7,288.2,360.3,290.3,357.5,291z M367,285.9c1.3-2.1,2.7-4.5,3.9-6.7c5.2-9.2,10.6-18.6,17.2-18.1c0,0,0,0,0.1,0    c0.6,0.1,1.1,0.2,1.7,0.2c-3.1,2.9-5.7,7.7-8.7,13.5c-0.9,1.7-1.8,3.4-2.8,5.2c-0.4,0.8-0.9,1.5-1.4,2.1c0,0-0.1,0.1-0.1,0.2    C373.4,286.8,369.1,286.5,367,285.9z M391.4,276.5c-3.7,5.9-8.8,6.1-11.4,5.8c0.2-0.3,0.4-0.7,0.6-1c1-1.8,1.9-3.6,2.8-5.2    c4-7.5,7.1-13.5,11.2-14.7c0.1,0,0.1-0.1,0.2-0.1c0.3-0.1,0.5-0.1,0.8-0.2c-0.8,1.9-1,3.8-1.2,5.7    C394.1,269.6,393.8,272.6,391.4,276.5z M412.4,287.1c-0.2-0.8-0.4-1.6-0.6-2.5l-0.2-0.7c-0.1-0.6-0.1-1.1,0.2-1.5c0,0,0,0,0.1-0.1    c0.8,1.6,1.6,3.2,2.4,4.7c-0.5,0.3-0.7,0.8-0.6,1.3c0.1,0.2,0.1,0.5,0.2,0.7C413.1,288.6,412.6,287.9,412.4,287.1z M418.4,301.1    c-0.1,0.1-0.2,0.2-0.4,0.3c0-0.5,0-1,0-1.5c0-0.7-0.6-1.2-1.2-1.2c-0.7,0-1.2,0.6-1.2,1.2c0,0.4,0,0.9,0,1.4    c-0.7-0.4-1.2-1.2-1.2-2.1V299c-0.1-0.9-0.2-1.8-0.3-2.9c-0.1-0.6,0-1.1,0.4-1.5c0.1-0.1,0.2-0.2,0.4-0.3c0.1,0.5,0.2,1,0.3,1.5    c0.1,0.6,0.6,1,1.2,1c0.1,0,0.1,0,0.2,0c0.7-0.1,1.1-0.7,1-1.4c0-0.3-0.1-0.6-0.2-0.9c0.7,0.4,1.2,1.1,1.3,1.9v0.2    c0.1,0.9,0.2,1.8,0.3,2.9C419,300.2,418.8,300.7,418.4,301.1z M416.9,291.8C416.9,291.8,416.8,291.8,416.9,291.8    C416.8,291.8,416.8,291.8,416.9,291.8L416.9,291.8L416.9,291.8z M448.5,273.1c4.2,4.2,7.6,7.6,10,9.3c0.7,0.5,1,1.4,1.1,2.6    c0.1,4.4-3.9,12.1-10.8,17.4c-5.5,4.3-12,6.6-16.6,5.8c-1.3-0.2-3.1-0.9-4-2.4c-0.4-0.7-1-1.7-1.8-2.9c-1.9-3-4.6-7.3-7.6-12.6    c0.6-0.9,0.8-2,0.5-3.2c-0.1-0.5-0.2-0.9-0.3-1.3c-0.1-0.6-0.3-1.2-0.5-1.7c-0.5-2.2-2.4-3.9-4.5-4.3c0-0.1-0.1-0.3-0.1-0.4    c0.6-0.2,1.1-0.6,1.5-1.1c0.8-0.9,1-2.2,0.8-3.6c-0.2-0.7-0.3-1.3-0.4-1.9c-0.1-0.4-0.1-0.7-0.2-1c-0.3-2.2-1.9-3.9-3.9-4.4    c0,0,0-0.1,0-0.2c1.9-0.5,3.3-2.3,3.3-4.5c0.1-1.1,0.2-2.1,0.3-3c0.1-1-0.1-2-0.5-2.8c3-2.2,5.8-4.8,7.4-7.3    C432.9,257.5,441.9,266.5,448.5,273.1z M421.2,246.1c-0.2,1-0.9,2.2-1.9,3.4c-0.1-0.8-0.3-1.6-0.8-2.4c-0.8-1.4-2.1-2.5-3.7-2.9    c-0.3-0.1-0.5-0.1-0.8-0.2c0.8-0.8,1.6-1.7,2.2-2.5c0.5,0.3,1.3,0.7,2.4,0.7c0.3,0,0.7,0,1-0.1    C420.8,243.9,421.2,245.7,421.2,246.1z M442.5,235.6c-4.3,1.6-7.3,1.2-10.2,0.9c-1.8-0.2-3.6-0.4-5.6-0.1c0.1-0.2,0.2-0.4,0.3-0.7    c0,0,0,0,0-0.1c2.1-3.9,8.8-5.8,17.3-8.3c1.6-0.5,3.3-0.9,5-1.5c0.4-0.1,0.8-0.2,1.2-0.4C450.3,228.2,449.1,233.2,442.5,235.6z    M448.7,223.7c-1.7,0.5-3.4,1-4.9,1.5c-6.5,1.9-12,3.5-15.5,6c0.1-0.5,0.1-1,0.1-1.6c0,0,0,0,0-0.1c0.9-6.7,11.3-10.1,21.4-13.3    c2.4-0.8,4.8-1.6,7.1-2.4C457,216.3,456.2,221.5,448.7,223.7z M463.8,205.5c-1,2.3-3.2,4.1-6.3,5.5l0,0c0,0,0,0-0.1,0    c-0.4,0.2-0.8,0.3-1.2,0.5c-2.3,0.8-4.8,1.6-7.2,2.4c-8.4,2.7-16.9,5.5-20.9,10.4c-0.2-1.9-0.6-4-1-6.3c0.7-5.9,20.4-11.8,30-14.7    c2.6-0.8,4.7-1.4,6.1-1.9c0.5-0.2,0.9-0.4,1.4-0.6C464.6,202,464.7,203.7,463.8,205.5z M462.3,199.2c-1.3,0.5-3.5,1.1-6,1.9    c-13,3.9-25.7,8.1-30.1,13.4c-0.3-1.3-0.7-2.7-1.1-4.2c-0.1-0.5,0-1.1,0.3-1.7c3.3-6.7,27-14,37.1-17.1c2.2-0.7,3.9-1.2,4.9-1.6    c1-0.4,1.9-0.8,2.8-1.3C470.8,192.5,468.4,197,462.3,199.2z M470.6,185.6L470.6,185.6c-0.2,0.1-0.3,0.2-0.5,0.3    c-1,0.7-2.2,1.3-3.5,1.8c-1,0.3-2.7,0.9-4.8,1.5c-17.1,5.3-33.3,11-37.9,17.2c-0.3-1-0.7-2-1-3.1c0-0.1,0-0.1,0-0.2    c-0.3-0.9-0.2-1.8,0.2-2.8c3.6-7.2,26.5-14.4,40.1-18.6c3.6-1.1,6.8-2.1,9-2.9c0.9-0.3,1.7-0.7,2.5-1    C475.2,180.6,473.6,183.4,470.6,185.6z M471.5,176.5c-2.2,0.8-5.3,1.8-9,2.9c-14.6,4.5-36.5,11.4-41.3,19.3    c-0.1-0.2-0.1-0.3-0.2-0.4c-0.7-2-0.7-3.8,0.2-5.6c3.3-7,18.6-12.2,39.7-19.6c4.9-1.7,10-3.5,15.5-5.4c1.5-0.6,2.9-1.2,4.2-2    C480.8,168.3,479.9,173.5,471.5,176.5z M485.6,156.9c-1,2.1-2.5,4-4.5,5.5c-0.2,0.1-0.4,0.2-0.5,0.4c-1.5,1-3.1,1.9-5,2.6    c-5.4,1.9-10.5,3.7-15.4,5.4c-22.4,7.8-37.3,12.9-41,20.8c-1.1,2.3-1.2,4.8-0.3,7.4c7.5,20.8,8.1,30.6,6.1,35.5l0,0l0,0    c-0.6,1.7-1.6,2.8-2.6,3.6c-0.4,0.2-0.8,0.5-1.2,0.8c-1.2,0.6-2,0.8-2.6,0.8c7.1-9.3,5.1-15.9-3.3-39.4c-1.7-4.7-1.7-8.8,0-12.5    c4.2-8.9,18.1-13.8,30.4-18.2l1.9-0.7c21.6-7.8,33.9-13.4,39-17.9C486.8,153,486.5,155,485.6,156.9z"/>
		<path d="M302,234.5c-0.3-1.5-1.1-2.7-2.3-3.3l-0.3-0.2c-16.6-10.2-31.6-20.4-44.6-30.4c-0.1-1.2-1-2.5-1.6-3.4    c3.2-1.8,5.7-1.5,8.7-1.1c3.3,0.4,6.9,0.8,12.2-1c9.6-3.4,10.3-11.5,10.3-14.2c6.9-3.7,7-10.1,6.7-12.5c3.6-1.7,6.1-3.9,7.4-6.7    c1.4-3,1.1-5.8,0.8-7.2c2.4-1.5,4.3-3.5,5.4-5.9c1.2-2.4,1.4-5.1,0.8-7.5c4.1-3.1,6-7.3,5-11.6c6.3-4.1,7.1-9.9,6.4-13.4    c2.3-1.8,4-4,5.2-6.4c1.6-3.5,1.9-7.3,0.7-10.4c-0.2-0.4-0.5-0.7-0.9-0.8c-0.4-0.1-0.9,0.1-1.1,0.4c-3.7,4.7-17.6,11.2-42.5,20    l-2,0.7c-13.7,4.8-29.2,10.3-34.2,20.8c-2.1,4.5-2.2,9.6-0.2,15.2c7.9,22.5,10.2,29.8,5.4,37.7c-0.1-0.1-0.2-0.3-0.4-0.4    c-0.1-0.2-0.2-0.4-0.4-0.6c-0.1-0.1-0.1-0.1-0.2-0.1c-2.8-3.5-5.6-7.3-8.2-11.1c1.5-1.9,3.1-4.1,4.2-8.2c2.8-9.7-3.4-15-5.6-16.6    c1-7.9-4.3-11.7-6.4-12.8c0.7-3.9,0.3-7.2-1.3-9.8c-1.7-2.9-4.2-4.2-5.5-4.8c0.1-2.9-0.4-5.5-1.7-7.8s-3.3-4-5.7-4.9    c-0.1-5.1-2.5-9.3-6.6-10.9c0.2-7.5-4.2-11.5-7.4-12.9c-0.2-2.9-0.9-5.6-2.3-8c-1.9-3.3-4.8-5.6-8-6.4c-0.4-0.1-0.9,0-1.2,0.3    s-0.4,0.8-0.3,1.2c1.7,5.7-0.8,20.4-8,46.3c-4.8,17.1-11.3,40.5,2.9,47.6c0.1,0,0.2,0.1,0.3,0.1l3.5,1.9c-1.8,3-2.9,6-2.8,8    c0.1,1.2,0.6,1.9,1,2.3l0,0c0.1,0,0.1,0.1,0.2,0.1c0.4,0.3,0.8,0.5,1.3,0.7c4.5,2.2,22.1,11.3,37.2,23.6c-0.3,0.8-0.2,2,0.7,3.5    c1.4,2.3,4.7,4.8,7.2,5.9c0,0.8,0,1.5,0,2.2c0,2.2,1.5,4,3.6,4.5c0,0.1,0,0.2,0,0.3c-0.7,0.3-1.3,0.7-1.8,1.2    c-0.8,0.9-1.1,2.2-0.8,3.4c0.2,1.1,0.4,2.1,0.6,3.1c0.4,2.2,2.3,4,4.4,4.4c0,0.1,0,0.2,0.1,0.3c-0.6,0.2-1.1,0.6-1.5,1.1    c-0.8,0.9-1,2.2-0.8,3.5c0.2,1.1,0.4,2.1,0.6,3.1c0.4,2.2,2.1,3.9,4.1,4.3c0,0.1,0,0.1,0,0.2c-2,0.5-3.4,2.3-3.4,4.5    c0,1.1,0,2-0.1,3c-0.1,1.2,0.2,2.4,1,3.3c0.2,0.3,0.6,0.4,0.9,0.4c0.3,0,0.5-0.1,0.8-0.3c0.5-0.4,0.6-1.2,0.2-1.7    c-0.3-0.4-0.5-1-0.4-1.5c0.1-1.1,0.1-2.1,0.1-3.2c0-0.9,0.5-1.7,1.2-2.1c0,0.4,0,0.8,0,1.3c0,0.7,0.5,1.2,1.2,1.2s1.2-0.5,1.2-1.2    c0-0.3,0-0.7,0-1c0.6,0.4,0.9,1.1,0.9,1.8c0,0.5,0,0.9,0,1.4s-0.1,1.1-0.1,1.7c-0.3,0.6,0,1.3,0.6,1.6c0.6,0.3,1.3,0.1,1.6-0.5    c0.2-0.4,0.2-0.7,0.2-1c0-0.5,0-1.1,0.1-1.6c0-0.5,0-1,0-1.5c0-2.1-1.5-3.9-3.5-4.5c0-0.1,0-0.2,0-0.3c0.7-0.2,1.3-0.6,1.8-1.2    c0.8-0.9,1.1-2.2,0.9-3.5c-0.2-1.1-0.4-2.1-0.6-3.1c-0.4-2.2-2.4-4-4.5-4.4c0-0.1,0-0.2-0.1-0.3c0.6-0.2,1.2-0.6,1.6-1.1    c0.8-0.9,1-2.2,0.8-3.5c-0.2-1.1-0.4-2.1-0.6-3.1c-0.3-2.2-2.1-4-4.3-4.4c0,0,0,0,0-0.1c0.7-0.2,1.4-0.6,1.9-1.1    c13.4,15.8,23.4,34.6,25.4,38.6c1.1,1.9,3,3,5,3c0.2,0,0.4,0,0.6,0c7.3-0.6,14.7-4.5,21.2-11.2C302.6,246.6,302.7,238.5,302,234.5    z M240.5,220.3c-0.4-0.5-0.8-0.9-1.3-1.4c0.4-0.2,0.9-0.5,1.4-0.7c0,0.1,0,0.2,0,0.3C240.6,219.1,240.6,219.7,240.5,220.3z    M229.5,210.1c-12.8-10.9-28.2-19.6-35.9-23.7c4.5-1.2,10.4-4.6,16.7-9.9c7.6-6.4,10.8-12.6,11.6-17.4c0.3,0.5,0.5,1,0.8,1.5    c0,0.3,0.2,0.6,0.4,0.8c4.9,8.8,12.9,22.1,21.5,32.8c0,1.1-2.5,5.3-7.9,10.4C233.6,207.5,231.1,209.2,229.5,210.1z M217.8,163.5    c-1.6,3.3-4.5,7.1-9.2,11.1c-2,1.7-4,3.2-5.8,4.4l-3.5-2.2c1.6-1.2,4.4-3.3,7.5-6.4c0.3-0.3,6.3-6.1,8.3-10.8L217.8,163.5z    M240.5,205.3c0.2,0,0.4,0,0.6,0c0.9,0,1.8,0.3,2.5,0.8c0.9,0.7,1.5,1.6,1.6,2.8c0.3,2.3-1.3,4.4-3.5,4.8c-0.4,0.1-0.8,0-1.2,0    c0.3-0.9,0.6-1.8,0.9-2.6c0.3-0.6,0-1.3-0.6-1.6s-1.3,0-1.6,0.6c-0.4,0.8-0.7,1.7-1,2.6c-0.8-0.7-1.3-1.5-1.4-2.5    C236.6,207.8,238.2,205.7,240.5,205.3z M237.4,217.1c-0.1,0-0.2,0-0.3-0.1c0.1-0.1,0.2-0.2,0.3-0.2    C237.4,216.9,237.4,217,237.4,217.1z M247.7,208.9c0-0.1,0-0.2,0-0.3c-0.3-1.7-1.2-3.3-2.6-4.3c-1-0.8-2.2-1.2-3.5-1.3    c1.3-1.4,2.4-2.8,3.3-4c0.4,0.3,1.3,0.8,2.6,0.8c1,0,2.2-0.3,3.7-1.1c0.7,0.8,1.3,1.9,1.2,2.3    C252.2,202.8,250.3,205.9,247.7,208.9z M273.3,192.9c-4.7,1.7-7.9,1.3-11.1,0.9c-2-0.2-4-0.5-6.1-0.1c0.2-0.4,0.4-0.7,0.5-1.1    c0,0,0,0,0.1-0.1c2.1-3.9,8.7-5.7,17.2-8.1c2.2-0.6,4.4-1.2,6.8-1.9c0.5-0.1,0.9-0.3,1.4-0.4C281.8,184.8,280.5,190.4,273.3,192.9    z M282.7,179.2C282.7,179.2,282.6,179.2,282.7,179.2c-0.9,0.4-1.7,0.7-2.7,1c-2.3,0.7-4.6,1.3-6.8,1.9c-6.5,1.8-11.9,3.3-15.5,5.8    c0.1-0.5,0.1-1,0.1-1.5c0,0,0,0,0-0.1c1-7.3,12.5-11,23.6-14.5c2.5-0.8,5-1.6,7.4-2.4C289,171.7,288.5,176.4,282.7,179.2z    M296.3,160.7c-1.3,2.8-4.1,4.9-8.2,6.4c-2.3,0.8-4.9,1.6-7.4,2.4c-9.3,2.9-18.8,6-23,11.4c-0.2-2.1-0.6-4.4-1.1-7    c0.8-6.4,22.3-12.7,32.6-15.7c2.7-0.8,4.9-1.4,6.3-1.9c0.5-0.2,1-0.4,1.5-0.6C297.3,156.9,297.3,158.8,296.3,160.7z M302.6,147.6    c-1.4,2.9-4.1,5.1-7.7,6.4c-1.4,0.5-3.6,1.1-6.2,1.9c-14.2,4.2-28.1,8.7-32.8,14.4c-0.3-1.4-0.7-2.9-1.2-4.4    c-0.2-0.7-0.1-1.3,0.3-2.1c3.6-7.1,28.9-14.9,39.7-18.2c2.5-0.8,4.5-1.4,5.6-1.8c1.1-0.4,2.2-0.9,3.1-1.4    C303.6,144.1,303.4,145.9,302.6,147.6z M303.8,139.4C303.8,139.4,303.7,139.4,303.8,139.4c-0.2,0.1-0.4,0.2-0.5,0.3    c-1.1,0.7-2.4,1.4-3.8,1.9c-1.1,0.4-3,1-5.5,1.7c-12.4,3.8-35.1,10.7-40.5,18.4c-0.4-1.2-0.7-2.4-1.2-3.6l0,0    c-0.4-1-0.3-2,0.3-3.1c3.9-7.8,28.6-15.5,43.3-20c3.9-1.2,7.3-2.3,9.7-3.1c1-0.4,1.9-0.7,2.8-1.2    C308.8,133.9,307.1,137.1,303.8,139.4z M314.3,121c-1.1,3.8-4.3,6.7-9.5,8.5c-2.4,0.8-5.7,1.9-9.6,3.1    c-15.8,4.9-39.4,12.2-44.5,20.8c-0.1-0.3-0.2-0.6-0.3-0.9c-0.8-2.2-0.7-4.2,0.2-6.1c3.7-7.6,20.2-13.2,43.2-21    c5.2-1.8,10.5-3.6,16.2-5.6c1.7-0.6,3.3-1.3,4.7-2.2C314.7,118.5,314.6,119.7,314.3,121z M244.1,154.9c-1.8-5.1-1.8-9.5,0.1-13.4    c4.6-9.6,19.6-14.9,32.9-19.6l2-0.7c23.3-8.3,36.5-14.3,42-19.1c0.3,2.1-0.1,4.4-1.1,6.6c-1.9,4-5.7,7.1-10.8,8.9    c-5.6,2-11,3.8-16.1,5.6c-23.5,8-40.5,13.8-44.6,22.3c-1.2,2.5-1.3,5.1-0.3,7.9c10.3,29,8.2,38.1,3.8,41.9    c-0.6,0.3-1.1,0.7-1.7,1.1c-0.1,0-0.1,0.1-0.1,0.2c-1.2,0.6-2.1,0.8-2.7,0.8C255.1,187.4,253,180.2,244.1,154.9z M239.9,172.3    c-0.9,3.2-2,5.2-3.3,6.7c-1.7-2.6-3.3-5.2-4.9-7.6c0.4-1.2,0.9-2.5,1.3-3.8c0.9-2.4,1.7-4.8,2.6-7.5c0.1-0.4,0.3-0.8,0.4-1.2    C238.2,160.8,241.9,165.1,239.9,172.3z M234.1,156.6c0,0.1-0.1,0.2-0.1,0.4c-0.1,0.8-0.4,1.6-0.7,2.5c-0.8,2.6-1.7,5-2.6,7.4    c-0.2,0.7-0.5,1.3-0.7,1.9c-1.9-3.1-3.5-6-5-8.6c0.5-1.6,1-3.2,1.5-4.9c1-3.1,2-6.3,2.9-9.4C231.5,147.2,235.1,150.3,234.1,156.6z    M226.8,134.9c1.5,2.6,1.7,6.2,0.5,10.4c-0.8,3-1.8,6.2-2.8,9.3c-0.3,0.9-0.6,1.8-0.9,2.7c-0.8-1.5-1.5-2.7-2-3.7    c-0.3-1.1-0.8-2-1.4-2.8c-0.7-0.8-1.6-1.5-2.6-1.8c1.1-3.5,2.2-7,3.2-9.8c0.9-2.6,1.6-4.7,2-6.1c0.2-0.6,0.3-1.1,0.4-1.6    C224.1,131.9,225.7,133,226.8,134.9z M219.6,122.3c1.6,2.8,1.9,6.4,0.8,10.1c-0.4,1.4-1.1,3.5-2,6c-1,2.9-2.1,6.4-3.3,10.1    c-2.5-0.1-5.5,0.8-8.7,2.5c2.1-8.6,5-17.6,7-23.7c0.8-2.4,1.4-4.2,1.7-5.4c0.3-1.1,0.5-2.2,0.6-3.2    C217.4,119.5,218.7,120.7,219.6,122.3z M213.6,116.7L213.6,116.7c-0.1,0.2-0.1,0.4,0,0.6c-0.1,1.3-0.3,2.6-0.7,4    c-0.3,1.1-0.9,2.9-1.7,5.3c-2.1,6.3-5.5,16.8-7.6,26.1c-2.6,1.6-5.2,3.6-7.9,6c0.8-10.8,6.1-27.1,9.7-38.2    c1.3-3.9,2.4-7.3,3.1-9.7c0.3-1.1,0.5-2.1,0.7-3C212.1,109.3,213.7,112.6,213.6,116.7z M201.1,100.4c0.5-1.8,0.8-3.6,0.9-5.3    c0.8,0.5,1.8,1.2,2.7,2.3c2.5,3.1,3,7.4,1.5,12.7c-0.7,2.4-1.8,5.8-3,9.6c-4.2,12.8-9.8,30.2-9.9,41.3c-1.5,1.5-2.7,2.9-3.8,4.2    c-5.3-6.5-0.1-24.1,6.9-48.1C197.8,111.9,199.4,106.3,201.1,100.4z M184.5,126.5c6.7-23.9,9.3-38.2,8.4-45.4    c1.8,0.9,3.5,2.5,4.7,4.6c2.2,3.8,2.7,8.8,1.2,14.1c-1.6,5.9-3.3,11.4-4.8,16.7c-7.6,26-12.7,43.5-6.1,50.7    c-1.2,1.5-2.1,2.8-2.6,3.6C174.9,164.6,179.2,145.6,184.5,126.5z M187.4,172c1.2-1.8,3.9-5.7,8.1-9.8c7.3-7.1,15-11.5,19.8-11.3    c1.2,0.1,2.1,0.5,2.8,1.2c0.2,0.3,0.6,1.1,1.2,2.3c0.4,1.6,0.4,3.8-0.4,6.5l-3.2-4.7c-0.1-0.3-0.3-0.6-0.5-0.8    c-0.3-0.4-1-0.9-2-0.9h-0.1c-5.4,0-17.4,12.2-17.9,12.7c-1.7,1.8-3.5,4-5,6.3L187.4,172z M196.9,168.9c5.8-5.9,13.4-12,16.2-12    l0,0c0,0,0.1,0,0.2,0l0.2,0.4c0.1,1.3-2.6,6.1-8.2,11.6c-4.8,4.7-8.7,7.1-8.7,7.1c-0.4,0.2-0.6,0.6-0.6,1s0.2,0.8,0.6,1l4.1,2.6    c-5.4,3.3-9.3,4.3-11.2,3.8c-0.4-0.2-0.6-0.3-0.8-0.4c-0.1-0.2-0.2-0.4-0.2-0.6C188.3,180.4,192.4,173.4,196.9,168.9z    M228.9,212.9c1.6-0.5,3.6-1.7,5.7-3.3c0,0.3,0,0.6,0.1,0.9c0.2,1.6,1,3,2.2,4c-1.2,0.6-2.1,1.5-2.6,2.7    C232.5,216.3,230.2,214.7,228.9,212.9z M236,221.7c0-0.6,0-1.2,0-1.7c0.3,0,0.5-0.1,0.8-0.1c0.5,0.5,1,1.1,1.5,1.6c0,0,0,0-0.1,0    c-0.7,0-1.2,0.5-1.2,1.2c0,0.3,0,0.7,0,1C236.4,223.2,236,222.5,236,221.7z M244.4,243.6c0.2,1,0.4,2,0.6,3c0.1,0.6,0,1.2-0.4,1.6    c-0.1,0.1-0.2,0.2-0.3,0.3c-0.1-0.4-0.1-0.9-0.2-1.4c-0.1-0.6-0.8-1.1-1.4-0.9c-0.6,0.1-1.1,0.8-0.9,1.4c0,0.2,0.1,0.5,0.1,0.7    c-0.7-0.5-1.2-1.2-1.4-2.1c-0.2-1-0.4-2-0.6-3.1c-0.1-0.6,0-1.1,0.3-1.5c0.1-0.1,0.1-0.2,0.2-0.2c0.1,0.3,0.2,0.7,0.2,1    c0.1,0.6,0.6,0.9,1.2,0.9c0.1,0,0.2,0,0.3,0c0.6-0.2,1-0.8,0.9-1.4c0-0.1,0-0.2-0.1-0.3C243.6,241.9,244.2,242.7,244.4,243.6z    M241.5,231.1v0.1c0.2,1,0.4,1.9,0.6,3c0.1,0.6,0,1.1-0.3,1.5c-0.1,0.1-0.2,0.2-0.3,0.3c-0.2-0.6-0.3-1.3-0.5-1.9    c-0.2-0.6-0.8-1-1.4-0.9c-0.6,0.2-1,0.8-0.9,1.4c0.1,0.4,0.2,0.7,0.3,1.1c-0.7-0.5-1.3-1.2-1.4-2.1c-0.2-1-0.4-1.9-0.6-3    c-0.1-0.5,0-1,0.3-1.4c0.1-0.1,0.2-0.2,0.3-0.3c0.1,0.5,0.2,1,0.3,1.5c0.1,0.6,0.6,1,1.2,1c0.1,0,0.2,0,0.2,0    c0.6-0.1,1.1-0.8,0.9-1.4c-0.1-0.3-0.1-0.7-0.2-1C240.8,229.4,241.4,230.2,241.5,231.1z M239.5,223.7c0-0.4,0-0.7,0-1.1    c0.2,0.2,0.4,0.4,0.5,0.6C239.8,223.5,239.7,223.6,239.5,223.7z M292.1,253.9c-6.2,6.3-13,9.9-19.8,10.5c-1.3,0.1-2.5-0.6-3.2-1.8    c-2.1-4.1-12.4-23.6-26.3-39.7c0.1-0.4,0.2-0.7,0.2-1.1c0-1.1,0-2,0.1-3c0.1-0.7,0-1.4-0.2-2c4.9-3.6,9.8-9.6,11.4-13.6    c12.9,9.8,27.6,19.8,43.9,29.8l0.4,0.2c0.6,0.3,1,0.9,1.1,1.7C300.3,238.5,300.1,245.7,292.1,253.9z"/>
		<path d="M239.1,271c0.1-0.5,0.2-1.1,0.2-1.6c0.1-0.7,0.4-1.2,0.9-1.4c0.6-0.3,0.9-1,0.6-1.6s-1-0.9-1.6-0.6    c-1.3,0.6-2.2,1.8-2.3,3.4c0,0.5-0.1,1-0.2,1.5c-0.1,0.5-0.2,1.1-0.2,1.5c-0.4,2.5,1.1,5,3.5,5.8c0.1,0,0.3,0.1,0.4,0.1    c0.5,0,1-0.3,1.1-0.8c0.2-0.6-0.1-1.3-0.8-1.5c-1.2-0.4-2.1-1.9-1.9-3.2C239,272.1,239,271.5,239.1,271z"/>
		<path d="M243.7,280.3c-0.2,0.8-0.8,1.3-1.5,1.3s-1.2,0.5-1.2,1.2s0.5,1.2,1.2,1.2c1.8,0,3.3-1.2,3.8-3.1c0.3-1,0.6-2,0.8-3    c0.6-2.4-0.7-5.2-3-6.3c-0.6-0.3-1.3,0-1.6,0.6s0,1.3,0.6,1.6c1.2,0.6,2,2.2,1.6,3.6C244.3,278.3,244,279.3,243.7,280.3z"/>
		<path d="M461.9,467.8C461.9,467.8,461.9,467.7,461.9,467.8c0-0.2-0.1-0.3-0.1-0.5l0,0l0,0l0,0L443,434.6c-0.1-0.1-0.2-0.2-0.2-0.3    c0,0-0.1,0-0.1-0.1c-0.1,0-0.1-0.1-0.2-0.1l-21.4-10.9c0.1-0.7,0.1-1.5,0.2-2.2c0.1-1.3-0.4-2.4-1.2-3.3c-0.6-0.6-1.4-1-2.2-1.3    v-0.1c0.8-0.2,1.5-0.6,2-1.2c0.8-0.9,1.2-2.1,1.1-3.5c-0.1-0.5-0.2-1-0.2-1.4c-0.1-0.6-0.2-1.1-0.3-1.6c-0.3-2.2-2.2-4-4.3-4.4    c0-0.1,0-0.2-0.1-0.3c0.7-0.2,1.3-0.6,1.7-1.2c0.7-1,1-2.2,0.7-3.4c-0.1-0.6-0.3-1.2-0.4-1.8c-0.1-0.4-0.2-0.9-0.3-1.3    c-0.4-2.2-2.3-4-4.4-4.4c0-0.1,0-0.1,0-0.2c0.7-0.2,1.3-0.6,1.7-1.2c0.8-0.9,1-2.2,0.8-3.5l-0.1-0.5c-0.2-0.9-0.3-1.7-0.4-2.6    c-0.3-2.2-1.8-3.8-3.7-4.3c0-0.1,0-0.2,0-0.3c1.9-0.6,3.4-2.3,3.5-4.4c0.1-1.1,0.2-2,0.4-2.9c0.3-1.2,0-2.5-0.7-3.4    c-0.8-0.9-1.9-1.4-3.1-1.4c-0.7,0-1.2,0.5-1.2,1.2s0.5,1.2,1.2,1.2c0.6,0,1,0.2,1.3,0.6c0.3,0.3,0.4,0.8,0.2,1.4    c-0.2,1.1-0.3,2.1-0.4,3.3c0,0.8-0.5,1.5-1.1,2c0-0.5,0-1,0-1.5c0-0.7-0.5-1.2-1.2-1.2s-1.2,0.5-1.2,1.2c0,0.6,0,1.1,0,1.6    c-0.2-0.1-0.3-0.2-0.5-0.4c-0.3-0.3-0.5-0.8-0.5-1.5v-0.1c0-0.2,0-0.4,0-0.6c0-0.3,0.1-0.6,0.1-0.9c0-0.7-0.5-1.2-1.2-1.2    s-1.2,0.5-1.2,1.2c0,0.2,0,0.4,0,0.6c0,0.3-0.1,0.5-0.1,0.8c-0.1,1.2,0.3,2.4,1.1,3.3c0.6,0.7,1.4,1.1,2.3,1.3c0,0.1,0,0.1,0,0.2    c-0.8,0.2-1.5,0.6-2.1,1.2c-0.8,0.9-1.2,2.2-1.1,3.5c0.1,0.5,0.2,1,0.2,1.4c0.1,0.6,0.2,1.1,0.3,1.6c0.3,2.2,2.2,4,4.4,4.4    c0,0.1,0,0.1,0,0.2c-0.7,0.3-1.3,0.7-1.7,1.2c-0.7,1-1,2.2-0.7,3.4c0.1,0.6,0.3,1.2,0.4,1.8c0.1,0.4,0.2,0.9,0.3,1.4    c0.5,2.2,2.4,3.9,4.5,4.3c0,0.1,0,0.2,0.1,0.3c-0.6,0.2-1.2,0.6-1.6,1.1c-0.8,0.9-1.1,2.2-0.9,3.5l0.1,0.5    c0.2,0.9,0.3,1.7,0.4,2.6c0.3,2.2,1.8,3.8,3.8,4.3c0,0.1,0,0.1,0,0.2c-1.7,0.5-3,1.9-3.4,3.7l-27.5,14c-0.3,0.1-0.5,0.4-0.6,0.6    c-0.6,1.2-9.4,16.5-14.8,25.9l0,0c-2.1,3.7-3.7,6.4-3.8,6.6l0,0l0,0l0,0c-0.1,0.1-0.1,0.3-0.1,0.4v0.1c0,0.1,0,0.3,0,0.4    c0,0,0,0,0,0.1s0,0.1,0.1,0.2l4.9,10.6c0.1,0.2,0.2,0.4,0.4,0.5l42.2,27.3c0,0,0.1,0,0.1,0.1c0,0,0.1,0,0.1,0.1    c0.1,0,0.3,0.1,0.4,0.1s0.3,0,0.4-0.1c0,0,0.1,0,0.1-0.1c0,0,0.1,0,0.1-0.1l42.2-27.3c0.2-0.1,0.3-0.3,0.4-0.5l4.9-10.6    c0-0.1,0-0.1,0.1-0.2c0,0,0,0,0-0.1C461.9,468,461.9,467.9,461.9,467.8z M416,423.3c-0.4,0.1-0.8,0.5-0.8,1    c-0.1,0.6-0.2,1.3-0.4,1.9c-0.1-0.1-0.2-0.2-0.3-0.3c-0.3-0.4-0.4-1-0.4-1.6c0.1-0.6,0.2-1.2,0.3-1.8L416,423.3z M417.4,424l1,0.5    c-0.2,0.5-0.6,0.9-1.1,1.3c0.1-0.4,0.2-0.8,0.2-1.2C417.5,424.4,417.5,424.2,417.4,424z M412.6,427.4c0.4,0.5,0.9,0.8,1.5,1    c0,0.1-0.1,0.3-0.1,0.4c-0.2,0-0.3,0-0.5,0c-3.6,0-6.4,2.8-6.4,6.4c0,0.7,0.5,1.2,1.2,1.2s1.2-0.5,1.2-1.2c0-2.1,1.6-3.8,3.6-4    c0,0.1-0.1,0.2-0.1,0.3c-0.3,0.6,0,1.3,0.6,1.6c0.2,0.1,0.3,0.1,0.5,0.1c0.5,0,0.9-0.3,1.1-0.7c0.1-0.2,0.2-0.5,0.3-0.7    c1.2,0.7,2,2,2,3.5c0,0.7,0.5,1.2,1.2,1.2s1.2-0.5,1.2-1.2c0-2.6-1.4-4.7-3.6-5.8c0.1-0.3,0.2-0.6,0.3-0.8c1.7-0.3,3.1-1.5,3.9-3    l18.8,9.6l-25.7,13.2l-25.7-13.2l24-12.2c0,0.3-0.1,0.6-0.1,0.9C411.5,425.2,411.9,426.5,412.6,427.4z M414.8,450.5l26.6-13.6    l17.7,30.7L414.8,495L414.8,450.5L414.8,450.5z M418.9,420.8c0,0.4-0.1,0.8-0.1,1.2l-1.5-0.8c0.4-0.2,0.6-0.6,0.6-1s0-0.9,0-1.3    c0.2,0.1,0.3,0.2,0.4,0.3C418.6,419.6,419,420.1,418.9,420.8z M408.9,386.8c-0.1-0.5-0.2-1-0.3-1.6c-0.1-0.5-0.1-1-0.2-1.4    c-0.1-0.6,0.1-1.1,0.5-1.6c0.1-0.1,0.3-0.3,0.4-0.3c0,0.3,0.1,0.6,0.1,0.9c0.1,0.6,0.6,1.1,1.2,1.1h0.1c0.7-0.1,1.1-0.7,1-1.3    c0-0.1,0-0.2,0-0.4c0.6,0.4,1,1.1,1.2,1.9c0.1,0.9,0.3,1.8,0.4,2.7l0.1,0.5c0.1,0.6,0,1.2-0.3,1.5c-0.1,0.1-0.2,0.2-0.3,0.3    c-0.1-0.4-0.2-0.9-0.2-1.3c-0.1-0.7-0.7-1.1-1.4-1c-0.7,0.1-1.1,0.7-1,1.4c0,0.3,0.1,0.5,0.1,0.8    C409.6,388.4,409,387.7,408.9,386.8z M411.6,399.1c-0.1-0.5-0.2-0.9-0.3-1.4c-0.1-0.5-0.3-1.1-0.4-1.8c-0.1-0.5-0.1-1,0.2-1.4    c0.1-0.1,0.2-0.2,0.4-0.3c0.1,0.6,0.3,1.1,0.4,1.6s0.6,0.9,1.2,0.9c0.1,0,0.2,0,0.3,0c0.6-0.2,1-0.8,0.9-1.4    c-0.1-0.3-0.1-0.6-0.2-0.8c0.7,0.5,1.3,1.2,1.5,2c0.1,0.5,0.2,0.9,0.3,1.4c0.1,0.5,0.3,1.1,0.4,1.8c0.1,0.6,0.1,1.1-0.2,1.5    c-0.1,0.1-0.2,0.2-0.3,0.3c-0.1-0.6-0.3-1.3-0.4-1.9c-0.2-0.6-0.8-1-1.4-0.9c-0.6,0.2-1,0.8-0.9,1.4c0.1,0.4,0.2,0.7,0.2,1.1    C412.4,400.6,411.8,399.9,411.6,399.1z M414.1,411.6c-0.1-0.9-0.3-1.8-0.4-2.7l-0.1-0.5c-0.1-0.6,0-1.2,0.4-1.6    c0.1-0.1,0.2-0.2,0.3-0.2l0.2,1c0.1,0.6,0.6,1,1.2,1c0.1,0,0.2,0,0.2,0c0.6-0.1,1.1-0.8,0.9-1.4l-0.1-0.3c0.7,0.5,1.3,1.2,1.4,2.1    c0.1,0.5,0.2,1,0.3,1.6c0.1,0.5,0.1,1,0.2,1.4c0.1,0.6-0.1,1.2-0.5,1.6c-0.1,0.1-0.3,0.2-0.4,0.3c0-0.4-0.1-0.9-0.1-1.3    c-0.1-0.7-0.7-1.1-1.3-1c-0.7,0.1-1.1,0.7-1,1.3c0,0.3,0.1,0.5,0.1,0.8C414.7,413.1,414.2,412.4,414.1,411.6z M415.6,419    c0,0.4,0,0.8,0,1.2c0,0.1,0,0.1,0,0.2l-0.8-0.4C414.9,419.5,415.2,419.2,415.6,419z M371.4,461.9c2.7-4.7,6.5-11.2,9.5-16.6    c2.7-4.7,4.1-7.2,4.8-8.6l26.7,13.7v44.4l-44.3-27.3C368.8,466.4,370,464.4,371.4,461.9z M369.3,471l43.1,26.6v6l-40.1-25.9    L369.3,471z M454.9,477.7l-40.1,25.9v-5.9L458,471L454.9,477.7z"/>
		<path d="M289.7,403.7C289.7,403.6,289.7,403.6,289.7,403.7c0-0.2-0.1-0.3-0.1-0.5l-18.8-32.7c-0.1-0.2-0.3-0.4-0.5-0.5L248,358.6    c0.1-0.6,0.1-1.2,0.2-1.8c0.1-1.3-0.4-2.5-1.2-3.4c-0.6-0.6-1.3-1-2.1-1.2c0,0,0,0,0-0.1c0.8-0.2,1.5-0.6,2.1-1.2    c0.9-0.9,1.3-2.1,1.2-3.4c-0.1-1.1-0.2-2.1-0.3-3.1c-0.2-2.2-1.9-4-4-4.5c0-0.1,0-0.2,0-0.3c0.8-0.2,1.5-0.7,2-1.3    c0.8-0.9,1-2.1,0.8-3.4c-0.1-1.1-0.3-2.2-0.5-3.2c-0.4-2.2-2.2-3.9-4.2-4.3l0,0c0,0,0,0,0-0.1c0.7-0.2,1.3-0.6,1.7-1.1    c0.8-0.9,1.1-2.2,0.9-3.5l-0.1-0.5c-0.2-0.9-0.3-1.7-0.4-2.6c-0.3-2.2-1.9-3.9-3.9-4.4c0-0.1,0-0.2,0-0.4c0.7-0.2,1.3-0.6,1.9-1.1    c0.9-0.9,1.3-2.1,1.2-3.5c-0.1-1-0.1-2-0.1-3c0-2.1-1.3-3.9-3.2-4.5c2-0.5,3.6-2.2,3.9-4.3c0.2-1.1,0.4-2.1,0.6-3    c0.4-1.6,0-3.2-1.1-4.1c-0.5-0.4-1.3-0.4-1.7,0.1s-0.4,1.3,0.1,1.7c0.4,0.3,0.5,1,0.3,1.8c-0.2,1-0.4,2-0.6,3.1    c-0.1,0.8-0.6,1.5-1.2,2c0-0.3,0.1-0.5,0.1-0.8c0.1-0.7-0.3-1.3-1-1.4s-1.3,0.3-1.4,1c-0.1,0.5-0.1,1-0.2,1.4    c-0.2-0.1-0.3-0.2-0.5-0.4c-0.3-0.4-0.5-0.9-0.4-1.5c0.2-1,0.4-2,0.6-3.1c0.1-0.7-0.3-1.3-1-1.4s-1.3,0.3-1.4,1    c-0.2,1.1-0.4,2.1-0.6,3.1c-0.2,1.3,0.1,2.5,0.9,3.4c0.5,0.6,1.2,1,1.9,1.2c-2,0.5-3.5,2.4-3.5,4.5c0,0.6,0,1.1,0.1,1.7    c0,0.5,0,0.9,0,1.5c0.1,2.2,1.7,4,3.8,4.5c0,0.1,0,0.2,0,0.3c-0.8,0.2-1.5,0.6-2,1.3c-0.8,0.9-1.1,2.2-0.9,3.4    c0.1,0.5,0.2,1,0.2,1.4c0.1,0.6,0.2,1.1,0.3,1.6c0.3,2.2,2.1,4,4.2,4.4c0,0,0,0,0,0.1c-0.7,0.2-1.2,0.6-1.7,1.1    c-0.8,0.9-1.1,2.2-0.9,3.5c0.1,0.5,0.2,1,0.2,1.4c0.1,0.6,0.2,1.1,0.3,1.6c0.3,2.2,2,3.9,4.1,4.4c0,0.1,0,0.2,0.1,0.4    c-0.7,0.2-1.3,0.6-1.8,1.1c-0.8,0.9-1.2,2.2-1.1,3.4c0.1,1.1,0.2,2.1,0.3,3.1c0.1,2.2,1.6,4,3.6,4.5l0,0c-2,0.5-3.5,2.3-3.6,4.4    l-26.4,13.5c-0.3,0.1-0.5,0.4-0.6,0.7c-0.6,1.2-7.9,14-14.8,25.9l0,0c-2.2,3.8-3.8,6.6-3.8,6.6c-0.1,0.1-0.1,0.3-0.1,0.4v0.1    c0,0.1,0,0.3,0,0.4c0,0,0,0,0,0.1s0,0.1,0.1,0.2l4.9,10.6c0.1,0.2,0.2,0.4,0.4,0.5l41.9,27.1c0.2,0.2,0.5,0.4,0.9,0.4l0,0    c0,0,0,0,0.1,0c0.2,0,0.5-0.1,0.7-0.2l42.2-27.3c0.2-0.1,0.3-0.3,0.4-0.5l4.9-10.6c0-0.1,0-0.1,0.1-0.2c0,0,0,0,0-0.1    C289.7,403.9,289.7,403.8,289.7,403.7z M241.4,358l3.9,2c-0.2,0.7-0.6,1.3-1.2,1.6c0.1-0.4,0.1-0.8,0.2-1.2c0.1-0.7-0.4-1.3-1-1.3    c-0.7-0.1-1.3,0.4-1.3,1c-0.1,0.6-0.2,1.1-0.3,1.7c-0.1-0.1-0.2-0.2-0.3-0.3c-0.4-0.4-0.5-1-0.4-1.7v-0.1c0.1-0.5,0.1-1.1,0.2-1.7    H241.4z M239.6,363.2c0.4,0.5,1,0.8,1.6,1c0,0.2-0.1,0.4-0.1,0.6c-0.1,0-0.1,0-0.2,0c-3.6,0-6.4,2.8-6.4,6.4    c0,0.7,0.5,1.2,1.2,1.2s1.2-0.5,1.2-1.2c0-2.1,1.5-3.7,3.5-4c0,0.1-0.1,0.2-0.1,0.3c-0.2,0.6,0.1,1.3,0.8,1.5    c0.1,0,0.2,0.1,0.4,0.1c0.5,0,1-0.3,1.1-0.8c0.1-0.2,0.1-0.4,0.2-0.6c1.2,0.7,2.1,2,2.1,3.5c0,0.7,0.5,1.2,1.2,1.2    s1.2-0.5,1.2-1.2c0-2.7-1.6-4.9-3.8-5.9c0.1-0.3,0.2-0.6,0.2-0.9c1.8-0.4,3.3-1.7,3.9-3.3l19.7,10.1l-25.9,13.2l-25.7-13.2    l22.9-11.7v0.1v0.1C238.4,361.1,238.8,362.3,239.6,363.2z M242.5,386.5l26.8-13.7l17.6,30.6L242.5,431V386.5z M245.7,356.6    c0,0.3-0.1,0.6-0.1,0.8l-1.2-0.6c0.1-0.2,0.2-0.4,0.3-0.6c0-0.5,0.1-1,0.1-1.5c0.1,0.1,0.3,0.2,0.4,0.3    C245.6,355.5,245.8,356,245.7,356.6z M236.1,310.4c0-0.5,0-1,0-1.5s-0.1-1-0.1-1.6c0-0.8,0.5-1.5,1.1-2c0,0.5,0,0.9,0,1.4    c0,0.7,0.5,1.2,1.2,1.2s1.2-0.5,1.2-1.2c0-0.4,0-0.9,0-1.3c0.6,0.4,1,1.1,1,1.9c0,1,0,2.1,0.1,3.2c0,0.6-0.2,1.2-0.6,1.6    c-0.1,0.1-0.2,0.2-0.3,0.3c0-0.5-0.1-1-0.1-1.5c0-0.7-0.6-1.2-1.2-1.2c-0.7,0-1.2,0.6-1.2,1.2c0,0.5,0,0.9,0.1,1.4    C236.6,311.9,236.2,311.2,236.1,310.4z M237.5,322.7c-0.1-0.5-0.2-1-0.3-1.6c-0.1-0.5-0.1-1-0.2-1.5c-0.1-0.6,0.1-1.1,0.4-1.5    c0.1-0.1,0.3-0.3,0.4-0.4c0,0.3,0.1,0.6,0.1,0.9c0.1,0.6,0.6,1.1,1.2,1.1h0.1c0.7-0.1,1.1-0.7,1-1.3c0-0.1,0-0.3,0-0.4    c0.7,0.4,1.1,1.2,1.3,2c0.1,0.9,0.3,1.8,0.4,2.7l0.1,0.5c0.1,0.6,0,1.2-0.4,1.6c-0.1,0.1-0.2,0.2-0.3,0.3    c-0.1-0.4-0.2-0.9-0.2-1.3c-0.1-0.7-0.7-1.1-1.4-1s-1.1,0.7-1,1.4c0,0.3,0.1,0.5,0.1,0.8C238.2,324.3,237.6,323.6,237.5,322.7z    M239.6,334.9c-0.1-0.5-0.2-1-0.3-1.6c-0.1-0.5-0.1-1-0.2-1.5c-0.1-0.6,0-1.2,0.4-1.6c0.1-0.1,0.2-0.2,0.3-0.2    c0.1,0.5,0.2,1.1,0.3,1.6c0.1,0.6,0.6,1,1.2,1c0.1,0,0.1,0,0.2,0c0.7-0.1,1.1-0.7,1-1.4c-0.1-0.3-0.1-0.7-0.2-1    c0.7,0.5,1.2,1.2,1.4,2.1c0.2,1,0.4,1.9,0.5,3v0.1c0.1,0.6,0,1.1-0.3,1.5c-0.1,0.2-0.3,0.3-0.5,0.4c-0.1-0.6-0.2-1.2-0.3-1.7    c-0.1-0.7-0.7-1.1-1.4-1s-1.1,0.7-1,1.4c0.1,0.4,0.1,0.7,0.2,1.1C240.2,336.5,239.7,335.7,239.6,334.9z M241.2,347.5    c-0.1-1-0.2-2-0.3-3.1c-0.1-0.6,0.1-1.2,0.5-1.6c0.1-0.1,0.2-0.2,0.3-0.3c0,0.3,0.1,0.6,0.1,0.9c0.1,0.6,0.6,1.1,1.2,1.1h0.1    c0.7-0.1,1.1-0.7,1-1.3c0-0.1,0-0.3-0.1-0.4c0.7,0.4,1.2,1.2,1.3,2c0.1,1,0.2,2,0.3,3c0,0.6-0.2,1.2-0.6,1.6    c-0.1,0.1-0.2,0.2-0.4,0.3c0-0.4,0-0.7,0-1.1c0-0.7-0.6-1.1-1.2-1.2c-0.7,0-1.2,0.6-1.2,1.2c0,0.3,0,0.6,0,1    C241.7,349.1,241.3,348.4,241.2,347.5z M242.4,354.8c0,0.3,0,0.6,0,0.9l-0.4-0.2c-0.1,0-0.2-0.1-0.3-0.1    C241.9,355.2,242.1,355,242.4,354.8z M199.2,397.8c2.8-4.8,6.5-11.2,9.5-16.6c1.5-2.7,2.9-5,3.8-6.7c0.4-0.7,0.7-1.3,1-1.7    l26.6,13.7v44.3L196,403.4C196.6,402.3,197.8,400.3,199.2,397.8z M197.1,406.9l43,26.6v5.9l-40-25.8L197.1,406.9z M282.7,413.6    l-40.2,26v-5.8l43.2-26.9L282.7,413.6z"/>
		<path d="M631.8,412C631.8,412,631.8,411.9,631.8,412c0-0.2-0.1-0.3-0.1-0.5l0,0l0,0l0,0l-18.8-32.7c-0.1-0.1-0.2-0.2-0.2-0.3    c0,0-0.1,0-0.1-0.1c-0.1,0-0.1-0.1-0.2-0.1l-27.4-14c-0.2-1.9-1.4-3.5-3.1-4l0,0c2.1-0.5,3.8-2.2,4.1-4.4c0.2-1.1,0.4-2.1,0.6-3.1    c0.3-1.3,0-2.6-0.8-3.5c-0.4-0.5-0.9-0.9-1.5-1.1c0-0.1,0.1-0.3,0.1-0.4c2.1-0.4,4-2.2,4.4-4.4c0.2-1.1,0.4-2.1,0.6-3.1    c0.2-1.3-0.1-2.6-0.9-3.5c-0.5-0.5-1.1-0.9-1.7-1.1c2.1-0.5,3.7-2.4,3.7-4.6c0-1.1,0-2.1-0.1-3.2c0-1-0.4-2-1.2-2.7    c-0.5-0.5-1.2-0.5-1.7,0s-0.5,1.2,0,1.7c0.3,0.3,0.4,0.7,0.4,1.1v0.1c0.1,0.9,0.1,1.9,0.1,3c0,0.8-0.5,1.5-1.1,1.9    c0-0.4,0-0.7,0-1.1c0-0.7-0.5-1.2-1.2-1.2s-1.2,0.5-1.2,1.2c0,0.4,0,0.8,0,1.2c-0.6-0.4-1-1.1-1-2c0-1,0-2.1-0.1-3.2    c-0.1-0.7-0.6-1.1-1.3-1.1c-0.7,0.1-1.1,0.6-1.1,1.3c0.1,1,0.1,2,0.1,3c0,2.2,1.3,3.9,3.1,4.5c-2,0.5-3.6,2.2-4.1,4.3    c-0.2,1.1-0.4,2.1-0.6,3.1c-0.3,1.3,0,2.6,0.8,3.5c0.4,0.5,1,0.9,1.6,1.1c0,0.1-0.1,0.2-0.1,0.4c-2.1,0.4-4.1,2.2-4.5,4.4    c-0.2,1.1-0.4,2.1-0.6,3.1c-0.3,1.3,0,2.5,0.8,3.4c0.5,0.6,1.2,1,1.9,1.3c0,0,0,0,0,0.1c-2.1,0.5-3.7,2.4-3.7,4.6v0.1    c0,0.5,0.1,1,0.1,1.5c0,0.4,0,0.7,0.1,1l-21.3,10.9c-0.3,0.1-0.5,0.4-0.6,0.6c-0.6,1.2-9.4,16.5-14.8,25.9l0,0    c-2.1,3.7-3.7,6.4-3.8,6.6l0,0l0,0l0,0c-0.1,0.1-0.1,0.2-0.1,0.4v0.1c0,0.1,0,0.3,0,0.4c0,0,0,0,0,0.1s0,0.1,0.1,0.2l4.9,10.6    c0.1,0.2,0.2,0.4,0.4,0.5l41.9,27.1c0.2,0.2,0.5,0.4,0.9,0.4l0,0c0,0,0,0,0.1,0c0.2,0,0.5-0.1,0.7-0.2l42.2-27.3    c0.2-0.1,0.3-0.3,0.4-0.5l4.9-10.6c0-0.1,0-0.1,0.1-0.2c0,0,0,0,0-0.1C631.8,412.2,631.8,412.1,631.8,412z M582.7,366.7    c0,0.4,0.1,0.7,0.1,1.1v0.3c0.1,0.7-0.1,1.3-0.4,1.7c-0.1,0.1-0.2,0.2-0.3,0.3c-0.1-0.6-0.2-1.1-0.3-1.7c0-0.4-0.3-0.7-0.6-0.9    L582.7,366.7z M579.6,369.7c-0.4-0.2-0.7-0.6-1-1l0.8-0.4c0,0.1,0,0.1,0,0.2C579.5,369,579.6,369.4,579.6,369.7z M580.2,372.5    c0.1,0.3,0.2,0.6,0.2,0.9c-2.2,1-3.7,3.2-3.7,5.8c0,0.7,0.5,1.2,1.2,1.2s1.2-0.5,1.2-1.2c0-1.5,0.8-2.8,2.1-3.5    c0.1,0.3,0.2,0.5,0.3,0.8c0.2,0.4,0.6,0.7,1.1,0.7c0.2,0,0.3,0,0.5-0.1c0.6-0.3,0.9-1,0.6-1.6c0-0.1-0.1-0.2-0.1-0.3    c2,0.2,3.5,1.9,3.5,4c0,0.7,0.5,1.2,1.2,1.2s1.2-0.5,1.2-1.2c0-3.6-2.8-6.4-6.4-6.4c-0.1,0-0.2,0-0.4,0c0-0.2-0.1-0.3-0.1-0.5    c0.6-0.2,1.1-0.6,1.6-1c0.8-0.9,1.2-2.2,1.1-3.5v-0.3c0-0.1,0-0.3,0-0.4l24,12.3l-25.8,13.2l-25.6-13.2l18.7-9.5    C577.2,371.2,578.6,372.2,580.2,372.5z M584.6,394.7l26.7-13.6l17.7,30.7l-44.4,27.5V394.7z M582.5,364.1l-1,0.5    c0-0.1,0.1-0.2,0.1-0.4c0-0.4,0-0.9,0-1.4C582.1,363.1,582.4,363.6,582.5,364.1z M581.9,343.5c0.2-1,0.4-2,0.6-3.1    c0.2-0.9,0.7-1.6,1.4-2.1c-0.1,0.3-0.1,0.7-0.2,1c-0.1,0.6,0.3,1.3,0.9,1.4c0.1,0,0.2,0,0.2,0c0.6,0,1.1-0.4,1.2-1    c0.1-0.5,0.2-1.1,0.3-1.6c0.1,0.1,0.2,0.2,0.3,0.2c0.3,0.4,0.5,0.9,0.4,1.5c-0.2,1-0.4,2-0.6,3.1c-0.2,0.8-0.7,1.5-1.4,2    c0.1-0.3,0.2-0.7,0.2-1c0.2-0.6-0.2-1.3-0.9-1.4c-0.6-0.2-1.3,0.2-1.4,0.9c-0.1,0.6-0.3,1.2-0.4,1.8c-0.1-0.1-0.2-0.2-0.3-0.3    C581.9,344.6,581.8,344.1,581.9,343.5z M579.4,357.4c-0.3-0.4-0.4-0.9-0.3-1.5c0.2-1,0.4-2,0.6-3.1c0.2-0.8,0.8-1.6,1.5-2.1    c0,0.1,0,0.2-0.1,0.2c-0.2,0.6,0.2,1.3,0.9,1.4c0.1,0,0.2,0,0.3,0c0.5,0,1-0.4,1.2-0.9c0.1-0.3,0.2-0.7,0.2-1    c0.1,0.1,0.2,0.1,0.2,0.2c0.3,0.4,0.4,0.9,0.3,1.6c-0.2,1-0.4,2-0.6,3.2c-0.1,0.8-0.7,1.6-1.4,2c0-0.2,0.1-0.5,0.1-0.7    c0.1-0.6-0.3-1.3-0.9-1.4c-0.6-0.1-1.3,0.3-1.4,0.9c-0.1,0.5-0.2,0.9-0.2,1.4C579.7,357.7,579.5,357.5,579.4,357.4z M578.1,364.8    c0-0.8,0.5-1.5,1.1-1.9c0,0.4,0,0.9,0,1.3c0,0.5,0.4,1,0.8,1.1l-1.8,0.9C578.2,365.8,578.2,365.3,578.1,364.8z M541.3,406.1    c2.7-4.7,6.5-11.2,9.5-16.6c2.7-4.7,4.1-7.2,4.8-8.6l26.6,13.7v44.3L538,411.7C538.7,410.6,539.9,408.6,541.3,406.1z M539.2,415.2    l43,26.5v6l-40-25.8L539.2,415.2z M624.8,421.9l-40.2,26V442l43.2-26.8L624.8,421.9z"/>
		<path d="M290.9,334.6c-0.7-0.1-1.3,0.4-1.3,1.1c-0.2,1.8-0.5,3.6-0.8,5.3c-0.1,0.7,0.3,1.3,1,1.4c0.1,0,0.1,0,0.2,0    c0.6,0,1.1-0.4,1.2-1c0.3-1.8,0.6-3.6,0.8-5.5C292,335.3,291.5,334.7,290.9,334.6z"/>
		<path d="M289,345.9c-0.7-0.1-1.3,0.3-1.4,1l-0.2,1.2c-1,6-2.1,12.2-2,18.4c0,0.7,0.5,1.2,1.2,1.2l0,0c0.7,0,1.2-0.6,1.2-1.2    c-0.1-5.9,1-12,2-17.9l0.2-1.2C290.1,346.7,289.7,346.1,289,345.9z"/>
		<path d="M288.4,379.1c0.1,0,0.3,0,0.4-0.1c0.6-0.2,1-0.9,0.7-1.5c-0.6-1.7-1-3.4-1.3-5.8c-0.1-0.7-0.7-1.1-1.4-1    c-0.7,0.1-1.1,0.7-1,1.4c0.4,2.5,0.8,4.4,1.5,6.2C287.5,378.8,287.9,379.1,288.4,379.1z"/>
		<path d="M278,332.8L278,332.8c0.7,0,1.2-0.5,1.3-1.1c0.1-2.5,0.1-4.7-0.1-6.8c-0.1-0.7-0.6-1.1-1.3-1.1c-0.7,0.1-1.1,0.6-1.1,1.3    c0.2,1.9,0.2,4,0.1,6.4C276.8,332.2,277.3,332.8,278,332.8z"/>
		<path d="M276.1,338.1c-0.3,2.5-0.7,4.9-1.2,7.4c-0.1,0.6,0.3,1.3,0.9,1.4c0.1,0,0.2,0,0.2,0c0.6,0,1.1-0.4,1.2-1    c0.5-2.5,0.9-5.1,1.2-7.6c0.1-0.7-0.4-1.3-1-1.3C276.8,337,276.2,337.4,276.1,338.1z"/>
		<path d="M274,351c-0.4,1.7-0.7,3.7-0.9,5.6c-0.1,0.7,0.4,1.3,1.1,1.3h0.1c0.6,0,1.1-0.5,1.2-1.1c0.2-1.9,0.5-3.7,0.9-5.4    c0.1-0.6-0.3-1.3-0.9-1.4C274.7,349.9,274.1,350.3,274,351z"/>
		<path d="M265.1,316.1c-0.2-0.6-0.9-1-1.5-0.8s-1,0.9-0.8,1.5c1,3,1.5,6.1,1.7,9.8c0,0.6,0.6,1.1,1.2,1.1c0,0,0,0,0.1,0    c0.7,0,1.2-0.6,1.1-1.3C266.7,322.6,266.1,319.3,265.1,316.1z"/>
		<path d="M265.7,332.5c-0.7-0.1-1.2,0.4-1.3,1.1c-0.2,2.4-0.5,4.7-0.9,6.9c-0.1,0.7,0.3,1.3,1,1.4c0.1,0,0.1,0,0.2,0    c0.6,0,1.1-0.4,1.2-1c0.4-2.2,0.7-4.7,0.9-7.1C266.9,333.2,266.4,332.6,265.7,332.5z"/>
		<path d="M195.8,343.5c0.4-2.5,0.8-5,1.1-7.5c0.1-0.7-0.4-1.3-1-1.3c-0.7-0.1-1.3,0.4-1.3,1c-0.3,2.5-0.7,5-1.1,7.5    c-0.1,0.7,0.3,1.3,1,1.4c0.1,0,0.1,0,0.2,0C195.2,344.5,195.7,344.1,195.8,343.5z"/>
		<path d="M193.8,347.9c-0.7-0.1-1.3,0.3-1.4,1c-0.2,0.9-0.3,1.9-0.5,2.8c-0.1,0.9-0.3,1.8-0.4,2.7c-0.1,0.7,0.3,1.3,1,1.4    c0.1,0,0.1,0,0.2,0c0.6,0,1.1-0.4,1.2-1c0.1-0.9,0.3-1.8,0.4-2.7c0.2-0.9,0.3-1.9,0.5-2.8C194.9,348.7,194.5,348,193.8,347.9z"/>
		<path d="M193.9,379.1c0.6-0.2,1-0.9,0.8-1.5c-1.6-5-2.1-10.4-1.5-17c0.1-0.7-0.4-1.2-1.1-1.3c-0.7-0.1-1.2,0.4-1.3,1.1    c-0.6,7-0.1,12.7,1.7,18c0.2,0.5,0.6,0.8,1.1,0.8C193.7,379.1,193.8,379.1,193.9,379.1z"/>
		<path d="M209.7,338.4c0.7-5,0.9-9.4,0.6-13.4c0-0.7-0.6-1.2-1.3-1.1c-0.7,0-1.2,0.6-1.1,1.3c0.3,3.9,0.1,8.1-0.6,13    c-0.1,0.7,0.4,1.3,1,1.4c0.1,0,0.1,0,0.2,0C209.1,339.4,209.6,339,209.7,338.4z"/>
		<path d="M206.4,343.6c-0.1,0.6-0.2,1.2-0.3,1.8c-0.1,0.6-0.3,1.3-0.4,2c-0.1,0.7,0.3,1.3,1,1.4c0.1,0,0.1,0,0.2,0    c0.6,0,1.1-0.4,1.2-1c0.1-0.6,0.2-1.2,0.3-1.8c0.1-0.6,0.3-1.3,0.4-2c0.1-0.7-0.3-1.3-1-1.4C207.2,342.5,206.5,343,206.4,343.6z"/>
		<path d="M204.2,356.5c-0.1,0.7,0.3,1.3,1,1.4c0.1,0,0.1,0,0.2,0c0.6,0,1.1-0.4,1.2-1c0.1-0.7,0.2-1.3,0.3-2s0.2-1.3,0.3-2    s-0.3-1.3-1-1.4s-1.3,0.3-1.4,1c-0.1,0.7-0.2,1.3-0.3,2S204.3,355.9,204.2,356.5z"/>
		<path d="M219.4,315.3c-0.6,0.2-1,0.9-0.8,1.5c0.9,2.9,1.4,5.5,1.6,7.8c0,0.6,0.6,1.1,1.2,1.1h0.1c0.7,0,1.2-0.6,1.1-1.3    c-0.2-2.5-0.7-5.2-1.6-8.4C220.7,315.4,220,315.1,219.4,315.3z"/>
		<path d="M220.3,330.3c-0.1,3.2-0.4,6.5-1.1,10.2c-0.1,0.7,0.3,1.3,1,1.4c0.1,0,0.1,0,0.2,0c0.6,0,1.1-0.4,1.2-1    c0.7-3.9,1-7.2,1.1-10.6c0-0.7-0.5-1.2-1.2-1.2C220.9,329.1,220.3,329.6,220.3,330.3z"/>
		<path d="M209.9,221.1c-0.6-0.1-1.3,0.3-1.4,0.9c-0.4,1.8-0.8,3.6-1.3,5.3c-0.2,0.6,0.2,1.3,0.8,1.5c0.1,0,0.2,0,0.3,0    c0.5,0,1-0.3,1.2-0.9c0.5-1.8,0.9-3.7,1.3-5.5C210.9,221.9,210.5,221.3,209.9,221.1z"/>
		<path d="M205.8,233.4c-1.3,5.9-2.2,13,0.9,20c0.2,0.5,0.6,0.7,1.1,0.7c0.2,0,0.3,0,0.5-0.1c0.6-0.3,0.9-1,0.6-1.6    c-2.8-6.4-1.9-13-0.7-18.6c0.1-0.6-0.3-1.3-0.9-1.4C206.5,232.3,205.9,232.7,205.8,233.4z"/>
		<path d="M197.3,219.3c0.1,0,0.1,0,0.2,0c0.6,0,1.1-0.4,1.2-1c0.4-2.7,0.5-4.8,0.4-6.8c0-0.7-0.6-1.2-1.3-1.1    c-0.7,0-1.2,0.6-1.1,1.3c0.1,1.8,0,3.8-0.4,6.4C196.1,218.6,196.6,219.2,197.3,219.3z"/>
		<path d="M195,224.3c-0.3,1.2-0.6,2.5-0.9,3.7c-0.3,1.3-0.7,2.5-1,3.8c-0.2,0.6,0.2,1.3,0.9,1.4c0.1,0,0.2,0,0.3,0    c0.5,0,1-0.4,1.2-0.9c0.3-1.2,0.6-2.5,0.9-3.7c0.3-1.3,0.7-2.5,1-3.8c0.2-0.6-0.2-1.3-0.9-1.4C195.8,223.3,195.1,223.7,195,224.3z    "/>
		<path d="M191.9,237.5c-0.3,1.7-0.4,3.5-0.4,5.7c0,0.7,0.5,1.2,1.2,1.2s1.2-0.5,1.2-1.2c0-2,0.1-3.8,0.4-5.3c0.1-0.7-0.3-1.3-1-1.4    C192.7,236.4,192.1,236.9,191.9,237.5z"/>
		<path d="M183.1,201.7c-0.6,0.3-0.9,1-0.6,1.6c1.3,2.9,1.9,6,1.9,9.6c0,0.7,0.5,1.2,1.2,1.2s1.2-0.5,1.2-1.2c0-4-0.7-7.3-2.1-10.6    C184.5,201.7,183.8,201.5,183.1,201.7z"/>
		<path d="M185,219c-0.6-0.1-1.3,0.3-1.4,1c-0.4,2.4-1,4.8-1.6,6.9c-0.2,0.6,0.2,1.3,0.9,1.5c0.1,0,0.2,0,0.3,0c0.5,0,1-0.4,1.2-0.9    c0.6-2.2,1.2-4.7,1.6-7.1C186.1,219.8,185.7,219.2,185,219z"/>
		<path d="M615.4,229.7c-0.7,0-1.2,0.6-1.1,1.3c0.1,1.8,0.1,3.6,0.1,5.3c0,0.7,0.5,1.2,1.2,1.2s1.2-0.5,1.2-1.2c0-1.8,0-3.6-0.1-5.5    C616.6,230.2,616,229.7,615.4,229.7z"/>
		<path d="M612.4,261.4c-0.1,0.7,0.4,1.3,1,1.3c0,0,0.1,0,0.2,0c0.6,0,1.1-0.4,1.2-1.1c0.7-5.4,1.5-12.4,1.8-19.4    c0-0.7-0.5-1.2-1.1-1.3c-0.7,0-1.2,0.5-1.3,1.1C613.9,249.1,613.1,256.1,612.4,261.4z"/>
		<path d="M611.7,266.8c-0.2,1-0.3,2-0.4,3c-0.1,1-0.2,2-0.4,3c-0.1,0.7,0.4,1.3,1,1.4c0.1,0,0.1,0,0.2,0c0.6,0,1.1-0.4,1.2-1    c0.2-1,0.3-2,0.4-3c0.1-1,0.2-2,0.4-3c0.1-0.7-0.4-1.3-1-1.4C612.5,265.7,611.8,266.2,611.7,266.8z"/>
		<path d="M627.2,218.9c-0.7,0.1-1.1,0.7-1,1.4c0.4,2.1,0.6,4.3,0.8,6.5l0,0c0.1,0.6,0.6,1.1,1.2,1.1h0.1c0.7-0.1,1.1-0.7,1.1-1.3    c-0.2-2.2-0.4-4.4-0.8-6.7C628.5,219.3,627.9,218.8,627.2,218.9z"/>
		<path d="M628.6,232.1c-0.7,0-1.2,0.5-1.2,1.2c0,2.4,0,5-0.1,7.5c0,0.7,0.5,1.2,1.2,1.2l0,0c0.6,0,1.2-0.5,1.2-1.2    c0.1-2.5,0.1-5.1,0.1-7.5C629.8,232.7,629.3,232.1,628.6,232.1z"/>
		<path d="M629,252c0.1-0.9,0.2-1.8,0.3-2.8c0.1-0.9,0.1-1.8,0.2-2.7c0.1-0.7-0.4-1.3-1.1-1.3c-0.6-0.1-1.3,0.4-1.3,1.1    c-0.1,0.9-0.2,1.8-0.3,2.8c-0.1,0.9-0.1,1.8-0.2,2.7c-0.1,0.7,0.4,1.3,1.1,1.3h0.1C628.4,253,629,252.6,629,252z"/>
		<path d="M640.1,222.8c0.7-0.1,1.1-0.7,1-1.4c-0.6-4-1.2-7.2-2-10.2c-0.2-0.6-0.8-1-1.5-0.9c-0.6,0.2-1,0.8-0.9,1.5    c0.8,3,1.4,6.1,2,10c0.1,0.6,0.6,1,1.2,1C640,222.8,640,222.8,640.1,222.8z"/>
		<path d="M640.7,227.7c-0.7,0-1.2,0.6-1.1,1.3c0.1,2.4,0.2,4.7,0.2,6.9c0,0.7,0.5,1.2,1.2,1.2s1.2-0.5,1.2-1.2    c0-2.3-0.1-4.6-0.2-7.1C641.9,228.2,641.4,227.7,640.7,227.7z"/>
		<path d="M508.9,297.3C509,297.3,509,297.3,508.9,297.3c0.7,0,1.2-0.5,1.3-1.1l0.6-7.5c0.1-0.7-0.4-1.2-1.1-1.3    c-0.6-0.1-1.2,0.4-1.3,1.1l-0.6,7.5C507.8,296.7,508.3,297.3,508.9,297.3z"/>
		<path d="M507.4,307.5c0,0.7,0.5,1.2,1.2,1.2s1.2-0.5,1.2-1.2c0-1.8,0-3.7,0.1-5.4c0-0.7-0.5-1.2-1.1-1.3c-0.7,0-1.2,0.5-1.3,1.1    C507.4,303.8,507.4,305.7,507.4,307.5z"/>
		<path d="M510,313.1c0-0.7-0.6-1.2-1.3-1.1c-0.7,0-1.2,0.6-1.1,1.3c0.5,6.5,1.3,12.3,2.7,17.7c0.1,0.5,0.6,0.9,1.2,0.9    c0.1,0,0.2,0,0.3,0c0.6-0.2,1-0.8,0.9-1.5C511.3,325.2,510.5,319.5,510,313.1z"/>
		<path d="M524.2,276.6c-0.6-0.1-1.3,0.4-1.4,1c-0.6,4.4-1.1,8.9-1.5,13.3c-0.1,0.7,0.4,1.2,1.1,1.3h0.1c0.6,0,1.1-0.5,1.2-1.1    c0.4-4.4,0.9-8.8,1.5-13.1C525.3,277.3,524.8,276.7,524.2,276.6z"/>
		<path d="M522.1,295.4c-0.7-0.1-1.2,0.4-1.3,1.1s-0.1,1.3-0.1,2c0,0.6,0,1.2-0.1,1.8c-0.1,0.7,0.4,1.2,1.1,1.3h0.1    c0.6,0,1.1-0.5,1.2-1.1c0.1-0.7,0.1-1.3,0.1-1.9s0-1.2,0.1-1.9C523.3,296.1,522.8,295.5,522.1,295.4z"/>
		<path d="M521.7,304.3c-0.7,0-1.2,0.5-1.2,1.2v4c0,0.7,0.5,1.2,1.2,1.2s1.2-0.5,1.2-1.2v-4C522.9,304.9,522.4,304.3,521.7,304.3z"/>
		<path d="M537.6,268.1c-0.7-0.1-1.3,0.4-1.4,1c-0.2,1.4-0.4,2.7-0.6,4.1c-0.2,1.3-0.3,2.7-0.5,4c-0.1,0.7,0.4,1.3,1,1.4    c0.1,0,0.1,0,0.2,0c0.6,0,1.1-0.4,1.2-1c0.2-1.4,0.4-2.7,0.6-4.1c0.2-1.3,0.3-2.7,0.5-4C538.7,268.8,538.3,268.2,537.6,268.1z"/>
		<path d="M534.4,283.1c-0.5,3.4-0.8,6.6-1.1,10.5c-0.1,0.7,0.4,1.2,1.1,1.3h0.1c0.6,0,1.1-0.5,1.2-1.1c0.3-3.8,0.6-7,1.1-10.3    c0.1-0.7-0.4-1.3-1-1.4C535.1,281.9,534.5,282.4,534.4,283.1z"/>
		<path d="M335.4,342.3c-0.7-0.1-1.3,0.3-1.4,1c-0.2,1.2-0.4,2.5-0.6,3.7c-0.2,1.3-0.5,2.5-0.7,3.8c-0.1,0.7,0.3,1.3,1,1.4    c0.1,0,0.1,0,0.2,0c0.6,0,1.1-0.4,1.2-1c0.2-1.2,0.4-2.5,0.6-3.7c0.2-1.3,0.5-2.5,0.7-3.8C336.5,343.1,336.1,342.4,335.4,342.3z"/>
		<path d="M334.4,357c0.1-0.7-0.4-1.3-1.1-1.3c-0.7-0.1-1.3,0.4-1.3,1.1c-0.7,6.3-0.5,11.3,0.6,15.9c0.1,0.5,0.6,0.9,1.2,0.9    c0.1,0,0.2,0,0.3,0c0.6-0.2,1-0.8,0.9-1.5C333.9,367.7,333.7,363,334.4,357z"/>
		<path d="M349.8,331.6c-0.7,0-1.2,0.5-1.3,1.1c-0.2,4.3-1,8.8-1.8,13c-0.1,0.7,0.3,1.3,1,1.4c0.1,0,0.1,0,0.2,0    c0.6,0,1.1-0.4,1.2-1c0.8-4.4,1.6-8.9,1.8-13.4C351,332.2,350.4,331.7,349.8,331.6z"/>
		<path d="M346.3,356.5c0.6,0,1.1-0.4,1.2-1s0.2-1.3,0.3-1.9c0.1-0.6,0.2-1.3,0.3-1.9c0.1-0.7-0.3-1.3-1-1.4s-1.3,0.3-1.4,1    s-0.2,1.3-0.3,1.9c-0.1,0.6-0.2,1.2-0.3,1.9c-0.1,0.7,0.3,1.3,1,1.4C346.2,356.5,346.3,356.5,346.3,356.5z"/>
		<path d="M372.1,342.4c0.1,0,0.1,0,0.2,0c0.6,0,1.1-0.4,1.2-1c0.9-5.2,1.3-9.5,1.1-13.5c0-0.7-0.6-1.1-1.3-1.1    c-0.7,0-1.2,0.6-1.1,1.3c0.2,3.8-0.2,7.9-1.1,12.9C371,341.7,371.5,342.3,372.1,342.4z"/>
		<path d="M373,318.3c-0.2-0.6-0.9-1-1.5-0.8s-1,0.9-0.8,1.5c0.4,1.4,0.7,2.6,1,3.7c0.1,0.6,0.6,0.9,1.2,0.9c0.1,0,0.2,0,0.3,0    c0.6-0.1,1-0.8,0.9-1.4C373.7,321,373.4,319.7,373,318.3z"/>
		<path d="M347.1,360.5c0-0.7-0.5-1.2-1.1-1.3c-0.7-0.1-1.2,0.5-1.3,1.1c-0.3,5.4,0.1,10,1.6,14.4c0.2,0.5,0.6,0.8,1.1,0.8    c0.1,0,0.2,0,0.4-0.1c0.6-0.2,1-0.9,0.8-1.5C347.3,369.9,346.8,365.6,347.1,360.5z"/>
		<path d="M362,333.5L362,333.5c0.7,0,1.2-0.5,1.2-1.2c0.1-2.5,0.1-5.4-0.3-8.3c-0.1-0.7-0.7-1.1-1.4-1c-0.7,0.1-1.1,0.7-1,1.4    c0.4,2.8,0.4,5.5,0.3,7.9C360.8,332.9,361.3,333.5,362,333.5z"/>
		<path d="M361.6,337c-0.7-0.1-1.3,0.4-1.3,1c-0.4,2.8-0.9,5.7-1.4,8.5c-0.7,3.9-1.4,7.8-1.8,11.8c-0.1,0.7,0.4,1.2,1.1,1.3h0.1    c0.6,0,1.1-0.5,1.2-1.1c0.3-3.9,1.1-7.8,1.8-11.6c0.5-2.8,1.1-5.7,1.4-8.6C362.7,337.7,362.2,337.1,361.6,337z"/>
		<path d="M472.1,223.8c-0.7-0.1-1.2,0.4-1.3,1.1c-0.2,2.4-0.4,5-0.7,7.5c-0.1,0.7,0.4,1.3,1,1.3h0.1c0.6,0,1.1-0.4,1.2-1.1    c0.3-2.5,0.5-5.1,0.7-7.5C473.3,224.5,472.8,223.9,472.1,223.8z"/>
		<path d="M470.8,237.2c-0.6-0.1-1.3,0.4-1.3,1.1l-0.6,5.5c-0.1,0.7,0.4,1.3,1.1,1.3h0.1c0.6,0,1.1-0.5,1.2-1.1l0.6-5.5    C471.9,237.9,471.4,237.3,470.8,237.2z"/>
		<path d="M470.7,249.8c0-0.7-0.5-1.2-1.1-1.3c-0.7-0.1-1.2,0.5-1.3,1.1c-0.4,7,0,12.7,1,17.8c0.1,0.6,0.6,1,1.2,1    c0.1,0,0.2,0,0.2,0c0.6-0.1,1.1-0.8,0.9-1.4C470.7,262.1,470.4,256.6,470.7,249.8z"/>
		<path d="M485.2,213.1c-0.7,0-1.2,0.6-1.1,1.3c0.2,3.9,0,8.2-0.4,13c-0.1,0.7,0.4,1.2,1.1,1.3h0.1c0.6,0,1.1-0.5,1.2-1.1    c0.5-5,0.6-9.4,0.4-13.4C486.4,213.6,485.8,213.1,485.2,213.1z"/>
		<path d="M484.3,231.8c-0.7,0-1.2,0.4-1.3,1.1c0,0.6-0.1,1.2-0.2,1.8s-0.2,1.3-0.2,2c-0.1,0.7,0.4,1.2,1.1,1.3h0.1    c0.6,0,1.1-0.5,1.2-1.1c0-0.6,0.1-1.2,0.2-1.8s0.2-1.3,0.2-2C485.5,232.5,485,231.9,484.3,231.8z"/>
		<path d="M483.4,240.8c-0.7-0.1-1.3,0.3-1.4,1c-0.2,1.3-0.3,2.6-0.4,3.9v0.2c-0.1,0.7,0.4,1.2,1.1,1.3h0.1c0.6,0,1.1-0.5,1.2-1.1    v-0.2c0.1-1.2,0.2-2.5,0.4-3.7C484.5,241.5,484.1,240.9,483.4,240.8z"/>
		<path d="M497.4,215C497.5,215,497.5,215,497.4,215c0.8-0.1,1.2-0.6,1.2-1.3c-0.2-3.3-0.6-5.9-1.1-8.3c-0.1-0.6-0.8-1.1-1.4-0.9    c-0.6,0.1-1.1,0.8-0.9,1.4c0.5,2.3,0.8,4.7,1.1,7.9C496.3,214.5,496.8,215,497.4,215z"/>
		<path d="M497.6,218.4c-0.7,0-1.2,0.5-1.2,1.2c-0.1,3.9-0.3,7.1-0.7,10.3c-0.1,0.7,0.4,1.3,1.1,1.3h0.1c0.6,0,1.1-0.5,1.2-1.1    c0.4-3.2,0.6-6.6,0.7-10.5C498.7,219,498.2,218.4,497.6,218.4z"/>
		<path d="M303.5,188.1c0.6,0,1.1-0.4,1.2-1.1c0.1-1.2,0.3-2.5,0.5-3.7c0.2-1.3,0.4-2.5,0.5-3.8c0.1-0.7-0.4-1.3-1-1.3    c-0.7-0.1-1.3,0.4-1.3,1c-0.1,1.2-0.3,2.5-0.5,3.7c-0.2,1.3-0.4,2.5-0.5,3.8c-0.1,0.7,0.4,1.3,1,1.3    C303.4,188.1,303.5,188.1,303.5,188.1z"/>
		<path d="M301.8,192.7c-0.5,8.2,0.2,14.9,2.1,20.9c0.2,0.5,0.6,0.8,1.1,0.8c0.1,0,0.2,0,0.4-0.1c0.6-0.2,1-0.9,0.8-1.5    c-1.8-5.9-2.4-12.1-1.9-20.1c0-0.7-0.5-1.2-1.1-1.3C302.4,191.5,301.9,192,301.8,192.7z"/>
		<path d="M319.2,177.1l0.4-2.3c0.9-5.2,1.8-10.6,2.2-15.9c0.1-0.7-0.4-1.2-1.1-1.3s-1.2,0.4-1.3,1.1c-0.4,5.2-1.3,10.6-2.2,15.7    l-0.4,2.3c-0.1,0.7,0.3,1.3,1,1.4c0.1,0,0.1,0,0.2,0C318.6,178.1,319.1,177.7,319.2,177.1z"/>
		<path d="M317.8,186.4c0.1-0.7,0.2-1.3,0.3-1.9c0.1-0.6,0.1-1.2,0.2-1.9s-0.3-1.3-1-1.4c-0.7-0.1-1.3,0.3-1.4,1s-0.2,1.3-0.3,1.9    c-0.1,0.6-0.1,1.2-0.2,1.9s0.3,1.3,1,1.4c0.1,0,0.1,0,0.2,0C317.2,187.4,317.7,187,317.8,186.4z"/>
		<path d="M314.9,191.3c-0.1,1.3-0.2,2.8-0.2,4.1c0,0.7,0.5,1.2,1.2,1.2s1.2-0.5,1.2-1.2c0-1.2,0.1-2.6,0.2-3.9    c0.1-0.7-0.4-1.2-1.1-1.3C315.6,190.2,315,190.7,314.9,191.3z"/>
		<path d="M331.2,163.1c-0.1,0.7,0.4,1.3,1,1.3c0.1,0,0.1,0,0.2,0c0.6,0,1.1-0.4,1.2-1c1-7.8,1.8-18.2-1.3-28.5    c-0.2-0.6-0.9-1-1.5-0.8s-1,0.9-0.8,1.5C333,145.5,332.2,155.5,331.2,163.1z"/>
		<path d="M329.7,180.6c0.1,0,0.1,0,0.2,0c0.6,0,1.1-0.4,1.2-1c0.4-3,0.9-5.9,1.5-9l0.2-1.3c0.1-0.7-0.3-1.3-1-1.4    c-0.6-0.1-1.3,0.3-1.4,1l-0.2,1.3c-0.5,3.1-1,6-1.5,9.1C328.5,179.9,329,180.5,329.7,180.6z"/>
		<path d="M463.1,401.2c-0.6-0.1-1.3,0.4-1.3,1.1c-0.2,1.8-0.5,3.6-0.8,5.3c-0.1,0.7,0.3,1.3,1,1.4c0.1,0,0.1,0,0.2,0    c0.6,0,1.1-0.4,1.2-1c0.3-1.8,0.6-3.6,0.8-5.5C464.2,401.9,463.7,401.3,463.1,401.2z"/>
		<path d="M461.2,412.4c-0.7-0.1-1.3,0.3-1.4,1l-0.2,1.2c-1,6-2.1,12.2-2,18.4c0,0.7,0.5,1.2,1.2,1.2l0,0c0.7,0,1.2-0.6,1.2-1.2    c-0.1-5.9,1-12,2-17.9l0.2-1.2C462.3,413.2,461.9,412.6,461.2,412.4z"/>
		<path d="M460.7,445.6c0.1,0,0.3,0,0.4-0.1c0.6-0.2,1-0.9,0.7-1.5c-0.6-1.7-1-3.4-1.3-5.8c-0.1-0.7-0.7-1.1-1.4-1    c-0.7,0.1-1.1,0.7-1,1.4c0.4,2.5,0.8,4.4,1.5,6.2C459.8,445.3,460.2,445.6,460.7,445.6z"/>
		<path d="M450.2,399.4L450.2,399.4c0.7,0,1.2-0.5,1.3-1.1c0.1-2.5,0.1-4.7-0.1-6.8c-0.1-0.7-0.7-1.1-1.3-1.1    c-0.7,0.1-1.1,0.6-1.1,1.3c0.2,1.9,0.2,4,0.1,6.4C449,398.8,449.5,399.4,450.2,399.4z"/>
		<path d="M448.3,404.6c-0.3,2.5-0.7,5-1.2,7.4c-0.1,0.6,0.3,1.3,0.9,1.4c0.1,0,0.2,0,0.2,0c0.6,0,1.1-0.4,1.2-1    c0.5-2.5,0.9-5.1,1.2-7.6c0.1-0.7-0.4-1.3-1-1.3C449,403.4,448.4,403.9,448.3,404.6z"/>
		<path d="M446.2,417.5c-0.4,1.7-0.7,3.7-0.9,5.6c-0.1,0.7,0.4,1.3,1.1,1.3h0.1c0.6,0,1.1-0.5,1.2-1.1c0.2-1.9,0.5-3.7,0.9-5.4    c0.1-0.6-0.3-1.3-0.9-1.4C446.9,416.4,446.3,416.8,446.2,417.5z"/>
		<path d="M437.4,382.6c-0.2-0.6-0.9-1-1.5-0.8s-1,0.9-0.8,1.5c1,3,1.5,6.1,1.7,9.8c0,0.6,0.6,1.1,1.2,1.1c0,0,0,0,0.1,0    c0.7,0,1.2-0.6,1.1-1.3C439,389.1,438.4,385.8,437.4,382.6z"/>
		<path d="M437.9,399.1c-0.7-0.1-1.2,0.4-1.3,1.1c-0.2,2.4-0.5,4.7-0.9,6.9c-0.1,0.7,0.3,1.3,1,1.4c0.1,0,0.1,0,0.2,0    c0.6,0,1.1-0.4,1.2-1c0.4-2.3,0.7-4.6,0.9-7.1C439.1,399.8,438.6,399.2,437.9,399.1z"/>
		<path d="M366.9,411c0.6,0,1.1-0.4,1.2-1c0.4-2.5,0.8-5,1.1-7.5c0.1-0.7-0.4-1.3-1-1.3c-0.7-0.1-1.3,0.4-1.3,1    c-0.3,2.5-0.7,5-1.1,7.4l0,0C365.7,410.3,366.1,410.9,366.9,411C366.8,411,366.9,411,366.9,411z"/>
		<path d="M364.6,415.5c-0.1,0.9-0.3,1.8-0.4,2.7c-0.2,0.9-0.3,1.9-0.5,2.8c-0.1,0.7,0.3,1.3,1,1.4c0.1,0,0.1,0,0.2,0    c0.6,0,1.1-0.4,1.2-1c0.2-0.9,0.3-1.9,0.5-2.8c0.1-0.9,0.3-1.8,0.4-2.7c0.1-0.7-0.3-1.3-1-1.4    C365.4,414.4,364.8,414.9,364.6,415.5z"/>
		<path d="M366.2,445.6c0.6-0.2,1-0.9,0.8-1.5c-1.6-5-2.1-10.4-1.5-17c0.1-0.7-0.4-1.2-1.1-1.3c-0.7-0.1-1.2,0.4-1.3,1.1    c-0.6,7-0.1,12.7,1.7,18c0.2,0.5,0.6,0.8,1.1,0.8C366,445.6,366.1,445.6,366.2,445.6z"/>
		<path d="M380.6,405.9c0.1,0,0.1,0,0.2,0c0.6,0,1.1-0.4,1.2-1c0.7-5,0.9-9.4,0.6-13.4c0-0.7-0.6-1.2-1.3-1.1    c-0.7,0-1.2,0.6-1.1,1.3c0.3,3.9,0.1,8.1-0.6,13C379.5,405.2,379.9,405.8,380.6,405.9z"/>
		<path d="M378.6,410.1c-0.1,0.6-0.2,1.2-0.3,1.8c-0.1,0.6-0.3,1.3-0.4,2s0.3,1.3,1,1.4c0.1,0,0.1,0,0.2,0c0.6,0,1.1-0.4,1.2-1    s0.2-1.2,0.3-1.8c0.1-0.6,0.3-1.3,0.4-2s-0.3-1.3-1-1.4C379.4,409,378.7,409.5,378.6,410.1z"/>
		<path d="M377,419c-0.1,0.7-0.2,1.4-0.3,2c-0.1,0.7-0.2,1.3-0.3,2c-0.1,0.7,0.3,1.3,1,1.4c0.1,0,0.1,0,0.2,0c0.6,0,1.1-0.4,1.2-1    s0.2-1.3,0.3-2c0.1-0.7,0.2-1.4,0.3-2c0.1-0.7-0.3-1.3-1-1.4C377.8,417.9,377.1,418.4,377,419z"/>
		<path d="M391.6,381.9c-0.6,0.2-1,0.9-0.8,1.5c0.9,2.9,1.4,5.5,1.6,7.8c0,0.6,0.6,1.1,1.2,1.1h0.1c0.7,0,1.2-0.6,1.1-1.3    c-0.2-2.5-0.7-5.2-1.6-8.4C392.9,382,392.2,381.7,391.6,381.9z"/>
		<path d="M392.5,396.9c-0.1,3.2-0.4,6.5-1.1,10.2c-0.1,0.7,0.3,1.3,1,1.4c0.1,0,0.1,0,0.2,0c0.6,0,1.1-0.4,1.2-1    c0.7-3.9,1-7.2,1.1-10.6c0-0.7-0.5-1.2-1.2-1.2C393.1,395.7,392.5,396.2,392.5,396.9z"/>
		<path d="M632.6,343.6c-0.7-0.1-1.3,0.4-1.3,1.1c-0.2,1.8-0.5,3.6-0.8,5.3c-0.1,0.7,0.3,1.3,1,1.4c0.1,0,0.1,0,0.2,0    c0.6,0,1.1-0.4,1.2-1c0.3-1.8,0.6-3.6,0.8-5.5C633.7,344.3,633.2,343.7,632.6,343.6z"/>
		<path d="M631.7,356.3c0.1-0.7-0.3-1.3-1-1.4s-1.3,0.3-1.4,1l-0.2,1.2c-1,6-2.1,12.2-2,18.4c0,0.7,0.5,1.2,1.2,1.2l0,0    c0.7,0,1.2-0.6,1.2-1.2c-0.1-5.9,1-12,2-17.9L631.7,356.3z"/>
		<path d="M628.7,379.7c-0.7,0.1-1.1,0.7-1,1.4c0.4,2.5,0.8,4.4,1.5,6.2c0.2,0.5,0.6,0.8,1.1,0.8c0.1,0,0.3,0,0.4-0.1    c0.6-0.2,1-0.9,0.7-1.5c-0.6-1.7-1-3.4-1.3-5.8C629.9,380.1,629.3,379.6,628.7,379.7z"/>
		<path d="M619.7,341.8L619.7,341.8c0.7,0,1.2-0.5,1.3-1.1c0.1-2.5,0.1-4.7-0.1-6.8c-0.1-0.7-0.6-1.1-1.3-1.1    c-0.7,0.1-1.1,0.6-1.1,1.3c0.2,1.9,0.2,4,0.1,6.4C618.5,341.2,619,341.8,619.7,341.8z"/>
		<path d="M617.8,347.1c-0.3,2.5-0.7,5-1.2,7.4c-0.1,0.6,0.3,1.3,0.9,1.4c0.1,0,0.2,0,0.2,0c0.6,0,1.1-0.4,1.2-1    c0.5-2.5,0.9-5.1,1.2-7.6c0.1-0.7-0.4-1.3-1-1.3C618.5,346,617.9,346.4,617.8,347.1z"/>
		<path d="M617.1,359c-0.6-0.1-1.3,0.3-1.4,0.9c-0.4,1.7-0.7,3.7-0.9,5.6c-0.1,0.7,0.4,1.3,1.1,1.3h0.1c0.6,0,1.1-0.5,1.2-1.1    c0.2-1.9,0.5-3.7,0.9-5.4C618.1,359.8,617.7,359.2,617.1,359z"/>
		<path d="M606.9,325.1c-0.2-0.6-0.9-1-1.5-0.8s-1,0.9-0.8,1.5c1,3,1.5,6.1,1.7,9.8c0,0.6,0.6,1.1,1.2,1.1c0,0,0,0,0.1,0    c0.7,0,1.2-0.6,1.1-1.3C608.5,331.6,607.9,328.3,606.9,325.1z"/>
		<path d="M607.4,341.6c-0.7-0.1-1.2,0.4-1.3,1.1c-0.2,2.4-0.5,4.7-0.9,6.9c-0.1,0.7,0.3,1.3,1,1.4c0.1,0,0.1,0,0.2,0    c0.6,0,1.1-0.4,1.2-1c0.4-2.3,0.7-4.6,0.9-7.1C608.6,342.3,608.1,341.7,607.4,341.6z"/>
		<path d="M536.3,344.7c-0.3,2.5-0.7,5-1.1,7.5c-0.1,0.7,0.3,1.3,1,1.4c0.1,0,0.1,0,0.2,0c0.6,0,1.1-0.4,1.2-1    c0.4-2.5,0.8-5,1.1-7.5c0.1-0.7-0.4-1.3-1-1.3C537,343.5,536.4,344,536.3,344.7z"/>
		<path d="M534.2,364.8c0.1,0,0.1,0,0.2,0c0.6,0,1.1-0.4,1.2-1c0.1-0.9,0.3-1.8,0.4-2.7c0.2-1,0.3-1.9,0.5-2.8    c0.1-0.7-0.3-1.3-1-1.4s-1.3,0.3-1.4,1c-0.2,0.9-0.3,1.9-0.5,2.9c-0.1,0.9-0.3,1.8-0.4,2.7C533.1,364.1,533.6,364.7,534.2,364.8z"/>
		<path d="M535.7,388.1c0.6-0.2,1-0.9,0.8-1.5c-1.6-5-2.1-10.4-1.5-17c0.1-0.7-0.4-1.2-1.1-1.3c-0.7-0.1-1.2,0.4-1.3,1.1    c-0.6,7-0.1,12.7,1.7,18c0.2,0.5,0.6,0.8,1.1,0.8C535.5,388.1,535.6,388.1,535.7,388.1z"/>
		<path d="M550.1,348.4c0.1,0,0.1,0,0.2,0c0.6,0,1.1-0.4,1.2-1c0.7-5,0.9-9.4,0.6-13.4c0-0.7-0.6-1.2-1.3-1.1    c-0.7,0-1.2,0.6-1.1,1.3c0.3,3.9,0.1,8.1-0.6,13C549,347.7,549.4,348.3,550.1,348.4z"/>
		<path d="M548.1,352.6c-0.1,0.6-0.2,1.2-0.3,1.8c-0.1,0.6-0.3,1.3-0.4,2c-0.1,0.7,0.3,1.3,1,1.4c0.1,0,0.1,0,0.2,0    c0.6,0,1.1-0.4,1.2-1c0.1-0.6,0.2-1.2,0.3-1.8c0.1-0.6,0.3-1.3,0.4-2c0.1-0.7-0.3-1.3-1-1.4C548.9,351.5,548.2,352,548.1,352.6z"/>
		<path d="M546.5,361.5l-0.3,1.9c-0.1,0.7-0.2,1.4-0.3,2.1s0.3,1.3,1,1.4c0.1,0,0.1,0,0.2,0c0.6,0,1.1-0.4,1.2-1    c0.1-0.7,0.2-1.4,0.3-2.1l0.3-1.9c0.1-0.7-0.3-1.3-1-1.4C547.3,360.4,546.6,360.9,546.5,361.5z"/>
		<path d="M561.1,324.3c-0.6,0.2-1,0.9-0.8,1.5c0.9,2.9,1.4,5.5,1.6,7.8c0,0.6,0.6,1.1,1.2,1.1h0.1c0.7,0,1.2-0.6,1.1-1.3    c-0.2-2.5-0.7-5.2-1.6-8.4C562.4,324.4,561.7,324.1,561.1,324.3z"/>
		<path d="M562,339.4c-0.1,3.2-0.4,6.5-1.1,10.2c-0.1,0.7,0.3,1.3,1,1.4c0.1,0,0.1,0,0.2,0c0.6,0,1.1-0.4,1.2-1    c0.7-3.9,1-7.3,1.1-10.6c0-0.7-0.5-1.2-1.2-1.2C562.6,338.2,562,338.7,562,339.4z"/>
		<path d="M246.7,266.5c0.2,0,0.4-0.1,0.6-0.2c0.2-0.1,1.6-1,2.2-2.6c0.2-0.6-0.1-1.3-0.7-1.6c-0.6-0.2-1.3,0.1-1.6,0.7    c-0.3,0.9-1.2,1.4-1.2,1.4c-0.6,0.3-0.8,1.1-0.4,1.6C245.9,266.3,246.3,266.5,246.7,266.5z"/>
		<path d="M406,348.7c-0.1,0.5-0.2,1.1-0.2,1.5c-0.4,2.5,1.1,5,3.5,5.8c0.1,0,0.3,0.1,0.4,0.1c0.5,0,1-0.3,1.1-0.8    c0.2-0.6-0.1-1.3-0.8-1.5c-1.2-0.4-2.1-1.9-1.9-3.2c0-0.5,0.1-1,0.2-1.5s0.2-1.1,0.2-1.6c0.1-0.7,0.4-1.2,0.9-1.4    c0.6-0.3,0.9-1,0.6-1.6s-1-0.9-1.6-0.6c-1.3,0.6-2.2,1.8-2.3,3.4C406.2,347.7,406.1,348.2,406,348.7z"/>
		<path d="M413.1,349.7c-0.6-0.3-1.3,0-1.6,0.6c-0.3,0.6,0,1.3,0.6,1.6c1.2,0.6,2,2.2,1.6,3.6c-0.2,0.9-0.5,1.9-0.8,2.9    c-0.2,0.8-0.8,1.3-1.5,1.3s-1.2,0.5-1.2,1.2s0.5,1.2,1.2,1.2c1.8,0,3.3-1.2,3.8-3.1c0.3-1,0.6-2.1,0.8-3    C416.7,353.6,415.4,350.8,413.1,349.7z"/>
		<path d="M410.4,331.9c0.6-0.2,1-0.9,0.8-1.5s-0.9-1-1.5-0.8c-1.8,0.6-2.9,2.4-2.6,4.3c0.1,0.5,0.1,1.1,0.2,1.6s0.1,1,0.2,1.6    c0.4,2.6,2.6,4.7,5.1,4.8c0,0,0,0,0.1,0c0.6,0,1.2-0.5,1.2-1.1c0-0.7-0.5-1.2-1.1-1.3c-1.3-0.1-2.7-1.3-2.9-2.7    c-0.1-0.5-0.1-1.1-0.2-1.6s-0.1-1-0.2-1.5C409.3,332.8,409.7,332.1,410.4,331.9z"/>
		<path d="M415.4,342.3c-0.6,0.3-0.8,1.1-0.4,1.6c0.2,0.4,0.6,0.6,1,0.6c0.2,0,0.4-0.1,0.6-0.2s1.6-1,2.2-2.6    c0.2-0.6-0.1-1.3-0.7-1.6c-0.6-0.2-1.3,0.1-1.6,0.7C416.3,341.8,415.4,342.3,415.4,342.3z"/>
		<path d="M233.7,291.1c-0.2,0.6,0.2,1.3,0.9,1.5c0.1,0,0.2,0,0.3,0c0.5,0,1-0.4,1.2-0.9c0-0.1,0.6-2.1,3.3-2c0.7,0,1.2-0.5,1.3-1.1    c0-0.7-0.5-1.2-1.1-1.3C235.7,287.1,234,289.7,233.7,291.1z"/>
		<path d="M406.1,368.9c0.2,0.3,0.6,0.5,1,0.5c0.2,0,0.5-0.1,0.7-0.2c0.6-0.4,0.7-1.1,0.4-1.7c-0.1-0.2-1.2-2,0.6-3.8    c0.5-0.5,0.5-1.2,0-1.7s-1.2-0.5-1.7,0C404.5,364.7,405.3,367.7,406.1,368.9z"/>
		<path d="M417.1,325.7c-0.6,0.4-0.7,1.1-0.4,1.7c0.2,0.4,0.6,0.6,1,0.6c0.2,0,0.4-0.1,0.6-0.2c2-1.3,3.1-2.7,3.4-4.4    c0.3-1.9-0.8-3.2-0.9-3.3c-0.4-0.5-1.2-0.6-1.7-0.1c-0.5,0.4-0.6,1.2-0.1,1.7c0,0,0.5,0.6,0.4,1.4    C419.2,323.9,418.5,324.8,417.1,325.7z"/>
		<path d="M587.7,313.3c0-0.7-0.6-1.2-1.3-1.1c-1.3,0.1-2.6-1-3-2.3c-0.2-1.1-0.5-2.1-0.8-3.1c-0.2-0.9,0.1-1.4,0.4-1.7    c0.4-0.5,0.4-1.3-0.1-1.7c-0.5-0.4-1.3-0.4-1.7,0.1c-0.9,1.1-1.2,2.5-0.8,3.9c0.3,1,0.6,1.9,0.8,3c0.6,2.4,2.8,4.2,5.2,4.2    c0.1,0,0.2,0,0.2,0C587.3,314.5,587.8,313.9,587.7,313.3z"/>
		<path d="M589.8,317.2c-0.6,0.2-1,0.9-0.8,1.5c0.2,0.5,0.6,0.8,1.1,0.8c0.1,0,0.3,0,0.4-0.1c1.7-0.6,2.8-2.3,2.6-4.3    c-0.1-0.5-0.1-1.1-0.2-1.6c-0.1-0.5-0.1-1-0.2-1.5c-0.3-2.4-2.5-4.6-5-4.9c-0.7-0.1-1.2,0.4-1.3,1.1s0.4,1.2,1.1,1.3    c1.4,0.1,2.7,1.4,2.8,2.7c0.1,0.5,0.1,1.1,0.2,1.6c0.1,0.5,0.1,1,0.2,1.5C590.9,316.3,590.5,317,589.8,317.2z"/>
		<path d="M579.2,290c-0.4-0.5-1.2-0.6-1.7-0.2c-1.5,1.2-1.8,3.2-0.9,4.9l1.5,2.7c0.9,1.7,3,2.9,5,2.9c0.5,0,0.9-0.1,1.4-0.2    c0.6-0.2,1-0.8,0.8-1.5c-0.2-0.6-0.8-1-1.5-0.8c-1.3,0.4-3-0.3-3.6-1.5l-1.5-2.7c-0.4-0.7-0.3-1.4,0.3-1.9    C579.5,291.2,579.6,290.5,579.2,290z"/>
		<path d="M589.1,296.5c-0.7,0-1.2,0.5-1.2,1.2c0,1-0.6,1.7-0.6,1.7c-0.4,0.5-0.4,1.2,0.1,1.7c0.2,0.2,0.5,0.3,0.8,0.3    s0.7-0.1,0.9-0.4c0.1-0.1,1.2-1.4,1.2-3.3C590.3,297.1,589.8,296.5,589.1,296.5z"/>
		<path d="M583,320.9c-1.4,0.8-1.9,2.2-1.9,2.3c-0.2,0.6,0.2,1.3,0.8,1.5c0.1,0,0.2,0.1,0.4,0.1c0.5,0,1-0.3,1.1-0.8    c0.2-0.5,0.7-1.5,2.4-0.9c0.6,0.2,1.3-0.1,1.5-0.8c0.2-0.6-0.1-1.3-0.8-1.5C585.2,320.4,584,320.4,583,320.9z"/>
		<path d="M583.2,286.3c-0.6-0.1-1.3,0.3-1.4,1c-0.1,0.7,0.3,1.3,1,1.4c0.3,0,2.8,0.5,2.5,3.6c-0.1,0.7,0.4,1.2,1.1,1.3h0.1    c0.6,0,1.1-0.5,1.2-1.1C588.1,288.2,584.9,286.6,583.2,286.3z"/>
	</g>
</g>
</svg>
