<?xml version="1.0" encoding="UTF-8" standalone="no"?>
<!-- Generator: Adobe Illustrator 21.0.0, SVG Export Plug-In . SVG Version: 6.00 Build 0)  -->

<svg
   xmlns:dc="http://purl.org/dc/elements/1.1/"
   xmlns:cc="http://creativecommons.org/ns#"
   xmlns:rdf="http://www.w3.org/1999/02/22-rdf-syntax-ns#"
   xmlns:svg="http://www.w3.org/2000/svg"
   xmlns="http://www.w3.org/2000/svg"
   xmlns:sodipodi="http://sodipodi.sourceforge.net/DTD/sodipodi-0.dtd"
   xmlns:inkscape="http://www.inkscape.org/namespaces/inkscape"
   version="1.1"
   id="Layer_1"
   x="0px"
   y="0px"
   viewBox="0 0 661.54236 491.80853"
   xml:space="preserve"
   sodipodi:docname="we-need-something-new_touched.svg"
   width="661.54236"
   height="491.80853"
   inkscape:version="0.92.4 (33fec40, 2019-01-16)"><metadata
   id="metadata2187"><rdf:RDF><cc:Work
       rdf:about=""><dc:format>image/svg+xml</dc:format><dc:type
         rdf:resource="http://purl.org/dc/dcmitype/StillImage" /><dc:title></dc:title></cc:Work></rdf:RDF></metadata><defs
   id="defs2185" /><sodipodi:namedview
   pagecolor="#ffffff"
   bordercolor="#666666"
   borderopacity="1"
   objecttolerance="10"
   gridtolerance="10"
   guidetolerance="10"
   inkscape:pageopacity="0"
   inkscape:pageshadow="2"
   inkscape:window-width="3840"
   inkscape:window-height="2112"
   id="namedview2183"
   showgrid="false"
   fit-margin-top="0"
   fit-margin-left="0"
   fit-margin-right="0"
   fit-margin-bottom="0"
   inkscape:zoom="0.39333333"
   inkscape:cx="393.65932"
   inkscape:cy="244.35854"
   inkscape:window-x="0"
   inkscape:window-y="48"
   inkscape:window-maximized="1"
   inkscape:current-layer="Layer_1" />
<g
   id="g2180"
   transform="translate(-69.9,-52.55)">
	<path
   class="st0"
   d="m 69.9,239 c 0,176.8 428,305.1 428,11.5 0,-293.6 -428,-186.8 -428,-11.5 z"
   id="path1778"
   inkscape:connector-curvature="0" />
	<path
   class="st0"
   d="M 122.7,474.2 C 164.9,582.4 360.6,497 294.9,402.8 229.2,308.6 92.7,397.3 122.7,474.2 Z"
   id="path1780"
   inkscape:connector-curvature="0" />
	<path
   class="st0"
   d="m 327.9,143.6 c -157,134.3 39.4,559.4 314.9,338 248.8,-200 -81.1,-537.9 -314.9,-338 z"
   id="path1782"
   inkscape:connector-curvature="0" />
	<path
   class="st1"
   d="m 303,385 h 229.8 c 0,0 -28.4,-43.1 -67,-30.2 C 394.1,378.9 412,343.6 403.4,330.3 387.4,305.6 331.8,344 303,385 Z"
   id="path1784"
   inkscape:connector-curvature="0" />
	<path
   class="st1"
   d="m 642.8,481.6 c 0.4,-0.3 0.7,-0.6 1.1,-0.9 -4.8,0 -9.8,0.7 -15,2.3 -76.2,22.7 -57.2,-10.6 -66.3,-23.1 -17.1,-23.4 -76.3,12.8 -106.8,51.6 h 143.9 c 14.1,-8.2 28.5,-18.1 43.1,-29.9 z"
   id="path1786"
   inkscape:connector-curvature="0" />
	<path
   class="st1"
   d="m 311.3,149.2 h 198 c 0,0 -24.4,-33 -57.7,-23.1 -61.7,18.4 -46.3,-8.6 -53.7,-18.7 -13.9,-19 -61.9,10.4 -86.6,41.8 z"
   id="path1788"
   inkscape:connector-curvature="0" />
	<path
   class="st1"
   d="m 730.8,330.4 c -36.6,8.4 -25.9,-24.7 -32.5,-38.5 -14.7,-30.2 -65.3,16.6 -91.4,66.7 h 119.4 c 2.3,-9.5 3.7,-18.9 4.5,-28.2 z"
   id="path1790"
   inkscape:connector-curvature="0" />
	<path
   class="st1"
   d="m 708.6,222.2 c -14.7,-7.4 -27.2,-6.5 -33.7,7 -9.5,19.6 10.3,71.8 -68.9,36.2 -42.7,-19.2 -74,44.7 -74,44.7 h 199.4 c -0.8,-30.5 -8.9,-60.4 -22.8,-87.9 z"
   id="path1792"
   inkscape:connector-curvature="0" />
	<path
   class="st1"
   d="M 511.6,198.1 H 295.7 c 0,0 26.7,-40.5 62.9,-28.4 67.3,22.6 50.5,-10.5 58.6,-23 15.2,-23.3 67.4,12.8 94.4,51.4 z"
   id="path1794"
   inkscape:connector-curvature="0" />
	<path
   class="st1"
   d="M 77.1,278.7 H 224 c -24.1,-49.2 -70.9,-95.2 -84.4,-65.4 -7.2,15.9 7.8,58.1 -52.4,29.3 -6.1,-2.9 -11.9,-3.5 -17.3,-2.4 0.2,13.2 2.7,26.1 7.2,38.5 z"
   id="path1796"
   inkscape:connector-curvature="0" />
	<path
   class="st1"
   d="m 127.3,464.3 c -2.7,-1 -5.4,-1.9 -8,-2.7 0.7,4.2 1.8,8.4 3.4,12.6 2.3,5.9 5.1,11.3 8.3,16.1 H 253 C 148.6,343 188.7,487.8 127.3,464.3 Z"
   id="path1798"
   inkscape:connector-curvature="0" />
	<path
   class="st2"
   d="m 261.3,126.6 c -31.3,11.6 -17.7,32 -13.4,43.6 3.6,9.7 3.7,18.7 0.1,24.4 -1,-0.5 -1.8,-0.7 -2,-0.8 l -9.5,-12.9 c 12,-15.9 -1.4,-24 -1.4,-24 1.9,-9.2 -6.5,-12.6 -6.5,-12.6 2.3,-12.2 -6.6,-14.6 -6.6,-14.6 1.4,-10.9 -7.4,-12.7 -7.4,-12.7 0.2,-9.1 -6.6,-10.8 -6.6,-10.8 0.4,-11 -7.2,-12.8 -7.2,-12.8 -2.4,-13.6 -9.5,-14.1 -9.5,-14.1 2.3,11.3 -6.3,34.3 -11,56.8 -4.7,22.5 -3.5,31.9 4.8,36.6 0.9,0.4 1.8,0.7 2.6,1 l 2.7,1.5 c -2.7,4.3 -4.2,8.6 -2.5,9.9 v 0 c 0,0 20.1,9.4 39.2,25.2 l -0.1,0.1 c -0.3,0.5 -0.3,1.1 -0.2,1.7 v 0 c 0.8,3.2 6.8,7.3 8.8,7.1 0.5,0 1,-0.2 1.6,-0.4 15.3,15.8 27.1,37.4 30.8,44.5 0.8,1.6 2.6,2.5 4.4,2.4 2.4,-0.2 5.9,-1 10.1,-3.1 l 0.1,-5.4 5.2,2.1 c 1.7,-1.2 3.4,-2.7 5.1,-4.4 8.8,-8.7 8.5,-16.6 7.9,-20 -0.2,-1 -0.8,-1.9 -1.7,-2.5 -5.2,-3.1 -25.4,-15.6 -45.5,-31 v 0 c 0,-1.9 -0.9,-3.3 -2.2,-4.4 1.4,-0.9 2.4,-2 2.4,-2 33,3.9 29.4,-14.6 29.4,-14.6 7.7,-3 6.6,-12.6 6.6,-12.6 10.4,-3.7 8.1,-13.8 8.1,-13.8 8.4,-4.6 6.1,-13.3 6.1,-13.3 7.1,-3.6 5.1,-11.7 5.1,-11.7 8.5,-4.5 6.3,-13.3 6.3,-13.3 9.2,-5.9 6.1,-15.9 6.1,-15.9 -5.4,6.6 -28.9,15.2 -60.2,26.8 z m -15.8,66.6 c 0.1,0.1 0.2,0.2 0.2,0.3 -0.1,-0.1 -0.2,-0.2 -0.2,-0.3 z"
   id="path1800"
   inkscape:connector-curvature="0" />
	<path
   class="st2"
   d="m 370.3,461.3 c -2.2,3.9 -3.8,6.6 -3.8,6.6 l 4.9,10.6 42.2,27.3 42.2,-27.3 4.9,-10.6 -18.8,-32.7 -28.3,-14.5 -28.4,14.5 c 0.1,0 -9.4,16.6 -14.9,26.1 z"
   id="path1802"
   inkscape:connector-curvature="0" />
	<path
   class="st2"
   d="m 416.6,240.3 c 7.9,-9.5 6.2,-15.3 -2.5,-39.6 -7,-19.4 15,-26.4 33,-32.9 24.2,-8.7 36.5,-14.7 40,-19.2 1.7,4.3 0.2,10.7 -5.8,15 l 0.2,-0.2 c 0,0 2.4,7.5 -5.9,12.4 v 0 c 1.4,4 -0.5,8.1 -4.7,10.9 1.6,4.3 -0.4,9.5 -5.7,12.5 0,0 3.2,8.4 -7.5,12.9 0,0 2,7.8 -6.1,11.7 v 0 c 0,0 1.1,9.3 -8.8,12.9 -8.2,2.9 -12.2,-0.6 -17.5,1.2 l -3.7,2 c -3.4,2.1 -5,0.4 -5,0.4 z"
   id="path1804"
   inkscape:connector-curvature="0" />
	<path
   class="st2"
   d="m 647.4,173.2 c 0,0 -2.5,-6.1 -7.8,-13.1 -1.2,-1.5 -2.4,-3 -3.6,-4.4 1.3,-0.8 2.6,-1.6 4,-2.4 20.4,-12 6.2,-34.3 -4.9,-53.4 C 620.2,74.5 613.7,60.1 614,53.5 c -4.6,2.6 -8,9.3 -5.9,17.5 L 608,70.7 c 0,0 -7.6,4.9 -4,15.2 -4.2,2.4 -5.5,7.5 -3.9,13 -4.5,2.7 -6.6,8.6 -4.2,15.1 0,0 -9,5.1 -2.9,16.9 0,0 -7.5,5.4 -3.2,14.8 0,0 -7.9,7.4 -1.7,17.9 1.9,3.3 5.2,6.1 7.2,7.6 L 579.1,188 c 0.6,-0.5 1.2,-1.1 1.8,-1.7 v 0 c -1.7,1.3 1.5,7.2 5.6,12.6 l -12.5,-8.8 1.1,0.5 c 4.1,2.1 5.9,0.1 5.9,0.1 -0.8,-0.9 -1.6,-1.8 -2.2,-2.6 -7.1,-9.1 -5.2,-16.9 2.4,-42.9 6.7,-22.7 -19,-29.2 -40.2,-35.5 -28.3,-8.3 -42.8,-14.3 -47.2,-19.3 -1.6,5 0.5,12.2 7.7,16.8 l -0.3,-0.2 c 0,0 -2.2,8.8 7.6,13.8 -1.4,4.6 1.1,9.2 6.1,12.1 -1.5,5.1 1.1,10.8 7.3,13.9 0,0 -3.1,9.9 9.5,14.3 0,0 -1.8,9.1 7.8,13 0,0 -0.6,10.8 11,14.2 9.6,2.8 13.9,-1.5 20.2,0.2 l 2.7,1.2 c -0.4,0.4 -2.4,2.3 -2.3,3.6 v 0 c -23.6,13.2 -46.8,23.5 -52.8,26 -1,0.5 -1.8,1.3 -2.2,2.4 -1.2,3.5 -2.6,11.8 5.4,22.3 1.6,2.1 3.2,3.9 4.7,5.4 l 5.9,-1.4 -0.7,5.7 c 4.1,2.9 7.8,4.2 10.3,4.8 1.9,0.5 3.8,-0.3 5,-1.9 5,-7 20.7,-28 39.2,-42.5 0.5,0.3 1.1,0.5 1.6,0.6 2,0.5 9,-3 10.4,-6.2 v 0 c 0.3,-0.6 0,-1.9 0,-1.9 16.8,-11.9 45.3,-20.8 45.3,-20.8 v 0 c 2,-1.1 1,-5.9 -1.2,-10.8 z"
   id="path1806"
   inkscape:connector-curvature="0" />
	<path
   class="st2"
   d="m 198.1,397.2 c -2.2,3.9 -3.8,6.6 -3.8,6.6 l 4.9,10.6 42.2,27.3 42.2,-27.3 4.9,-10.6 -18.8,-32.7 -28.3,-14.5 -28.4,14.5 c 0.1,0.1 -9.4,16.6 -14.9,26.1 z"
   id="path1808"
   inkscape:connector-curvature="0" />
	<path
   class="st2"
   d="m 540.2,405.5 c -2.2,3.9 -3.8,6.6 -3.8,6.6 l 4.9,10.6 42.2,27.3 42.2,-27.3 4.9,-10.6 -18.8,-32.7 -28.3,-14.5 -28.4,14.5 c 0.1,0 -9.4,16.6 -14.9,26.1 z"
   id="path1810"
   inkscape:connector-curvature="0" />
	<path
   class="st2"
   d="m 487.5,148.1 c 0,0 -1.1,2.5 -8,6 -6.9,3.5 -40.2,15.9 -46.6,18.6 -6.4,2.7 -23.9,12.8 -19.7,24.9 4.1,12.2 14.1,34.1 3.7,43.2 0,0 4.4,0.3 8.9,-3.9 0,0 14.8,4.2 22.5,-3.3 5.6,-5.4 4.2,-9.8 4.2,-9.8 0,0 7.1,-4.8 6.1,-10.1 0,0 8.8,-7.8 7.3,-13.9 0,0 7.9,-7.8 5.6,-13.3 0,0 6.1,-4.9 4.4,-11 0,0 8,-6.3 6.2,-12.4 -0.1,0.1 8.1,-8.5 5.4,-15 z"
   id="path1812"
   inkscape:connector-curvature="0" />
	<path
   class="st2"
   d="m 295.9,302.3 c 0,0 2.7,-0.6 7.6,-6.5 4.9,-6 24.4,-35.7 28.4,-41.3 4,-5.6 15.3,-21.9 28.6,-13.8 11,6.7 30.2,19.2 41.3,11.1 0,0 -0.7,6.4 -5.7,9.9 0,0 0.9,15.4 -8.1,21.3 -6.5,4.2 -10.5,1.9 -10.5,1.9 0,0 -6.2,5.9 -11.2,3.7 0,0 -9.5,6.9 -15.2,4 0,0 -9.3,6 -14.2,2.6 0,0 -6.2,4.9 -11.7,1.9 0,0 -8,6.4 -13.4,3.3 0,-0.1 -10.1,6 -15.9,1.9 z"
   id="path1814"
   inkscape:connector-curvature="0" />
	<path
   class="st2"
   d="m 384.6,192.5 c -4.2,0.7 -30.2,17.4 -22.4,30.7 0,0 22.9,19.9 36.2,30 0,0 1.1,2.6 5.7,7.4 6.3,18.1 24.4,46.6 24.4,46.6 2,3.8 17.1,0.4 24.9,-8.6 l 3.7,-4.5 c 0,0 6.5,-10.3 2.3,-13.2 -4.2,-2.9 -21.9,-21.6 -37.4,-33.3 0,0 1.3,-5.1 -3.6,-9.6 -1.7,-1.5 -3.7,-0.9 -3.7,-0.9 0,0 -10.2,-24.8 -18.3,-38.7 0,0 -3.7,-3.5 -9.6,-0.5 z"
   id="path1816"
   inkscape:connector-curvature="0" />
	<path
   class="st3"
   d="m 618.2,168.4 c 0,0 9.3,11.7 -7.9,22.7 -17.2,11.1 -19.8,12.7 -19.8,12.7 0,0 2.3,4 5.4,3.9 0,0 30.1,-17.4 47.1,-21.6 0.1,0 -6.9,4.2 -24.8,-17.7 z"
   id="path1818"
   inkscape:connector-curvature="0" />

		<circle
   transform="matrix(0.2815,-0.9596,0.9596,0.2815,222.3839,703.8542)"
   class="st3"
   cx="581.20001"
   cy="203.39999"
   id="ellipse1820"
   r="4.6999998" />
	<path
   class="st3"
   d="m 644.5,174.3 c 0,0 -14.9,-29.1 -27,-25.7 -3.4,1 -4.9,5.6 -4.9,5.6 l 2,7.7 3.6,6.5 c 0,0 7.4,8.5 10.1,10.9 l 2.8,-1.3 c 0,0 -14.5,-12.9 -14.6,-22.8 l 3,-3.3 c 0,0 -2.8,7.4 15,24.6 l -5.6,3.4 c 0,0 7.3,6.9 12.1,6.7 4.8,-0.2 -9.7,-23.2 -20.7,-34.5 0,0 6.3,-2.9 21.6,23.3 z"
   id="path1822"
   inkscape:connector-curvature="0" />
	<path
   class="st3"
   d="m 581.2,211 c 0,0 -0.2,0.2 -0.6,0.4 -2.4,-2.8 -8.3,-10.1 -10.7,-17.1 l -3.2,1.7 c 0,0 13.7,15.1 -0.6,26.9 v 0 c -5.5,4.4 -11.6,9.5 -17.2,14.4 -11.9,10.4 -30.9,1.8 -30.9,1.8 0,0 2.9,6.4 8.1,10.7 l 5.2,4.3 c 0,0 11.2,8.9 15.2,2.9 17.1,-25.3 39.7,-42.9 39.7,-42.9 z"
   id="path1824"
   inkscape:connector-curvature="0" />
	<path
   class="st3"
   d="m 607.9,70.8 c 0,0 -6.5,4.7 6.4,23.5 12.9,18.7 26,41.8 23.8,51.6 0,0 11.8,-7 -11.7,-42 -13.8,-20.6 -18,-30 -18.5,-33.1 z"
   id="path1826"
   inkscape:connector-curvature="0" />
	<path
   class="st3"
   d="m 613.9,53.6 c 0,0 0,14.7 23.1,49.8 23.1,35.1 10.7,46.5 -1.1,52.3 l -3.1,-3.2 C 643,146.9 650.9,142 641.5,120.4 632.1,98.8 602.6,70.1 613.9,53.6 Z"
   id="path1828"
   inkscape:connector-curvature="0" />
	<path
   class="st3"
   d="m 603.9,86 c 16.5,33.1 38.4,52 26.7,64.5 0,0 1.1,-11.2 -17.9,-40 C 602.7,95.6 600,90.4 603.9,86 Z"
   id="path1830"
   inkscape:connector-curvature="0" />
	<path
   class="st3"
   d="m 600,99.1 c 0,0 -6.5,5.7 7.6,25 8.8,12 11.9,20.7 11.9,20.7 l 5.8,1.5 c 0,0 -2.9,-10.5 -11.6,-24.2 C 605,108.4 600,99.1 600,99.1 Z"
   id="path1832"
   inkscape:connector-curvature="0" />
	<path
   class="st3"
   d="m 595.9,114.2 18.9,32 -3.4,5 c -14.1,-24.1 -18.1,-25.2 -15.5,-37 z"
   id="path1834"
   inkscape:connector-curvature="0" />
	<path
   class="st3"
   d="m 593,131.1 c 0,0 10.9,17.4 14.5,25.2 l -3.8,4.8 C 596.2,148 588.4,138.6 593,131.1 Z"
   id="path1836"
   inkscape:connector-curvature="0" />
	<path
   class="st3"
   d="m 589.7,145.9 c 0,0 -4.5,15.4 8.1,22.4 l 3.6,-4.3 z"
   id="path1838"
   inkscape:connector-curvature="0" />
	<path
   class="st3"
   d="m 493.9,90.6 c 0,0 6,7.1 37,16.2 31,9.1 57.2,15.1 50.5,38 -6.7,22.9 -11.2,35.5 -0.3,46.1 0,0 -16.4,-2.7 -6.5,-33.4 10.3,-31.9 4.6,-30.4 -45.7,-45.2 -26.9,-7.9 -32.2,-10.7 -35,-21.7 z"
   id="path1840"
   inkscape:connector-curvature="0" />
	<path
   class="st3"
   d="m 501.3,107.2 c 0,0 8,3.8 36.6,11.5 28.6,7.7 40.1,12.6 36,27.6 0,0 3.4,-12.5 -37.1,-22 -40.3,-9.4 -35.5,-17.1 -35.5,-17.1 z"
   id="path1842"
   inkscape:connector-curvature="0" />
	<path
   class="st3"
   d="m 508.9,121 c 0,0 1.4,7.3 13,9.4 11.6,2.1 40.4,9.3 50.4,20.6 0,0 8.6,-9.3 -22.8,-18.5 C 517.9,123.2 508.9,121 508.9,121 Z"
   id="path1844"
   inkscape:connector-curvature="0" />
	<path
   class="st3"
   d="m 514.9,133.2 c 0,0 1.3,5.9 8.1,7.9 6.7,2 39.5,8.2 46.8,19.1 0,0 8.4,-8.5 -24,-18.1 -19.8,-5.8 -30.9,-8.9 -30.9,-8.9 z"
   id="path1846"
   inkscape:connector-curvature="0" />
	<path
   class="st3"
   d="m 522.3,147.1 c 0,0 11.4,3.5 23.5,6 12.1,2.5 24,7.1 22.7,16.6 0,0 -1.3,-6.5 -24.5,-11.6 -15.2,-3.4 -21.8,-6.2 -21.7,-11 z"
   id="path1848"
   inkscape:connector-curvature="0" />
	<path
   class="st3"
   d="m 531.8,161.4 c 0,0 15.1,3.9 18.5,5 3.4,1.1 17.4,3.8 18.2,13.6 0,0 -6.4,-6 -19.6,-8.2 -13.3,-2.3 -17.4,-6.7 -17.1,-10.4 z"
   id="path1850"
   inkscape:connector-curvature="0" />
	<path
   class="st3"
   d="m 539.6,174.4 c 0,0 3.8,8.8 13.6,10.1 9.8,1.4 15.3,1.1 18.6,3.7 0,0 0.4,-8.9 -32.2,-13.8 z"
   id="path1852"
   inkscape:connector-curvature="0" />
	<path
   class="st3"
   d="m 381.4,219.9 c 0,0 10.1,-8.2 19.9,6.6 9.8,14.8 11.3,17.1 11.3,17.1 0,0 3.4,-2 3.4,-4.8 0,0 -11.5,-25.8 -19.3,-40.8 -0.1,0.1 3.6,6.1 -15.3,21.9 z"
   id="path1854"
   inkscape:connector-curvature="0" />
	<path
   class="st3"
   d="m 418.9,251.7 c 0,0 12.5,15.6 23.2,27.7 9.1,10.3 1.9,26.9 1.9,26.9 0,0 5.5,-2.6 9.2,-7.2 l 3.7,-4.5 c 0,0 6.7,-8.8 2.4,-13.3 -15.8,-16.7 -37.8,-34.1 -37.8,-34.1 z"
   id="path1856"
   inkscape:connector-curvature="0" />

		<circle
   transform="matrix(0.2697,-0.9629,0.9629,0.2697,58.6492,580.9525)"
   class="st3"
   cx="412.29999"
   cy="251.8"
   id="ellipse1858"
   r="4.0999999" />
	<path
   class="st3"
   d="m 385.4,194.6 c 0,0 -25.7,11.8 -21.7,26.1 1.2,4.2 5.4,4.2 5.4,4.2 11.6,-2 19.6,-11.5 21.6,-13.9 l -2,-3.1 c 0,0 -11,12.7 -19.7,13 l -2.1,-1.9 c 0,0 6.5,2.3 21.3,-13.3 l 3,4.9 c 0,0 6.7,-6.5 5.7,-10.6 -1.6,-6.7 -21.3,7.8 -29.8,18.4 0,0 -3.5,-7.8 19.2,-21.4 z"
   id="path1860"
   inkscape:connector-curvature="0" />
	<path
   class="st3"
   d="m 404.4,261.7 1.6,2.7 c 0,0 13,-12.1 23.4,0.2 l -9.2,-13.3 c 0.1,0 -8,7.6 -15.8,10.4 z"
   id="path1862"
   inkscape:connector-curvature="0" />
	<path
   class="st3"
   d="m 297,301.8 c 0,0 7.4,-3.4 22.2,-27.3 14.8,-23.9 26,-44.5 43.6,-33.5 17.6,11 27.1,17.6 38.6,11 0,0 -6.1,13.1 -29.6,-2.4 -24.3,-16.1 -24.4,-11 -48.5,27.8 -12.8,20.8 -16.4,24.6 -26.3,24.4 z"
   id="path1864"
   inkscape:connector-curvature="0" />
	<path
   class="st3"
   d="m 312.7,299.5 c 0,0 5.1,-5.8 18.2,-28 13.1,-22.2 19.9,-30.7 31.6,-23.8 0,0 -9.7,-5.7 -27.1,26 -17.5,31.6 -22.7,25.8 -22.7,25.8 z"
   id="path1866"
   inkscape:connector-curvature="0" />
	<path
   class="st3"
   d="m 326,296.3 c 0,0 6.4,0.5 10.9,-8.7 4.5,-9.2 17.2,-31.7 29,-37.5 0,0 -5.8,-9.4 -20.8,14.9 -15,24.3 -19.1,31.3 -19.1,31.3 z"
   id="path1868"
   inkscape:connector-curvature="0" />
	<path
   class="st3"
   d="m 337.6,294.1 c 0,0 5.3,0.2 8.5,-5 3.2,-5.2 16,-31.3 26.9,-34.8 0,0 -5.2,-9.1 -20.7,15.9 -9.5,15.3 -14.7,23.9 -14.7,23.9 z"
   id="path1870"
   inkscape:connector-curvature="0" />
	<path
   class="st3"
   d="m 351,291.1 c 0,0 5.6,-8.8 10.5,-18.3 4.9,-9.6 11.5,-18.5 19.2,-15.2 0,0 -5.7,-0.5 -15.5,17.9 -6.3,12 -10.2,16.9 -14.2,15.6 z"
   id="path1872"
   inkscape:connector-curvature="0" />
	<path
   class="st3"
   d="m 365.2,286.5 c 0,0 6.8,-11.8 8.5,-14.4 1.7,-2.6 7.2,-13.7 15.7,-12.1 0,0 -6.5,4 -11.5,14.5 -5,10.5 -9.7,13.1 -12.7,12 z"
   id="path1874"
   inkscape:connector-curvature="0" />
	<path
   class="st3"
   d="m 377.9,283 c 0,0 8.3,-1.2 11.7,-9 3.4,-7.9 4.5,-12.5 7.4,-14.8 0,0 -7.4,-2.5 -19.1,23.8 z"
   id="path1876"
   inkscape:connector-curvature="0" />
	<path
   class="st3"
   d="m 487.1,148.7 c 0,0 -4.8,6.5 -31.3,16 -26.5,9.5 -48.9,16.1 -41.9,35.6 7,19.5 11.5,30.2 2.7,40 0,0 14.1,-3.2 3.9,-29.4 -10.6,-27.2 -5.6,-26.2 37.3,-41.6 22.9,-8.2 27.4,-10.9 29.3,-20.6 z"
   id="path1878"
   inkscape:connector-curvature="0" />
	<path
   class="st3"
   d="m 481.5,163.5 c 0,0 -6.8,3.7 -31.2,11.9 -24.4,8.2 -34.2,13 -29.9,25.9 0,0 -3.6,-10.7 31.1,-21.1 34.5,-10.3 30,-16.7 30,-16.7 z"
   id="path1880"
   inkscape:connector-curvature="0" />
	<path
   class="st3"
   d="m 475.6,175.9 c 0,0 -0.8,6.4 -10.8,8.8 -10,2.4 -34.6,10.2 -42.7,20.5 0,0 -7.9,-7.6 18.9,-17.3 26.8,-9.7 34.6,-12 34.6,-12 z"
   id="path1882"
   inkscape:connector-curvature="0" />
	<path
   class="st3"
   d="m 471,186.7 c 0,0 -0.9,5.2 -6.6,7.3 -5.8,2.1 -33.9,9.1 -39.7,19 0,0 -7.8,-7 19.9,-16.9 16.9,-6.1 26.4,-9.4 26.4,-9.4 z"
   id="path1884"
   inkscape:connector-curvature="0" />
	<path
   class="st3"
   d="m 465.3,199.2 c 0,0 -9.8,3.6 -20.1,6.4 -10.4,2.8 -20.5,7.4 -18.8,15.6 0,0 0.8,-5.7 20.7,-11.4 13,-3.6 18.6,-6.4 18.2,-10.6 z"
   id="path1886"
   inkscape:connector-curvature="0" />
	<path
   class="st3"
   d="m 457.8,212.1 c 0,0 -12.9,4.2 -15.8,5.3 -2.9,1.1 -14.9,4.2 -15.1,12.8 0,0 5.2,-5.5 16.6,-8.2 11.4,-2.7 14.7,-6.7 14.3,-9.9 z"
   id="path1888"
   inkscape:connector-curvature="0" />
	<path
   class="st3"
   d="m 451.7,223.8 c 0,0 -2.9,7.8 -11.3,9.5 -8.4,1.7 -13.2,1.8 -16,4.2 0,0 -0.8,-7.7 27.3,-13.7 z"
   id="path1890"
   inkscape:connector-curvature="0" />
	<path
   class="st3"
   d="m 213.3,171.6 c 0,0 -10.1,9.6 4.4,22.1 14.5,12.5 16.7,14.3 16.7,14.3 0,0 -2.6,3.4 -5.6,2.9 0,0 -25.6,-20 -40.8,-26.2 0,0.2 5.9,4.9 25.3,-13.1 z"
   id="path1892"
   inkscape:connector-curvature="0" />
	<path
   class="st3"
   d="m 242,215.9 c 0,0 14.9,15.4 26.3,28.5 9.7,11.1 28.4,5.7 28.4,5.7 0,0 -3.5,5.5 -8.9,8.9 l -5.3,3.3 c 0,0 -11.6,6.8 -14.5,0.7 -12.5,-25.7 -31.1,-44.9 -31.1,-44.9 z"
   id="path1894"
   inkscape:connector-curvature="0" />
	<circle
   transform="matrix(0.9894,-0.145,0.145,0.9894,-27.7229,37.4427)"
   class="st3"
   cx="243"
   cy="208.89999"
   id="ellipse1896"
   r="4.4000001" />
	<path
   class="st3"
   d="m 188.1,173.7 c 0,0 17.6,-25 28.3,-20.3 3.1,1.3 3.8,5.8 3.8,5.8 l -2.8,6.8 -4.2,5.6 c 0,0 -7.9,6.9 -10.8,8.7 l -2.4,-1.6 c 0,0 15.1,-10 16.5,-19.2 l -2.4,-3.5 c 0,0 1.6,7.2 -17.1,20.8 l 4.8,3.9 c 0,0 -7.6,5.5 -12.1,4.6 -4.4,-0.8 12,-20.2 23.7,-29.2 0,0 -5.5,-3.5 -23,18.8 z"
   id="path1898"
   inkscape:connector-curvature="0" />
	<path
   class="st3"
   d="m 254.6,201.9 2.7,2 c 0,0 -14.6,12.2 -3,25 l -13,-11.6 c 0,0 9.3,-7.5 13.3,-15.4 z"
   id="path1900"
   inkscape:connector-curvature="0" />
	<path
   class="st3"
   d="m 321.5,99.7 c 0,0 -5.2,7 -33.7,17 -28.5,10 -52.6,17 -45.2,38 7.5,21 12.2,32.5 2.7,43 0,0 15.2,-3.4 4.3,-31.5 -11.3,-29.2 -5.9,-28.2 40.3,-44.5 24.7,-8.7 29.6,-11.6 31.6,-22 z"
   id="path1902"
   inkscape:connector-curvature="0" />
	<path
   class="st3"
   d="m 315.5,115.6 c 0,0 -7.3,4 -33.6,12.7 -26.3,8.7 -36.8,13.8 -32.2,27.7 0,0 -3.8,-11.5 33.5,-22.5 37.1,-11.1 32.3,-17.9 32.3,-17.9 z"
   id="path1904"
   inkscape:connector-curvature="0" />
	<path
   class="st3"
   d="m 309.1,128.9 c 0,0 -0.9,6.9 -11.6,9.4 -10.7,2.5 -37.2,10.8 -46,21.8 0,0 -8.5,-8.2 20.4,-18.5 28.9,-10.3 37.2,-12.7 37.2,-12.7 z"
   id="path1906"
   inkscape:connector-curvature="0" />
	<path
   class="st3"
   d="m 304.1,140.5 c 0,0 -1,5.6 -7.1,7.8 -6.2,2.2 -36.5,9.6 -42.7,20.2 0,0 -8.3,-7.5 21.5,-18.1 18.1,-6.4 28.3,-9.9 28.3,-9.9 z"
   id="path1908"
   inkscape:connector-curvature="0" />
	<path
   class="st3"
   d="m 297.9,153.9 c 0,0 -10.5,3.8 -21.7,6.8 -11.2,3 -22.1,7.8 -20.3,16.7 0,0 0.8,-6.1 22.3,-12.1 14,-3.9 20.1,-6.9 19.7,-11.4 z"
   id="path1910"
   inkscape:connector-curvature="0" />
	<path
   class="st3"
   d="m 289.8,167.7 c 0,0 -13.9,4.5 -17,5.6 -3.1,1.2 -16,4.4 -16.2,13.7 0,0 5.6,-5.9 17.9,-8.7 12.1,-2.8 15.7,-7.1 15.3,-10.6 z"
   id="path1912"
   inkscape:connector-curvature="0" />
	<path
   class="st3"
   d="m 283.2,180.2 c 0,0 -3.1,8.4 -12.2,10.2 -9.1,1.8 -14.2,1.8 -17.2,4.4 0,0 -0.8,-8.3 29.4,-14.6 z"
   id="path1914"
   inkscape:connector-curvature="0" />
	<g
   id="g1930">
		<path
   class="st3"
   d="m 200.7,116 c 7.2,-20 0.2,-22.8 0.2,-22.8 0.3,3 -1.3,12.4 -8.8,34.3 -9.1,26.3 -5.6,35.8 -2.8,39.1 0.4,-0.5 0.8,-1 1.2,-1.5 -2,-10.1 3.8,-31.1 10.2,-49.1 z"
   id="path1916"
   inkscape:connector-curvature="0" />
		<path
   class="st3"
   d="m 182.4,146.2 c 3.3,-21.8 23.1,-54.7 9,-67 0,0 3.5,13.3 -9,50.6 -8.8,26 -4.6,37.5 2.8,42.8 0.6,-1.1 1.4,-2.2 2.2,-3.4 -4.7,-3.4 -7.1,-9.5 -5,-23 z"
   id="path1918"
   inkscape:connector-curvature="0" />
		<path
   class="st3"
   d="m 199.3,157.4 c 0.8,-6.3 2.7,-15 6.8,-27 5.4,-16 6.6,-21.3 2.1,-24.3 -5.2,25.2 -15,44.1 -14.1,55.6 0.5,-0.5 1.1,-1 1.6,-1.4 1.2,-1.1 2.4,-2 3.6,-2.9 z"
   id="path1920"
   inkscape:connector-curvature="0" />
		<path
   class="st3"
   d="m 210.6,150.6 c 0.8,-2.7 1.8,-5.9 3.2,-9.3 8.1,-20.8 0.9,-24.4 0.9,-24.4 0,0 -2.3,9.6 -6.9,24.1 -1.5,4.8 -2.5,9.1 -3.2,12.7 2.2,-1.3 4.2,-2.4 6,-3.1 z"
   id="path1922"
   inkscape:connector-curvature="0" />
		<path
   class="st3"
   d="m 219.8,152.6 c 0.2,0.5 0.5,1 0.8,1.6 4.3,-13.6 5.6,-16.5 1.5,-24.5 l -5.7,20.2 c 1.4,0.3 2.6,1.2 3.4,2.7 z"
   id="path1924"
   inkscape:connector-curvature="0" />
		<path
   class="st3"
   d="m 228.8,144.2 c 0,0 -2.6,8.4 -4.7,16.2 1.2,2.2 2.6,4.7 4,7.1 3.1,-10.4 5.6,-18.5 0.7,-23.3 z"
   id="path1926"
   inkscape:connector-curvature="0" />
		<path
   class="st3"
   d="m 235.2,156.9 -4.8,14.8 c 1.3,2.2 2.7,4.4 3.9,6.3 8.1,-9.3 0.9,-21.1 0.9,-21.1 z"
   id="path1928"
   inkscape:connector-curvature="0" />
	</g>
	<path
   class="st3"
   d="m 441.9,435.2 c 0,0 2.2,12.8 -8.5,18.9 -11.9,6.8 0.7,19.2 -9,25.9 -10.8,7.5 -10.9,16.9 -10.9,16.9 l 47.1,-29.1 -47.1,37.9 -47.1,-37.9 c 0,0 8.7,-8.1 15.6,-5.4 10.1,4 9,-14.7 19.2,-11.3 7.8,2.6 12.2,-1.5 12.2,-1.5 l -28.3,-14.5 -19.5,32.7 5.6,10.6 41.5,27.3 1.2,-56.1 z"
   id="path1932"
   inkscape:connector-curvature="0" />
	<path
   class="st3"
   d="m 413.7,420.7 28.3,14.5 c 0,0 -18,-7.9 -25.7,-6.3 -7.7,1.6 -11.4,4.8 -19.5,4.6 -8,-0.2 -11.4,1.6 -11.4,1.6 z"
   id="path1934"
   inkscape:connector-curvature="0" />
	<path
   class="st3"
   d="m 269.7,371.2 c 0,0 2.2,12.8 -8.5,18.9 -11.9,6.8 0.7,19.2 -9,25.9 -10.8,7.5 -10.9,16.9 -10.9,16.9 l 47.1,-29.1 -47.1,37.9 -47.1,-37.9 c 0,0 8.7,-8.1 15.6,-5.4 10.1,4 9,-14.7 19.2,-11.3 7.8,2.6 12.2,-1.5 12.2,-1.5 l -28.3,-14.5 -19.5,32.7 5.6,10.6 41.5,27.3 1.2,-56.1 z"
   id="path1936"
   inkscape:connector-curvature="0" />
	<path
   class="st3"
   d="m 241.5,356.6 28.3,14.5 c 0,0 -18,-7.9 -25.7,-6.3 -7.7,1.6 -11.4,4.8 -19.5,4.6 -8.1,-0.2 -11.4,1.6 -11.4,1.6 z"
   id="path1938"
   inkscape:connector-curvature="0" />
	<path
   class="st3"
   d="m 611.8,379.4 c 0,0 2.2,12.8 -8.5,18.9 -11.9,6.8 0.7,19.2 -9,25.9 -10.8,7.5 -10.9,16.9 -10.9,16.9 l 47.1,-29.1 -47,38 -47.1,-37.9 c 0,0 8.7,-8.1 15.6,-5.4 10.1,4 9,-14.7 19.2,-11.3 7.8,2.6 12.2,-1.5 12.2,-1.5 l -28.3,-14.5 -19.5,32.7 5.6,10.6 41.5,27.3 1.2,-56.1 z"
   id="path1940"
   inkscape:connector-curvature="0" />
	<path
   class="st3"
   d="m 583.6,364.9 28.3,14.5 c 0,0 -18,-7.9 -25.7,-6.3 -7.7,1.6 -11.4,4.8 -19.5,4.6 -8.1,-0.2 -11.4,1.6 -11.4,1.6 z"
   id="path1942"
   inkscape:connector-curvature="0" />
	<g
   id="g2178">
		<path
   d="m 640.6,159.4 c -0.9,-1.2 -1.8,-2.3 -2.8,-3.4 0.9,-0.5 1.8,-1.1 2.7,-1.6 20.6,-12.1 7.4,-34.6 -3.2,-52.7 L 636,99.5 C 621.4,74.6 614.8,60 615.1,53.8 c 0,-0.4 -0.2,-0.8 -0.6,-1.1 -0.4,-0.2 -0.8,-0.2 -1.2,0 -3.1,1.7 -5.4,4.9 -6.5,8.7 -0.8,2.8 -0.8,5.9 -0.2,9 -2.9,2.3 -6.3,7.6 -4.1,15.2 -3.8,2.7 -5.2,7.7 -3.9,13.1 -5,3.5 -5.9,9.7 -4.2,15.2 -1.2,0.9 -3.4,3 -4.3,6.4 -0.9,3.2 -0.4,6.8 1.4,10.7 -1.9,1.8 -6.3,7 -3.2,14.8 -1.8,2.1 -6.9,9.3 -1.3,18.8 2.1,3.6 4.4,5.7 6.5,7.2 -4.5,5.2 -9.5,10.4 -14.5,14.9 -5.8,-8.2 -3.8,-16.1 3.4,-40.8 3,-10.3 0.1,-18.3 -9.1,-24.6 -7.8,-5.3 -18.7,-8.5 -29.2,-11.6 l -2.7,-0.8 C 513.8,100.8 499,94.8 494.8,90 c -0.3,-0.3 -0.7,-0.5 -1.1,-0.4 -0.4,0.1 -0.8,0.4 -0.9,0.8 -1.1,3.4 -0.6,7.4 1.3,10.9 1.4,2.6 3.4,4.8 6,6.6 -0.6,3.7 0.6,9.9 7.6,13.9 -0.5,2.9 0.2,5.9 2.2,8.5 1,1.3 2.3,2.5 3.9,3.5 -1,4.9 1.2,10.7 7.4,14.1 -0.3,1.5 -0.4,4.6 1.2,7.7 1.6,2.9 4.4,5.2 8.3,6.7 -0.2,2.6 0.2,9.5 7.9,13 0.1,2.8 1.4,11.5 11.9,14.5 5.6,1.6 9.5,1 12.9,0.3 2.9,-0.5 5.3,-0.9 8.3,0.1 -0.6,0.7 -1.3,1.7 -1.5,2.6 -15.5,8.7 -33,17.4 -52.1,25.6 -1.3,0.5 -2.4,1.7 -2.9,3.1 -1.4,4.2 -2.6,12.9 5.6,23.4 9.4,12.1 20.4,14.8 20.8,14.9 0.5,0.1 1,0.2 1.4,0.2 1.9,0 3.7,-0.9 4.8,-2.6 4,-5.6 17.2,-23.6 33.6,-37.9 0.5,1.5 1.7,2.6 3.2,3 v 0.1 c -1.9,0.6 -3.4,2.3 -3.6,4.5 0,1 -0.1,2 -0.2,3 -0.1,1.3 0.2,2.5 1.1,3.4 0.5,0.6 1.2,1 1.9,1.2 0,0.1 0,0.2 0,0.3 -2,0.5 -3.7,2.2 -4,4.3 -0.1,0.5 -0.2,1 -0.2,1.5 -0.1,0.5 -0.2,1.1 -0.3,1.6 -0.2,1.3 0.1,2.6 0.9,3.5 0.5,0.6 1.1,0.9 1.8,1.2 v 0 c -2.1,0.4 -3.9,2.2 -4.2,4.4 -0.1,0.5 -0.2,1 -0.2,1.5 -0.1,0.5 -0.2,1.1 -0.3,1.6 -0.2,1.3 0.1,2.5 0.9,3.4 0.5,0.6 1.2,1 1.9,1.2 0,0.1 0,0.2 0,0.3 -2.1,0.4 -3.8,2.3 -4,4.5 v 0.3 c -0.1,1 -0.2,1.9 -0.2,2.9 -0.1,1.3 0.4,2.4 1.2,3.3 0.6,0.6 1.4,1.1 2.2,1.3 0,0.1 0,0.1 0,0.2 -0.8,0.2 -1.5,0.7 -2,1.3 -0.8,0.9 -1.2,2.1 -1.1,3.3 0.1,1.1 0.2,2.1 0.3,3.1 0.1,1.4 1.1,2.9 2.5,3.7 0.2,0.1 0.4,0.2 0.6,0.2 0.4,0 0.8,-0.2 1,-0.6 0.3,-0.6 0.2,-1.3 -0.4,-1.6 -0.7,-0.4 -1.3,-1.2 -1.3,-1.9 -0.1,-1 -0.2,-2 -0.3,-3.1 -0.1,-0.5 0.1,-1 0.5,-1.5 0.1,-0.1 0.2,-0.2 0.3,-0.3 0,0.4 0,0.9 0.1,1.3 0.1,0.6 0.6,1.1 1.2,1.1 h 0.1 c 0.7,-0.1 1.2,-0.6 1.1,-1.3 0,-0.4 -0.1,-0.8 -0.1,-1.2 0.7,0.4 1.2,1.2 1.3,2.1 0.1,1 0.2,2 0.3,3.1 0.1,0.7 0.6,1.1 1.3,1.1 0.7,-0.1 1.1,-0.6 1.1,-1.3 -0.1,-1.1 -0.2,-2.1 -0.3,-3.1 -0.1,-2.2 -1.7,-4.1 -3.8,-4.5 v -0.1 c 2,-0.6 3.5,-2.4 3.5,-4.5 0,-1 0.1,-2 0.2,-3 0.1,-1.3 -0.2,-2.5 -1.1,-3.4 -0.5,-0.5 -1.1,-0.9 -1.8,-1.1 0,-0.1 0,-0.3 0,-0.4 2,-0.5 3.7,-2.2 4,-4.3 0.1,-0.5 0.2,-1 0.2,-1.5 0.1,-0.5 0.2,-1.1 0.3,-1.6 0.2,-1.3 -0.1,-2.6 -0.9,-3.5 -0.5,-0.5 -1.1,-0.9 -1.7,-1.1 v -0.1 c 2,-0.5 3.8,-2.2 4.1,-4.4 0.1,-0.5 0.2,-1 0.2,-1.5 0.1,-0.5 0.2,-1.1 0.3,-1.6 v -0.1 c 0.1,-1.3 -0.2,-2.6 -1.1,-3.5 -0.5,-0.5 -1.1,-0.9 -1.8,-1.1 0,-0.1 0,-0.2 0.1,-0.4 2.1,-0.5 3.8,-2.3 3.9,-4.5 0.1,-0.6 0.1,-1.1 0.1,-1.6 0,-0.5 0,-1 0.1,-1.5 0.1,-1.3 -0.4,-2.5 -1.2,-3.4 -0.6,-0.6 -1.3,-1 -2.1,-1.2 v 0 c 0.8,-0.2 1.5,-0.6 2.1,-1.2 0.9,-0.9 1.3,-2.1 1.2,-3.4 -0.1,-0.8 -0.1,-1.5 -0.2,-2.3 2.7,-0.9 6.1,-2.9 7.8,-4.9 0.4,-0.5 0.7,-1 0.9,-1.4 0.1,-0.1 0.2,-0.3 0.2,-0.5 0.2,-0.7 0.2,-1.3 0.1,-1.8 17.9,-10.9 38.2,-17.9 43.2,-19.6 0.5,-0.1 1,-0.2 1.4,-0.5 0.5,-0.3 1.2,-1 1.5,-2.3 0.4,-2.1 -0.3,-5.4 -1.7,-8.9 l 4.3,-1.7 c 0.3,-0.1 0.5,-0.3 0.7,-0.6 0.1,-0.3 0.1,-0.6 0,-0.9 -0.1,0 -2.6,-6.1 -7.9,-13.1 z M 609.2,61.9 c 0.7,-2.5 2,-4.6 3.7,-6.1 0.9,7.6 7.5,21.3 21.2,44.8 l 1.3,2.2 c 10.6,18 22.6,38.5 4,49.4 -1.1,0.6 -2.1,1.3 -3.1,1.9 -1.1,-1.2 -2.3,-2.4 -3.4,-3.4 1.4,-0.9 2.8,-1.7 4.4,-2.6 2.7,-1.6 4.4,-3.8 5.1,-6.6 2.4,-9.7 -7.4,-26 -21,-48.5 -3.1,-5.1 -6.2,-10.3 -9.5,-16 -3.1,-5.1 -4,-10.5 -2.7,-15.1 z m -1.9,11 c 0.6,1.8 1.4,3.6 2.4,5.3 3.3,5.7 6.5,10.9 9.5,16 13.3,22.1 22.9,38 20.7,46.7 -0.6,2.2 -1.9,3.9 -4,5.1 -0.3,0.2 -0.6,0.3 -0.9,0.5 2,-10.3 -12.6,-32.8 -22.3,-47.8 -2.4,-3.6 -4.4,-6.8 -5.7,-9.1 -5.4,-9.1 -1.8,-14.5 0.3,-16.7 z m -3.9,15 c 0.4,1 0.9,2 1.6,3.1 1.4,2.3 3.4,5.5 5.8,9.2 9,13.9 24,37.1 21.9,46.3 -0.3,1.2 -0.9,2.1 -1.8,2.7 -1.5,-1.2 -3,-2.3 -4.4,-3.1 -2.7,-10.9 -13.9,-28.1 -19.9,-37.5 -1.6,-2.4 -2.8,-4.3 -3.4,-5.4 -3.6,-6.1 -3.4,-12.2 0.2,-15.3 z m -4,13.1 c 0.4,1.1 0.9,2.2 1.6,3.3 0.7,1.1 1.9,3.1 3.5,5.5 5.6,8.7 15.7,24.2 19.1,34.7 -1.4,-0.6 -2.7,-0.9 -3.9,-1 -1.7,-0.2 -3.2,0.2 -4.4,1 -3.6,-7.5 -9.1,-15.8 -13.2,-22 -1.6,-2.4 -3,-4.5 -3.8,-5.8 -0.5,-0.8 -0.8,-1.6 -1.2,-2.4 0,-0.2 0,-0.4 -0.1,-0.6 0,-0.1 -0.1,-0.1 -0.2,-0.2 -1.8,-5.4 -0.3,-9.9 2.6,-12.5 z m 43.5,83.4 c -0.1,0.3 -0.2,0.6 -0.4,0.7 -0.2,0.1 -0.4,0.1 -0.8,0.3 -1.9,0.2 -5.6,-1.2 -10.9,-5.6 l 4.4,-2.3 c 0.4,-0.2 0.6,-0.5 0.6,-0.9 0,-0.4 -0.1,-0.8 -0.4,-1 0,0 -3.9,-3.2 -8.2,-8.9 -5.9,-7.6 -7.6,-13.2 -6.8,-13.9 0.1,-0.1 0.2,-0.1 0.4,-0.1 2.9,0.3 10.3,8.1 15.5,15.2 1.7,2.4 3.3,5.2 4.5,7.8 0,0.1 0,0.1 0.1,0.2 0,0.1 0.1,0.2 0.1,0.3 1.5,3.3 2.3,6.5 1.9,8.2 z m -24.8,-29.3 c 1.2,5 6.4,11.8 7.2,12.8 3,3.9 5.7,6.7 7.3,8.1 l -3.7,1.9 c -1.8,-1.6 -3.9,-3.6 -6,-5.9 -4.7,-5 -7,-9.6 -8,-13.3 z m -25.7,-34.3 c 0.6,-2.3 1.9,-3.8 2.9,-4.7 0.3,0.6 0.5,1.1 0.9,1.7 0.8,1.4 2.2,3.4 3.8,5.9 4.2,6.3 9.9,14.9 13.4,22.5 -0.1,0.2 -0.3,0.4 -0.4,0.7 -1,1.4 -2.8,3.9 -5.1,7 -2.2,-4.7 -5.4,-9.7 -8.5,-14.6 -1.6,-2.5 -3.2,-5.1 -4.7,-7.5 -2.3,-4.1 -3.1,-7.8 -2.3,-11 z m 0.3,12.2 v 0 c 1.5,2.5 3.1,5.1 4.7,7.6 3.3,5.2 6.8,10.6 8.8,15.5 -1.4,1.8 -3,3.8 -4.7,5.9 -1.7,-2.8 -3.8,-5.9 -6,-9.1 -1,-1.5 -2.1,-3.1 -3.2,-4.7 -5.1,-7.9 -1.6,-13.1 0.4,-15.2 z m -3.6,30.2 c -4.3,-7.2 -1.4,-12.8 0.4,-15.2 0.3,0.5 0.5,1 0.9,1.4 1.1,1.6 2.2,3.2 3.2,4.7 2.4,3.5 4.7,6.8 6.4,9.8 -1.6,1.9 -3.2,3.9 -4.9,5.9 -2,-1.3 -4.1,-3.2 -6,-6.6 z m 13.1,1.8 c 0.1,-0.1 0.2,-0.2 0.3,-0.3 2.1,-2.6 4.1,-5.1 5.8,-7.4 0.2,-0.1 0.4,-0.3 0.4,-0.6 1.1,-1.4 2,-2.7 2.9,-3.8 0,1.4 0.1,3.3 0.6,5.6 0,0.3 0,0.5 0.2,0.7 1.1,4 3.5,9.1 8.6,14.6 6.2,6.7 12,11.2 16.4,13 -8.7,3.1 -26.6,10.1 -42,19.9 -1.8,-1.3 -4.5,-3.8 -7.6,-7.9 -4.9,-6.4 -6.4,-10.6 -6.1,-11.4 l 0.1,-0.1 c 7.3,-6.9 14.5,-15.1 20.4,-22.3 z m -19.1,49.9 c 0,-0.3 0,-0.5 0,-0.8 0.2,0.2 0.4,0.3 0.6,0.4 -0.2,0.2 -0.4,0.3 -0.6,0.4 0,0.1 0,0.1 0,0 z m 2.1,-6.5 c -0.2,-0.6 -0.3,-1.1 -0.5,-1.7 -0.2,-0.6 -0.9,-1 -1.5,-0.8 -0.6,0.2 -1,0.9 -0.8,1.5 0.2,0.5 0.3,1 0.4,1.5 -0.3,0 -0.6,-0.1 -1,-0.2 -1.2,-0.3 -2.1,-1.1 -2.7,-2.2 -0.6,-1.1 -0.7,-2.3 -0.4,-3.4 v 0 c 0.3,-1.2 1.1,-2.1 2.2,-2.7 0.7,-0.4 1.4,-0.6 2.2,-0.6 0.4,0 0.9,0.1 1.3,0.2 2.4,0.7 3.8,3.2 3.1,5.6 -0.4,1.3 -1.3,2.2 -2.3,2.8 z M 496.1,100 c -1.2,-2.3 -1.8,-4.8 -1.5,-7.1 6,4.9 20.5,10.6 46.1,18.1 l 2.7,0.8 c 10.4,3.1 21.1,6.2 28.6,11.3 8.3,5.7 10.9,12.6 8.1,21.9 -8.1,27.6 -9.9,35.3 -1,45.4 -0.7,0.1 -1.8,0 -3.4,-0.9 -2.9,-1.5 -5.5,-4.2 -6.2,-10.7 0,-0.1 0,-0.2 0,-0.4 0,-0.1 0,-0.1 -0.1,-0.2 -0.4,-4.6 0.2,-11 2.2,-20.1 0.1,-0.1 0.1,-0.2 0.2,-0.3 0.1,-0.4 0.2,-0.9 0.2,-1.3 0.5,-2.2 1.1,-4.6 1.8,-7.2 0,-0.1 0.1,-0.1 0.1,-0.2 0.1,-0.3 0.1,-0.5 0.2,-0.8 0.4,-1.6 0.9,-3.3 1.4,-5 0.9,-3 0.6,-5.8 -0.8,-8.3 -4.8,-8.7 -23.1,-13.8 -48.5,-21 -5.7,-1.6 -11.7,-3.3 -18,-5.1 -2.3,-0.7 -4.4,-1.6 -6.2,-2.8 v 0 c -2.6,-1.5 -4.6,-3.6 -5.9,-6.1 z m 6.2,9.2 c 1.6,0.9 3.4,1.6 5.3,2.2 6.3,1.9 12.2,3.5 18,5.1 24.8,7 42.7,12 47,19.8 1.1,2 1.3,4.1 0.6,6.5 -0.1,0.3 -0.2,0.6 -0.3,0.9 -5.7,-8.7 -31.5,-15.1 -48.7,-19.4 -4.3,-1.1 -8,-2 -10.6,-2.8 -10.2,-2.9 -11.4,-9.3 -11.3,-12.3 z m 9.3,19.5 c -1.4,-1.9 -2,-3.9 -1.8,-5.9 0.9,0.4 2,0.8 3.1,1.1 2.7,0.8 6.4,1.7 10.7,2.8 16,4 42.8,10.6 47.5,18.7 0.5,0.9 0.7,1.8 0.6,2.8 -0.4,1.6 -0.8,3.1 -1.2,4.5 -6.2,-7.9 -31,-13.9 -44.5,-17.1 -2.6,-0.6 -4.7,-1.1 -5.9,-1.5 -3.7,-1.2 -6.6,-3 -8.5,-5.4 z m 4.2,6.2 c 1.1,0.5 2.3,1 3.6,1.4 1.2,0.4 3.3,0.9 6,1.5 11.8,2.9 39.4,9.6 43.7,17 0.3,0.5 0.5,1 0.5,1.5 -0.5,2.1 -0.9,4.1 -1.3,6 -5.1,-5.8 -20.2,-9.8 -35.5,-13.4 -3,-0.7 -5.6,-1.3 -7.2,-1.8 -5.6,-1.6 -10.6,-6.4 -9.8,-12.2 z m 8.5,19.5 c -1.1,-2.1 -1.2,-4.2 -1.1,-5.5 0.6,0.2 1.1,0.4 1.7,0.6 1.6,0.5 4.1,1.1 7.3,1.8 11.1,2.6 34.1,8 35.4,14.8 -0.4,2.7 -0.6,5.1 -0.7,7.4 -4.8,-5.5 -15,-8.1 -25,-10.6 -2.8,-0.7 -5.8,-1.4 -8.5,-2.2 -4.4,-1.3 -7.5,-3.5 -9.1,-6.3 z m 8.6,8.6 c 2.7,0.8 5.6,1.5 8.5,2.2 11.7,2.9 23.9,6 25.7,13.5 0.1,0.9 0.2,1.8 0.4,2.6 -4,-2.6 -10.3,-4 -17.7,-5.6 -2.1,-0.5 -4.4,-1 -6.7,-1.5 -1,-0.2 -2,-0.5 -2.8,-0.9 h -0.1 c -6.6,-2.7 -7.4,-7.8 -7.3,-10.3 z m 29.9,24.8 c -3.3,0.6 -6.8,1.2 -11.8,-0.3 -8,-2.3 -9.7,-8.4 -10.1,-11.3 0.5,0.2 1,0.3 1.6,0.4 2.3,0.6 4.6,1 6.7,1.5 9.6,2.1 17.2,3.8 19.7,7.9 l 0.1,0.1 c 0.2,0.4 0.4,0.8 0.7,1.2 -2.5,-0.3 -4.6,0.1 -6.9,0.5 z m 11.8,4 c 0.1,0.1 0.3,0.1 0.4,0.2 1.4,0.7 2.6,1 3.6,1 1,0 1.7,-0.2 2.2,-0.5 0.8,1.5 1.8,3.2 3.1,5.1 -1.4,-0.2 -2.8,0.1 -4.1,0.8 -1.6,0.9 -2.8,2.3 -3.3,4.1 -0.1,0.2 -0.1,0.4 -0.1,0.6 -2.4,-3.7 -4,-7.4 -4,-9.5 0,-0.4 0.6,-1.3 1.5,-2.2 0.1,0.1 0.4,0.3 0.7,0.4 z m -28.9,64.4 c -0.8,1.2 -2.3,1.8 -3.7,1.4 -0.4,-0.1 -10.6,-2.7 -19.5,-14.1 -7.5,-9.7 -6.5,-17.4 -5.2,-21.2 0.3,-0.8 0.9,-1.4 1.6,-1.7 18.7,-8.1 36,-16.6 51.3,-25.2 1.2,4.7 6,12.5 11,17.1 -0.4,0.8 -0.6,1.8 -0.5,2.7 0.1,0.6 0.1,1.2 0.2,1.7 -17.2,14.7 -31.1,33.5 -35.2,39.3 z m 36.8,6.6 c 0.4,0.4 0.5,1 0.5,1.6 -0.1,1 -0.2,2.1 -0.2,3.2 0,0.8 -0.4,1.5 -1,1.9 0,-0.3 0,-0.6 0,-1 0,-0.7 -0.5,-1.2 -1.2,-1.2 -0.6,0 -1.2,0.5 -1.2,1.2 0,0.4 0,0.8 0,1.1 -0.2,-0.1 -0.4,-0.2 -0.5,-0.4 -0.3,-0.3 -0.6,-0.8 -0.6,-1.6 0,-0.9 0.1,-1.7 0.2,-2.7 v -0.3 c 0.1,-0.9 0.6,-1.6 1.4,-2.1 0,0.2 0,0.4 -0.1,0.5 -0.1,0.7 0.4,1.2 1.1,1.3 h 0.1 c 0.6,0 1.1,-0.5 1.2,-1.1 0,-0.2 0.1,-0.5 0.1,-0.7 0,0.2 0.1,0.2 0.2,0.3 z m 1.8,-12.5 c 0.3,0.4 0.5,0.9 0.4,1.5 -0.1,0.6 -0.2,1.1 -0.3,1.7 -0.1,0.5 -0.1,0.9 -0.2,1.5 -0.1,0.8 -0.6,1.6 -1.3,2 0.1,-0.4 0.1,-0.8 0.2,-1.2 0.1,-0.7 -0.4,-1.3 -1,-1.3 -0.7,-0.1 -1.3,0.4 -1.3,1 -0.1,0.6 -0.1,1.1 -0.2,1.7 -0.2,-0.1 -0.3,-0.2 -0.4,-0.3 -0.3,-0.4 -0.5,-0.9 -0.4,-1.5 0.1,-0.6 0.2,-1.1 0.3,-1.7 0.1,-0.5 0.1,-0.9 0.2,-1.5 0.1,-0.8 0.7,-1.6 1.4,-2 0,0 0,0.1 0,0.2 l -0.1,0.9 c -0.1,0.7 0.3,1.3 1,1.4 0.1,0 0.1,0 0.2,0 0.6,0 1.1,-0.4 1.2,-1 l 0.1,-0.9 c 0,-0.2 0.1,-0.5 0.1,-0.7 -0.1,0 0,0.1 0.1,0.2 z m 1.9,-12.2 c 0.3,0.4 0.5,0.9 0.5,1.6 -0.1,0.5 -0.2,1.1 -0.3,1.6 -0.1,0.5 -0.1,0.9 -0.2,1.5 -0.1,0.8 -0.6,1.5 -1.2,1.9 0,-0.2 0.1,-0.4 0.1,-0.6 0.1,-0.6 -0.3,-1.3 -0.9,-1.4 -0.6,-0.1 -1.3,0.3 -1.4,0.9 -0.1,0.5 -0.2,0.9 -0.3,1.4 -0.2,-0.1 -0.3,-0.2 -0.4,-0.3 -0.3,-0.4 -0.5,-0.9 -0.4,-1.5 0.1,-0.6 0.2,-1.1 0.3,-1.7 0.1,-0.5 0.1,-0.9 0.2,-1.5 0.1,-0.8 0.6,-1.5 1.3,-2 0,0.1 0,0.2 0,0.3 -0.1,0.7 0.3,1.3 1,1.4 0.1,0 0.1,0 0.2,0 0.6,0 1.1,-0.4 1.2,-1 0,-0.3 0.1,-0.6 0.1,-0.9 0,0.1 0.1,0.2 0.2,0.3 z m 1.2,-12.4 c 0.4,0.4 0.6,1 0.6,1.5 -0.1,0.5 -0.1,1.1 -0.1,1.6 0,0.5 0,1 -0.1,1.6 0,0.9 -0.6,1.6 -1.2,2 0,-0.4 0.1,-0.9 0.1,-1.3 0.1,-0.7 -0.4,-1.2 -1.1,-1.3 -0.7,-0.1 -1.2,0.4 -1.3,1.1 0,0.5 -0.1,1.1 -0.2,1.6 -0.1,-0.1 -0.3,-0.2 -0.4,-0.3 -0.4,-0.4 -0.5,-1 -0.5,-1.6 0.1,-1 0.2,-2.1 0.2,-3.2 0,-0.8 0.5,-1.5 1.1,-2 0,0.4 0,0.8 0,1.3 0,0.7 0.5,1.2 1.2,1.2 v 0 c 0.6,0 1.2,-0.5 1.2,-1.2 0,-0.5 0,-1 0,-1.4 0.2,0.1 0.4,0.2 0.5,0.4 z m -0.1,-5.8 c -0.1,0.1 -0.3,0.3 -0.4,0.3 0,-0.4 0,-0.8 -0.1,-1.2 -0.1,-0.7 -0.6,-1.1 -1.3,-1.1 -0.7,0.1 -1.2,0.6 -1.1,1.3 0,0.3 0,0.6 0.1,0.9 -0.6,-0.4 -1,-1.1 -1.1,-2 V 218 c 0.9,-0.7 1.8,-1.4 2.6,-2.1 0.4,0.1 0.7,0.3 1.1,0.3 0.2,0 0.4,0.1 0.6,0.1 0.1,0.7 0.1,1.3 0.2,2 0.1,0.6 -0.1,1.1 -0.6,1.6 z m 2.3,-6.4 c -0.7,-1.4 -2,-2.5 -3.5,-2.9 1.7,-0.8 3.1,-2.3 3.7,-4.3 0.1,-0.4 0.2,-0.8 0.2,-1.2 2,2.1 4.1,3.8 5.8,4.6 -1.6,1.7 -4.3,3.1 -6.2,3.8 z m 53,-39.7 c -1.2,-2.7 -2.8,-5.3 -4.4,-7.5 -0.5,-0.6 -11.5,-15.5 -17.1,-16.1 -0.9,-0.1 -1.5,0.1 -1.9,0.4 -0.2,0.1 -0.4,0.2 -0.5,0.3 l -4.4,4.9 c -0.2,-1.3 -0.2,-2.3 -0.2,-3.2 0.1,-2 0.5,-3.4 1,-4.5 0.5,-0.7 0.8,-1.1 0.9,-1.3 0.7,-0.7 1.7,-1 2.9,-1 0.2,0 0.4,0 0.6,0 1.5,0.1 3.2,0.7 5,1.7 0.2,0.3 0.5,0.4 0.8,0.5 1.5,0.9 3,2 4.5,3.3 0.1,0.1 0.2,0.2 0.3,0.3 2.9,2.5 5.8,5.6 8.5,9.2 3.8,5 6.2,9.7 7.1,11.7 z"
   id="path1944"
   inkscape:connector-curvature="0" />
		<path
   d="m 487.4,147.5 c -0.4,-0.1 -0.9,0.1 -1.1,0.5 -3.4,4.4 -15.9,10.4 -39.5,18.8 l -1.9,0.7 c -12.7,4.5 -27.2,9.7 -31.8,19.4 -2,4.2 -2,9 -0.1,14.3 7.6,21.1 9.7,27.8 5,35.3 -0.7,-0.4 -1.4,-0.6 -1.9,-0.6 -7.8,-19.5 -18.1,-38 -18.3,-38.4 v 0 0 0 0 c -0.4,-0.8 -1.3,-1.8 -3.2,-2.2 -2,-0.4 -4.6,-0.1 -7.2,0.7 l -1.5,-4 c -0.2,-0.6 -0.9,-0.9 -1.4,-0.7 -0.3,0.1 -6.3,1.8 -12.5,6.7 -6.9,5.4 -11.8,13.3 -12.3,19.6 -0.2,2.6 0.4,4.7 1.7,6.2 v 0 0 c 0.2,0.2 18.7,18.1 35.3,29.2 -7.5,2.4 -13.5,-0.8 -32.5,-12.7 -4.8,-3 -9.5,-3.9 -14,-2.9 -10.6,2.5 -18.6,15.5 -25.7,27 l -1,1.7 c -13.3,21.3 -21.7,32.3 -26.7,34.7 -0.4,0.2 -0.6,0.6 -0.7,1 0,0.4 0.2,0.8 0.5,1.1 1.8,1.2 4.1,1.8 6.5,1.8 1,0 2,-0.1 3.1,-0.3 2.5,-0.5 4.8,-1.7 6.9,-3.4 1.2,0.5 2.7,0.9 4.4,0.9 2.8,0 6,-1 9.1,-4 1.2,0.6 2.5,0.8 3.8,0.8 2.6,0 5.3,-1.1 7.7,-3.1 1.5,0.8 3,1.1 4.5,1.1 3.3,0 6.5,-1.6 9,-4.1 0.9,0.4 2.5,1 4.4,1 0.7,0 1.5,-0.1 2.3,-0.3 2.8,-0.6 5.4,-2.4 7.6,-5.4 0.9,0.3 2.3,0.6 4,0.6 2.6,0 5.9,-0.9 8.8,-4.2 0.7,0.2 1.8,0.3 3.1,0.3 3.4,0 8.3,-1.2 11.9,-7 2.7,-4.4 3.1,-7.8 3.3,-10.9 0.3,-3 0.5,-5.4 3,-8 1,1.3 2.2,2.5 3.2,2.9 1.1,3 2.2,5.9 3.3,8.7 -0.1,0.5 -0.1,1 0,1.5 0.2,1.1 0.4,2.1 0.6,3.1 0.4,1.8 1.6,3.3 3.3,4 0.2,0.4 0.4,0.8 0.6,1.2 -0.3,0.2 -0.6,0.5 -0.9,0.8 -0.7,1 -1,2.2 -0.6,3.5 l 0.2,0.7 c 0.2,0.8 0.4,1.6 0.6,2.3 0.4,2.2 2.3,3.9 4.4,4.4 0,0 0,0 0,0.1 -0.7,0.2 -1.3,0.6 -1.8,1.2 -0.8,0.9 -1.1,2.2 -0.9,3.4 0.1,1 0.2,1.9 0.3,2.9 v 0.2 c 0.2,2.2 1.7,3.9 3.6,4.4 0,0.1 0,0.2 0,0.3 -1.9,0.5 -3.5,2.1 -4,4.3 -0.2,1 -0.5,2 -0.8,3 -0.4,1.5 -0.2,2.8 0.6,3.7 0.6,0.8 1.6,1.3 2.8,1.3 0.7,0 1.2,-0.5 1.2,-1.2 0,-0.7 -0.5,-1.2 -1.2,-1.2 -0.4,0 -0.7,-0.1 -0.9,-0.3 -0.3,-0.3 -0.3,-1 -0.1,-1.6 0.3,-1 0.6,-2.1 0.8,-3.2 0.2,-0.9 0.7,-1.7 1.4,-2.1 0,0.1 0,0.3 -0.1,0.4 -0.1,0.7 0.3,1.3 1,1.4 0.1,0 0.1,0 0.2,0 0.6,0 1.1,-0.4 1.2,-1 0,-0.3 0.1,-0.6 0.1,-0.9 0.2,0.1 0.3,0.2 0.4,0.3 0.3,0.4 0.4,0.9 0.3,1.4 -0.2,1 -0.4,1.9 -0.7,2.9 -0.2,0.6 0.1,1.3 0.7,1.5 0.6,0.2 1.3,-0.1 1.5,-0.7 0.4,-1.2 0.6,-2.2 0.8,-3.3 0.3,-1.3 0,-2.5 -0.8,-3.4 -0.5,-0.6 -1.3,-1.1 -2.1,-1.3 0,-0.1 0,-0.3 0,-0.4 0.8,-0.2 1.6,-0.7 2.2,-1.3 0.8,-0.9 1.2,-2.1 1.1,-3.3 0,0 0,0 0,-0.1 1.1,1.8 2.1,3.5 3,4.8 0.8,1.2 1.4,2.2 1.8,2.9 1.1,1.9 3.1,3.1 5.7,3.6 0.8,0.1 1.6,0.2 2.4,0.2 4.9,0 10.9,-2.3 16.1,-6.5 6.8,-5.3 11.8,-13.6 11.7,-19.4 0,-2.6 -1.2,-3.9 -2.1,-4.6 -2.2,-1.6 -5.5,-4.9 -9.7,-9 -6.8,-6.7 -16,-15.9 -26.9,-24.1 0.1,-0.2 0.2,-0.5 0.2,-0.7 0.3,-1.3 -0.5,-3.4 -1.5,-5.3 0.2,-0.1 0.3,-0.1 0.5,-0.2 0.4,-0.3 0.9,-0.5 1.3,-0.9 3.1,-1.9 5.5,-1.6 8.4,-1.3 3,0.3 6.4,0.7 11.3,-1 8.9,-3.2 9.6,-10.8 9.6,-13.3 6.3,-3.4 6.5,-9.3 6.2,-11.7 3.3,-1.6 5.6,-3.7 6.9,-6.4 1.3,-2.8 1,-5.5 0.7,-6.8 4.6,-3 6.9,-7.8 5.7,-12.4 3.8,-2.9 5.6,-6.9 4.6,-10.8 5.7,-3.8 6.5,-9.1 5.9,-12.4 2.2,-1.7 3.9,-3.8 4.9,-6.2 1.5,-3.2 1.7,-6.7 0.5,-9.6 -0.5,-0.2 -0.9,-0.5 -1.3,-0.6 z M 394,197.7 c 0.8,0.2 1.4,0.5 1.6,1 0.5,0.9 0.5,2.4 0,4.1 -0.6,1.9 -1.9,4.3 -4,6.9 l -2.7,-5.7 c -0.2,-0.4 -0.5,-0.6 -0.9,-0.7 -0.4,0 -0.8,0.1 -1.1,0.4 0,0 -2.7,3.4 -7.6,7.2 -6.4,5 -10.2,7.4 -11.3,7.1 -1.6,-2.6 5,-10.7 11.6,-15.7 4.2,-3.1 11,-5.3 14.4,-4.6 z m -20.7,25.2 -3.2,-2.8 c 2.5,-1 5.9,-3.4 10.7,-7.1 3.2,-2.5 5.5,-4.8 6.8,-6.2 l 2.3,4.9 c 0,0 0,0 0,0.1 -3.3,3.5 -8.1,7.2 -14.5,10.3 -0.8,0.3 -1.5,0.6 -2.1,0.8 z m -11.5,-5.1 c 0.4,-4.8 4.1,-12.1 11.4,-17.9 4.4,-3.4 8.7,-5.2 10.6,-5.9 l 1.1,2.9 c -2.6,1 -5.1,2.4 -7,3.8 -4.2,3.2 -15.3,13.5 -12.2,18.8 0.1,0.2 0.2,0.4 0.3,0.6 l 4.3,3.7 c -3.4,0.6 -6.1,-0.1 -7.5,-1.5 v 0 c -0.7,-1.1 -1.1,-2.6 -1,-4.5 z m 6.3,8.5 c 2.6,0 5.5,-0.7 8.3,-2.1 13.1,-6.5 19.7,-14.9 21.5,-20.6 0,-0.2 0.1,-0.3 0.1,-0.5 3.7,7 11.2,21.6 16.9,36.3 0,0 0,0 0,0.1 -0.8,1.2 -2.3,2.8 -4.7,4.9 -5.4,4.7 -10.6,7.3 -11.7,7.1 l -0.1,-0.1 -0.1,-0.1 c -11.7,-7.7 -24.4,-19 -30.9,-25 0.2,-0.1 0.4,0 0.7,0 z m 44.8,33 c -0.1,1 -0.2,2 -0.3,3.1 v 0.1 c 0,0.8 -0.4,1.6 -1,2 0,-0.3 0,-0.7 0,-1 0,-0.7 -0.5,-1.2 -1.2,-1.2 -0.7,0 -1.2,0.5 -1.2,1.2 0,0.4 0,0.7 0,1.1 -0.7,-0.4 -1.1,-1.1 -1.1,-2 0,-0.6 0,-1.2 0.1,-1.9 0.6,-0.3 1.2,-0.6 1.8,-0.9 0.2,0.2 0.4,0.3 0.6,0.3 0.1,0 0.1,0 0.2,0 0.6,0 1.1,-0.4 1.2,-1 0,-0.2 0.1,-0.3 0.1,-0.5 0.2,-0.1 0.5,-0.3 0.7,-0.4 0.1,0.3 0.2,0.7 0.1,1.1 z m 0.4,17.5 c -0.1,-0.6 -0.3,-1.2 -0.4,-1.8 -0.1,-0.6 -0.8,-1.1 -1.4,-0.9 -0.3,0.1 -0.6,0.2 -0.7,0.5 -0.6,-1.4 -1.2,-2.8 -1.8,-4.2 0.1,-0.1 0.1,-0.2 0.2,-0.3 0.1,-0.1 0.3,-0.3 0.4,-0.4 0.1,0.5 0.1,1 0.2,1.5 0.1,0.6 0.6,1 1.2,1 0.1,0 0.1,0 0.2,0 0.7,-0.1 1.1,-0.7 1,-1.4 0,-0.3 -0.1,-0.6 -0.1,-0.9 0.6,0.5 1.1,1.2 1.3,2.1 0.1,0.3 0.1,0.7 0.2,1 0.1,0.7 0.2,1.4 0.4,2.1 0.1,0.6 0,1.1 -0.3,1.5 -0.2,0.1 -0.3,0.2 -0.4,0.2 z m 1.4,5.9 c 0,-0.1 0,-0.1 0,-0.2 0,0 0,0 0,-0.1 0.7,0.5 1.3,1.2 1.5,2.1 0.2,0.5 0.3,1.1 0.4,1.7 0,0.1 0,0.2 0.1,0.2 -0.7,-1.1 -1.3,-2.4 -2,-3.7 z m -11.9,-30.3 c 1.2,-0.6 2.6,-1.5 4.2,-2.6 -0.1,2.1 0.9,4.1 2.5,5.3 -1.7,0.7 -3,2.1 -3.4,3.9 -0.9,0.3 -1.7,0.5 -2.3,0.6 -0.4,-0.2 -1.5,-1.3 -2.4,-2.5 1.7,-2.1 1.6,-3.8 1.4,-4.7 z m 1,7.1 v 0 z m 2,2.1 c 0,0.2 0,0.4 0,0.6 -0.1,-0.2 -0.1,-0.4 -0.2,-0.6 0,0 0.1,0 0.2,0 z m 3.5,5.5 c 0,0.1 0,0.1 0,0.2 -0.5,0.1 -1,0.4 -1.4,0.7 -0.3,-0.7 -0.5,-1.4 -0.8,-2.1 0.6,0.5 1.3,1 2.2,1.2 z m 7.5,-16 c -0.3,1 -0.9,1.8 -1.8,2.3 -0.5,0.3 -1.1,0.4 -1.6,0.5 0.3,-0.7 0.5,-1.4 0.9,-2.1 0.3,-0.6 0,-1.3 -0.6,-1.6 -0.6,-0.3 -1.3,0 -1.6,0.6 -0.4,0.8 -0.7,1.6 -1,2.5 -1.3,-0.9 -2,-2.6 -1.6,-4.2 0.3,-1 0.9,-1.8 1.8,-2.3 0.9,-0.5 1.9,-0.6 2.9,-0.3 1,0.3 1.8,0.9 2.3,1.8 0.4,0.8 0.6,1.9 0.3,2.8 z M 305.4,302 c -2.1,0.5 -4.1,0.4 -5.9,-0.3 5.5,-4 13.6,-14.8 25.8,-34.4 l 1,-1.7 c 6.8,-11.1 14.6,-23.7 24.2,-25.9 4,-0.9 7.9,-0.1 12.2,2.6 21.1,13.2 27.2,16.5 37.7,11.6 -0.2,0.5 -0.5,1.3 -1.4,2.2 -3.8,4.2 -11.4,6.3 -38.6,-10.6 -2.4,-1.5 -4.8,-1.9 -7.3,-1.3 -8.5,2 -16.6,15.5 -29,35.8 -2.7,4.4 -5.5,9 -8.5,13.9 -2.5,4.3 -6.2,7.2 -10.2,8.1 z m 9.4,-3 c 1.1,-1.1 2.1,-2.4 3,-3.9 3,-4.9 5.8,-9.5 8.5,-13.9 11.6,-19.1 20,-32.9 27.5,-34.7 1.9,-0.4 3.7,-0.1 5.5,1 0.2,0.1 0.4,0.2 0.6,0.3 -8.7,3 -19.4,22.1 -27.4,36.2 -1.9,3.4 -3.6,6.4 -4.9,8.4 -0.7,1.1 -1.4,2 -2.1,2.8 -0.2,0.1 -0.3,0.2 -0.4,0.4 v 0.1 c -4.1,4.3 -8.2,3.9 -10.3,3.3 z m 13.2,-3.1 c 0.5,-0.7 1,-1.4 1.5,-2.2 1.3,-2.1 3,-5.1 4.9,-8.5 7,-12.4 18.8,-33.3 26.6,-35.3 1.1,-0.3 2,-0.2 2.8,0.3 v 0 c 1,0.6 1.9,1.1 2.9,1.7 -8,3.6 -18.7,22.7 -24.6,33.2 -1.2,2.1 -2.1,3.8 -2.7,4.8 -3,5 -7.6,7.3 -11.4,6 z m 11.6,-2.1 c 0.7,-0.8 1.3,-1.6 1.8,-2.5 0.6,-1 1.6,-2.7 2.8,-4.9 5.1,-9.2 17.1,-30.7 24.3,-32.5 0.8,-0.2 1.4,-0.1 2,0.2 0,0 0.1,0 0.1,0.1 1.3,0.7 2.5,1.3 3.7,1.9 -6.1,3.1 -13,14.9 -19.6,27 -1.2,2.2 -2.2,4.1 -3,5.3 -0.4,0.7 -0.9,1.3 -1.4,1.8 -0.1,0.1 -0.2,0.2 -0.3,0.3 v 0.1 c -3.3,3.5 -7.3,4.3 -10.4,3.2 z m 17.9,-2.8 c -1.9,0.4 -3.5,0.1 -4.6,-0.3 0.3,-0.4 0.5,-0.7 0.8,-1.1 0.7,-1.2 1.8,-3 3,-5.4 4.9,-8.9 15,-27.4 20.9,-26.5 0.1,0 0.1,0 0.1,0 1.9,0.8 3.7,1.5 5.4,2.1 -5.6,2.8 -10,10.6 -14.3,18.2 -1.3,2.3 -2.7,4.7 -4,6.8 -2.1,3.4 -4.5,5.5 -7.3,6.2 z m 9.5,-5.1 c 1.3,-2.1 2.7,-4.5 3.9,-6.7 5.2,-9.2 10.6,-18.6 17.2,-18.1 0,0 0,0 0.1,0 0.6,0.1 1.1,0.2 1.7,0.2 -3.1,2.9 -5.7,7.7 -8.7,13.5 -0.9,1.7 -1.8,3.4 -2.8,5.2 -0.4,0.8 -0.9,1.5 -1.4,2.1 0,0 -0.1,0.1 -0.1,0.2 -3.5,4.5 -7.8,4.2 -9.9,3.6 z m 24.4,-9.4 c -3.7,5.9 -8.8,6.1 -11.4,5.8 0.2,-0.3 0.4,-0.7 0.6,-1 1,-1.8 1.9,-3.6 2.8,-5.2 4,-7.5 7.1,-13.5 11.2,-14.7 0.1,0 0.1,-0.1 0.2,-0.1 0.3,-0.1 0.5,-0.1 0.8,-0.2 -0.8,1.9 -1,3.8 -1.2,5.7 -0.3,2.8 -0.6,5.8 -3,9.7 z m 21,10.6 c -0.2,-0.8 -0.4,-1.6 -0.6,-2.5 l -0.2,-0.7 c -0.1,-0.6 -0.1,-1.1 0.2,-1.5 0,0 0,0 0.1,-0.1 0.8,1.6 1.6,3.2 2.4,4.7 -0.5,0.3 -0.7,0.8 -0.6,1.3 0.1,0.2 0.1,0.5 0.2,0.7 -0.8,-0.4 -1.3,-1.1 -1.5,-1.9 z m 6,14 c -0.1,0.1 -0.2,0.2 -0.4,0.3 0,-0.5 0,-1 0,-1.5 0,-0.7 -0.6,-1.2 -1.2,-1.2 -0.7,0 -1.2,0.6 -1.2,1.2 0,0.4 0,0.9 0,1.4 -0.7,-0.4 -1.2,-1.2 -1.2,-2.1 V 299 c -0.1,-0.9 -0.2,-1.8 -0.3,-2.9 -0.1,-0.6 0,-1.1 0.4,-1.5 0.1,-0.1 0.2,-0.2 0.4,-0.3 0.1,0.5 0.2,1 0.3,1.5 0.1,0.6 0.6,1 1.2,1 0.1,0 0.1,0 0.2,0 0.7,-0.1 1.1,-0.7 1,-1.4 0,-0.3 -0.1,-0.6 -0.2,-0.9 0.7,0.4 1.2,1.1 1.3,1.9 v 0.2 c 0.1,0.9 0.2,1.8 0.3,2.9 0,0.7 -0.2,1.2 -0.6,1.6 z m -1.5,-9.3 c 0,0 -0.1,0 0,0 -0.1,0 -0.1,0 0,0 z m 31.6,-18.7 c 4.2,4.2 7.6,7.6 10,9.3 0.7,0.5 1,1.4 1.1,2.6 0.1,4.4 -3.9,12.1 -10.8,17.4 -5.5,4.3 -12,6.6 -16.6,5.8 -1.3,-0.2 -3.1,-0.9 -4,-2.4 -0.4,-0.7 -1,-1.7 -1.8,-2.9 -1.9,-3 -4.6,-7.3 -7.6,-12.6 0.6,-0.9 0.8,-2 0.5,-3.2 -0.1,-0.5 -0.2,-0.9 -0.3,-1.3 -0.1,-0.6 -0.3,-1.2 -0.5,-1.7 -0.5,-2.2 -2.4,-3.9 -4.5,-4.3 0,-0.1 -0.1,-0.3 -0.1,-0.4 0.6,-0.2 1.1,-0.6 1.5,-1.1 0.8,-0.9 1,-2.2 0.8,-3.6 -0.2,-0.7 -0.3,-1.3 -0.4,-1.9 -0.1,-0.4 -0.1,-0.7 -0.2,-1 -0.3,-2.2 -1.9,-3.9 -3.9,-4.4 0,0 0,-0.1 0,-0.2 1.9,-0.5 3.3,-2.3 3.3,-4.5 0.1,-1.1 0.2,-2.1 0.3,-3 0.1,-1 -0.1,-2 -0.5,-2.8 3,-2.2 5.8,-4.8 7.4,-7.3 10.7,7.9 19.7,16.9 26.3,23.5 z m -27.3,-27 c -0.2,1 -0.9,2.2 -1.9,3.4 -0.1,-0.8 -0.3,-1.6 -0.8,-2.4 -0.8,-1.4 -2.1,-2.5 -3.7,-2.9 -0.3,-0.1 -0.5,-0.1 -0.8,-0.2 0.8,-0.8 1.6,-1.7 2.2,-2.5 0.5,0.3 1.3,0.7 2.4,0.7 0.3,0 0.7,0 1,-0.1 1.2,1.8 1.6,3.6 1.6,4 z m 21.3,-10.5 c -4.3,1.6 -7.3,1.2 -10.2,0.9 -1.8,-0.2 -3.6,-0.4 -5.6,-0.1 0.1,-0.2 0.2,-0.4 0.3,-0.7 0,0 0,0 0,-0.1 2.1,-3.9 8.8,-5.8 17.3,-8.3 1.6,-0.5 3.3,-0.9 5,-1.5 0.4,-0.1 0.8,-0.2 1.2,-0.4 -0.2,2.8 -1.4,7.8 -8,10.2 z m 6.2,-11.9 c -1.7,0.5 -3.4,1 -4.9,1.5 -6.5,1.9 -12,3.5 -15.5,6 0.1,-0.5 0.1,-1 0.1,-1.6 0,0 0,0 0,-0.1 0.9,-6.7 11.3,-10.1 21.4,-13.3 2.4,-0.8 4.8,-1.6 7.1,-2.4 0.1,2.5 -0.7,7.7 -8.2,9.9 z m 15.1,-18.2 c -1,2.3 -3.2,4.1 -6.3,5.5 v 0 c 0,0 0,0 -0.1,0 -0.4,0.2 -0.8,0.3 -1.2,0.5 -2.3,0.8 -4.8,1.6 -7.2,2.4 -8.4,2.7 -16.9,5.5 -20.9,10.4 -0.2,-1.9 -0.6,-4 -1,-6.3 0.7,-5.9 20.4,-11.8 30,-14.7 2.6,-0.8 4.7,-1.4 6.1,-1.9 0.5,-0.2 0.9,-0.4 1.4,-0.6 0,1.2 0.1,2.9 -0.8,4.7 z m -1.5,-6.3 c -1.3,0.5 -3.5,1.1 -6,1.9 -13,3.9 -25.7,8.1 -30.1,13.4 -0.3,-1.3 -0.7,-2.7 -1.1,-4.2 -0.1,-0.5 0,-1.1 0.3,-1.7 3.3,-6.7 27,-14 37.1,-17.1 2.2,-0.7 3.9,-1.2 4.9,-1.6 1,-0.4 1.9,-0.8 2.8,-1.3 0.6,3.9 -1.8,8.4 -7.9,10.6 z m 8.3,-13.6 v 0 c -0.2,0.1 -0.3,0.2 -0.5,0.3 -1,0.7 -2.2,1.3 -3.5,1.8 -1,0.3 -2.7,0.9 -4.8,1.5 -17.1,5.3 -33.3,11 -37.9,17.2 -0.3,-1 -0.7,-2 -1,-3.1 0,-0.1 0,-0.1 0,-0.2 -0.3,-0.9 -0.2,-1.8 0.2,-2.8 3.6,-7.2 26.5,-14.4 40.1,-18.6 3.6,-1.1 6.8,-2.1 9,-2.9 0.9,-0.3 1.7,-0.7 2.5,-1 0.5,2.8 -1.1,5.6 -4.1,7.8 z m 0.9,-9.1 c -2.2,0.8 -5.3,1.8 -9,2.9 -14.6,4.5 -36.5,11.4 -41.3,19.3 -0.1,-0.2 -0.1,-0.3 -0.2,-0.4 -0.7,-2 -0.7,-3.8 0.2,-5.6 3.3,-7 18.6,-12.2 39.7,-19.6 4.9,-1.7 10,-3.5 15.5,-5.4 1.5,-0.6 2.9,-1.2 4.2,-2 0.2,2.6 -0.7,7.8 -9.1,10.8 z m 14.1,-19.6 c -1,2.1 -2.5,4 -4.5,5.5 -0.2,0.1 -0.4,0.2 -0.5,0.4 -1.5,1 -3.1,1.9 -5,2.6 -5.4,1.9 -10.5,3.7 -15.4,5.4 -22.4,7.8 -37.3,12.9 -41,20.8 -1.1,2.3 -1.2,4.8 -0.3,7.4 7.5,20.8 8.1,30.6 6.1,35.5 v 0 0 c -0.6,1.7 -1.6,2.8 -2.6,3.6 -0.4,0.2 -0.8,0.5 -1.2,0.8 -1.2,0.6 -2,0.8 -2.6,0.8 7.1,-9.3 5.1,-15.9 -3.3,-39.4 -1.7,-4.7 -1.7,-8.8 0,-12.5 4.2,-8.9 18.1,-13.8 30.4,-18.2 l 1.9,-0.7 c 21.6,-7.8 33.9,-13.4 39,-17.9 0.2,2 -0.1,4 -1,5.9 z"
   id="path1946"
   inkscape:connector-curvature="0" />
		<path
   d="m 302,234.5 c -0.3,-1.5 -1.1,-2.7 -2.3,-3.3 l -0.3,-0.2 c -16.6,-10.2 -31.6,-20.4 -44.6,-30.4 -0.1,-1.2 -1,-2.5 -1.6,-3.4 3.2,-1.8 5.7,-1.5 8.7,-1.1 3.3,0.4 6.9,0.8 12.2,-1 9.6,-3.4 10.3,-11.5 10.3,-14.2 6.9,-3.7 7,-10.1 6.7,-12.5 3.6,-1.7 6.1,-3.9 7.4,-6.7 1.4,-3 1.1,-5.8 0.8,-7.2 2.4,-1.5 4.3,-3.5 5.4,-5.9 1.2,-2.4 1.4,-5.1 0.8,-7.5 4.1,-3.1 6,-7.3 5,-11.6 6.3,-4.1 7.1,-9.9 6.4,-13.4 2.3,-1.8 4,-4 5.2,-6.4 1.6,-3.5 1.9,-7.3 0.7,-10.4 -0.2,-0.4 -0.5,-0.7 -0.9,-0.8 -0.4,-0.1 -0.9,0.1 -1.1,0.4 -3.7,4.7 -17.6,11.2 -42.5,20 l -2,0.7 c -13.7,4.8 -29.2,10.3 -34.2,20.8 -2.1,4.5 -2.2,9.6 -0.2,15.2 7.9,22.5 10.2,29.8 5.4,37.7 -0.1,-0.1 -0.2,-0.3 -0.4,-0.4 -0.1,-0.2 -0.2,-0.4 -0.4,-0.6 -0.1,-0.1 -0.1,-0.1 -0.2,-0.1 -2.8,-3.5 -5.6,-7.3 -8.2,-11.1 1.5,-1.9 3.1,-4.1 4.2,-8.2 2.8,-9.7 -3.4,-15 -5.6,-16.6 1,-7.9 -4.3,-11.7 -6.4,-12.8 0.7,-3.9 0.3,-7.2 -1.3,-9.8 -1.7,-2.9 -4.2,-4.2 -5.5,-4.8 0.1,-2.9 -0.4,-5.5 -1.7,-7.8 -1.3,-2.3 -3.3,-4 -5.7,-4.9 -0.1,-5.1 -2.5,-9.3 -6.6,-10.9 0.2,-7.5 -4.2,-11.5 -7.4,-12.9 -0.2,-2.9 -0.9,-5.6 -2.3,-8 -1.9,-3.3 -4.8,-5.6 -8,-6.4 -0.4,-0.1 -0.9,0 -1.2,0.3 -0.3,0.3 -0.4,0.8 -0.3,1.2 1.7,5.7 -0.8,20.4 -8,46.3 -4.8,17.1 -11.3,40.5 2.9,47.6 0.1,0 0.2,0.1 0.3,0.1 l 3.5,1.9 c -1.8,3 -2.9,6 -2.8,8 0.1,1.2 0.6,1.9 1,2.3 v 0 c 0.1,0 0.1,0.1 0.2,0.1 0.4,0.3 0.8,0.5 1.3,0.7 4.5,2.2 22.1,11.3 37.2,23.6 -0.3,0.8 -0.2,2 0.7,3.5 1.4,2.3 4.7,4.8 7.2,5.9 0,0.8 0,1.5 0,2.2 0,2.2 1.5,4 3.6,4.5 0,0.1 0,0.2 0,0.3 -0.7,0.3 -1.3,0.7 -1.8,1.2 -0.8,0.9 -1.1,2.2 -0.8,3.4 0.2,1.1 0.4,2.1 0.6,3.1 0.4,2.2 2.3,4 4.4,4.4 0,0.1 0,0.2 0.1,0.3 -0.6,0.2 -1.1,0.6 -1.5,1.1 -0.8,0.9 -1,2.2 -0.8,3.5 0.2,1.1 0.4,2.1 0.6,3.1 0.4,2.2 2.1,3.9 4.1,4.3 0,0.1 0,0.1 0,0.2 -2,0.5 -3.4,2.3 -3.4,4.5 0,1.1 0,2 -0.1,3 -0.1,1.2 0.2,2.4 1,3.3 0.2,0.3 0.6,0.4 0.9,0.4 0.3,0 0.5,-0.1 0.8,-0.3 0.5,-0.4 0.6,-1.2 0.2,-1.7 -0.3,-0.4 -0.5,-1 -0.4,-1.5 0.1,-1.1 0.1,-2.1 0.1,-3.2 0,-0.9 0.5,-1.7 1.2,-2.1 0,0.4 0,0.8 0,1.3 0,0.7 0.5,1.2 1.2,1.2 0.7,0 1.2,-0.5 1.2,-1.2 0,-0.3 0,-0.7 0,-1 0.6,0.4 0.9,1.1 0.9,1.8 0,0.5 0,0.9 0,1.4 0,0.5 -0.1,1.1 -0.1,1.7 -0.3,0.6 0,1.3 0.6,1.6 0.6,0.3 1.3,0.1 1.6,-0.5 0.2,-0.4 0.2,-0.7 0.2,-1 0,-0.5 0,-1.1 0.1,-1.6 0,-0.5 0,-1 0,-1.5 0,-2.1 -1.5,-3.9 -3.5,-4.5 0,-0.1 0,-0.2 0,-0.3 0.7,-0.2 1.3,-0.6 1.8,-1.2 0.8,-0.9 1.1,-2.2 0.9,-3.5 -0.2,-1.1 -0.4,-2.1 -0.6,-3.1 -0.4,-2.2 -2.4,-4 -4.5,-4.4 0,-0.1 0,-0.2 -0.1,-0.3 0.6,-0.2 1.2,-0.6 1.6,-1.1 0.8,-0.9 1,-2.2 0.8,-3.5 -0.2,-1.1 -0.4,-2.1 -0.6,-3.1 -0.3,-2.2 -2.1,-4 -4.3,-4.4 0,0 0,0 0,-0.1 0.7,-0.2 1.4,-0.6 1.9,-1.1 13.4,15.8 23.4,34.6 25.4,38.6 1.1,1.9 3,3 5,3 0.2,0 0.4,0 0.6,0 7.3,-0.6 14.7,-4.5 21.2,-11.2 8.7,-8.9 8.8,-17 8.1,-21 z m -61.5,-14.2 c -0.4,-0.5 -0.8,-0.9 -1.3,-1.4 0.4,-0.2 0.9,-0.5 1.4,-0.7 0,0.1 0,0.2 0,0.3 0,0.6 0,1.2 -0.1,1.8 z m -11,-10.2 c -12.8,-10.9 -28.2,-19.6 -35.9,-23.7 4.5,-1.2 10.4,-4.6 16.7,-9.9 7.6,-6.4 10.8,-12.6 11.6,-17.4 0.3,0.5 0.5,1 0.8,1.5 0,0.3 0.2,0.6 0.4,0.8 4.9,8.8 12.9,22.1 21.5,32.8 0,1.1 -2.5,5.3 -7.9,10.4 -3.1,2.9 -5.6,4.6 -7.2,5.5 z m -11.7,-46.6 c -1.6,3.3 -4.5,7.1 -9.2,11.1 -2,1.7 -4,3.2 -5.8,4.4 l -3.5,-2.2 c 1.6,-1.2 4.4,-3.3 7.5,-6.4 0.3,-0.3 6.3,-6.1 8.3,-10.8 z m 22.7,41.8 c 0.2,0 0.4,0 0.6,0 0.9,0 1.8,0.3 2.5,0.8 0.9,0.7 1.5,1.6 1.6,2.8 0.3,2.3 -1.3,4.4 -3.5,4.8 -0.4,0.1 -0.8,0 -1.2,0 0.3,-0.9 0.6,-1.8 0.9,-2.6 0.3,-0.6 0,-1.3 -0.6,-1.6 -0.6,-0.3 -1.3,0 -1.6,0.6 -0.4,0.8 -0.7,1.7 -1,2.6 -0.8,-0.7 -1.3,-1.5 -1.4,-2.5 -0.2,-2.4 1.4,-4.5 3.7,-4.9 z m -3.1,11.8 c -0.1,0 -0.2,0 -0.3,-0.1 0.1,-0.1 0.2,-0.2 0.3,-0.2 0,0.1 0,0.2 0,0.3 z m 10.3,-8.2 c 0,-0.1 0,-0.2 0,-0.3 -0.3,-1.7 -1.2,-3.3 -2.6,-4.3 -1,-0.8 -2.2,-1.2 -3.5,-1.3 1.3,-1.4 2.4,-2.8 3.3,-4 0.4,0.3 1.3,0.8 2.6,0.8 1,0 2.2,-0.3 3.7,-1.1 0.7,0.8 1.3,1.9 1.2,2.3 -0.2,1.8 -2.1,4.9 -4.7,7.9 z m 25.6,-16 c -4.7,1.7 -7.9,1.3 -11.1,0.9 -2,-0.2 -4,-0.5 -6.1,-0.1 0.2,-0.4 0.4,-0.7 0.5,-1.1 0,0 0,0 0.1,-0.1 2.1,-3.9 8.7,-5.7 17.2,-8.1 2.2,-0.6 4.4,-1.2 6.8,-1.9 0.5,-0.1 0.9,-0.3 1.4,-0.4 -0.3,2.7 -1.6,8.3 -8.8,10.8 z m 9.4,-13.7 c 0,0 -0.1,0 0,0 -0.9,0.4 -1.7,0.7 -2.7,1 -2.3,0.7 -4.6,1.3 -6.8,1.9 -6.5,1.8 -11.9,3.3 -15.5,5.8 0.1,-0.5 0.1,-1 0.1,-1.5 0,0 0,0 0,-0.1 1,-7.3 12.5,-11 23.6,-14.5 2.5,-0.8 5,-1.6 7.4,-2.4 0.2,2.3 -0.3,7 -6.1,9.8 z m 13.6,-18.5 c -1.3,2.8 -4.1,4.9 -8.2,6.4 -2.3,0.8 -4.9,1.6 -7.4,2.4 -9.3,2.9 -18.8,6 -23,11.4 -0.2,-2.1 -0.6,-4.4 -1.1,-7 0.8,-6.4 22.3,-12.7 32.6,-15.7 2.7,-0.8 4.9,-1.4 6.3,-1.9 0.5,-0.2 1,-0.4 1.5,-0.6 0.3,1.2 0.3,3.1 -0.7,5 z m 6.3,-13.1 c -1.4,2.9 -4.1,5.1 -7.7,6.4 -1.4,0.5 -3.6,1.1 -6.2,1.9 -14.2,4.2 -28.1,8.7 -32.8,14.4 -0.3,-1.4 -0.7,-2.9 -1.2,-4.4 -0.2,-0.7 -0.1,-1.3 0.3,-2.1 3.6,-7.1 28.9,-14.9 39.7,-18.2 2.5,-0.8 4.5,-1.4 5.6,-1.8 1.1,-0.4 2.2,-0.9 3.1,-1.4 0.2,1.7 0,3.5 -0.8,5.2 z m 1.2,-8.2 c 0,0 -0.1,0 0,0 -0.2,0.1 -0.4,0.2 -0.5,0.3 -1.1,0.7 -2.4,1.4 -3.8,1.9 -1.1,0.4 -3,1 -5.5,1.7 -12.4,3.8 -35.1,10.7 -40.5,18.4 -0.4,-1.2 -0.7,-2.4 -1.2,-3.6 v 0 c -0.4,-1 -0.3,-2 0.3,-3.1 3.9,-7.8 28.6,-15.5 43.3,-20 3.9,-1.2 7.3,-2.3 9.7,-3.1 1,-0.4 1.9,-0.7 2.8,-1.2 0.4,3.2 -1.3,6.4 -4.6,8.7 z M 314.3,121 c -1.1,3.8 -4.3,6.7 -9.5,8.5 -2.4,0.8 -5.7,1.9 -9.6,3.1 -15.8,4.9 -39.4,12.2 -44.5,20.8 -0.1,-0.3 -0.2,-0.6 -0.3,-0.9 -0.8,-2.2 -0.7,-4.2 0.2,-6.1 3.7,-7.6 20.2,-13.2 43.2,-21 5.2,-1.8 10.5,-3.6 16.2,-5.6 1.7,-0.6 3.3,-1.3 4.7,-2.2 0,0.9 -0.1,2.1 -0.4,3.4 z m -70.2,33.9 c -1.8,-5.1 -1.8,-9.5 0.1,-13.4 4.6,-9.6 19.6,-14.9 32.9,-19.6 l 2,-0.7 c 23.3,-8.3 36.5,-14.3 42,-19.1 0.3,2.1 -0.1,4.4 -1.1,6.6 -1.9,4 -5.7,7.1 -10.8,8.9 -5.6,2 -11,3.8 -16.1,5.6 -23.5,8 -40.5,13.8 -44.6,22.3 -1.2,2.5 -1.3,5.1 -0.3,7.9 10.3,29 8.2,38.1 3.8,41.9 -0.6,0.3 -1.1,0.7 -1.7,1.1 -0.1,0 -0.1,0.1 -0.1,0.2 -1.2,0.6 -2.1,0.8 -2.7,0.8 7.6,-10 5.5,-17.2 -3.4,-42.5 z m -4.2,17.4 c -0.9,3.2 -2,5.2 -3.3,6.7 -1.7,-2.6 -3.3,-5.2 -4.9,-7.6 0.4,-1.2 0.9,-2.5 1.3,-3.8 0.9,-2.4 1.7,-4.8 2.6,-7.5 0.1,-0.4 0.3,-0.8 0.4,-1.2 2.2,1.9 5.9,6.2 3.9,13.4 z m -5.8,-15.7 c 0,0.1 -0.1,0.2 -0.1,0.4 -0.1,0.8 -0.4,1.6 -0.7,2.5 -0.8,2.6 -1.7,5 -2.6,7.4 -0.2,0.7 -0.5,1.3 -0.7,1.9 -1.9,-3.1 -3.5,-6 -5,-8.6 0.5,-1.6 1,-3.2 1.5,-4.9 1,-3.1 2,-6.3 2.9,-9.4 2.1,1.3 5.7,4.4 4.7,10.7 z m -7.3,-21.7 c 1.5,2.6 1.7,6.2 0.5,10.4 -0.8,3 -1.8,6.2 -2.8,9.3 -0.3,0.9 -0.6,1.8 -0.9,2.7 -0.8,-1.5 -1.5,-2.7 -2,-3.7 -0.3,-1.1 -0.8,-2 -1.4,-2.8 -0.7,-0.8 -1.6,-1.5 -2.6,-1.8 1.1,-3.5 2.2,-7 3.2,-9.8 0.9,-2.6 1.6,-4.7 2,-6.1 0.2,-0.6 0.3,-1.1 0.4,-1.6 0.9,0.4 2.5,1.5 3.6,3.4 z m -7.2,-12.6 c 1.6,2.8 1.9,6.4 0.8,10.1 -0.4,1.4 -1.1,3.5 -2,6 -1,2.9 -2.1,6.4 -3.3,10.1 -2.5,-0.1 -5.5,0.8 -8.7,2.5 2.1,-8.6 5,-17.6 7,-23.7 0.8,-2.4 1.4,-4.2 1.7,-5.4 0.3,-1.1 0.5,-2.2 0.6,-3.2 1.7,0.8 3,2 3.9,3.6 z m -6,-5.6 v 0 c -0.1,0.2 -0.1,0.4 0,0.6 -0.1,1.3 -0.3,2.6 -0.7,4 -0.3,1.1 -0.9,2.9 -1.7,5.3 -2.1,6.3 -5.5,16.8 -7.6,26.1 -2.6,1.6 -5.2,3.6 -7.9,6 0.8,-10.8 6.1,-27.1 9.7,-38.2 1.3,-3.9 2.4,-7.3 3.1,-9.7 0.3,-1.1 0.5,-2.1 0.7,-3 2.9,1.5 4.5,4.8 4.4,8.9 z m -12.5,-16.3 c 0.5,-1.8 0.8,-3.6 0.9,-5.3 0.8,0.5 1.8,1.2 2.7,2.3 2.5,3.1 3,7.4 1.5,12.7 -0.7,2.4 -1.8,5.8 -3,9.6 -4.2,12.8 -9.8,30.2 -9.9,41.3 -1.5,1.5 -2.7,2.9 -3.8,4.2 -5.3,-6.5 -0.1,-24.1 6.9,-48.1 1.4,-5.2 3,-10.8 4.7,-16.7 z m -16.6,26.1 c 6.7,-23.9 9.3,-38.2 8.4,-45.4 1.8,0.9 3.5,2.5 4.7,4.6 2.2,3.8 2.7,8.8 1.2,14.1 -1.6,5.9 -3.3,11.4 -4.8,16.7 -7.6,26 -12.7,43.5 -6.1,50.7 -1.2,1.5 -2.1,2.8 -2.6,3.6 -10.4,-6.2 -6.1,-25.2 -0.8,-44.3 z m 2.9,45.5 c 1.2,-1.8 3.9,-5.7 8.1,-9.8 7.3,-7.1 15,-11.5 19.8,-11.3 1.2,0.1 2.1,0.5 2.8,1.2 0.2,0.3 0.6,1.1 1.2,2.3 0.4,1.6 0.4,3.8 -0.4,6.5 l -3.2,-4.7 c -0.1,-0.3 -0.3,-0.6 -0.5,-0.8 -0.3,-0.4 -1,-0.9 -2,-0.9 h -0.1 c -5.4,0 -17.4,12.2 -17.9,12.7 -1.7,1.8 -3.5,4 -5,6.3 z m 9.5,-3.1 c 5.8,-5.9 13.4,-12 16.2,-12 v 0 c 0,0 0.1,0 0.2,0 l 0.2,0.4 c 0.1,1.3 -2.6,6.1 -8.2,11.6 -4.8,4.7 -8.7,7.1 -8.7,7.1 -0.4,0.2 -0.6,0.6 -0.6,1 0,0.4 0.2,0.8 0.6,1 l 4.1,2.6 c -5.4,3.3 -9.3,4.3 -11.2,3.8 -0.4,-0.2 -0.6,-0.3 -0.8,-0.4 -0.1,-0.2 -0.2,-0.4 -0.2,-0.6 -0.2,-3 3.9,-10 8.4,-14.5 z m 32,44 c 1.6,-0.5 3.6,-1.7 5.7,-3.3 0,0.3 0,0.6 0.1,0.9 0.2,1.6 1,3 2.2,4 -1.2,0.6 -2.1,1.5 -2.6,2.7 -1.8,-0.9 -4.1,-2.5 -5.4,-4.3 z m 7.1,8.8 c 0,-0.6 0,-1.2 0,-1.7 0.3,0 0.5,-0.1 0.8,-0.1 0.5,0.5 1,1.1 1.5,1.6 0,0 0,0 -0.1,0 -0.7,0 -1.2,0.5 -1.2,1.2 0,0.3 0,0.7 0,1 -0.6,-0.5 -1,-1.2 -1,-2 z m 8.4,21.9 c 0.2,1 0.4,2 0.6,3 0.1,0.6 0,1.2 -0.4,1.6 -0.1,0.1 -0.2,0.2 -0.3,0.3 -0.1,-0.4 -0.1,-0.9 -0.2,-1.4 -0.1,-0.6 -0.8,-1.1 -1.4,-0.9 -0.6,0.1 -1.1,0.8 -0.9,1.4 0,0.2 0.1,0.5 0.1,0.7 -0.7,-0.5 -1.2,-1.2 -1.4,-2.1 -0.2,-1 -0.4,-2 -0.6,-3.1 -0.1,-0.6 0,-1.1 0.3,-1.5 0.1,-0.1 0.1,-0.2 0.2,-0.2 0.1,0.3 0.2,0.7 0.2,1 0.1,0.6 0.6,0.9 1.2,0.9 0.1,0 0.2,0 0.3,0 0.6,-0.2 1,-0.8 0.9,-1.4 0,-0.1 0,-0.2 -0.1,-0.3 0.7,0.3 1.3,1.1 1.5,2 z m -2.9,-12.5 v 0.1 c 0.2,1 0.4,1.9 0.6,3 0.1,0.6 0,1.1 -0.3,1.5 -0.1,0.1 -0.2,0.2 -0.3,0.3 -0.2,-0.6 -0.3,-1.3 -0.5,-1.9 -0.2,-0.6 -0.8,-1 -1.4,-0.9 -0.6,0.2 -1,0.8 -0.9,1.4 0.1,0.4 0.2,0.7 0.3,1.1 -0.7,-0.5 -1.3,-1.2 -1.4,-2.1 -0.2,-1 -0.4,-1.9 -0.6,-3 -0.1,-0.5 0,-1 0.3,-1.4 0.1,-0.1 0.2,-0.2 0.3,-0.3 0.1,0.5 0.2,1 0.3,1.5 0.1,0.6 0.6,1 1.2,1 0.1,0 0.2,0 0.2,0 0.6,-0.1 1.1,-0.8 0.9,-1.4 -0.1,-0.3 -0.1,-0.7 -0.2,-1 0.8,0.4 1.4,1.2 1.5,2.1 z m -2,-7.4 c 0,-0.4 0,-0.7 0,-1.1 0.2,0.2 0.4,0.4 0.5,0.6 -0.2,0.3 -0.3,0.4 -0.5,0.5 z m 52.6,30.2 c -6.2,6.3 -13,9.9 -19.8,10.5 -1.3,0.1 -2.5,-0.6 -3.2,-1.8 -2.1,-4.1 -12.4,-23.6 -26.3,-39.7 0.1,-0.4 0.2,-0.7 0.2,-1.1 0,-1.1 0,-2 0.1,-3 0.1,-0.7 0,-1.4 -0.2,-2 4.9,-3.6 9.8,-9.6 11.4,-13.6 12.9,9.8 27.6,19.8 43.9,29.8 l 0.4,0.2 c 0.6,0.3 1,0.9 1.1,1.7 0.6,3.6 0.4,10.8 -7.6,19 z"
   id="path1948"
   inkscape:connector-curvature="0" />
		<path
   d="m 239.1,271 c 0.1,-0.5 0.2,-1.1 0.2,-1.6 0.1,-0.7 0.4,-1.2 0.9,-1.4 0.6,-0.3 0.9,-1 0.6,-1.6 -0.3,-0.6 -1,-0.9 -1.6,-0.6 -1.3,0.6 -2.2,1.8 -2.3,3.4 0,0.5 -0.1,1 -0.2,1.5 -0.1,0.5 -0.2,1.1 -0.2,1.5 -0.4,2.5 1.1,5 3.5,5.8 0.1,0 0.3,0.1 0.4,0.1 0.5,0 1,-0.3 1.1,-0.8 0.2,-0.6 -0.1,-1.3 -0.8,-1.5 -1.2,-0.4 -2.1,-1.9 -1.9,-3.2 0.2,-0.5 0.2,-1.1 0.3,-1.6 z"
   id="path1950"
   inkscape:connector-curvature="0" />
		<path
   d="m 243.7,280.3 c -0.2,0.8 -0.8,1.3 -1.5,1.3 -0.7,0 -1.2,0.5 -1.2,1.2 0,0.7 0.5,1.2 1.2,1.2 1.8,0 3.3,-1.2 3.8,-3.1 0.3,-1 0.6,-2 0.8,-3 0.6,-2.4 -0.7,-5.2 -3,-6.3 -0.6,-0.3 -1.3,0 -1.6,0.6 -0.3,0.6 0,1.3 0.6,1.6 1.2,0.6 2,2.2 1.6,3.6 -0.1,0.9 -0.4,1.9 -0.7,2.9 z"
   id="path1952"
   inkscape:connector-curvature="0" />
		<path
   d="m 461.9,467.8 c 0,0 0,-0.1 0,0 0,-0.2 -0.1,-0.3 -0.1,-0.5 v 0 0 0 L 443,434.6 c -0.1,-0.1 -0.2,-0.2 -0.2,-0.3 0,0 -0.1,0 -0.1,-0.1 -0.1,0 -0.1,-0.1 -0.2,-0.1 l -21.4,-10.9 c 0.1,-0.7 0.1,-1.5 0.2,-2.2 0.1,-1.3 -0.4,-2.4 -1.2,-3.3 -0.6,-0.6 -1.4,-1 -2.2,-1.3 v -0.1 c 0.8,-0.2 1.5,-0.6 2,-1.2 0.8,-0.9 1.2,-2.1 1.1,-3.5 -0.1,-0.5 -0.2,-1 -0.2,-1.4 -0.1,-0.6 -0.2,-1.1 -0.3,-1.6 -0.3,-2.2 -2.2,-4 -4.3,-4.4 0,-0.1 0,-0.2 -0.1,-0.3 0.7,-0.2 1.3,-0.6 1.7,-1.2 0.7,-1 1,-2.2 0.7,-3.4 -0.1,-0.6 -0.3,-1.2 -0.4,-1.8 -0.1,-0.4 -0.2,-0.9 -0.3,-1.3 -0.4,-2.2 -2.3,-4 -4.4,-4.4 0,-0.1 0,-0.1 0,-0.2 0.7,-0.2 1.3,-0.6 1.7,-1.2 0.8,-0.9 1,-2.2 0.8,-3.5 l -0.1,-0.5 c -0.2,-0.9 -0.3,-1.7 -0.4,-2.6 -0.3,-2.2 -1.8,-3.8 -3.7,-4.3 0,-0.1 0,-0.2 0,-0.3 1.9,-0.6 3.4,-2.3 3.5,-4.4 0.1,-1.1 0.2,-2 0.4,-2.9 0.3,-1.2 0,-2.5 -0.7,-3.4 -0.8,-0.9 -1.9,-1.4 -3.1,-1.4 -0.7,0 -1.2,0.5 -1.2,1.2 0,0.7 0.5,1.2 1.2,1.2 0.6,0 1,0.2 1.3,0.6 0.3,0.3 0.4,0.8 0.2,1.4 -0.2,1.1 -0.3,2.1 -0.4,3.3 0,0.8 -0.5,1.5 -1.1,2 0,-0.5 0,-1 0,-1.5 0,-0.7 -0.5,-1.2 -1.2,-1.2 -0.7,0 -1.2,0.5 -1.2,1.2 0,0.6 0,1.1 0,1.6 -0.2,-0.1 -0.3,-0.2 -0.5,-0.4 -0.3,-0.3 -0.5,-0.8 -0.5,-1.5 v -0.1 c 0,-0.2 0,-0.4 0,-0.6 0,-0.3 0.1,-0.6 0.1,-0.9 0,-0.7 -0.5,-1.2 -1.2,-1.2 -0.7,0 -1.2,0.5 -1.2,1.2 0,0.2 0,0.4 0,0.6 0,0.3 -0.1,0.5 -0.1,0.8 -0.1,1.2 0.3,2.4 1.1,3.3 0.6,0.7 1.4,1.1 2.3,1.3 0,0.1 0,0.1 0,0.2 -0.8,0.2 -1.5,0.6 -2.1,1.2 -0.8,0.9 -1.2,2.2 -1.1,3.5 0.1,0.5 0.2,1 0.2,1.4 0.1,0.6 0.2,1.1 0.3,1.6 0.3,2.2 2.2,4 4.4,4.4 0,0.1 0,0.1 0,0.2 -0.7,0.3 -1.3,0.7 -1.7,1.2 -0.7,1 -1,2.2 -0.7,3.4 0.1,0.6 0.3,1.2 0.4,1.8 0.1,0.4 0.2,0.9 0.3,1.4 0.5,2.2 2.4,3.9 4.5,4.3 0,0.1 0,0.2 0.1,0.3 -0.6,0.2 -1.2,0.6 -1.6,1.1 -0.8,0.9 -1.1,2.2 -0.9,3.5 l 0.1,0.5 c 0.2,0.9 0.3,1.7 0.4,2.6 0.3,2.2 1.8,3.8 3.8,4.3 0,0.1 0,0.1 0,0.2 -1.7,0.5 -3,1.9 -3.4,3.7 l -27.5,14 c -0.3,0.1 -0.5,0.4 -0.6,0.6 -0.6,1.2 -9.4,16.5 -14.8,25.9 v 0 c -2.1,3.7 -3.7,6.4 -3.8,6.6 v 0 0 0 c -0.1,0.1 -0.1,0.3 -0.1,0.4 v 0.1 c 0,0.1 0,0.3 0,0.4 0,0 0,0 0,0.1 0,0.1 0,0.1 0.1,0.2 l 4.9,10.6 c 0.1,0.2 0.2,0.4 0.4,0.5 l 42.2,27.3 c 0,0 0.1,0 0.1,0.1 0,0 0.1,0 0.1,0.1 0.1,0 0.3,0.1 0.4,0.1 0.1,0 0.3,0 0.4,-0.1 0,0 0.1,0 0.1,-0.1 0,0 0.1,0 0.1,-0.1 l 42.2,-27.3 c 0.2,-0.1 0.3,-0.3 0.4,-0.5 l 4.9,-10.6 c 0,-0.1 0,-0.1 0.1,-0.2 0,0 0,0 0,-0.1 -0.1,-0.2 -0.1,-0.3 -0.1,-0.4 z M 416,423.3 c -0.4,0.1 -0.8,0.5 -0.8,1 -0.1,0.6 -0.2,1.3 -0.4,1.9 -0.1,-0.1 -0.2,-0.2 -0.3,-0.3 -0.3,-0.4 -0.4,-1 -0.4,-1.6 0.1,-0.6 0.2,-1.2 0.3,-1.8 z m 1.4,0.7 1,0.5 c -0.2,0.5 -0.6,0.9 -1.1,1.3 0.1,-0.4 0.2,-0.8 0.2,-1.2 0,-0.2 0,-0.4 -0.1,-0.6 z m -4.8,3.4 c 0.4,0.5 0.9,0.8 1.5,1 0,0.1 -0.1,0.3 -0.1,0.4 -0.2,0 -0.3,0 -0.5,0 -3.6,0 -6.4,2.8 -6.4,6.4 0,0.7 0.5,1.2 1.2,1.2 0.7,0 1.2,-0.5 1.2,-1.2 0,-2.1 1.6,-3.8 3.6,-4 0,0.1 -0.1,0.2 -0.1,0.3 -0.3,0.6 0,1.3 0.6,1.6 0.2,0.1 0.3,0.1 0.5,0.1 0.5,0 0.9,-0.3 1.1,-0.7 0.1,-0.2 0.2,-0.5 0.3,-0.7 1.2,0.7 2,2 2,3.5 0,0.7 0.5,1.2 1.2,1.2 0.7,0 1.2,-0.5 1.2,-1.2 0,-2.6 -1.4,-4.7 -3.6,-5.8 0.1,-0.3 0.2,-0.6 0.3,-0.8 1.7,-0.3 3.1,-1.5 3.9,-3 l 18.8,9.6 -25.7,13.2 -25.7,-13.2 24,-12.2 c 0,0.3 -0.1,0.6 -0.1,0.9 -0.3,1.2 0.1,2.5 0.8,3.4 z m 2.2,23.1 26.6,-13.6 17.7,30.7 -44.3,27.4 z m 4.1,-29.7 c 0,0.4 -0.1,0.8 -0.1,1.2 l -1.5,-0.8 c 0.4,-0.2 0.6,-0.6 0.6,-1 0,-0.4 0,-0.9 0,-1.3 0.2,0.1 0.3,0.2 0.4,0.3 0.3,0.4 0.7,0.9 0.6,1.6 z m -10,-34 c -0.1,-0.5 -0.2,-1 -0.3,-1.6 -0.1,-0.5 -0.1,-1 -0.2,-1.4 -0.1,-0.6 0.1,-1.1 0.5,-1.6 0.1,-0.1 0.3,-0.3 0.4,-0.3 0,0.3 0.1,0.6 0.1,0.9 0.1,0.6 0.6,1.1 1.2,1.1 h 0.1 c 0.7,-0.1 1.1,-0.7 1,-1.3 0,-0.1 0,-0.2 0,-0.4 0.6,0.4 1,1.1 1.2,1.9 0.1,0.9 0.3,1.8 0.4,2.7 l 0.1,0.5 c 0.1,0.6 0,1.2 -0.3,1.5 -0.1,0.1 -0.2,0.2 -0.3,0.3 -0.1,-0.4 -0.2,-0.9 -0.2,-1.3 -0.1,-0.7 -0.7,-1.1 -1.4,-1 -0.7,0.1 -1.1,0.7 -1,1.4 0,0.3 0.1,0.5 0.1,0.8 -0.7,-0.6 -1.3,-1.3 -1.4,-2.2 z m 2.7,12.3 c -0.1,-0.5 -0.2,-0.9 -0.3,-1.4 -0.1,-0.5 -0.3,-1.1 -0.4,-1.8 -0.1,-0.5 -0.1,-1 0.2,-1.4 0.1,-0.1 0.2,-0.2 0.4,-0.3 0.1,0.6 0.3,1.1 0.4,1.6 0.1,0.5 0.6,0.9 1.2,0.9 0.1,0 0.2,0 0.3,0 0.6,-0.2 1,-0.8 0.9,-1.4 -0.1,-0.3 -0.1,-0.6 -0.2,-0.8 0.7,0.5 1.3,1.2 1.5,2 0.1,0.5 0.2,0.9 0.3,1.4 0.1,0.5 0.3,1.1 0.4,1.8 0.1,0.6 0.1,1.1 -0.2,1.5 -0.1,0.1 -0.2,0.2 -0.3,0.3 -0.1,-0.6 -0.3,-1.3 -0.4,-1.9 -0.2,-0.6 -0.8,-1 -1.4,-0.9 -0.6,0.2 -1,0.8 -0.9,1.4 0.1,0.4 0.2,0.7 0.2,1.1 -0.9,-0.6 -1.5,-1.3 -1.7,-2.1 z m 2.5,12.5 c -0.1,-0.9 -0.3,-1.8 -0.4,-2.7 l -0.1,-0.5 c -0.1,-0.6 0,-1.2 0.4,-1.6 0.1,-0.1 0.2,-0.2 0.3,-0.2 l 0.2,1 c 0.1,0.6 0.6,1 1.2,1 0.1,0 0.2,0 0.2,0 0.6,-0.1 1.1,-0.8 0.9,-1.4 l -0.1,-0.3 c 0.7,0.5 1.3,1.2 1.4,2.1 0.1,0.5 0.2,1 0.3,1.6 0.1,0.5 0.1,1 0.2,1.4 0.1,0.6 -0.1,1.2 -0.5,1.6 -0.1,0.1 -0.3,0.2 -0.4,0.3 0,-0.4 -0.1,-0.9 -0.1,-1.3 -0.1,-0.7 -0.7,-1.1 -1.3,-1 -0.7,0.1 -1.1,0.7 -1,1.3 0,0.3 0.1,0.5 0.1,0.8 -0.7,-0.6 -1.2,-1.3 -1.3,-2.1 z m 1.5,7.4 c 0,0.4 0,0.8 0,1.2 0,0.1 0,0.1 0,0.2 l -0.8,-0.4 c 0.1,-0.5 0.4,-0.8 0.8,-1 z m -44.2,42.9 c 2.7,-4.7 6.5,-11.2 9.5,-16.6 2.7,-4.7 4.1,-7.2 4.8,-8.6 l 26.7,13.7 v 44.4 l -44.3,-27.3 c 0.7,-1.1 1.9,-3.1 3.3,-5.6 z m -2.1,9.1 43.1,26.6 v 6 l -40.1,-25.9 z m 85.6,6.7 -40.1,25.9 v -5.9 L 458,471 Z"
   id="path1954"
   inkscape:connector-curvature="0" />
		<path
   d="m 289.7,403.7 c 0,-0.1 0,-0.1 0,0 0,-0.2 -0.1,-0.3 -0.1,-0.5 l -18.8,-32.7 c -0.1,-0.2 -0.3,-0.4 -0.5,-0.5 L 248,358.6 c 0.1,-0.6 0.1,-1.2 0.2,-1.8 0.1,-1.3 -0.4,-2.5 -1.2,-3.4 -0.6,-0.6 -1.3,-1 -2.1,-1.2 0,0 0,0 0,-0.1 0.8,-0.2 1.5,-0.6 2.1,-1.2 0.9,-0.9 1.3,-2.1 1.2,-3.4 -0.1,-1.1 -0.2,-2.1 -0.3,-3.1 -0.2,-2.2 -1.9,-4 -4,-4.5 0,-0.1 0,-0.2 0,-0.3 0.8,-0.2 1.5,-0.7 2,-1.3 0.8,-0.9 1,-2.1 0.8,-3.4 -0.1,-1.1 -0.3,-2.2 -0.5,-3.2 -0.4,-2.2 -2.2,-3.9 -4.2,-4.3 v 0 c 0,0 0,0 0,-0.1 0.7,-0.2 1.3,-0.6 1.7,-1.1 0.8,-0.9 1.1,-2.2 0.9,-3.5 l -0.1,-0.5 c -0.2,-0.9 -0.3,-1.7 -0.4,-2.6 -0.3,-2.2 -1.9,-3.9 -3.9,-4.4 0,-0.1 0,-0.2 0,-0.4 0.7,-0.2 1.3,-0.6 1.9,-1.1 0.9,-0.9 1.3,-2.1 1.2,-3.5 -0.1,-1 -0.1,-2 -0.1,-3 0,-2.1 -1.3,-3.9 -3.2,-4.5 2,-0.5 3.6,-2.2 3.9,-4.3 0.2,-1.1 0.4,-2.1 0.6,-3 0.4,-1.6 0,-3.2 -1.1,-4.1 -0.5,-0.4 -1.3,-0.4 -1.7,0.1 -0.4,0.5 -0.4,1.3 0.1,1.7 0.4,0.3 0.5,1 0.3,1.8 -0.2,1 -0.4,2 -0.6,3.1 -0.1,0.8 -0.6,1.5 -1.2,2 0,-0.3 0.1,-0.5 0.1,-0.8 0.1,-0.7 -0.3,-1.3 -1,-1.4 -0.7,-0.1 -1.3,0.3 -1.4,1 -0.1,0.5 -0.1,1 -0.2,1.4 -0.2,-0.1 -0.3,-0.2 -0.5,-0.4 -0.3,-0.4 -0.5,-0.9 -0.4,-1.5 0.2,-1 0.4,-2 0.6,-3.1 0.1,-0.7 -0.3,-1.3 -1,-1.4 -0.7,-0.1 -1.3,0.3 -1.4,1 -0.2,1.1 -0.4,2.1 -0.6,3.1 -0.2,1.3 0.1,2.5 0.9,3.4 0.5,0.6 1.2,1 1.9,1.2 -2,0.5 -3.5,2.4 -3.5,4.5 0,0.6 0,1.1 0.1,1.7 0,0.5 0,0.9 0,1.5 0.1,2.2 1.7,4 3.8,4.5 0,0.1 0,0.2 0,0.3 -0.8,0.2 -1.5,0.6 -2,1.3 -0.8,0.9 -1.1,2.2 -0.9,3.4 0.1,0.5 0.2,1 0.2,1.4 0.1,0.6 0.2,1.1 0.3,1.6 0.3,2.2 2.1,4 4.2,4.4 0,0 0,0 0,0.1 -0.7,0.2 -1.2,0.6 -1.7,1.1 -0.8,0.9 -1.1,2.2 -0.9,3.5 0.1,0.5 0.2,1 0.2,1.4 0.1,0.6 0.2,1.1 0.3,1.6 0.3,2.2 2,3.9 4.1,4.4 0,0.1 0,0.2 0.1,0.4 -0.7,0.2 -1.3,0.6 -1.8,1.1 -0.8,0.9 -1.2,2.2 -1.1,3.4 0.1,1.1 0.2,2.1 0.3,3.1 0.1,2.2 1.6,4 3.6,4.5 v 0 c -2,0.5 -3.5,2.3 -3.6,4.4 l -26.4,13.5 c -0.3,0.1 -0.5,0.4 -0.6,0.7 -0.6,1.2 -7.9,14 -14.8,25.9 v 0 c -2.2,3.8 -3.8,6.6 -3.8,6.6 -0.1,0.1 -0.1,0.3 -0.1,0.4 v 0.1 c 0,0.1 0,0.3 0,0.4 0,0 0,0 0,0.1 0,0.1 0,0.1 0.1,0.2 l 4.9,10.6 c 0.1,0.2 0.2,0.4 0.4,0.5 l 41.9,27.1 c 0.2,0.2 0.5,0.4 0.9,0.4 v 0 c 0,0 0,0 0.1,0 0.2,0 0.5,-0.1 0.7,-0.2 l 42.2,-27.3 c 0.2,-0.1 0.3,-0.3 0.4,-0.5 l 4.9,-10.6 c 0,-0.1 0,-0.1 0.1,-0.2 0,0 0,0 0,-0.1 -0.2,0.2 -0.2,0.1 -0.2,0 z m -48.3,-45.7 3.9,2 c -0.2,0.7 -0.6,1.3 -1.2,1.6 0.1,-0.4 0.1,-0.8 0.2,-1.2 0.1,-0.7 -0.4,-1.3 -1,-1.3 -0.7,-0.1 -1.3,0.4 -1.3,1 -0.1,0.6 -0.2,1.1 -0.3,1.7 -0.1,-0.1 -0.2,-0.2 -0.3,-0.3 -0.4,-0.4 -0.5,-1 -0.4,-1.7 v -0.1 c 0.1,-0.5 0.1,-1.1 0.2,-1.7 z m -1.8,5.2 c 0.4,0.5 1,0.8 1.6,1 0,0.2 -0.1,0.4 -0.1,0.6 -0.1,0 -0.1,0 -0.2,0 -3.6,0 -6.4,2.8 -6.4,6.4 0,0.7 0.5,1.2 1.2,1.2 0.7,0 1.2,-0.5 1.2,-1.2 0,-2.1 1.5,-3.7 3.5,-4 0,0.1 -0.1,0.2 -0.1,0.3 -0.2,0.6 0.1,1.3 0.8,1.5 0.1,0 0.2,0.1 0.4,0.1 0.5,0 1,-0.3 1.1,-0.8 0.1,-0.2 0.1,-0.4 0.2,-0.6 1.2,0.7 2.1,2 2.1,3.5 0,0.7 0.5,1.2 1.2,1.2 0.7,0 1.2,-0.5 1.2,-1.2 0,-2.7 -1.6,-4.9 -3.8,-5.9 0.1,-0.3 0.2,-0.6 0.2,-0.9 1.8,-0.4 3.3,-1.7 3.9,-3.3 l 19.7,10.1 -25.9,13.2 -25.7,-13.2 22.9,-11.7 v 0.1 0.1 c -0.2,1.4 0.2,2.6 1,3.5 z m 2.9,23.3 26.8,-13.7 17.6,30.6 -44.4,27.6 z m 3.2,-29.9 c 0,0.3 -0.1,0.6 -0.1,0.8 l -1.2,-0.6 c 0.1,-0.2 0.2,-0.4 0.3,-0.6 0,-0.5 0.1,-1 0.1,-1.5 0.1,0.1 0.3,0.2 0.4,0.3 0.4,0.5 0.6,1 0.5,1.6 z m -9.6,-46.2 c 0,-0.5 0,-1 0,-1.5 0,-0.5 -0.1,-1 -0.1,-1.6 0,-0.8 0.5,-1.5 1.1,-2 0,0.5 0,0.9 0,1.4 0,0.7 0.5,1.2 1.2,1.2 0.7,0 1.2,-0.5 1.2,-1.2 0,-0.4 0,-0.9 0,-1.3 0.6,0.4 1,1.1 1,1.9 0,1 0,2.1 0.1,3.2 0,0.6 -0.2,1.2 -0.6,1.6 -0.1,0.1 -0.2,0.2 -0.3,0.3 0,-0.5 -0.1,-1 -0.1,-1.5 0,-0.7 -0.6,-1.2 -1.2,-1.2 -0.7,0 -1.2,0.6 -1.2,1.2 0,0.5 0,0.9 0.1,1.4 -0.7,-0.4 -1.1,-1.1 -1.2,-1.9 z m 1.4,12.3 c -0.1,-0.5 -0.2,-1 -0.3,-1.6 -0.1,-0.5 -0.1,-1 -0.2,-1.5 -0.1,-0.6 0.1,-1.1 0.4,-1.5 0.1,-0.1 0.3,-0.3 0.4,-0.4 0,0.3 0.1,0.6 0.1,0.9 0.1,0.6 0.6,1.1 1.2,1.1 h 0.1 c 0.7,-0.1 1.1,-0.7 1,-1.3 0,-0.1 0,-0.3 0,-0.4 0.7,0.4 1.1,1.2 1.3,2 0.1,0.9 0.3,1.8 0.4,2.7 l 0.1,0.5 c 0.1,0.6 0,1.2 -0.4,1.6 -0.1,0.1 -0.2,0.2 -0.3,0.3 -0.1,-0.4 -0.2,-0.9 -0.2,-1.3 -0.1,-0.7 -0.7,-1.1 -1.4,-1 -0.7,0.1 -1.1,0.7 -1,1.4 0,0.3 0.1,0.5 0.1,0.8 -0.6,-0.7 -1.2,-1.4 -1.3,-2.3 z m 2.1,12.2 c -0.1,-0.5 -0.2,-1 -0.3,-1.6 -0.1,-0.5 -0.1,-1 -0.2,-1.5 -0.1,-0.6 0,-1.2 0.4,-1.6 0.1,-0.1 0.2,-0.2 0.3,-0.2 0.1,0.5 0.2,1.1 0.3,1.6 0.1,0.6 0.6,1 1.2,1 0.1,0 0.1,0 0.2,0 0.7,-0.1 1.1,-0.7 1,-1.4 -0.1,-0.3 -0.1,-0.7 -0.2,-1 0.7,0.5 1.2,1.2 1.4,2.1 0.2,1 0.4,1.9 0.5,3 v 0.1 c 0.1,0.6 0,1.1 -0.3,1.5 -0.1,0.2 -0.3,0.3 -0.5,0.4 -0.1,-0.6 -0.2,-1.2 -0.3,-1.7 -0.1,-0.7 -0.7,-1.1 -1.4,-1 -0.7,0.1 -1.1,0.7 -1,1.4 0.1,0.4 0.1,0.7 0.2,1.1 -0.7,-0.6 -1.2,-1.4 -1.3,-2.2 z m 1.6,12.6 c -0.1,-1 -0.2,-2 -0.3,-3.1 -0.1,-0.6 0.1,-1.2 0.5,-1.6 0.1,-0.1 0.2,-0.2 0.3,-0.3 0,0.3 0.1,0.6 0.1,0.9 0.1,0.6 0.6,1.1 1.2,1.1 h 0.1 c 0.7,-0.1 1.1,-0.7 1,-1.3 0,-0.1 0,-0.3 -0.1,-0.4 0.7,0.4 1.2,1.2 1.3,2 0.1,1 0.2,2 0.3,3 0,0.6 -0.2,1.2 -0.6,1.6 -0.1,0.1 -0.2,0.2 -0.4,0.3 0,-0.4 0,-0.7 0,-1.1 0,-0.7 -0.6,-1.1 -1.2,-1.2 -0.7,0 -1.2,0.6 -1.2,1.2 0,0.3 0,0.6 0,1 -0.5,-0.5 -0.9,-1.2 -1,-2.1 z m 1.2,7.3 c 0,0.3 0,0.6 0,0.9 l -0.4,-0.2 c -0.1,0 -0.2,-0.1 -0.3,-0.1 0.2,-0.2 0.4,-0.4 0.7,-0.6 z m -43.2,43 c 2.8,-4.8 6.5,-11.2 9.5,-16.6 1.5,-2.7 2.9,-5 3.8,-6.7 0.4,-0.7 0.7,-1.3 1,-1.7 l 26.6,13.7 v 44.3 L 196,403.4 c 0.6,-1.1 1.8,-3.1 3.2,-5.6 z m -2.1,9.1 43,26.6 v 5.9 l -40,-25.8 z m 85.6,6.7 -40.2,26 v -5.8 l 43.2,-26.9 z"
   id="path1956"
   inkscape:connector-curvature="0" />
		<path
   d="m 631.8,412 c 0,0 0,-0.1 0,0 0,-0.2 -0.1,-0.3 -0.1,-0.5 v 0 0 0 l -18.8,-32.7 c -0.1,-0.1 -0.2,-0.2 -0.2,-0.3 0,0 -0.1,0 -0.1,-0.1 -0.1,0 -0.1,-0.1 -0.2,-0.1 l -27.4,-14 c -0.2,-1.9 -1.4,-3.5 -3.1,-4 v 0 c 2.1,-0.5 3.8,-2.2 4.1,-4.4 0.2,-1.1 0.4,-2.1 0.6,-3.1 0.3,-1.3 0,-2.6 -0.8,-3.5 -0.4,-0.5 -0.9,-0.9 -1.5,-1.1 0,-0.1 0.1,-0.3 0.1,-0.4 2.1,-0.4 4,-2.2 4.4,-4.4 0.2,-1.1 0.4,-2.1 0.6,-3.1 0.2,-1.3 -0.1,-2.6 -0.9,-3.5 -0.5,-0.5 -1.1,-0.9 -1.7,-1.1 2.1,-0.5 3.7,-2.4 3.7,-4.6 0,-1.1 0,-2.1 -0.1,-3.2 0,-1 -0.4,-2 -1.2,-2.7 -0.5,-0.5 -1.2,-0.5 -1.7,0 -0.5,0.5 -0.5,1.2 0,1.7 0.3,0.3 0.4,0.7 0.4,1.1 v 0.1 c 0.1,0.9 0.1,1.9 0.1,3 0,0.8 -0.5,1.5 -1.1,1.9 0,-0.4 0,-0.7 0,-1.1 0,-0.7 -0.5,-1.2 -1.2,-1.2 -0.7,0 -1.2,0.5 -1.2,1.2 0,0.4 0,0.8 0,1.2 -0.6,-0.4 -1,-1.1 -1,-2 0,-1 0,-2.1 -0.1,-3.2 -0.1,-0.7 -0.6,-1.1 -1.3,-1.1 -0.7,0.1 -1.1,0.6 -1.1,1.3 0.1,1 0.1,2 0.1,3 0,2.2 1.3,3.9 3.1,4.5 -2,0.5 -3.6,2.2 -4.1,4.3 -0.2,1.1 -0.4,2.1 -0.6,3.1 -0.3,1.3 0,2.6 0.8,3.5 0.4,0.5 1,0.9 1.6,1.1 0,0.1 -0.1,0.2 -0.1,0.4 -2.1,0.4 -4.1,2.2 -4.5,4.4 -0.2,1.1 -0.4,2.1 -0.6,3.1 -0.3,1.3 0,2.5 0.8,3.4 0.5,0.6 1.2,1 1.9,1.3 0,0 0,0 0,0.1 -2.1,0.5 -3.7,2.4 -3.7,4.6 v 0.1 c 0,0.5 0.1,1 0.1,1.5 0,0.4 0,0.7 0.1,1 l -21.3,10.9 c -0.3,0.1 -0.5,0.4 -0.6,0.6 -0.6,1.2 -9.4,16.5 -14.8,25.9 v 0 c -2.1,3.7 -3.7,6.4 -3.8,6.6 v 0 0 0 c -0.1,0.1 -0.1,0.2 -0.1,0.4 v 0.1 c 0,0.1 0,0.3 0,0.4 0,0 0,0 0,0.1 0,0.1 0,0.1 0.1,0.2 l 4.9,10.6 c 0.1,0.2 0.2,0.4 0.4,0.5 l 41.9,27.1 c 0.2,0.2 0.5,0.4 0.9,0.4 v 0 c 0,0 0,0 0.1,0 0.2,0 0.5,-0.1 0.7,-0.2 l 42.2,-27.3 c 0.2,-0.1 0.3,-0.3 0.4,-0.5 l 4.9,-10.6 c 0,-0.1 0,-0.1 0.1,-0.2 0,0 0,0 0,-0.1 -0.1,-0.2 -0.1,-0.3 -0.1,-0.4 z m -49.1,-45.3 c 0,0.4 0.1,0.7 0.1,1.1 v 0.3 c 0.1,0.7 -0.1,1.3 -0.4,1.7 -0.1,0.1 -0.2,0.2 -0.3,0.3 -0.1,-0.6 -0.2,-1.1 -0.3,-1.7 0,-0.4 -0.3,-0.7 -0.6,-0.9 z m -3.1,3 c -0.4,-0.2 -0.7,-0.6 -1,-1 l 0.8,-0.4 c 0,0.1 0,0.1 0,0.2 0.1,0.5 0.2,0.9 0.2,1.2 z m 0.6,2.8 c 0.1,0.3 0.2,0.6 0.2,0.9 -2.2,1 -3.7,3.2 -3.7,5.8 0,0.7 0.5,1.2 1.2,1.2 0.7,0 1.2,-0.5 1.2,-1.2 0,-1.5 0.8,-2.8 2.1,-3.5 0.1,0.3 0.2,0.5 0.3,0.8 0.2,0.4 0.6,0.7 1.1,0.7 0.2,0 0.3,0 0.5,-0.1 0.6,-0.3 0.9,-1 0.6,-1.6 0,-0.1 -0.1,-0.2 -0.1,-0.3 2,0.2 3.5,1.9 3.5,4 0,0.7 0.5,1.2 1.2,1.2 0.7,0 1.2,-0.5 1.2,-1.2 0,-3.6 -2.8,-6.4 -6.4,-6.4 -0.1,0 -0.2,0 -0.4,0 0,-0.2 -0.1,-0.3 -0.1,-0.5 0.6,-0.2 1.1,-0.6 1.6,-1 0.8,-0.9 1.2,-2.2 1.1,-3.5 v -0.3 c 0,-0.1 0,-0.3 0,-0.4 l 24,12.3 -25.8,13.2 -25.6,-13.2 18.7,-9.5 c 0.6,1.3 2,2.3 3.6,2.6 z m 4.4,22.2 26.7,-13.6 17.7,30.7 -44.4,27.5 z m -2.1,-30.6 -1,0.5 c 0,-0.1 0.1,-0.2 0.1,-0.4 0,-0.4 0,-0.9 0,-1.4 0.5,0.3 0.8,0.8 0.9,1.3 z m -0.6,-20.6 c 0.2,-1 0.4,-2 0.6,-3.1 0.2,-0.9 0.7,-1.6 1.4,-2.1 -0.1,0.3 -0.1,0.7 -0.2,1 -0.1,0.6 0.3,1.3 0.9,1.4 0.1,0 0.2,0 0.2,0 0.6,0 1.1,-0.4 1.2,-1 0.1,-0.5 0.2,-1.1 0.3,-1.6 0.1,0.1 0.2,0.2 0.3,0.2 0.3,0.4 0.5,0.9 0.4,1.5 -0.2,1 -0.4,2 -0.6,3.1 -0.2,0.8 -0.7,1.5 -1.4,2 0.1,-0.3 0.2,-0.7 0.2,-1 0.2,-0.6 -0.2,-1.3 -0.9,-1.4 -0.6,-0.2 -1.3,0.2 -1.4,0.9 -0.1,0.6 -0.3,1.2 -0.4,1.8 -0.1,-0.1 -0.2,-0.2 -0.3,-0.3 -0.3,-0.3 -0.4,-0.8 -0.3,-1.4 z m -2.5,13.9 c -0.3,-0.4 -0.4,-0.9 -0.3,-1.5 0.2,-1 0.4,-2 0.6,-3.1 0.2,-0.8 0.8,-1.6 1.5,-2.1 0,0.1 0,0.2 -0.1,0.2 -0.2,0.6 0.2,1.3 0.9,1.4 0.1,0 0.2,0 0.3,0 0.5,0 1,-0.4 1.2,-0.9 0.1,-0.3 0.2,-0.7 0.2,-1 0.1,0.1 0.2,0.1 0.2,0.2 0.3,0.4 0.4,0.9 0.3,1.6 -0.2,1 -0.4,2 -0.6,3.2 -0.1,0.8 -0.7,1.6 -1.4,2 0,-0.2 0.1,-0.5 0.1,-0.7 0.1,-0.6 -0.3,-1.3 -0.9,-1.4 -0.6,-0.1 -1.3,0.3 -1.4,0.9 -0.1,0.5 -0.2,0.9 -0.2,1.4 -0.1,0.1 -0.3,-0.1 -0.4,-0.2 z m -1.3,7.4 c 0,-0.8 0.5,-1.5 1.1,-1.9 0,0.4 0,0.9 0,1.3 0,0.5 0.4,1 0.8,1.1 l -1.8,0.9 c 0,-0.4 0,-0.9 -0.1,-1.4 z m -36.8,41.3 c 2.7,-4.7 6.5,-11.2 9.5,-16.6 2.7,-4.7 4.1,-7.2 4.8,-8.6 l 26.6,13.7 v 44.3 L 538,411.7 c 0.7,-1.1 1.9,-3.1 3.3,-5.6 z m -2.1,9.1 43,26.5 v 6 l -40,-25.8 z m 85.6,6.7 -40.2,26 V 442 l 43.2,-26.8 z"
   id="path1958"
   inkscape:connector-curvature="0" />
		<path
   d="m 290.9,334.6 c -0.7,-0.1 -1.3,0.4 -1.3,1.1 -0.2,1.8 -0.5,3.6 -0.8,5.3 -0.1,0.7 0.3,1.3 1,1.4 0.1,0 0.1,0 0.2,0 0.6,0 1.1,-0.4 1.2,-1 0.3,-1.8 0.6,-3.6 0.8,-5.5 0,-0.6 -0.5,-1.2 -1.1,-1.3 z"
   id="path1960"
   inkscape:connector-curvature="0" />
		<path
   d="m 289,345.9 c -0.7,-0.1 -1.3,0.3 -1.4,1 l -0.2,1.2 c -1,6 -2.1,12.2 -2,18.4 0,0.7 0.5,1.2 1.2,1.2 v 0 c 0.7,0 1.2,-0.6 1.2,-1.2 -0.1,-5.9 1,-12 2,-17.9 l 0.2,-1.2 c 0.1,-0.7 -0.3,-1.3 -1,-1.5 z"
   id="path1962"
   inkscape:connector-curvature="0" />
		<path
   d="m 288.4,379.1 c 0.1,0 0.3,0 0.4,-0.1 0.6,-0.2 1,-0.9 0.7,-1.5 -0.6,-1.7 -1,-3.4 -1.3,-5.8 -0.1,-0.7 -0.7,-1.1 -1.4,-1 -0.7,0.1 -1.1,0.7 -1,1.4 0.4,2.5 0.8,4.4 1.5,6.2 0.2,0.5 0.6,0.8 1.1,0.8 z"
   id="path1964"
   inkscape:connector-curvature="0" />
		<path
   d="m 278,332.8 v 0 c 0.7,0 1.2,-0.5 1.3,-1.1 0.1,-2.5 0.1,-4.7 -0.1,-6.8 -0.1,-0.7 -0.6,-1.1 -1.3,-1.1 -0.7,0.1 -1.1,0.6 -1.1,1.3 0.2,1.9 0.2,4 0.1,6.4 -0.1,0.7 0.4,1.3 1.1,1.3 z"
   id="path1966"
   inkscape:connector-curvature="0" />
		<path
   d="m 276.1,338.1 c -0.3,2.5 -0.7,4.9 -1.2,7.4 -0.1,0.6 0.3,1.3 0.9,1.4 0.1,0 0.2,0 0.2,0 0.6,0 1.1,-0.4 1.2,-1 0.5,-2.5 0.9,-5.1 1.2,-7.6 0.1,-0.7 -0.4,-1.3 -1,-1.3 -0.6,0 -1.2,0.4 -1.3,1.1 z"
   id="path1968"
   inkscape:connector-curvature="0" />
		<path
   d="m 274,351 c -0.4,1.7 -0.7,3.7 -0.9,5.6 -0.1,0.7 0.4,1.3 1.1,1.3 h 0.1 c 0.6,0 1.1,-0.5 1.2,-1.1 0.2,-1.9 0.5,-3.7 0.9,-5.4 0.1,-0.6 -0.3,-1.3 -0.9,-1.4 -0.8,-0.1 -1.4,0.3 -1.5,1 z"
   id="path1970"
   inkscape:connector-curvature="0" />
		<path
   d="m 265.1,316.1 c -0.2,-0.6 -0.9,-1 -1.5,-0.8 -0.6,0.2 -1,0.9 -0.8,1.5 1,3 1.5,6.1 1.7,9.8 0,0.6 0.6,1.1 1.2,1.1 0,0 0,0 0.1,0 0.7,0 1.2,-0.6 1.1,-1.3 -0.2,-3.8 -0.8,-7.1 -1.8,-10.3 z"
   id="path1972"
   inkscape:connector-curvature="0" />
		<path
   d="m 265.7,332.5 c -0.7,-0.1 -1.2,0.4 -1.3,1.1 -0.2,2.4 -0.5,4.7 -0.9,6.9 -0.1,0.7 0.3,1.3 1,1.4 0.1,0 0.1,0 0.2,0 0.6,0 1.1,-0.4 1.2,-1 0.4,-2.2 0.7,-4.7 0.9,-7.1 0.1,-0.6 -0.4,-1.2 -1.1,-1.3 z"
   id="path1974"
   inkscape:connector-curvature="0" />
		<path
   d="m 195.8,343.5 c 0.4,-2.5 0.8,-5 1.1,-7.5 0.1,-0.7 -0.4,-1.3 -1,-1.3 -0.7,-0.1 -1.3,0.4 -1.3,1 -0.3,2.5 -0.7,5 -1.1,7.5 -0.1,0.7 0.3,1.3 1,1.4 0.1,0 0.1,0 0.2,0 0.5,-0.1 1,-0.5 1.1,-1.1 z"
   id="path1976"
   inkscape:connector-curvature="0" />
		<path
   d="m 193.8,347.9 c -0.7,-0.1 -1.3,0.3 -1.4,1 -0.2,0.9 -0.3,1.9 -0.5,2.8 -0.1,0.9 -0.3,1.8 -0.4,2.7 -0.1,0.7 0.3,1.3 1,1.4 0.1,0 0.1,0 0.2,0 0.6,0 1.1,-0.4 1.2,-1 0.1,-0.9 0.3,-1.8 0.4,-2.7 0.2,-0.9 0.3,-1.9 0.5,-2.8 0.1,-0.6 -0.3,-1.3 -1,-1.4 z"
   id="path1978"
   inkscape:connector-curvature="0" />
		<path
   d="m 193.9,379.1 c 0.6,-0.2 1,-0.9 0.8,-1.5 -1.6,-5 -2.1,-10.4 -1.5,-17 0.1,-0.7 -0.4,-1.2 -1.1,-1.3 -0.7,-0.1 -1.2,0.4 -1.3,1.1 -0.6,7 -0.1,12.7 1.7,18 0.2,0.5 0.6,0.8 1.1,0.8 0.1,-0.1 0.2,-0.1 0.3,-0.1 z"
   id="path1980"
   inkscape:connector-curvature="0" />
		<path
   d="m 209.7,338.4 c 0.7,-5 0.9,-9.4 0.6,-13.4 0,-0.7 -0.6,-1.2 -1.3,-1.1 -0.7,0 -1.2,0.6 -1.1,1.3 0.3,3.9 0.1,8.1 -0.6,13 -0.1,0.7 0.4,1.3 1,1.4 0.1,0 0.1,0 0.2,0 0.6,-0.2 1.1,-0.6 1.2,-1.2 z"
   id="path1982"
   inkscape:connector-curvature="0" />
		<path
   d="m 206.4,343.6 c -0.1,0.6 -0.2,1.2 -0.3,1.8 -0.1,0.6 -0.3,1.3 -0.4,2 -0.1,0.7 0.3,1.3 1,1.4 0.1,0 0.1,0 0.2,0 0.6,0 1.1,-0.4 1.2,-1 0.1,-0.6 0.2,-1.2 0.3,-1.8 0.1,-0.6 0.3,-1.3 0.4,-2 0.1,-0.7 -0.3,-1.3 -1,-1.4 -0.6,-0.1 -1.3,0.4 -1.4,1 z"
   id="path1984"
   inkscape:connector-curvature="0" />
		<path
   d="m 204.2,356.5 c -0.1,0.7 0.3,1.3 1,1.4 0.1,0 0.1,0 0.2,0 0.6,0 1.1,-0.4 1.2,-1 0.1,-0.7 0.2,-1.3 0.3,-2 0.1,-0.7 0.2,-1.3 0.3,-2 0.1,-0.7 -0.3,-1.3 -1,-1.4 -0.7,-0.1 -1.3,0.3 -1.4,1 -0.1,0.7 -0.2,1.3 -0.3,2 -0.1,0.7 -0.2,1.4 -0.3,2 z"
   id="path1986"
   inkscape:connector-curvature="0" />
		<path
   d="m 219.4,315.3 c -0.6,0.2 -1,0.9 -0.8,1.5 0.9,2.9 1.4,5.5 1.6,7.8 0,0.6 0.6,1.1 1.2,1.1 h 0.1 c 0.7,0 1.2,-0.6 1.1,-1.3 -0.2,-2.5 -0.7,-5.2 -1.6,-8.4 -0.3,-0.6 -1,-0.9 -1.6,-0.7 z"
   id="path1988"
   inkscape:connector-curvature="0" />
		<path
   d="m 220.3,330.3 c -0.1,3.2 -0.4,6.5 -1.1,10.2 -0.1,0.7 0.3,1.3 1,1.4 0.1,0 0.1,0 0.2,0 0.6,0 1.1,-0.4 1.2,-1 0.7,-3.9 1,-7.2 1.1,-10.6 0,-0.7 -0.5,-1.2 -1.2,-1.2 -0.6,0 -1.2,0.5 -1.2,1.2 z"
   id="path1990"
   inkscape:connector-curvature="0" />
		<path
   d="m 209.9,221.1 c -0.6,-0.1 -1.3,0.3 -1.4,0.9 -0.4,1.8 -0.8,3.6 -1.3,5.3 -0.2,0.6 0.2,1.3 0.8,1.5 0.1,0 0.2,0 0.3,0 0.5,0 1,-0.3 1.2,-0.9 0.5,-1.8 0.9,-3.7 1.3,-5.5 0.1,-0.5 -0.3,-1.1 -0.9,-1.3 z"
   id="path1992"
   inkscape:connector-curvature="0" />
		<path
   d="m 205.8,233.4 c -1.3,5.9 -2.2,13 0.9,20 0.2,0.5 0.6,0.7 1.1,0.7 0.2,0 0.3,0 0.5,-0.1 0.6,-0.3 0.9,-1 0.6,-1.6 -2.8,-6.4 -1.9,-13 -0.7,-18.6 0.1,-0.6 -0.3,-1.3 -0.9,-1.4 -0.8,-0.1 -1.4,0.3 -1.5,1 z"
   id="path1994"
   inkscape:connector-curvature="0" />
		<path
   d="m 197.3,219.3 c 0.1,0 0.1,0 0.2,0 0.6,0 1.1,-0.4 1.2,-1 0.4,-2.7 0.5,-4.8 0.4,-6.8 0,-0.7 -0.6,-1.2 -1.3,-1.1 -0.7,0 -1.2,0.6 -1.1,1.3 0.1,1.8 0,3.8 -0.4,6.4 -0.2,0.5 0.3,1.1 1,1.2 z"
   id="path1996"
   inkscape:connector-curvature="0" />
		<path
   d="m 195,224.3 c -0.3,1.2 -0.6,2.5 -0.9,3.7 -0.3,1.3 -0.7,2.5 -1,3.8 -0.2,0.6 0.2,1.3 0.9,1.4 0.1,0 0.2,0 0.3,0 0.5,0 1,-0.4 1.2,-0.9 0.3,-1.2 0.6,-2.5 0.9,-3.7 0.3,-1.3 0.7,-2.5 1,-3.8 0.2,-0.6 -0.2,-1.3 -0.9,-1.4 -0.7,-0.1 -1.4,0.3 -1.5,0.9 z"
   id="path1998"
   inkscape:connector-curvature="0" />
		<path
   d="m 191.9,237.5 c -0.3,1.7 -0.4,3.5 -0.4,5.7 0,0.7 0.5,1.2 1.2,1.2 0.7,0 1.2,-0.5 1.2,-1.2 0,-2 0.1,-3.8 0.4,-5.3 0.1,-0.7 -0.3,-1.3 -1,-1.4 -0.6,-0.1 -1.2,0.4 -1.4,1 z"
   id="path2000"
   inkscape:connector-curvature="0" />
		<path
   d="m 183.1,201.7 c -0.6,0.3 -0.9,1 -0.6,1.6 1.3,2.9 1.9,6 1.9,9.6 0,0.7 0.5,1.2 1.2,1.2 0.7,0 1.2,-0.5 1.2,-1.2 0,-4 -0.7,-7.3 -2.1,-10.6 -0.2,-0.6 -0.9,-0.8 -1.6,-0.6 z"
   id="path2002"
   inkscape:connector-curvature="0" />
		<path
   d="m 185,219 c -0.6,-0.1 -1.3,0.3 -1.4,1 -0.4,2.4 -1,4.8 -1.6,6.9 -0.2,0.6 0.2,1.3 0.9,1.5 0.1,0 0.2,0 0.3,0 0.5,0 1,-0.4 1.2,-0.9 0.6,-2.2 1.2,-4.7 1.6,-7.1 0.1,-0.6 -0.3,-1.2 -1,-1.4 z"
   id="path2004"
   inkscape:connector-curvature="0" />
		<path
   d="m 615.4,229.7 c -0.7,0 -1.2,0.6 -1.1,1.3 0.1,1.8 0.1,3.6 0.1,5.3 0,0.7 0.5,1.2 1.2,1.2 0.7,0 1.2,-0.5 1.2,-1.2 0,-1.8 0,-3.6 -0.1,-5.5 -0.1,-0.6 -0.7,-1.1 -1.3,-1.1 z"
   id="path2006"
   inkscape:connector-curvature="0" />
		<path
   d="m 612.4,261.4 c -0.1,0.7 0.4,1.3 1,1.3 0,0 0.1,0 0.2,0 0.6,0 1.1,-0.4 1.2,-1.1 0.7,-5.4 1.5,-12.4 1.8,-19.4 0,-0.7 -0.5,-1.2 -1.1,-1.3 -0.7,0 -1.2,0.5 -1.3,1.1 -0.3,7.1 -1.1,14.1 -1.8,19.4 z"
   id="path2008"
   inkscape:connector-curvature="0" />
		<path
   d="m 611.7,266.8 c -0.2,1 -0.3,2 -0.4,3 -0.1,1 -0.2,2 -0.4,3 -0.1,0.7 0.4,1.3 1,1.4 0.1,0 0.1,0 0.2,0 0.6,0 1.1,-0.4 1.2,-1 0.2,-1 0.3,-2 0.4,-3 0.1,-1 0.2,-2 0.4,-3 0.1,-0.7 -0.4,-1.3 -1,-1.4 -0.6,-0.1 -1.3,0.4 -1.4,1 z"
   id="path2010"
   inkscape:connector-curvature="0" />
		<path
   d="m 627.2,218.9 c -0.7,0.1 -1.1,0.7 -1,1.4 0.4,2.1 0.6,4.3 0.8,6.5 v 0 c 0.1,0.6 0.6,1.1 1.2,1.1 h 0.1 c 0.7,-0.1 1.1,-0.7 1.1,-1.3 -0.2,-2.2 -0.4,-4.4 -0.8,-6.7 -0.1,-0.6 -0.7,-1.1 -1.4,-1 z"
   id="path2012"
   inkscape:connector-curvature="0" />
		<path
   d="m 628.6,232.1 c -0.7,0 -1.2,0.5 -1.2,1.2 0,2.4 0,5 -0.1,7.5 0,0.7 0.5,1.2 1.2,1.2 v 0 c 0.6,0 1.2,-0.5 1.2,-1.2 0.1,-2.5 0.1,-5.1 0.1,-7.5 0,-0.6 -0.5,-1.2 -1.2,-1.2 z"
   id="path2014"
   inkscape:connector-curvature="0" />
		<path
   d="m 629,252 c 0.1,-0.9 0.2,-1.8 0.3,-2.8 0.1,-0.9 0.1,-1.8 0.2,-2.7 0.1,-0.7 -0.4,-1.3 -1.1,-1.3 -0.6,-0.1 -1.3,0.4 -1.3,1.1 -0.1,0.9 -0.2,1.8 -0.3,2.8 -0.1,0.9 -0.1,1.8 -0.2,2.7 -0.1,0.7 0.4,1.3 1.1,1.3 h 0.1 c 0.6,-0.1 1.2,-0.5 1.2,-1.1 z"
   id="path2016"
   inkscape:connector-curvature="0" />
		<path
   d="m 640.1,222.8 c 0.7,-0.1 1.1,-0.7 1,-1.4 -0.6,-4 -1.2,-7.2 -2,-10.2 -0.2,-0.6 -0.8,-1 -1.5,-0.9 -0.6,0.2 -1,0.8 -0.9,1.5 0.8,3 1.4,6.1 2,10 0.1,0.6 0.6,1 1.2,1 0.1,0 0.1,0 0.2,0 z"
   id="path2018"
   inkscape:connector-curvature="0" />
		<path
   d="m 640.7,227.7 c -0.7,0 -1.2,0.6 -1.1,1.3 0.1,2.4 0.2,4.7 0.2,6.9 0,0.7 0.5,1.2 1.2,1.2 0.7,0 1.2,-0.5 1.2,-1.2 0,-2.3 -0.1,-4.6 -0.2,-7.1 -0.1,-0.6 -0.6,-1.1 -1.3,-1.1 z"
   id="path2020"
   inkscape:connector-curvature="0" />
		<path
   d="m 508.9,297.3 c 0.1,0 0.1,0 0,0 0.7,0 1.2,-0.5 1.3,-1.1 l 0.6,-7.5 c 0.1,-0.7 -0.4,-1.2 -1.1,-1.3 -0.6,-0.1 -1.2,0.4 -1.3,1.1 l -0.6,7.5 c 0,0.7 0.5,1.3 1.1,1.3 z"
   id="path2022"
   inkscape:connector-curvature="0" />
		<path
   d="m 507.4,307.5 c 0,0.7 0.5,1.2 1.2,1.2 0.7,0 1.2,-0.5 1.2,-1.2 0,-1.8 0,-3.7 0.1,-5.4 0,-0.7 -0.5,-1.2 -1.1,-1.3 -0.7,0 -1.2,0.5 -1.3,1.1 -0.1,1.9 -0.1,3.8 -0.1,5.6 z"
   id="path2024"
   inkscape:connector-curvature="0" />
		<path
   d="m 510,313.1 c 0,-0.7 -0.6,-1.2 -1.3,-1.1 -0.7,0 -1.2,0.6 -1.1,1.3 0.5,6.5 1.3,12.3 2.7,17.7 0.1,0.5 0.6,0.9 1.2,0.9 0.1,0 0.2,0 0.3,0 0.6,-0.2 1,-0.8 0.9,-1.5 -1.4,-5.2 -2.2,-10.9 -2.7,-17.3 z"
   id="path2026"
   inkscape:connector-curvature="0" />
		<path
   d="m 524.2,276.6 c -0.6,-0.1 -1.3,0.4 -1.4,1 -0.6,4.4 -1.1,8.9 -1.5,13.3 -0.1,0.7 0.4,1.2 1.1,1.3 h 0.1 c 0.6,0 1.1,-0.5 1.2,-1.1 0.4,-4.4 0.9,-8.8 1.5,-13.1 0.1,-0.7 -0.4,-1.3 -1,-1.4 z"
   id="path2028"
   inkscape:connector-curvature="0" />
		<path
   d="m 522.1,295.4 c -0.7,-0.1 -1.2,0.4 -1.3,1.1 -0.1,0.7 -0.1,1.3 -0.1,2 0,0.6 0,1.2 -0.1,1.8 -0.1,0.7 0.4,1.2 1.1,1.3 h 0.1 c 0.6,0 1.1,-0.5 1.2,-1.1 0.1,-0.7 0.1,-1.3 0.1,-1.9 0,-0.6 0,-1.2 0.1,-1.9 0.1,-0.6 -0.4,-1.2 -1.1,-1.3 z"
   id="path2030"
   inkscape:connector-curvature="0" />
		<path
   d="m 521.7,304.3 c -0.7,0 -1.2,0.5 -1.2,1.2 v 4 c 0,0.7 0.5,1.2 1.2,1.2 0.7,0 1.2,-0.5 1.2,-1.2 v -4 c 0,-0.6 -0.5,-1.2 -1.2,-1.2 z"
   id="path2032"
   inkscape:connector-curvature="0" />
		<path
   d="m 537.6,268.1 c -0.7,-0.1 -1.3,0.4 -1.4,1 -0.2,1.4 -0.4,2.7 -0.6,4.1 -0.2,1.3 -0.3,2.7 -0.5,4 -0.1,0.7 0.4,1.3 1,1.4 0.1,0 0.1,0 0.2,0 0.6,0 1.1,-0.4 1.2,-1 0.2,-1.4 0.4,-2.7 0.6,-4.1 0.2,-1.3 0.3,-2.7 0.5,-4 0.1,-0.7 -0.3,-1.3 -1,-1.4 z"
   id="path2034"
   inkscape:connector-curvature="0" />
		<path
   d="m 534.4,283.1 c -0.5,3.4 -0.8,6.6 -1.1,10.5 -0.1,0.7 0.4,1.2 1.1,1.3 h 0.1 c 0.6,0 1.1,-0.5 1.2,-1.1 0.3,-3.8 0.6,-7 1.1,-10.3 0.1,-0.7 -0.4,-1.3 -1,-1.4 -0.7,-0.2 -1.3,0.3 -1.4,1 z"
   id="path2036"
   inkscape:connector-curvature="0" />
		<path
   d="m 335.4,342.3 c -0.7,-0.1 -1.3,0.3 -1.4,1 -0.2,1.2 -0.4,2.5 -0.6,3.7 -0.2,1.3 -0.5,2.5 -0.7,3.8 -0.1,0.7 0.3,1.3 1,1.4 0.1,0 0.1,0 0.2,0 0.6,0 1.1,-0.4 1.2,-1 0.2,-1.2 0.4,-2.5 0.6,-3.7 0.2,-1.3 0.5,-2.5 0.7,-3.8 0.1,-0.6 -0.3,-1.3 -1,-1.4 z"
   id="path2038"
   inkscape:connector-curvature="0" />
		<path
   d="m 334.4,357 c 0.1,-0.7 -0.4,-1.3 -1.1,-1.3 -0.7,-0.1 -1.3,0.4 -1.3,1.1 -0.7,6.3 -0.5,11.3 0.6,15.9 0.1,0.5 0.6,0.9 1.2,0.9 0.1,0 0.2,0 0.3,0 0.6,-0.2 1,-0.8 0.9,-1.5 -1.1,-4.4 -1.3,-9.1 -0.6,-15.1 z"
   id="path2040"
   inkscape:connector-curvature="0" />
		<path
   d="m 349.8,331.6 c -0.7,0 -1.2,0.5 -1.3,1.1 -0.2,4.3 -1,8.8 -1.8,13 -0.1,0.7 0.3,1.3 1,1.4 0.1,0 0.1,0 0.2,0 0.6,0 1.1,-0.4 1.2,-1 0.8,-4.4 1.6,-8.9 1.8,-13.4 0.1,-0.5 -0.5,-1 -1.1,-1.1 z"
   id="path2042"
   inkscape:connector-curvature="0" />
		<path
   d="m 346.3,356.5 c 0.6,0 1.1,-0.4 1.2,-1 0.1,-0.6 0.2,-1.3 0.3,-1.9 0.1,-0.6 0.2,-1.3 0.3,-1.9 0.1,-0.7 -0.3,-1.3 -1,-1.4 -0.7,-0.1 -1.3,0.3 -1.4,1 -0.1,0.7 -0.2,1.3 -0.3,1.9 -0.1,0.6 -0.2,1.2 -0.3,1.9 -0.1,0.7 0.3,1.3 1,1.4 0.1,0 0.2,0 0.2,0 z"
   id="path2044"
   inkscape:connector-curvature="0" />
		<path
   d="m 372.1,342.4 c 0.1,0 0.1,0 0.2,0 0.6,0 1.1,-0.4 1.2,-1 0.9,-5.2 1.3,-9.5 1.1,-13.5 0,-0.7 -0.6,-1.1 -1.3,-1.1 -0.7,0 -1.2,0.6 -1.1,1.3 0.2,3.8 -0.2,7.9 -1.1,12.9 -0.1,0.7 0.4,1.3 1,1.4 z"
   id="path2046"
   inkscape:connector-curvature="0" />
		<path
   d="m 373,318.3 c -0.2,-0.6 -0.9,-1 -1.5,-0.8 -0.6,0.2 -1,0.9 -0.8,1.5 0.4,1.4 0.7,2.6 1,3.7 0.1,0.6 0.6,0.9 1.2,0.9 0.1,0 0.2,0 0.3,0 0.6,-0.1 1,-0.8 0.9,-1.4 -0.4,-1.2 -0.7,-2.5 -1.1,-3.9 z"
   id="path2048"
   inkscape:connector-curvature="0" />
		<path
   d="m 347.1,360.5 c 0,-0.7 -0.5,-1.2 -1.1,-1.3 -0.7,-0.1 -1.2,0.5 -1.3,1.1 -0.3,5.4 0.1,10 1.6,14.4 0.2,0.5 0.6,0.8 1.1,0.8 0.1,0 0.2,0 0.4,-0.1 0.6,-0.2 1,-0.9 0.8,-1.5 -1.3,-4 -1.8,-8.3 -1.5,-13.4 z"
   id="path2050"
   inkscape:connector-curvature="0" />
		<path
   d="m 362,333.5 v 0 c 0.7,0 1.2,-0.5 1.2,-1.2 0.1,-2.5 0.1,-5.4 -0.3,-8.3 -0.1,-0.7 -0.7,-1.1 -1.4,-1 -0.7,0.1 -1.1,0.7 -1,1.4 0.4,2.8 0.4,5.5 0.3,7.9 0,0.6 0.5,1.2 1.2,1.2 z"
   id="path2052"
   inkscape:connector-curvature="0" />
		<path
   d="m 361.6,337 c -0.7,-0.1 -1.3,0.4 -1.3,1 -0.4,2.8 -0.9,5.7 -1.4,8.5 -0.7,3.9 -1.4,7.8 -1.8,11.8 -0.1,0.7 0.4,1.2 1.1,1.3 h 0.1 c 0.6,0 1.1,-0.5 1.2,-1.1 0.3,-3.9 1.1,-7.8 1.8,-11.6 0.5,-2.8 1.1,-5.7 1.4,-8.6 0,-0.6 -0.5,-1.2 -1.1,-1.3 z"
   id="path2054"
   inkscape:connector-curvature="0" />
		<path
   d="m 472.1,223.8 c -0.7,-0.1 -1.2,0.4 -1.3,1.1 -0.2,2.4 -0.4,5 -0.7,7.5 -0.1,0.7 0.4,1.3 1,1.3 h 0.1 c 0.6,0 1.1,-0.4 1.2,-1.1 0.3,-2.5 0.5,-5.1 0.7,-7.5 0.2,-0.6 -0.3,-1.2 -1,-1.3 z"
   id="path2056"
   inkscape:connector-curvature="0" />
		<path
   d="m 470.8,237.2 c -0.6,-0.1 -1.3,0.4 -1.3,1.1 l -0.6,5.5 c -0.1,0.7 0.4,1.3 1.1,1.3 h 0.1 c 0.6,0 1.1,-0.5 1.2,-1.1 l 0.6,-5.5 c 0,-0.6 -0.5,-1.2 -1.1,-1.3 z"
   id="path2058"
   inkscape:connector-curvature="0" />
		<path
   d="m 470.7,249.8 c 0,-0.7 -0.5,-1.2 -1.1,-1.3 -0.7,-0.1 -1.2,0.5 -1.3,1.1 -0.4,7 0,12.7 1,17.8 0.1,0.6 0.6,1 1.2,1 0.1,0 0.2,0 0.2,0 0.6,-0.1 1.1,-0.8 0.9,-1.4 -0.9,-4.9 -1.2,-10.4 -0.9,-17.2 z"
   id="path2060"
   inkscape:connector-curvature="0" />
		<path
   d="m 485.2,213.1 c -0.7,0 -1.2,0.6 -1.1,1.3 0.2,3.9 0,8.2 -0.4,13 -0.1,0.7 0.4,1.2 1.1,1.3 h 0.1 c 0.6,0 1.1,-0.5 1.2,-1.1 0.5,-5 0.6,-9.4 0.4,-13.4 -0.1,-0.6 -0.7,-1.1 -1.3,-1.1 z"
   id="path2062"
   inkscape:connector-curvature="0" />
		<path
   d="m 484.3,231.8 c -0.7,0 -1.2,0.4 -1.3,1.1 0,0.6 -0.1,1.2 -0.2,1.8 -0.1,0.6 -0.2,1.3 -0.2,2 -0.1,0.7 0.4,1.2 1.1,1.3 h 0.1 c 0.6,0 1.1,-0.5 1.2,-1.1 0,-0.6 0.1,-1.2 0.2,-1.8 0.1,-0.6 0.2,-1.3 0.2,-2 0.1,-0.6 -0.4,-1.2 -1.1,-1.3 z"
   id="path2064"
   inkscape:connector-curvature="0" />
		<path
   d="m 483.4,240.8 c -0.7,-0.1 -1.3,0.3 -1.4,1 -0.2,1.3 -0.3,2.6 -0.4,3.9 v 0.2 c -0.1,0.7 0.4,1.2 1.1,1.3 h 0.1 c 0.6,0 1.1,-0.5 1.2,-1.1 v -0.2 c 0.1,-1.2 0.2,-2.5 0.4,-3.7 0.1,-0.7 -0.3,-1.3 -1,-1.4 z"
   id="path2066"
   inkscape:connector-curvature="0" />
		<path
   d="m 497.4,215 c 0.1,0 0.1,0 0,0 0.8,-0.1 1.2,-0.6 1.2,-1.3 -0.2,-3.3 -0.6,-5.9 -1.1,-8.3 -0.1,-0.6 -0.8,-1.1 -1.4,-0.9 -0.6,0.1 -1.1,0.8 -0.9,1.4 0.5,2.3 0.8,4.7 1.1,7.9 0,0.7 0.5,1.2 1.1,1.2 z"
   id="path2068"
   inkscape:connector-curvature="0" />
		<path
   d="m 497.6,218.4 c -0.7,0 -1.2,0.5 -1.2,1.2 -0.1,3.9 -0.3,7.1 -0.7,10.3 -0.1,0.7 0.4,1.3 1.1,1.3 h 0.1 c 0.6,0 1.1,-0.5 1.2,-1.1 0.4,-3.2 0.6,-6.6 0.7,-10.5 -0.1,-0.6 -0.6,-1.2 -1.2,-1.2 z"
   id="path2070"
   inkscape:connector-curvature="0" />
		<path
   d="m 303.5,188.1 c 0.6,0 1.1,-0.4 1.2,-1.1 0.1,-1.2 0.3,-2.5 0.5,-3.7 0.2,-1.3 0.4,-2.5 0.5,-3.8 0.1,-0.7 -0.4,-1.3 -1,-1.3 -0.7,-0.1 -1.3,0.4 -1.3,1 -0.1,1.2 -0.3,2.5 -0.5,3.7 -0.2,1.3 -0.4,2.5 -0.5,3.8 -0.1,0.7 0.4,1.3 1,1.3 0,0.1 0.1,0.1 0.1,0.1 z"
   id="path2072"
   inkscape:connector-curvature="0" />
		<path
   d="m 301.8,192.7 c -0.5,8.2 0.2,14.9 2.1,20.9 0.2,0.5 0.6,0.8 1.1,0.8 0.1,0 0.2,0 0.4,-0.1 0.6,-0.2 1,-0.9 0.8,-1.5 -1.8,-5.9 -2.4,-12.1 -1.9,-20.1 0,-0.7 -0.5,-1.2 -1.1,-1.3 -0.8,0.1 -1.3,0.6 -1.4,1.3 z"
   id="path2074"
   inkscape:connector-curvature="0" />
		<path
   d="m 319.2,177.1 0.4,-2.3 c 0.9,-5.2 1.8,-10.6 2.2,-15.9 0.1,-0.7 -0.4,-1.2 -1.1,-1.3 -0.7,-0.1 -1.2,0.4 -1.3,1.1 -0.4,5.2 -1.3,10.6 -2.2,15.7 l -0.4,2.3 c -0.1,0.7 0.3,1.3 1,1.4 0.1,0 0.1,0 0.2,0 0.6,0 1.1,-0.4 1.2,-1 z"
   id="path2076"
   inkscape:connector-curvature="0" />
		<path
   d="m 317.8,186.4 c 0.1,-0.7 0.2,-1.3 0.3,-1.9 0.1,-0.6 0.1,-1.2 0.2,-1.9 0.1,-0.7 -0.3,-1.3 -1,-1.4 -0.7,-0.1 -1.3,0.3 -1.4,1 -0.1,0.7 -0.2,1.3 -0.3,1.9 -0.1,0.6 -0.1,1.2 -0.2,1.9 -0.1,0.7 0.3,1.3 1,1.4 0.1,0 0.1,0 0.2,0 0.6,0 1.1,-0.4 1.2,-1 z"
   id="path2078"
   inkscape:connector-curvature="0" />
		<path
   d="m 314.9,191.3 c -0.1,1.3 -0.2,2.8 -0.2,4.1 0,0.7 0.5,1.2 1.2,1.2 0.7,0 1.2,-0.5 1.2,-1.2 0,-1.2 0.1,-2.6 0.2,-3.9 0.1,-0.7 -0.4,-1.2 -1.1,-1.3 -0.6,0 -1.2,0.5 -1.3,1.1 z"
   id="path2080"
   inkscape:connector-curvature="0" />
		<path
   d="m 331.2,163.1 c -0.1,0.7 0.4,1.3 1,1.3 0.1,0 0.1,0 0.2,0 0.6,0 1.1,-0.4 1.2,-1 1,-7.8 1.8,-18.2 -1.3,-28.5 -0.2,-0.6 -0.9,-1 -1.5,-0.8 -0.6,0.2 -1,0.9 -0.8,1.5 3,9.9 2.2,19.9 1.2,27.5 z"
   id="path2082"
   inkscape:connector-curvature="0" />
		<path
   d="m 329.7,180.6 c 0.1,0 0.1,0 0.2,0 0.6,0 1.1,-0.4 1.2,-1 0.4,-3 0.9,-5.9 1.5,-9 l 0.2,-1.3 c 0.1,-0.7 -0.3,-1.3 -1,-1.4 -0.6,-0.1 -1.3,0.3 -1.4,1 l -0.2,1.3 c -0.5,3.1 -1,6 -1.5,9.1 -0.2,0.6 0.3,1.2 1,1.3 z"
   id="path2084"
   inkscape:connector-curvature="0" />
		<path
   d="m 463.1,401.2 c -0.6,-0.1 -1.3,0.4 -1.3,1.1 -0.2,1.8 -0.5,3.6 -0.8,5.3 -0.1,0.7 0.3,1.3 1,1.4 0.1,0 0.1,0 0.2,0 0.6,0 1.1,-0.4 1.2,-1 0.3,-1.8 0.6,-3.6 0.8,-5.5 0,-0.6 -0.5,-1.2 -1.1,-1.3 z"
   id="path2086"
   inkscape:connector-curvature="0" />
		<path
   d="m 461.2,412.4 c -0.7,-0.1 -1.3,0.3 -1.4,1 l -0.2,1.2 c -1,6 -2.1,12.2 -2,18.4 0,0.7 0.5,1.2 1.2,1.2 v 0 c 0.7,0 1.2,-0.6 1.2,-1.2 -0.1,-5.9 1,-12 2,-17.9 l 0.2,-1.2 c 0.1,-0.7 -0.3,-1.3 -1,-1.5 z"
   id="path2088"
   inkscape:connector-curvature="0" />
		<path
   d="m 460.7,445.6 c 0.1,0 0.3,0 0.4,-0.1 0.6,-0.2 1,-0.9 0.7,-1.5 -0.6,-1.7 -1,-3.4 -1.3,-5.8 -0.1,-0.7 -0.7,-1.1 -1.4,-1 -0.7,0.1 -1.1,0.7 -1,1.4 0.4,2.5 0.8,4.4 1.5,6.2 0.2,0.5 0.6,0.8 1.1,0.8 z"
   id="path2090"
   inkscape:connector-curvature="0" />
		<path
   d="m 450.2,399.4 v 0 c 0.7,0 1.2,-0.5 1.3,-1.1 0.1,-2.5 0.1,-4.7 -0.1,-6.8 -0.1,-0.7 -0.7,-1.1 -1.3,-1.1 -0.7,0.1 -1.1,0.6 -1.1,1.3 0.2,1.9 0.2,4 0.1,6.4 -0.1,0.7 0.4,1.3 1.1,1.3 z"
   id="path2092"
   inkscape:connector-curvature="0" />
		<path
   d="m 448.3,404.6 c -0.3,2.5 -0.7,5 -1.2,7.4 -0.1,0.6 0.3,1.3 0.9,1.4 0.1,0 0.2,0 0.2,0 0.6,0 1.1,-0.4 1.2,-1 0.5,-2.5 0.9,-5.1 1.2,-7.6 0.1,-0.7 -0.4,-1.3 -1,-1.3 -0.6,-0.1 -1.2,0.4 -1.3,1.1 z"
   id="path2094"
   inkscape:connector-curvature="0" />
		<path
   d="m 446.2,417.5 c -0.4,1.7 -0.7,3.7 -0.9,5.6 -0.1,0.7 0.4,1.3 1.1,1.3 h 0.1 c 0.6,0 1.1,-0.5 1.2,-1.1 0.2,-1.9 0.5,-3.7 0.9,-5.4 0.1,-0.6 -0.3,-1.3 -0.9,-1.4 -0.8,-0.1 -1.4,0.3 -1.5,1 z"
   id="path2096"
   inkscape:connector-curvature="0" />
		<path
   d="m 437.4,382.6 c -0.2,-0.6 -0.9,-1 -1.5,-0.8 -0.6,0.2 -1,0.9 -0.8,1.5 1,3 1.5,6.1 1.7,9.8 0,0.6 0.6,1.1 1.2,1.1 0,0 0,0 0.1,0 0.7,0 1.2,-0.6 1.1,-1.3 -0.2,-3.8 -0.8,-7.1 -1.8,-10.3 z"
   id="path2098"
   inkscape:connector-curvature="0" />
		<path
   d="m 437.9,399.1 c -0.7,-0.1 -1.2,0.4 -1.3,1.1 -0.2,2.4 -0.5,4.7 -0.9,6.9 -0.1,0.7 0.3,1.3 1,1.4 0.1,0 0.1,0 0.2,0 0.6,0 1.1,-0.4 1.2,-1 0.4,-2.3 0.7,-4.6 0.9,-7.1 0.1,-0.6 -0.4,-1.2 -1.1,-1.3 z"
   id="path2100"
   inkscape:connector-curvature="0" />
		<path
   d="m 366.9,411 c 0.6,0 1.1,-0.4 1.2,-1 0.4,-2.5 0.8,-5 1.1,-7.5 0.1,-0.7 -0.4,-1.3 -1,-1.3 -0.7,-0.1 -1.3,0.4 -1.3,1 -0.3,2.5 -0.7,5 -1.1,7.4 v 0 c -0.1,0.7 0.3,1.3 1.1,1.4 -0.1,0 0,0 0,0 z"
   id="path2102"
   inkscape:connector-curvature="0" />
		<path
   d="m 364.6,415.5 c -0.1,0.9 -0.3,1.8 -0.4,2.7 -0.2,0.9 -0.3,1.9 -0.5,2.8 -0.1,0.7 0.3,1.3 1,1.4 0.1,0 0.1,0 0.2,0 0.6,0 1.1,-0.4 1.2,-1 0.2,-0.9 0.3,-1.9 0.5,-2.8 0.1,-0.9 0.3,-1.8 0.4,-2.7 0.1,-0.7 -0.3,-1.3 -1,-1.4 -0.6,-0.1 -1.2,0.4 -1.4,1 z"
   id="path2104"
   inkscape:connector-curvature="0" />
		<path
   d="m 366.2,445.6 c 0.6,-0.2 1,-0.9 0.8,-1.5 -1.6,-5 -2.1,-10.4 -1.5,-17 0.1,-0.7 -0.4,-1.2 -1.1,-1.3 -0.7,-0.1 -1.2,0.4 -1.3,1.1 -0.6,7 -0.1,12.7 1.7,18 0.2,0.5 0.6,0.8 1.1,0.8 0.1,-0.1 0.2,-0.1 0.3,-0.1 z"
   id="path2106"
   inkscape:connector-curvature="0" />
		<path
   d="m 380.6,405.9 c 0.1,0 0.1,0 0.2,0 0.6,0 1.1,-0.4 1.2,-1 0.7,-5 0.9,-9.4 0.6,-13.4 0,-0.7 -0.6,-1.2 -1.3,-1.1 -0.7,0 -1.2,0.6 -1.1,1.3 0.3,3.9 0.1,8.1 -0.6,13 -0.1,0.5 0.3,1.1 1,1.2 z"
   id="path2108"
   inkscape:connector-curvature="0" />
		<path
   d="m 378.6,410.1 c -0.1,0.6 -0.2,1.2 -0.3,1.8 -0.1,0.6 -0.3,1.3 -0.4,2 -0.1,0.7 0.3,1.3 1,1.4 0.1,0 0.1,0 0.2,0 0.6,0 1.1,-0.4 1.2,-1 0.1,-0.6 0.2,-1.2 0.3,-1.8 0.1,-0.6 0.3,-1.3 0.4,-2 0.1,-0.7 -0.3,-1.3 -1,-1.4 -0.6,-0.1 -1.3,0.4 -1.4,1 z"
   id="path2110"
   inkscape:connector-curvature="0" />
		<path
   d="m 377,419 c -0.1,0.7 -0.2,1.4 -0.3,2 -0.1,0.7 -0.2,1.3 -0.3,2 -0.1,0.7 0.3,1.3 1,1.4 0.1,0 0.1,0 0.2,0 0.6,0 1.1,-0.4 1.2,-1 0.1,-0.6 0.2,-1.3 0.3,-2 0.1,-0.7 0.2,-1.4 0.3,-2 0.1,-0.7 -0.3,-1.3 -1,-1.4 -0.6,-0.1 -1.3,0.4 -1.4,1 z"
   id="path2112"
   inkscape:connector-curvature="0" />
		<path
   d="m 391.6,381.9 c -0.6,0.2 -1,0.9 -0.8,1.5 0.9,2.9 1.4,5.5 1.6,7.8 0,0.6 0.6,1.1 1.2,1.1 h 0.1 c 0.7,0 1.2,-0.6 1.1,-1.3 -0.2,-2.5 -0.7,-5.2 -1.6,-8.4 -0.3,-0.6 -1,-0.9 -1.6,-0.7 z"
   id="path2114"
   inkscape:connector-curvature="0" />
		<path
   d="m 392.5,396.9 c -0.1,3.2 -0.4,6.5 -1.1,10.2 -0.1,0.7 0.3,1.3 1,1.4 0.1,0 0.1,0 0.2,0 0.6,0 1.1,-0.4 1.2,-1 0.7,-3.9 1,-7.2 1.1,-10.6 0,-0.7 -0.5,-1.2 -1.2,-1.2 -0.6,0 -1.2,0.5 -1.2,1.2 z"
   id="path2116"
   inkscape:connector-curvature="0" />
		<path
   d="m 632.6,343.6 c -0.7,-0.1 -1.3,0.4 -1.3,1.1 -0.2,1.8 -0.5,3.6 -0.8,5.3 -0.1,0.7 0.3,1.3 1,1.4 0.1,0 0.1,0 0.2,0 0.6,0 1.1,-0.4 1.2,-1 0.3,-1.8 0.6,-3.6 0.8,-5.5 0,-0.6 -0.5,-1.2 -1.1,-1.3 z"
   id="path2118"
   inkscape:connector-curvature="0" />
		<path
   d="m 631.7,356.3 c 0.1,-0.7 -0.3,-1.3 -1,-1.4 -0.7,-0.1 -1.3,0.3 -1.4,1 l -0.2,1.2 c -1,6 -2.1,12.2 -2,18.4 0,0.7 0.5,1.2 1.2,1.2 v 0 c 0.7,0 1.2,-0.6 1.2,-1.2 -0.1,-5.9 1,-12 2,-17.9 z"
   id="path2120"
   inkscape:connector-curvature="0" />
		<path
   d="m 628.7,379.7 c -0.7,0.1 -1.1,0.7 -1,1.4 0.4,2.5 0.8,4.4 1.5,6.2 0.2,0.5 0.6,0.8 1.1,0.8 0.1,0 0.3,0 0.4,-0.1 0.6,-0.2 1,-0.9 0.7,-1.5 -0.6,-1.7 -1,-3.4 -1.3,-5.8 -0.2,-0.6 -0.8,-1.1 -1.4,-1 z"
   id="path2122"
   inkscape:connector-curvature="0" />
		<path
   d="m 619.7,341.8 v 0 c 0.7,0 1.2,-0.5 1.3,-1.1 0.1,-2.5 0.1,-4.7 -0.1,-6.8 -0.1,-0.7 -0.6,-1.1 -1.3,-1.1 -0.7,0.1 -1.1,0.6 -1.1,1.3 0.2,1.9 0.2,4 0.1,6.4 -0.1,0.7 0.4,1.3 1.1,1.3 z"
   id="path2124"
   inkscape:connector-curvature="0" />
		<path
   d="m 617.8,347.1 c -0.3,2.5 -0.7,5 -1.2,7.4 -0.1,0.6 0.3,1.3 0.9,1.4 0.1,0 0.2,0 0.2,0 0.6,0 1.1,-0.4 1.2,-1 0.5,-2.5 0.9,-5.1 1.2,-7.6 0.1,-0.7 -0.4,-1.3 -1,-1.3 -0.6,0 -1.2,0.4 -1.3,1.1 z"
   id="path2126"
   inkscape:connector-curvature="0" />
		<path
   d="m 617.1,359 c -0.6,-0.1 -1.3,0.3 -1.4,0.9 -0.4,1.7 -0.7,3.7 -0.9,5.6 -0.1,0.7 0.4,1.3 1.1,1.3 h 0.1 c 0.6,0 1.1,-0.5 1.2,-1.1 0.2,-1.9 0.5,-3.7 0.9,-5.4 0,-0.5 -0.4,-1.1 -1,-1.3 z"
   id="path2128"
   inkscape:connector-curvature="0" />
		<path
   d="m 606.9,325.1 c -0.2,-0.6 -0.9,-1 -1.5,-0.8 -0.6,0.2 -1,0.9 -0.8,1.5 1,3 1.5,6.1 1.7,9.8 0,0.6 0.6,1.1 1.2,1.1 0,0 0,0 0.1,0 0.7,0 1.2,-0.6 1.1,-1.3 -0.2,-3.8 -0.8,-7.1 -1.8,-10.3 z"
   id="path2130"
   inkscape:connector-curvature="0" />
		<path
   d="m 607.4,341.6 c -0.7,-0.1 -1.2,0.4 -1.3,1.1 -0.2,2.4 -0.5,4.7 -0.9,6.9 -0.1,0.7 0.3,1.3 1,1.4 0.1,0 0.1,0 0.2,0 0.6,0 1.1,-0.4 1.2,-1 0.4,-2.3 0.7,-4.6 0.9,-7.1 0.1,-0.6 -0.4,-1.2 -1.1,-1.3 z"
   id="path2132"
   inkscape:connector-curvature="0" />
		<path
   d="m 536.3,344.7 c -0.3,2.5 -0.7,5 -1.1,7.5 -0.1,0.7 0.3,1.3 1,1.4 0.1,0 0.1,0 0.2,0 0.6,0 1.1,-0.4 1.2,-1 0.4,-2.5 0.8,-5 1.1,-7.5 0.1,-0.7 -0.4,-1.3 -1,-1.3 -0.7,-0.3 -1.3,0.2 -1.4,0.9 z"
   id="path2134"
   inkscape:connector-curvature="0" />
		<path
   d="m 534.2,364.8 c 0.1,0 0.1,0 0.2,0 0.6,0 1.1,-0.4 1.2,-1 0.1,-0.9 0.3,-1.8 0.4,-2.7 0.2,-1 0.3,-1.9 0.5,-2.8 0.1,-0.7 -0.3,-1.3 -1,-1.4 -0.7,-0.1 -1.3,0.3 -1.4,1 -0.2,0.9 -0.3,1.9 -0.5,2.9 -0.1,0.9 -0.3,1.8 -0.4,2.7 -0.1,0.6 0.4,1.2 1,1.3 z"
   id="path2136"
   inkscape:connector-curvature="0" />
		<path
   d="m 535.7,388.1 c 0.6,-0.2 1,-0.9 0.8,-1.5 -1.6,-5 -2.1,-10.4 -1.5,-17 0.1,-0.7 -0.4,-1.2 -1.1,-1.3 -0.7,-0.1 -1.2,0.4 -1.3,1.1 -0.6,7 -0.1,12.7 1.7,18 0.2,0.5 0.6,0.8 1.1,0.8 0.1,-0.1 0.2,-0.1 0.3,-0.1 z"
   id="path2138"
   inkscape:connector-curvature="0" />
		<path
   d="m 550.1,348.4 c 0.1,0 0.1,0 0.2,0 0.6,0 1.1,-0.4 1.2,-1 0.7,-5 0.9,-9.4 0.6,-13.4 0,-0.7 -0.6,-1.2 -1.3,-1.1 -0.7,0 -1.2,0.6 -1.1,1.3 0.3,3.9 0.1,8.1 -0.6,13 -0.1,0.5 0.3,1.1 1,1.2 z"
   id="path2140"
   inkscape:connector-curvature="0" />
		<path
   d="m 548.1,352.6 c -0.1,0.6 -0.2,1.2 -0.3,1.8 -0.1,0.6 -0.3,1.3 -0.4,2 -0.1,0.7 0.3,1.3 1,1.4 0.1,0 0.1,0 0.2,0 0.6,0 1.1,-0.4 1.2,-1 0.1,-0.6 0.2,-1.2 0.3,-1.8 0.1,-0.6 0.3,-1.3 0.4,-2 0.1,-0.7 -0.3,-1.3 -1,-1.4 -0.6,-0.1 -1.3,0.4 -1.4,1 z"
   id="path2142"
   inkscape:connector-curvature="0" />
		<path
   d="m 546.5,361.5 -0.3,1.9 c -0.1,0.7 -0.2,1.4 -0.3,2.1 -0.1,0.7 0.3,1.3 1,1.4 0.1,0 0.1,0 0.2,0 0.6,0 1.1,-0.4 1.2,-1 0.1,-0.7 0.2,-1.4 0.3,-2.1 l 0.3,-1.9 c 0.1,-0.7 -0.3,-1.3 -1,-1.4 -0.6,-0.1 -1.3,0.4 -1.4,1 z"
   id="path2144"
   inkscape:connector-curvature="0" />
		<path
   d="m 561.1,324.3 c -0.6,0.2 -1,0.9 -0.8,1.5 0.9,2.9 1.4,5.5 1.6,7.8 0,0.6 0.6,1.1 1.2,1.1 h 0.1 c 0.7,0 1.2,-0.6 1.1,-1.3 -0.2,-2.5 -0.7,-5.2 -1.6,-8.4 -0.3,-0.6 -1,-0.9 -1.6,-0.7 z"
   id="path2146"
   inkscape:connector-curvature="0" />
		<path
   d="m 562,339.4 c -0.1,3.2 -0.4,6.5 -1.1,10.2 -0.1,0.7 0.3,1.3 1,1.4 0.1,0 0.1,0 0.2,0 0.6,0 1.1,-0.4 1.2,-1 0.7,-3.9 1,-7.3 1.1,-10.6 0,-0.7 -0.5,-1.2 -1.2,-1.2 -0.6,0 -1.2,0.5 -1.2,1.2 z"
   id="path2148"
   inkscape:connector-curvature="0" />
		<path
   d="m 246.7,266.5 c 0.2,0 0.4,-0.1 0.6,-0.2 0.2,-0.1 1.6,-1 2.2,-2.6 0.2,-0.6 -0.1,-1.3 -0.7,-1.6 -0.6,-0.2 -1.3,0.1 -1.6,0.7 -0.3,0.9 -1.2,1.4 -1.2,1.4 -0.6,0.3 -0.8,1.1 -0.4,1.6 0.3,0.5 0.7,0.7 1.1,0.7 z"
   id="path2150"
   inkscape:connector-curvature="0" />
		<path
   d="m 406,348.7 c -0.1,0.5 -0.2,1.1 -0.2,1.5 -0.4,2.5 1.1,5 3.5,5.8 0.1,0 0.3,0.1 0.4,0.1 0.5,0 1,-0.3 1.1,-0.8 0.2,-0.6 -0.1,-1.3 -0.8,-1.5 -1.2,-0.4 -2.1,-1.9 -1.9,-3.2 0,-0.5 0.1,-1 0.2,-1.5 0.1,-0.5 0.2,-1.1 0.2,-1.6 0.1,-0.7 0.4,-1.2 0.9,-1.4 0.6,-0.3 0.9,-1 0.6,-1.6 -0.3,-0.6 -1,-0.9 -1.6,-0.6 -1.3,0.6 -2.2,1.8 -2.3,3.4 0.1,0.4 0,0.9 -0.1,1.4 z"
   id="path2152"
   inkscape:connector-curvature="0" />
		<path
   d="m 413.1,349.7 c -0.6,-0.3 -1.3,0 -1.6,0.6 -0.3,0.6 0,1.3 0.6,1.6 1.2,0.6 2,2.2 1.6,3.6 -0.2,0.9 -0.5,1.9 -0.8,2.9 -0.2,0.8 -0.8,1.3 -1.5,1.3 -0.7,0 -1.2,0.5 -1.2,1.2 0,0.7 0.5,1.2 1.2,1.2 1.8,0 3.3,-1.2 3.8,-3.1 0.3,-1 0.6,-2.1 0.8,-3 0.7,-2.4 -0.6,-5.2 -2.9,-6.3 z"
   id="path2154"
   inkscape:connector-curvature="0" />
		<path
   d="m 410.4,331.9 c 0.6,-0.2 1,-0.9 0.8,-1.5 -0.2,-0.6 -0.9,-1 -1.5,-0.8 -1.8,0.6 -2.9,2.4 -2.6,4.3 0.1,0.5 0.1,1.1 0.2,1.6 0.1,0.5 0.1,1 0.2,1.6 0.4,2.6 2.6,4.7 5.1,4.8 0,0 0,0 0.1,0 0.6,0 1.2,-0.5 1.2,-1.1 0,-0.7 -0.5,-1.2 -1.1,-1.3 -1.3,-0.1 -2.7,-1.3 -2.9,-2.7 -0.1,-0.5 -0.1,-1.1 -0.2,-1.6 -0.1,-0.5 -0.1,-1 -0.2,-1.5 -0.2,-0.9 0.2,-1.6 0.9,-1.8 z"
   id="path2156"
   inkscape:connector-curvature="0" />
		<path
   d="m 415.4,342.3 c -0.6,0.3 -0.8,1.1 -0.4,1.6 0.2,0.4 0.6,0.6 1,0.6 0.2,0 0.4,-0.1 0.6,-0.2 0.2,-0.1 1.6,-1 2.2,-2.6 0.2,-0.6 -0.1,-1.3 -0.7,-1.6 -0.6,-0.2 -1.3,0.1 -1.6,0.7 -0.2,1 -1.1,1.5 -1.1,1.5 z"
   id="path2158"
   inkscape:connector-curvature="0" />
		<path
   d="m 233.7,291.1 c -0.2,0.6 0.2,1.3 0.9,1.5 0.1,0 0.2,0 0.3,0 0.5,0 1,-0.4 1.2,-0.9 0,-0.1 0.6,-2.1 3.3,-2 0.7,0 1.2,-0.5 1.3,-1.1 0,-0.7 -0.5,-1.2 -1.1,-1.3 -3.9,-0.2 -5.6,2.4 -5.9,3.8 z"
   id="path2160"
   inkscape:connector-curvature="0" />
		<path
   d="m 406.1,368.9 c 0.2,0.3 0.6,0.5 1,0.5 0.2,0 0.5,-0.1 0.7,-0.2 0.6,-0.4 0.7,-1.1 0.4,-1.7 -0.1,-0.2 -1.2,-2 0.6,-3.8 0.5,-0.5 0.5,-1.2 0,-1.7 -0.5,-0.5 -1.2,-0.5 -1.7,0 -2.6,2.7 -1.8,5.7 -1,6.9 z"
   id="path2162"
   inkscape:connector-curvature="0" />
		<path
   d="m 417.1,325.7 c -0.6,0.4 -0.7,1.1 -0.4,1.7 0.2,0.4 0.6,0.6 1,0.6 0.2,0 0.4,-0.1 0.6,-0.2 2,-1.3 3.1,-2.7 3.4,-4.4 0.3,-1.9 -0.8,-3.2 -0.9,-3.3 -0.4,-0.5 -1.2,-0.6 -1.7,-0.1 -0.5,0.4 -0.6,1.2 -0.1,1.7 0,0 0.5,0.6 0.4,1.4 -0.2,0.8 -0.9,1.7 -2.3,2.6 z"
   id="path2164"
   inkscape:connector-curvature="0" />
		<path
   d="m 587.7,313.3 c 0,-0.7 -0.6,-1.2 -1.3,-1.1 -1.3,0.1 -2.6,-1 -3,-2.3 -0.2,-1.1 -0.5,-2.1 -0.8,-3.1 -0.2,-0.9 0.1,-1.4 0.4,-1.7 0.4,-0.5 0.4,-1.3 -0.1,-1.7 -0.5,-0.4 -1.3,-0.4 -1.7,0.1 -0.9,1.1 -1.2,2.5 -0.8,3.9 0.3,1 0.6,1.9 0.8,3 0.6,2.4 2.8,4.2 5.2,4.2 0.1,0 0.2,0 0.2,0 0.7,-0.1 1.2,-0.7 1.1,-1.3 z"
   id="path2166"
   inkscape:connector-curvature="0" />
		<path
   d="m 589.8,317.2 c -0.6,0.2 -1,0.9 -0.8,1.5 0.2,0.5 0.6,0.8 1.1,0.8 0.1,0 0.3,0 0.4,-0.1 1.7,-0.6 2.8,-2.3 2.6,-4.3 -0.1,-0.5 -0.1,-1.1 -0.2,-1.6 -0.1,-0.5 -0.1,-1 -0.2,-1.5 -0.3,-2.4 -2.5,-4.6 -5,-4.9 -0.7,-0.1 -1.2,0.4 -1.3,1.1 -0.1,0.7 0.4,1.2 1.1,1.3 1.4,0.1 2.7,1.4 2.8,2.7 0.1,0.5 0.1,1.1 0.2,1.6 0.1,0.5 0.1,1 0.2,1.5 0.2,1 -0.2,1.7 -0.9,1.9 z"
   id="path2168"
   inkscape:connector-curvature="0" />
		<path
   d="m 579.2,290 c -0.4,-0.5 -1.2,-0.6 -1.7,-0.2 -1.5,1.2 -1.8,3.2 -0.9,4.9 l 1.5,2.7 c 0.9,1.7 3,2.9 5,2.9 0.5,0 0.9,-0.1 1.4,-0.2 0.6,-0.2 1,-0.8 0.8,-1.5 -0.2,-0.6 -0.8,-1 -1.5,-0.8 -1.3,0.4 -3,-0.3 -3.6,-1.5 l -1.5,-2.7 c -0.4,-0.7 -0.3,-1.4 0.3,-1.9 0.5,-0.5 0.6,-1.2 0.2,-1.7 z"
   id="path2170"
   inkscape:connector-curvature="0" />
		<path
   d="m 589.1,296.5 c -0.7,0 -1.2,0.5 -1.2,1.2 0,1 -0.6,1.7 -0.6,1.7 -0.4,0.5 -0.4,1.2 0.1,1.7 0.2,0.2 0.5,0.3 0.8,0.3 0.3,0 0.7,-0.1 0.9,-0.4 0.1,-0.1 1.2,-1.4 1.2,-3.3 0,-0.6 -0.5,-1.2 -1.2,-1.2 z"
   id="path2172"
   inkscape:connector-curvature="0" />
		<path
   d="m 583,320.9 c -1.4,0.8 -1.9,2.2 -1.9,2.3 -0.2,0.6 0.2,1.3 0.8,1.5 0.1,0 0.2,0.1 0.4,0.1 0.5,0 1,-0.3 1.1,-0.8 0.2,-0.5 0.7,-1.5 2.4,-0.9 0.6,0.2 1.3,-0.1 1.5,-0.8 0.2,-0.6 -0.1,-1.3 -0.8,-1.5 -1.3,-0.4 -2.5,-0.4 -3.5,0.1 z"
   id="path2174"
   inkscape:connector-curvature="0" />
		<path
   d="m 583.2,286.3 c -0.6,-0.1 -1.3,0.3 -1.4,1 -0.1,0.7 0.3,1.3 1,1.4 0.3,0 2.8,0.5 2.5,3.6 -0.1,0.7 0.4,1.2 1.1,1.3 h 0.1 c 0.6,0 1.1,-0.5 1.2,-1.1 0.4,-4.3 -2.8,-5.9 -4.5,-6.2 z"
   id="path2176"
   inkscape:connector-curvature="0" />
	</g>
</g>
</svg>