<?xml version="1.0" encoding="UTF-8" standalone="no"?>
<!-- Generator: Adobe Illustrator 21.0.0, SVG Export Plug-In . SVG Version: 6.00 Build 0)  -->

<svg
   xmlns:dc="http://purl.org/dc/elements/1.1/"
   xmlns:cc="http://creativecommons.org/ns#"
   xmlns:rdf="http://www.w3.org/1999/02/22-rdf-syntax-ns#"
   xmlns:svg="http://www.w3.org/2000/svg"
   xmlns="http://www.w3.org/2000/svg"
   xmlns:sodipodi="http://sodipodi.sourceforge.net/DTD/sodipodi-0.dtd"
   xmlns:inkscape="http://www.inkscape.org/namespaces/inkscape"
   version="1.1"
   id="Layer_1"
   x="0px"
   y="0px"
   viewBox="0 0 269.55249 216.57153"
   xml:space="preserve"
   sodipodi:docname="a-plaque-previewing-the-parchment_touched.svg"
   width="269.55249"
   height="216.57153"
   inkscape:version="0.92.4 (33fec40, 2019-01-16)"><metadata
   id="metadata576"><rdf:RDF><cc:Work
       rdf:about=""><dc:format>image/svg+xml</dc:format><dc:type
         rdf:resource="http://purl.org/dc/dcmitype/StillImage" /><dc:title></dc:title></cc:Work></rdf:RDF></metadata><defs
   id="defs574" /><sodipodi:namedview
   pagecolor="#ffffff"
   bordercolor="#666666"
   borderopacity="1"
   objecttolerance="10"
   gridtolerance="10"
   guidetolerance="10"
   inkscape:pageopacity="0"
   inkscape:pageshadow="2"
   inkscape:window-width="3840"
   inkscape:window-height="2112"
   id="namedview572"
   showgrid="false"
   fit-margin-top="0"
   fit-margin-left="0"
   fit-margin-right="0"
   fit-margin-bottom="0"
   inkscape:zoom="3.337544"
   inkscape:cx="13.34816"
   inkscape:cy="48.169855"
   inkscape:window-x="0"
   inkscape:window-y="48"
   inkscape:window-maximized="1"
   inkscape:current-layer="Layer_1" />
<g
   id="g569"
   transform="translate(-65.211861,-91.694808)">
	<path
   class="st0"
   d="M 77.2,133.5 C 6.1,274.9 272.2,371.7 326.3,258.8 384,138.6 129.7,29.2 77.2,133.5 Z"
   id="path533"
   inkscape:connector-curvature="0" />
	<path
   class="st1"
   d="m 76.6,127.1 v 151.7 l 237,0.6 V 127.1 Z m 11.4,55.3 25.1,-43.8 h 16.6 l -41.6,72.5 z m 41.7,84.9 73.8,-128.7 h 16.6 l -73.8,128.7 z m 41.8,0 h -13.1 l 73.8,-128.7 h 13.1 z"
   id="path535"
   inkscape:connector-curvature="0" />
	<polygon
   class="st2"
   points="302.1,267.3 313.9,279 313.5,127.1 302.1,139.4 "
   id="polygon537" />
	<polygon
   class="st2"
   points="284.4,278.8 88.1,267.8 76.6,278.8 "
   id="polygon539" />
	<polygon
   class="st2"
   points="76.5,252.9 76.6,127.1 87.5,138.6 "
   id="polygon541" />
	<path
   class="st2"
   d="m 269.9,190 c 15.9,8 -10.2,70.9 -29.9,65.1 -26.1,-7.5 5.9,-77.3 29.9,-65.1 z"
   id="path543"
   inkscape:connector-curvature="0" />
	<g
   id="g547">
		<path
   d="m 157.8,186.4 1.7,23.2 h 3.4 l -0.9,3.8 h -12.1 l 1.1,-3.8 h 4 l -0.4,-7 h -10.7 l -4.5,7 h 3.8 l -1.2,3.8 h -12.2 l 1.4,-3.8 h 3.7 l 15.3,-23.2 h -3.3 l 1.2,-3.7 h 14.2 l -1,3.7 z m -3.8,0 h -0.1 l -7.8,12.6 h 8.3 z"
   id="path545"
   inkscape:connector-curvature="0" />
	</g>
	<g
   id="g567">
		<path
   d="M 207.3,163.8 H 144 c -4.9,0 -9.7,1.1 -14,3.2 -9.7,4.7 -21.6,15.2 -23,38.2 -0.3,4.8 -0.6,10.4 -0.8,15.9 -0.3,5.6 -0.5,10.9 -0.8,14.7 0,0.5 0.3,1 0.8,1.2 l 12.5,4.2 c 0.2,0.1 0.5,0.1 0.7,0 l 11.8,-3.3 9.3,4 c 0.2,0.1 0.3,0.1 0.5,0.1 0.1,0 0.2,0 0.3,0 l 12.4,-3.5 13.2,3.5 c 0.2,0 0.4,0.1 0.6,0 l 12.8,-2.7 14,2.7 c 0.5,0.1 1,-0.1 1.3,-0.6 l 9.5,-17.7 c 0.2,-0.3 0.2,-0.7 0.1,-1 l -4.6,-11 6.2,-12.1 c 0,0 0,0 0,-0.1 0,0 0,-0.1 0.1,-0.1 0,-0.1 0,-0.1 0,-0.2 0,-0.1 0,-0.1 0,-0.2 0,-0.1 0,-0.2 0,-0.3 v -0.1 l -3.8,-12.9 5.3,-9 c 0.1,-0.2 0.2,-0.4 0.2,-0.6 V 165 c -0.1,-0.7 -0.7,-1.2 -1.3,-1.2 z m -1.2,12.1 -3.2,5.4 c -0.8,-0.1 -1.6,-0.1 -2.5,-0.1 -4.4,0 -6.7,0.9 -8.9,1.7 -2.1,0.8 -4,1.6 -8,1.6 -0.7,0 -1.2,0.5 -1.2,1.2 0,0.7 0.5,1.2 1.2,1.2 4.4,0 6.7,-0.9 8.9,-1.7 2.1,-0.8 4,-1.6 8,-1.6 0.4,0 0.8,0 1.2,0 l -0.8,1.4 c -0.2,0.3 -0.2,0.6 -0.1,0.9 L 204,197 c -2,-0.8 -4.3,-1.5 -8.3,-1.5 -4.4,0 -6.7,0.9 -8.9,1.7 -2.1,0.8 -4,1.6 -8,1.6 -0.7,0 -1.2,0.5 -1.2,1.2 0,0.7 0.5,1.2 1.2,1.2 4.4,0 6.7,-0.9 8.9,-1.7 2.1,-0.8 4,-1.6 8,-1.6 4,0 6,0.8 8,1.6 0.2,0.1 0.3,0.1 0.5,0.2 l -5.4,10.6 c -1.3,-0.2 -2.8,-0.4 -4.4,-0.4 -4.5,0 -6.7,0.9 -8.9,1.7 -2.1,0.8 -4,1.6 -8,1.6 -0.7,0 -1.2,0.5 -1.2,1.2 0,0.7 0.5,1.2 1.2,1.2 4.5,0 6.7,-0.9 8.9,-1.7 2.1,-0.8 4,-1.6 8,-1.6 1.6,0 2.9,0.1 4.2,0.4 l 4.3,10.4 -1.4,2.6 c -2.2,-0.8 -4.4,-1.5 -8.4,-1.5 -4.5,0 -6.8,0.9 -9,1.7 -2.1,0.8 -4.1,1.6 -8.1,1.6 -4.1,0 -6,-0.8 -8.1,-1.6 -2.2,-0.8 -4.5,-1.7 -9,-1.7 -4.5,0 -6.8,0.9 -9,1.7 -2.1,0.8 -4.1,1.6 -8.1,1.6 -4,0 -6,-0.8 -8.1,-1.6 -2.2,-0.8 -4.5,-1.7 -9,-1.7 -0.7,0 -1.2,0.5 -1.2,1.2 0,0.7 0.5,1.2 1.2,1.2 4.1,0 6,0.8 8.1,1.6 2.2,0.8 4.5,1.7 9,1.7 4.5,0 6.8,-0.9 9,-1.7 2.1,-0.8 4.1,-1.6 8.1,-1.6 4,0 6,0.8 8.1,1.6 2.2,0.8 4.5,1.7 9,1.7 4.5,0 6.8,-0.9 9,-1.7 2.1,-0.8 4.1,-1.6 8.1,-1.6 3.4,0 5.3,0.5 7.2,1.2 l -6.3,11.6 -13.4,-2.6 c -0.2,0 -0.3,0 -0.5,0 l -12.8,2.7 -13.2,-3.5 c -0.1,0 -0.2,0 -0.3,0 -0.1,0 -0.2,0 -0.3,0 l -12.3,3.5 -9.3,-4 c -0.3,-0.1 -0.5,-0.1 -0.8,-0.1 l -11.8,3.3 -2.3,-0.8 v 0 l -6.4,-2.2 c -1.2,-0.4 -2,-0.7 -2.6,-0.9 0.2,-3.8 0.5,-8.7 0.7,-13.8 0.3,-5.5 0.5,-11.2 0.8,-15.9 1.3,-21.8 12.5,-31.7 21.7,-36.2 3.9,-1.9 8.4,-2.9 12.9,-2.9 h 62.1 z"
   id="path549"
   inkscape:connector-curvature="0" />
		<path
   d="m 88.1,268.5 h 214 c 0.7,0 1.2,-0.5 1.2,-1.2 V 138.6 c 0,-0.7 -0.5,-1.2 -1.2,-1.2 h -214 c -0.7,0 -1.2,0.5 -1.2,1.2 v 128.7 c 0,0.6 0.5,1.2 1.2,1.2 z M 89.3,139.8 H 300.9 V 266.1 H 89.3 Z"
   id="path551"
   inkscape:connector-curvature="0" />
		<path
   d="m 313.5,125.9 h -237 c -0.7,0 -1.2,0.5 -1.2,1.2 v 151.7 c 0,0.7 0.5,1.2 1.2,1.2 h 237 c 0.7,0 1.2,-0.5 1.2,-1.2 V 127.1 c 0,-0.6 -0.5,-1.2 -1.2,-1.2 z m -1.2,151.7 H 77.8 V 128.3 h 234.6 v 149.3 z"
   id="path553"
   inkscape:connector-curvature="0" />
		<path
   d="m 250.4,160.4 -2.6,3.4 h -16.1 c -0.7,0 -1.2,0.5 -1.2,1.2 v 16.8 c 0,0.7 0.5,1.2 1.2,1.2 h 16.8 c 0.7,0 1.2,-0.5 1.2,-1.2 v -16.5 l 2.7,-3.4 c 0.4,-0.5 0.3,-1.3 -0.2,-1.7 -0.7,-0.4 -1.4,-0.3 -1.8,0.2 z m -3.2,20.2 h -14.4 v -14.4 h 13.1 l -5.9,7.6 -3.7,-4.2 c -0.4,-0.5 -1.2,-0.5 -1.7,-0.1 -0.5,0.4 -0.5,1.2 -0.1,1.7 l 4.7,5.3 c 0.2,0.3 0.6,0.4 0.9,0.4 v 0 c 0.4,0 0.7,-0.2 0.9,-0.5 l 6.2,-8 z"
   id="path555"
   inkscape:connector-curvature="0" />
		<path
   d="m 250.4,190.4 -2.3,2.9 h -16.5 c -0.7,0 -1.2,0.5 -1.2,1.2 v 16.8 c 0,0.7 0.5,1.2 1.2,1.2 h 16.8 c 0.7,0 1.2,-0.5 1.2,-1.2 v -16 l 2.7,-3.4 c 0.4,-0.5 0.3,-1.3 -0.2,-1.7 -0.6,-0.4 -1.3,-0.3 -1.7,0.2 z m -3.2,19.8 h -14.4 v -14.4 h 13.4 l -6.3,8.1 -3.7,-4.2 c -0.4,-0.5 -1.2,-0.5 -1.7,-0.1 -0.5,0.4 -0.5,1.2 -0.1,1.7 l 4.7,5.3 c 0.2,0.3 0.6,0.4 0.9,0.4 v 0 c 0.4,0 0.7,-0.2 0.9,-0.5 l 6.2,-8 v 11.7 z"
   id="path557"
   inkscape:connector-curvature="0" />
		<path
   d="m 250.4,220.2 -2.1,2.7 h -16.7 c -0.7,0 -1.2,0.5 -1.2,1.2 v 16.8 c 0,0.7 0.5,1.2 1.2,1.2 h 16.8 c 0.7,0 1.2,-0.5 1.2,-1.2 v -15.8 l 2.7,-3.4 c 0.4,-0.5 0.3,-1.3 -0.2,-1.7 -0.6,-0.4 -1.3,-0.4 -1.7,0.2 z m -3.2,19.5 h -14.4 v -14.4 h 13.6 l -6.4,8.3 -3.7,-4.2 c -0.4,-0.5 -1.2,-0.5 -1.7,-0.1 -0.5,0.4 -0.5,1.2 -0.1,1.7 l 4.7,5.3 c 0.2,0.3 0.6,0.4 0.9,0.4 v 0 c 0.4,0 0.7,-0.2 0.9,-0.5 l 6.2,-8 z"
   id="path559"
   inkscape:connector-curvature="0" />
		<path
   d="m 284.4,172.7 c -1.9,0 -2.8,-0.2 -3.8,-0.5 -1.1,-0.3 -2.2,-0.5 -4.4,-0.5 -2.2,0 -3.3,0.3 -4.4,0.5 -1,0.2 -1.9,0.5 -3.8,0.5 -1.9,0 -2.8,-0.2 -3.8,-0.5 -1.1,-0.3 -2.2,-0.5 -4.4,-0.5 -0.7,0 -1.2,0.5 -1.2,1.2 0,0.7 0.5,1.2 1.2,1.2 1.9,0 2.8,0.2 3.8,0.5 1.1,0.3 2.2,0.5 4.4,0.5 2.2,0 3.3,-0.3 4.4,-0.5 1,-0.2 1.9,-0.5 3.8,-0.5 1.9,0 2.8,0.2 3.8,0.5 1.1,0.3 2.2,0.5 4.4,0.5 0.7,0 1.2,-0.5 1.2,-1.2 0,-0.7 -0.6,-1.2 -1.2,-1.2 z"
   id="path561"
   inkscape:connector-curvature="0" />
		<path
   d="m 284.4,202.3 c -1.9,0 -2.8,-0.2 -3.8,-0.5 -1.1,-0.3 -2.2,-0.5 -4.4,-0.5 -2.2,0 -3.3,0.3 -4.4,0.5 -1,0.2 -1.9,0.5 -3.8,0.5 -1.9,0 -2.8,-0.2 -3.8,-0.5 -1.1,-0.3 -2.2,-0.5 -4.4,-0.5 -0.7,0 -1.2,0.5 -1.2,1.2 0,0.7 0.5,1.2 1.2,1.2 1.9,0 2.8,0.2 3.8,0.5 1.1,0.3 2.2,0.5 4.4,0.5 2.2,0 3.3,-0.3 4.4,-0.5 1,-0.2 1.9,-0.5 3.8,-0.5 1.9,0 2.8,0.2 3.8,0.5 1.1,0.3 2.2,0.5 4.4,0.5 0.7,0 1.2,-0.5 1.2,-1.2 0,-0.7 -0.6,-1.2 -1.2,-1.2 z"
   id="path563"
   inkscape:connector-curvature="0" />
		<path
   d="m 284.4,231.8 c -1.9,0 -2.8,-0.2 -3.8,-0.5 -1.1,-0.3 -2.2,-0.5 -4.4,-0.5 -2.2,0 -3.3,0.3 -4.4,0.5 -1,0.2 -1.9,0.5 -3.8,0.5 -1.9,0 -2.8,-0.2 -3.8,-0.5 -1.1,-0.3 -2.2,-0.5 -4.4,-0.5 -0.7,0 -1.2,0.5 -1.2,1.2 0,0.7 0.5,1.2 1.2,1.2 1.9,0 2.8,0.2 3.8,0.5 1.1,0.3 2.2,0.5 4.4,0.5 2.2,0 3.3,-0.3 4.4,-0.5 1,-0.2 1.9,-0.5 3.8,-0.5 1.9,0 2.8,0.2 3.8,0.5 1.1,0.3 2.2,0.5 4.4,0.5 0.7,0 1.2,-0.5 1.2,-1.2 0,-0.7 -0.6,-1.2 -1.2,-1.2 z"
   id="path565"
   inkscape:connector-curvature="0" />
	</g>
</g>
</svg>