<?xml version="1.0" encoding="utf-8"?>
<!-- Generator: Adobe Illustrator 21.0.0, SVG Export Plug-In . SVG Version: 6.00 Build 0)  -->
<svg version="1.1" id="Layer_1" xmlns="http://www.w3.org/2000/svg" xmlns:xlink="http://www.w3.org/1999/xlink" x="0px" y="0px"
	 viewBox="0 0 400 400" style="enable-background:new 0 0 400 400;" xml:space="preserve">
<style type="text/css">
	.st0{opacity:0.5;fill:#7CCFDD;enable-background:new    ;}
	.st1{fill:#FFFFFF;}
	.st2{fill:#7CCFDD;}
</style>
<g>
	<path class="st0" d="M77.2,133.5c-71.1,141.4,195,238.2,249.1,125.3C384,138.6,129.7,29.2,77.2,133.5z"/>
	<path class="st1" d="M76.6,127.1v151.7l237,0.6V127.1H76.6z M88,182.4l25.1-43.8h16.6l-41.6,72.5L88,182.4z M129.7,267.3
		l73.8-128.7h16.6l-73.8,128.7H129.7z M171.5,267.3h-13.1l73.8-128.7h13.1L171.5,267.3z"/>
	<polygon class="st2" points="313.5,127.1 302.1,139.4 302.1,267.3 313.9,279 	"/>
	<polygon class="st2" points="88.1,267.8 76.6,278.8 284.4,278.8 	"/>
	<polygon class="st2" points="76.6,127.1 87.5,138.6 76.5,252.9 	"/>
	<path class="st2" d="M269.9,190c15.9,8-10.2,70.9-29.9,65.1C213.9,247.6,245.9,177.8,269.9,190z"/>
	<g>
		<path d="M157.8,186.4l1.7,23.2h3.4l-0.9,3.8h-12.1l1.1-3.8h4l-0.4-7h-10.7l-4.5,7h3.8l-1.2,3.8h-12.2l1.4-3.8h3.7l15.3-23.2h-3.3
			l1.2-3.7h14.2l-1,3.7H157.8z M154,186.4h-0.1l-7.8,12.6h8.3L154,186.4z"/>
	</g>
	<g>
		<path d="M207.3,163.8H144c-4.9,0-9.7,1.1-14,3.2c-9.7,4.7-21.6,15.2-23,38.2c-0.3,4.8-0.6,10.4-0.8,15.9
			c-0.3,5.6-0.5,10.9-0.8,14.7c0,0.5,0.3,1,0.8,1.2l12.5,4.2c0.2,0.1,0.5,0.1,0.7,0l11.8-3.3l9.3,4c0.2,0.1,0.3,0.1,0.5,0.1
			c0.1,0,0.2,0,0.3,0l12.4-3.5l13.2,3.5c0.2,0,0.4,0.1,0.6,0l12.8-2.7l14,2.7c0.5,0.1,1-0.1,1.3-0.6l9.5-17.7c0.2-0.3,0.2-0.7,0.1-1
			l-4.6-11l6.2-12.1c0,0,0,0,0-0.1c0,0,0-0.1,0.1-0.1c0-0.1,0-0.1,0-0.2c0-0.1,0-0.1,0-0.2c0-0.1,0-0.2,0-0.3v-0.1l-3.8-12.9l5.3-9
			c0.1-0.2,0.2-0.4,0.2-0.6V165C208.5,164.3,207.9,163.8,207.3,163.8z M206.1,175.9l-3.2,5.4c-0.8-0.1-1.6-0.1-2.5-0.1
			c-4.4,0-6.7,0.9-8.9,1.7c-2.1,0.8-4,1.6-8,1.6c-0.7,0-1.2,0.5-1.2,1.2s0.5,1.2,1.2,1.2c4.4,0,6.7-0.9,8.9-1.7c2.1-0.8,4-1.6,8-1.6
			c0.4,0,0.8,0,1.2,0l-0.8,1.4c-0.2,0.3-0.2,0.6-0.1,0.9L204,197c-2-0.8-4.3-1.5-8.3-1.5c-4.4,0-6.7,0.9-8.9,1.7
			c-2.1,0.8-4,1.6-8,1.6c-0.7,0-1.2,0.5-1.2,1.2s0.5,1.2,1.2,1.2c4.4,0,6.7-0.9,8.9-1.7c2.1-0.8,4-1.6,8-1.6s6,0.8,8,1.6
			c0.2,0.1,0.3,0.1,0.5,0.2l-5.4,10.6c-1.3-0.2-2.8-0.4-4.4-0.4c-4.5,0-6.7,0.9-8.9,1.7c-2.1,0.8-4,1.6-8,1.6
			c-0.7,0-1.2,0.5-1.2,1.2s0.5,1.2,1.2,1.2c4.5,0,6.7-0.9,8.9-1.7c2.1-0.8,4-1.6,8-1.6c1.6,0,2.9,0.1,4.2,0.4l4.3,10.4l-1.4,2.6
			c-2.2-0.8-4.4-1.5-8.4-1.5c-4.5,0-6.8,0.9-9,1.7c-2.1,0.8-4.1,1.6-8.1,1.6c-4.1,0-6-0.8-8.1-1.6c-2.2-0.8-4.5-1.7-9-1.7
			s-6.8,0.9-9,1.7c-2.1,0.8-4.1,1.6-8.1,1.6s-6-0.8-8.1-1.6c-2.2-0.8-4.5-1.7-9-1.7c-0.7,0-1.2,0.5-1.2,1.2s0.5,1.2,1.2,1.2
			c4.1,0,6,0.8,8.1,1.6c2.2,0.8,4.5,1.7,9,1.7s6.8-0.9,9-1.7c2.1-0.8,4.1-1.6,8.1-1.6s6,0.8,8.1,1.6c2.2,0.8,4.5,1.7,9,1.7
			s6.8-0.9,9-1.7c2.1-0.8,4.1-1.6,8.1-1.6c3.4,0,5.3,0.5,7.2,1.2l-6.3,11.6l-13.4-2.6c-0.2,0-0.3,0-0.5,0l-12.8,2.7l-13.2-3.5
			c-0.1,0-0.2,0-0.3,0s-0.2,0-0.3,0l-12.3,3.5l-9.3-4c-0.3-0.1-0.5-0.1-0.8-0.1l-11.8,3.3l-2.3-0.8l0,0l-6.4-2.2
			c-1.2-0.4-2-0.7-2.6-0.9c0.2-3.8,0.5-8.7,0.7-13.8c0.3-5.5,0.5-11.2,0.8-15.9c1.3-21.8,12.5-31.7,21.7-36.2
			c3.9-1.9,8.4-2.9,12.9-2.9h62.1L206.1,175.9L206.1,175.9z"/>
		<path d="M88.1,268.5h214c0.7,0,1.2-0.5,1.2-1.2V138.6c0-0.7-0.5-1.2-1.2-1.2h-214c-0.7,0-1.2,0.5-1.2,1.2v128.7
			C86.9,267.9,87.4,268.5,88.1,268.5z M89.3,139.8h211.6v126.3H89.3V139.8z"/>
		<path d="M313.5,125.9h-237c-0.7,0-1.2,0.5-1.2,1.2v151.7c0,0.7,0.5,1.2,1.2,1.2h237c0.7,0,1.2-0.5,1.2-1.2V127.1
			C314.7,126.5,314.2,125.9,313.5,125.9z M312.3,277.6H77.8V128.3h234.6v149.3H312.3z"/>
		<path d="M250.4,160.4l-2.6,3.4h-16.1c-0.7,0-1.2,0.5-1.2,1.2v16.8c0,0.7,0.5,1.2,1.2,1.2h16.8c0.7,0,1.2-0.5,1.2-1.2v-16.5
			l2.7-3.4c0.4-0.5,0.3-1.3-0.2-1.7C251.5,159.8,250.8,159.9,250.4,160.4z M247.2,180.6h-14.4v-14.4h13.1l-5.9,7.6l-3.7-4.2
			c-0.4-0.5-1.2-0.5-1.7-0.1s-0.5,1.2-0.1,1.7l4.7,5.3c0.2,0.3,0.6,0.4,0.9,0.4l0,0c0.4,0,0.7-0.2,0.9-0.5l6.2-8V180.6z"/>
		<path d="M250.4,190.4l-2.3,2.9h-16.5c-0.7,0-1.2,0.5-1.2,1.2v16.8c0,0.7,0.5,1.2,1.2,1.2h16.8c0.7,0,1.2-0.5,1.2-1.2v-16l2.7-3.4
			c0.4-0.5,0.3-1.3-0.2-1.7C251.5,189.8,250.8,189.9,250.4,190.4z M247.2,210.2h-14.4v-14.4h13.4l-6.3,8.1l-3.7-4.2
			c-0.4-0.5-1.2-0.5-1.7-0.1s-0.5,1.2-0.1,1.7l4.7,5.3c0.2,0.3,0.6,0.4,0.9,0.4l0,0c0.4,0,0.7-0.2,0.9-0.5l6.2-8v11.7H247.2z"/>
		<path d="M250.4,220.2l-2.1,2.7h-16.7c-0.7,0-1.2,0.5-1.2,1.2v16.8c0,0.7,0.5,1.2,1.2,1.2h16.8c0.7,0,1.2-0.5,1.2-1.2v-15.8
			l2.7-3.4c0.4-0.5,0.3-1.3-0.2-1.7C251.5,219.6,250.8,219.6,250.4,220.2z M247.2,239.7h-14.4v-14.4h13.6l-6.4,8.3l-3.7-4.2
			c-0.4-0.5-1.2-0.5-1.7-0.1s-0.5,1.2-0.1,1.7l4.7,5.3c0.2,0.3,0.6,0.4,0.9,0.4l0,0c0.4,0,0.7-0.2,0.9-0.5l6.2-8V239.7z"/>
		<path d="M284.4,172.7c-1.9,0-2.8-0.2-3.8-0.5c-1.1-0.3-2.2-0.5-4.4-0.5s-3.3,0.3-4.4,0.5c-1,0.2-1.9,0.5-3.8,0.5s-2.8-0.2-3.8-0.5
			c-1.1-0.3-2.2-0.5-4.4-0.5c-0.7,0-1.2,0.5-1.2,1.2s0.5,1.2,1.2,1.2c1.9,0,2.8,0.2,3.8,0.5c1.1,0.3,2.2,0.5,4.4,0.5
			c2.2,0,3.3-0.3,4.4-0.5c1-0.2,1.9-0.5,3.8-0.5s2.8,0.2,3.8,0.5c1.1,0.3,2.2,0.5,4.4,0.5c0.7,0,1.2-0.5,1.2-1.2
			S285,172.7,284.4,172.7z"/>
		<path d="M284.4,202.3c-1.9,0-2.8-0.2-3.8-0.5c-1.1-0.3-2.2-0.5-4.4-0.5s-3.3,0.3-4.4,0.5c-1,0.2-1.9,0.5-3.8,0.5s-2.8-0.2-3.8-0.5
			c-1.1-0.3-2.2-0.5-4.4-0.5c-0.7,0-1.2,0.5-1.2,1.2s0.5,1.2,1.2,1.2c1.9,0,2.8,0.2,3.8,0.5c1.1,0.3,2.2,0.5,4.4,0.5
			c2.2,0,3.3-0.3,4.4-0.5c1-0.2,1.9-0.5,3.8-0.5s2.8,0.2,3.8,0.5c1.1,0.3,2.2,0.5,4.4,0.5c0.7,0,1.2-0.5,1.2-1.2
			S285,202.3,284.4,202.3z"/>
		<path d="M284.4,231.8c-1.9,0-2.8-0.2-3.8-0.5c-1.1-0.3-2.2-0.5-4.4-0.5s-3.3,0.3-4.4,0.5c-1,0.2-1.9,0.5-3.8,0.5s-2.8-0.2-3.8-0.5
			c-1.1-0.3-2.2-0.5-4.4-0.5c-0.7,0-1.2,0.5-1.2,1.2s0.5,1.2,1.2,1.2c1.9,0,2.8,0.2,3.8,0.5c1.1,0.3,2.2,0.5,4.4,0.5
			c2.2,0,3.3-0.3,4.4-0.5c1-0.2,1.9-0.5,3.8-0.5s2.8,0.2,3.8,0.5c1.1,0.3,2.2,0.5,4.4,0.5c0.7,0,1.2-0.5,1.2-1.2
			S285,231.8,284.4,231.8z"/>
	</g>
</g>
</svg>
