<?xml version="1.0" encoding="utf-8"?>
<!-- Generator: Adobe Illustrator 21.0.0, SVG Export Plug-In . SVG Version: 6.00 Build 0)  -->
<svg version="1.1" id="Layer_1" xmlns="http://www.w3.org/2000/svg" xmlns:xlink="http://www.w3.org/1999/xlink" x="0px" y="0px"
	viewBox="0 0 400 400" style="enable-background:new 0 0 400 400;" xml:space="preserve">
<g>
	<path class="st0" d="M97.3,262.5c81.6,92.7,321.4-7.1,204.3-121.5S30.5,186.7,97.3,262.5z"/>
	<path class="st1" d="M117.9,236.4L117.9,236.4L117.9,236.4H83.7c-9.3,0-16.8,7.5-16.8,16.8S74.4,270,83.7,270h75.1
		c4.8,0,8.9-3.2,10.2-7.6h15.9c0.1,0,0.3,0,0.4,0l0,0c5.5-0.1,7.9-7.3,8.6-12.5c0.2-1.8,0.3-3.7,0.2-5.7h19.7
		c7.7,0.7,6.8-14.7,4.3-30.9l0,0l0.2-5.4H231c0,15.3,0,32,0,36.8c0,9.7,6.2,15.1,9.6,17.3c3.9,3.2,19,5.6,37,5.6
		c15.6,0,29.1-1.8,34.9-4.4c0.9-0.4,1.5-0.8,2-1.2c3.3-2.2,9.6-7.6,9.6-17.4c0-7.6,0-44.8,0-59.4c0-13.6-10-18.5-11.5-19.2
		c1.9-0.9,2.9-1.8,2.9-2.8V153c0-1.8-3.4-3.4-9.1-4.7c1.9-7.9,3.3-12.3,3.3-12.3l-49.3-6.6c-0.4,5.3-1,11.1-1.8,17.3
		c-1.7,0.2-3.4,0.4-4.9,0.6c-0.2-11.8-0.9-27.2-0.9-27.2h-75.4c0,0,0.9,17.9,1,32.1l0,0h-33.2v0.1v-0.1
		c-10.5,0.1-10.2,18.2-6.8,37.4c0.4,2.1,0.8,4.4,1.3,6.9v0.1h-22.5l0,0C105.3,196.6,114.8,217.6,117.9,236.4 M231.1,207.9
		c-1-3.3-1.5-7.9-1.8-13l1.8,1.5c0,1.5,0,3,0,4.6C231.1,203.2,231.1,205.5,231.1,207.9z"/>
	<path class="st2" d="M222.1,152.5c-13.9,0,4.8,55.7,4.8,55.7l-8.5-0.3C218.4,207.9,200.8,152.5,222.1,152.5z"/>
	<path class="st2" d="M194,196.6c-16.5,0,0.1,26.5,0.1,47.6h8.3C202.5,244.2,187.2,201.8,194,196.6z"/>
	<path class="st2" d="M152.5,237.6c0,0,3.3,6.1,11.5,7.5c8.3,1.5,11.6,12,9.8,17.2H169c0,0,2.6-13.7-10.3-13.7s-16.1,0-16.1,0
		S145.2,238.8,152.5,237.6z"/>
	<path class="st2" d="M149,248.7c0,0-4.2,6.9,1.7,12.3h-6.8c0,0-3.8-6.8-1.2-12.3H149z"/>
	<path class="st2" d="M155.8,249.1c0,0,8.7,2.7,8.7,10c0,7.3-4.7,10.7-4.7,10.7s-10,1.1-15.9-8.9l13.2,0.3
		C157.1,261.3,147.3,256.9,155.8,249.1z"/>
	<g>
		<path class="st2" d="M308.8,167.5l-6.7,1.4l-0.3,1.7c0,0,8.2,6.8,8.2,14.3s0,49.8,0,58.4s-1.6,12.5-1.6,12.5l-15.5-3.1l-0.4,5.6
			c3.4,0.7,5.6,1.4,5.6,2.1c0,2.8-33.3,3.9-50.7,4.3c5.4,1.6,14.7,3,30.4,3c35.5,0,38-7.3,38-7.3s2.7-6.8,2.7-12s0-55.7,0-65.4
			C318.4,173.4,308.8,167.5,308.8,167.5z"/>
	</g>
	<path class="st2" d="M258.8,146.6l-1,7.6c0,0-5.7,0.2-11.3,2.9c0,0-6.8-1-6.8-4.6C239.6,148.9,258.8,146.6,258.8,146.6z"/>
	<path class="st2" d="M250,180.8c-7.7,0-10.3,7.5-10.3,15.8s0,20.2,0,27.5c0,14.8,8.8,28.1,24.8,28.1c11.3,0,22.4-7.4,22.4-12.8
		c0-15.3-26.9,5.3-26.9-40.7C260,186.9,257,180.8,250,180.8z"/>
	<path class="st2" d="M283.2,194.6c-9.8,0-11.1,27.8,1.7,27.8S296.4,194.6,283.2,194.6z"/>
	<path class="st2" d="M217.3,211c0,0,1.2,25.3-9,25.3c0,0,1.7,7.8,6.5,7.8C219.5,244.2,222.4,233.3,217.3,211z"/>
	<path class="st2" d="M189.6,219.3c0,0,12.7,43.1-4.7,43.1c-6.1,0-10.2-13.2-10.2-13.2S194.1,273.5,189.6,219.3z"/>
	<path class="st2" d="M68.7,245.6c2.9,9.3,5,19,15,19s32.4,0,39.8,0c7.4,0,15.1,5.3,29,5.3c0,0-62.4,0-71.4,0S62.6,257.2,68.7,245.6
		z"/>
	<path class="st2" d="M239.6,161.5c0,0,10.5,6.9,36,6.9s40-5.5,40-5.5v-9.5c0,0-2.1,10.8-40,10.8c-23.4,0-36-5.7-36-5.7V161.5z"/>
	<path class="st2" d="M138.5,189.5c0,0,45.6,0,54.1,0c8.6,0,12.5,11,12.8,34c0,0-3.1-27-11.4-27s-54.3,0-54.3,0L138.5,189.5z"/>
	<path class="st2" d="M117.2,229.2c0,0,33,0,40.2,0c12.1,0,16.5,10.3,17.3,19.9c0,0-6.2-12.7-16.3-12.7s-40.6,0-40.6,0L117.2,229.2z
		"/>
	<path class="st2" d="M259.1,143.9c0,0,13.5,0.8,16.1-12.7l20.1,2.7c0,0-1.1,12.9,10.8,16.2L305,155c0,0-8.2-8.3-21.7-10.5
		c-11.4-1.8-25,5.6-25,5.6L259.1,143.9z"/>
	<g>
		<g>
			<path d="M130.1,211l-0.1-0.9h1.8l0.6,4.2h-1.8l-0.1-1c-0.9-1.1-2.1-1.7-3.4-1.7c-0.8,0-1.4,0.2-1.8,0.5s-0.5,0.8-0.4,1.4
				c0.1,0.5,0.3,0.8,0.6,1.1c0.3,0.3,0.7,0.5,1,0.6c0.4,0.1,0.9,0.3,1.5,0.4l1.1,0.3c1,0.2,1.9,0.5,2.5,0.8c0.7,0.3,1.2,0.8,1.7,1.4
				c0.4,0.6,0.7,1.3,0.8,2.3c0.2,1.2-0.1,2.2-0.7,3c-0.7,0.8-1.7,1.2-3,1.2l0.4,2.4h-1.6l-0.4-2.6c-0.8-0.2-1.6-0.6-2.3-1.3l0.2,1.2
				h-1.8l-0.8-5.2h1.8l0.2,1.3c1.1,1.6,2.4,2.4,3.7,2.4c0.8,0,1.4-0.2,1.8-0.6c0.4-0.4,0.5-1,0.4-1.7c-0.1-0.6-0.4-1.1-0.8-1.4
				c-0.5-0.3-1.1-0.6-2-0.8l-1.7-0.4c-1.3-0.3-2.3-0.8-3.1-1.5c-0.7-0.6-1.2-1.5-1.4-2.5c-0.2-1.2,0-2.1,0.6-2.8s1.6-1.1,2.8-1.1
				l-0.3-1.9h1.7l0.3,2.1C128.7,210.1,129.4,210.5,130.1,211z"/>
		</g>
	</g>
	<g>
		<path d="M154.9,164.6v-0.9h1.7v4.2h-1.7v-1c-0.8-1.1-1.8-1.7-3-1.7c-0.8,0-1.4,0.2-1.8,0.5c-0.4,0.3-0.6,0.8-0.6,1.4
			c0,0.5,0.1,0.8,0.4,1.1s0.6,0.5,0.9,0.6c0.3,0.1,0.8,0.3,1.4,0.4l1,0.3c0.9,0.2,1.7,0.5,2.3,0.8s1.1,0.8,1.4,1.4
			c0.4,0.6,0.5,1.3,0.5,2.3c0,1.2-0.4,2.2-1.1,3c-0.8,0.8-1.8,1.2-3.2,1.2v2.4h-1.6V178c-0.8-0.2-1.5-0.6-2.1-1.3v1.2h-1.8v-5.2h1.8
			v1.3c0.9,1.6,2,2.4,3.3,2.4c0.8,0,1.4-0.2,1.9-0.6c0.4-0.4,0.7-1,0.7-1.7c0-0.6-0.2-1.1-0.6-1.4s-1-0.6-1.8-0.8l-1.6-0.4
			c-1.2-0.3-2.1-0.8-2.7-1.5c-0.6-0.6-0.9-1.5-0.9-2.5c0-1.2,0.3-2.1,1-2.8s1.7-1.1,2.9-1.1v-1.9h1.6v2.1
			C153.7,163.7,154.3,164.1,154.9,164.6z"/>
	</g>
	<g>
		<path d="M266,192.2l-1.1-0.2l0.4-2.2l5.3,1l-0.4,2.2l-1.2-0.2c-1.6,0.7-2.5,1.8-2.8,3.4c-0.2,1-0.1,1.8,0.2,2.4
			c0.3,0.6,0.8,1,1.6,1.1c0.6,0.1,1.1,0,1.5-0.2c0.4-0.3,0.7-0.6,1-1s0.5-0.9,0.8-1.6l0.6-1.2c0.5-1.1,1.1-2,1.6-2.7s1.2-1.2,2-1.5
			s1.8-0.3,3-0.1c1.6,0.3,2.7,1,3.5,2.1s1,2.6,0.8,4.3l3,0.6l-0.4,2l-3.2-0.6c-0.5,0.9-1.2,1.7-2.1,2.3l1.5,0.3l-0.4,2.2l-6.5-1.2
			l0.4-2.2l1.6,0.3c2.2-0.7,3.4-1.9,3.7-3.6c0.2-1,0.1-1.8-0.3-2.5s-1.1-1.1-2-1.2c-0.7-0.1-1.4,0-1.9,0.4s-1,1.1-1.5,2.1l-0.9,1.9
			c-0.7,1.4-1.5,2.5-2.5,3.1s-2.1,0.8-3.4,0.6c-1.5-0.3-2.6-0.9-3.3-2c-0.7-1-1-2.3-0.7-3.9l-2.4-0.5l0.4-2l2.6,0.5
			C264.7,193.5,265.2,192.8,266,192.2z"/>
	</g>
	<g>
		<path d="M195.1,129.6v-0.9h1.7v4.2h-1.7v-1c-0.8-1.1-1.8-1.7-3-1.7c-0.8,0-1.4,0.2-1.8,0.5c-0.4,0.3-0.6,0.8-0.6,1.4
			c0,0.5,0.1,0.8,0.4,1.1c0.3,0.3,0.6,0.5,0.9,0.6c0.3,0.1,0.8,0.3,1.4,0.4l1,0.3c0.9,0.2,1.7,0.5,2.3,0.8s1.1,0.8,1.4,1.4
			c0.4,0.6,0.5,1.3,0.5,2.3c0,1.2-0.4,2.2-1.1,3s-1.8,1.2-3.2,1.2v2.4h-1.6V143c-0.8-0.2-1.5-0.6-2.1-1.3v1.2h-1.8v-5.2h1.8v1.3
			c0.9,1.6,2,2.4,3.3,2.4c0.8,0,1.4-0.2,1.9-0.6c0.4-0.4,0.7-1,0.7-1.7c0-0.6-0.2-1.1-0.6-1.4c-0.4-0.3-1-0.6-1.8-0.8l-1.6-0.4
			c-1.2-0.3-2.1-0.8-2.7-1.5c-0.6-0.6-0.9-1.5-0.9-2.5c0-1.2,0.3-2.1,1-2.8s1.7-1.1,2.9-1.1v-1.9h1.6v2.1
			C193.9,128.8,194.5,129.1,195.1,129.6z"/>
	</g>
	<g>
		<path d="M86.1,246.2v-0.9h1.7v4.2h-1.7v-1c-0.8-1.1-1.8-1.7-3-1.7c-0.8,0-1.4,0.2-1.8,0.5s-0.6,0.8-0.6,1.4c0,0.5,0.1,0.8,0.4,1.1
			s0.6,0.5,0.9,0.6s0.8,0.3,1.4,0.4l1,0.3c0.9,0.2,1.7,0.5,2.3,0.8c0.6,0.3,1.1,0.8,1.4,1.4c0.4,0.6,0.5,1.3,0.5,2.3
			c0,1.2-0.4,2.2-1.1,3c-0.8,0.8-1.8,1.2-3.2,1.2v2.4h-1.6v-2.6c-0.8-0.2-1.5-0.6-2.1-1.3v1.2h-1.8v-5.2h1.8v1.3
			c0.9,1.6,2,2.4,3.3,2.4c0.8,0,1.4-0.2,1.9-0.6c0.4-0.4,0.7-1,0.7-1.7c0-0.6-0.2-1.1-0.6-1.4c-0.4-0.3-1-0.6-1.8-0.8l-1.6-0.4
			c-1.2-0.3-2.1-0.8-2.7-1.5c-0.6-0.6-0.9-1.5-0.9-2.5c0-1.2,0.3-2.1,1-2.8s1.7-1.1,2.9-1.1v-1.9h1.6v2.1
			C84.9,245.3,85.5,245.7,86.1,246.2z"/>
	</g>
	<g>
		<path d="M154.2,213.1c2.7,0,4,0.5,5.3,1c1.5,0.6,3.1,1.2,6.2,1.2c3.1,0,4.7-0.6,6.2-1.2c1.4-0.5,2.7-1,5.3-1
			c0.7,0,1.2-0.5,1.2-1.2s-0.5-1.2-1.2-1.2c-3.1,0-4.7,0.6-6.2,1.2c-1.4,0.5-2.7,1-5.3,1c-2.7,0-4-0.5-5.3-1
			c-1.5-0.6-3.1-1.2-6.2-1.2c-3.1,0-4.7,0.6-6.2,1.2c-1.4,0.5-2.7,1-5.3,1c-0.7,0-1.2,0.5-1.2,1.2s0.5,1.2,1.2,1.2
			c3.1,0,4.7-0.6,6.2-1.2C150.3,213.6,151.6,213.1,154.2,213.1z"/>
		<path d="M179.3,220.1c-3.1,0-4.7,0.6-6.2,1.2c-1.4,0.5-2.7,1-5.3,1s-4-0.5-5.3-1c-1.5-0.6-3.1-1.2-6.2-1.2c-3.1,0-4.7,0.6-6.2,1.2
			c-1.4,0.5-2.7,1-5.3,1c-0.7,0-1.2,0.5-1.2,1.2s0.5,1.2,1.2,1.2c3.1,0,4.7-0.6,6.2-1.2c1.4-0.5,2.7-1,5.3-1c2.7,0,4,0.5,5.3,1
			c1.5,0.6,3.1,1.2,6.2,1.2s4.7-0.6,6.2-1.2c1.4-0.5,2.7-1,5.3-1c0.7,0,1.2-0.5,1.2-1.2S180,220.1,179.3,220.1z"/>
		<path d="M171.6,167.5c1.4-0.5,2.7-1,5.3-1c2.7,0,4,0.5,5.3,1c1.5,0.6,3.1,1.2,6.2,1.2s4.7-0.6,6.2-1.2c1.4-0.5,2.7-1,5.3-1
			c0.7,0,1.2-0.5,1.2-1.2s-0.5-1.2-1.2-1.2c-3.1,0-4.7,0.6-6.2,1.2c-1.4,0.5-2.7,1-5.3,1s-4-0.5-5.3-1c-1.5-0.6-3.1-1.2-6.2-1.2
			c-3.1,0-4.7,0.6-6.2,1.2c-1.4,0.5-2.7,1-5.3,1c-0.7,0-1.2,0.5-1.2,1.2s0.5,1.2,1.2,1.2C168.5,168.7,170,168.1,171.6,167.5z"/>
		<path d="M230,142.4c3.1,0,4.7-0.6,6.2-1.2c1.4-0.5,2.7-1,5.3-1c0.7,0,1.2-0.5,1.2-1.2s-0.5-1.2-1.2-1.2c-3.1,0-4.7,0.6-6.2,1.2
			c-1.4,0.5-2.7,1-5.3,1c-2.7,0-4-0.5-5.3-1c-1.5-0.6-3.1-1.2-6.2-1.2s-4.7,0.6-6.2,1.2c-1.4,0.5-2.7,1-5.3,1
			c-0.7,0-1.2,0.5-1.2,1.2s0.5,1.2,1.2,1.2c3.1,0,4.7-0.6,6.2-1.2c1.4-0.5,2.7-1,5.3-1c2.7,0,4,0.5,5.3,1
			C225.3,141.8,226.8,142.4,230,142.4z"/>
		<path d="M206.9,133.6c3.1,0,4.7-0.6,6.2-1.2c1.4-0.5,2.7-1,5.3-1c2.7,0,4,0.5,5.3,1c1.5,0.6,3.1,1.2,6.2,1.2
			c3.1,0,4.7-0.6,6.2-1.2c1.4-0.5,2.7-1,5.3-1c0.7,0,1.2-0.5,1.2-1.2s-0.5-1.2-1.2-1.2c-3.1,0-4.7,0.6-6.2,1.2c-1.4,0.5-2.7,1-5.3,1
			c-2.7,0-4-0.5-5.3-1c-1.5-0.6-3.1-1.2-6.2-1.2s-4.7,0.6-6.2,1.2c-1.4,0.5-2.7,1-5.3,1c-0.7,0-1.2,0.5-1.2,1.2
			S206.2,133.6,206.9,133.6z"/>
		<path d="M200.6,173.4c-3.1,0-4.7,0.6-6.2,1.2c-1.4,0.5-2.7,1-5.3,1c-2.7,0-4-0.5-5.3-1c-1.5-0.6-3.1-1.2-6.2-1.2
			c-3.1,0-4.7,0.6-6.2,1.2c-1.4,0.5-2.7,1-5.3,1c-0.7,0-1.2,0.5-1.2,1.2s0.5,1.2,1.2,1.2c3.1,0,4.7-0.6,6.2-1.2c1.4-0.5,2.7-1,5.3-1
			c2.7,0,4,0.5,5.3,1c1.5,0.6,3.1,1.2,6.2,1.2c3.1,0,4.7-0.6,6.2-1.2c1.4-0.5,2.7-1,5.3-1c0.7,0,1.2-0.5,1.2-1.2
			S201.3,173.4,200.6,173.4z"/>
		<path d="M131.6,250.3c-3.1,0-4.7,0.6-6.2,1.2c-1.4,0.5-2.7,1-5.3,1s-4-0.5-5.3-1c-1.5-0.6-3.1-1.2-6.2-1.2s-4.7,0.6-6.2,1.2
			c-1.4,0.5-2.7,1-5.3,1c-0.7,0-1.2,0.5-1.2,1.2s0.5,1.2,1.2,1.2c3.1,0,4.7-0.6,6.2-1.2c1.4-0.5,2.7-1,5.3-1c2.7,0,4,0.5,5.3,1
			c1.5,0.6,3.1,1.2,6.2,1.2s4.7-0.6,6.2-1.2c1.4-0.5,2.7-1,5.3-1c0.7,0,1.2-0.5,1.2-1.2S132.2,250.3,131.6,250.3z"/>
		<path d="M315.1,166.1c1.1-0.8,1.7-1.7,1.7-2.8V153c0-2.3-2.9-4.1-8.8-5.6c1.7-7,2.9-10.9,3-11.1c0.1-0.3,0.1-0.7-0.1-1
			s-0.5-0.5-0.9-0.5l-34.7-4.7l0,0l0,0l-14.6-2c-0.3,0-0.7,0-0.9,0.3c-0.3,0.2-0.4,0.5-0.4,0.8c-0.4,5-1,10.5-1.7,16.3
			c-0.9,0.1-1.8,0.2-2.7,0.3c-0.2-11.5-0.9-25.8-0.9-25.9c0-0.6-0.6-1.1-1.2-1.1h-75.4c-0.3,0-0.6,0.1-0.9,0.4s-0.3,0.6-0.3,0.9
			c0,0.2,0.9,17.1,1,30.9h-32l0,0l0,0c-2.6,0-4.8,1-6.4,3c-4.3,5.2-4.9,17.2-1.6,35.8c0.3,1.7,0.7,3.6,1,5.6h-21.1
			c-2.4,0-4.2,0.8-5.4,2.3c-3.3,4.2-1,13.4,1.6,24.1c1.1,4.4,2.2,9,3,13.4H83.7c-9.9,0-18,8.1-18,18s8.1,18,18,18h75.1
			c5,0,9.4-3.1,11.1-7.6h15.2c1.5,0,2.8-0.4,4.1-1.2c4.5-2.9,5.7-10.2,6-12.4c0.2-1.5,0.3-3,0.2-4.6h18.5l0,0
			c1.8,0.1,3.3-0.5,4.5-1.7c4.2-4.7,3.1-17.8,0.3-34.4h11.2v35.5c0,10.7,7,16.4,10.5,18.6c0.5,0.3,1,0.6,1.6,0.9
			c0.1,0.1,0.2,0.1,0.2,0.1l0,0c7.7,3.5,25,4.5,35.3,4.5s27.6-1,35.3-4.5c0,0,0,0,0.1,0c0,0,0.2-0.1,0.4-0.2
			c0.5-0.2,0.9-0.5,1.3-0.7c3.4-2.1,10.7-7.8,10.7-18.7v-59.4C325.4,174,318.7,168.3,315.1,166.1z M311.6,165.3
			c-1.8,0.7-4.5,1.4-8,2.1c0.6-2.9,1.2-5.6,1.7-8.2c3.8-0.8,7.1-1.7,9.1-3v7.1c0,0.4-0.6,1-1.8,1.5
			C312.2,164.8,311.8,165,311.6,165.3z M291.3,253.3c0,0.1-0.1,0.2-0.1,0.3c0,0.2,0,0.3,0.1,0.5c0,1.6-0.1,3.2-0.1,4.8l-11.5-3.1
			c1.8-5,6.5-8.5,11.9-8.8C291.4,249,291.4,251.1,291.3,253.3z M291.6,244.5c-6.5,0.3-12.2,4.5-14.3,10.6l-21.6-5.8
			c0.2-1,0.3-2,0.3-3c0-7-4.7-13.2-11.3-15.2c2-9.5,4.8-22.6,7.4-36.7c-0.1,0.7-0.1,1.5-0.1,2.3c0,12,9.8,21.8,21.8,21.8
			s21.8-9.8,21.8-21.8s-9.8-21.8-21.8-21.8c-10.1,0-18.5,6.8-21.1,16.1c1.2-6.7,2.5-13.5,3.6-20.3c7.3,0.9,15.4,1.2,21.3,1.2
			c6.3,0,15.2-0.4,22.9-1.5C296.9,189.4,293,215.2,291.6,244.5z M241.5,245.4c0.4-1.9,1.4-6.2,2.7-12c5.5,1.8,9.4,7,9.4,12.9
			c0,0.8-0.1,1.6-0.2,2.3L241.5,245.4z M254.4,196.6c0-10.7,8.7-19.4,19.4-19.4s19.4,8.7,19.4,19.4s-8.7,19.4-19.4,19.4
			S254.4,207.3,254.4,196.6z M277.6,169.4c-8.3,0-15.3-0.5-20.9-1.2c0.4-2.6,0.8-5.2,1.2-7.8c6.9,0.8,14.2,1.1,19.6,1.1
			c6.9,0,16.9-0.5,25.1-1.8c-0.6,2.5-1.1,5.3-1.7,8.2C295.1,168.7,287.3,169.4,277.6,169.4z M243.7,165.3c-0.3-0.3-0.7-0.5-1.1-0.5
			c-1.2-0.6-1.8-1.1-1.8-1.6v-7.1c3,1.8,8.6,3.1,14.8,3.9c-0.4,2.6-0.8,5.1-1.2,7.7C249.6,167.1,246,166.2,243.7,165.3z
			M260.2,145.2c0.2,0,0.3,0,0.4,0c7.5,0,14-5.3,15.6-12.6L294,135c0,0.3,0,0.6,0,0.9c0,6.8,4.4,12.9,10.7,15.1
			c-0.4,1.9-0.9,3.9-1.4,6.1c-6.2,1.1-14.8,2-25.7,2c-7.5,0-14-0.4-19.3-1C259,153.6,259.6,149.3,260.2,145.2z M314.4,153
			c0,1-2.9,2.4-8.6,3.6c0.6-2.5,1.1-4.8,1.6-6.9C313.2,151.1,314.4,152.5,314.4,153z M305.5,147.9
			C305.4,147.9,305.4,147.9,305.5,147.9c0,0.1,0,0.1,0,0.2c0,0.2-0.1,0.4-0.1,0.6c-5.3-1.9-8.9-7-8.9-12.7c0-0.2,0-0.4,0-0.6l12,1.6
			C307.8,138.8,306.8,142.5,305.5,147.9z M261.7,130.7l12.1,1.6c-1.4,6.1-6.8,10.5-13.2,10.5c-0.1,0-0.1,0-0.2,0
			C261,138.5,261.4,134.4,261.7,130.7z M256,157.7c-9.9-1.4-15.2-3.5-15.2-4.8c0-1,4.1-3.4,16.5-5C257,151.2,256.5,154.4,256,157.7z
			M178.8,121.2h73c0.2,3.7,0.7,15.4,0.9,25c-7.4,1.2-14.2,3.3-14.2,6.7v10.3c0,1,0.6,2,1.7,2.8c-0.5,0.3-1.1,0.7-1.8,1.2
			c-3.3,2.5-7.1,6.9-8.1,14c0-0.7,0-1.5-0.1-2.2c-0.4-14.5-0.8-28.2-9.4-28.2h-41C179.6,139.3,179,125.4,178.8,121.2z M83.7,268.7
			c-8.6,0-15.6-7-15.6-15.6s7-15.6,15.6-15.6h66.1c-5.4,3.1-9,8.9-9,15.6s3.6,12.5,9,15.6H83.7z M153.1,259.8h-8.4c0,0,0,0-0.1,0
			c-1-2-1.5-4.3-1.5-6.6c0-1.2,0.2-2.4,0.4-3.5h9.5c-0.9,1-1.6,2.2-1.9,3.6C150.8,255.2,151.2,257.7,153.1,259.8z M158.7,268.7
			c-5.2,0-9.9-2.6-12.7-6.6h10.9c0.6,0,1.1-0.4,1.2-1c0.1-0.6-0.2-1.1-0.7-1.3c-3.4-1.5-4.2-4.1-3.8-6.2c0.4-2,2.2-4.1,5.1-4.1
			c5.3,0,9.6,4.3,9.6,9.6S164,268.7,158.7,268.7z M158.7,247.2h-14.4c2.3-5.7,7.9-9.6,14.4-9.6c10.5,0,13.2,7.3,15.8,14.5
			c1.3,3.5,2.6,7,4.8,9.1h-8.8c0.1-0.6,0.2-1.3,0.2-2C170.7,252.6,165.3,247.2,158.7,247.2z M192.8,249.7c-0.5,3.9-2.1,8.8-4.9,10.7
			c-0.8,0.5-1.7,0.8-2.6,0.8l0,0H185c-0.5,0-1-0.1-1.6-0.3c-3.4-1-4.9-5-6.6-9.7c-2.6-7.1-5.9-16-18.1-16h-39.8
			c-0.8-4.7-2-9.4-3.1-14c-2.4-9.6-4.6-18.8-2.1-22c0.7-0.9,1.9-1.4,3.5-1.4h70.9c-0.1,0.1-0.1,0.1-0.2,0.2
			c-3.2,4.6-1.1,14.2,1.4,25.3C191.5,232.7,193.7,242.4,192.8,249.7z M191.7,222.7c-2.3-10.1-4.4-19.7-1.8-23.4
			c0.6-0.9,1.6-1.4,2.8-1.6c6.3-0.8,8.9,12.9,11.3,25c1.7,8.7,3.2,16.5,6,20.3h-14.7C194.9,236.7,193.3,229.6,191.7,222.7z
			M216.6,242c-0.7,0.8-1.5,1.1-2.6,1c-3.7-0.3-5.8-11.2-7.6-20.7c-2.6-13.7-5.3-27.9-13.8-26.9h-51.8c-0.4-2.1-0.8-4.2-1.1-6
			c-3.1-17.6-2.7-29.3,1.1-33.8c1.2-1.4,2.7-2.1,4.6-2.1h33.2l0,0h36.2c-0.2,0.2-0.3,0.4-0.5,0.5c-4.4,5.2-4.9,17.2-1.6,35.8
			c0.4,2.2,0.9,4.7,1.3,7.3C217,212.8,221.5,236.6,216.6,242z M218.3,206.9c-0.6-3.3-1.2-6.8-1.9-10.3c-0.5-2.6-0.9-5-1.3-7.2
			c-3.1-17.6-2.7-29.3,1.1-33.9c1.2-1.4,2.7-2.1,4.6-2.1c6.3,0,6.7,13.1,7,25.8c0.2,8,0.5,16.2,2.2,21.9v5.7h-11.7V206.9z
			M232.3,244.7v-59.4c0-8.5,4.1-13.5,7.5-16.1c1.2-0.9,2.2-1.5,2.8-1.8c2.8,1.2,6.9,2.1,11.4,2.8c-6.2,36.8-14.9,75.2-15.1,75.8
			c-0.1,0.6,0.2,1.3,0.9,1.4l14.2,3.8l0,0l0,0l5.6,1.5c-4.9,0.5-9.2,1.2-12.6,2.1c-4.6,1.2-7.3,2.6-8.2,4.2
			C235.7,256.3,232.3,251.7,232.3,244.7z M243.4,262.2C243.3,262.2,243.3,262.2,243.4,262.2c-0.1-0.1-1-0.5-2.3-1.4
			c-0.1-0.2-0.2-0.3-0.2-0.5c0-1.5,7.5-4.7,25.6-5.8l11.4,3.1l0,0l0,0l14.2,3.8c0.1,0,0.2,0,0.3,0c0.3,0,0.5-0.1,0.7-0.2
			c0.3-0.2,0.5-0.6,0.5-0.9c0-1.8,0.1-3.6,0.1-5.4c15.5,1.4,20.8,4.3,20.8,5.4c0,0.2-0.1,0.4-0.3,0.6c-1.2,0.8-2,1.2-2.1,1.2
			c0,0-0.1,0-0.1,0.1c-4.8,2-16.6,4.2-34.3,4.2C259.9,266.5,248.2,264.2,243.4,262.2z M323,244.7c0,7-3.4,11.7-6.5,14.4
			c-2.1-4-14.4-5.8-22.8-6.6c1-32.9,5.3-61.8,9.3-82.6c3.8-0.6,7.2-1.5,9.6-2.5c2.3,1.2,10.3,6,10.3,17.9v59.4H323z"/>
	</g>
</g>
</svg>
