<?xml version="1.0" encoding="UTF-8" standalone="no"?>
<!-- Generator: Adobe Illustrator 21.0.0, SVG Export Plug-In . SVG Version: 6.00 Build 0)  -->

<svg
   xmlns:dc="http://purl.org/dc/elements/1.1/"
   xmlns:cc="http://creativecommons.org/ns#"
   xmlns:rdf="http://www.w3.org/1999/02/22-rdf-syntax-ns#"
   xmlns:svg="http://www.w3.org/2000/svg"
   xmlns="http://www.w3.org/2000/svg"
   xmlns:sodipodi="http://sodipodi.sourceforge.net/DTD/sodipodi-0.dtd"
   xmlns:inkscape="http://www.inkscape.org/namespaces/inkscape"
   version="1.1"
   id="Layer_1"
   x="0px"
   y="0px"
   viewBox="0 0 267.5278 197.94246"
   xml:space="preserve"
   sodipodi:docname="accounting-paper-with-a-tip-jar_touched.svg"
   width="267.5278"
   height="197.94246"
   inkscape:version="0.92.4 (33fec40, 2019-01-16)"><metadata
   id="metadata531"><rdf:RDF><cc:Work
       rdf:about=""><dc:format>image/svg+xml</dc:format><dc:type
         rdf:resource="http://purl.org/dc/dcmitype/StillImage" /><dc:title></dc:title></cc:Work></rdf:RDF></metadata><defs
   id="defs529" /><sodipodi:namedview
   pagecolor="#ffffff"
   bordercolor="#666666"
   borderopacity="1"
   objecttolerance="10"
   gridtolerance="10"
   guidetolerance="10"
   inkscape:pageopacity="0"
   inkscape:pageshadow="2"
   inkscape:window-width="3840"
   inkscape:window-height="2112"
   id="namedview527"
   showgrid="false"
   fit-margin-top="0"
   fit-margin-left="0"
   fit-margin-right="0"
   fit-margin-bottom="0"
   inkscape:zoom="4.5875"
   inkscape:cx="139.74959"
   inkscape:cy="99.004232"
   inkscape:window-x="0"
   inkscape:window-y="48"
   inkscape:window-maximized="1"
   inkscape:current-layer="Layer_1" />
<g
   id="g524"
   transform="translate(-65.7,-101.06177)">
	<path
   class="st0"
   d="M 97.3,262.5 C 178.9,355.2 418.7,255.4 301.6,141 184.5,26.6 30.5,186.7 97.3,262.5 Z"
   id="path446"
   inkscape:connector-curvature="0" />
	<path
   class="st1"
   d="m 117.9,236.4 v 0 0 H 83.7 c -9.3,0 -16.8,7.5 -16.8,16.8 0,9.3 7.5,16.8 16.8,16.8 h 75.1 c 4.8,0 8.9,-3.2 10.2,-7.6 h 15.9 c 0.1,0 0.3,0 0.4,0 v 0 c 5.5,-0.1 7.9,-7.3 8.6,-12.5 0.2,-1.8 0.3,-3.7 0.2,-5.7 h 19.7 c 7.7,0.7 6.8,-14.7 4.3,-30.9 v 0 l 0.2,-5.4 H 231 c 0,15.3 0,32 0,36.8 0,9.7 6.2,15.1 9.6,17.3 3.9,3.2 19,5.6 37,5.6 15.6,0 29.1,-1.8 34.9,-4.4 0.9,-0.4 1.5,-0.8 2,-1.2 3.3,-2.2 9.6,-7.6 9.6,-17.4 0,-7.6 0,-44.8 0,-59.4 0,-13.6 -10,-18.5 -11.5,-19.2 1.9,-0.9 2.9,-1.8 2.9,-2.8 V 153 c 0,-1.8 -3.4,-3.4 -9.1,-4.7 1.9,-7.9 3.3,-12.3 3.3,-12.3 l -49.3,-6.6 c -0.4,5.3 -1,11.1 -1.8,17.3 -1.7,0.2 -3.4,0.4 -4.9,0.6 -0.2,-11.8 -0.9,-27.2 -0.9,-27.2 h -75.4 c 0,0 0.9,17.9 1,32.1 v 0 h -33.2 v 0.1 -0.1 c -10.5,0.1 -10.2,18.2 -6.8,37.4 0.4,2.1 0.8,4.4 1.3,6.9 v 0.1 h -22.5 v 0 c -11.9,0 -2.4,21 0.7,39.8 m 113.2,-28.5 c -1,-3.3 -1.5,-7.9 -1.8,-13 l 1.8,1.5 c 0,1.5 0,3 0,4.6 0,2.2 0,4.5 0,6.9 z"
   id="path448"
   inkscape:connector-curvature="0" />
	<path
   class="st2"
   d="m 222.1,152.5 c -13.9,0 4.8,55.7 4.8,55.7 l -8.5,-0.3 c 0,0 -17.6,-55.4 3.7,-55.4 z"
   id="path450"
   inkscape:connector-curvature="0" />
	<path
   class="st2"
   d="m 194,196.6 c -16.5,0 0.1,26.5 0.1,47.6 h 8.3 c 0.1,0 -15.2,-42.4 -8.4,-47.6 z"
   id="path452"
   inkscape:connector-curvature="0" />
	<path
   class="st2"
   d="m 152.5,237.6 c 0,0 3.3,6.1 11.5,7.5 8.3,1.5 11.6,12 9.8,17.2 H 169 c 0,0 2.6,-13.7 -10.3,-13.7 -12.9,0 -16.1,0 -16.1,0 0,0 2.6,-9.8 9.9,-11 z"
   id="path454"
   inkscape:connector-curvature="0" />
	<path
   class="st2"
   d="m 149,248.7 c 0,0 -4.2,6.9 1.7,12.3 h -6.8 c 0,0 -3.8,-6.8 -1.2,-12.3 z"
   id="path456"
   inkscape:connector-curvature="0" />
	<path
   class="st2"
   d="m 155.8,249.1 c 0,0 8.7,2.7 8.7,10 0,7.3 -4.7,10.7 -4.7,10.7 0,0 -10,1.1 -15.9,-8.9 l 13.2,0.3 c 0,0.1 -9.8,-4.3 -1.3,-12.1 z"
   id="path458"
   inkscape:connector-curvature="0" />
	<g
   id="g462">
		<path
   class="st2"
   d="m 308.8,167.5 -6.7,1.4 -0.3,1.7 c 0,0 8.2,6.8 8.2,14.3 0,7.5 0,49.8 0,58.4 0,8.6 -1.6,12.5 -1.6,12.5 l -15.5,-3.1 -0.4,5.6 c 3.4,0.7 5.6,1.4 5.6,2.1 0,2.8 -33.3,3.9 -50.7,4.3 5.4,1.6 14.7,3 30.4,3 35.5,0 38,-7.3 38,-7.3 0,0 2.7,-6.8 2.7,-12 0,-5.2 0,-55.7 0,-65.4 -0.1,-9.6 -9.7,-15.5 -9.7,-15.5 z"
   id="path460"
   inkscape:connector-curvature="0" />
	</g>
	<path
   class="st2"
   d="m 258.8,146.6 -1,7.6 c 0,0 -5.7,0.2 -11.3,2.9 0,0 -6.8,-1 -6.8,-4.6 -0.1,-3.6 19.1,-5.9 19.1,-5.9 z"
   id="path464"
   inkscape:connector-curvature="0" />
	<path
   class="st2"
   d="m 250,180.8 c -7.7,0 -10.3,7.5 -10.3,15.8 0,8.3 0,20.2 0,27.5 0,14.8 8.8,28.1 24.8,28.1 11.3,0 22.4,-7.4 22.4,-12.8 0,-15.3 -26.9,5.3 -26.9,-40.7 0,-11.8 -3,-17.9 -10,-17.9 z"
   id="path466"
   inkscape:connector-curvature="0" />
	<path
   class="st2"
   d="m 283.2,194.6 c -9.8,0 -11.1,27.8 1.7,27.8 12.8,0 11.5,-27.8 -1.7,-27.8 z"
   id="path468"
   inkscape:connector-curvature="0" />
	<path
   class="st2"
   d="m 217.3,211 c 0,0 1.2,25.3 -9,25.3 0,0 1.7,7.8 6.5,7.8 4.7,0.1 7.6,-10.8 2.5,-33.1 z"
   id="path470"
   inkscape:connector-curvature="0" />
	<path
   class="st2"
   d="m 189.6,219.3 c 0,0 12.7,43.1 -4.7,43.1 -6.1,0 -10.2,-13.2 -10.2,-13.2 0,0 19.4,24.3 14.9,-29.9 z"
   id="path472"
   inkscape:connector-curvature="0" />
	<path
   class="st2"
   d="m 68.7,245.6 c 2.9,9.3 5,19 15,19 10,0 32.4,0 39.8,0 7.4,0 15.1,5.3 29,5.3 0,0 -62.4,0 -71.4,0 -9,0 -18.5,-12.7 -12.4,-24.3 z"
   id="path474"
   inkscape:connector-curvature="0" />
	<path
   class="st2"
   d="m 239.6,161.5 c 0,0 10.5,6.9 36,6.9 25.5,0 40,-5.5 40,-5.5 v -9.5 c 0,0 -2.1,10.8 -40,10.8 -23.4,0 -36,-5.7 -36,-5.7 z"
   id="path476"
   inkscape:connector-curvature="0" />
	<path
   class="st2"
   d="m 138.5,189.5 c 0,0 45.6,0 54.1,0 8.6,0 12.5,11 12.8,34 0,0 -3.1,-27 -11.4,-27 -8.3,0 -54.3,0 -54.3,0 z"
   id="path478"
   inkscape:connector-curvature="0" />
	<path
   class="st2"
   d="m 117.2,229.2 c 0,0 33,0 40.2,0 12.1,0 16.5,10.3 17.3,19.9 0,0 -6.2,-12.7 -16.3,-12.7 -10.1,0 -40.6,0 -40.6,0 z"
   id="path480"
   inkscape:connector-curvature="0" />
	<path
   class="st2"
   d="m 259.1,143.9 c 0,0 13.5,0.8 16.1,-12.7 l 20.1,2.7 c 0,0 -1.1,12.9 10.8,16.2 L 305,155 c 0,0 -8.2,-8.3 -21.7,-10.5 -11.4,-1.8 -25,5.6 -25,5.6 z"
   id="path482"
   inkscape:connector-curvature="0" />
	<g
   id="g488">
		<g
   id="g486">
			<path
   d="m 130.1,211 -0.1,-0.9 h 1.8 l 0.6,4.2 h -1.8 l -0.1,-1 c -0.9,-1.1 -2.1,-1.7 -3.4,-1.7 -0.8,0 -1.4,0.2 -1.8,0.5 -0.4,0.3 -0.5,0.8 -0.4,1.4 0.1,0.5 0.3,0.8 0.6,1.1 0.3,0.3 0.7,0.5 1,0.6 0.4,0.1 0.9,0.3 1.5,0.4 l 1.1,0.3 c 1,0.2 1.9,0.5 2.5,0.8 0.7,0.3 1.2,0.8 1.7,1.4 0.4,0.6 0.7,1.3 0.8,2.3 0.2,1.2 -0.1,2.2 -0.7,3 -0.7,0.8 -1.7,1.2 -3,1.2 l 0.4,2.4 h -1.6 l -0.4,-2.6 c -0.8,-0.2 -1.6,-0.6 -2.3,-1.3 l 0.2,1.2 h -1.8 l -0.8,-5.2 h 1.8 l 0.2,1.3 c 1.1,1.6 2.4,2.4 3.7,2.4 0.8,0 1.4,-0.2 1.8,-0.6 0.4,-0.4 0.5,-1 0.4,-1.7 -0.1,-0.6 -0.4,-1.1 -0.8,-1.4 -0.5,-0.3 -1.1,-0.6 -2,-0.8 l -1.7,-0.4 c -1.3,-0.3 -2.3,-0.8 -3.1,-1.5 -0.7,-0.6 -1.2,-1.5 -1.4,-2.5 -0.2,-1.2 0,-2.1 0.6,-2.8 0.6,-0.7 1.6,-1.1 2.8,-1.1 l -0.3,-1.9 h 1.7 l 0.3,2.1 c 0.6,-0.1 1.3,0.3 2,0.8 z"
   id="path484"
   inkscape:connector-curvature="0" />
		</g>
	</g>
	<g
   id="g492">
		<path
   d="m 154.9,164.6 v -0.9 h 1.7 v 4.2 h -1.7 v -1 c -0.8,-1.1 -1.8,-1.7 -3,-1.7 -0.8,0 -1.4,0.2 -1.8,0.5 -0.4,0.3 -0.6,0.8 -0.6,1.4 0,0.5 0.1,0.8 0.4,1.1 0.3,0.3 0.6,0.5 0.9,0.6 0.3,0.1 0.8,0.3 1.4,0.4 l 1,0.3 c 0.9,0.2 1.7,0.5 2.3,0.8 0.6,0.3 1.1,0.8 1.4,1.4 0.4,0.6 0.5,1.3 0.5,2.3 0,1.2 -0.4,2.2 -1.1,3 -0.8,0.8 -1.8,1.2 -3.2,1.2 v 2.4 h -1.6 V 178 c -0.8,-0.2 -1.5,-0.6 -2.1,-1.3 v 1.2 h -1.8 v -5.2 h 1.8 v 1.3 c 0.9,1.6 2,2.4 3.3,2.4 0.8,0 1.4,-0.2 1.9,-0.6 0.4,-0.4 0.7,-1 0.7,-1.7 0,-0.6 -0.2,-1.1 -0.6,-1.4 -0.4,-0.3 -1,-0.6 -1.8,-0.8 l -1.6,-0.4 c -1.2,-0.3 -2.1,-0.8 -2.7,-1.5 -0.6,-0.6 -0.9,-1.5 -0.9,-2.5 0,-1.2 0.3,-2.1 1,-2.8 0.7,-0.7 1.7,-1.1 2.9,-1.1 v -1.9 h 1.6 v 2.1 c 0.5,-0.1 1.1,0.3 1.7,0.8 z"
   id="path490"
   inkscape:connector-curvature="0" />
	</g>
	<g
   id="g496">
		<path
   d="m 266,192.2 -1.1,-0.2 0.4,-2.2 5.3,1 -0.4,2.2 -1.2,-0.2 c -1.6,0.7 -2.5,1.8 -2.8,3.4 -0.2,1 -0.1,1.8 0.2,2.4 0.3,0.6 0.8,1 1.6,1.1 0.6,0.1 1.1,0 1.5,-0.2 0.4,-0.3 0.7,-0.6 1,-1 0.3,-0.4 0.5,-0.9 0.8,-1.6 l 0.6,-1.2 c 0.5,-1.1 1.1,-2 1.6,-2.7 0.5,-0.7 1.2,-1.2 2,-1.5 0.8,-0.3 1.8,-0.3 3,-0.1 1.6,0.3 2.7,1 3.5,2.1 0.8,1.1 1,2.6 0.8,4.3 l 3,0.6 -0.4,2 -3.2,-0.6 c -0.5,0.9 -1.2,1.7 -2.1,2.3 l 1.5,0.3 -0.4,2.2 -6.5,-1.2 0.4,-2.2 1.6,0.3 c 2.2,-0.7 3.4,-1.9 3.7,-3.6 0.2,-1 0.1,-1.8 -0.3,-2.5 -0.4,-0.7 -1.1,-1.1 -2,-1.2 -0.7,-0.1 -1.4,0 -1.9,0.4 -0.5,0.4 -1,1.1 -1.5,2.1 l -0.9,1.9 c -0.7,1.4 -1.5,2.5 -2.5,3.1 -1,0.6 -2.1,0.8 -3.4,0.6 -1.5,-0.3 -2.6,-0.9 -3.3,-2 -0.7,-1 -1,-2.3 -0.7,-3.9 l -2.4,-0.5 0.4,-2 2.6,0.5 c 0.2,-0.9 0.7,-1.6 1.5,-2.2 z"
   id="path494"
   inkscape:connector-curvature="0" />
	</g>
	<g
   id="g500">
		<path
   d="m 195.1,129.6 v -0.9 h 1.7 v 4.2 h -1.7 v -1 c -0.8,-1.1 -1.8,-1.7 -3,-1.7 -0.8,0 -1.4,0.2 -1.8,0.5 -0.4,0.3 -0.6,0.8 -0.6,1.4 0,0.5 0.1,0.8 0.4,1.1 0.3,0.3 0.6,0.5 0.9,0.6 0.3,0.1 0.8,0.3 1.4,0.4 l 1,0.3 c 0.9,0.2 1.7,0.5 2.3,0.8 0.6,0.3 1.1,0.8 1.4,1.4 0.4,0.6 0.5,1.3 0.5,2.3 0,1.2 -0.4,2.2 -1.1,3 -0.7,0.8 -1.8,1.2 -3.2,1.2 v 2.4 h -1.6 V 143 c -0.8,-0.2 -1.5,-0.6 -2.1,-1.3 v 1.2 h -1.8 v -5.2 h 1.8 v 1.3 c 0.9,1.6 2,2.4 3.3,2.4 0.8,0 1.4,-0.2 1.9,-0.6 0.4,-0.4 0.7,-1 0.7,-1.7 0,-0.6 -0.2,-1.1 -0.6,-1.4 -0.4,-0.3 -1,-0.6 -1.8,-0.8 l -1.6,-0.4 c -1.2,-0.3 -2.1,-0.8 -2.7,-1.5 -0.6,-0.6 -0.9,-1.5 -0.9,-2.5 0,-1.2 0.3,-2.1 1,-2.8 0.7,-0.7 1.7,-1.1 2.9,-1.1 v -1.9 h 1.6 v 2.1 c 0.5,0 1.1,0.3 1.7,0.8 z"
   id="path498"
   inkscape:connector-curvature="0" />
	</g>
	<g
   id="g504">
		<path
   d="m 86.1,246.2 v -0.9 h 1.7 v 4.2 h -1.7 v -1 c -0.8,-1.1 -1.8,-1.7 -3,-1.7 -0.8,0 -1.4,0.2 -1.8,0.5 -0.4,0.3 -0.6,0.8 -0.6,1.4 0,0.5 0.1,0.8 0.4,1.1 0.3,0.3 0.6,0.5 0.9,0.6 0.3,0.1 0.8,0.3 1.4,0.4 l 1,0.3 c 0.9,0.2 1.7,0.5 2.3,0.8 0.6,0.3 1.1,0.8 1.4,1.4 0.4,0.6 0.5,1.3 0.5,2.3 0,1.2 -0.4,2.2 -1.1,3 -0.8,0.8 -1.8,1.2 -3.2,1.2 v 2.4 h -1.6 v -2.6 c -0.8,-0.2 -1.5,-0.6 -2.1,-1.3 v 1.2 h -1.8 v -5.2 h 1.8 v 1.3 c 0.9,1.6 2,2.4 3.3,2.4 0.8,0 1.4,-0.2 1.9,-0.6 0.4,-0.4 0.7,-1 0.7,-1.7 0,-0.6 -0.2,-1.1 -0.6,-1.4 -0.4,-0.3 -1,-0.6 -1.8,-0.8 l -1.6,-0.4 c -1.2,-0.3 -2.1,-0.8 -2.7,-1.5 -0.6,-0.6 -0.9,-1.5 -0.9,-2.5 0,-1.2 0.3,-2.1 1,-2.8 0.7,-0.7 1.7,-1.1 2.9,-1.1 v -1.9 h 1.6 v 2.1 c 0.5,-0.1 1.1,0.3 1.7,0.8 z"
   id="path502"
   inkscape:connector-curvature="0" />
	</g>
	<g
   id="g522">
		<path
   d="m 154.2,213.1 c 2.7,0 4,0.5 5.3,1 1.5,0.6 3.1,1.2 6.2,1.2 3.1,0 4.7,-0.6 6.2,-1.2 1.4,-0.5 2.7,-1 5.3,-1 0.7,0 1.2,-0.5 1.2,-1.2 0,-0.7 -0.5,-1.2 -1.2,-1.2 -3.1,0 -4.7,0.6 -6.2,1.2 -1.4,0.5 -2.7,1 -5.3,1 -2.7,0 -4,-0.5 -5.3,-1 -1.5,-0.6 -3.1,-1.2 -6.2,-1.2 -3.1,0 -4.7,0.6 -6.2,1.2 -1.4,0.5 -2.7,1 -5.3,1 -0.7,0 -1.2,0.5 -1.2,1.2 0,0.7 0.5,1.2 1.2,1.2 3.1,0 4.7,-0.6 6.2,-1.2 1.4,-0.5 2.7,-1 5.3,-1 z"
   id="path506"
   inkscape:connector-curvature="0" />
		<path
   d="m 179.3,220.1 c -3.1,0 -4.7,0.6 -6.2,1.2 -1.4,0.5 -2.7,1 -5.3,1 -2.6,0 -4,-0.5 -5.3,-1 -1.5,-0.6 -3.1,-1.2 -6.2,-1.2 -3.1,0 -4.7,0.6 -6.2,1.2 -1.4,0.5 -2.7,1 -5.3,1 -0.7,0 -1.2,0.5 -1.2,1.2 0,0.7 0.5,1.2 1.2,1.2 3.1,0 4.7,-0.6 6.2,-1.2 1.4,-0.5 2.7,-1 5.3,-1 2.7,0 4,0.5 5.3,1 1.5,0.6 3.1,1.2 6.2,1.2 3.1,0 4.7,-0.6 6.2,-1.2 1.4,-0.5 2.7,-1 5.3,-1 0.7,0 1.2,-0.5 1.2,-1.2 0,-0.7 -0.5,-1.2 -1.2,-1.2 z"
   id="path508"
   inkscape:connector-curvature="0" />
		<path
   d="m 171.6,167.5 c 1.4,-0.5 2.7,-1 5.3,-1 2.7,0 4,0.5 5.3,1 1.5,0.6 3.1,1.2 6.2,1.2 3.1,0 4.7,-0.6 6.2,-1.2 1.4,-0.5 2.7,-1 5.3,-1 0.7,0 1.2,-0.5 1.2,-1.2 0,-0.7 -0.5,-1.2 -1.2,-1.2 -3.1,0 -4.7,0.6 -6.2,1.2 -1.4,0.5 -2.7,1 -5.3,1 -2.6,0 -4,-0.5 -5.3,-1 -1.5,-0.6 -3.1,-1.2 -6.2,-1.2 -3.1,0 -4.7,0.6 -6.2,1.2 -1.4,0.5 -2.7,1 -5.3,1 -0.7,0 -1.2,0.5 -1.2,1.2 0,0.7 0.5,1.2 1.2,1.2 3.1,0 4.6,-0.6 6.2,-1.2 z"
   id="path510"
   inkscape:connector-curvature="0" />
		<path
   d="m 230,142.4 c 3.1,0 4.7,-0.6 6.2,-1.2 1.4,-0.5 2.7,-1 5.3,-1 0.7,0 1.2,-0.5 1.2,-1.2 0,-0.7 -0.5,-1.2 -1.2,-1.2 -3.1,0 -4.7,0.6 -6.2,1.2 -1.4,0.5 -2.7,1 -5.3,1 -2.7,0 -4,-0.5 -5.3,-1 -1.5,-0.6 -3.1,-1.2 -6.2,-1.2 -3.1,0 -4.7,0.6 -6.2,1.2 -1.4,0.5 -2.7,1 -5.3,1 -0.7,0 -1.2,0.5 -1.2,1.2 0,0.7 0.5,1.2 1.2,1.2 3.1,0 4.7,-0.6 6.2,-1.2 1.4,-0.5 2.7,-1 5.3,-1 2.7,0 4,0.5 5.3,1 1.5,0.6 3,1.2 6.2,1.2 z"
   id="path512"
   inkscape:connector-curvature="0" />
		<path
   d="m 206.9,133.6 c 3.1,0 4.7,-0.6 6.2,-1.2 1.4,-0.5 2.7,-1 5.3,-1 2.7,0 4,0.5 5.3,1 1.5,0.6 3.1,1.2 6.2,1.2 3.1,0 4.7,-0.6 6.2,-1.2 1.4,-0.5 2.7,-1 5.3,-1 0.7,0 1.2,-0.5 1.2,-1.2 0,-0.7 -0.5,-1.2 -1.2,-1.2 -3.1,0 -4.7,0.6 -6.2,1.2 -1.4,0.5 -2.7,1 -5.3,1 -2.7,0 -4,-0.5 -5.3,-1 -1.5,-0.6 -3.1,-1.2 -6.2,-1.2 -3.1,0 -4.7,0.6 -6.2,1.2 -1.4,0.5 -2.7,1 -5.3,1 -0.7,0 -1.2,0.5 -1.2,1.2 0,0.7 0.5,1.2 1.2,1.2 z"
   id="path514"
   inkscape:connector-curvature="0" />
		<path
   d="m 200.6,173.4 c -3.1,0 -4.7,0.6 -6.2,1.2 -1.4,0.5 -2.7,1 -5.3,1 -2.7,0 -4,-0.5 -5.3,-1 -1.5,-0.6 -3.1,-1.2 -6.2,-1.2 -3.1,0 -4.7,0.6 -6.2,1.2 -1.4,0.5 -2.7,1 -5.3,1 -0.7,0 -1.2,0.5 -1.2,1.2 0,0.7 0.5,1.2 1.2,1.2 3.1,0 4.7,-0.6 6.2,-1.2 1.4,-0.5 2.7,-1 5.3,-1 2.7,0 4,0.5 5.3,1 1.5,0.6 3.1,1.2 6.2,1.2 3.1,0 4.7,-0.6 6.2,-1.2 1.4,-0.5 2.7,-1 5.3,-1 0.7,0 1.2,-0.5 1.2,-1.2 0,-0.7 -0.5,-1.2 -1.2,-1.2 z"
   id="path516"
   inkscape:connector-curvature="0" />
		<path
   d="m 131.6,250.3 c -3.1,0 -4.7,0.6 -6.2,1.2 -1.4,0.5 -2.7,1 -5.3,1 -2.6,0 -4,-0.5 -5.3,-1 -1.5,-0.6 -3.1,-1.2 -6.2,-1.2 -3.1,0 -4.7,0.6 -6.2,1.2 -1.4,0.5 -2.7,1 -5.3,1 -0.7,0 -1.2,0.5 -1.2,1.2 0,0.7 0.5,1.2 1.2,1.2 3.1,0 4.7,-0.6 6.2,-1.2 1.4,-0.5 2.7,-1 5.3,-1 2.7,0 4,0.5 5.3,1 1.5,0.6 3.1,1.2 6.2,1.2 3.1,0 4.7,-0.6 6.2,-1.2 1.4,-0.5 2.7,-1 5.3,-1 0.7,0 1.2,-0.5 1.2,-1.2 0,-0.7 -0.6,-1.2 -1.2,-1.2 z"
   id="path518"
   inkscape:connector-curvature="0" />
		<path
   d="m 315.1,166.1 c 1.1,-0.8 1.7,-1.7 1.7,-2.8 V 153 c 0,-2.3 -2.9,-4.1 -8.8,-5.6 1.7,-7 2.9,-10.9 3,-11.1 0.1,-0.3 0.1,-0.7 -0.1,-1 -0.2,-0.3 -0.5,-0.5 -0.9,-0.5 l -34.7,-4.7 v 0 0 l -14.6,-2 c -0.3,0 -0.7,0 -0.9,0.3 -0.3,0.2 -0.4,0.5 -0.4,0.8 -0.4,5 -1,10.5 -1.7,16.3 -0.9,0.1 -1.8,0.2 -2.7,0.3 -0.2,-11.5 -0.9,-25.8 -0.9,-25.9 0,-0.6 -0.6,-1.1 -1.2,-1.1 h -75.4 c -0.3,0 -0.6,0.1 -0.9,0.4 -0.3,0.3 -0.3,0.6 -0.3,0.9 0,0.2 0.9,17.1 1,30.9 h -32 v 0 0 c -2.6,0 -4.8,1 -6.4,3 -4.3,5.2 -4.9,17.2 -1.6,35.8 0.3,1.7 0.7,3.6 1,5.6 h -21.1 c -2.4,0 -4.2,0.8 -5.4,2.3 -3.3,4.2 -1,13.4 1.6,24.1 1.1,4.4 2.2,9 3,13.4 H 83.7 c -9.9,0 -18,8.1 -18,18 0,9.9 8.1,18 18,18 h 75.1 c 5,0 9.4,-3.1 11.1,-7.6 h 15.2 c 1.5,0 2.8,-0.4 4.1,-1.2 4.5,-2.9 5.7,-10.2 6,-12.4 0.2,-1.5 0.3,-3 0.2,-4.6 h 18.5 v 0 c 1.8,0.1 3.3,-0.5 4.5,-1.7 4.2,-4.7 3.1,-17.8 0.3,-34.4 h 11.2 v 35.5 c 0,10.7 7,16.4 10.5,18.6 0.5,0.3 1,0.6 1.6,0.9 0.1,0.1 0.2,0.1 0.2,0.1 v 0 c 7.7,3.5 25,4.5 35.3,4.5 10.3,0 27.6,-1 35.3,-4.5 0,0 0,0 0.1,0 0,0 0.2,-0.1 0.4,-0.2 0.5,-0.2 0.9,-0.5 1.3,-0.7 3.4,-2.1 10.7,-7.8 10.7,-18.7 v -59.4 c 0.1,-11.4 -6.6,-17.1 -10.2,-19.3 z m -3.5,-0.8 c -1.8,0.7 -4.5,1.4 -8,2.1 0.6,-2.9 1.2,-5.6 1.7,-8.2 3.8,-0.8 7.1,-1.7 9.1,-3 v 7.1 c 0,0.4 -0.6,1 -1.8,1.5 -0.4,0 -0.8,0.2 -1,0.5 z m -20.3,88 c 0,0.1 -0.1,0.2 -0.1,0.3 0,0.2 0,0.3 0.1,0.5 0,1.6 -0.1,3.2 -0.1,4.8 l -11.5,-3.1 c 1.8,-5 6.5,-8.5 11.9,-8.8 -0.2,2 -0.2,4.1 -0.3,6.3 z m 0.3,-8.8 c -6.5,0.3 -12.2,4.5 -14.3,10.6 l -21.6,-5.8 c 0.2,-1 0.3,-2 0.3,-3 0,-7 -4.7,-13.2 -11.3,-15.2 2,-9.5 4.8,-22.6 7.4,-36.7 -0.1,0.7 -0.1,1.5 -0.1,2.3 0,12 9.8,21.8 21.8,21.8 12,0 21.8,-9.8 21.8,-21.8 0,-12 -9.8,-21.8 -21.8,-21.8 -10.1,0 -18.5,6.8 -21.1,16.1 1.2,-6.7 2.5,-13.5 3.6,-20.3 7.3,0.9 15.4,1.2 21.3,1.2 6.3,0 15.2,-0.4 22.9,-1.5 -3.6,19 -7.5,44.8 -8.9,74.1 z m -50.1,0.9 c 0.4,-1.9 1.4,-6.2 2.7,-12 5.5,1.8 9.4,7 9.4,12.9 0,0.8 -0.1,1.6 -0.2,2.3 z m 12.9,-48.8 c 0,-10.7 8.7,-19.4 19.4,-19.4 10.7,0 19.4,8.7 19.4,19.4 0,10.7 -8.7,19.4 -19.4,19.4 -10.7,0 -19.4,-8.7 -19.4,-19.4 z m 23.2,-27.2 c -8.3,0 -15.3,-0.5 -20.9,-1.2 0.4,-2.6 0.8,-5.2 1.2,-7.8 6.9,0.8 14.2,1.1 19.6,1.1 6.9,0 16.9,-0.5 25.1,-1.8 -0.6,2.5 -1.1,5.3 -1.7,8.2 -5.8,0.8 -13.6,1.5 -23.3,1.5 z m -33.9,-4.1 c -0.3,-0.3 -0.7,-0.5 -1.1,-0.5 -1.2,-0.6 -1.8,-1.1 -1.8,-1.6 v -7.1 c 3,1.8 8.6,3.1 14.8,3.9 -0.4,2.6 -0.8,5.1 -1.2,7.7 -4.8,-0.6 -8.4,-1.5 -10.7,-2.4 z m 16.5,-20.1 c 0.2,0 0.3,0 0.4,0 7.5,0 14,-5.3 15.6,-12.6 L 294,135 c 0,0.3 0,0.6 0,0.9 0,6.8 4.4,12.9 10.7,15.1 -0.4,1.9 -0.9,3.9 -1.4,6.1 -6.2,1.1 -14.8,2 -25.7,2 -7.5,0 -14,-0.4 -19.3,-1 0.7,-4.5 1.3,-8.8 1.9,-12.9 z m 54.2,7.8 c 0,1 -2.9,2.4 -8.6,3.6 0.6,-2.5 1.1,-4.8 1.6,-6.9 5.8,1.4 7,2.8 7,3.3 z m -8.9,-5.1 c -0.1,0 -0.1,0 0,0 0,0.1 0,0.1 0,0.2 0,0.2 -0.1,0.4 -0.1,0.6 -5.3,-1.9 -8.9,-7 -8.9,-12.7 0,-0.2 0,-0.4 0,-0.6 l 12,1.6 c -0.7,1.8 -1.7,5.5 -3,10.9 z m -43.8,-17.2 12.1,1.6 c -1.4,6.1 -6.8,10.5 -13.2,10.5 -0.1,0 -0.1,0 -0.2,0 0.6,-4.3 1,-8.4 1.3,-12.1 z m -5.7,27 c -9.9,-1.4 -15.2,-3.5 -15.2,-4.8 0,-1 4.1,-3.4 16.5,-5 -0.3,3.3 -0.8,6.5 -1.3,9.8 z m -77.2,-36.5 h 73 c 0.2,3.7 0.7,15.4 0.9,25 -7.4,1.2 -14.2,3.3 -14.2,6.7 v 10.3 c 0,1 0.6,2 1.7,2.8 -0.5,0.3 -1.1,0.7 -1.8,1.2 -3.3,2.5 -7.1,6.9 -8.1,14 0,-0.7 0,-1.5 -0.1,-2.2 -0.4,-14.5 -0.8,-28.2 -9.4,-28.2 h -41 c -0.2,-11.5 -0.8,-25.4 -1,-29.6 z M 83.7,268.7 c -8.6,0 -15.6,-7 -15.6,-15.6 0,-8.6 7,-15.6 15.6,-15.6 h 66.1 c -5.4,3.1 -9,8.9 -9,15.6 0,6.7 3.6,12.5 9,15.6 z m 69.4,-8.9 h -8.4 c 0,0 0,0 -0.1,0 -1,-2 -1.5,-4.3 -1.5,-6.6 0,-1.2 0.2,-2.4 0.4,-3.5 h 9.5 c -0.9,1 -1.6,2.2 -1.9,3.6 -0.3,1.9 0.1,4.4 2,6.5 z m 5.6,8.9 c -5.2,0 -9.9,-2.6 -12.7,-6.6 h 10.9 c 0.6,0 1.1,-0.4 1.2,-1 0.1,-0.6 -0.2,-1.1 -0.7,-1.3 -3.4,-1.5 -4.2,-4.1 -3.8,-6.2 0.4,-2 2.2,-4.1 5.1,-4.1 5.3,0 9.6,4.3 9.6,9.6 0,5.3 -4.3,9.6 -9.6,9.6 z m 0,-21.5 h -14.4 c 2.3,-5.7 7.9,-9.6 14.4,-9.6 10.5,0 13.2,7.3 15.8,14.5 1.3,3.5 2.6,7 4.8,9.1 h -8.8 c 0.1,-0.6 0.2,-1.3 0.2,-2 0,-6.6 -5.4,-12 -12,-12 z m 34.1,2.5 c -0.5,3.9 -2.1,8.8 -4.9,10.7 -0.8,0.5 -1.7,0.8 -2.6,0.8 v 0 H 185 c -0.5,0 -1,-0.1 -1.6,-0.3 -3.4,-1 -4.9,-5 -6.6,-9.7 -2.6,-7.1 -5.9,-16 -18.1,-16 h -39.8 c -0.8,-4.7 -2,-9.4 -3.1,-14 -2.4,-9.6 -4.6,-18.8 -2.1,-22 0.7,-0.9 1.9,-1.4 3.5,-1.4 h 70.9 c -0.1,0.1 -0.1,0.1 -0.2,0.2 -3.2,4.6 -1.1,14.2 1.4,25.3 2.2,9.4 4.4,19.1 3.5,26.4 z m -1.1,-27 c -2.3,-10.1 -4.4,-19.7 -1.8,-23.4 0.6,-0.9 1.6,-1.4 2.8,-1.6 6.3,-0.8 8.9,12.9 11.3,25 1.7,8.7 3.2,16.5 6,20.3 h -14.7 c -0.4,-6.3 -2,-13.4 -3.6,-20.3 z m 24.9,19.3 c -0.7,0.8 -1.5,1.1 -2.6,1 -3.7,-0.3 -5.8,-11.2 -7.6,-20.7 -2.6,-13.7 -5.3,-27.9 -13.8,-26.9 h -51.8 c -0.4,-2.1 -0.8,-4.2 -1.1,-6 -3.1,-17.6 -2.7,-29.3 1.1,-33.8 1.2,-1.4 2.7,-2.1 4.6,-2.1 h 33.2 v 0 h 36.2 c -0.2,0.2 -0.3,0.4 -0.5,0.5 -4.4,5.2 -4.9,17.2 -1.6,35.8 0.4,2.2 0.9,4.7 1.3,7.3 3,15.7 7.5,39.5 2.6,44.9 z m 1.7,-35.1 c -0.6,-3.3 -1.2,-6.8 -1.9,-10.3 -0.5,-2.6 -0.9,-5 -1.3,-7.2 -3.1,-17.6 -2.7,-29.3 1.1,-33.9 1.2,-1.4 2.7,-2.1 4.6,-2.1 6.3,0 6.7,13.1 7,25.8 0.2,8 0.5,16.2 2.2,21.9 v 5.7 h -11.7 z m 14,37.8 v -59.4 c 0,-8.5 4.1,-13.5 7.5,-16.1 1.2,-0.9 2.2,-1.5 2.8,-1.8 2.8,1.2 6.9,2.1 11.4,2.8 -6.2,36.8 -14.9,75.2 -15.1,75.8 -0.1,0.6 0.2,1.3 0.9,1.4 l 14.2,3.8 v 0 0 l 5.6,1.5 c -4.9,0.5 -9.2,1.2 -12.6,2.1 -4.6,1.2 -7.3,2.6 -8.2,4.2 -3.1,-2.7 -6.5,-7.3 -6.5,-14.3 z m 11.1,17.5 c -0.1,0 -0.1,0 0,0 -0.1,-0.1 -1,-0.5 -2.3,-1.4 -0.1,-0.2 -0.2,-0.3 -0.2,-0.5 0,-1.5 7.5,-4.7 25.6,-5.8 l 11.4,3.1 v 0 0 l 14.2,3.8 c 0.1,0 0.2,0 0.3,0 0.3,0 0.5,-0.1 0.7,-0.2 0.3,-0.2 0.5,-0.6 0.5,-0.9 0,-1.8 0.1,-3.6 0.1,-5.4 15.5,1.4 20.8,4.3 20.8,5.4 0,0.2 -0.1,0.4 -0.3,0.6 -1.2,0.8 -2,1.2 -2.1,1.2 0,0 -0.1,0 -0.1,0.1 -4.8,2 -16.6,4.2 -34.3,4.2 -17.8,0.1 -29.5,-2.2 -34.3,-4.2 z M 323,244.7 c 0,7 -3.4,11.7 -6.5,14.4 -2.1,-4 -14.4,-5.8 -22.8,-6.6 1,-32.9 5.3,-61.8 9.3,-82.6 3.8,-0.6 7.2,-1.5 9.6,-2.5 2.3,1.2 10.3,6 10.3,17.9 v 59.4 z"
   id="path520"
   inkscape:connector-curvature="0" />
	</g>
</g>
</svg>