<?xml version="1.0" encoding="UTF-8" standalone="no"?>
<!-- Generator: Adobe Illustrator 21.0.0, SVG Export Plug-In . SVG Version: 6.00 Build 0)  -->

<svg
   xmlns:dc="http://purl.org/dc/elements/1.1/"
   xmlns:cc="http://creativecommons.org/ns#"
   xmlns:rdf="http://www.w3.org/1999/02/22-rdf-syntax-ns#"
   xmlns:svg="http://www.w3.org/2000/svg"
   xmlns="http://www.w3.org/2000/svg"
   xmlns:sodipodi="http://sodipodi.sourceforge.net/DTD/sodipodi-0.dtd"
   xmlns:inkscape="http://www.inkscape.org/namespaces/inkscape"
   version="1.1"
   id="Layer_1"
   x="0px"
   y="0px"
   viewBox="0 0 243.8 202.53401"
   xml:space="preserve"
   sodipodi:docname="completed-parchment_touched.svg"
   width="243.8"
   height="202.53401"
   inkscape:version="0.92.4 (33fec40, 2019-01-16)"><metadata
   id="metadata623"><rdf:RDF><cc:Work
       rdf:about=""><dc:format>image/svg+xml</dc:format><dc:type
         rdf:resource="http://purl.org/dc/dcmitype/StillImage" /><dc:title></dc:title></cc:Work></rdf:RDF></metadata><defs
   id="defs621" /><sodipodi:namedview
   pagecolor="#ffffff"
   bordercolor="#666666"
   borderopacity="1"
   objecttolerance="10"
   gridtolerance="10"
   guidetolerance="10"
   inkscape:pageopacity="0"
   inkscape:pageshadow="2"
   inkscape:window-width="3840"
   inkscape:window-height="2112"
   id="namedview619"
   showgrid="false"
   fit-margin-top="0"
   fit-margin-left="0"
   fit-margin-right="0"
   fit-margin-bottom="0"
   inkscape:zoom="4.72"
   inkscape:cx="92.883505"
   inkscape:cy="76.694813"
   inkscape:window-x="0"
   inkscape:window-y="48"
   inkscape:window-maximized="1"
   inkscape:current-layer="Layer_1" />
<g
   id="g616"
   transform="translate(-78.6,-100.2997)">
	<path
   class="st0"
   d="m 78.6,197.6 c 0,136.4 234.3,141.4 234.3,8 0,-133.4 -234.3,-144.4 -234.3,-8 z"
   id="path578"
   inkscape:connector-curvature="0" />
	<path
   class="st1"
   d="M 298.8,122.1 H 252 152.4 c -5.2,0 -10.4,1.1 -15.1,3.4 -9.6,4.7 -22.7,15.7 -24.2,40.5 -2.4,39.6 -4,62.8 -5.8,79.1 -3.9,34.7 -20.7,40 -20.7,40 h 140 c 11.2,0 21.4,-6.4 26.1,-16.6 2.6,-5.7 4.8,-13.4 6,-23.5 1.8,-16.3 3.4,-39.6 5.8,-79.1 0.1,-1.9 0.3,-3.7 0.5,-5.5 v 0 0 -0.1 h 0.1 l -0.1,0.1 v 0 h 20 c 0,0 9.9,0 18,0 12.6,0 18.1,-10 18.1,-18 C 321,128 308.9,122.1 298.8,122.1 Z"
   id="path580"
   inkscape:connector-curvature="0" />
	<path
   class="st2"
   d="m 275.6,143.9 c 0,0 -0.9,10.8 9.3,16.6 h -20 c 0,0 1.9,-11.5 3.9,-15.8 z"
   id="path582"
   inkscape:connector-curvature="0" />
	<path
   class="st2"
   d="m 294.6,122.5 c 0,0 16.2,3.8 17,18.6 0.9,14.7 -9.9,19.3 -9.9,19.3 0,0 -14.9,-2.5 -14.9,-14.7 l -18.1,-1 c 0.1,0 5.9,-19.2 25.9,-22.2 z"
   id="path584"
   inkscape:connector-curvature="0" />
	<g
   id="g588">
		<path
   class="st2"
   d="m 140.9,132.8 c -8.3,4.1 -18.5,13.3 -19.8,33.8 -2.4,39.8 -4,63.1 -5.8,79.5 -1.6,14.2 -5.2,24.2 -9.3,31.2 h 120.6 c 17.9,0 11.2,-36.2 -39.6,-22.5 -58.2,15.7 -52.1,-30.8 -31.4,-54.1 40.2,-45.2 23.3,-70.5 -3.1,-70.5 -3.9,-0.1 -8.1,0.8 -11.6,2.6 z"
   id="path586"
   inkscape:connector-curvature="0" />
	</g>
	<path
   class="st2"
   d="m 193.6,153.8 c 0,14.1 27.7,24.6 27.7,1.5 0,-23.1 -27.7,-15.6 -27.7,-1.5 z"
   id="path590"
   inkscape:connector-curvature="0" />
	<g
   id="g614">
		<path
   d="M 298.8,120.9 H 152.5 c -5.5,0 -10.9,1.2 -15.6,3.6 -10.5,5.2 -23.4,16.6 -24.9,41.5 -2.4,39.7 -4,62.8 -5.8,79.1 -3.7,33.4 -19.8,39 -19.9,39 -0.6,0.2 -0.9,0.7 -0.8,1.3 0.1,0.6 0.6,1 1.2,1 h 140 c 11.7,0 22.4,-6.8 27.2,-17.3 3,-6.6 5,-14.6 6.1,-23.8 1.8,-16.3 3.4,-39.4 5.8,-79.2 0.1,-1.5 0.2,-2.9 0.4,-4.3 h 36.9 c 12.6,0 19.3,-9.6 19.3,-19.2 -0.2,-14.9 -12.3,-21.7 -23.6,-21.7 z M 257.4,245 c -1,9 -3,16.8 -5.9,23.1 -4.4,9.6 -14.2,15.9 -25,15.9 H 91.2 c 5.5,-4 14.6,-14.2 17.3,-38.7 1.8,-16.3 3.4,-39.4 5.8,-79.2 1.4,-23.7 13.6,-34.6 23.6,-39.5 4.4,-2.2 9.4,-3.3 14.6,-3.3 h 134.8 c -2.7,1.1 -5.6,2.7 -8.4,5 -9.4,7.7 -14.6,20.3 -15.7,37.6 -2.4,39.8 -4,62.9 -5.8,79.1 z m 8.9,-85.6 c 0.7,-5.2 1.8,-9.6 3.3,-13.4 l 16.2,0.9 c 0.4,5.2 3.8,9.8 8.4,12.5 z m 36.6,0 c -8.7,0 -14.8,-7.2 -14.8,-13.7 0,-0.6 -0.5,-1.2 -1.1,-1.2 l -16.4,-0.9 c 8.3,-19.1 24.4,-20.3 28.3,-20.3 14.4,0 20.9,10 20.9,19.3 0,6.8 -4.5,16.8 -16.9,16.8 z"
   id="path592"
   inkscape:connector-curvature="0" />
		<path
   d="m 250.7,140 c -4.8,0 -7.3,0.9 -9.7,1.9 -2.3,0.9 -4.4,1.7 -8.8,1.7 -4.4,0 -6.5,-0.8 -8.8,-1.7 -2.4,-0.9 -4.8,-1.9 -9.7,-1.9 -4.8,0 -7.3,0.9 -9.7,1.9 -2.3,0.9 -4.4,1.7 -8.8,1.7 -0.7,0 -1.2,0.5 -1.2,1.2 0,0.7 0.5,1.2 1.2,1.2 4.8,0 7.3,-0.9 9.7,-1.9 2.3,-0.9 4.4,-1.7 8.8,-1.7 4.4,0 6.5,0.8 8.8,1.7 2.4,0.9 4.8,1.9 9.7,1.9 4.9,0 7.3,-0.9 9.7,-1.9 2.3,-0.9 4.4,-1.7 8.8,-1.7 0.7,0 1.2,-0.5 1.2,-1.2 0,-0.7 -0.5,-1.2 -1.2,-1.2 z"
   id="path594"
   inkscape:connector-curvature="0" />
		<path
   d="m 245.4,155.7 c -4.8,0 -7.3,0.9 -9.7,1.9 -2.3,0.9 -4.4,1.7 -8.8,1.7 -4.4,0 -6.5,-0.8 -8.8,-1.7 -2.4,-0.9 -4.8,-1.9 -9.7,-1.9 -4.8,0 -7.3,0.9 -9.7,1.9 -2.3,0.9 -4.4,1.7 -8.8,1.7 -0.7,0 -1.2,0.5 -1.2,1.2 0,0.7 0.5,1.2 1.2,1.2 4.8,0 7.3,-0.9 9.7,-1.9 2.3,-0.9 4.4,-1.7 8.8,-1.7 4.4,0 6.5,0.8 8.8,1.7 2.4,0.9 4.8,1.9 9.7,1.9 4.9,0 7.3,-0.9 9.7,-1.9 2.3,-0.9 4.4,-1.7 8.8,-1.7 0.7,0 1.2,-0.5 1.2,-1.2 0,-0.7 -0.5,-1.2 -1.2,-1.2 z"
   id="path596"
   inkscape:connector-curvature="0" />
		<path
   d="m 244,171.3 c -4.8,0 -7.3,0.9 -9.7,1.9 -2.3,0.9 -4.4,1.7 -8.8,1.7 -4.4,0 -6.5,-0.8 -8.8,-1.7 -2.4,-0.9 -4.8,-1.9 -9.7,-1.9 -4.9,0 -7.3,0.9 -9.7,1.9 -2.3,0.9 -4.4,1.7 -8.8,1.7 -0.7,0 -1.2,0.5 -1.2,1.2 0,0.7 0.5,1.2 1.2,1.2 4.8,0 7.3,-0.9 9.7,-1.9 2.3,-0.9 4.4,-1.7 8.8,-1.7 4.4,0 6.5,0.8 8.8,1.7 2.4,0.9 4.8,1.9 9.7,1.9 4.9,0 7.3,-0.9 9.7,-1.9 2.3,-0.9 4.4,-1.7 8.8,-1.7 0.7,0 1.2,-0.5 1.2,-1.2 0,-0.7 -0.5,-1.2 -1.2,-1.2 z"
   id="path598"
   inkscape:connector-curvature="0" />
		<path
   d="m 243.1,186.8 c -4.9,0 -7.4,1.1 -9.8,2.1 -2.3,1 -4.4,1.9 -8.9,1.9 -4.4,0 -6.6,-0.9 -8.9,-1.9 -2.4,-1 -4.9,-2.1 -9.8,-2.1 -4.9,0 -7.4,1.1 -9.8,2.1 -2.3,1 -4.4,1.9 -8.9,1.9 -4.5,0 -6.6,-0.9 -8.9,-1.9 -2.4,-1 -4.9,-2.1 -9.8,-2.1 -4.9,0 -7.4,1.1 -9.8,2.1 -2.3,1 -4.4,1.9 -8.9,1.9 -4.4,0 -6.6,-0.9 -8.9,-1.9 -2.4,-1 -4.9,-2.1 -9.8,-2.1 -0.7,0 -1.2,0.5 -1.2,1.2 0,0.7 0.5,1.2 1.2,1.2 4.4,0 6.6,0.9 8.9,1.9 2.4,1 4.9,2.1 9.8,2.1 4.9,0 7.4,-1.1 9.8,-2.1 2.3,-1 4.4,-1.9 8.9,-1.9 4.4,0 6.6,0.9 8.9,1.9 2.4,1 4.9,2.1 9.8,2.1 4.9,0 7.4,-1.1 9.8,-2.1 2.3,-1 4.4,-1.9 8.9,-1.9 4.4,0 6.6,0.9 8.9,1.9 2.4,1 4.9,2.1 9.8,2.1 4.9,0 7.4,-1.1 9.8,-2.1 2.3,-1 4.4,-1.9 8.9,-1.9 0.7,0 1.2,-0.5 1.2,-1.2 0,-0.7 -0.6,-1.2 -1.2,-1.2 z"
   id="path600"
   inkscape:connector-curvature="0" />
		<path
   d="m 241.9,202.5 c -4.9,0 -7.4,1.1 -9.8,2.1 -2.3,1 -4.4,1.9 -8.9,1.9 -4.4,0 -6.6,-0.9 -8.9,-1.9 -2.4,-1 -4.9,-2.1 -9.8,-2.1 -4.9,0 -7.4,1.1 -9.8,2.1 -2.3,1 -4.4,1.9 -8.9,1.9 -4.5,0 -6.6,-0.9 -8.9,-1.9 -2.4,-1 -4.9,-2.1 -9.8,-2.1 -4.9,0 -7.4,1.1 -9.8,2.1 -2.3,1 -4.4,1.9 -8.9,1.9 -4.4,0 -6.6,-0.9 -8.9,-1.9 -2.4,-1 -4.9,-2.1 -9.8,-2.1 -0.7,0 -1.2,0.5 -1.2,1.2 0,0.7 0.5,1.2 1.2,1.2 4.4,0 6.6,0.9 8.9,1.9 2.4,1 4.9,2.1 9.8,2.1 4.9,0 7.4,-1.1 9.8,-2.1 2.3,-1 4.4,-1.9 8.9,-1.9 4.4,0 6.6,0.9 8.9,1.9 2.4,1 4.9,2.1 9.8,2.1 4.9,0 7.4,-1.1 9.8,-2.1 2.3,-1 4.4,-1.9 8.9,-1.9 4.4,0 6.6,0.9 8.9,1.9 2.4,1 4.9,2.1 9.8,2.1 4.9,0 7.4,-1.1 9.8,-2.1 2.3,-1 4.4,-1.9 8.9,-1.9 0.7,0 1.2,-0.5 1.2,-1.2 0,-0.7 -0.5,-1.2 -1.2,-1.2 z"
   id="path602"
   inkscape:connector-curvature="0" />
		<path
   d="m 240.9,218.2 c -4.9,0 -7.4,1.1 -9.8,2.1 -2.3,1 -4.4,1.9 -8.9,1.9 -4.5,0 -6.6,-0.9 -8.9,-1.9 -2.4,-1 -4.9,-2.1 -9.8,-2.1 -4.9,0 -7.4,1.1 -9.8,2.1 -2.3,1 -4.4,1.9 -8.9,1.9 -4.5,0 -6.6,-0.9 -8.9,-1.9 -2.4,-1 -4.9,-2.1 -9.8,-2.1 -4.9,0 -7.4,1.1 -9.8,2.1 -2.3,1 -4.4,1.9 -8.9,1.9 -4.4,0 -6.6,-0.9 -8.9,-1.9 -2.4,-1 -4.9,-2.1 -9.8,-2.1 -0.7,0 -1.2,0.5 -1.2,1.2 0,0.7 0.5,1.2 1.2,1.2 4.4,0 6.6,0.9 8.9,1.9 2.4,1 4.9,2.1 9.8,2.1 4.9,0 7.4,-1.1 9.8,-2.1 2.3,-1 4.4,-1.9 8.9,-1.9 4.4,0 6.6,0.9 8.9,1.9 2.4,1 4.9,2.1 9.8,2.1 4.9,0 7.4,-1.1 9.8,-2.1 2.3,-1 4.4,-1.9 8.9,-1.9 4.4,0 6.6,0.9 8.9,1.9 2.4,1 4.9,2.1 9.8,2.1 4.9,0 7.4,-1.1 9.8,-2.1 2.3,-1 4.4,-1.9 8.9,-1.9 0.7,0 1.2,-0.5 1.2,-1.2 0,-0.7 -0.5,-1.2 -1.2,-1.2 z"
   id="path604"
   inkscape:connector-curvature="0" />
		<path
   d="m 239.6,233.8 c -4.9,0 -7.4,1.1 -9.8,2.1 -2.3,1 -4.5,1.9 -8.9,1.9 -4.4,0 -6.6,-0.9 -8.9,-1.9 -2.4,-1 -4.9,-2.1 -9.8,-2.1 -4.9,0 -7.4,1.1 -9.8,2.1 -2.3,1 -4.5,1.9 -8.9,1.9 -4.4,0 -6.6,-0.9 -8.9,-1.9 -2.4,-1 -4.9,-2.1 -9.8,-2.1 -4.9,0 -7.4,1.1 -9.8,2.1 -2.3,1 -4.5,1.9 -8.9,1.9 -4.4,0 -6.6,-0.9 -8.9,-1.9 -2.4,-1 -4.9,-2.1 -9.8,-2.1 -0.7,0 -1.2,0.5 -1.2,1.2 0,0.7 0.5,1.2 1.2,1.2 4.4,0 6.6,0.9 8.9,1.9 2.4,1 4.9,2.1 9.8,2.1 4.9,0 7.4,-1.1 9.8,-2.1 2.3,-1 4.5,-1.9 8.9,-1.9 4.4,0 6.6,0.9 8.9,1.9 2.4,1 4.9,2.1 9.8,2.1 4.9,0 7.4,-1.1 9.8,-2.1 2.3,-1 4.5,-1.9 8.9,-1.9 4.4,0 6.6,0.9 8.9,1.9 2.4,1 4.9,2.1 9.8,2.1 4.9,0 7.4,-1.1 9.8,-2.1 2.3,-1 4.5,-1.9 8.9,-1.9 0.7,0 1.2,-0.5 1.2,-1.2 0,-0.7 -0.6,-1.2 -1.2,-1.2 z"
   id="path606"
   inkscape:connector-curvature="0" />
		<path
   d="m 237.6,249.5 c -4.9,0 -7.4,1.1 -9.8,2.1 -2.3,1 -4.4,1.9 -8.9,1.9 -4.4,0 -6.6,-0.9 -8.9,-1.9 -2.4,-1 -4.9,-2.1 -9.8,-2.1 -4.9,0 -7.4,1.1 -9.8,2.1 -2.3,1 -4.4,1.9 -8.9,1.9 -4.4,0 -6.6,-0.9 -8.9,-1.9 -2.4,-1 -4.9,-2.1 -9.8,-2.1 -4.9,0 -7.4,1.1 -9.8,2.1 -2.3,1 -4.4,1.9 -8.9,1.9 -4.4,0 -6.6,-0.9 -8.9,-1.9 -2.4,-1 -4.9,-2.1 -9.8,-2.1 -0.7,0 -1.2,0.5 -1.2,1.2 0,0.7 0.5,1.2 1.2,1.2 4.4,0 6.6,0.9 8.9,1.9 2.4,1 4.9,2.1 9.8,2.1 4.9,0 7.4,-1.1 9.8,-2.1 2.3,-1 4.4,-1.9 8.9,-1.9 4.4,0 6.6,0.9 8.9,1.9 2.4,1 4.9,2.1 9.8,2.1 4.9,0 7.4,-1.1 9.8,-2.1 2.3,-1 4.4,-1.9 8.9,-1.9 4.4,0 6.6,0.9 8.9,1.9 2.4,1 4.9,2.1 9.8,2.1 4.9,0 7.4,-1.1 9.8,-2.1 2.3,-1 4.4,-1.9 8.9,-1.9 0.7,0 1.2,-0.5 1.2,-1.2 0,-0.7 -0.5,-1.2 -1.2,-1.2 z"
   id="path608"
   inkscape:connector-curvature="0" />
		<path
   d="m 232.9,265.2 c -4.9,0 -7.4,1.1 -9.8,2.1 -2.3,1 -4.4,1.9 -8.9,1.9 -4.4,0 -6.6,-0.9 -8.9,-1.9 -2.4,-1 -4.9,-2.1 -9.8,-2.1 -4.9,0 -7.4,1.1 -9.8,2.1 -2.3,1 -4.4,1.9 -8.9,1.9 -4.4,0 -6.6,-0.9 -8.9,-1.9 -2.4,-1 -4.9,-2.1 -9.8,-2.1 -4.9,0 -7.4,1.1 -9.8,2.1 -2.3,1 -4.4,1.9 -8.9,1.9 -4.4,0 -6.6,-0.9 -8.9,-1.9 -2.4,-1 -4.9,-2.1 -9.8,-2.1 -0.7,0 -1.2,0.5 -1.2,1.2 0,0.7 0.5,1.2 1.2,1.2 4.4,0 6.6,0.9 8.9,1.9 2.4,1 4.9,2.1 9.8,2.1 4.9,0 7.4,-1.1 9.8,-2.1 2.3,-1 4.4,-1.9 8.9,-1.9 4.4,0 6.6,0.9 8.9,1.9 2.4,1 4.9,2.1 9.8,2.1 4.9,0 7.4,-1.1 9.8,-2.1 2.3,-1 4.4,-1.9 8.9,-1.9 4.4,0 6.6,0.9 8.9,1.9 2.4,1 4.9,2.1 9.8,2.1 4.9,0 7.4,-1.1 9.8,-2.1 2.3,-1 4.4,-1.9 8.9,-1.9 0.7,0 1.2,-0.5 1.2,-1.2 0,-0.7 -0.5,-1.2 -1.2,-1.2 z"
   id="path610"
   inkscape:connector-curvature="0" />
		<path
   d="m 152,169.6 h -4.2 l 5,-7.6 h 11.7 l 0.5,7.6 h -4.3 l -1.2,4.2 h 13.2 l 1,-4.2 H 170 l -1.9,-25.3 h 3.6 l 1.1,-4 h -15.5 l -1.3,4 h 3.6 l -16.8,25.3 h -4 l -1.5,4.2 h 13.3 z m 11.8,-25.2 h 0.1 l 0.3,13.7 h -9 z"
   id="path612"
   inkscape:connector-curvature="0" />
	</g>
</g>
</svg>