<?xml version="1.0" encoding="utf-8"?>
<!-- Generator: Adobe Illustrator 21.0.0, SVG Export Plug-In . SVG Version: 6.00 Build 0)  -->
<svg version="1.1" id="Layer_1" xmlns="http://www.w3.org/2000/svg" xmlns:xlink="http://www.w3.org/1999/xlink" x="0px" y="0px"
	viewBox="0 0 400 400" style="enable-background:new 0 0 400 400;" xml:space="preserve">
<g>
	<path class="st0" d="M78.6,197.6c0,136.4,234.3,141.4,234.3,8S78.6,61.2,78.6,197.6z"/>
	<path class="st1" d="M298.8,122.1H252h-99.6c-5.2,0-10.4,1.1-15.1,3.4c-9.6,4.7-22.7,15.7-24.2,40.5c-2.4,39.6-4,62.8-5.8,79.1
		c-3.9,34.7-20.7,40-20.7,40h140c11.2,0,21.4-6.4,26.1-16.6c2.6-5.7,4.8-13.4,6-23.5c1.8-16.3,3.4-39.6,5.8-79.1
		c0.1-1.9,0.3-3.7,0.5-5.5l0,0l0,0v-0.1h0.1l-0.1,0.1l0,0h20c0,0,9.9,0,18,0c12.6,0,18.1-10,18.1-18
		C321,128,308.9,122.1,298.8,122.1z"/>
	<path class="st2" d="M275.6,143.9c0,0-0.9,10.8,9.3,16.6h-20c0,0,1.9-11.5,3.9-15.8L275.6,143.9z"/>
	<path class="st2" d="M294.6,122.5c0,0,16.2,3.8,17,18.6c0.9,14.7-9.9,19.3-9.9,19.3s-14.9-2.5-14.9-14.7l-18.1-1
		C268.8,144.7,274.6,125.5,294.6,122.5z"/>
	<g>
		<path class="st2" d="M140.9,132.8c-8.3,4.1-18.5,13.3-19.8,33.8c-2.4,39.8-4,63.1-5.8,79.5c-1.6,14.2-5.2,24.2-9.3,31.2h120.6
			c17.9,0,11.2-36.2-39.6-22.5c-58.2,15.7-52.1-30.8-31.4-54.1c40.2-45.2,23.3-70.5-3.1-70.5C148.6,130.1,144.4,131,140.9,132.8z"/>
	</g>
	<path class="st2" d="M193.6,153.8c0,14.1,27.7,24.6,27.7,1.5S193.6,139.7,193.6,153.8z"/>
	<g>
		<path d="M298.8,120.9H152.5c-5.5,0-10.9,1.2-15.6,3.6c-10.5,5.2-23.4,16.6-24.9,41.5c-2.4,39.7-4,62.8-5.8,79.1
			c-3.7,33.4-19.8,39-19.9,39c-0.6,0.2-0.9,0.7-0.8,1.3c0.1,0.6,0.6,1,1.2,1h140c11.7,0,22.4-6.8,27.2-17.3c3-6.6,5-14.6,6.1-23.8
			c1.8-16.3,3.4-39.4,5.8-79.2c0.1-1.5,0.2-2.9,0.4-4.3h36.9c12.6,0,19.3-9.6,19.3-19.2C322.2,127.7,310.1,120.9,298.8,120.9z
			M257.4,245c-1,9-3,16.8-5.9,23.1c-4.4,9.6-14.2,15.9-25,15.9H91.2c5.5-4,14.6-14.2,17.3-38.7c1.8-16.3,3.4-39.4,5.8-79.2
			c1.4-23.7,13.6-34.6,23.6-39.5c4.4-2.2,9.4-3.3,14.6-3.3h134.8c-2.7,1.1-5.6,2.7-8.4,5c-9.4,7.7-14.6,20.3-15.7,37.6
			C260.8,205.7,259.2,228.8,257.4,245z M266.3,159.4c0.7-5.2,1.8-9.6,3.3-13.4l16.2,0.9c0.4,5.2,3.8,9.8,8.4,12.5H266.3z
			M302.9,159.4c-8.7,0-14.8-7.2-14.8-13.7c0-0.6-0.5-1.2-1.1-1.2l-16.4-0.9c8.3-19.1,24.4-20.3,28.3-20.3c14.4,0,20.9,10,20.9,19.3
			C319.8,149.4,315.3,159.4,302.9,159.4z"/>
		<path d="M250.7,140c-4.8,0-7.3,0.9-9.7,1.9c-2.3,0.9-4.4,1.7-8.8,1.7s-6.5-0.8-8.8-1.7c-2.4-0.9-4.8-1.9-9.7-1.9
			c-4.8,0-7.3,0.9-9.7,1.9c-2.3,0.9-4.4,1.7-8.8,1.7c-0.7,0-1.2,0.5-1.2,1.2s0.5,1.2,1.2,1.2c4.8,0,7.3-0.9,9.7-1.9
			c2.3-0.9,4.4-1.7,8.8-1.7s6.5,0.8,8.8,1.7c2.4,0.9,4.8,1.9,9.7,1.9s7.3-0.9,9.7-1.9c2.3-0.9,4.4-1.7,8.8-1.7
			c0.7,0,1.2-0.5,1.2-1.2S251.4,140,250.7,140z"/>
		<path d="M245.4,155.7c-4.8,0-7.3,0.9-9.7,1.9c-2.3,0.9-4.4,1.7-8.8,1.7c-4.4,0-6.5-0.8-8.8-1.7c-2.4-0.9-4.8-1.9-9.7-1.9
			c-4.8,0-7.3,0.9-9.7,1.9c-2.3,0.9-4.4,1.7-8.8,1.7c-0.7,0-1.2,0.5-1.2,1.2s0.5,1.2,1.2,1.2c4.8,0,7.3-0.9,9.7-1.9
			c2.3-0.9,4.4-1.7,8.8-1.7s6.5,0.8,8.8,1.7c2.4,0.9,4.8,1.9,9.7,1.9s7.3-0.9,9.7-1.9c2.3-0.9,4.4-1.7,8.8-1.7
			c0.7,0,1.2-0.5,1.2-1.2S246.1,155.7,245.4,155.7z"/>
		<path d="M244,171.3c-4.8,0-7.3,0.9-9.7,1.9c-2.3,0.9-4.4,1.7-8.8,1.7c-4.4,0-6.5-0.8-8.8-1.7c-2.4-0.9-4.8-1.9-9.7-1.9
			s-7.3,0.9-9.7,1.9c-2.3,0.9-4.4,1.7-8.8,1.7c-0.7,0-1.2,0.5-1.2,1.2s0.5,1.2,1.2,1.2c4.8,0,7.3-0.9,9.7-1.9
			c2.3-0.9,4.4-1.7,8.8-1.7c4.4,0,6.5,0.8,8.8,1.7c2.4,0.9,4.8,1.9,9.7,1.9s7.3-0.9,9.7-1.9c2.3-0.9,4.4-1.7,8.8-1.7
			c0.7,0,1.2-0.5,1.2-1.2S244.7,171.3,244,171.3z"/>
		<path d="M243.1,186.8c-4.9,0-7.4,1.1-9.8,2.1c-2.3,1-4.4,1.9-8.9,1.9c-4.4,0-6.6-0.9-8.9-1.9c-2.4-1-4.9-2.1-9.8-2.1
			c-4.9,0-7.4,1.1-9.8,2.1c-2.3,1-4.4,1.9-8.9,1.9s-6.6-0.9-8.9-1.9c-2.4-1-4.9-2.1-9.8-2.1c-4.9,0-7.4,1.1-9.8,2.1
			c-2.3,1-4.4,1.9-8.9,1.9c-4.4,0-6.6-0.9-8.9-1.9c-2.4-1-4.9-2.1-9.8-2.1c-0.7,0-1.2,0.5-1.2,1.2s0.5,1.2,1.2,1.2
			c4.4,0,6.6,0.9,8.9,1.9c2.4,1,4.9,2.1,9.8,2.1c4.9,0,7.4-1.1,9.8-2.1c2.3-1,4.4-1.9,8.9-1.9c4.4,0,6.6,0.9,8.9,1.9
			c2.4,1,4.9,2.1,9.8,2.1c4.9,0,7.4-1.1,9.8-2.1c2.3-1,4.4-1.9,8.9-1.9c4.4,0,6.6,0.9,8.9,1.9c2.4,1,4.9,2.1,9.8,2.1
			c4.9,0,7.4-1.1,9.8-2.1c2.3-1,4.4-1.9,8.9-1.9c0.7,0,1.2-0.5,1.2-1.2S243.7,186.8,243.1,186.8z"/>
		<path d="M241.9,202.5c-4.9,0-7.4,1.1-9.8,2.1c-2.3,1-4.4,1.9-8.9,1.9c-4.4,0-6.6-0.9-8.9-1.9c-2.4-1-4.9-2.1-9.8-2.1
			c-4.9,0-7.4,1.1-9.8,2.1c-2.3,1-4.4,1.9-8.9,1.9s-6.6-0.9-8.9-1.9c-2.4-1-4.9-2.1-9.8-2.1c-4.9,0-7.4,1.1-9.8,2.1
			c-2.3,1-4.4,1.9-8.9,1.9c-4.4,0-6.6-0.9-8.9-1.9c-2.4-1-4.9-2.1-9.8-2.1c-0.7,0-1.2,0.5-1.2,1.2s0.5,1.2,1.2,1.2
			c4.4,0,6.6,0.9,8.9,1.9c2.4,1,4.9,2.1,9.8,2.1c4.9,0,7.4-1.1,9.8-2.1c2.3-1,4.4-1.9,8.9-1.9c4.4,0,6.6,0.9,8.9,1.9
			c2.4,1,4.9,2.1,9.8,2.1s7.4-1.1,9.8-2.1c2.3-1,4.4-1.9,8.9-1.9c4.4,0,6.6,0.9,8.9,1.9c2.4,1,4.9,2.1,9.8,2.1
			c4.9,0,7.4-1.1,9.8-2.1c2.3-1,4.4-1.9,8.9-1.9c0.7,0,1.2-0.5,1.2-1.2S242.6,202.5,241.9,202.5z"/>
		<path d="M240.9,218.2c-4.9,0-7.4,1.1-9.8,2.1c-2.3,1-4.4,1.9-8.9,1.9s-6.6-0.9-8.9-1.9c-2.4-1-4.9-2.1-9.8-2.1
			c-4.9,0-7.4,1.1-9.8,2.1c-2.3,1-4.4,1.9-8.9,1.9s-6.6-0.9-8.9-1.9c-2.4-1-4.9-2.1-9.8-2.1c-4.9,0-7.4,1.1-9.8,2.1
			c-2.3,1-4.4,1.9-8.9,1.9c-4.4,0-6.6-0.9-8.9-1.9c-2.4-1-4.9-2.1-9.8-2.1c-0.7,0-1.2,0.5-1.2,1.2s0.5,1.2,1.2,1.2
			c4.4,0,6.6,0.9,8.9,1.9c2.4,1,4.9,2.1,9.8,2.1c4.9,0,7.4-1.1,9.8-2.1c2.3-1,4.4-1.9,8.9-1.9c4.4,0,6.6,0.9,8.9,1.9
			c2.4,1,4.9,2.1,9.8,2.1c4.9,0,7.4-1.1,9.8-2.1c2.3-1,4.4-1.9,8.9-1.9c4.4,0,6.6,0.9,8.9,1.9c2.4,1,4.9,2.1,9.8,2.1
			c4.9,0,7.4-1.1,9.8-2.1c2.3-1,4.4-1.9,8.9-1.9c0.7,0,1.2-0.5,1.2-1.2S241.6,218.2,240.9,218.2z"/>
		<path d="M239.6,233.8c-4.9,0-7.4,1.1-9.8,2.1c-2.3,1-4.5,1.9-8.9,1.9s-6.6-0.9-8.9-1.9c-2.4-1-4.9-2.1-9.8-2.1
			c-4.9,0-7.4,1.1-9.8,2.1c-2.3,1-4.5,1.9-8.9,1.9s-6.6-0.9-8.9-1.9c-2.4-1-4.9-2.1-9.8-2.1c-4.9,0-7.4,1.1-9.8,2.1
			c-2.3,1-4.5,1.9-8.9,1.9s-6.6-0.9-8.9-1.9c-2.4-1-4.9-2.1-9.8-2.1c-0.7,0-1.2,0.5-1.2,1.2s0.5,1.2,1.2,1.2c4.4,0,6.6,0.9,8.9,1.9
			c2.4,1,4.9,2.1,9.8,2.1c4.9,0,7.4-1.1,9.8-2.1c2.3-1,4.5-1.9,8.9-1.9s6.6,0.9,8.9,1.9c2.4,1,4.9,2.1,9.8,2.1s7.4-1.1,9.8-2.1
			c2.3-1,4.5-1.9,8.9-1.9s6.6,0.9,8.9,1.9c2.4,1,4.9,2.1,9.8,2.1c4.9,0,7.4-1.1,9.8-2.1c2.3-1,4.5-1.9,8.9-1.9
			c0.7,0,1.2-0.5,1.2-1.2S240.2,233.8,239.6,233.8z"/>
		<path d="M237.6,249.5c-4.9,0-7.4,1.1-9.8,2.1c-2.3,1-4.4,1.9-8.9,1.9c-4.4,0-6.6-0.9-8.9-1.9c-2.4-1-4.9-2.1-9.8-2.1
			c-4.9,0-7.4,1.1-9.8,2.1c-2.3,1-4.4,1.9-8.9,1.9c-4.4,0-6.6-0.9-8.9-1.9c-2.4-1-4.9-2.1-9.8-2.1c-4.9,0-7.4,1.1-9.8,2.1
			c-2.3,1-4.4,1.9-8.9,1.9c-4.4,0-6.6-0.9-8.9-1.9c-2.4-1-4.9-2.1-9.8-2.1c-0.7,0-1.2,0.5-1.2,1.2s0.5,1.2,1.2,1.2
			c4.4,0,6.6,0.9,8.9,1.9c2.4,1,4.9,2.1,9.8,2.1c4.9,0,7.4-1.1,9.8-2.1c2.3-1,4.4-1.9,8.9-1.9c4.4,0,6.6,0.9,8.9,1.9
			c2.4,1,4.9,2.1,9.8,2.1c4.9,0,7.4-1.1,9.8-2.1c2.3-1,4.4-1.9,8.9-1.9c4.4,0,6.6,0.9,8.9,1.9c2.4,1,4.9,2.1,9.8,2.1
			c4.9,0,7.4-1.1,9.8-2.1c2.3-1,4.4-1.9,8.9-1.9c0.7,0,1.2-0.5,1.2-1.2S238.3,249.5,237.6,249.5z"/>
		<path d="M232.9,265.2c-4.9,0-7.4,1.1-9.8,2.1c-2.3,1-4.4,1.9-8.9,1.9c-4.4,0-6.6-0.9-8.9-1.9c-2.4-1-4.9-2.1-9.8-2.1
			c-4.9,0-7.4,1.1-9.8,2.1c-2.3,1-4.4,1.9-8.9,1.9c-4.4,0-6.6-0.9-8.9-1.9c-2.4-1-4.9-2.1-9.8-2.1c-4.9,0-7.4,1.1-9.8,2.1
			c-2.3,1-4.4,1.9-8.9,1.9c-4.4,0-6.6-0.9-8.9-1.9c-2.4-1-4.9-2.1-9.8-2.1c-0.7,0-1.2,0.5-1.2,1.2s0.5,1.2,1.2,1.2
			c4.4,0,6.6,0.9,8.9,1.9c2.4,1,4.9,2.1,9.8,2.1c4.9,0,7.4-1.1,9.8-2.1c2.3-1,4.4-1.9,8.9-1.9c4.4,0,6.6,0.9,8.9,1.9
			c2.4,1,4.9,2.1,9.8,2.1c4.9,0,7.4-1.1,9.8-2.1c2.3-1,4.4-1.9,8.9-1.9c4.4,0,6.6,0.9,8.9,1.9c2.4,1,4.9,2.1,9.8,2.1
			c4.9,0,7.4-1.1,9.8-2.1c2.3-1,4.4-1.9,8.9-1.9c0.7,0,1.2-0.5,1.2-1.2S233.6,265.2,232.9,265.2z"/>
		<path d="M152,169.6h-4.2l5-7.6h11.7l0.5,7.6h-4.3l-1.2,4.2h13.2l1-4.2H170l-1.9-25.3h3.6l1.1-4h-15.5l-1.3,4h3.6l-16.8,25.3h-4
			l-1.5,4.2h13.3L152,169.6z M163.8,144.4h0.1l0.3,13.7h-9L163.8,144.4z"/>
	</g>
</g>
</svg>
