<?xml version="1.0" encoding="utf-8"?>
<!-- Generator: Adobe Illustrator 21.0.0, SVG Export Plug-In . SVG Version: 6.00 Build 0)  -->
<svg version="1.1" id="Layer_1" xmlns="http://www.w3.org/2000/svg" xmlns:xlink="http://www.w3.org/1999/xlink" x="0px" y="0px"
	 viewBox="0 0 400 400" style="enable-background:new 0 0 400 400;" xml:space="preserve">
<style type="text/css">
	.st0{opacity:0.5;fill:#7CCFDD;}
	.st1{fill:#FFFFFF;}
	.st2{fill:#7CCFDD;}
</style>
<g>
	<path class="st0" d="M129.4,126.3c-69,69.2,22,244.1,157.7,146.5S216.5,39,129.4,126.3z"/>
	<path class="st1" d="M306,147.9h-14.3l-14.6-14.6l-14.6,14.6h-18.1c4.1-10.2,6.3-19.2,4.5-26.4H145.2c1.2,6.9-1.1,15.8-5.1,25.9
		c-9.7-1.2-19.8,1.9-27.3,9.4c-12.8,12.8-12.9,33.7,0,46.5l-0.7-0.7c-2.1-2.1-5.4-2.1-7.5,0l-35.2,35.2c-2.1,2.1-2.1,5.4,0,7.5
		l1.5,1.5c2.1,2.1,5.4,2.1,7.5,0l35.2-35.2c0.1-0.1,0.1-0.1,0.1-0.2c-2.9,10.3-4.5,20.5-3.6,30.1c1.8,18.1,9,24.7,17.6,25.4
		l41.3-0.1l0,0.1h55.5l0.1-0.1c11-0.1,18.5-12.5,20.5-23.2l0,0h45.5l39.5-40.4v-55.2H306z M115.1,207c-0.2-1.1-0.6-2.1-1.5-2.9
		l-0.7-0.7c0.8,0.8,1.7,1.6,2.6,2.4C115.3,206.1,115.2,206.6,115.1,207z"/>
	<path class="st2" d="M132.4,153.1c0,0-26.6,24.5-8.2,24.5s4.2,28.7,4.2,28.7l6.5,1.4c0,0,19.3-13.4,19.3-27.3
		c0-13.9-34.1-4-2.7-22.9C151.4,157.5,145.2,152,132.4,153.1z"/>
	<path class="st2" d="M69.4,237.8L69.4,237.8c2.9,2.9,7.5,2.9,10.4,0l33.7-33.7l1.5,3l-1.3,4.4l-35.3,35.4c0,0-3.6,3.7-7.5,0
		C67,243.1,67.3,239.7,69.4,237.8z"/>
	<path class="st2" d="M240.2,188.2c15.1-10.1,25.3-1,25.3-11.1c0-13.7,26.3,7.1,26.3-9.1H236l-11.2,20.2H240.2z"/>
	<path class="st2" d="M220.7,228.1c0,0-6.8,7.1-0.9,27.7l-8.1-0.1c0,0-4.6-14.3-1.2-27.7H220.7z"/>
	<path class="st2" d="M290.7,242.2l-0.1-54l39.5-40.4c0,0-2,25-13.9,28.1c-11.9,3.1-1.3,23.5-11.1,28.7S306,215.2,290.7,242.2z"/>
	<path class="st2" d="M233,230.2c0,0,6.4-1.2,7.2,9.3c0.8,12.1-8.1,27.2-15.5,27.2c-9.7,0-13-10.9-13-10.9l16.3,0.1
		C227.9,255.9,222.8,238.5,233,230.2z"/>
	<path class="st2" d="M253.4,243.5c0,0,4.2-27.6-13.2-27.6s0-27.6,0-27.6h-15.4c0,0-13.3,24.4-14.3,39.9c0,0,20.9,0,29.7,0
		s4.9,15.3,4.9,15.3L253.4,243.5z"/>
	<polygon class="st2" points="244.4,147.9 262.5,147.9 242.3,168.1 236,168.1 	"/>
	<path class="st2" d="M276.6,139.5l14.1,14l-13.2,13.5c0,0-3.5-5.1,4-13.5C285.1,149.4,271.4,144.6,276.6,139.5z"/>
	<g>
		<path d="M331.3,147.9c0-0.2,0-0.3-0.1-0.5c-0.1-0.1-0.2-0.3-0.3-0.4c0,0,0,0,0,0c0,0-0.1,0-0.1-0.1c-0.1-0.1-0.2-0.1-0.3-0.2
			c-0.1,0-0.2,0-0.3-0.1c-0.1,0-0.1,0-0.2,0h-37.9l-14.3-14.3c-0.5-0.5-1.2-0.5-1.7,0L262,146.7h-15.8c3.8-9.7,5.7-18.3,3.9-25.4
			c-0.1-0.5-0.6-0.9-1.2-0.9H145.2c-0.4,0-0.7,0.2-0.9,0.4s-0.3,0.6-0.3,1c1,5.7-0.5,13.5-4.7,24.4c-9.8-0.9-19.9,2.4-27.3,9.8
			c-6.4,6.4-10,15-10,24.1c0,7.4,2.3,14.4,6.6,20.2c-2-0.1-4.1,0.6-5.6,2.2l-33.7,33.7c-2.9,2.9-2.9,7.7,0,10.7l0,0
			c1.4,1.4,3.3,2.2,5.3,2.2c2,0,3.9-0.8,5.3-2.2l31.9-31.9c-2.2,8.2-3.8,17.5-2.9,26.6c2,20.8,11.3,25.9,18.8,26.5l96.7-0.1
			c0,0,0,0,0,0c11.3,0,19.3-12.2,21.6-23.3h44.5c0.3,0,0.6-0.1,0.9-0.4c0,0,0,0,0,0l39.5-40.4c0.2-0.2,0.3-0.5,0.3-0.8L331.3,147.9
			C331.3,147.9,331.3,147.9,331.3,147.9z M327.3,149.1l-37.1,38h-63.4c2.2-4.4,4.4-8.8,6.6-13.1c0.8-1.6,1.6-3.2,2.4-4.7h6.6
			c0,0,0,0,0,0h40.7c0,0,0,0,0,0s0,0,0,0h10.3c0.7,0,1.2-0.5,1.2-1.2s-0.5-1.2-1.2-1.2h-7.4l12.4-12.4c0.2-0.2,0.4-0.5,0.4-0.8
			s-0.1-0.6-0.4-0.8l-3.7-3.7H327.3z M277.1,134.9l18.6,18.6l-13.3,13.3h-37.3L277.1,134.9z M259.6,149.1l-17.8,17.8h-4.9
			c3.1-6.2,6-12.2,8.3-17.8H259.6z M104.4,180.1c0-8.5,3.3-16.4,9.3-22.4c6.2-6.2,14.3-9.3,22.4-9.3s16.2,3.1,22.4,9.3
			c2.8,2.8,5,6.1,6.6,9.6c0,0.2,0.1,0.4,0.3,0.6c1.6,3.8,2.4,7.9,2.4,12.2c0,8.5-3.3,16.4-9.3,22.4c-12.4,12.4-32.5,12.4-44.8,0
			c0,0,0,0,0,0c0,0,0,0,0,0C107.7,196.5,104.4,188.5,104.4,180.1z M78.3,245.2c-1,1-2.3,1.5-3.6,1.5c-1.4,0-2.7-0.5-3.6-1.5l0,0
			c-2-2-2-5.3,0-7.3l33.7-33.7c1-1,2.3-1.5,3.6-1.5c1.3,0,2.6,0.5,3.6,1.5c0,0,0,0,0,0c0,0,0,0,0,0s0,0,0,0c1,1,1.5,2.3,1.5,3.6
			s-0.5,2.7-1.5,3.6L78.3,245.2z M111.4,241.3c-1.1-11.6,2-23.8,5.1-33.4c5.9,4.2,12.8,6.2,19.7,6.2c8.7,0,17.5-3.3,24.1-10
			c0.1-0.1,0.3-0.3,0.4-0.4c2,1.1,4.3,2.1,8.3,2.1c4.5,0,6.8-1.3,9-2.5c2-1.1,3.9-2.2,7.9-2.2c3.9,0,5.8,1.1,7.9,2.2
			c2.2,1.2,4.5,2.5,9,2.5c0.7,0,1.2-0.5,1.2-1.2s-0.5-1.2-1.2-1.2c-3.9,0-5.8-1.1-7.9-2.2c-2.2-1.2-4.5-2.5-9-2.5
			c-4.5,0-6.8,1.3-9,2.5c-2,1.1-3.9,2.2-7.9,2.2c-3.2,0-5-0.7-6.7-1.5c3.4-4.1,5.8-8.8,7-13.9c1.7,0.8,3.8,1.4,6.9,1.4
			c4.6,0,6.9-1.3,9.1-2.5c2-1.1,4-2.2,7.9-2.2c4,0,5.9,1.1,7.9,2.2c2.2,1.2,4.5,2.5,9.1,2.5c0.7,0,1.2-0.5,1.2-1.2s-0.5-1.2-1.2-1.2
			c-4,0-5.9-1.1-7.9-2.2c-2.2-1.2-4.5-2.5-9.1-2.5c-4.6,0-6.9,1.3-9.1,2.5c-2,1.1-4,2.2-7.9,2.2c-3.1,0-4.9-0.6-6.5-1.4
			c0.3-1.8,0.5-3.7,0.5-5.5c0-4-0.7-8-2-11.7c2.8,0.3,4.5,1.2,6.2,2.1c2.3,1.2,4.6,2.5,9.2,2.5c4.6,0,7-1.3,9.2-2.5
			c2.1-1.1,4-2.2,8.1-2.2c4,0,6,1.1,8.1,2.2c2.3,1.2,4.6,2.5,9.2,2.5c0.3,0,0.6,0,0.8,0c0.7,0,1.2-0.6,1.2-1.2
			c0-0.7-0.6-1.2-1.2-1.2c-0.2,0-0.5,0-0.8,0c-4,0-6-1.1-8.1-2.2c-2.3-1.2-4.6-2.5-9.2-2.5c-4.6,0-7,1.3-9.2,2.5
			c-2.1,1.1-4,2.2-8.1,2.2c-4,0-6-1.1-8.1-2.2c-2.1-1.2-4.3-2.3-8.4-2.5c-1.6-3.4-3.7-6.6-6.4-9.4c1.7-0.5,3.1-1.2,4.3-1.9
			c2.1-1.1,4.1-2.2,8.1-2.2c4,0,6,1.1,8.1,2.2c2.3,1.2,4.6,2.5,9.2,2.5c4.6,0,7-1.3,9.2-2.5c2.1-1.1,4.1-2.2,8.1-2.2
			c4,0,6,1.1,8.1,2.2c2.3,1.2,4.6,2.5,9.2,2.5c0.5,0,1,0,1.5-0.1c0.7,0,1.2-0.6,1.1-1.3c0-0.7-0.6-1.2-1.3-1.1c-0.4,0-0.9,0-1.4,0
			c-4,0-6-1.1-8.1-2.2c-2.3-1.2-4.6-2.5-9.2-2.5c-4.6,0-7,1.3-9.2,2.5c-2.1,1.1-4.1,2.2-8.1,2.2c-4,0-6-1.1-8.1-2.2
			c-2.3-1.2-4.6-2.5-9.2-2.5c-4.6,0-7,1.3-9.2,2.5c-1.5,0.8-3,1.6-5.3,2c-4.9-4.3-10.8-7-16.9-8c3.9-10.4,5.4-17.8,4.8-23.8h101.3
			c2.5,12.3-6.9,30.7-16.8,50.2c-10.7,21.2-22.9,45.1-22.9,66.8c0,12.9,3.1,21.8,8.6,25.8l-88.9,0.1
			C118.4,264.9,112.9,256.7,111.4,241.3z M226.3,254.7l-13.8-0.1c-1.3-4-1.9-9-1.9-14.9c0-3.4,0.3-6.9,0.9-10.4h20.6
			c-1.1,0.8-2,1.9-2.9,3.1C225,238.8,224.7,249,226.3,254.7z M224.5,265.5c-5,0-8.7-3-11.1-8.5l14.5,0.1c0,0,0,0,0,0
			c0.4,0,0.8-0.2,1-0.5c0.2-0.3,0.3-0.8,0.1-1.1c-1.9-4.7-2-15.4,2.2-21.7c2-3,4.6-4.5,7.9-4.5c1.7,0,3,0.7,3.9,2.3
			c0.9,1.5,1.4,3.8,1.4,6.5C244.5,249,236.5,265.5,224.5,265.5z M245.1,230.3c-1.3-2.2-3.4-3.4-6-3.4h-27.2
			c2.4-12.3,7.7-25.1,13.6-37.5h63.8v52.8h-42.9c0.2-1.4,0.3-2.8,0.3-4.2C246.9,234.9,246.3,232.2,245.1,230.3z M291.8,240.5v-51.7
			l37.1-37.9v51.7L291.8,240.5z"/>
		<path d="M136.1,208.7c7.3,0,14.7-2.8,20.3-8.4c11.2-11.2,11.2-29.4,0-40.6c-5.4-5.4-12.6-8.4-20.3-8.4s-14.9,3-20.3,8.4
			s-8.4,12.6-8.4,20.3s3,14.9,8.4,20.3C121.4,206,128.8,208.7,136.1,208.7z M154.7,161.5c10.3,10.3,10.3,26.9,0,37.2
			s-26.9,10.3-37.2,0c-0.9-0.9-1.7-1.8-2.5-2.8c2.2-6.2,4.1-11.6,5.8-16.9c2.7-8.1,5.3-15.8,8.9-24.4c2-0.5,4.2-0.8,6.3-0.8
			C143.1,153.8,149.7,156.5,154.7,161.5z M117.5,161.5c2.7-2.7,5.8-4.7,9.3-6c-3.2,7.9-5.6,15.1-8.2,22.7c-1.6,4.8-3.2,9.7-5.2,15.2
			c-2.3-4-3.6-8.5-3.6-13.3C109.8,173,112.6,166.4,117.5,161.5z"/>
		<path d="M233.4,140.7c0.7-0.1,1.1-0.7,1.1-1.3s-0.7-1.1-1.3-1.1c-0.6,0.1-1.3,0.1-2.1,0.1c-4,0-6-1.1-8.1-2.2
			c-2.3-1.2-4.6-2.5-9.3-2.5c-4.7,0-7,1.3-9.3,2.5c-2.1,1.1-4.1,2.2-8.1,2.2c-4,0-6-1.1-8.1-2.2c-2.3-1.2-4.6-2.5-9.3-2.5
			c-4.7,0-7,1.3-9.3,2.5c-2.1,1.1-4.1,2.2-8.1,2.2c-2,0-3.7-0.3-5.3-0.9c-0.6-0.2-1.3,0.1-1.5,0.7c-0.2,0.6,0.1,1.3,0.7,1.5
			c1.8,0.7,3.8,1,6.1,1c4.7,0,7-1.3,9.3-2.5c2.1-1.1,4.1-2.2,8.1-2.2c4,0,6,1.1,8.1,2.2c2.3,1.2,4.6,2.5,9.3,2.5
			c4.7,0,7-1.3,9.3-2.5c2.1-1.1,4.1-2.2,8.1-2.2c4,0,6,1.1,8.1,2.2c2.3,1.2,4.6,2.5,9.3,2.5C231.9,140.9,232.7,140.8,233.4,140.7z"
			/>
		<path d="M197.9,219.9c-0.2,0-0.5,0-0.7,0c-3.9,0-5.9-1.1-7.9-2.2c-2.2-1.2-4.5-2.5-9.1-2.5c-4.5,0-6.8,1.3-9.1,2.5
			c-2,1.1-4,2.2-7.9,2.2c-3.9,0-5.9-1.1-7.9-2.2c-2.2-1.2-4.5-2.5-9.1-2.5c-4.5,0-6.8,1.3-9.1,2.5c-2,1.1-4,2.2-7.9,2.2
			c-1.8,0-3.3-0.2-4.8-0.7c-0.6-0.2-1.3,0.1-1.5,0.8c-0.2,0.6,0.1,1.3,0.8,1.5c1.6,0.6,3.4,0.8,5.5,0.8c4.5,0,6.8-1.3,9.1-2.5
			c2-1.1,4-2.2,7.9-2.2c3.9,0,5.9,1.1,7.9,2.2c2.2,1.2,4.5,2.5,9.1,2.5c4.5,0,6.8-1.3,9.1-2.5c2-1.1,4-2.2,7.9-2.2
			c3.9,0,5.9,1.1,7.9,2.2c2.2,1.2,4.5,2.5,9.1,2.5c0.3,0,0.5,0,0.8,0c0.7,0,1.2-0.6,1.2-1.2C199.1,220.4,198.6,219.8,197.9,219.9z"
			/>
		<path d="M135.5,236.2c2-1.1,3.9-2.1,7.7-2.1c3.8,0,5.7,1,7.7,2.1c2.2,1.2,4.4,2.4,8.9,2.4c4.5,0,6.7-1.2,8.9-2.4
			c2-1.1,3.9-2.1,7.7-2.1c3.9,0,5.7,1,7.7,2.1c2.2,1.2,4.4,2.4,8.9,2.4c0.9,0,1.7,0,2.4-0.1c0.7-0.1,1.1-0.7,1-1.3
			c-0.1-0.7-0.7-1.1-1.3-1c-0.7,0.1-1.4,0.1-2.1,0.1c-3.9,0-5.7-1-7.7-2.1c-2.2-1.2-4.4-2.4-8.9-2.4c-4.5,0-6.7,1.2-8.9,2.4
			c-2,1.1-3.9,2.1-7.7,2.1c-3.8,0-5.7-1-7.7-2.1c-2.2-1.2-4.4-2.4-8.9-2.4c-4.5,0-6.7,1.2-8.9,2.4c-2,1.1-3.9,2.1-7.7,2.1
			c-1.4,0-2.6-0.1-3.7-0.4c-0.6-0.2-1.3,0.2-1.5,0.9c-0.2,0.6,0.2,1.3,0.9,1.5c1.3,0.3,2.7,0.5,4.3,0.5
			C131,238.6,133.3,237.4,135.5,236.2z"/>
		<path d="M196.5,252.6c-0.8,0.1-1.6,0.2-2.6,0.2c-3.8,0-5.7-1.1-7.7-2.2c-2.2-1.2-4.4-2.5-8.9-2.5c-4.5,0-6.7,1.3-8.9,2.5
			c-2,1.1-3.9,2.2-7.7,2.2c-3.8,0-5.7-1.1-7.7-2.2c-2.2-1.2-4.4-2.5-8.9-2.5c-4.5,0-6.7,1.3-8.9,2.5c-2,1.1-3.9,2.2-7.7,2.2
			c-0.7,0-1.5,0-2.1-0.1c-0.7-0.1-1.3,0.4-1.3,1c-0.1,0.7,0.4,1.3,1,1.3c0.8,0.1,1.6,0.1,2.4,0.1c4.5,0,6.7-1.3,8.9-2.5
			c2-1.1,3.9-2.2,7.7-2.2c3.8,0,5.7,1.1,7.7,2.2c2.2,1.2,4.4,2.5,8.9,2.5c4.5,0,6.7-1.3,8.9-2.5c2-1.1,3.9-2.2,7.7-2.2
			c3.8,0,5.7,1.1,7.7,2.2c2.2,1.2,4.4,2.5,8.9,2.5c1.1,0,2-0.1,2.9-0.2c0.7-0.1,1.1-0.7,1-1.4C197.8,252.9,197.1,252.5,196.5,252.6z
			"/>
	</g>
</g>
</svg>
