<?xml version="1.0" encoding="utf-8"?>
<!-- Generator: Adobe Illustrator 21.0.0, SVG Export Plug-In . SVG Version: 6.00 Build 0)  -->
<svg version="1.1" id="Layer_1" xmlns="http://www.w3.org/2000/svg" xmlns:xlink="http://www.w3.org/1999/xlink" x="0px" y="0px"
	viewBox="0 0 400 400" style="enable-background:new 0 0 400 400;" xml:space="preserve">
<g>
	<path class="st0" d="M106.2,140.9c-64.4,70.6,47.8,256.5,169,140.2S190.9,48.1,106.2,140.9z"/>
	<path class="st1" d="M307.2,175.3c0,0-3.8-4.8-10.4-9.6c-1.5-1.1-2.9-2-4.4-2.9c0.9-1,1.9-2.1,3-3.2c15-15.9-3.4-32-18.2-46
		c-19.9-18.7-29.3-29.7-30.8-35.6c-3.4,3.5-4.7,10.3-0.7,17l-0.2-0.2c0,0-5.5,6.3,0.5,14.5c-3.1,3.2-2.9,8.1-0.1,12.6
		c-3.3,3.5-3.6,9.4,0.2,14.5c0,0-6.7,6.8,1.8,15.7c0,0-5.3,6.7,1,14c0,0-5,8.6,3.1,16.3c2.5,2.4,6.2,4.1,8.3,4.9l-9.3,17.7
		c-0.3,0.4-0.8,0.8-1.2,1.3c-8.3-6.2-8.7-13.7-8.7-38.4c0-21.8-24.4-21-44.8-21c-27.3,0-41.7-1.5-46.8-4.8
		c-0.1,4.9,3.7,10.7,11.2,12.9l-0.3-0.1c0,0,0.4,8.4,10.3,10.3c0,4.5,3.4,7.9,8.6,9.2c0,4.9,3.8,9.3,10.1,10.4
		c0,0-0.2,9.6,12.1,10.2c0,0,0.8,8.5,10.3,9.5c0,0,2.2,9.7,13.4,9.7c9.2,0,11.9-4.9,18-5.1l2.7,0.4c-0.3,0.4-1.5,2.6-1.1,3.8
		c0,0,0,0,0,0c-17.5,17.9-35.4,33-40,36.8c-0.8,0.7-1.3,1.6-1.3,2.7c-0.2,3.4,0.8,11.1,10.6,18.4c1.9,1.4,3.8,2.6,5.6,3.6l4.8-2.8
		l0.9,5.3c4.4,1.5,8,1.7,10.3,1.6c1.8-0.1,3.3-1.2,3.9-2.9c2.6-7.5,11-30.2,23.7-47.9c0.6,0.1,1.1,0.2,1.6,0.1
		c1.9-0.1,7.2-5,7.6-8.2v0c0.1-0.6-0.5-1.7-0.5-1.7c11.8-15,34.8-30.2,34.8-30.2c0,0,0,0,0,0c1.5-1.5-0.6-5.5-3.9-9.3L307.2,175.3z
		M251.7,204.3L251.7,204.3c0,0.1-0.1,0.2-0.2,0.3C251.5,204.5,251.6,204.4,251.7,204.3z"/>
	<path class="st1" d="M145,253.7l9.7-3.1C150.8,250.2,147.5,250.5,145,253.7z"/>
	<path class="st1" d="M199.1,221.3c-3.3,1.7-12.1,1.8-28.6,0.2c-12.4-1.2-27.1-3.1-28.4,10.1c-0.5,5.4-0.9,9.5-1.4,12.6l-4.5,9.5
		l0,0l-2.3-0.6l-3.9-11.4c1.4-0.9,2.9-2,4.2-3.7c1.4-1.7,2.4-3.4,2.9-4.8l0.2-0.2l0-0.2c2-5.8-1.3-9.5-1.3-9.5l0,0
		c0.2-0.2,0.4-0.3,0.6-0.5c9.2-7.6,2.4-13.6,2.4-13.6c2.1-1.6,3.4-4.1,3.7-6.7l0,0l0,0c0.3-2.9-0.5-6-2.9-7.9
		c5.4-4.3,5-12.1-0.3-16.4c0,0-3,6.5-19.3,19.7c-9.3,7.5-20.6,16.4-12.4,26.3c0.5,0.6,0.9,1.1,1.3,1.6c-0.6,0.2-1.1,0.5-1.7,0.8
		c-4.6,2.3-7.9,5.5-7.9,5.5l3.3,4l2.3-1.1c-3.1,2.2-4.6,4.4-3.4,5.4l18.7,19.9l-0.1,0c-0.2,0.2-0.3,0.6-0.3,1l0,0c0,0,0,0,0,0
		c0,2,2.9,5.2,4.1,5.4c0.3,0,0.6,0,1,0c6.6,11.4,10.4,25.7,11.6,30.4c0.3,1.1,1.1,1.9,2.2,2c1.4,0.2,7.2,1.3,13.5-2.8
		c6.3-4,7.4-9,7.5-11.1c0-0.6-0.2-1.2-0.7-1.7c-2.5-2.5-12-12.2-21.2-23.6l0-2.7c0,0,4.8,4.8,12.9,4.1c11.6-1,12.2-9.5,12.2-9.5l0,0
		c0.3,0,0.5,0.1,0.8,0.1c12.3,1.2,11.8-8.2,11.8-8.2c5.8,0.7,12-4.2,11.4-10.2C194.4,234.3,199.9,228.3,199.1,221.3z M133.7,253
		l0-0.1C133.7,252.9,133.7,253,133.7,253L133.7,253z"/>
	<g>
		<path class="st2" d="M306.7,187.9c-0.3,0.2-0.6,0.4-0.9,0.5C306.5,188.2,306.7,187.9,306.7,187.9z"/>
		<circle class="st2" cx="256.4" cy="219.3" r="4.4"/>
		<path class="st2" d="M277.6,163.5c0,0,4.9-4.2,25.2,15.1l2.1-1.6c0,0-20.7-22-30.6-15.8c-2.8,1.8-2.9,6.2-2.9,6.2l3.7,6.3l0.2,5.6
			l4.6-0.8c0,0,6.9,4.4,10.5,6.4c-3-1.5-6.5-3.6-10.5-6.4c0,0,11.3,7.9-1.1,22.2c-12.4,14.3-14.3,16.4-14.3,16.4s3,2.9,5.9,2.1
			c0,0,21.2-22.3,35.3-30.9c-0.2,0.1-0.5,0.2-0.9,0.3C309.2,187.2,290.3,170.6,277.6,163.5z M275.1,167.3l1.8-3.8
			c0,0-0.5,7.3,19.7,17.9l-4.1,4.5c-0.2-0.1-0.4-0.2-0.7-0.3l2.2-1.9C294,183.7,277.8,176.1,275.1,167.3z"/>
		<path class="st2" d="M258,226.5c-2.8-1.8-10-6.8-13.9-12.4l-2.3,2.4c0,0,16,9.8,6.5,24l0,0c-3.7,5.3-7.8,11.5-11.5,17.2
			c-7.9,12.3-27,9.6-27,9.6s4.3,4.9,10,7.4l4.8-2.8l0.9,5.3c0,0,12.3,4.9,14.3-1.4c8.6-26.9,24-48.4,24-48.4l-5.3-1.4
			C258.3,226,258.2,226.2,258,226.5z"/>
		<path class="st2" d="M257.3,113.9c16.3,13.3,34,30.3,34.6,39.6c0,0,8.6-9.3-21.3-34.2c-17.6-14.7-23.8-21.9-25-24.5
			C245.5,94.8,241,100.7,257.3,113.9z"/>
		<path class="st2" d="M288.2,130c13.9,16.7,8.3,23.1,0.7,30.7l3.6,2c9-8.2,17.1-21.5-12.6-46.7C250.2,91,246.4,78,246.4,78
			C240.7,95.5,274.3,113.3,288.2,130z"/>
		<path class="st2" d="M246,109.3c-2.3,4.9,1.4,8.8,14.2,19.5c24.4,20.6,26.3,30.8,26.3,30.8C293.6,145.5,269.2,134.4,246,109.3z"/>
		<path class="st2" d="M280.6,157.1c0,0-5.3-8.6-16.6-18.4c-11.3-9.9-18.1-16.8-18.1-16.8s-4.3,6.7,13.2,20.1
			c10.9,8.4,15.9,15.3,15.9,15.3L280.6,157.1z"/>
		<path class="st2" d="M271.3,159.8l-25.1-23.4c0.8,11.1,4.6,11,23.4,28.7L271.3,159.8z"/>
		<path class="st2" d="M265.4,175.9l2.1-5.3c-5.2-5.9-19.4-18.5-19.4-18.5C245.9,159.9,255.3,166.3,265.4,175.9z"/>
		<path class="st2" d="M262,183.9l2-4.7l-15-13C249,166.1,249,180.9,262,183.9z"/>
		<path class="st2" d="M238.5,180.3c-0.8,29.8,14.4,28,14.4,28c-12.3-6.6-11.7-18.9-11.7-41c0-22-24.8-20.5-54.6-20.5
			c-29.9,0-37-4.8-37-4.8c5.4,9,10.8,10.1,36.6,10.1C234.7,152.1,239.4,149.3,238.5,180.3z"/>
		<path class="st2" d="M196.5,160.7c37.6-2,38.6,9.5,38.6,9.9c-0.3-14.4-11.8-15.7-39.1-15.1c-27.3,0.6-35.4-0.7-35.4-0.7
			S158.3,162.8,196.5,160.7z"/>
		<path class="st2" d="M235.1,170.6C235.1,170.6,235.1,170.6,235.1,170.6C235.1,170.6,235.1,170.6,235.1,170.6z"/>
		<path class="st2" d="M184.8,170c10.8-1.1,38.2-2.2,50,5.1c0,0,5.2-10.5-25.1-10.5s-38.9,0.4-38.9,0.4S173.9,171.2,184.8,170z"/>
		<path class="st2" d="M235.1,183.9c0,0,5.2-9.8-26-9.8c-19.1,0-29.7,0.2-29.7,0.2s2.7,4.9,9.2,4.9
			C195.1,179.1,225.7,176.1,235.1,183.9z"/>
		<path class="st2" d="M211.6,188.8c22-1.5,24.8,3.9,24.8,3.9c-1.3-8.9-13.1-9.8-24.4-8.9c-11.4,0.9-22.4,0.8-22.4,0.8
			C190.6,189,197.3,189.8,211.6,188.8z"/>
		<path class="st2" d="M219.4,199.6c12.3-1.4,19.5,2.2,19.5,2.2c-3.3-8.5-16.4-7.3-19.6-7.4c-3.3,0-17.7,0.4-17.7,0.4
			C202.4,198.2,207.1,201.1,219.4,199.6z"/>
		<path class="st2" d="M211.9,204.4c0,0,5.7,6.8,14.7,5.5c9-1.3,13.8-3,17.5-1.6C244.1,208.3,242.2,200.3,211.9,204.4z"/>
	</g>
	<path class="st2" d="M112.3,238.7l13.9,22.2l-5.9,0.4c0,0-5.5-9.7-18.3-20.9C102,240.4,106.8,241.3,112.3,238.7z"/>
	<path class="st2" d="M129.6,265.3c0,0,9.5,26,21.2,23.1c4.4-1.1,6.5-7.2,6.5-7.2l2.2,2.2c0,0,2.4,12.5-16.8,15.8
		c-4.6,0.8-5.8-2.3-5.8-2.3s-4.9-21.2-11.7-30.7L129.6,265.3z"/>
	<path class="st2" d="M122.8,231.7c0,0-10.4,0.5-18.1,8.7C104.6,240.4,116.3,239.8,122.8,231.7z"/>
	<path class="st2" d="M117,228.3c0,0-6.9-1-16,5.3l2.3,3l13.3-6.9L117,228.3z"/>
	<path class="st2" d="M139.7,178c0,0,3.8,9.2-3.4,14.7c-7.2,5.5-34,20.2-22.6,31.4l-4.4,1.5c0,0-10.2-9.2,1-19S137.4,183,139.7,178z
		"/>
	<path class="st2" d="M118.1,223.3c0,0-4.9-4.7-1.7-8.5c3.2-3.9,24.3-20.3,24.3-20.3s3.4,6.4-8.2,14.6S118.1,223.3,118.1,223.3z"/>
	<path class="st2" d="M122.8,222.8l16.7-14c0,0,1.8,6.3-5.1,10.8c-6.9,4.5-9.6,8.4-9.6,8.4L122.8,222.8z"/>
	<path class="st2" d="M136.1,223.3c0,0,0.5,10.1-8.2,14.6l-2.1-7.3L136.1,223.3z"/>
	<path class="st2" d="M143.8,254.9c0,0,9.9,6.7,19.5-1.8C163.3,253,150.1,246.5,143.8,254.9z"/>
	<path class="st2" d="M176,243.7c0,0-25.1-6.3-26.8,0.4c-0.4,1.6-1.4,4.6-1.4,4.6s2.4-2.7,12.7-1.6S175.3,246.6,176,243.7z"/>
	<path class="st2" d="M187.2,233.5c0,0-21.2-3.1-25.7-2.9c-4.6,0.1-10.1-0.1-10.9,4.9c-0.2,1.2-0.4,3.1-0.4,3.1s3.9-2.9,13.2-1.3
		S186.2,241,187.2,233.5z"/>
	<path class="st2" d="M199.1,221.3c0,0-2.1,7.4-13.6,7.4c-11.5,0-39.3-7.1-39.3,4.2s-2.4,23.5-12.3,23.1l2.4-2.3
		c0,0,3.7-1.9,4.7-10.5c0.9-8.6-0.9-22.8,15.1-22.8S193.1,224.7,199.1,221.3z"/>
	<g>
		<path d="M199.7,220.2c-0.3-0.2-0.8-0.2-1.1,0c-3.1,1.6-12.2,1.6-28,0.1l-1.3-0.1c-8.7-0.9-18.7-1.8-24.2,2.7
			c-2.4,2-3.8,4.9-4.2,8.6l-0.2,2.2c-1.2,12.6-1.6,16.6-5.7,19.4c-1.6-3.4-3.1-7-4.3-10.4c1.6-1,3.1-2.3,4.4-3.8
			c4-4.8,4.3-9,3.9-11.6c-0.3-1.6-0.9-2.9-1.4-3.7c3.3-2.8,5-5.8,5.1-8.8c0-2.5-1.1-4.4-1.9-5.5c2.3-2.2,3.6-5.4,3.5-8.6
			c-0.1-2.5-1-4.6-2.6-6.2c2.1-2.1,3.2-4.9,3.2-7.8c0-3.6-1.7-7.1-4.6-9.5c-0.3-0.2-0.7-0.3-1-0.2c-0.4,0.1-0.7,0.3-0.8,0.7
			c0,0.1-3.2,6.5-19,19.3l-0.3,0.2c-6.9,5.5-14.6,11.8-15.3,18.9c-0.3,3,0.7,6,3,8.8l0.3,0.4c-0.1,0-0.2,0.1-0.3,0.1
			c-4.7,2.3-8.1,5.6-8.2,5.8c-0.4,0.4-0.5,1.1-0.1,1.6l3.1,3.7c-0.7,0.8-1.2,1.7-1.4,2.4c-0.2,1,0.1,1.9,0.8,2.4c0,0,0,0,0,0
			c0,0,0,0,0,0c0.1,0.1,10.1,8.3,18.1,18.8c-0.1,0.3-0.2,0.6-0.2,1c0,0,0,0.1,0,0.1c0,0,0,0,0,0.1c0,0.4,0.1,0.8,0.2,1.2
			c0.2,0.6,0.6,1.3,1,2c0,0,0,0,0,0c0.1,0.1,0.2,0.3,0.3,0.4c0,0,0.1,0.1,0.1,0.1c0.1,0.1,0.2,0.3,0.3,0.4c0,0.1,0.1,0.1,0.1,0.2
			c0.1,0.1,0.2,0.2,0.2,0.3c0,0,0.1,0.1,0.1,0.1c0.1,0.1,0.2,0.2,0.3,0.3c0,0,0,0,0,0c0.7,0.7,1.4,1.2,2,1.4c0,0,0,0,0,0
			c0.1,0,0.2,0.1,0.3,0.1c0,0,0,0,0,0c0.1,0,0.3,0,0.4,0c6,10.4,9.5,22.9,11.1,29.5c0.4,1.5,1.6,2.7,3.2,2.9l0.2,0
			c1.1,0.2,2.2,0.2,3.3,0.2c3.9,0,7.5-1.1,10.9-3.2c7.2-4.6,8-10.4,8.1-12c0-1-0.3-1.9-1-2.6c-3.4-3.4-12-12.3-20.6-22.8
			c2,1.3,5.3,2.8,9.8,2.8c0.6,0,1.2,0,1.8-0.1c9.8-0.9,12.4-6.8,13-9.4c4.5,0.4,7.9-0.5,10.1-2.7c1.9-1.8,2.5-4.1,2.7-5.5
			c3.6,0.1,7.5-1.5,10-4.1c1.7-1.8,2.6-3.9,2.6-6.2c2.6-0.3,5.1-1.4,7-3.3c2.7-2.6,4-6.4,3.6-10.3
			C200.3,220.8,200.1,220.4,199.7,220.2z M136.2,258.3C136.2,258.4,136.3,258.4,136.2,258.3C136.3,258.4,136.3,258.4,136.2,258.3
			c-0.1,0.3-0.3,0.6-0.5,0.9c-1.7,2.2-6.6,5.5-9.8,6.1c-0.2,0-0.4,0.1-0.6,0.1c-0.1,0-0.1,0-0.2,0c-0.2,0-0.4,0-0.5,0
			c-0.1,0-0.2-0.1-0.3-0.1c-0.3-0.2-0.8-0.6-1.2-1.2c-0.1-0.1-0.2-0.2-0.3-0.4c0,0-0.1-0.1-0.1-0.1c-0.1-0.2-0.3-0.3-0.4-0.5
			c0-0.1-0.1-0.1-0.1-0.2c-0.1-0.1-0.2-0.3-0.2-0.4c0,0,0-0.1-0.1-0.1c3.3-0.5,8.4-3.7,10.9-5.8
			C133.4,257.3,134.5,258.1,136.2,258.3z M133.4,237.3c-1,1.2-2.1,2.2-3.4,3.1c-1-3.1-1.9-6-2.6-8.4c1.3-1.7,3.4-3.3,5.8-5
			c0.9-0.6,1.7-1.3,2.6-1.9C136.9,226.9,138.3,231.3,133.4,237.3z M136,221.8c-1.4,1.2-2.8,2.2-4.2,3.2c-1.9,1.4-3.7,2.7-5.1,4.1
			c-0.3-1.3-0.6-2.3-0.7-2.9c-0.1-0.3-0.2-0.7-0.3-1c-0.4-0.8-1-1.4-1.8-1.9c3.4-4,10.2-9,13.9-11.8c0.5-0.3,0.9-0.6,1.2-0.9
			c0.6,0.8,1.4,2.2,1.4,3.9C140.4,217,138.9,219.4,136,221.8z M138.5,208.1c-0.5,0.4-1.2,0.9-2.1,1.5c-4.1,3-11.5,8.4-14.9,12.9
			c-0.8-0.2-1.7-0.2-2.7-0.2c-0.3-0.4-0.7-0.8-1-1.2c-1-1.2-1.4-2.3-1.3-3.4c0.4-3.9,7.1-9,17.1-16.8c2-1.5,4.1-3.1,6.3-4.9
			c1.3,1.2,2,2.8,2.1,4.7C142.1,203.5,140.7,206.4,138.5,208.1z M108.8,223.3c-1.9-2.3-2.7-4.6-2.5-7c0.6-6.1,8-12.1,14.5-17.3
			l0.3-0.2c12.3-10,17.2-16.2,18.9-18.8c1.7,1.8,2.7,4.2,2.7,6.6c0,2.8-1.3,5.2-3.5,7c-2.5,2-4.8,3.7-7,5.4
			c-11.3,8.7-17.5,13.5-18,18.4c-0.2,1.8,0.4,3.5,1.8,5.2c-2,0.3-4.2,0.9-6.3,1.7L108.8,223.3z M101.3,232.1
			c1.2-1.1,3.8-3.1,6.8-4.6c5-2.5,10.7-3.4,13.8-2.4c0.6,0.2,1.3,0.6,1.6,1.2c0,0.1,0,0.1,0.1,0.2c0,0.1,0,0.1,0.1,0.2
			c0.3,1.8-1.9,5.6-8,9.2c-7.1,4.1-12,4-12.9,3.6c0,0-0.1,0-0.1-0.1c-0.1-1.2,5.5-6.3,15-8.8c0.6-0.2,1-0.8,0.9-1.5
			c-0.1-0.5-0.6-0.9-1.2-0.9c-0.1,0-0.2,0-0.3,0c-5.3,1.4-10.4,3.9-13.5,6.4L101.3,232.1z M105.7,242c3-0.3,7-1.6,11.2-4
			c3.6-2.1,6.4-4.6,7.9-7c0.1,0.3,0.1,0.5,0.2,0.8c0,0.1,0,0.2,0.1,0.3c1.5,5.4,4.1,13.8,7.5,21.2c0,0,0,0,0,0
			c-0.4,0.8-2.8,2.9-6.3,4.8c-1.8,1-3.2,1.6-4.1,1.8C116.6,252.2,109.6,245.5,105.7,242z M158.9,285.1c0,1-0.6,6.1-7,10.1
			c-5.7,3.7-10.8,2.9-12.5,2.6l-0.2,0c-0.6-0.1-1.1-0.5-1.2-1.1c-1.6-6.5-5-18.8-10.9-29.2c3.4-1,7.5-3.7,9.8-6.1
			c0.2-0.2,0.3-0.4,0.5-0.5c8.8,10.8,17.7,19.9,21.1,23.4C158.8,284.5,158.9,284.8,158.9,285.1z M151,260.1c-4.6,0.4-8-1-10-2.3
			c2-0.7,3.8-1.9,5.2-3.8c2.9-3.2,6.9-2.6,12.3-1.7c1.1,0.2,2.2,0.3,3.4,0.5C161.3,255,159.1,259.4,151,260.1z M172.8,248.7
			c-1.8,1.7-4.6,2.4-8.5,2c-1.9-0.2-3.6-0.5-5.4-0.8c-3.8-0.6-7.2-1.2-10.2-0.3c0.7-1.7,1.3-3.7,1.8-5.9c0.1-0.3,0.3-0.5,0.5-0.7
			c3.2-2.4,15.2-0.1,21,1c1.1,0.2,2,0.4,2.7,0.5C174.6,245.8,174.1,247.4,172.8,248.7z M185.4,239.2c-2.2,2.3-6.1,3.7-9.3,3.3
			c-0.8-0.1-2.1-0.3-3.7-0.7c-8.4-1.6-16.9-3-21.3-1.4c0.2-1.2,0.3-2.4,0.5-3.7c0.2-1.6,0.7-2.7,1.6-3.5c3.2-2.5,11.8-1.4,24.8,0.3
			c2.8,0.4,5.8,0.8,9.1,1.2c0.1,0,0.2,0,0.2,0C187.3,236.7,186.3,238.3,185.4,239.2z M195.1,229.8c-2,2-4.8,2.9-7.7,2.6
			c-3.2-0.4-6.3-0.8-9-1.2c-14.6-1.9-22.7-3-26.6,0.2c-1.5,1.2-2.3,2.9-2.5,5.1c-0.2,2.6-0.6,4.8-1,6.7c0,0.1,0,0.2-0.1,0.3
			c-2.4,10.8-7.1,12.3-9.8,12.5c-0.1,0-0.1,0-0.2,0c-0.4,0-0.8,0-1.1,0c-0.6,0-1.1-0.2-1.5-0.3c6-3.4,6.4-8.2,7.7-21.7l0.2-2.2
			c0.3-3.1,1.4-5.4,3.3-7c4.8-3.9,14.1-3,22.4-2.2l1.3,0.1c14.5,1.4,23.2,1.5,27.6,0.3C197.9,225.6,196.9,228,195.1,229.8z"/>
		<path d="M304.6,178.8l3.4-2.5c0.3-0.2,0.4-0.5,0.5-0.8c0-0.3,0-0.6-0.2-0.9c-0.2-0.2-3.9-4.9-10.6-9.8c-1.1-0.8-2.1-1.5-3.2-2.2
			c0.6-0.7,1.3-1.4,2-2.1c4.1-4.3,6-9,5.9-13.9c-0.4-11.5-12.2-22.5-22.6-32.3l-1.6-1.5c-19.3-18.2-29-29.3-30.4-35
			c-0.1-0.4-0.4-0.8-0.8-0.9c-0.4-0.1-0.9,0-1.2,0.3c-2.3,2.3-3.6,5.8-3.5,9.6c0.1,2.7,0.8,5.4,2.1,7.9c-1.3,1.9-4.2,7.6,0.3,14.6
			c-2.6,3.4-2.5,8.1,0,12.5c-2.8,3.6-3.4,9.3,0.2,14.6c-0.9,1.2-2.3,3.6-2.2,6.8c0.1,3.1,1.4,6.1,4,9.1c-1.2,2.1-3.7,7.9,1.1,14
			c-1.1,2.4-3.6,10.1,3.7,17c2.7,2.6,5.3,3.9,7.5,4.7c-2.6,5.7-5.6,11.5-8.8,16.8c-7.2-5.8-7.5-13.3-7.5-36.9
			c0-5.9-1.8-10.7-5.2-14.2c-8.1-8.1-24.3-8.1-38.6-8.1l-2.2,0c-26.5,0-41.2-1.5-46.2-4.6c-0.4-0.2-0.8-0.3-1.2,0s-0.6,0.6-0.6,1
			c-0.1,3.3,1.4,6.7,4,9.4c1.9,1.9,4.2,3.3,6.9,4.3c0.5,3.4,3.1,8.6,10.3,10.4c0.4,4.3,3.7,7.7,8.5,9.2c0.4,4.5,3.9,9.1,10.1,10.5
			c0.2,1.4,0.8,4.2,3.1,6.5c2.2,2.2,5.2,3.5,9.1,3.8c0.6,2.4,2.7,8.3,10.4,9.5c0.9,2.5,4.3,9.8,14.4,9.8c5.5,0,8.7-1.6,11.6-3.1
			c2.4-1.2,4.4-2.2,7.2-2c-0.3,0.8-0.6,1.7-0.6,2.6c-16.5,16.9-33.1,31-39.5,36.3c-1.1,0.9-1.7,2.2-1.8,3.5
			c-0.1,3.3,0.6,11.7,11.1,19.4c1.9,1.4,3.8,2.6,5.8,3.7c0.4,0.2,0.8,0.2,1.2,0l3.3-1.9l0.6,3.6c0.1,0.4,0.4,0.8,0.8,0.9
			c4,1.3,7.3,1.7,9.7,1.7c0.4,0,0.8,0,1.1,0c2.3-0.1,4.3-1.6,5-3.8c3.7-10.7,11.6-30.8,23.1-47c0.3,0,0.5,0,0.7,0c0.1,0,0.2,0,0.3,0
			c2.3-0.1,6.8-4.2,8.2-7.5c0.8-1.7,0.6-2.9,0.2-3.7c13.1-14.3,29.3-25.8,33.2-28.5c0.3-0.2,0.5-0.3,0.8-0.5c0,0,0.1,0,0.1-0.1
			c0,0,0,0,0,0c0,0,0.1-0.1,0.2-0.1c0,0,0.1-0.1,0.1-0.2c0,0,0,0,0,0c0.4-0.5,0.8-1.2,0.7-2.4C308.2,184.2,306.7,181.5,304.6,178.8z
			M306,186.4c0,0.2,0,0.5-0.1,0.6c-0.1,0.1-0.4,0.3-0.7,0.5c-1.7,0.7-5.6,0.3-11.3-2.1l3.5-3c0.3-0.3,0.5-0.7,0.4-1.1
			c-0.1-0.4-0.3-0.8-0.7-0.9c0,0-4.2-1.8-9.6-5.8c-7.1-5.2-10-9.5-9.6-10.4l0-0.1c0,0,0.1-0.1,0.2-0.1c2.6-0.5,11.2,4.5,17.6,9.4
			C300.8,177.3,305.8,183.6,306,186.4z M276.5,167.2c2.3,3.9,8.1,8.3,9.6,9.4c3.6,2.6,6.6,4.3,8.3,5.2l-2.9,2.5
			c-2-1-4.1-2.1-6.4-3.6c-1.5-0.9-3-2-4.3-3.1c-0.2-0.2-0.5-0.3-0.8-0.3c-0.1,0-0.1,0-0.2,0l-3.3,0.6l-0.2-4.3
			c0-0.3-0.1-0.5-0.3-0.7c-0.5-0.7-1-1.3-1.5-2L276.5,167.2z M305.5,175.1L303,177c-1.8-2-3.8-3.9-5.8-5.4
			c-0.6-0.4-14.3-10.8-19.5-9.9c-1,0.2-1.6,0.7-1.8,1.2c0,0,0,0.1-0.1,0.1c0,0,0,0,0,0l0,0.1c0,0.1-0.1,0.2-0.1,0.2l-2.5,5.2
			c-1.1-2.3-1.6-4.5-1.4-6.3c0.4-1,0.6-1.7,0.7-2c0.6-0.9,1.4-1.4,2.7-1.7c1.5-0.3,3.3-0.2,5.3,0.3c0.1,0,0.1,0,0.2,0
			c4.4,1.1,9.9,3.8,15.4,7.8C300.8,170.1,304,173.5,305.5,175.1z M246,80.4c3,6.6,12.5,17.3,30.4,34l1.6,1.5
			c10.1,9.5,21.5,20.2,21.8,30.6c0.1,4.3-1.6,8.3-5.2,12.2c-0.8,0.8-1.6,1.7-2.3,2.5c-1.3-0.8-2.6-1.5-3.8-2.1
			c1-1.1,2.1-2.3,3.2-3.4c2-2.1,3-4.6,2.9-7.2c-0.3-9.2-13.3-21.2-31.3-37.7c-4-3.7-8.2-7.5-12.6-11.7c-3.9-3.7-6.1-8.1-6.2-12.5
			C244.4,84.4,244.9,82.2,246,80.4z M245.6,97c1,1.4,2.1,2.7,3.4,4c4.4,4.1,8.6,8,12.6,11.7c17.5,16.1,30.2,27.8,30.5,36
			c0.1,2-0.6,3.9-2.2,5.5c-0.2,0.2-0.3,0.4-0.5,0.5c-1.2-9.6-19.7-25.6-32-36.2c-3.1-2.7-5.8-5-7.7-6.8
			C242.7,105.1,244.2,99.5,245.6,97z M248.1,113.4c1.9,1.8,4.6,4.1,7.7,6.8c11.5,9.9,30.8,26.6,31.2,35.1c0.1,1.1-0.2,2-0.9,2.8
			c-1.5-0.6-3-1.1-4.4-1.5c-5.2-9-19.8-21.5-27.6-28.3c-1.9-1.7-3.5-3-4.3-3.8c-4.6-4.3-6-9.7-3.8-13.3
			C246.6,112,247.3,112.7,248.1,113.4z M245.9,123.9c0.7,0.9,1.4,1.7,2.2,2.5c0.9,0.8,2.4,2.2,4.4,3.9c7.3,6.2,20.2,17.4,26,25.9
			c-1.4-0.1-2.7-0.1-3.8,0.1c-1.4,0.3-2.6,0.9-3.5,1.8c-5.1-5.7-12-11.5-17.2-15.9c-2.1-1.8-3.9-3.3-5-4.3
			C245.2,134.1,243,128.3,245.9,123.9z M246.2,138.3c0.4,0.4,0.7,0.8,1.1,1.2c1.1,1.1,2.9,2.6,5.1,4.4c5.3,4.4,12.4,10.4,17.4,16.1
			c-0.2,0.5-0.3,1-0.4,1.5c-0.6,1.6-1.4,3.9-2.4,6.7c-3.1-3.6-7.2-7.2-11.2-10.6c-2.1-1.8-4.2-3.7-6.1-5.5c-3.2-3-4.8-6-4.9-9
			C244.8,141,245.6,139.3,246.2,138.3z M248.2,154c1.9,1.8,4,3.7,6.1,5.4c4.3,3.7,8.7,7.6,11.7,11.4c-0.7,1.9-1.6,4-2.5,6.2
			c-2-1.8-4.3-3.7-6.7-5.7c-1.6-1.3-3.3-2.7-5-4.1C245.4,161.8,247,156.3,248.2,154z M252.9,181.5c-5.5-5.2-4.5-10.7-3.6-13.3
			c0.3,0.3,0.6,0.6,1,0.9c1.7,1.5,3.4,2.8,5,4.1c2.7,2.2,5.2,4.2,7.2,6.2c-0.9,2.1-1.8,4.2-2.8,6.4
			C257.7,185,255.5,183.9,252.9,181.5z M254.2,219.6c0-2.3,1.8-4.1,4.1-4.1c2.3,0,4.1,1.8,4.1,4.1c0,2.3-1.8,4.1-4.1,4.1
			C256.1,223.7,254.2,221.9,254.2,219.6z M251.8,219.6c0,0.1,0,0.2,0,0.4c-3-2.6-5.3-5.3-5.9-7.1c-0.1-0.3,0.2-1.3,0.7-2.2
			c0.3,0.1,0.5,0.1,0.8,0.2c0.7,0.1,1.4,0.2,1.9,0.2c1.9,0,3.1-0.7,3.8-1.3c1,1,2.3,2.2,3.8,3.5
			C254.1,213.9,251.8,216.5,251.8,219.6z M151,144.1c6.6,2.7,20.9,4,45.4,4l2.2,0c13.8,0,29.5,0,36.9,7.4c3.1,3,4.5,7.1,4.5,12.5
			c0,26.5,0.4,33.8,10.8,40.6c-0.6,0.2-1.5,0.4-3,0.1c-0.4-0.1-0.9-0.2-1.3-0.3c-5.5-1.8-10.8-9-10.8-40.5c0-2.9-1-5.3-2.9-7.2
			c-5.3-5.2-17.8-6.1-35.2-6.1c-4.2,0-8.6,0.1-13.4,0.1c-5.5,0.1-11.1,0.1-17.1,0.1c-5.4,0-10-1.7-13.1-4.8
			C152.5,148,151.4,146.1,151,144.1z M162,156.4c1.7,0.4,3.4,0.6,5.2,0.6c6,0,11.7-0.1,17.2-0.1c23.8-0.3,41-0.5,46.9,5.3
			c1.5,1.4,2.2,3.3,2.2,5.5c0,0.3,0,0.5,0,0.7c-7.5-6.2-31.9-5.2-48.1-4.5c-4.1,0.2-7.7,0.3-10.2,0.3
			C165.5,164.3,162.8,159.1,162,156.4z M172.2,166.5c0.9,0.1,1.9,0.2,3,0.2c2.6,0,6.2-0.2,10.3-0.3c15.2-0.6,40.6-1.7,46.8,4.2
			c0.8,0.8,1.3,1.7,1.3,2.7c0,0,0,0,0,0c0,1.3,0.1,2.5,0.1,3.8c-7.6-5.3-31-4.2-43.8-3.6c-2.6,0.1-4.6,0.2-5.7,0.2
			C177.7,173.6,173,170.7,172.2,166.5z M180.7,175.8c1.1,0.2,2.2,0.3,3.3,0.3c1.2,0,3.3-0.1,5.9-0.2c11.2-0.5,37.3-1.7,43,3.7
			c0.6,0.6,0.9,1.2,0.9,1.9c0.1,1.6,0.2,3.2,0.4,4.6c-6.2-3.8-20.6-3.4-35.1-2.6c-2.8,0.2-5.2,0.3-6.6,0.3
			C187.2,183.7,181.6,180.9,180.7,175.8z M190.9,186.1c0.5,0,1.1,0.1,1.6,0.1c1.6,0,3.9-0.1,6.8-0.3c10.6-0.6,32.6-1.8,35.4,3.9
			c0.3,2.4,0.7,4.6,1.2,6.6c-5.7-3.6-15.3-3.2-24.7-2.9c-2.8,0.1-5.6,0.2-8.2,0.2c-4.4,0-7.6-1.1-9.7-3.2
			C191.7,189,191.1,187.2,190.9,186.1z M203.1,196.1c2.6,0,5.5-0.1,8.2-0.2c11.3-0.4,22.9-0.9,26.2,5.5c0,0,0,0,0,0.1
			c0.2,0.6,0.5,1.2,0.8,1.7c-4.3-1.2-10.1-0.8-17-0.3c-2.1,0.1-4.2,0.3-6.5,0.4C206.3,203.7,203.8,198.6,203.1,196.1z M235.9,210.1
			c-2.8,1.4-5.7,2.8-10.6,2.8c-7.5,0-10.6-4.7-11.7-7.2c0.4,0,0.9,0,1.3,0c2.3-0.1,4.4-0.3,6.5-0.4c9-0.6,16.1-1.1,19.4,1.9
			c0,0,0.1,0,0.1,0c0.2,0.3,0.5,0.5,0.8,0.8C239.5,208.3,237.8,209.2,235.9,210.1z M238.5,275.4c-0.4,1.2-1.5,2.1-2.9,2.1
			c-2,0.1-5.3-0.1-9.2-1.3l-0.7-4.5c-0.1-0.4-0.3-0.7-0.7-0.9c-0.4-0.2-0.8-0.2-1.1,0l-4.2,2.5c-1.6-0.9-3.3-2-4.9-3.2
			c-9.5-7-10.2-14.5-10.1-17.4c0-0.7,0.4-1.3,0.9-1.8c6.3-5.3,22.6-19.1,38.9-35.7c2.7,4.6,10.6,11.3,16.8,13.3
			C249.9,244.9,242.1,264.8,238.5,275.4z M264.8,226.8c-0.4,0-0.8,0-1.2-0.1c-0.1,0-0.2,0-0.2,0c-0.9-0.2-1.9-0.5-2.9-1
			c2.5-0.9,4.3-3.3,4.3-6.1c0-0.3,0-0.6-0.1-1c2.2,1.3,4.4,2.2,6,2.4C269.3,223.9,265.7,226.8,264.8,226.8z M269.8,218.4
			c-1.6-0.6-4-1.7-7.3-4c-6-4.1-9.7-8.3-9.7-9.4c0-0.1,0.1-0.1,0.1-0.2c3.2-5.4,6.1-11.3,8.8-16.9c0,0,0-0.1,0.1-0.1c0,0,0,0,0,0
			c1.3-2.8,2.4-5.5,3.5-8c0,0,0-0.1,0-0.1c2-4.8,3.7-9.1,4.9-12.4c0.7,2.3,2.1,4.7,3.9,7.1l0.2,5.2c0,0.3,0.2,0.7,0.4,0.9
			c0.3,0.2,0.6,0.3,1,0.3l4.1-0.7c1.3,1,2.7,2,4.1,2.9c2.5,1.6,4.9,2.9,7.2,4c0.1,0.1,0.2,0.1,0.3,0.1c3.9,1.8,7.4,2.9,10.2,3.2
			C294.5,195.2,280.7,205.8,269.8,218.4z"/>
	</g>
</g>
</svg>
