<?xml version="1.0" encoding="UTF-8" standalone="no"?>
<!-- Generator: Adobe Illustrator 21.0.0, SVG Export Plug-In . SVG Version: 6.00 Build 0)  -->

<svg
   xmlns:dc="http://purl.org/dc/elements/1.1/"
   xmlns:cc="http://creativecommons.org/ns#"
   xmlns:rdf="http://www.w3.org/1999/02/22-rdf-syntax-ns#"
   xmlns:svg="http://www.w3.org/2000/svg"
   xmlns="http://www.w3.org/2000/svg"
   xmlns:sodipodi="http://sodipodi.sourceforge.net/DTD/sodipodi-0.dtd"
   xmlns:inkscape="http://www.inkscape.org/namespaces/inkscape"
   version="1.1"
   id="Layer_1"
   x="0px"
   y="0px"
   viewBox="0 0 225.11266 241.60651"
   xml:space="preserve"
   sodipodi:docname="the-parchment-flies-away_touched.svg"
   width="225.11266"
   height="241.60651"
   inkscape:version="0.92.4 (33fec40, 2019-01-16)"><metadata
   id="metadata755"><rdf:RDF><cc:Work
       rdf:about=""><dc:format>image/svg+xml</dc:format><dc:type
         rdf:resource="http://purl.org/dc/dcmitype/StillImage" /><dc:title></dc:title></cc:Work></rdf:RDF></metadata><defs
   id="defs753" /><sodipodi:namedview
   pagecolor="#ffffff"
   bordercolor="#666666"
   borderopacity="1"
   objecttolerance="10"
   gridtolerance="10"
   guidetolerance="10"
   inkscape:pageopacity="0"
   inkscape:pageshadow="2"
   inkscape:window-width="3840"
   inkscape:window-height="2112"
   id="namedview751"
   showgrid="false"
   fit-margin-top="0"
   fit-margin-left="0"
   fit-margin-right="0"
   fit-margin-bottom="0"
   inkscape:zoom="3.337544"
   inkscape:cx="114.62106"
   inkscape:cy="115.29173"
   inkscape:window-x="0"
   inkscape:window-y="48"
   inkscape:window-maximized="1"
   inkscape:current-layer="Layer_1" />

<style type="text/css">
	.st0{opacity:0.5;fill:#7CCFDD;}
	.st1{fill:#FFFFFF;}
	.st2{fill:#7CCFDD;}
</style>

<g
   id="g748"
   transform="translate(-87.410071,-76.8625)">
	<path
   class="st0"
   d="M 106.2,140.9 C 41.8,211.5 154,397.4 275.2,281.1 396.4,164.8 190.9,48.1 106.2,140.9 Z"
   id="path670"
   inkscape:connector-curvature="0" />
	<path
   class="st1"
   d="m 307.2,175.3 c 0,0 -3.8,-4.8 -10.4,-9.6 -1.5,-1.1 -2.9,-2 -4.4,-2.9 0.9,-1 1.9,-2.1 3,-3.2 15,-15.9 -3.4,-32 -18.2,-46 C 257.3,94.9 247.9,83.9 246.4,78 c -3.4,3.5 -4.7,10.3 -0.7,17 l -0.2,-0.2 c 0,0 -5.5,6.3 0.5,14.5 -3.1,3.2 -2.9,8.1 -0.1,12.6 -3.3,3.5 -3.6,9.4 0.2,14.5 0,0 -6.7,6.8 1.8,15.7 0,0 -5.3,6.7 1,14 0,0 -5,8.6 3.1,16.3 2.5,2.4 6.2,4.1 8.3,4.9 L 251,205 c -0.3,0.4 -0.8,0.8 -1.2,1.3 -8.3,-6.2 -8.7,-13.7 -8.7,-38.4 0,-21.8 -24.4,-21 -44.8,-21 -27.3,0 -41.7,-1.5 -46.8,-4.8 -0.1,4.9 3.7,10.7 11.2,12.9 l -0.3,-0.1 c 0,0 0.4,8.4 10.3,10.3 0,4.5 3.4,7.9 8.6,9.2 0,4.9 3.8,9.3 10.1,10.4 0,0 -0.2,9.6 12.1,10.2 0,0 0.8,8.5 10.3,9.5 0,0 2.2,9.7 13.4,9.7 9.2,0 11.9,-4.9 18,-5.1 l 2.7,0.4 c -0.3,0.4 -1.5,2.6 -1.1,3.8 0,0 0,0 0,0 -17.5,17.9 -35.4,33 -40,36.8 -0.8,0.7 -1.3,1.6 -1.3,2.7 -0.2,3.4 0.8,11.1 10.6,18.4 1.9,1.4 3.8,2.6 5.6,3.6 l 4.8,-2.8 0.9,5.3 c 4.4,1.5 8,1.7 10.3,1.6 1.8,-0.1 3.3,-1.2 3.9,-2.9 2.6,-7.5 11,-30.2 23.7,-47.9 0.6,0.1 1.1,0.2 1.6,0.1 1.9,-0.1 7.2,-5 7.6,-8.2 v 0 c 0.1,-0.6 -0.5,-1.7 -0.5,-1.7 11.8,-15 34.8,-30.2 34.8,-30.2 0,0 0,0 0,0 1.5,-1.5 -0.6,-5.5 -3.9,-9.3 z m -55.5,29 v 0 c 0,0.1 -0.1,0.2 -0.2,0.3 0,-0.1 0.1,-0.2 0.2,-0.3 z"
   id="path672"
   inkscape:connector-curvature="0" />
	<path
   class="st1"
   d="m 145,253.7 9.7,-3.1 c -3.9,-0.4 -7.2,-0.1 -9.7,3.1 z"
   id="path674"
   inkscape:connector-curvature="0" />
	<path
   class="st1"
   d="m 199.1,221.3 c -3.3,1.7 -12.1,1.8 -28.6,0.2 -12.4,-1.2 -27.1,-3.1 -28.4,10.1 -0.5,5.4 -0.9,9.5 -1.4,12.6 l -4.5,9.5 v 0 l -2.3,-0.6 -3.9,-11.4 c 1.4,-0.9 2.9,-2 4.2,-3.7 1.4,-1.7 2.4,-3.4 2.9,-4.8 l 0.2,-0.2 v -0.2 c 2,-5.8 -1.3,-9.5 -1.3,-9.5 v 0 c 0.2,-0.2 0.4,-0.3 0.6,-0.5 9.2,-7.6 2.4,-13.6 2.4,-13.6 2.1,-1.6 3.4,-4.1 3.7,-6.7 v 0 0 c 0.3,-2.9 -0.5,-6 -2.9,-7.9 5.4,-4.3 5,-12.1 -0.3,-16.4 0,0 -3,6.5 -19.3,19.7 -9.3,7.5 -20.6,16.4 -12.4,26.3 0.5,0.6 0.9,1.1 1.3,1.6 -0.6,0.2 -1.1,0.5 -1.7,0.8 -4.6,2.3 -7.9,5.5 -7.9,5.5 l 3.3,4 2.3,-1.1 c -3.1,2.2 -4.6,4.4 -3.4,5.4 l 18.7,19.9 h -0.1 c -0.2,0.2 -0.3,0.6 -0.3,1 v 0 c 0,0 0,0 0,0 0,2 2.9,5.2 4.1,5.4 0.3,0 0.6,0 1,0 6.6,11.4 10.4,25.7 11.6,30.4 0.3,1.1 1.1,1.9 2.2,2 1.4,0.2 7.2,1.3 13.5,-2.8 6.3,-4 7.4,-9 7.5,-11.1 0,-0.6 -0.2,-1.2 -0.7,-1.7 -2.5,-2.5 -12,-12.2 -21.2,-23.6 v -2.7 c 0,0 4.8,4.8 12.9,4.1 11.6,-1 12.2,-9.5 12.2,-9.5 v 0 c 0.3,0 0.5,0.1 0.8,0.1 12.3,1.2 11.8,-8.2 11.8,-8.2 5.8,0.7 12,-4.2 11.4,-10.2 7.3,0.8 12.8,-5.2 12,-12.2 z M 133.7,253 v -0.1 c 0,0 0,0.1 0,0.1 z"
   id="path676"
   inkscape:connector-curvature="0" />
	<g
   id="g716">
		<path
   class="st2"
   d="m 306.7,187.9 c -0.3,0.2 -0.6,0.4 -0.9,0.5 0.7,-0.2 0.9,-0.5 0.9,-0.5 z"
   id="path678"
   inkscape:connector-curvature="0" />
		<circle
   class="st2"
   cx="256.39999"
   cy="219.3"
   r="4.4000001"
   id="circle680" />
		<path
   class="st2"
   d="m 277.6,163.5 c 0,0 4.9,-4.2 25.2,15.1 l 2.1,-1.6 c 0,0 -20.7,-22 -30.6,-15.8 -2.8,1.8 -2.9,6.2 -2.9,6.2 l 3.7,6.3 0.2,5.6 4.6,-0.8 c 0,0 6.9,4.4 10.5,6.4 -3,-1.5 -6.5,-3.6 -10.5,-6.4 0,0 11.3,7.9 -1.1,22.2 -12.4,14.3 -14.3,16.4 -14.3,16.4 0,0 3,2.9 5.9,2.1 0,0 21.2,-22.3 35.3,-30.9 -0.2,0.1 -0.5,0.2 -0.9,0.3 4.4,-1.4 -14.5,-18 -27.2,-25.1 z m -2.5,3.8 1.8,-3.8 c 0,0 -0.5,7.3 19.7,17.9 l -4.1,4.5 c -0.2,-0.1 -0.4,-0.2 -0.7,-0.3 l 2.2,-1.9 c 0,0 -16.2,-7.6 -18.9,-16.4 z"
   id="path682"
   inkscape:connector-curvature="0" />
		<path
   class="st2"
   d="m 258,226.5 c -2.8,-1.8 -10,-6.8 -13.9,-12.4 l -2.3,2.4 c 0,0 16,9.8 6.5,24 v 0 c -3.7,5.3 -7.8,11.5 -11.5,17.2 -7.9,12.3 -27,9.6 -27,9.6 0,0 4.3,4.9 10,7.4 l 4.8,-2.8 0.9,5.3 c 0,0 12.3,4.9 14.3,-1.4 8.6,-26.9 24,-48.4 24,-48.4 l -5.3,-1.4 c -0.2,0 -0.3,0.2 -0.5,0.5 z"
   id="path684"
   inkscape:connector-curvature="0" />
		<path
   class="st2"
   d="m 257.3,113.9 c 16.3,13.3 34,30.3 34.6,39.6 0,0 8.6,-9.3 -21.3,-34.2 -17.6,-14.7 -23.8,-21.9 -25,-24.5 -0.1,0 -4.6,5.9 11.7,19.1 z"
   id="path686"
   inkscape:connector-curvature="0" />
		<path
   class="st2"
   d="m 288.2,130 c 13.9,16.7 8.3,23.1 0.7,30.7 l 3.6,2 c 9,-8.2 17.1,-21.5 -12.6,-46.7 -29.7,-25 -33.5,-38 -33.5,-38 -5.7,17.5 27.9,35.3 41.8,52 z"
   id="path688"
   inkscape:connector-curvature="0" />
		<path
   class="st2"
   d="m 246,109.3 c -2.3,4.9 1.4,8.8 14.2,19.5 24.4,20.6 26.3,30.8 26.3,30.8 7.1,-14.1 -17.3,-25.2 -40.5,-50.3 z"
   id="path690"
   inkscape:connector-curvature="0" />
		<path
   class="st2"
   d="m 280.6,157.1 c 0,0 -5.3,-8.6 -16.6,-18.4 -11.3,-9.9 -18.1,-16.8 -18.1,-16.8 0,0 -4.3,6.7 13.2,20.1 10.9,8.4 15.9,15.3 15.9,15.3 z"
   id="path692"
   inkscape:connector-curvature="0" />
		<path
   class="st2"
   d="m 271.3,159.8 -25.1,-23.4 c 0.8,11.1 4.6,11 23.4,28.7 z"
   id="path694"
   inkscape:connector-curvature="0" />
		<path
   class="st2"
   d="m 265.4,175.9 2.1,-5.3 c -5.2,-5.9 -19.4,-18.5 -19.4,-18.5 -2.2,7.8 7.2,14.2 17.3,23.8 z"
   id="path696"
   inkscape:connector-curvature="0" />
		<path
   class="st2"
   d="m 262,183.9 2,-4.7 -15,-13 c 0,-0.1 0,14.7 13,17.7 z"
   id="path698"
   inkscape:connector-curvature="0" />
		<path
   class="st2"
   d="m 238.5,180.3 c -0.8,29.8 14.4,28 14.4,28 -12.3,-6.6 -11.7,-18.9 -11.7,-41 0,-22 -24.8,-20.5 -54.6,-20.5 -29.9,0 -37,-4.8 -37,-4.8 5.4,9 10.8,10.1 36.6,10.1 48.5,0 53.2,-2.8 52.3,28.2 z"
   id="path700"
   inkscape:connector-curvature="0" />
		<path
   class="st2"
   d="m 196.5,160.7 c 37.6,-2 38.6,9.5 38.6,9.9 -0.3,-14.4 -11.8,-15.7 -39.1,-15.1 -27.3,0.6 -35.4,-0.7 -35.4,-0.7 0,0 -2.3,8 35.9,5.9 z"
   id="path702"
   inkscape:connector-curvature="0" />
		<path
   class="st2"
   d="m 235.1,170.6 c 0,0 0,0 0,0 0,0 0,0 0,0 z"
   id="path704"
   inkscape:connector-curvature="0" />
		<path
   class="st2"
   d="m 184.8,170 c 10.8,-1.1 38.2,-2.2 50,5.1 0,0 5.2,-10.5 -25.1,-10.5 -30.3,0 -38.9,0.4 -38.9,0.4 0,0 3.1,6.2 14,5 z"
   id="path706"
   inkscape:connector-curvature="0" />
		<path
   class="st2"
   d="m 235.1,183.9 c 0,0 5.2,-9.8 -26,-9.8 -19.1,0 -29.7,0.2 -29.7,0.2 0,0 2.7,4.9 9.2,4.9 6.5,-0.1 37.1,-3.1 46.5,4.7 z"
   id="path708"
   inkscape:connector-curvature="0" />
		<path
   class="st2"
   d="m 211.6,188.8 c 22,-1.5 24.8,3.9 24.8,3.9 -1.3,-8.9 -13.1,-9.8 -24.4,-8.9 -11.4,0.9 -22.4,0.8 -22.4,0.8 1,4.4 7.7,5.2 22,4.2 z"
   id="path710"
   inkscape:connector-curvature="0" />
		<path
   class="st2"
   d="m 219.4,199.6 c 12.3,-1.4 19.5,2.2 19.5,2.2 -3.3,-8.5 -16.4,-7.3 -19.6,-7.4 -3.3,0 -17.7,0.4 -17.7,0.4 0.8,3.4 5.5,6.3 17.8,4.8 z"
   id="path712"
   inkscape:connector-curvature="0" />
		<path
   class="st2"
   d="m 211.9,204.4 c 0,0 5.7,6.8 14.7,5.5 9,-1.3 13.8,-3 17.5,-1.6 0,0 -1.9,-8 -32.2,-3.9 z"
   id="path714"
   inkscape:connector-curvature="0" />
	</g>
	<path
   class="st2"
   d="m 112.3,238.7 13.9,22.2 -5.9,0.4 c 0,0 -5.5,-9.7 -18.3,-20.9 0,0 4.8,0.9 10.3,-1.7 z"
   id="path718"
   inkscape:connector-curvature="0" />
	<path
   class="st2"
   d="m 129.6,265.3 c 0,0 9.5,26 21.2,23.1 4.4,-1.1 6.5,-7.2 6.5,-7.2 l 2.2,2.2 c 0,0 2.4,12.5 -16.8,15.8 -4.6,0.8 -5.8,-2.3 -5.8,-2.3 0,0 -4.9,-21.2 -11.7,-30.7 z"
   id="path720"
   inkscape:connector-curvature="0" />
	<path
   class="st2"
   d="m 122.8,231.7 c 0,0 -10.4,0.5 -18.1,8.7 -0.1,0 11.6,-0.6 18.1,-8.7 z"
   id="path722"
   inkscape:connector-curvature="0" />
	<path
   class="st2"
   d="m 117,228.3 c 0,0 -6.9,-1 -16,5.3 l 2.3,3 13.3,-6.9 z"
   id="path724"
   inkscape:connector-curvature="0" />
	<path
   class="st2"
   d="m 139.7,178 c 0,0 3.8,9.2 -3.4,14.7 -7.2,5.5 -34,20.2 -22.6,31.4 l -4.4,1.5 c 0,0 -10.2,-9.2 1,-19 11.2,-9.8 27.1,-23.6 29.4,-28.6 z"
   id="path726"
   inkscape:connector-curvature="0" />
	<path
   class="st2"
   d="m 118.1,223.3 c 0,0 -4.9,-4.7 -1.7,-8.5 3.2,-3.9 24.3,-20.3 24.3,-20.3 0,0 3.4,6.4 -8.2,14.6 -11.6,8.2 -14.4,14.2 -14.4,14.2 z"
   id="path728"
   inkscape:connector-curvature="0" />
	<path
   class="st2"
   d="m 122.8,222.8 16.7,-14 c 0,0 1.8,6.3 -5.1,10.8 -6.9,4.5 -9.6,8.4 -9.6,8.4 z"
   id="path730"
   inkscape:connector-curvature="0" />
	<path
   class="st2"
   d="m 136.1,223.3 c 0,0 0.5,10.1 -8.2,14.6 l -2.1,-7.3 z"
   id="path732"
   inkscape:connector-curvature="0" />
	<path
   class="st2"
   d="m 143.8,254.9 c 0,0 9.9,6.7 19.5,-1.8 0,-0.1 -13.2,-6.6 -19.5,1.8 z"
   id="path734"
   inkscape:connector-curvature="0" />
	<path
   class="st2"
   d="m 176,243.7 c 0,0 -25.1,-6.3 -26.8,0.4 -0.4,1.6 -1.4,4.6 -1.4,4.6 0,0 2.4,-2.7 12.7,-1.6 10.3,1.1 14.8,-0.5 15.5,-3.4 z"
   id="path736"
   inkscape:connector-curvature="0" />
	<path
   class="st2"
   d="m 187.2,233.5 c 0,0 -21.2,-3.1 -25.7,-2.9 -4.6,0.1 -10.1,-0.1 -10.9,4.9 -0.2,1.2 -0.4,3.1 -0.4,3.1 0,0 3.9,-2.9 13.2,-1.3 9.3,1.6 22.8,3.7 23.8,-3.8 z"
   id="path738"
   inkscape:connector-curvature="0" />
	<path
   class="st2"
   d="m 199.1,221.3 c 0,0 -2.1,7.4 -13.6,7.4 -11.5,0 -39.3,-7.1 -39.3,4.2 0,11.3 -2.4,23.5 -12.3,23.1 l 2.4,-2.3 c 0,0 3.7,-1.9 4.7,-10.5 0.9,-8.6 -0.9,-22.8 15.1,-22.8 16,0 37,4.3 43,0.9 z"
   id="path740"
   inkscape:connector-curvature="0" />
	<g
   id="g746">
		<path
   d="m 199.7,220.2 c -0.3,-0.2 -0.8,-0.2 -1.1,0 -3.1,1.6 -12.2,1.6 -28,0.1 l -1.3,-0.1 c -8.7,-0.9 -18.7,-1.8 -24.2,2.7 -2.4,2 -3.8,4.9 -4.2,8.6 l -0.2,2.2 c -1.2,12.6 -1.6,16.6 -5.7,19.4 -1.6,-3.4 -3.1,-7 -4.3,-10.4 1.6,-1 3.1,-2.3 4.4,-3.8 4,-4.8 4.3,-9 3.9,-11.6 -0.3,-1.6 -0.9,-2.9 -1.4,-3.7 3.3,-2.8 5,-5.8 5.1,-8.8 0,-2.5 -1.1,-4.4 -1.9,-5.5 2.3,-2.2 3.6,-5.4 3.5,-8.6 -0.1,-2.5 -1,-4.6 -2.6,-6.2 2.1,-2.1 3.2,-4.9 3.2,-7.8 0,-3.6 -1.7,-7.1 -4.6,-9.5 -0.3,-0.2 -0.7,-0.3 -1,-0.2 -0.4,0.1 -0.7,0.3 -0.8,0.7 0,0.1 -3.2,6.5 -19,19.3 l -0.3,0.2 c -6.9,5.5 -14.6,11.8 -15.3,18.9 -0.3,3 0.7,6 3,8.8 l 0.3,0.4 c -0.1,0 -0.2,0.1 -0.3,0.1 -4.7,2.3 -8.1,5.6 -8.2,5.8 -0.4,0.4 -0.5,1.1 -0.1,1.6 l 3.1,3.7 c -0.7,0.8 -1.2,1.7 -1.4,2.4 -0.2,1 0.1,1.9 0.8,2.4 0,0 0,0 0,0 0,0 0,0 0,0 0.1,0.1 10.1,8.3 18.1,18.8 -0.1,0.3 -0.2,0.6 -0.2,1 0,0 0,0.1 0,0.1 0,0 0,0 0,0.1 0,0.4 0.1,0.8 0.2,1.2 0.2,0.6 0.6,1.3 1,2 0,0 0,0 0,0 0.1,0.1 0.2,0.3 0.3,0.4 0,0 0.1,0.1 0.1,0.1 0.1,0.1 0.2,0.3 0.3,0.4 0,0.1 0.1,0.1 0.1,0.2 0.1,0.1 0.2,0.2 0.2,0.3 0,0 0.1,0.1 0.1,0.1 0.1,0.1 0.2,0.2 0.3,0.3 0,0 0,0 0,0 0.7,0.7 1.4,1.2 2,1.4 0,0 0,0 0,0 0.1,0 0.2,0.1 0.3,0.1 0,0 0,0 0,0 0.1,0 0.3,0 0.4,0 6,10.4 9.5,22.9 11.1,29.5 0.4,1.5 1.6,2.7 3.2,2.9 h 0.2 c 1.1,0.2 2.2,0.2 3.3,0.2 3.9,0 7.5,-1.1 10.9,-3.2 7.2,-4.6 8,-10.4 8.1,-12 0,-1 -0.3,-1.9 -1,-2.6 -3.4,-3.4 -12,-12.3 -20.6,-22.8 2,1.3 5.3,2.8 9.8,2.8 0.6,0 1.2,0 1.8,-0.1 9.8,-0.9 12.4,-6.8 13,-9.4 4.5,0.4 7.9,-0.5 10.1,-2.7 1.9,-1.8 2.5,-4.1 2.7,-5.5 3.6,0.1 7.5,-1.5 10,-4.1 1.7,-1.8 2.6,-3.9 2.6,-6.2 2.6,-0.3 5.1,-1.4 7,-3.3 2.7,-2.6 4,-6.4 3.6,-10.3 0.2,-0.2 0,-0.6 -0.4,-0.8 z m -63.5,38.1 c 0,0.1 0.1,0.1 0,0 0.1,0.1 0.1,0.1 0,0 -0.1,0.3 -0.3,0.6 -0.5,0.9 -1.7,2.2 -6.6,5.5 -9.8,6.1 -0.2,0 -0.4,0.1 -0.6,0.1 -0.1,0 -0.1,0 -0.2,0 -0.2,0 -0.4,0 -0.5,0 -0.1,0 -0.2,-0.1 -0.3,-0.1 -0.3,-0.2 -0.8,-0.6 -1.2,-1.2 -0.1,-0.1 -0.2,-0.2 -0.3,-0.4 0,0 -0.1,-0.1 -0.1,-0.1 -0.1,-0.2 -0.3,-0.3 -0.4,-0.5 0,-0.1 -0.1,-0.1 -0.1,-0.2 -0.1,-0.1 -0.2,-0.3 -0.2,-0.4 0,0 0,-0.1 -0.1,-0.1 3.3,-0.5 8.4,-3.7 10.9,-5.8 0.6,0.7 1.7,1.5 3.4,1.7 z m -2.8,-21 c -1,1.2 -2.1,2.2 -3.4,3.1 -1,-3.1 -1.9,-6 -2.6,-8.4 1.3,-1.7 3.4,-3.3 5.8,-5 0.9,-0.6 1.7,-1.3 2.6,-1.9 1.1,1.8 2.5,6.2 -2.4,12.2 z m 2.6,-15.5 c -1.4,1.2 -2.8,2.2 -4.2,3.2 -1.9,1.4 -3.7,2.7 -5.1,4.1 -0.3,-1.3 -0.6,-2.3 -0.7,-2.9 -0.1,-0.3 -0.2,-0.7 -0.3,-1 -0.4,-0.8 -1,-1.4 -1.8,-1.9 3.4,-4 10.2,-9 13.9,-11.8 0.5,-0.3 0.9,-0.6 1.2,-0.9 0.6,0.8 1.4,2.2 1.4,3.9 0,2.5 -1.5,4.9 -4.4,7.3 z m 2.5,-13.7 c -0.5,0.4 -1.2,0.9 -2.1,1.5 -4.1,3 -11.5,8.4 -14.9,12.9 -0.8,-0.2 -1.7,-0.2 -2.7,-0.2 -0.3,-0.4 -0.7,-0.8 -1,-1.2 -1,-1.2 -1.4,-2.3 -1.3,-3.4 0.4,-3.9 7.1,-9 17.1,-16.8 2,-1.5 4.1,-3.1 6.3,-4.9 1.3,1.2 2,2.8 2.1,4.7 0.1,2.8 -1.3,5.7 -3.5,7.4 z m -29.7,15.2 c -1.9,-2.3 -2.7,-4.6 -2.5,-7 0.6,-6.1 8,-12.1 14.5,-17.3 l 0.3,-0.2 c 12.3,-10 17.2,-16.2 18.9,-18.8 1.7,1.8 2.7,4.2 2.7,6.6 0,2.8 -1.3,5.2 -3.5,7 -2.5,2 -4.8,3.7 -7,5.4 -11.3,8.7 -17.5,13.5 -18,18.4 -0.2,1.8 0.4,3.5 1.8,5.2 -2,0.3 -4.2,0.9 -6.3,1.7 z m -7.5,8.8 c 1.2,-1.1 3.8,-3.1 6.8,-4.6 5,-2.5 10.7,-3.4 13.8,-2.4 0.6,0.2 1.3,0.6 1.6,1.2 0,0.1 0,0.1 0.1,0.2 0,0.1 0,0.1 0.1,0.2 0.3,1.8 -1.9,5.6 -8,9.2 -7.1,4.1 -12,4 -12.9,3.6 0,0 -0.1,0 -0.1,-0.1 -0.1,-1.2 5.5,-6.3 15,-8.8 0.6,-0.2 1,-0.8 0.9,-1.5 -0.1,-0.5 -0.6,-0.9 -1.2,-0.9 -0.1,0 -0.2,0 -0.3,0 -5.3,1.4 -10.4,3.9 -13.5,6.4 z m 4.4,9.9 c 3,-0.3 7,-1.6 11.2,-4 3.6,-2.1 6.4,-4.6 7.9,-7 0.1,0.3 0.1,0.5 0.2,0.8 0,0.1 0,0.2 0.1,0.3 1.5,5.4 4.1,13.8 7.5,21.2 0,0 0,0 0,0 -0.4,0.8 -2.8,2.9 -6.3,4.8 -1.8,1 -3.2,1.6 -4.1,1.8 -5.6,-7.7 -12.6,-14.4 -16.5,-17.9 z m 53.2,43.1 c 0,1 -0.6,6.1 -7,10.1 -5.7,3.7 -10.8,2.9 -12.5,2.6 h -0.2 c -0.6,-0.1 -1.1,-0.5 -1.2,-1.1 -1.6,-6.5 -5,-18.8 -10.9,-29.2 3.4,-1 7.5,-3.7 9.8,-6.1 0.2,-0.2 0.3,-0.4 0.5,-0.5 8.8,10.8 17.7,19.9 21.1,23.4 0.3,0.2 0.4,0.5 0.4,0.8 z m -7.9,-25 c -4.6,0.4 -8,-1 -10,-2.3 2,-0.7 3.8,-1.9 5.2,-3.8 2.9,-3.2 6.9,-2.6 12.3,-1.7 1.1,0.2 2.2,0.3 3.4,0.5 -0.6,2.2 -2.8,6.6 -10.9,7.3 z m 21.8,-11.4 c -1.8,1.7 -4.6,2.4 -8.5,2 -1.9,-0.2 -3.6,-0.5 -5.4,-0.8 -3.8,-0.6 -7.2,-1.2 -10.2,-0.3 0.7,-1.7 1.3,-3.7 1.8,-5.9 0.1,-0.3 0.3,-0.5 0.5,-0.7 3.2,-2.4 15.2,-0.1 21,1 1.1,0.2 2,0.4 2.7,0.5 -0.1,1.3 -0.6,2.9 -1.9,4.2 z m 12.6,-9.5 c -2.2,2.3 -6.1,3.7 -9.3,3.3 -0.8,-0.1 -2.1,-0.3 -3.7,-0.7 -8.4,-1.6 -16.9,-3 -21.3,-1.4 0.2,-1.2 0.3,-2.4 0.5,-3.7 0.2,-1.6 0.7,-2.7 1.6,-3.5 3.2,-2.5 11.8,-1.4 24.8,0.3 2.8,0.4 5.8,0.8 9.1,1.2 0.1,0 0.2,0 0.2,0 0,2 -1,3.6 -1.9,4.5 z m 9.7,-9.4 c -2,2 -4.8,2.9 -7.7,2.6 -3.2,-0.4 -6.3,-0.8 -9,-1.2 -14.6,-1.9 -22.7,-3 -26.6,0.2 -1.5,1.2 -2.3,2.9 -2.5,5.1 -0.2,2.6 -0.6,4.8 -1,6.7 0,0.1 0,0.2 -0.1,0.3 -2.4,10.8 -7.1,12.3 -9.8,12.5 -0.1,0 -0.1,0 -0.2,0 -0.4,0 -0.8,0 -1.1,0 -0.6,0 -1.1,-0.2 -1.5,-0.3 6,-3.4 6.4,-8.2 7.7,-21.7 l 0.2,-2.2 c 0.3,-3.1 1.4,-5.4 3.3,-7 4.8,-3.9 14.1,-3 22.4,-2.2 l 1.3,0.1 c 14.5,1.4 23.2,1.5 27.6,0.3 -0.2,2.6 -1.2,5 -3,6.8 z"
   id="path742"
   inkscape:connector-curvature="0" />
		<path
   d="m 304.6,178.8 3.4,-2.5 c 0.3,-0.2 0.4,-0.5 0.5,-0.8 0,-0.3 0,-0.6 -0.2,-0.9 -0.2,-0.2 -3.9,-4.9 -10.6,-9.8 -1.1,-0.8 -2.1,-1.5 -3.2,-2.2 0.6,-0.7 1.3,-1.4 2,-2.1 4.1,-4.3 6,-9 5.9,-13.9 -0.4,-11.5 -12.2,-22.5 -22.6,-32.3 l -1.6,-1.5 c -19.3,-18.2 -29,-29.3 -30.4,-35 -0.1,-0.4 -0.4,-0.8 -0.8,-0.9 -0.4,-0.1 -0.9,0 -1.2,0.3 -2.3,2.3 -3.6,5.8 -3.5,9.6 0.1,2.7 0.8,5.4 2.1,7.9 -1.3,1.9 -4.2,7.6 0.3,14.6 -2.6,3.4 -2.5,8.1 0,12.5 -2.8,3.6 -3.4,9.3 0.2,14.6 -0.9,1.2 -2.3,3.6 -2.2,6.8 0.1,3.1 1.4,6.1 4,9.1 -1.2,2.1 -3.7,7.9 1.1,14 -1.1,2.4 -3.6,10.1 3.7,17 2.7,2.6 5.3,3.9 7.5,4.7 -2.6,5.7 -5.6,11.5 -8.8,16.8 -7.2,-5.8 -7.5,-13.3 -7.5,-36.9 0,-5.9 -1.8,-10.7 -5.2,-14.2 -8.1,-8.1 -24.3,-8.1 -38.6,-8.1 h -2.2 c -26.5,0 -41.2,-1.5 -46.2,-4.6 -0.4,-0.2 -0.8,-0.3 -1.2,0 -0.4,0.3 -0.6,0.6 -0.6,1 -0.1,3.3 1.4,6.7 4,9.4 1.9,1.9 4.2,3.3 6.9,4.3 0.5,3.4 3.1,8.6 10.3,10.4 0.4,4.3 3.7,7.7 8.5,9.2 0.4,4.5 3.9,9.1 10.1,10.5 0.2,1.4 0.8,4.2 3.1,6.5 2.2,2.2 5.2,3.5 9.1,3.8 0.6,2.4 2.7,8.3 10.4,9.5 0.9,2.5 4.3,9.8 14.4,9.8 5.5,0 8.7,-1.6 11.6,-3.1 2.4,-1.2 4.4,-2.2 7.2,-2 -0.3,0.8 -0.6,1.7 -0.6,2.6 -16.5,16.9 -33.1,31 -39.5,36.3 -1.1,0.9 -1.7,2.2 -1.8,3.5 -0.1,3.3 0.6,11.7 11.1,19.4 1.9,1.4 3.8,2.6 5.8,3.7 0.4,0.2 0.8,0.2 1.2,0 l 3.3,-1.9 0.6,3.6 c 0.1,0.4 0.4,0.8 0.8,0.9 4,1.3 7.3,1.7 9.7,1.7 0.4,0 0.8,0 1.1,0 2.3,-0.1 4.3,-1.6 5,-3.8 3.7,-10.7 11.6,-30.8 23.1,-47 0.3,0 0.5,0 0.7,0 0.1,0 0.2,0 0.3,0 2.3,-0.1 6.8,-4.2 8.2,-7.5 0.8,-1.7 0.6,-2.9 0.2,-3.7 13.1,-14.3 29.3,-25.8 33.2,-28.5 0.3,-0.2 0.5,-0.3 0.8,-0.5 0,0 0.1,0 0.1,-0.1 0,0 0,0 0,0 0,0 0.1,-0.1 0.2,-0.1 0,0 0.1,-0.1 0.1,-0.2 0,0 0,0 0,0 0.4,-0.5 0.8,-1.2 0.7,-2.4 -0.4,-2.1 -1.9,-4.8 -4,-7.5 z m 1.4,7.6 c 0,0.2 0,0.5 -0.1,0.6 -0.1,0.1 -0.4,0.3 -0.7,0.5 -1.7,0.7 -5.6,0.3 -11.3,-2.1 l 3.5,-3 c 0.3,-0.3 0.5,-0.7 0.4,-1.1 -0.1,-0.4 -0.3,-0.8 -0.7,-0.9 0,0 -4.2,-1.8 -9.6,-5.8 -7.1,-5.2 -10,-9.5 -9.6,-10.4 v -0.1 c 0,0 0.1,-0.1 0.2,-0.1 2.6,-0.5 11.2,4.5 17.6,9.4 5.1,3.9 10.1,10.2 10.3,13 z m -29.5,-19.2 c 2.3,3.9 8.1,8.3 9.6,9.4 3.6,2.6 6.6,4.3 8.3,5.2 l -2.9,2.5 c -2,-1 -4.1,-2.1 -6.4,-3.6 -1.5,-0.9 -3,-2 -4.3,-3.1 -0.2,-0.2 -0.5,-0.3 -0.8,-0.3 -0.1,0 -0.1,0 -0.2,0 l -3.3,0.6 -0.2,-4.3 c 0,-0.3 -0.1,-0.5 -0.3,-0.7 -0.5,-0.7 -1,-1.3 -1.5,-2 z m 29,7.9 -2.5,1.9 c -1.8,-2 -3.8,-3.9 -5.8,-5.4 -0.6,-0.4 -14.3,-10.8 -19.5,-9.9 -1,0.2 -1.6,0.7 -1.8,1.2 0,0 0,0.1 -0.1,0.1 0,0 0,0 0,0 v 0.1 c 0,0.1 -0.1,0.2 -0.1,0.2 l -2.5,5.2 c -1.1,-2.3 -1.6,-4.5 -1.4,-6.3 0.4,-1 0.6,-1.7 0.7,-2 0.6,-0.9 1.4,-1.4 2.7,-1.7 1.5,-0.3 3.3,-0.2 5.3,0.3 0.1,0 0.1,0 0.2,0 4.4,1.1 9.9,3.8 15.4,7.8 4.7,3.5 7.9,6.9 9.4,8.5 z M 246,80.4 c 3,6.6 12.5,17.3 30.4,34 l 1.6,1.5 c 10.1,9.5 21.5,20.2 21.8,30.6 0.1,4.3 -1.6,8.3 -5.2,12.2 -0.8,0.8 -1.6,1.7 -2.3,2.5 -1.3,-0.8 -2.6,-1.5 -3.8,-2.1 1,-1.1 2.1,-2.3 3.2,-3.4 2,-2.1 3,-4.6 2.9,-7.2 -0.3,-9.2 -13.3,-21.2 -31.3,-37.7 -4,-3.7 -8.2,-7.5 -12.6,-11.7 -3.9,-3.7 -6.1,-8.1 -6.2,-12.5 -0.1,-2.2 0.4,-4.4 1.5,-6.2 z M 245.6,97 c 1,1.4 2.1,2.7 3.4,4 4.4,4.1 8.6,8 12.6,11.7 17.5,16.1 30.2,27.8 30.5,36 0.1,2 -0.6,3.9 -2.2,5.5 -0.2,0.2 -0.3,0.4 -0.5,0.5 -1.2,-9.6 -19.7,-25.6 -32,-36.2 -3.1,-2.7 -5.8,-5 -7.7,-6.8 -7,-6.6 -5.5,-12.2 -4.1,-14.7 z m 2.5,16.4 c 1.9,1.8 4.6,4.1 7.7,6.8 11.5,9.9 30.8,26.6 31.2,35.1 0.1,1.1 -0.2,2 -0.9,2.8 -1.5,-0.6 -3,-1.1 -4.4,-1.5 -5.2,-9 -19.8,-21.5 -27.6,-28.3 -1.9,-1.7 -3.5,-3 -4.3,-3.8 -4.6,-4.3 -6,-9.7 -3.8,-13.3 0.6,0.8 1.3,1.5 2.1,2.2 z m -2.2,10.5 c 0.7,0.9 1.4,1.7 2.2,2.5 0.9,0.8 2.4,2.2 4.4,3.9 7.3,6.2 20.2,17.4 26,25.9 -1.4,-0.1 -2.7,-0.1 -3.8,0.1 -1.4,0.3 -2.6,0.9 -3.5,1.8 -5.1,-5.7 -12,-11.5 -17.2,-15.9 -2.1,-1.8 -3.9,-3.3 -5,-4.3 -3.8,-3.8 -6,-9.6 -3.1,-14 z m 0.3,14.4 c 0.4,0.4 0.7,0.8 1.1,1.2 1.1,1.1 2.9,2.6 5.1,4.4 5.3,4.4 12.4,10.4 17.4,16.1 -0.2,0.5 -0.3,1 -0.4,1.5 -0.6,1.6 -1.4,3.9 -2.4,6.7 -3.1,-3.6 -7.2,-7.2 -11.2,-10.6 -2.1,-1.8 -4.2,-3.7 -6.1,-5.5 -3.2,-3 -4.8,-6 -4.9,-9 0,-2.1 0.8,-3.8 1.4,-4.8 z m 2,15.7 c 1.9,1.8 4,3.7 6.1,5.4 4.3,3.7 8.7,7.6 11.7,11.4 -0.7,1.9 -1.6,4 -2.5,6.2 -2,-1.8 -4.3,-3.7 -6.7,-5.7 -1.6,-1.3 -3.3,-2.7 -5,-4.1 -6.4,-5.4 -4.8,-10.9 -3.6,-13.2 z m 4.7,27.5 c -5.5,-5.2 -4.5,-10.7 -3.6,-13.3 0.3,0.3 0.6,0.6 1,0.9 1.7,1.5 3.4,2.8 5,4.1 2.7,2.2 5.2,4.2 7.2,6.2 -0.9,2.1 -1.8,4.2 -2.8,6.4 -2,-0.8 -4.2,-1.9 -6.8,-4.3 z m 1.3,38.1 c 0,-2.3 1.8,-4.1 4.1,-4.1 2.3,0 4.1,1.8 4.1,4.1 0,2.3 -1.8,4.1 -4.1,4.1 -2.2,0 -4.1,-1.8 -4.1,-4.1 z m -2.4,0 c 0,0.1 0,0.2 0,0.4 -3,-2.6 -5.3,-5.3 -5.9,-7.1 -0.1,-0.3 0.2,-1.3 0.7,-2.2 0.3,0.1 0.5,0.1 0.8,0.2 0.7,0.1 1.4,0.2 1.9,0.2 1.9,0 3.1,-0.7 3.8,-1.3 1,1 2.3,2.2 3.8,3.5 -2.8,0.6 -5.1,3.2 -5.1,6.3 z M 151,144.1 c 6.6,2.7 20.9,4 45.4,4 h 2.2 c 13.8,0 29.5,0 36.9,7.4 3.1,3 4.5,7.1 4.5,12.5 0,26.5 0.4,33.8 10.8,40.6 -0.6,0.2 -1.5,0.4 -3,0.1 -0.4,-0.1 -0.9,-0.2 -1.3,-0.3 -5.5,-1.8 -10.8,-9 -10.8,-40.5 0,-2.9 -1,-5.3 -2.9,-7.2 -5.3,-5.2 -17.8,-6.1 -35.2,-6.1 -4.2,0 -8.6,0.1 -13.4,0.1 -5.5,0.1 -11.1,0.1 -17.1,0.1 -5.4,0 -10,-1.7 -13.1,-4.8 -1.5,-2 -2.6,-3.9 -3,-5.9 z m 11,12.3 c 1.7,0.4 3.4,0.6 5.2,0.6 6,0 11.7,-0.1 17.2,-0.1 23.8,-0.3 41,-0.5 46.9,5.3 1.5,1.4 2.2,3.3 2.2,5.5 0,0.3 0,0.5 0,0.7 -7.5,-6.2 -31.9,-5.2 -48.1,-4.5 -4.1,0.2 -7.7,0.3 -10.2,0.3 -9.7,0.1 -12.4,-5.1 -13.2,-7.8 z m 10.2,10.1 c 0.9,0.1 1.9,0.2 3,0.2 2.6,0 6.2,-0.2 10.3,-0.3 15.2,-0.6 40.6,-1.7 46.8,4.2 0.8,0.8 1.3,1.7 1.3,2.7 0,0 0,0 0,0 0,1.3 0.1,2.5 0.1,3.8 -7.6,-5.3 -31,-4.2 -43.8,-3.6 -2.6,0.1 -4.6,0.2 -5.7,0.2 -6.5,-0.1 -11.2,-3 -12,-7.2 z m 8.5,9.3 c 1.1,0.2 2.2,0.3 3.3,0.3 1.2,0 3.3,-0.1 5.9,-0.2 11.2,-0.5 37.3,-1.7 43,3.7 0.6,0.6 0.9,1.2 0.9,1.9 0.1,1.6 0.2,3.2 0.4,4.6 -6.2,-3.8 -20.6,-3.4 -35.1,-2.6 -2.8,0.2 -5.2,0.3 -6.6,0.3 -5.3,-0.1 -10.9,-2.9 -11.8,-8 z m 10.2,10.3 c 0.5,0 1.1,0.1 1.6,0.1 1.6,0 3.9,-0.1 6.8,-0.3 10.6,-0.6 32.6,-1.8 35.4,3.9 0.3,2.4 0.7,4.6 1.2,6.6 -5.7,-3.6 -15.3,-3.2 -24.7,-2.9 -2.8,0.1 -5.6,0.2 -8.2,0.2 -4.4,0 -7.6,-1.1 -9.7,-3.2 -1.6,-1.5 -2.2,-3.3 -2.4,-4.4 z m 12.2,10 c 2.6,0 5.5,-0.1 8.2,-0.2 11.3,-0.4 22.9,-0.9 26.2,5.5 0,0 0,0 0,0.1 0.2,0.6 0.5,1.2 0.8,1.7 -4.3,-1.2 -10.1,-0.8 -17,-0.3 -2.1,0.1 -4.2,0.3 -6.5,0.4 -8.5,0.4 -11,-4.7 -11.7,-7.2 z m 32.8,14 c -2.8,1.4 -5.7,2.8 -10.6,2.8 -7.5,0 -10.6,-4.7 -11.7,-7.2 0.4,0 0.9,0 1.3,0 2.3,-0.1 4.4,-0.3 6.5,-0.4 9,-0.6 16.1,-1.1 19.4,1.9 0,0 0.1,0 0.1,0 0.2,0.3 0.5,0.5 0.8,0.8 -2.2,0.3 -3.9,1.2 -5.8,2.1 z m 2.6,65.3 c -0.4,1.2 -1.5,2.1 -2.9,2.1 -2,0.1 -5.3,-0.1 -9.2,-1.3 l -0.7,-4.5 c -0.1,-0.4 -0.3,-0.7 -0.7,-0.9 -0.4,-0.2 -0.8,-0.2 -1.1,0 l -4.2,2.5 c -1.6,-0.9 -3.3,-2 -4.9,-3.2 -9.5,-7 -10.2,-14.5 -10.1,-17.4 0,-0.7 0.4,-1.3 0.9,-1.8 6.3,-5.3 22.6,-19.1 38.9,-35.7 2.7,4.6 10.6,11.3 16.8,13.3 -11.4,16.4 -19.2,36.3 -22.8,46.9 z m 26.3,-48.6 c -0.4,0 -0.8,0 -1.2,-0.1 -0.1,0 -0.2,0 -0.2,0 -0.9,-0.2 -1.9,-0.5 -2.9,-1 2.5,-0.9 4.3,-3.3 4.3,-6.1 0,-0.3 0,-0.6 -0.1,-1 2.2,1.3 4.4,2.2 6,2.4 -1.4,2.9 -5,5.8 -5.9,5.8 z m 5,-8.4 c -1.6,-0.6 -4,-1.7 -7.3,-4 -6,-4.1 -9.7,-8.3 -9.7,-9.4 0,-0.1 0.1,-0.1 0.1,-0.2 3.2,-5.4 6.1,-11.3 8.8,-16.9 0,0 0,-0.1 0.1,-0.1 0,0 0,0 0,0 1.3,-2.8 2.4,-5.5 3.5,-8 0,0 0,-0.1 0,-0.1 2,-4.8 3.7,-9.1 4.9,-12.4 0.7,2.3 2.1,4.7 3.9,7.1 l 0.2,5.2 c 0,0.3 0.2,0.7 0.4,0.9 0.3,0.2 0.6,0.3 1,0.3 l 4.1,-0.7 c 1.3,1 2.7,2 4.1,2.9 2.5,1.6 4.9,2.9 7.2,4 0.1,0.1 0.2,0.1 0.3,0.1 3.9,1.8 7.4,2.9 10.2,3.2 -7.1,4.9 -20.9,15.5 -31.8,28.1 z"
   id="path744"
   inkscape:connector-curvature="0" />
	</g>
</g>
</svg>
