<?xml version="1.0" encoding="UTF-8" standalone="no"?>
<!-- Generator: Adobe Illustrator 21.0.0, SVG Export Plug-In . SVG Version: 6.00 Build 0)  -->

<svg
   xmlns:dc="http://purl.org/dc/elements/1.1/"
   xmlns:cc="http://creativecommons.org/ns#"
   xmlns:rdf="http://www.w3.org/1999/02/22-rdf-syntax-ns#"
   xmlns:svg="http://www.w3.org/2000/svg"
   xmlns="http://www.w3.org/2000/svg"
   xmlns:sodipodi="http://sodipodi.sourceforge.net/DTD/sodipodi-0.dtd"
   xmlns:inkscape="http://www.inkscape.org/namespaces/inkscape"
   version="1.1"
   id="Layer_1"
   x="0px"
   y="0px"
   viewBox="0 0 264.96863 203.40779"
   xml:space="preserve"
   sodipodi:docname="the-accounting-paper-inspected-with-a-ballot-box_touched.svg"
   width="264.96863"
   height="203.40779"
   inkscape:version="0.92.4 (33fec40, 2019-01-16)"><metadata
   id="metadata668"><rdf:RDF><cc:Work
       rdf:about=""><dc:format>image/svg+xml</dc:format><dc:type
         rdf:resource="http://purl.org/dc/dcmitype/StillImage" /><dc:title></dc:title></cc:Work></rdf:RDF></metadata><defs
   id="defs666" /><sodipodi:namedview
   pagecolor="#ffffff"
   bordercolor="#666666"
   borderopacity="1"
   objecttolerance="10"
   gridtolerance="10"
   guidetolerance="10"
   inkscape:pageopacity="0"
   inkscape:pageshadow="2"
   inkscape:window-width="3840"
   inkscape:window-height="2112"
   id="namedview664"
   showgrid="false"
   fit-margin-top="0"
   fit-margin-left="0"
   fit-margin-right="0"
   fit-margin-bottom="0"
   inkscape:zoom="3.337544"
   inkscape:cx="146.01767"
   inkscape:cy="110.63437"
   inkscape:window-x="0"
   inkscape:window-y="48"
   inkscape:window-maximized="1"
   inkscape:current-layer="Layer_1" />

<style type="text/css">
	.st0{opacity:0.5;fill:#7CCFDD;}
	.st1{fill:#FFFFFF;}
	.st2{fill:#7CCFDD;}
</style>

<g
   id="g661"
   transform="translate(-67.125,-98.33108)">
	<path
   class="st0"
   d="m 129.4,126.3 c -69,69.2 22,244.1 157.7,146.5 C 422.8,175.2 216.5,39 129.4,126.3 Z"
   id="path625"
   inkscape:connector-curvature="0" />
	<path
   class="st1"
   d="m 306,147.9 h -14.3 l -14.6,-14.6 -14.6,14.6 h -18.1 c 4.1,-10.2 6.3,-19.2 4.5,-26.4 H 145.2 c 1.2,6.9 -1.1,15.8 -5.1,25.9 -9.7,-1.2 -19.8,1.9 -27.3,9.4 -12.8,12.8 -12.9,33.7 0,46.5 l -0.7,-0.7 c -2.1,-2.1 -5.4,-2.1 -7.5,0 l -35.2,35.2 c -2.1,2.1 -2.1,5.4 0,7.5 l 1.5,1.5 c 2.1,2.1 5.4,2.1 7.5,0 l 35.2,-35.2 c 0.1,-0.1 0.1,-0.1 0.1,-0.2 -2.9,10.3 -4.5,20.5 -3.6,30.1 1.8,18.1 9,24.7 17.6,25.4 l 41.3,-0.1 v 0.1 h 55.5 l 0.1,-0.1 c 11,-0.1 18.5,-12.5 20.5,-23.2 v 0 h 45.5 l 39.5,-40.4 V 148 H 306 Z M 115.1,207 c -0.2,-1.1 -0.6,-2.1 -1.5,-2.9 l -0.7,-0.7 c 0.8,0.8 1.7,1.6 2.6,2.4 -0.2,0.3 -0.3,0.8 -0.4,1.2 z"
   id="path627"
   inkscape:connector-curvature="0" />
	<path
   class="st2"
   d="m 132.4,153.1 c 0,0 -26.6,24.5 -8.2,24.5 18.4,0 4.2,28.7 4.2,28.7 l 6.5,1.4 c 0,0 19.3,-13.4 19.3,-27.3 0,-13.9 -34.1,-4 -2.7,-22.9 -0.1,0 -6.3,-5.5 -19.1,-4.4 z"
   id="path629"
   inkscape:connector-curvature="0" />
	<path
   class="st2"
   d="m 69.4,237.8 v 0 c 2.9,2.9 7.5,2.9 10.4,0 l 33.7,-33.7 1.5,3 -1.3,4.4 -35.3,35.4 c 0,0 -3.6,3.7 -7.5,0 -3.9,-3.8 -3.6,-7.2 -1.5,-9.1 z"
   id="path631"
   inkscape:connector-curvature="0" />
	<path
   class="st2"
   d="m 240.2,188.2 c 15.1,-10.1 25.3,-1 25.3,-11.1 0,-13.7 26.3,7.1 26.3,-9.1 H 236 l -11.2,20.2 z"
   id="path633"
   inkscape:connector-curvature="0" />
	<path
   class="st2"
   d="m 220.7,228.1 c 0,0 -6.8,7.1 -0.9,27.7 l -8.1,-0.1 c 0,0 -4.6,-14.3 -1.2,-27.7 h 10.2 z"
   id="path635"
   inkscape:connector-curvature="0" />
	<path
   class="st2"
   d="m 290.7,242.2 -0.1,-54 39.5,-40.4 c 0,0 -2,25 -13.9,28.1 -11.9,3.1 -1.3,23.5 -11.1,28.7 -9.8,5.2 0.9,10.6 -14.4,37.6 z"
   id="path637"
   inkscape:connector-curvature="0" />
	<path
   class="st2"
   d="m 233,230.2 c 0,0 6.4,-1.2 7.2,9.3 0.8,12.1 -8.1,27.2 -15.5,27.2 -9.7,0 -13,-10.9 -13,-10.9 l 16.3,0.1 c -0.1,0 -5.2,-17.4 5,-25.7 z"
   id="path639"
   inkscape:connector-curvature="0" />
	<path
   class="st2"
   d="m 253.4,243.5 c 0,0 4.2,-27.6 -13.2,-27.6 -17.4,0 0,-27.6 0,-27.6 h -15.4 c 0,0 -13.3,24.4 -14.3,39.9 0,0 20.9,0 29.7,0 8.8,0 4.9,15.3 4.9,15.3 z"
   id="path641"
   inkscape:connector-curvature="0" />
	<polygon
   class="st2"
   points="242.3,168.1 236,168.1 244.4,147.9 262.5,147.9 "
   id="polygon643" />
	<path
   class="st2"
   d="m 276.6,139.5 14.1,14 -13.2,13.5 c 0,0 -3.5,-5.1 4,-13.5 3.6,-4.1 -10.1,-8.9 -4.9,-14 z"
   id="path645"
   inkscape:connector-curvature="0" />
	<g
   id="g659">
		<path
   d="m 331.3,147.9 c 0,-0.2 0,-0.3 -0.1,-0.5 -0.1,-0.1 -0.2,-0.3 -0.3,-0.4 0,0 0,0 0,0 0,0 -0.1,0 -0.1,-0.1 -0.1,-0.1 -0.2,-0.1 -0.3,-0.2 -0.1,0 -0.2,0 -0.3,-0.1 -0.1,0 -0.1,0 -0.2,0 h -37.9 l -14.3,-14.3 c -0.5,-0.5 -1.2,-0.5 -1.7,0 L 262,146.7 h -15.8 c 3.8,-9.7 5.7,-18.3 3.9,-25.4 -0.1,-0.5 -0.6,-0.9 -1.2,-0.9 H 145.2 c -0.4,0 -0.7,0.2 -0.9,0.4 -0.2,0.2 -0.3,0.6 -0.3,1 1,5.7 -0.5,13.5 -4.7,24.4 -9.8,-0.9 -19.9,2.4 -27.3,9.8 -6.4,6.4 -10,15 -10,24.1 0,7.4 2.3,14.4 6.6,20.2 -2,-0.1 -4.1,0.6 -5.6,2.2 l -33.7,33.7 c -2.9,2.9 -2.9,7.7 0,10.7 v 0 c 1.4,1.4 3.3,2.2 5.3,2.2 2,0 3.9,-0.8 5.3,-2.2 L 111.8,215 c -2.2,8.2 -3.8,17.5 -2.9,26.6 2,20.8 11.3,25.9 18.8,26.5 l 96.7,-0.1 c 0,0 0,0 0,0 11.3,0 19.3,-12.2 21.6,-23.3 h 44.5 c 0.3,0 0.6,-0.1 0.9,-0.4 0,0 0,0 0,0 l 39.5,-40.4 c 0.2,-0.2 0.3,-0.5 0.3,-0.8 l 0.1,-55.2 c 0,0 0,0 0,0 z m -4,1.2 -37.1,38 h -63.4 c 2.2,-4.4 4.4,-8.8 6.6,-13.1 0.8,-1.6 1.6,-3.2 2.4,-4.7 h 6.6 c 0,0 0,0 0,0 h 40.7 c 0,0 0,0 0,0 0,0 0,0 0,0 h 10.3 c 0.7,0 1.2,-0.5 1.2,-1.2 0,-0.7 -0.5,-1.2 -1.2,-1.2 H 286 l 12.4,-12.4 c 0.2,-0.2 0.4,-0.5 0.4,-0.8 0,-0.3 -0.1,-0.6 -0.4,-0.8 l -3.7,-3.7 h 32.6 z m -50.2,-14.2 18.6,18.6 -13.3,13.3 h -37.3 z m -17.5,14.2 -17.8,17.8 h -4.9 c 3.1,-6.2 6,-12.2 8.3,-17.8 z m -155.2,31 c 0,-8.5 3.3,-16.4 9.3,-22.4 6.2,-6.2 14.3,-9.3 22.4,-9.3 8.1,0 16.2,3.1 22.4,9.3 2.8,2.8 5,6.1 6.6,9.6 0,0.2 0.1,0.4 0.3,0.6 1.6,3.8 2.4,7.9 2.4,12.2 0,8.5 -3.3,16.4 -9.3,22.4 -12.4,12.4 -32.5,12.4 -44.8,0 0,0 0,0 0,0 0,0 0,0 0,0 -6,-6 -9.3,-14 -9.3,-22.4 z m -26.1,65.1 c -1,1 -2.3,1.5 -3.6,1.5 -1.4,0 -2.7,-0.5 -3.6,-1.5 v 0 c -2,-2 -2,-5.3 0,-7.3 l 33.7,-33.7 c 1,-1 2.3,-1.5 3.6,-1.5 1.3,0 2.6,0.5 3.6,1.5 0,0 0,0 0,0 0,0 0,0 0,0 0,0 0,0 0,0 1,1 1.5,2.3 1.5,3.6 0,1.3 -0.5,2.7 -1.5,3.6 z m 33.1,-3.9 c -1.1,-11.6 2,-23.8 5.1,-33.4 5.9,4.2 12.8,6.2 19.7,6.2 8.7,0 17.5,-3.3 24.1,-10 0.1,-0.1 0.3,-0.3 0.4,-0.4 2,1.1 4.3,2.1 8.3,2.1 4.5,0 6.8,-1.3 9,-2.5 2,-1.1 3.9,-2.2 7.9,-2.2 3.9,0 5.8,1.1 7.9,2.2 2.2,1.2 4.5,2.5 9,2.5 0.7,0 1.2,-0.5 1.2,-1.2 0,-0.7 -0.5,-1.2 -1.2,-1.2 -3.9,0 -5.8,-1.1 -7.9,-2.2 -2.2,-1.2 -4.5,-2.5 -9,-2.5 -4.5,0 -6.8,1.3 -9,2.5 -2,1.1 -3.9,2.2 -7.9,2.2 -3.2,0 -5,-0.7 -6.7,-1.5 3.4,-4.1 5.8,-8.8 7,-13.9 1.7,0.8 3.8,1.4 6.9,1.4 4.6,0 6.9,-1.3 9.1,-2.5 2,-1.1 4,-2.2 7.9,-2.2 4,0 5.9,1.1 7.9,2.2 2.2,1.2 4.5,2.5 9.1,2.5 0.7,0 1.2,-0.5 1.2,-1.2 0,-0.7 -0.5,-1.2 -1.2,-1.2 -4,0 -5.9,-1.1 -7.9,-2.2 -2.2,-1.2 -4.5,-2.5 -9.1,-2.5 -4.6,0 -6.9,1.3 -9.1,2.5 -2,1.1 -4,2.2 -7.9,2.2 -3.1,0 -4.9,-0.6 -6.5,-1.4 0.3,-1.8 0.5,-3.7 0.5,-5.5 0,-4 -0.7,-8 -2,-11.7 2.8,0.3 4.5,1.2 6.2,2.1 2.3,1.2 4.6,2.5 9.2,2.5 4.6,0 7,-1.3 9.2,-2.5 2.1,-1.1 4,-2.2 8.1,-2.2 4,0 6,1.1 8.1,2.2 2.3,1.2 4.6,2.5 9.2,2.5 0.3,0 0.6,0 0.8,0 0.7,0 1.2,-0.6 1.2,-1.2 0,-0.7 -0.6,-1.2 -1.2,-1.2 -0.2,0 -0.5,0 -0.8,0 -4,0 -6,-1.1 -8.1,-2.2 -2.3,-1.2 -4.6,-2.5 -9.2,-2.5 -4.6,0 -7,1.3 -9.2,2.5 -2.1,1.1 -4,2.2 -8.1,2.2 -4,0 -6,-1.1 -8.1,-2.2 -2.1,-1.2 -4.3,-2.3 -8.4,-2.5 -1.6,-3.4 -3.7,-6.6 -6.4,-9.4 1.7,-0.5 3.1,-1.2 4.3,-1.9 2.1,-1.1 4.1,-2.2 8.1,-2.2 4,0 6,1.1 8.1,2.2 2.3,1.2 4.6,2.5 9.2,2.5 4.6,0 7,-1.3 9.2,-2.5 2.1,-1.1 4.1,-2.2 8.1,-2.2 4,0 6,1.1 8.1,2.2 2.3,1.2 4.6,2.5 9.2,2.5 0.5,0 1,0 1.5,-0.1 0.7,0 1.2,-0.6 1.1,-1.3 0,-0.7 -0.6,-1.2 -1.3,-1.1 -0.4,0 -0.9,0 -1.4,0 -4,0 -6,-1.1 -8.1,-2.2 -2.3,-1.2 -4.6,-2.5 -9.2,-2.5 -4.6,0 -7,1.3 -9.2,2.5 -2.1,1.1 -4.1,2.2 -8.1,2.2 -4,0 -6,-1.1 -8.1,-2.2 -2.3,-1.2 -4.6,-2.5 -9.2,-2.5 -4.6,0 -7,1.3 -9.2,2.5 -1.5,0.8 -3,1.6 -5.3,2 -4.9,-4.3 -10.8,-7 -16.9,-8 3.9,-10.4 5.4,-17.8 4.8,-23.8 h 101.3 c 2.5,12.3 -6.9,30.7 -16.8,50.2 -10.7,21.2 -22.9,45.1 -22.9,66.8 0,12.9 3.1,21.8 8.6,25.8 l -88.9,0.1 c -9.3,-0.6 -14.8,-8.8 -16.3,-24.2 z m 114.9,13.4 -13.8,-0.1 c -1.3,-4 -1.9,-9 -1.9,-14.9 0,-3.4 0.3,-6.9 0.9,-10.4 h 20.6 c -1.1,0.8 -2,1.9 -2.9,3.1 -4.2,6.4 -4.5,16.6 -2.9,22.3 z m -1.8,10.8 c -5,0 -8.7,-3 -11.1,-8.5 l 14.5,0.1 c 0,0 0,0 0,0 0.4,0 0.8,-0.2 1,-0.5 0.2,-0.3 0.3,-0.8 0.1,-1.1 -1.9,-4.7 -2,-15.4 2.2,-21.7 2,-3 4.6,-4.5 7.9,-4.5 1.7,0 3,0.7 3.9,2.3 0.9,1.5 1.4,3.8 1.4,6.5 0.1,10.9 -7.9,27.4 -19.9,27.4 z m 20.6,-35.2 c -1.3,-2.2 -3.4,-3.4 -6,-3.4 h -27.2 c 2.4,-12.3 7.7,-25.1 13.6,-37.5 h 63.8 v 52.8 h -42.9 c 0.2,-1.4 0.3,-2.8 0.3,-4.2 0.2,-3.1 -0.4,-5.8 -1.6,-7.7 z m 46.7,10.2 v -51.7 l 37.1,-37.9 v 51.7 z"
   id="path647"
   inkscape:connector-curvature="0" />
		<path
   d="m 136.1,208.7 c 7.3,0 14.7,-2.8 20.3,-8.4 11.2,-11.2 11.2,-29.4 0,-40.6 -5.4,-5.4 -12.6,-8.4 -20.3,-8.4 -7.7,0 -14.9,3 -20.3,8.4 -5.4,5.4 -8.4,12.6 -8.4,20.3 0,7.7 3,14.9 8.4,20.3 5.6,5.7 13,8.4 20.3,8.4 z m 18.6,-47.2 c 10.3,10.3 10.3,26.9 0,37.2 -10.3,10.3 -26.9,10.3 -37.2,0 -0.9,-0.9 -1.7,-1.8 -2.5,-2.8 2.2,-6.2 4.1,-11.6 5.8,-16.9 2.7,-8.1 5.3,-15.8 8.9,-24.4 2,-0.5 4.2,-0.8 6.3,-0.8 7.1,0 13.7,2.7 18.7,7.7 z m -37.2,0 c 2.7,-2.7 5.8,-4.7 9.3,-6 -3.2,7.9 -5.6,15.1 -8.2,22.7 -1.6,4.8 -3.2,9.7 -5.2,15.2 -2.3,-4 -3.6,-8.5 -3.6,-13.3 0,-7.1 2.8,-13.7 7.7,-18.6 z"
   id="path649"
   inkscape:connector-curvature="0" />
		<path
   d="m 233.4,140.7 c 0.7,-0.1 1.1,-0.7 1.1,-1.3 0,-0.6 -0.7,-1.1 -1.3,-1.1 -0.6,0.1 -1.3,0.1 -2.1,0.1 -4,0 -6,-1.1 -8.1,-2.2 -2.3,-1.2 -4.6,-2.5 -9.3,-2.5 -4.7,0 -7,1.3 -9.3,2.5 -2.1,1.1 -4.1,2.2 -8.1,2.2 -4,0 -6,-1.1 -8.1,-2.2 -2.3,-1.2 -4.6,-2.5 -9.3,-2.5 -4.7,0 -7,1.3 -9.3,2.5 -2.1,1.1 -4.1,2.2 -8.1,2.2 -2,0 -3.7,-0.3 -5.3,-0.9 -0.6,-0.2 -1.3,0.1 -1.5,0.7 -0.2,0.6 0.1,1.3 0.7,1.5 1.8,0.7 3.8,1 6.1,1 4.7,0 7,-1.3 9.3,-2.5 2.1,-1.1 4.1,-2.2 8.1,-2.2 4,0 6,1.1 8.1,2.2 2.3,1.2 4.6,2.5 9.3,2.5 4.7,0 7,-1.3 9.3,-2.5 2.1,-1.1 4.1,-2.2 8.1,-2.2 4,0 6,1.1 8.1,2.2 2.3,1.2 4.6,2.5 9.3,2.5 0.8,0.2 1.6,0.1 2.3,0 z"
   id="path651"
   inkscape:connector-curvature="0" />
		<path
   d="m 197.9,219.9 c -0.2,0 -0.5,0 -0.7,0 -3.9,0 -5.9,-1.1 -7.9,-2.2 -2.2,-1.2 -4.5,-2.5 -9.1,-2.5 -4.5,0 -6.8,1.3 -9.1,2.5 -2,1.1 -4,2.2 -7.9,2.2 -3.9,0 -5.9,-1.1 -7.9,-2.2 -2.2,-1.2 -4.5,-2.5 -9.1,-2.5 -4.5,0 -6.8,1.3 -9.1,2.5 -2,1.1 -4,2.2 -7.9,2.2 -1.8,0 -3.3,-0.2 -4.8,-0.7 -0.6,-0.2 -1.3,0.1 -1.5,0.8 -0.2,0.6 0.1,1.3 0.8,1.5 1.6,0.6 3.4,0.8 5.5,0.8 4.5,0 6.8,-1.3 9.1,-2.5 2,-1.1 4,-2.2 7.9,-2.2 3.9,0 5.9,1.1 7.9,2.2 2.2,1.2 4.5,2.5 9.1,2.5 4.5,0 6.8,-1.3 9.1,-2.5 2,-1.1 4,-2.2 7.9,-2.2 3.9,0 5.9,1.1 7.9,2.2 2.2,1.2 4.5,2.5 9.1,2.5 0.3,0 0.5,0 0.8,0 0.7,0 1.2,-0.6 1.2,-1.2 -0.1,-0.7 -0.6,-1.3 -1.3,-1.2 z"
   id="path653"
   inkscape:connector-curvature="0" />
		<path
   d="m 135.5,236.2 c 2,-1.1 3.9,-2.1 7.7,-2.1 3.8,0 5.7,1 7.7,2.1 2.2,1.2 4.4,2.4 8.9,2.4 4.5,0 6.7,-1.2 8.9,-2.4 2,-1.1 3.9,-2.1 7.7,-2.1 3.9,0 5.7,1 7.7,2.1 2.2,1.2 4.4,2.4 8.9,2.4 0.9,0 1.7,0 2.4,-0.1 0.7,-0.1 1.1,-0.7 1,-1.3 -0.1,-0.7 -0.7,-1.1 -1.3,-1 -0.7,0.1 -1.4,0.1 -2.1,0.1 -3.9,0 -5.7,-1 -7.7,-2.1 -2.2,-1.2 -4.4,-2.4 -8.9,-2.4 -4.5,0 -6.7,1.2 -8.9,2.4 -2,1.1 -3.9,2.1 -7.7,2.1 -3.8,0 -5.7,-1 -7.7,-2.1 -2.2,-1.2 -4.4,-2.4 -8.9,-2.4 -4.5,0 -6.7,1.2 -8.9,2.4 -2,1.1 -3.9,2.1 -7.7,2.1 -1.4,0 -2.6,-0.1 -3.7,-0.4 -0.6,-0.2 -1.3,0.2 -1.5,0.9 -0.2,0.6 0.2,1.3 0.9,1.5 1.3,0.3 2.7,0.5 4.3,0.5 4.4,-0.2 6.7,-1.4 8.9,-2.6 z"
   id="path655"
   inkscape:connector-curvature="0" />
		<path
   d="m 196.5,252.6 c -0.8,0.1 -1.6,0.2 -2.6,0.2 -3.8,0 -5.7,-1.1 -7.7,-2.2 -2.2,-1.2 -4.4,-2.5 -8.9,-2.5 -4.5,0 -6.7,1.3 -8.9,2.5 -2,1.1 -3.9,2.2 -7.7,2.2 -3.8,0 -5.7,-1.1 -7.7,-2.2 -2.2,-1.2 -4.4,-2.5 -8.9,-2.5 -4.5,0 -6.7,1.3 -8.9,2.5 -2,1.1 -3.9,2.2 -7.7,2.2 -0.7,0 -1.5,0 -2.1,-0.1 -0.7,-0.1 -1.3,0.4 -1.3,1 -0.1,0.7 0.4,1.3 1,1.3 0.8,0.1 1.6,0.1 2.4,0.1 4.5,0 6.7,-1.3 8.9,-2.5 2,-1.1 3.9,-2.2 7.7,-2.2 3.8,0 5.7,1.1 7.7,2.2 2.2,1.2 4.4,2.5 8.9,2.5 4.5,0 6.7,-1.3 8.9,-2.5 2,-1.1 3.9,-2.2 7.7,-2.2 3.8,0 5.7,1.1 7.7,2.2 2.2,1.2 4.4,2.5 8.9,2.5 1.1,0 2,-0.1 2.9,-0.2 0.7,-0.1 1.1,-0.7 1,-1.4 0,-0.6 -0.7,-1 -1.3,-0.9 z"
   id="path657"
   inkscape:connector-curvature="0" />
	</g>
</g>
</svg>
